<svg width="1375" height="968" viewBox="0 0 1375 968" fill="none" xmlns="http://www.w3.org/2000/svg">
<path d="M1258.19 83.8297C1256.09 75.424 1252.68 67.5437 1248.47 60.4514L1258.45 45.4789L1244.8 31.8197L1231.15 18.1605L1216.19 28.1422C1208.84 23.9394 1200.96 20.5246 1192.82 18.4231L1189.41 0.823792H1169.99H1150.56L1147.15 18.4231C1138.75 20.5246 1130.87 23.9394 1123.78 28.1422L1108.82 18.1605L1095.17 31.8197L1081.52 45.4789L1091.5 60.4514C1087.3 67.8064 1083.88 75.6867 1081.78 83.8297L1064.2 87.2445V106.683V126.121L1081.78 129.535C1083.88 137.941 1087.3 145.821 1091.5 152.914L1081.52 167.886L1095.17 181.545L1108.56 195.73L1123.52 185.748C1130.87 189.951 1138.75 193.366 1146.88 195.467L1150.3 213.067H1169.72H1189.15L1192.56 195.467C1200.96 193.366 1208.84 189.951 1215.92 185.748L1230.89 195.73L1244.54 182.071L1258.19 168.412L1248.21 153.439C1252.41 146.084 1255.83 138.204 1257.93 130.061L1275.51 126.646V107.208V87.7698L1258.19 83.8297ZM1169.72 174.979C1132.18 174.979 1101.73 144.508 1101.73 106.945C1101.73 69.3825 1132.18 38.9119 1169.72 38.9119C1207.26 38.9119 1237.71 69.3825 1237.71 106.945C1237.71 144.508 1207.26 174.979 1169.72 174.979Z" fill="#73C0FF"/>
<path d="M424.729 317.612C422.629 309.206 419.216 301.326 415.016 294.234L424.991 279.261L411.341 265.602L397.691 251.943L382.728 261.925C375.378 257.722 367.503 254.307 359.365 252.206L355.952 234.606H336.527H317.101L313.689 252.206C305.288 254.307 297.413 257.722 290.326 261.925L275.363 251.943L261.712 265.602L248.062 279.261L258.037 294.234C253.837 301.589 250.425 309.469 248.324 317.612L230.737 321.027V340.465V359.903L248.324 363.318C250.425 371.723 253.837 379.604 258.037 386.696L248.062 401.669L261.712 415.328L275.363 428.987L290.326 419.005C297.676 423.208 305.551 426.623 313.689 428.724L317.101 446.324H336.527H355.952L359.365 428.724C367.765 426.623 375.64 423.208 382.728 419.005L397.691 428.987L411.341 415.328L424.991 401.669L415.016 386.696C419.216 379.341 422.629 371.461 424.729 363.318L442.317 359.903V340.465V321.027L424.729 317.612ZM336.264 408.498C298.726 408.498 268.275 378.028 268.275 340.465C268.275 302.902 298.726 272.432 336.264 272.432C373.803 272.432 404.253 302.902 404.253 340.465C404.253 378.028 373.803 408.498 336.264 408.498Z" fill="#73C0FF"/>
<path d="M1284.7 249.316C1283.65 245.376 1282.08 241.961 1280.24 238.546L1284.7 231.717L1278.4 225.412L1272.1 219.108L1265.28 223.574C1261.86 221.735 1258.45 220.159 1254.51 219.108L1252.94 210.965H1244.01H1235.09L1233.51 219.108C1229.57 220.159 1226.16 221.735 1222.75 223.574L1215.92 219.108L1209.62 225.412L1203.32 231.717L1207.79 238.546C1205.95 241.961 1204.37 245.376 1203.32 249.316L1195.19 250.892V259.823V268.754L1203.32 270.33C1204.37 274.27 1205.95 277.685 1207.79 281.1L1203.32 287.93L1209.62 294.234L1215.92 300.538L1222.75 296.073C1226.16 297.911 1229.57 299.487 1233.51 300.538L1235.09 308.681H1244.01H1252.94L1254.51 300.538C1258.45 299.487 1261.86 297.911 1265.28 296.073L1272.1 300.538L1278.4 294.234L1284.7 287.93L1280.24 281.1C1282.08 277.685 1283.65 274.27 1284.7 270.33L1292.84 268.754V259.823V250.892L1284.7 249.316ZM1244.27 290.819C1226.95 290.819 1213.04 276.897 1213.04 259.56C1213.04 242.224 1226.95 228.302 1244.27 228.302C1261.6 228.302 1275.51 242.224 1275.51 259.56C1275.25 276.897 1261.34 290.819 1244.27 290.819Z" fill="#73C0FF"/>
<path d="M720.484 868.19H816.037V577.932H720.484V868.19Z" fill="#4DA8F2"/>
<path d="M397.953 717.669H1139.01C1162.11 717.669 1181.01 698.756 1181.01 675.641V177.343C1181.01 154.227 1162.11 135.314 1139.01 135.314H397.953C374.853 135.314 355.952 154.227 355.952 177.343V675.641C355.952 699.019 374.59 717.669 397.953 717.669Z" fill="#B5DEFF"/>
<path d="M388.151 626.422L1148.37 626.422V73.4873L388.151 73.4873L388.151 626.422Z" fill="white"/>
<path d="M388.24 140.305H1148.46V73.5853H388.24V140.305Z" fill="url(#paint0_linear)"/>
<path d="M741.574 668.286C741.574 682.996 753.387 694.816 768.088 694.816C782.788 694.816 794.601 682.996 794.601 668.286C794.601 653.576 782.788 641.755 768.088 641.755C753.65 641.755 741.574 653.576 741.574 668.286Z" fill="#4DA8F2"/>
<path d="M644.709 207.55H871.778C876.765 207.55 880.966 203.348 880.966 198.357V197.043C880.966 192.053 876.765 187.85 871.778 187.85H644.709C639.722 187.85 635.522 192.053 635.522 197.043V198.357C635.522 203.348 639.722 207.55 644.709 207.55Z" fill="#DFE1E8"/>
<path d="M644.709 243.275H871.778C876.765 243.275 880.966 239.072 880.966 234.081V232.767C880.966 227.777 876.765 223.574 871.778 223.574H644.709C639.722 223.574 635.522 227.777 635.522 232.767V234.081C635.522 239.072 639.722 243.275 644.709 243.275Z" fill="#DFE1E8"/>
<path d="M644.709 278.999H871.778C876.765 278.999 880.966 274.796 880.966 269.805V268.492C880.966 263.501 876.765 259.298 871.778 259.298H644.709C639.722 259.298 635.522 263.501 635.522 268.492V269.805C635.522 274.796 639.722 278.999 644.709 278.999Z" fill="#DFE1E8"/>
<path d="M751.55 587.644H466.467C442.579 587.644 423.416 568.206 423.416 544.565V371.198C423.416 347.295 442.842 328.119 466.467 328.119H751.55C775.438 328.119 794.601 347.557 794.601 371.198V544.565C794.601 568.206 775.175 587.644 751.55 587.644ZM466.467 333.373C445.729 333.373 428.666 350.184 428.666 371.198V544.565C428.666 565.316 445.467 582.39 466.467 582.39H751.55C772.288 582.39 789.35 565.579 789.35 544.565V371.198C789.35 350.447 772.55 333.373 751.55 333.373H466.467Z" fill="#DFE1E8"/>
<path d="M489.043 393.263H728.974C739.474 393.263 748.137 384.857 748.137 374.088V370.41C748.137 359.903 739.737 351.235 728.974 351.235H489.043C478.543 351.235 469.88 359.64 469.88 370.41V374.088C469.88 384.857 478.543 393.263 489.043 393.263Z" fill="#DFE1E8"/>
<path d="M983.081 857.15H553.357V878.953H983.081V857.15Z" fill="#B5DEFF"/>
<path d="M1062.88 384.857C1062.88 407.71 1050.54 427.674 1032.17 438.181C1028.49 440.282 1024.56 442.121 1020.36 443.434C1020.09 443.434 1019.57 443.697 1019.31 443.697C1013.53 445.536 1007.23 446.586 1000.93 446.586C990.956 446.586 981.768 444.222 973.368 440.282C952.892 430.038 938.979 409.024 938.979 384.857C938.979 350.709 966.805 322.866 1000.93 322.866C1035.32 322.866 1062.88 350.709 1062.88 384.857Z" fill="#EEF0F7"/>
<path d="M986.231 378.29C986.231 378.29 982.031 350.972 1004.61 351.497C1027.18 352.023 1026.92 365.419 1026.66 379.078C1026.13 392.475 1017.47 391.424 1027.44 410.074C1037.16 428.724 1019.04 428.724 1019.04 428.724L1004.87 409.286L986.231 378.29Z" fill="#3C4145"/>
<path d="M1002.24 354.124C1002.24 354.124 987.018 356.488 986.231 378.29C985.706 400.093 990.431 404.821 1003.82 400.093C1017.21 395.627 1021.41 372.774 1021.67 369.097C1022.19 365.945 1022.98 351.497 1002.24 354.124Z" fill="#EEA886"/>
<path d="M1029.28 430.038C1029.28 436.605 1025.87 440.808 1020.62 443.697C1020.36 443.697 1019.83 443.96 1019.57 443.96C1013.79 445.798 1007.49 446.849 1001.19 446.849C991.218 446.849 982.031 444.485 973.63 440.545C971.793 436.867 974.418 431.614 979.931 423.471C983.606 417.955 987.281 412.176 993.843 409.549C1003.29 407.973 1013.01 407.973 1020.09 411.913C1025.34 414.803 1029.02 420.319 1029.28 430.038Z" fill="#E55353"/>
<path d="M982.818 422.945L975.73 433.978C975.73 433.978 976.255 432.139 977.043 427.411C977.305 426.36 977.305 425.572 977.568 424.259C977.568 423.996 977.568 423.471 977.83 423.208C980.718 416.379 990.168 411.125 990.693 410.862L982.818 422.945Z" fill="#E55353"/>
<path d="M1032.17 438.443C1028.49 440.545 1024.56 442.384 1020.36 443.697C1020.09 443.697 1019.57 443.96 1019.31 443.96C1017.73 440.019 1016.42 436.342 1016.16 435.554C1016.16 435.291 1015.89 434.766 1015.63 434.241C1014.32 431.088 1011.43 424.259 1011.43 419.005C1011.43 415.591 1012.48 412.701 1016.16 411.913C1017.47 411.65 1018.78 411.65 1019.83 411.65C1023.77 412.438 1025.87 415.853 1027.18 419.005C1027.18 419.005 1027.18 419.005 1027.18 419.268C1028.23 421.895 1028.49 424.259 1028.49 424.259C1028.49 424.259 1028.49 424.522 1028.76 425.047C1029.02 425.835 1029.28 427.674 1029.81 429.775C1030.59 431.877 1031.38 435.029 1032.17 438.443Z" fill="#EEA886"/>
<path d="M1012.48 390.374C1011.17 393 1009.86 408.498 1009.86 408.498C1009.86 408.498 991.218 415.591 993.056 411.65C993.843 409.812 994.106 407.448 994.106 405.346C994.106 403.77 994.106 402.457 993.843 401.669C993.843 401.143 993.843 401.143 993.843 401.143C993.843 401.143 1013.79 388.009 1012.48 390.374Z" fill="#EEA886"/>
<path d="M995.943 369.885C995.943 369.885 1003.82 382.756 1010.91 387.747C1017.99 392.738 1014.32 396.94 1014.32 396.94C1014.32 396.94 1032.96 357.539 1015.37 354.912C997.518 352.285 986.756 352.023 986.231 378.553C986.231 378.29 994.368 369.622 995.943 369.885Z" fill="#3C4145"/>
<path d="M1004.61 400.093C1001.72 404.295 994.106 405.609 994.106 405.609C994.106 404.033 994.106 402.719 993.843 401.931C998.831 402.457 1004.61 400.093 1004.61 400.093Z" fill="#A77860"/>
<path d="M977.831 423.208C977.831 423.208 977.305 423.996 977.043 427.411L979.931 423.208C979.931 423.208 984.918 416.116 986.493 414.277C988.068 412.438 990.693 410.862 990.693 410.862C990.693 410.862 980.718 415.591 977.831 423.208Z" fill="#BD4444"/>
<path d="M1015.11 433.715C1015.11 433.715 1027.18 428.987 1030.59 428.724C1030.59 428.724 1028.23 409.286 1016.42 411.388C1004.61 413.489 1015.11 433.715 1015.11 433.715Z" fill="#E55353"/>
<path d="M993.581 409.286C993.581 409.286 984.656 422.945 987.806 423.996C990.693 425.31 1006.97 422.42 1013.79 409.549C1013.79 409.549 1003.56 404.295 993.581 409.286Z" fill="#EEA886"/>
<path d="M342.804 707.87L246.464 708.601L246.532 717.532L342.872 716.801L342.804 707.87Z" fill="#323657"/>
<path d="M362.731 621.952L334.552 714.142L343.087 716.754L371.266 624.565L362.731 621.952Z" fill="#323657"/>
<path d="M516.344 728.439H508.731V960.382H516.344V728.439Z" fill="#706865"/>
<path d="M226.532 728.392H557.028V715.258H226.532V728.392Z" fill="#B59074"/>
<path d="M268.67 960.075H276.283V728.131H268.67V960.075Z" fill="#706865"/>
<path d="M126.521 808.03H117.596V922.294H126.521V808.03Z" fill="#918783"/>
<path d="M235.724 908.635C235.724 908.635 235.724 913.626 237.562 919.667C238.874 923.87 241.237 940.682 244.124 943.046C247.274 945.41 257.25 951.451 255.675 958.018C254.099 964.323 253.049 968.788 242.287 965.11C231.524 961.433 224.436 959.069 222.336 949.875C220.236 940.419 214.461 932.013 214.461 932.013L206.586 951.189L202.386 949.613C202.386 949.613 208.686 928.861 208.161 927.022C207.636 925.184 211.048 908.635 223.911 904.432C237.037 899.967 235.724 908.635 235.724 908.635Z" fill="#1D3B54"/>
<path d="M307.388 914.677C307.388 914.677 309.226 919.405 313.163 924.133C315.788 927.81 324.451 942.258 328.126 943.308C331.801 944.359 343.352 946.46 344.402 952.765C345.452 959.332 345.977 963.797 334.689 964.322C323.401 964.848 315.788 965.636 310.538 957.493C305.026 949.613 296.363 943.834 296.363 943.834V964.585H291.9C291.9 964.585 289.8 943.046 288.75 941.47C287.438 939.893 284.55 923.345 295.05 914.677C305.288 906.008 307.388 914.677 307.388 914.677Z" fill="#1D3B54"/>
<path d="M191.885 632.299C191.885 632.299 194.51 623.368 194.773 622.054C195.035 621.004 197.398 618.64 200.286 616.276C203.173 613.912 208.423 611.81 208.948 612.073C209.473 612.335 210.261 612.073 211.311 613.386C212.361 614.7 212.623 616.538 212.623 616.538C212.623 616.538 214.723 617.589 214.723 619.69C214.723 619.69 216.561 620.741 216.298 623.105C216.298 623.105 218.136 624.156 217.611 625.995C217.611 625.995 215.248 628.359 214.461 629.409C213.936 630.46 208.423 634.926 202.648 638.603C202.911 638.603 195.56 644.119 191.885 632.299Z" fill="#EEA886"/>
<path d="M202.911 625.207C202.911 625.207 203.961 628.884 203.698 630.197C203.436 631.511 212.361 631.511 212.361 631.511C212.361 631.511 207.373 623.893 202.911 625.207Z" fill="#CF8C6C"/>
<path d="M103.421 647.797C107.096 642.018 111.821 639.391 126.784 649.898C142.009 660.405 138.334 658.304 142.009 661.719C145.684 665.134 161.435 673.277 161.435 673.277C161.435 673.277 170.622 664.083 175.085 657.516C180.073 650.161 190.573 630.46 190.573 630.46L205.273 641.493C205.273 641.493 176.923 693.24 170.885 696.917C164.847 700.858 146.997 694.291 137.809 690.351C128.359 686.41 118.646 681.42 114.446 680.369C109.983 679.055 94.2329 662.769 103.421 647.797Z" fill="#1D3B54"/>
<path d="M210.933 587.611L203.845 619.94L206.666 620.56L213.754 588.23L210.933 587.611Z" fill="#EB4747"/>
<path d="M208.161 612.598C208.161 612.598 200.811 618.902 201.598 620.216C202.386 621.529 203.698 621.529 203.698 621.529L201.861 625.469C201.861 625.469 202.123 628.884 205.798 627.571C205.798 627.571 205.798 630.723 208.948 629.147C208.948 629.147 209.736 631.248 211.573 630.723C213.148 630.198 217.874 625.995 217.874 625.995C217.874 625.995 218.399 624.681 216.561 623.105C216.561 623.105 217.086 620.741 214.986 619.69C214.986 619.69 214.986 617.852 212.886 616.538C212.886 616.538 212.886 612.335 209.211 612.073C208.948 612.073 208.423 612.335 208.161 612.598Z" fill="#DB9C7C"/>
<path d="M194.773 622.317C194.773 622.317 199.761 617.852 203.436 616.538C204.223 616.276 205.273 616.013 205.798 616.801C206.323 617.589 206.061 619.165 203.961 621.266C201.861 623.368 200.286 626.783 200.286 626.783C200.286 626.783 197.661 628.359 194.773 622.317Z" fill="#EEA886"/>
<path d="M173.772 679.055C173.772 679.055 176.66 668.286 173.247 659.88C173.247 659.88 174.56 668.548 170.885 674.59C168.26 679.055 173.772 679.055 173.772 679.055Z" fill="#152C3D"/>
<path d="M227.849 680.631C227.849 680.631 235.724 621.529 249.637 595.787H229.161C229.161 595.787 206.323 636.239 210.523 676.954L227.849 680.631Z" fill="#EDDAD3"/>
<path d="M232.836 636.502C232.836 636.502 235.199 632.036 235.724 630.723C236.249 629.409 238.612 631.774 238.349 633.612C237.824 635.451 232.836 636.502 232.836 636.502Z" fill="#EEA886"/>
<path d="M250.949 646.221C250.949 646.221 250.424 648.322 249.637 649.11C249.637 649.11 248.324 650.424 247.274 651.474C247.012 651.737 246.749 652 246.487 652.262C245.962 653.05 244.912 655.152 242.812 656.728C240.712 658.304 233.099 663.557 233.099 663.557L227.586 657.779L223.124 653.313C223.124 653.313 226.799 639.391 228.636 637.553C228.899 637.29 228.899 637.29 229.161 637.027C230.736 635.714 232.574 635.451 233.361 634.663C233.624 634.4 237.299 632.562 238.349 632.824C239.924 633.35 240.712 634.4 240.974 635.714C240.974 635.714 243.862 637.027 244.912 639.129C244.912 639.129 247.799 640.179 248.324 643.069C248.324 643.069 250.949 644.382 250.949 646.221Z" fill="#EEA886"/>
<path d="M287.175 799.099C287.175 799.099 273.787 829.569 264.075 851.109C262.5 854.786 260.925 858.201 259.612 861.09C258.037 864.505 256.725 867.395 255.937 869.496C249.899 883.418 234.674 913.363 234.674 913.363C234.674 913.363 223.386 913.889 222.599 904.169C222.599 904.169 233.624 883.155 233.624 868.445C233.624 853.736 235.724 810.394 249.637 801.2C266.437 789.905 277.725 787.804 287.175 799.099Z" fill="#EEA886"/>
<path d="M162.222 741.31C162.222 741.31 165.11 744.199 167.472 744.725C169.835 745.513 210.261 748.402 228.899 754.706C247.537 760.748 272.213 764.688 276.938 769.942C281.663 775.195 289.275 804.09 289.013 809.606C288.75 815.122 305.288 907.584 307.388 914.677C308.438 918.617 292.426 917.041 292.426 917.041C292.426 917.041 269.587 862.404 264.6 852.422C255.675 833.772 255.15 811.182 251.999 807.767C248.587 804.352 212.098 796.472 191.098 796.472C170.097 796.472 122.846 798.311 117.859 795.421C112.871 792.532 81.3701 771.78 94.4954 743.937C107.358 715.83 162.222 741.31 162.222 741.31Z" fill="#EEA886"/>
<path d="M253.312 761.273L219.974 825.629C219.974 825.629 209.998 801.726 192.41 797.785C174.822 793.583 104.733 795.947 104.733 795.947C104.733 795.947 72.7074 755.232 100.008 733.955C127.571 712.678 159.597 737.37 159.597 737.37C159.597 737.37 166.16 744.462 169.572 744.725C192.935 745.513 217.874 749.715 253.312 761.273Z" fill="#1D3B54"/>
<path d="M327.864 943.308C327.864 943.308 317.626 945.935 313.688 943.308C309.751 940.682 296.625 918.354 292.163 917.041C292.163 917.041 296.363 908.372 307.126 914.677C307.388 914.677 324.976 939.631 327.864 943.308Z" fill="#EEA886"/>
<path d="M244.124 943.046C244.124 943.046 233.624 941.732 230.999 937.792C228.374 933.852 224.436 908.372 220.761 905.483C220.761 905.483 227.849 899.179 235.461 908.898C235.724 908.635 242.812 938.318 244.124 943.046Z" fill="#EEA886"/>
<path d="M138.071 539.311C146.209 539.049 163.797 542.989 166.685 564.266C166.685 564.266 166.16 570.045 164.585 574.51C163.272 578.976 167.21 592.372 166.16 592.897C165.11 593.423 160.647 594.474 160.647 594.474C160.647 594.474 155.922 608.921 150.934 608.921C145.947 608.921 126.521 604.718 117.596 586.856C108.408 568.468 105.783 540.887 138.071 539.311Z" fill="#EEA886"/>
<path d="M144.109 602.091C144.109 602.091 143.584 604.192 142.797 607.082C142.534 608.658 142.009 610.497 141.746 612.335C140.696 617.589 140.171 623.893 141.746 627.833C141.746 627.833 130.459 631.774 121.533 615.75C121.533 615.75 125.471 598.676 120.483 588.169C115.233 578.187 144.109 602.091 144.109 602.091Z" fill="#EEA886"/>
<path d="M166.685 564.266C166.685 564.266 154.347 575.298 141.484 574.51C128.359 573.722 119.696 590.271 119.696 590.271C119.696 590.271 100.008 565.579 115.758 545.616C131.509 525.39 169.31 539.311 166.685 564.266Z" fill="#1D3B54"/>
<path d="M135.184 574.247C135.184 571.621 132.296 567.943 128.359 571.358C124.159 574.773 129.671 586.593 133.084 585.542C136.496 584.492 135.446 576.874 135.184 574.247Z" fill="#EEA886"/>
<path d="M142.797 607.082C142.534 608.658 142.009 610.497 141.747 612.336C131.246 605.769 125.996 597.626 125.996 597.626C132.034 603.142 142.797 607.082 142.797 607.082Z" fill="#A77860"/>
<path d="M173.247 668.023C170.885 679.055 164.585 679.581 165.11 687.724C165.372 695.867 167.997 696.655 163.797 709.263C163.01 711.627 162.485 714.254 161.96 716.881C161.96 717.144 161.96 717.406 161.697 717.932C161.435 719.508 161.172 720.821 160.91 722.397C160.647 725.024 160.384 727.651 160.122 730.277C159.597 736.582 164.322 741.572 164.322 741.572C164.322 741.572 123.371 766.264 95.0203 762.849C95.0203 762.849 102.371 732.116 106.308 721.609C110.246 711.102 109.196 662.507 106.046 652C101.583 636.502 110.508 613.386 122.321 610.497L140.696 619.165C140.696 619.165 159.334 641.493 163.535 644.645C167.735 647.534 175.61 656.991 173.247 668.023Z" fill="#1D3B54"/>
<path d="M112.346 623.105C117.596 618.64 125.209 611.285 136.234 625.995C147.259 640.705 155.135 650.161 157.76 654.364C160.122 658.567 180.86 688.512 180.86 688.512C180.86 688.512 191.886 678.267 198.186 673.539C205.273 668.023 224.699 648.06 224.699 648.06L237.562 662.244C237.562 662.244 193.198 711.365 186.373 713.203C179.548 715.042 160.385 697.706 152.772 690.876C145.159 684.309 123.896 659.88 120.221 657.516C115.759 655.152 98.6956 634.4 112.346 623.105Z" fill="#1D3B54"/>
<path d="M263.812 851.109C262.237 854.786 260.662 858.201 259.35 861.09C254.362 845.067 254.887 818.274 254.887 818.274C257.775 837.187 263.812 850.846 263.812 851.109Z" fill="#A77860"/>
<path d="M192.148 795.684H49.8693V811.445H192.148V795.684Z" fill="#B5DEFF"/>
<path d="M123.896 745.513C123.896 745.513 120.221 759.96 137.284 763.375C154.084 766.79 174.822 770.992 174.822 796.997H116.283L123.896 745.513Z" fill="#B5DEFF"/>
<path d="M210.786 587.644L213.148 583.178L213.411 588.169L210.786 587.644Z" fill="#EEA886"/>
<path d="M49.8693 811.182L0.255493 602.091C0.255493 602.091 90.0328 588.169 100.796 628.359C111.558 668.811 129.146 788.592 150.409 796.209C171.935 803.564 49.8693 811.182 49.8693 811.182Z" fill="#B5DEFF"/>
<path d="M165.635 702.434C165.635 702.434 164.847 706.374 163.797 709.526L142.009 681.157L165.635 702.434Z" fill="#152C3D"/>
<path d="M110.771 572.146C110.771 572.146 119.434 594.999 117.071 601.303C117.071 601.303 130.459 595.524 128.096 580.552C125.734 565.579 110.771 572.146 110.771 572.146Z" fill="#1D3B54"/>
<path d="M142.009 619.69V615.225L122.846 606.031L116.021 613.649L142.009 619.69Z" fill="#1D3B54"/>
<path d="M209.998 951.714C209.998 955.917 206.586 959.069 202.648 959.069C198.448 959.069 195.298 955.654 195.298 951.714C195.298 947.511 198.711 944.359 202.648 944.359C206.586 944.096 209.998 947.511 209.998 951.714Z" fill="#BFB2AC"/>
<path d="M42.519 944.359L44.3566 949.613L123.896 924.921L120.221 914.151L42.519 944.359Z" fill="#918783"/>
<path d="M202.648 944.359L200.548 949.613L121.009 924.921L124.684 913.363L202.648 944.359Z" fill="#918783"/>
<path d="M146.472 949.087V955.129L121.009 924.921L124.684 913.363L146.472 949.087Z" fill="#918783"/>
<path d="M146.997 951.714C146.997 955.917 143.584 959.069 139.647 959.069C135.447 959.069 132.296 955.654 132.296 951.714C132.296 947.511 135.709 944.359 139.647 944.359C143.847 944.096 146.997 947.511 146.997 951.714Z" fill="#BFB2AC"/>
<path d="M42.5191 959.069C46.5785 959.069 49.8693 955.776 49.8693 951.714C49.8693 947.652 46.5785 944.359 42.5191 944.359C38.4597 944.359 35.1689 947.652 35.1689 951.714C35.1689 955.776 38.4597 959.069 42.5191 959.069Z" fill="#BFB2AC"/>
<path d="M1085.72 204.398C1085.72 224.099 1078.63 242.224 1066.82 256.146C1064.2 259.298 1061.05 262.45 1057.9 265.339C1056.85 266.127 1056.06 266.915 1055.01 267.703C1053.96 268.492 1052.91 269.28 1051.59 270.068C1041.09 277.685 1028.49 282.676 1015.11 284.252C1012.74 284.515 1010.38 284.777 1007.76 284.777C1006.97 284.777 1005.92 284.777 1005.13 284.777C1002.51 284.777 999.881 284.777 997.518 284.515C994.631 284.252 992.006 283.727 989.118 283.201C977.043 280.837 965.755 275.584 956.305 268.229C953.417 266.127 950.792 263.763 948.167 261.137C947.642 260.611 947.117 260.086 946.592 259.561C944.755 257.722 943.18 255.62 941.604 253.519C931.104 239.86 924.804 222.786 924.804 204.398C924.804 160.006 960.768 123.757 1005.39 123.757C1049.76 123.757 1085.72 159.743 1085.72 204.398Z" fill="#EEF0F7"/>
<path d="M1057.63 248.791L1051.59 270.068C1041.09 277.685 1028.49 282.676 1015.11 284.252C1012.74 284.515 1010.38 284.777 1007.76 284.777C1006.97 284.777 1005.92 284.777 1005.13 284.777C1002.51 284.777 999.881 284.777 997.519 284.515C994.631 284.252 992.006 283.727 989.118 283.201C977.043 280.837 965.755 275.584 956.305 268.229C955.255 261.137 953.942 253.256 952.892 246.164C958.93 244.063 977.568 237.496 989.643 233.555C989.906 233.555 989.906 233.555 990.168 233.293C990.431 233.293 990.693 233.03 990.956 233.03C991.743 232.767 992.268 232.505 993.056 232.242C993.581 231.979 994.369 231.717 994.894 231.717C997.256 230.929 999.094 230.403 999.619 230.141C999.881 230.141 999.881 230.141 999.881 230.141H1000.14L1016.16 231.454L1018.78 231.717H1019.57C1019.57 231.717 1019.57 231.717 1019.83 231.717C1020.88 231.979 1023.51 232.767 1027.18 233.818C1036.63 236.445 1051.86 241.961 1057.63 248.791Z" fill="#D9C7C1"/>
<path d="M1009.59 164.209C1009.59 164.209 1028.76 167.361 1025.61 197.569C1022.46 227.514 1005.39 224.887 1004.34 224.887C1003.29 224.887 987.281 225.15 986.493 188.638C986.231 188.638 985.968 161.319 1009.59 164.209Z" fill="#EEA987"/>
<path d="M1017.99 216.219C1017.99 216.219 1017.21 228.565 1018.52 231.191C1019.57 233.818 1003.03 242.487 992.793 232.767C992.793 232.767 994.894 219.371 994.106 214.38C993.581 209.652 1017.99 216.219 1017.99 216.219Z" fill="#EEA987"/>
<path d="M1025.87 189.163C1025.87 189.163 1027.97 187.062 1028.76 189.163C1029.54 191.527 1025.34 201.509 1025.61 202.034C1025.61 202.034 1025.34 202.822 1024.82 202.297C1024.03 201.772 1025.87 189.163 1025.87 189.163Z" fill="#EEA987"/>
<path d="M986.493 188.375C986.493 188.375 984.393 186.011 983.606 188.375C982.818 190.739 985.706 200.721 986.231 201.246C986.231 201.246 987.018 202.297 987.281 201.772C987.806 201.246 986.493 188.375 986.493 188.375Z" fill="#EEA987"/>
<path d="M1026.92 186.536C1026.13 190.739 1025.61 193.629 1025.61 193.629L1022.72 197.306C1022.72 197.306 1022.98 189.163 1022.46 188.112C1022.19 187.587 1022.19 186.799 1021.93 185.748C1021.67 184.172 1021.41 182.596 1021.14 182.071C1020.88 181.283 1004.61 176.555 990.431 183.122C990.431 183.122 990.431 184.435 990.431 185.748C990.431 187.324 990.168 189.163 989.643 189.426C988.331 189.951 988.856 198.882 988.856 198.882L986.756 196.255C986.756 196.255 986.231 191.527 985.443 186.274C985.181 184.96 985.181 183.647 984.918 182.334C984.656 176.817 985.181 167.098 992.268 161.319C996.993 159.218 1004.61 157.642 1017.21 161.319C1017.21 161.319 1020.09 161.582 1020.88 162.37C1028.76 171.038 1026.92 186.536 1026.92 186.536Z" fill="#E8734D"/>
<path d="M995.418 220.947C995.418 220.947 998.569 225.15 1005.66 225.15C1012.74 224.887 1015.89 221.21 1015.89 221.21C1015.89 221.21 1012.48 228.302 1005.66 228.302C998.831 228.039 995.418 220.947 995.418 220.947Z" fill="#C78D71"/>
<path d="M990.693 233.03C990.693 233.03 995.944 241.961 1005.66 242.749C1011.96 243.275 1017.21 235.394 1019.57 231.717C1019.57 231.717 1005.92 225.675 990.693 233.03Z" fill="#EEA987"/>
<path d="M1017.99 228.827C1017.99 228.827 1014.06 234.081 1005.66 239.334L1010.91 247.215L1019.83 231.454L1017.99 228.827Z" fill="#EDDAD3"/>
<path d="M993.056 229.878C993.056 229.878 998.043 236.182 1005.66 239.334L999.881 247.477L989.906 233.03L993.056 229.878Z" fill="#EDDAD3"/>
<path d="M1005.66 239.334L1010.12 246.164C1010.12 246.164 1005.39 248.791 1001.19 245.901L1005.66 239.334Z" fill="#5073AB"/>
<path d="M1062.88 247.477C1062.88 247.477 1062.88 247.74 1062.88 248.003C1062.36 249.841 1060.52 256.408 1058.16 265.339C1057.11 266.127 1056.32 266.915 1055.27 267.703C1054.22 268.492 1053.17 269.28 1051.86 270.068C1041.36 277.685 1028.76 282.676 1015.37 284.252C1016.68 256.408 1019.83 231.717 1019.83 231.717C1022.46 232.505 1024.82 233.03 1027.18 233.818C1047.66 239.597 1057.89 244.851 1061.57 246.689C1062.36 247.215 1062.88 247.477 1062.88 247.477Z" fill="#323657"/>
<path d="M989.118 283.201C977.043 280.837 965.755 275.584 956.305 268.229C953.417 266.127 950.792 263.763 948.167 261.137C947.642 260.611 947.117 260.086 946.592 259.561C945.28 253.519 944.229 249.579 944.229 249.316C944.229 249.316 954.205 242.749 989.381 233.293C989.381 234.344 989.381 256.934 989.118 283.201Z" fill="#323657"/>
<path d="M1008.28 246.952C1008.02 254.307 1008.02 268.492 1008.02 284.777C1007.23 284.777 1006.18 284.777 1005.39 284.777C1002.77 284.777 1000.14 284.777 997.781 284.515C999.356 264.551 1001.98 251.943 1003.03 246.952C1003.29 245.376 1003.56 244.588 1003.56 244.588L1008.28 245.376C1008.28 245.901 1008.28 246.427 1008.28 246.952Z" fill="#5073AB"/>
<path d="M1066.82 256.146C1064.2 259.298 1061.05 262.45 1057.9 265.339C1056.85 266.127 1056.06 266.915 1055.01 267.704L1061.31 246.689C1061.57 246.952 1062.1 247.477 1062.62 248.003C1063.93 249.579 1065.51 252.468 1066.82 256.146Z" fill="#323657"/>
<path d="M948.167 261.137C947.642 260.611 947.117 260.086 946.592 259.561C944.755 257.722 943.18 255.62 941.604 253.519C942.392 251.418 943.442 249.841 944.23 249.316L948.167 261.137Z" fill="#323657"/>
<path d="M519.231 119.554H428.929C423.941 119.554 419.741 115.614 419.741 110.36V103.268C419.741 98.2769 423.679 94.0741 428.929 94.0741H519.231C524.219 94.0741 528.419 98.0142 528.419 103.268V110.36C528.419 115.351 524.219 119.554 519.231 119.554Z" fill="#F5F7FF"/>
<path d="M464.892 284.777C469.88 286.616 475.393 287.404 480.905 287.404C497.968 287.667 513.194 279.787 522.644 267.178C529.469 258.51 533.407 247.74 533.407 235.92C533.407 234.869 533.407 233.555 533.407 232.505C533.144 227.251 532.094 222.26 530.257 217.532C523.169 197.831 504.268 183.384 481.955 183.121C469.88 182.859 458.855 186.799 449.929 193.629C437.592 203.085 429.454 217.795 429.191 234.606C429.191 257.984 443.892 277.685 464.892 284.777ZM442.317 234.869C442.579 222.26 448.354 211.228 457.805 204.398C464.63 199.145 473.03 196.255 481.955 196.255C498.756 196.518 512.669 207.025 518.181 221.998C519.494 225.412 520.281 229.353 520.544 233.293C520.544 234.081 520.544 235.132 520.544 235.92C520.544 244.851 517.394 252.731 512.406 259.298C505.056 268.754 493.768 274.533 480.905 274.533C476.705 274.533 472.768 273.745 468.83 272.432C453.342 267.178 442.317 252.206 442.317 234.869Z" fill="#78C2FF"/>
<path d="M512.406 259.298L522.644 267.178C512.931 279.524 497.706 287.667 480.905 287.404C475.393 287.404 469.88 286.354 464.892 284.777L469.092 272.432C472.768 273.745 476.968 274.533 481.168 274.533C493.768 274.796 505.056 268.754 512.406 259.298Z" fill="#1A598C"/>
<path d="M520.544 233.293L533.669 232.505C533.669 233.555 533.669 234.869 533.669 235.92C533.406 247.74 529.469 258.51 522.644 267.178L512.406 259.298C517.394 252.731 520.544 244.588 520.544 235.92C520.544 235.132 520.544 234.081 520.544 233.293Z" fill="#2273B5"/>
<path d="M520.544 233.293C520.281 229.353 519.494 225.675 518.181 221.998L530.519 217.532C532.357 222.26 533.407 227.251 533.669 232.505L520.544 233.293Z" fill="#2273B5"/>
<path d="M450.192 193.891C459.117 187.062 470.143 183.384 482.218 183.384C504.531 183.647 523.431 197.831 530.519 217.795L518.181 222.26C512.669 207.55 498.756 196.781 481.955 196.518C472.768 196.518 464.367 199.407 457.805 204.661L450.192 193.891Z" fill="#4DA8F2"/>
<path d="M868.89 388.535H835.027C828.202 388.535 822.952 383.019 822.952 376.452V342.829C822.952 335.999 828.464 330.746 835.027 330.746H868.89C875.716 330.746 880.966 336.262 880.966 342.829V376.714C880.966 383.281 875.716 388.535 868.89 388.535Z" fill="#78C2FF"/>
<path d="M850.252 372.512L835.552 359.64C834.239 358.59 834.239 356.751 835.289 355.438C836.339 354.124 838.177 354.124 839.49 355.175L849.99 364.106L864.69 347.557C865.74 346.244 867.578 346.244 868.89 347.295C870.203 348.345 870.203 350.184 869.153 351.497L850.252 372.512Z" fill="#F3F3F3"/>
<path d="M868.89 463.135H835.027C828.202 463.135 822.952 457.619 822.952 451.052V417.167C822.952 410.337 828.464 405.083 835.027 405.083H868.89C875.716 405.083 880.966 410.6 880.966 417.167V451.052C880.966 457.619 875.716 463.135 868.89 463.135Z" fill="#78C2FF"/>
<path d="M850.252 446.849L835.552 433.978C834.239 432.927 834.239 431.088 835.289 429.775C836.339 428.462 838.177 428.462 839.49 429.512L849.99 438.443L864.69 421.895C865.74 420.581 867.578 420.581 868.89 421.632C870.203 422.683 870.203 424.522 869.153 425.835L850.252 446.849Z" fill="#F3F3F3"/>
<path d="M868.89 537.473H835.027C828.202 537.473 822.952 531.956 822.952 525.389V491.504C822.952 484.675 828.464 479.421 835.027 479.421H868.89C875.716 479.421 880.966 484.937 880.966 491.504V525.389C880.966 531.956 875.716 537.473 868.89 537.473Z" fill="#78C2FF"/>
<path d="M639.197 881.317C639.197 881.317 641.034 893.137 642.084 898.128C643.134 903.119 654.16 917.566 653.897 919.93C653.635 922.294 649.172 925.184 646.81 923.345C644.447 921.244 629.222 905.746 625.809 898.916C622.659 892.086 611.634 883.418 610.584 880.266C609.534 877.376 623.446 868.445 626.859 867.132C630.272 865.819 639.197 881.317 639.197 881.317Z" fill="#1D2033"/>
<path d="M612.158 671.963C612.158 671.963 613.471 679.581 614.521 680.894C615.571 682.208 618.459 689.3 618.721 690.35C618.984 691.401 620.821 698.494 621.084 699.282C621.346 700.07 619.509 701.646 617.934 699.807C617.146 698.756 615.571 694.028 615.046 692.715C614.521 691.139 612.683 686.673 612.158 687.461C611.633 688.249 611.896 694.553 611.633 696.129C611.633 697.705 612.683 702.696 612.946 704.798C613.208 706.899 616.096 715.305 615.046 715.83C613.996 716.355 612.946 716.093 611.633 713.991C611.633 713.991 609.533 715.305 608.221 712.415C608.221 712.415 606.121 713.203 605.071 709.526C605.071 709.526 603.758 708.738 603.233 707.424C602.708 706.111 599.558 694.816 599.558 690.35C599.558 685.622 600.608 682.47 600.346 679.318C600.083 676.166 598.508 669.074 598.508 669.074L612.158 671.963Z" fill="#EEA886"/>
<path d="M631.322 865.293L627.121 867.132L639.197 881.317L643.397 876.851L631.322 865.293Z" fill="#50558A"/>
<path d="M673.585 894.976C673.585 894.976 670.96 901.543 668.597 904.17C666.235 906.796 657.572 911.262 657.572 918.879C657.572 927.285 672.273 924.921 678.048 924.658C683.823 924.396 684.348 919.93 686.71 915.202C689.073 910.474 691.698 911.262 691.961 907.584C692.486 903.907 690.123 895.238 690.123 895.238L673.585 894.976Z" fill="#1D2033"/>
<path d="M673.323 892.349L672.798 896.289C672.798 896.289 681.723 899.441 690.386 896.552L689.861 891.298L673.323 892.349Z" fill="#50558A"/>
<path d="M723.462 792.532C723.462 782.287 716.111 692.977 716.374 689.563C716.636 687.461 714.274 665.922 712.436 651.474V651.212C711.911 647.009 711.649 643.594 711.386 641.23C711.386 640.179 711.124 639.391 711.124 638.866C711.124 638.341 711.124 638.078 711.124 638.078C711.124 638.078 663.085 628.622 638.147 637.553C637.097 637.815 636.047 638.341 635.259 638.866C635.259 638.866 635.259 639.391 634.997 640.179C634.734 642.018 634.209 645.958 633.422 651.212C633.422 652 633.159 653.05 633.159 654.101C629.484 680.894 631.847 710.314 638.147 740.259C644.185 769.679 647.597 791.481 648.122 795.947C648.91 801.463 651.272 816.961 654.16 833.772C641.034 850.058 629.484 863.98 630.534 865.293C632.634 868.708 651.272 887.884 652.322 884.469C652.322 884.469 655.735 880.791 660.985 874.487C662.56 884.731 663.873 891.824 663.873 891.824C663.873 891.824 684.348 896.815 691.698 892.349C691.698 892.349 688.811 870.022 685.661 845.593C704.036 822.74 723.462 797.785 723.462 792.532ZM678.31 785.177C678.048 771.518 672.01 694.553 672.535 694.553C675.423 694.553 692.486 767.84 693.011 778.085C693.011 780.186 690.386 784.914 686.186 791.219C684.348 794.108 681.986 796.997 679.623 800.412C679.098 792.795 678.573 787.278 678.31 785.177Z" fill="#292C47"/>
<path d="M731.599 510.154L718.736 556.648C718.211 558.224 717.686 560.063 717.161 562.164C715.061 570.57 712.436 583.178 711.649 597.1C711.124 606.557 712.961 645.17 712.961 645.17C712.961 645.17 693.273 652.525 664.135 650.686C664.135 650.686 632.634 649.898 635.259 630.723C642.084 579.501 635.522 558.487 634.472 553.233C634.472 553.233 630.272 528.279 627.121 507.527C636.047 504.113 673.848 491.504 673.848 491.504L693.536 493.08C693.273 492.818 722.936 500.172 731.599 510.154Z" fill="#D9C7C1"/>
<path d="M683.298 425.572C683.298 425.572 702.461 428.724 699.311 458.932C696.161 488.877 679.098 486.251 678.048 486.251C676.998 486.251 660.985 486.513 660.197 450.001C660.197 450.001 659.935 422.683 683.298 425.572Z" fill="#EEA987"/>
<path d="M691.698 477.582C691.698 477.582 690.91 489.928 692.223 492.555C693.273 495.182 676.735 503.85 666.497 494.131C666.497 494.131 668.597 480.734 667.81 475.744C667.285 471.015 691.698 477.582 691.698 477.582Z" fill="#EEA987"/>
<path d="M699.573 450.527C699.573 450.527 701.673 448.425 702.461 450.527C703.248 452.891 699.048 462.872 699.311 463.398C699.311 463.398 699.048 464.186 698.523 463.66C697.998 463.135 699.573 450.527 699.573 450.527Z" fill="#EEA987"/>
<path d="M660.46 449.739C660.46 449.739 658.36 447.374 657.572 449.739C656.785 452.103 659.672 462.084 660.197 462.61C660.197 462.61 660.985 463.66 661.247 463.135C661.772 462.61 660.46 449.739 660.46 449.739Z" fill="#EEA987"/>
<path d="M700.886 447.9C700.098 452.103 699.573 454.992 699.573 454.992L696.686 458.67C696.686 458.67 696.948 450.527 696.423 449.476C696.161 448.951 696.161 448.162 695.898 447.112C695.636 445.536 695.373 443.96 695.111 443.434C694.848 442.646 678.573 437.918 664.397 444.485C664.397 444.485 664.397 445.798 664.397 447.112C664.397 448.688 664.135 450.527 663.347 450.789C662.035 451.315 662.56 460.246 662.56 460.246L660.46 457.619C660.46 457.619 659.935 452.891 659.147 447.637C658.885 446.324 658.885 445.01 658.622 443.697C658.36 438.181 658.885 428.462 665.972 422.683C670.698 420.581 678.31 419.005 690.911 422.683C690.911 422.683 693.798 422.946 694.586 423.734C702.461 432.402 700.886 447.9 700.886 447.9Z" fill="#E8734D"/>
<path d="M669.385 482.31C669.385 482.31 672.535 486.513 679.623 486.513C686.71 486.251 689.861 482.573 689.861 482.573C689.861 482.573 686.448 489.665 679.623 489.665C672.535 489.403 669.385 482.31 669.385 482.31Z" fill="#C78D71"/>
<path d="M664.66 494.394C664.66 494.394 669.91 503.325 679.623 504.113C685.923 504.638 691.173 496.758 693.536 493.08C693.536 493.08 679.623 487.039 664.66 494.394Z" fill="#EEA987"/>
<path d="M691.698 490.191C691.698 490.191 687.76 495.444 679.36 500.698L684.61 508.578L693.536 492.818L691.698 490.191Z" fill="#EDDAD3"/>
<path d="M667.022 491.241C667.022 491.241 672.01 497.546 679.623 500.698L673.848 508.841L663.872 494.394L667.022 491.241Z" fill="#EDDAD3"/>
<path d="M679.623 500.698L684.085 507.527C684.085 507.527 679.36 510.154 675.16 507.265L679.623 500.698Z" fill="#5073AB"/>
<path d="M633.684 654.101C633.684 654.101 657.835 663.032 712.174 654.626L711.386 644.645C711.386 644.645 679.885 653.838 634.734 645.958L633.684 654.101Z" fill="#1D2033"/>
<path d="M693.536 493.08C693.536 493.08 688.023 535.109 688.811 571.358C689.598 607.607 716.899 673.539 716.899 673.539C716.899 673.539 728.974 661.981 733.962 655.415C733.962 655.415 715.324 601.566 715.586 591.847C715.849 582.128 736.587 508.841 736.587 508.841C736.587 508.841 725.299 501.223 693.536 493.08Z" fill="#323657"/>
<path d="M663.347 494.656C663.347 494.656 663.347 534.846 662.56 571.095C661.772 607.345 657.047 674.853 657.047 674.853C657.047 674.853 630.271 670.65 625.021 664.083C625.021 664.083 635.784 601.303 635.522 591.584C635.259 581.865 618.196 510.417 618.196 510.417C618.196 510.417 628.171 504.113 663.347 494.656Z" fill="#323657"/>
<path d="M681.198 647.797H666.497V658.829H681.198V647.797Z" fill="#3A4066"/>
<path d="M677.523 505.951C677.523 505.951 670.96 528.542 670.435 573.197C669.91 617.852 671.222 630.723 671.222 630.723L676.473 640.967L683.298 630.198C683.298 630.198 681.198 527.228 682.248 506.477L677.523 505.951Z" fill="#5073AB"/>
<path d="M715.324 673.802C715.324 673.802 716.899 672.751 717.424 671.963C717.424 671.963 718.211 670.387 718.736 669.599C718.999 669.336 718.999 669.074 719.261 668.811C719.786 668.023 721.099 666.71 721.886 664.608C722.674 662.507 723.199 653.313 723.199 653.313L717.424 651.737L712.436 649.636C712.436 649.636 701.411 658.041 700.361 659.88C700.361 660.143 700.098 660.143 700.098 660.405C699.573 661.981 699.836 663.295 699.573 664.345C699.573 664.608 699.048 667.76 699.836 668.548C700.886 669.599 701.936 669.862 702.986 669.599C702.986 669.599 705.086 671.438 707.186 671.7C707.186 671.7 709.024 673.539 711.649 673.014C711.649 672.751 713.749 674.327 715.324 673.802Z" fill="#EEA886"/>
<path d="M708.236 648.585C708.236 648.585 715.849 655.414 726.611 658.829C726.611 658.829 762.312 600.778 762.575 596.575C763.1 592.635 744.987 513.832 736.849 508.841L722.149 552.182C723.199 551.92 738.949 585.017 738.949 589.483C738.949 595.261 708.236 648.585 708.236 648.585Z" fill="#323657"/>
<path d="M616.359 679.581C616.359 679.581 608.483 681.157 596.671 680.369C596.671 680.369 601.133 605.769 600.608 601.828C600.083 597.888 609.796 515.67 617.934 510.68L632.372 554.547C631.322 554.284 622.659 599.464 622.659 603.667C622.921 609.446 616.359 679.581 616.359 679.581Z" fill="#323657"/>
<path d="M698.786 656.728L721.624 668.548L712.699 685.097L693.273 664.345L698.786 656.728Z" fill="#292C47"/>
<path d="M686.448 790.956L684.085 836.136L679.885 800.149C682.248 796.997 684.61 793.845 686.448 790.956Z" fill="#1D2033"/>
<path d="M584.858 240.648H571.47V284.515H584.858V240.648Z" fill="#78C2FF"/>
<path d="M1062.88 532.482C1062.88 566.63 1035.32 594.473 1000.93 594.473C966.805 594.473 938.979 566.63 938.979 532.482C938.979 498.334 966.805 470.49 1000.93 470.49C1035.32 470.49 1062.88 498.334 1062.88 532.482Z" fill="#EEF0F7"/>
<path d="M562.807 252.994H549.419V284.515H562.807V252.994Z" fill="#78C2FF"/>
<path d="M606.646 220.422H593.258V284.515H606.646V220.422Z" fill="#78C2FF"/>
<path d="M1149.36 714.889H1235.19V709.898H1149.36V714.889Z" fill="#E2D2CA"/>
<path d="M1223.8 728.176H1216.19V960.12H1223.8V728.176Z" fill="#706865"/>
<path d="M1103.17 715.497H1162.76V708.142H1103.17V715.497Z" fill="#CCBDB7"/>
<path d="M1121.54 714.88H1144.12V646.322H1121.54V714.88Z" fill="#4667A8"/>
<path d="M935.471 728.089H1265.97V714.955H935.471V728.089Z" fill="#B59074"/>
<path d="M1329.33 635.188C1329.33 635.188 1333 685.885 1323.03 691.927C1316.73 695.604 1292.05 708.475 1292.84 710.839C1293.63 713.203 1306.75 732.379 1306.75 732.379C1306.75 732.379 1354.27 701.12 1355.84 691.139C1357.42 681.42 1353.48 616.801 1346.92 613.912C1341.93 611.81 1339.56 613.649 1333.26 618.114C1324.86 624.681 1329.33 635.188 1329.33 635.188Z" fill="#FFC05C"/>
<path d="M1270.79 928.336C1270.79 928.336 1272.36 938.58 1272.36 940.156C1272.63 941.732 1288.9 939.368 1288.9 939.368L1290.21 927.022C1290.21 927.022 1272.89 927.022 1270.79 928.336Z" fill="#424773"/>
<path d="M1272.36 938.843C1272.36 938.843 1267.11 945.147 1262.13 947.774C1257.14 950.401 1249.26 951.451 1246.37 954.341C1244.27 956.442 1238.5 965.11 1259.24 964.848C1279.98 964.585 1289.95 966.161 1292.05 962.746C1294.15 959.332 1288.9 938.318 1288.9 938.318C1288.9 938.318 1284.18 939.894 1272.36 938.843Z" fill="#292C47"/>
<path d="M1166.84 928.598C1166.84 928.598 1168.41 938.843 1168.41 940.419C1168.67 941.995 1184.95 939.631 1184.95 939.631L1186.26 927.285C1186.26 927.285 1168.67 927.022 1166.84 928.598Z" fill="#424773"/>
<path d="M1168.15 939.106C1168.15 939.106 1162.9 945.41 1157.91 948.037C1152.92 950.663 1134.55 953.027 1131.66 955.654C1129.56 957.756 1125.88 965.899 1155.02 965.111C1175.76 964.585 1185.74 966.424 1187.84 963.009C1189.94 959.594 1184.69 938.58 1184.69 938.58C1184.69 938.58 1180.22 940.156 1168.15 939.106Z" fill="#292C47"/>
<path d="M1323.29 751.029C1323.29 751.029 1264.23 761.011 1250.84 763.112C1237.45 765.213 1165 783.338 1156.07 788.854C1148.98 793.32 1159.75 898.128 1162.37 938.318H1190.99L1193.09 818.274C1227.21 819.062 1251.63 810.394 1276.56 814.071C1301.5 817.749 1322.24 823.265 1337.99 801.988C1337.99 801.725 1338.78 755.757 1323.29 751.029Z" fill="#292C47"/>
<path d="M1265.01 938.317L1292.84 936.479L1295.46 818.011C1310.16 818.274 1315.15 817.486 1327.23 815.91L1349.54 763.637C1329.85 767.577 1266.85 783.338 1258.45 788.592C1251.36 793.057 1262.39 898.128 1265.01 938.317Z" fill="#292C47"/>
<path d="M1296.25 529.33C1296.25 529.33 1274.46 523.288 1266.33 540.099C1258.19 556.911 1261.86 588.957 1272.63 591.847C1283.65 594.736 1299.14 591.321 1303.86 580.814C1308.33 570.307 1312 555.335 1310.95 545.878C1309.64 536.422 1301.76 531.694 1296.25 529.33Z" fill="#EEA886"/>
<path d="M1278.14 588.432C1278.14 588.432 1278.4 601.303 1277.09 603.93C1275.78 606.557 1307.28 606.031 1307.28 606.031C1307.28 606.031 1302.29 590.533 1305.18 577.662C1307.8 564.791 1278.14 588.432 1278.14 588.432Z" fill="#EEA886"/>
<path d="M1306.75 572.934C1306.75 572.934 1305.18 576.349 1296.78 575.823C1288.64 575.298 1277.88 565.316 1274.46 564.528C1271.05 563.74 1270.79 561.639 1270.79 561.639L1268.95 564.791L1265.28 565.316C1265.28 565.316 1267.64 555.335 1262.39 551.92C1257.14 548.505 1264.75 520.399 1291.53 527.228C1291.53 527.228 1312 530.906 1312.26 542.201C1312.53 553.758 1310.69 566.892 1306.75 572.934Z" fill="#3A3F47"/>
<path d="M1275.51 603.667C1275.51 603.667 1275.51 598.414 1277.88 597.888C1280.24 597.363 1302.81 594.211 1305.7 595.524L1307.01 602.354C1306.75 602.354 1301.24 606.031 1275.51 603.667Z" fill="#E2D2CA"/>
<path d="M1268.95 559.275C1269.48 555.072 1274.46 550.081 1277.09 556.648C1279.98 563.215 1275.25 572.934 1272.1 572.409C1268.95 571.883 1268.16 565.054 1268.95 559.275Z" fill="#EEA886"/>
<path d="M1302.55 532.482C1302.55 532.482 1329.06 531.168 1307.28 572.409L1302.55 532.482Z" fill="#3A3F47"/>
<path d="M1361.35 952.239L1359.25 958.018L1276.3 932.013L1280.24 920.981L1361.35 952.239Z" fill="#918783"/>
<path d="M1273.5 928.085H1282.95V837.724H1273.5V928.085Z" fill="#918783"/>
<path d="M1250.4 838.455H1306.05V833.202H1250.4V838.455Z" fill="#5E5854"/>
<path d="M1194.4 952.239L1196.24 958.018L1279.45 932.013L1275.78 920.193L1194.4 952.239Z" fill="#918783"/>
<path d="M1252.94 957.23V963.797L1279.45 932.013L1275.78 920.193L1252.94 957.23Z" fill="#918783"/>
<path d="M1186.52 960.12C1186.52 964.322 1189.94 968 1194.4 968C1198.6 968 1202.27 964.585 1202.27 960.12C1202.27 955.917 1198.86 952.239 1194.4 952.239C1189.94 952.239 1186.52 955.654 1186.52 960.12Z" fill="#BFB2AC"/>
<path d="M1252.15 960.12C1252.15 964.322 1255.56 968 1260.03 968C1264.49 968 1267.9 964.585 1267.9 960.12C1267.9 955.917 1264.49 952.239 1260.03 952.239C1255.56 952.239 1252.15 955.654 1252.15 960.12Z" fill="#BFB2AC"/>
<path d="M1353.48 960.12C1353.48 964.322 1356.89 968 1361.35 968C1365.82 968 1369.23 964.585 1369.23 960.12C1369.23 955.917 1365.82 952.239 1361.35 952.239C1356.89 952.239 1353.48 955.654 1353.48 960.12Z" fill="#BFB2AC"/>
<path d="M1221.7 832.984H1333.79C1339.3 832.984 1343.76 828.519 1343.76 823.002V822.74C1343.76 817.224 1339.3 812.758 1333.79 812.758H1221.7C1216.19 812.758 1211.72 817.224 1211.72 822.74V823.002C1211.99 828.519 1216.45 832.984 1221.7 832.984Z" fill="#E2D2CA"/>
<path d="M977.607 960.032H985.22V728.088H977.607V960.032Z" fill="#706865"/>
<path d="M1045.29 679.318H1220.65C1226.16 679.318 1230.62 674.853 1230.62 669.336V551.394C1230.62 545.878 1226.16 541.413 1220.65 541.413H1045.29C1039.78 541.413 1035.32 545.878 1035.32 551.394V669.336C1035.32 674.853 1039.78 679.318 1045.29 679.318Z" fill="#5F8BE3"/>
<path d="M1043.05 657.694H1222.87V548.946H1043.05V657.694Z" fill="#F5F7FF"/>
<path d="M1043.05 557.644H1222.87V548.975H1043.05V557.644Z" fill="#CECFD6"/>
<path d="M1055.8 650.949H1065.25C1068.66 650.949 1071.28 648.322 1071.28 644.907V570.307C1071.28 566.892 1068.66 564.266 1065.25 564.266H1055.8C1052.38 564.266 1049.76 566.892 1049.76 570.307V644.907C1049.76 648.322 1052.38 650.949 1055.8 650.949Z" fill="#CECFD6"/>
<path d="M1181.54 572.146H1214.35C1216.19 572.146 1217.76 570.57 1217.76 568.731V567.418C1217.76 565.579 1216.19 564.003 1214.35 564.003H1181.54C1179.7 564.003 1178.12 565.579 1178.12 567.418V568.731C1178.12 570.833 1179.7 572.146 1181.54 572.146Z" fill="#CECFD6"/>
<path d="M1184.95 653.313H1210.67C1214.35 653.313 1217.5 650.161 1217.5 646.484V584.492C1217.5 580.814 1214.35 577.662 1210.67 577.662H1184.95C1181.27 577.662 1178.12 580.814 1178.12 584.492V646.484C1178.12 650.161 1181.27 653.313 1184.95 653.313Z" fill="#CECFD6"/>
<path d="M1126.67 667.76C1126.67 671.175 1129.56 674.065 1132.97 674.065C1136.38 674.065 1139.27 671.175 1139.27 667.76C1139.27 664.346 1136.38 661.456 1132.97 661.456C1129.56 661.456 1126.67 664.346 1126.67 667.76Z" fill="#5C5552"/>
<path d="M1092.55 715.042V712.678C1092.55 712.678 1095.96 697.443 1120.37 697.443C1144.78 697.443 1144.26 715.042 1144.26 715.042H1092.55Z" fill="#2E436E"/>
<path d="M1144.52 699.807C1144.52 699.807 1139.27 699.281 1137.17 698.231C1135.33 697.18 1123.52 689.3 1120.9 690.613C1118.27 691.927 1100.16 697.443 1100.68 700.07C1101.21 702.696 1103.05 702.434 1104.36 701.908C1105.67 701.383 1118.8 698.756 1119.85 699.019C1119.85 699.019 1106.98 703.747 1106.98 707.162C1106.98 710.577 1109.61 711.365 1110.92 712.678C1112.23 713.991 1113.55 717.144 1116.96 717.406C1120.37 717.669 1136.65 711.89 1139.8 711.627C1143.21 711.365 1149.25 711.89 1149.77 711.365C1150.3 711.102 1144.52 699.807 1144.52 699.807Z" fill="#EEA886"/>
<path d="M1240.86 611.022C1257.66 608.133 1275.51 603.667 1275.51 603.667L1307.01 602.354C1307.01 602.354 1335.89 608.658 1347.18 613.912C1348.23 614.437 1348.23 639.654 1351.12 646.221L1341.66 666.184C1341.66 666.184 1336.15 705.586 1335.1 723.185C1334.58 731.328 1336.68 800.937 1336.68 800.937C1336.68 800.937 1333.79 802.251 1312.53 804.615C1291 806.979 1237.45 803.827 1237.19 801.2C1236.92 798.573 1247.69 706.899 1247.95 702.171C1248.74 694.816 1245.85 661.193 1245.85 661.193C1241.91 666.71 1231.41 691.139 1220.65 702.696C1214.35 709.526 1183.11 713.729 1177.07 713.991C1164.21 714.517 1140.85 716.881 1140.06 715.83C1139.53 715.042 1137.96 695.079 1139.53 694.553C1140.85 694.028 1184.16 691.664 1195.45 685.622C1199.65 683.521 1211.72 656.991 1211.72 656.991C1211.72 656.991 1231.41 615.225 1240.86 611.022Z" fill="#FFC05C"/>
<path d="M1302.81 798.836H1355.58C1366.08 798.836 1374.74 790.168 1374.74 779.661V691.927C1374.74 681.419 1366.08 672.751 1355.58 672.751H1302.81C1292.31 672.751 1283.65 681.419 1283.65 691.927V779.661C1283.65 790.168 1292.05 798.836 1302.81 798.836Z" fill="#E2D2CA"/>
<path d="M1299.66 827.993C1313.05 827.993 1324.08 823.528 1331.95 814.597C1350.06 794.633 1346.91 759.172 1346.65 757.596C1346.39 754.706 1343.76 752.868 1341.14 753.13C1338.25 753.393 1336.41 755.757 1336.68 758.647C1336.68 759.172 1339.56 790.956 1324.34 807.767C1318.3 814.597 1310.16 817.749 1299.4 817.749C1296.51 817.749 1294.41 820.113 1294.41 822.74C1294.68 825.892 1297.04 827.993 1299.66 827.993Z" fill="#E2D2CA"/>
<path d="M1135.6 593.423C1135.6 599.727 1133.23 605.243 1129.56 609.709C1128.77 610.759 1127.72 611.81 1126.67 612.598C1126.41 612.861 1126.15 613.123 1125.88 613.386C1125.62 613.649 1125.1 613.911 1124.83 614.174C1121.42 616.538 1117.48 618.114 1113.28 618.64C1112.5 618.64 1111.71 618.902 1110.92 618.902C1110.66 618.902 1110.4 618.902 1110.13 618.902C1109.35 618.902 1108.56 618.902 1107.77 618.902C1106.98 618.902 1105.93 618.64 1105.15 618.64C1101.21 617.852 1097.8 616.276 1094.65 613.912C1093.86 613.124 1092.81 612.335 1092.02 611.547C1091.76 611.285 1091.76 611.285 1091.5 611.022C1090.97 610.497 1090.45 609.709 1089.92 609.183C1086.51 604.98 1084.67 599.464 1084.67 593.685C1084.67 579.764 1095.96 568.206 1110.13 568.206C1124.05 567.943 1135.6 579.501 1135.6 593.423Z" fill="#EEF0F7"/>
<path d="M1126.67 607.345L1124.83 614.174C1121.42 616.538 1117.48 618.114 1113.28 618.64C1112.5 618.64 1111.71 618.902 1110.92 618.902C1110.66 618.902 1110.4 618.902 1110.13 618.902C1109.35 618.902 1108.56 618.902 1107.77 618.902C1106.98 618.902 1105.93 618.64 1105.15 618.64C1101.21 617.852 1097.8 616.276 1094.65 613.912C1094.38 611.81 1093.86 609.183 1093.6 606.819C1095.43 606.031 1101.47 604.192 1105.15 602.879C1105.15 602.879 1105.15 602.879 1105.41 602.879H1105.67C1105.93 602.879 1106.2 602.616 1106.2 602.616C1106.46 602.616 1106.72 602.354 1106.72 602.354C1107.51 602.091 1108.03 601.828 1108.3 601.828L1113.28 602.091H1114.07H1114.33C1114.6 602.091 1115.65 602.354 1116.7 602.879C1120.11 603.667 1124.83 605.243 1126.67 607.345Z" fill="#D9C7C1"/>
<path d="M1111.45 580.814C1111.45 580.814 1117.48 581.865 1116.43 591.321C1115.38 600.778 1110.13 599.99 1109.61 599.99C1109.35 599.99 1104.36 599.99 1104.1 588.432C1104.1 588.432 1104.1 580.026 1111.45 580.814Z" fill="#EEA987"/>
<path d="M1114.07 597.1C1114.07 597.1 1113.81 601.04 1114.33 601.828C1114.6 602.617 1109.61 605.243 1106.2 602.354C1106.2 602.354 1106.98 598.151 1106.72 596.575C1106.46 595.262 1114.07 597.1 1114.07 597.1Z" fill="#EEA987"/>
<path d="M1116.7 588.695C1116.7 588.695 1117.48 587.907 1117.48 588.695C1117.75 589.483 1116.43 592.635 1116.43 592.635C1116.43 592.635 1116.43 592.897 1116.17 592.635C1116.17 592.635 1116.7 588.695 1116.7 588.695Z" fill="#EEA987"/>
<path d="M1104.1 588.432C1104.1 588.432 1103.57 587.644 1103.31 588.432C1103.05 589.22 1104.1 592.372 1104.1 592.635L1104.36 592.897C1104.62 592.372 1104.1 588.432 1104.1 588.432Z" fill="#EEA987"/>
<path d="M1116.96 587.907C1116.7 589.22 1116.43 590.271 1116.43 590.271L1115.65 591.321C1115.65 591.321 1115.65 588.695 1115.65 588.432C1115.65 588.169 1115.65 587.907 1115.38 587.644C1115.38 587.119 1115.12 586.593 1115.12 586.331C1115.12 586.068 1109.87 584.492 1105.41 586.593C1105.41 586.593 1105.41 586.856 1105.41 587.381C1105.41 587.907 1105.41 588.432 1105.15 588.432C1104.62 588.695 1104.88 591.321 1104.88 591.321L1104.1 590.533C1104.1 590.533 1103.83 588.957 1103.57 587.381C1103.57 586.856 1103.57 586.593 1103.31 586.068C1103.31 584.492 1103.31 581.34 1105.67 579.501C1107.25 578.976 1109.61 578.188 1113.55 579.501C1113.55 579.501 1114.33 579.501 1114.6 579.764C1117.48 582.916 1116.96 587.907 1116.96 587.907Z" fill="#E8734D"/>
<path d="M1106.98 598.676C1106.98 598.676 1108.03 599.99 1110.13 599.99C1112.5 599.99 1113.28 598.676 1113.28 598.676C1113.28 598.676 1112.23 600.778 1110.13 600.778C1108.03 601.04 1106.98 598.676 1106.98 598.676Z" fill="#C78D71"/>
<path d="M1105.41 602.616C1105.41 602.616 1106.98 605.506 1110.13 605.769C1111.97 606.031 1113.81 603.404 1114.6 602.354C1114.6 602.091 1110.4 600.252 1105.41 602.616Z" fill="#EEA987"/>
<path d="M1114.07 601.303C1114.07 601.303 1112.76 602.879 1110.13 604.718L1111.71 607.345L1114.6 602.354L1114.07 601.303Z" fill="#EDDAD3"/>
<path d="M1106.2 601.566C1106.2 601.566 1107.77 603.667 1110.13 604.455L1108.3 607.082L1105.15 602.616L1106.2 601.566Z" fill="#EDDAD3"/>
<path d="M1110.13 604.455L1111.45 606.557C1111.45 606.557 1109.87 607.345 1108.56 606.557L1110.13 604.455Z" fill="#5073AB"/>
<path d="M1128.25 607.082L1126.67 612.598C1126.41 612.861 1126.15 613.124 1125.88 613.386C1125.62 613.649 1125.1 613.912 1124.83 614.174C1121.42 616.538 1117.48 618.114 1113.28 618.64C1113.55 609.971 1114.6 602.091 1114.6 602.091C1115.38 602.354 1116.17 602.616 1116.96 602.616C1119.58 603.405 1125.88 605.506 1128.25 607.082Z" fill="#323657"/>
<path d="M1105.15 618.377C1101.21 617.589 1097.8 616.013 1094.65 613.649C1093.86 612.861 1092.81 612.073 1092.02 611.285C1091.76 611.022 1091.76 611.022 1091.5 610.759C1090.97 608.921 1090.71 607.607 1090.71 607.607C1090.71 607.607 1093.86 605.506 1104.88 602.616C1105.15 602.879 1105.15 609.971 1105.15 618.377Z" fill="#323657"/>
<path d="M1110.92 606.819C1110.92 609.183 1110.92 613.649 1110.92 618.64C1110.66 618.64 1110.4 618.64 1110.13 618.64C1109.35 618.64 1108.56 618.64 1107.77 618.64C1108.3 612.335 1109.08 608.395 1109.35 606.819C1109.35 606.294 1109.61 606.031 1109.61 606.031L1111.18 606.294C1110.92 606.557 1110.92 606.819 1110.92 606.819Z" fill="#5073AB"/>
<path d="M1129.56 609.709C1128.77 610.759 1127.72 611.81 1126.67 612.598C1126.41 612.861 1126.15 613.124 1125.88 613.386L1128.25 607.082C1129.03 607.345 1129.3 609.183 1129.56 609.709Z" fill="#323657"/>
<path d="M1092.02 611.285C1091.76 611.022 1091.76 611.022 1091.5 610.759C1090.97 610.234 1090.45 609.446 1089.92 608.921C1090.18 608.133 1090.45 607.87 1090.71 607.607L1092.02 611.285Z" fill="#323657"/>
<path d="M1001.19 557.173C999.356 557.173 998.043 555.86 998.043 554.021V510.942C998.043 509.103 999.356 507.79 1001.19 507.79C1003.03 507.79 1004.34 509.103 1004.34 510.942V554.021C1004.08 555.597 1002.77 557.173 1001.19 557.173Z" fill="#949494"/>
<path d="M1022.72 535.634H979.668C977.83 535.634 976.518 534.32 976.518 532.482C976.518 530.643 977.83 529.33 979.668 529.33H1022.72C1024.56 529.33 1025.87 530.643 1025.87 532.482C1025.61 534.058 1024.29 535.634 1022.72 535.634Z" fill="#949494"/>
<defs>
<linearGradient id="paint0_linear" x1="388.185" y1="106.904" x2="1148.43" y2="106.904" gradientUnits="userSpaceOnUse">
<stop stop-color="#40D5E6"/>
<stop offset="1" stop-color="#5577FF"/>
</linearGradient>
</defs>
</svg>
