<svg width="1371" height="816" viewBox="0 0 1371 816" fill="none" xmlns="http://www.w3.org/2000/svg">
<path d="M1162.08 762.252C1162.08 780.931 915.311 796.263 610.766 796.263C306.221 796.263 59.45 781.108 59.45 762.252C59.45 743.572 306.221 728.24 610.766 728.24C915.311 728.24 1162.08 743.396 1162.08 762.252Z" fill="#478BB8"/>
<path d="M970.795 461.437H960.579V761.899H970.795V461.437Z" fill="#753064"/>
<path d="M646.346 553.779H625.033V583.208H646.346V553.779Z" fill="#303030"/>
<path d="M644.761 561.709H626.09V704.979H644.761V561.709Z" fill="#57595F"/>
<path d="M736.882 732.294L647.579 684.713V706.389L711.518 732.294V737.052H736.882V732.294Z" fill="#0D2226"/>
<path d="M647.579 706.389H623.448V684.713V667.267H647.579V706.389Z" fill="#0D2226"/>
<path d="M534.146 732.294L623.448 684.713V706.389L559.333 732.294V737.052H534.146V732.294Z" fill="#0D2226"/>
<path d="M627.323 684.713V737.052H621.334V740.752H647.579V737.052H642.119L643.704 684.713H627.323Z" fill="#0D2226"/>
<path d="M674.529 481.527H585.931L561.623 330.679C557.22 303.541 578.18 279.046 605.658 279.046H655.153C682.631 279.046 703.592 303.541 699.188 330.679L674.529 481.527Z" fill="#034655"/>
<path d="M573.777 406.632L537.316 421.082L559.686 514.305L569.55 512.719L558.805 431.656L578.18 423.373L573.777 406.632Z" fill="#21130B"/>
<path d="M684.216 406.632L715.393 428.307L710.109 519.063L697.603 516.772L702.006 438.352L676.995 423.726L684.216 406.632Z" fill="#21130B"/>
<path d="M724.728 529.284H558.805V512.895H708.347C717.331 512.719 724.728 520.12 724.728 529.284Z" fill="#0189A9"/>
<path d="M669.421 217.191C669.421 217.191 665.898 256.489 676.642 267.415C687.387 278.164 688.972 277.988 692.847 276.931C692.847 276.931 690.381 283.627 683.512 283.98C682.983 283.98 682.631 283.98 682.103 283.98C674.176 283.451 682.807 289.972 686.859 291.558C691.086 292.967 678.58 294.73 669.773 292.615C664.313 291.381 608.3 292.086 599.493 284.332C594.033 279.574 617.812 255.255 619.045 243.096C621.863 211.023 669.421 217.191 669.421 217.191Z" fill="#3C1448"/>
<path d="M782.326 213.667C782.326 213.667 777.042 224.769 774.752 237.457C772.462 250.145 775.985 272.702 782.326 282.041C788.667 291.381 789.372 294.906 795.008 294.906C800.821 294.906 823.719 284.861 825.656 261.423C827.77 238.162 783.911 213.49 783.911 213.49H782.326V213.667Z" fill="#F15F5C"/>
<path d="M1019.06 413.152C1019.06 413.152 1004.26 406.456 999.858 401.874C995.278 397.292 981.011 385.485 973.613 385.485C966.391 385.485 929.931 401.697 935.039 403.636C940.147 405.574 968.153 397.116 968.153 397.116C968.153 397.116 935.391 410.509 941.204 413.152C947.016 415.619 964.806 408.746 964.806 408.746C964.806 408.746 955.647 413.152 955.647 416.324C955.647 419.672 969.034 412.976 976.608 412.976C984.358 412.976 1004.61 425.664 1004.61 425.664L1019.06 413.152Z" fill="#F37575"/>
<path d="M1100.26 613.166C1097.44 615.986 1092.51 617.924 1086.69 617.748C1081.06 617.572 1076.13 615.281 1073.48 612.285C1076.3 609.466 1081.23 607.527 1087.05 607.703C1092.86 607.88 1097.62 609.994 1100.26 613.166Z" fill="#AE9BCA"/>
<path d="M1161.91 731.589C1158.21 705.684 1156.45 679.426 1156.8 653.345C1156.97 640.305 1157.68 627.264 1158.74 614.224C1159.79 601.183 1161.38 588.319 1163.14 575.278C1166.84 549.373 1172.12 523.821 1178.46 498.621C1181.63 485.933 1185.33 473.421 1189.21 461.085C1193.08 448.749 1197.31 436.414 1202.24 424.254L1203.83 424.959C1199.07 437.119 1195.02 449.454 1191.32 461.79C1187.62 474.302 1184.1 486.814 1181.11 499.326C1174.94 524.526 1170.01 550.078 1166.66 575.807C1165.08 588.671 1163.67 601.535 1162.79 614.576C1161.91 627.44 1161.38 640.481 1161.38 653.345C1161.2 679.25 1163.32 705.155 1167.37 730.708L1161.91 731.589Z" fill="#AE9BCA"/>
<path d="M1209.99 372.444C1202.59 376.85 1196.78 386.366 1195.02 397.821C1193.44 409.275 1196.43 420.025 1202.24 426.369C1209.64 421.963 1215.45 412.447 1217.21 400.993C1218.8 389.538 1215.8 378.788 1209.99 372.444Z" fill="#AE9BCA"/>
<path d="M1166.49 412.095C1165.61 418.791 1168.42 426.898 1174.59 433.594C1180.75 440.291 1188.86 443.639 1195.55 443.11C1196.43 436.414 1193.61 428.307 1187.45 421.611C1181.28 415.09 1173.18 411.742 1166.49 412.095Z" fill="#AE9BCA"/>
<path d="M1196.25 446.987C1201.89 450.688 1210.52 451.569 1219.15 448.749C1227.78 445.93 1234.3 440.114 1236.77 433.946C1231.13 430.246 1222.5 429.365 1213.87 432.184C1205.06 434.828 1198.54 440.643 1196.25 446.987Z" fill="#AE9BCA"/>
<path d="M1188.33 471.482C1193.96 475.183 1202.59 476.064 1211.23 473.244C1219.86 470.425 1226.37 464.609 1228.84 458.442C1223.2 454.741 1214.57 453.86 1205.94 456.679C1197.31 459.499 1190.79 465.138 1188.33 471.482Z" fill="#AE9BCA"/>
<path d="M1179.52 500.735C1185.16 504.436 1193.79 505.317 1202.42 502.498C1211.05 499.678 1217.57 493.863 1220.03 487.695C1214.4 483.994 1205.77 483.113 1197.13 485.933C1188.5 488.752 1181.99 494.568 1179.52 500.735Z" fill="#AE9BCA"/>
<path d="M1173.71 528.05C1179.34 531.751 1187.97 532.632 1196.61 529.812C1205.24 526.993 1211.75 521.177 1214.22 515.009C1208.58 511.309 1199.95 510.428 1191.32 513.247C1182.51 516.067 1176 521.882 1173.71 528.05Z" fill="#AE9BCA"/>
<path d="M1176.17 522.587C1170.54 526.288 1161.91 527.169 1153.28 524.349C1144.64 521.53 1138.13 515.714 1135.66 509.547C1141.3 505.846 1149.93 504.965 1158.56 507.784C1167.19 510.428 1173.71 516.243 1176.17 522.587Z" fill="#AE9BCA"/>
<path d="M1158.56 438.176C1157.68 444.872 1160.5 452.979 1166.66 459.675C1172.83 466.372 1180.93 469.72 1187.62 469.191C1188.5 462.495 1185.69 454.388 1179.52 447.692C1173.36 440.995 1165.25 437.647 1158.56 438.176Z" fill="#AE9BCA"/>
<path d="M1149.4 467.605C1148.52 474.302 1151.34 482.408 1157.5 489.105C1163.67 495.801 1171.77 499.149 1178.46 498.621C1179.34 491.924 1176.53 483.818 1170.36 477.121C1164.2 470.601 1156.27 467.253 1149.4 467.605Z" fill="#AE9BCA"/>
<path d="M1328.53 492.805C1317.26 498.973 1306.69 506.374 1296.3 514.128C1286.08 521.882 1276.22 530.341 1266.89 539.152C1257.55 547.963 1248.57 557.303 1240.11 567.172C1231.66 577.04 1223.91 587.261 1216.51 597.835C1201.71 618.982 1189.38 642.067 1179.52 665.857C1169.83 689.824 1162.61 714.847 1158.21 740.4L1163.67 741.281C1167.72 716.081 1174.41 691.233 1183.57 667.443C1192.91 643.653 1204.71 620.744 1219.15 599.597C1226.37 589.024 1233.95 578.626 1242.23 568.758C1250.5 558.889 1259.14 549.549 1268.29 540.562C1277.45 531.574 1287.14 523.116 1297.18 515.186C1307.22 507.256 1317.79 499.854 1328.89 493.51L1328.53 492.805Z" fill="#AE9BCA"/>
<path d="M1370.28 463.552C1369.75 472.187 1363.94 481.703 1354.43 488.4C1344.92 495.096 1333.99 497.211 1325.72 494.92C1326.24 486.285 1332.06 476.769 1341.57 470.072C1351.08 463.376 1362 461.261 1370.28 463.552Z" fill="#AE9BCA"/>
<path d="M1306.16 456.327C1312.51 462.142 1316.38 472.539 1315.68 484.17C1314.97 495.801 1309.86 505.67 1302.99 510.78C1296.65 504.965 1292.78 494.568 1293.48 482.937C1294.19 471.306 1299.12 461.261 1306.16 456.327Z" fill="#AE9BCA"/>
<path d="M1268.29 475.359C1276.04 479.236 1282.56 488.223 1285.03 499.678C1287.49 511.133 1285.2 521.882 1279.92 528.579C1272.17 524.702 1265.65 515.714 1263.19 504.26C1260.72 492.982 1263.01 482.056 1268.29 475.359Z" fill="#AE9BCA"/>
<path d="M1242.75 498.797C1250.5 502.674 1257.02 511.661 1259.49 523.116C1261.95 534.57 1259.66 545.32 1254.38 552.016C1246.63 548.14 1240.11 539.152 1237.65 527.698C1235.18 516.419 1237.47 505.493 1242.75 498.797Z" fill="#AE9BCA"/>
<path d="M1213.52 522.94C1221.97 524.702 1230.6 531.751 1235.88 542.148C1241.17 552.545 1241.7 563.647 1238.35 571.577C1229.9 569.815 1221.27 562.766 1215.98 552.369C1210.52 541.972 1209.99 530.87 1213.52 522.94Z" fill="#AE9BCA"/>
<path d="M1192.73 553.074C1200.48 552.721 1209.46 556.951 1216.33 564.705C1223.2 572.459 1226.2 581.975 1224.96 589.552C1217.21 589.905 1208.23 585.675 1201.36 577.921C1194.49 570.168 1191.5 560.828 1192.73 553.074Z" fill="#AE9BCA"/>
<path d="M1177.76 572.106C1185.51 571.754 1194.49 575.983 1201.36 583.737C1208.23 591.491 1211.23 601.007 1209.99 608.584C1202.24 608.937 1193.26 604.707 1186.39 596.954C1179.52 589.2 1176.53 579.684 1177.76 572.106Z" fill="#AE9BCA"/>
<path d="M1169.13 600.126C1175.65 599.773 1183.4 603.298 1189.38 609.994C1195.37 616.691 1197.84 624.797 1196.78 631.317C1190.26 631.67 1182.51 628.145 1176.53 621.449C1170.71 614.752 1168.07 606.646 1169.13 600.126Z" fill="#AE9BCA"/>
<path d="M1160.85 629.379C1165.61 626.736 1172.83 626.383 1179.7 629.026C1186.74 631.67 1191.67 636.78 1193.44 641.891C1188.68 644.534 1181.46 644.887 1174.59 642.243C1167.72 639.6 1162.61 634.666 1160.85 629.379Z" fill="#AE9BCA"/>
<path d="M1157.5 653.521C1160.5 650.173 1165.78 648.235 1171.77 648.411C1177.76 648.587 1182.87 651.231 1185.51 654.755C1182.51 658.103 1177.23 660.042 1171.24 659.866C1165.25 659.513 1160.14 657.046 1157.5 653.521Z" fill="#AE9BCA"/>
<path d="M1354.43 527.521C1347.03 532.103 1336.11 532.984 1325.01 529.107C1314.09 525.23 1305.81 517.653 1302.99 509.723C1310.39 505.141 1321.31 504.26 1332.41 508.137C1343.33 511.837 1351.43 519.415 1354.43 527.521Z" fill="#AE9BCA"/>
<path d="M1331.18 546.73C1323.78 551.312 1312.86 552.193 1301.76 548.316C1290.84 544.439 1282.56 536.861 1279.74 528.931C1287.14 524.349 1298.06 523.468 1309.16 527.345C1320.08 531.046 1328.18 538.623 1331.18 546.73Z" fill="#AE9BCA"/>
<path d="M1306.52 570.344C1299.12 574.926 1288.2 575.807 1277.1 571.93C1266.18 568.053 1257.9 560.475 1255.08 552.545C1262.48 547.963 1273.4 547.082 1284.5 550.959C1295.42 554.66 1303.52 562.238 1306.52 570.344Z" fill="#AE9BCA"/>
<path d="M1278.51 586.028C1272.52 589.728 1263.54 590.433 1254.56 587.438C1245.57 584.266 1239.06 578.098 1236.59 571.577C1242.58 567.877 1251.56 567.172 1260.54 570.168C1269.53 573.163 1276.04 579.331 1278.51 586.028Z" fill="#AE9BCA"/>
<path d="M1257.55 601.007C1252.62 604.179 1245.4 604.884 1238.17 602.417C1230.95 599.949 1225.67 594.839 1223.73 589.376C1228.66 586.204 1235.88 585.499 1243.11 587.966C1250.33 590.433 1255.61 595.544 1257.55 601.007Z" fill="#AE9BCA"/>
<path d="M1245.04 620.215C1240.11 623.387 1232.89 624.092 1225.67 621.625C1218.45 619.158 1213.16 614.047 1211.23 608.584C1216.16 605.412 1223.38 604.708 1230.6 607.175C1237.82 609.642 1243.11 614.752 1245.04 620.215Z" fill="#AE9BCA"/>
<path d="M1231.31 637.661C1227.43 641.01 1220.74 642.596 1213.69 641.538C1206.65 640.305 1200.83 636.78 1198.19 632.375C1202.07 629.026 1208.76 627.44 1215.8 628.498C1222.85 629.555 1228.66 633.256 1231.31 637.661Z" fill="#AE9BCA"/>
<path d="M1218.09 659.689C1213.69 660.923 1207.7 659.866 1202.59 656.165C1197.31 652.64 1194.14 647.53 1193.79 642.948C1198.19 641.715 1204.18 642.772 1209.29 646.473C1214.4 649.997 1217.74 655.108 1218.09 659.689Z" fill="#AE9BCA"/>
<path d="M1203.3 672.73C1199.78 673.082 1195.55 671.32 1192.03 667.972C1188.68 664.624 1186.92 660.218 1187.27 656.694C1190.79 656.341 1195.02 658.103 1198.54 661.452C1202.07 664.976 1203.65 669.205 1203.3 672.73Z" fill="#AE9BCA"/>
<path d="M1193.61 676.254C1191.32 676.607 1188.5 675.726 1186.57 673.611C1184.45 671.496 1183.57 668.853 1183.92 666.562C1186.21 666.21 1189.03 667.091 1190.97 669.205C1192.91 671.32 1193.96 673.787 1193.61 676.254Z" fill="#AE9BCA"/>
<path d="M1190.44 682.598C1188.15 682.951 1185.33 682.07 1183.4 679.955C1181.28 677.84 1180.4 675.197 1180.75 672.906C1183.04 672.554 1185.86 673.435 1187.8 675.55C1189.91 677.664 1190.79 680.308 1190.44 682.598Z" fill="#AE9BCA"/>
<path d="M1077.01 470.953C1085.11 479.765 1092.16 489.457 1098.85 499.326C1105.54 509.194 1111.71 519.591 1117.34 530.165C1122.98 540.738 1127.91 551.664 1132.49 562.766C1136.89 573.868 1140.77 585.323 1144.12 596.777C1150.81 619.863 1154.68 643.653 1156.27 667.619C1157.68 691.586 1156.45 715.729 1152.75 739.519L1147.64 738.638C1151.51 715.2 1153.1 691.41 1152.22 667.796C1150.99 644.182 1147.46 620.568 1141.3 597.482C1138.13 586.028 1134.6 574.749 1130.2 563.647C1125.97 552.545 1121.04 541.619 1115.58 531.046C1110.12 520.472 1104.31 510.075 1097.79 500.207C1091.27 490.338 1084.23 480.47 1076.48 471.658L1077.01 470.953Z" fill="#CFC2E0"/>
<path d="M1049 432.889C1046.89 440.643 1049.18 450.688 1055.52 459.499C1061.86 468.31 1070.84 473.421 1078.77 473.773C1080.88 466.019 1078.59 455.974 1072.25 447.163C1065.91 438.528 1056.93 433.418 1049 432.889Z" fill="#CFC2E0"/>
<path d="M1107.48 445.577C1100.08 448.749 1093.56 456.679 1090.75 467.253C1087.93 477.65 1089.34 487.871 1093.92 494.391C1101.31 491.219 1107.83 483.289 1110.65 472.716C1113.64 462.318 1112.06 452.098 1107.48 445.577Z" fill="#CFC2E0"/>
<path d="M1134.96 473.597C1127.03 474.83 1118.58 480.646 1113.12 489.986C1107.66 499.326 1106.25 509.546 1109.06 516.948C1116.99 515.714 1125.45 509.899 1130.91 500.559C1136.54 491.395 1137.78 481.174 1134.96 473.597Z" fill="#CFC2E0"/>
<path d="M1150.46 501.969C1142.53 503.202 1134.08 509.018 1128.62 518.358C1123.16 527.698 1121.75 537.919 1124.56 545.32C1132.49 544.086 1140.95 538.271 1146.41 528.931C1151.87 519.591 1153.1 509.37 1150.46 501.969Z" fill="#CFC2E0"/>
<path d="M1169.13 531.927C1161.2 531.046 1151.51 534.57 1143.76 542.148C1136.01 549.726 1132.14 559.242 1132.84 567.172C1140.77 568.053 1150.46 564.528 1158.21 556.951C1165.96 549.373 1169.83 539.857 1169.13 531.927Z" fill="#CFC2E0"/>
<path d="M1178.29 564.528C1171.59 561.885 1162.43 562.942 1154.16 567.7C1145.7 572.459 1140.24 579.86 1139.18 586.909C1145.88 589.552 1155.04 588.495 1163.32 583.737C1171.59 578.979 1177.05 571.577 1178.29 564.528Z" fill="#CFC2E0"/>
<path d="M1185.68 585.675C1178.99 583.032 1169.83 584.089 1161.55 588.847C1153.1 593.605 1147.64 601.007 1146.58 608.056C1153.28 610.699 1162.43 609.642 1170.71 604.884C1179.17 600.126 1184.63 592.724 1185.68 585.675Z" fill="#CFC2E0"/>
<path d="M1184.98 612.99C1179.34 610.699 1171.42 611.58 1164.2 615.633C1156.97 619.687 1152.39 626.031 1151.34 632.022C1156.97 634.313 1164.9 633.432 1172.12 629.379C1179.17 625.326 1183.92 618.982 1184.98 612.99Z" fill="#CFC2E0"/>
<path d="M1183.57 641.01C1180.22 637.133 1174.06 634.842 1167.01 635.018C1160.14 635.37 1154.16 638.19 1150.99 642.243C1154.33 646.12 1160.5 648.411 1167.54 648.235C1174.41 648.059 1180.4 645.239 1183.57 641.01Z" fill="#CFC2E0"/>
<path d="M1179.34 663.214C1177.76 659.513 1173.71 655.989 1168.25 654.403C1162.96 652.817 1157.68 653.522 1154.33 655.812C1155.92 659.513 1159.97 663.038 1165.43 664.624C1170.71 666.21 1175.82 665.505 1179.34 663.214Z" fill="#CFC2E0"/>
<path d="M1043.89 493.863C1049 500.03 1058.34 504.084 1069.26 504.084C1080 504.084 1089.51 499.854 1094.44 493.51C1089.34 487.342 1080 483.289 1069.08 483.289C1058.16 483.465 1048.82 487.695 1043.89 493.863Z" fill="#CFC2E0"/>
<path d="M1058.51 517.653C1063.62 523.821 1072.96 527.874 1083.88 527.874C1094.62 527.874 1104.13 523.644 1109.06 517.3C1103.96 511.133 1094.62 507.079 1083.7 507.079C1072.96 507.079 1063.44 511.309 1058.51 517.653Z" fill="#CFC2E0"/>
<path d="M1073.31 545.672C1078.42 551.84 1087.75 555.893 1098.67 555.893C1109.42 555.893 1118.93 551.664 1123.86 545.32C1118.75 539.152 1109.42 535.099 1098.5 535.099C1087.58 535.275 1078.24 539.505 1073.31 545.672Z" fill="#CFC2E0"/>
<path d="M1093.04 567.877C1097.09 572.811 1104.84 576.159 1113.64 576.159C1122.45 576.159 1130.02 572.635 1134.08 567.524C1130.02 562.59 1122.27 559.242 1113.47 559.242C1104.84 559.242 1097.26 562.766 1093.04 567.877Z" fill="#CFC2E0"/>
<path d="M1106.95 587.261C1110.3 591.491 1116.46 594.31 1123.51 594.31C1130.55 594.31 1136.72 591.314 1140.06 587.085C1136.72 582.856 1130.55 580.036 1123.51 580.036C1116.46 580.036 1110.3 583.032 1106.95 587.261Z" fill="#CFC2E0"/>
<path d="M1112.23 607.88C1115.58 612.109 1121.75 614.928 1128.79 614.928C1135.84 614.928 1142 611.933 1145.35 607.703C1142 603.474 1135.84 600.654 1128.79 600.654C1121.75 600.654 1115.58 603.65 1112.23 607.88Z" fill="#CFC2E0"/>
<path d="M1119.1 627.264C1121.57 631.317 1126.85 634.842 1133.55 635.899C1140.06 636.956 1146.23 635.547 1149.93 632.375C1147.46 628.322 1142.18 624.797 1135.49 623.74C1128.97 622.682 1122.8 624.268 1119.1 627.264Z" fill="#CFC2E0"/>
<path d="M1124.21 650.526C1127.74 652.993 1133.2 653.698 1139.01 652.112C1144.64 650.526 1149.05 647.001 1150.81 643.124C1147.29 640.657 1141.83 639.952 1136.01 641.538C1130.38 643.124 1125.97 646.649 1124.21 650.526Z" fill="#CFC2E0"/>
<path d="M1133.2 666.386C1136.19 667.796 1140.42 667.443 1144.47 665.505C1148.52 663.566 1151.34 660.218 1152.04 657.046C1149.05 655.636 1144.82 655.989 1140.77 657.927C1136.72 660.042 1134.08 663.214 1133.2 666.386Z" fill="#CFC2E0"/>
<path d="M1140.77 672.377C1142.71 673.435 1145.35 673.435 1147.82 672.201C1150.28 670.968 1151.87 668.853 1152.22 666.738C1150.28 665.681 1147.64 665.681 1145.17 666.914C1142.88 668.148 1141.12 670.263 1140.77 672.377Z" fill="#CFC2E0"/>
<path d="M1141.65 679.074C1143.59 680.131 1146.23 680.131 1148.7 678.898C1151.16 677.664 1152.75 675.55 1153.1 673.435C1151.16 672.378 1148.52 672.377 1146.05 673.611C1143.59 674.845 1142 676.959 1141.65 679.074Z" fill="#CFC2E0"/>
<path d="M1248.21 444.696C1239.94 454.741 1232.89 465.314 1226.02 476.416C1219.33 487.519 1213.34 498.797 1207.88 510.604C1202.42 522.235 1197.49 534.218 1193.26 546.377C1189.03 558.537 1185.51 571.049 1182.51 583.561C1176.53 608.761 1173.53 634.489 1173.18 660.394C1173 686.299 1175.47 712.204 1180.58 737.58L1186.04 736.347C1180.58 711.323 1177.76 685.947 1177.41 660.218C1177.41 634.666 1180.05 609.113 1185.51 583.913C1188.33 571.401 1191.67 559.065 1195.55 546.906C1199.6 534.747 1204.18 522.763 1209.46 511.133C1214.75 499.502 1220.56 488.047 1227.08 476.945C1233.59 465.843 1240.64 455.093 1248.57 445.049L1248.21 444.696Z" fill="#8477AB"/>
<path d="M1276.22 402.226C1278.86 410.509 1276.93 421.435 1270.58 431.127C1264.24 440.819 1254.91 446.811 1246.28 447.692C1243.64 439.409 1245.57 428.484 1251.91 418.791C1258.43 409.099 1267.77 403.107 1276.22 402.226Z" fill="#8477AB"/>
<path d="M1214.04 418.967C1222.15 421.963 1229.54 430.246 1233.24 441.348C1236.94 452.45 1235.71 463.376 1231.13 470.777C1223.03 467.782 1215.63 459.499 1211.93 448.397C1208.23 437.295 1209.29 426.193 1214.04 418.967Z" fill="#8477AB"/>
<path d="M1185.68 450.512C1194.32 451.393 1203.65 457.208 1210.17 466.9C1216.69 476.593 1218.45 487.519 1215.98 495.801C1207.35 494.92 1198.01 489.105 1191.5 479.412C1185.16 469.72 1183.22 458.794 1185.68 450.512Z" fill="#8477AB"/>
<path d="M1170.71 481.879C1179.34 482.76 1188.68 488.576 1195.2 498.268C1201.71 507.961 1203.48 518.886 1201.01 527.169C1192.38 526.288 1183.04 520.472 1176.53 510.78C1170.01 500.912 1168.07 489.986 1170.71 481.879Z" fill="#8477AB"/>
<path d="M1152.22 515.009C1160.67 513.6 1171.24 516.948 1180.05 524.702C1188.68 532.456 1193.44 542.5 1193.08 551.135C1184.63 552.545 1174.06 549.197 1165.25 541.443C1156.45 533.689 1151.87 523.644 1152.22 515.009Z" fill="#8477AB"/>
<path d="M1143.94 550.783C1150.99 547.611 1160.85 548.14 1170.18 552.898C1179.52 557.656 1185.69 565.233 1187.45 572.811C1180.4 575.983 1170.54 575.454 1161.2 570.696C1151.87 565.938 1145.7 558.361 1143.94 550.783Z" fill="#8477AB"/>
<path d="M1137.07 574.044C1144.12 570.872 1153.98 571.401 1163.32 576.159C1172.65 580.917 1178.82 588.495 1180.58 596.072C1173.53 599.244 1163.67 598.716 1154.33 593.958C1145 589.2 1138.66 581.446 1137.07 574.044Z" fill="#8477AB"/>
<path d="M1139.36 603.121C1145.35 600.478 1153.8 600.831 1161.91 604.884C1169.83 608.937 1175.29 615.457 1176.7 621.977C1170.71 624.621 1162.26 624.268 1154.16 620.215C1146.05 616.162 1140.77 609.642 1139.36 603.121Z" fill="#8477AB"/>
<path d="M1142.35 633.432C1145.88 629.203 1152.39 626.207 1159.79 626.207C1167.37 626.207 1173.88 629.026 1177.41 633.256C1173.88 637.485 1167.37 640.481 1159.97 640.481C1152.39 640.481 1145.88 637.661 1142.35 633.432Z" fill="#8477AB"/>
<path d="M1147.99 657.046C1149.58 652.993 1153.8 649.116 1159.44 647.001C1165.08 645.063 1170.89 645.415 1174.59 647.882C1173 651.936 1168.78 655.812 1163.14 657.927C1157.5 659.866 1151.87 659.337 1147.99 657.046Z" fill="#8477AB"/>
<path d="M1285.03 467.605C1279.92 474.478 1269.88 479.412 1258.25 479.941C1246.63 480.47 1236.24 476.416 1230.6 469.896C1235.71 463.023 1245.75 458.089 1257.37 457.561C1269 457.032 1279.39 461.085 1285.03 467.605Z" fill="#8477AB"/>
<path d="M1270.41 493.863C1265.3 500.735 1255.26 505.67 1243.63 506.198C1232.01 506.727 1221.62 502.674 1215.98 496.154C1221.09 489.281 1231.13 484.346 1242.75 483.818C1254.38 483.465 1264.77 487.518 1270.41 493.863Z" fill="#8477AB"/>
<path d="M1256.14 524.878C1251.03 531.751 1240.99 536.685 1229.37 537.214C1217.74 537.742 1207.35 533.689 1201.71 527.169C1206.82 520.296 1216.86 515.362 1228.49 514.833C1239.94 514.481 1250.33 518.534 1256.14 524.878Z" fill="#8477AB"/>
<path d="M1235.88 549.902C1231.66 555.541 1223.55 559.594 1214.22 559.947C1204.71 560.299 1196.43 557.127 1191.67 551.84C1195.9 546.201 1204 542.148 1213.34 541.796C1222.85 541.267 1231.13 544.615 1235.88 549.902Z" fill="#8477AB"/>
<path d="M1221.79 571.401C1218.45 576.159 1211.93 579.507 1204.18 579.86C1196.61 580.212 1189.74 577.393 1186.04 572.987C1189.38 568.229 1195.9 564.881 1203.65 564.528C1211.23 564.176 1218.09 566.996 1221.79 571.401Z" fill="#8477AB"/>
<path d="M1217.21 593.958C1213.87 598.716 1207.35 602.064 1199.6 602.417C1192.03 602.769 1185.16 599.949 1181.46 595.544C1184.8 590.786 1191.32 587.438 1199.07 587.085C1206.65 586.733 1213.52 589.552 1217.21 593.958Z" fill="#8477AB"/>
<path d="M1210.87 615.281C1208.41 619.863 1202.95 623.74 1195.9 625.326C1188.86 626.912 1182.16 625.678 1178.11 622.506C1180.58 617.924 1186.04 614.047 1193.08 612.461C1200.13 610.875 1206.82 612.109 1210.87 615.281Z" fill="#8477AB"/>
<path d="M1206.65 640.481C1202.95 643.3 1197.13 644.358 1190.97 642.948C1184.8 641.538 1179.87 638.014 1177.76 633.961C1181.46 631.141 1187.27 630.084 1193.44 631.493C1199.78 632.903 1204.53 636.428 1206.65 640.481Z" fill="#8477AB"/>
<path d="M1197.84 658.103C1194.67 659.689 1190.09 659.689 1185.69 657.751C1181.28 655.812 1178.11 652.464 1177.05 649.116C1180.22 647.53 1184.8 647.53 1189.21 649.468C1193.61 651.407 1196.78 654.755 1197.84 658.103Z" fill="#8477AB"/>
<path d="M1189.91 664.976C1187.97 666.21 1184.98 666.21 1182.34 665.152C1179.7 663.919 1177.76 661.804 1177.23 659.513C1179.17 658.28 1182.16 658.28 1184.8 659.337C1187.62 660.394 1189.38 662.685 1189.91 664.976Z" fill="#8477AB"/>
<path d="M1189.38 672.025C1187.45 673.259 1184.45 673.259 1181.81 672.201C1179.17 670.968 1177.23 668.853 1176.7 666.562C1178.64 665.328 1181.63 665.329 1184.28 666.386C1186.92 667.619 1188.86 669.734 1189.38 672.025Z" fill="#8477AB"/>
<path d="M1128.44 652.288C1116.29 634.489 1103.43 617.043 1089.87 600.302L1090.04 600.126C1104.13 616.514 1117.17 633.784 1129.85 651.407C1142.35 669.029 1154.16 687.18 1164.72 706.036C1167.37 710.618 1169.83 715.2 1172.12 719.958C1171.24 720.487 1170.18 721.015 1169.3 721.544C1167.01 716.786 1164.55 712.204 1162.08 707.446C1152.04 688.414 1140.59 670.087 1128.44 652.288Z" fill="#AE9BCA"/>
<path d="M1076.48 577.569C1080.88 577.921 1085.64 580.917 1088.63 585.851C1091.63 590.786 1091.98 596.249 1090.22 600.478C1085.81 600.126 1081.06 597.13 1078.06 592.196C1075.25 587.261 1074.72 581.622 1076.48 577.569Z" fill="#AE9BCA"/>
<path d="M1109.77 587.966C1111.53 591.491 1111.71 596.954 1109.59 602.24C1107.48 607.527 1103.96 611.404 1100.08 612.814C1098.32 609.289 1098.14 603.826 1100.26 598.54C1102.37 593.253 1106.07 589.376 1109.77 587.966Z" fill="#AE9BCA"/>
<path d="M1111 627.264C1108.01 629.908 1102.72 631.141 1097.09 630.436C1091.45 629.731 1086.87 626.912 1084.58 623.74C1087.58 621.096 1092.86 619.863 1098.5 620.568C1104.13 621.273 1108.71 623.916 1111 627.264Z" fill="#AE9BCA"/>
<path d="M1124.39 644.534C1121.39 647.177 1116.11 648.411 1110.47 647.706C1104.84 647.001 1100.26 644.182 1097.97 641.01C1100.96 638.366 1106.25 637.133 1111.88 637.838C1117.52 638.542 1122.1 641.186 1124.39 644.534Z" fill="#AE9BCA"/>
<path d="M1133.55 658.456C1130.55 661.099 1125.27 662.333 1119.63 661.628C1114 660.923 1109.42 658.103 1107.13 654.931C1110.12 652.288 1115.41 651.054 1121.04 651.759C1126.68 652.464 1131.26 655.108 1133.55 658.456Z" fill="#AE9BCA"/>
<path d="M1143.59 673.611C1140.59 676.254 1135.31 677.488 1129.67 676.783C1124.04 676.078 1119.46 673.259 1117.17 670.087C1120.16 667.443 1125.45 666.21 1131.08 666.915C1136.72 667.619 1141.47 670.439 1143.59 673.611Z" fill="#AE9BCA"/>
<path d="M1121.57 602.945C1123.33 606.47 1123.51 611.933 1121.39 617.219C1119.28 622.506 1115.76 626.383 1111.88 627.793C1110.12 624.268 1109.95 618.805 1112.06 613.519C1114.17 608.232 1117.7 604.355 1121.57 602.945Z" fill="#AE9BCA"/>
<path d="M1132.67 618.277C1134.43 621.801 1134.6 627.264 1132.49 632.551C1130.38 637.838 1126.85 641.715 1122.98 643.124C1121.22 639.6 1121.04 634.137 1123.16 628.85C1125.27 623.563 1128.97 619.687 1132.67 618.277Z" fill="#AE9BCA"/>
<path d="M1143.41 633.608C1145.17 637.133 1145.35 642.596 1143.24 647.882C1141.12 653.169 1137.6 657.046 1133.72 658.456C1131.96 654.931 1131.79 649.468 1133.9 644.182C1136.01 639.071 1139.54 635.018 1143.41 633.608Z" fill="#AE9BCA"/>
<path d="M1153.63 648.764C1155.39 652.288 1155.57 657.751 1153.45 663.038C1151.34 668.324 1147.81 672.201 1143.94 673.611C1142.18 670.087 1142 664.624 1144.12 659.337C1146.23 654.226 1149.93 650.173 1153.63 648.764Z" fill="#AE9BCA"/>
<path d="M1120.51 692.996H1201.19C1214.57 699.868 1223.03 710.089 1223.03 721.368C1223.03 733.527 1213.34 744.277 1198.37 751.15H1123.16C1108.18 744.277 1098.5 733.527 1098.5 721.368C1098.5 710.089 1107.13 699.868 1120.51 692.996Z" fill="url(#paint0_linear)"/>
<path d="M1128.09 699.516C1120.16 698.635 1109.42 704.626 1106.77 716.61C1103.08 740.4 1126.85 747.449 1139.89 741.457C1128.62 738.638 1116.11 733.351 1115.76 721.72C1115.05 715.552 1118.75 709.737 1118.75 709.561C1119.28 708.856 1120.34 707.094 1122.1 704.979C1123.86 702.688 1125.97 701.102 1128.09 699.516Z" fill="#F7F0A1"/>
<path d="M1116.82 695.107H1205.94V689.468H1116.82V695.107Z" fill="#6C9FC5"/>
<path d="M206.174 598.54C203.356 601.359 198.424 603.298 192.611 603.121C186.975 602.945 182.043 600.654 179.401 597.659C182.219 594.839 187.151 592.9 192.964 593.077C198.6 593.253 203.532 595.368 206.174 598.54Z" fill="#AE9BCA"/>
<path d="M267.823 717.315C264.124 691.41 262.363 665.152 262.715 639.071C262.891 626.031 263.595 612.99 264.652 599.949C265.709 586.909 267.294 574.045 269.056 561.004C272.755 535.099 278.039 509.547 284.38 484.347C287.55 471.658 291.249 459.147 295.124 446.811C299 434.475 303.227 422.139 308.159 409.98L309.744 410.685C304.988 422.844 300.937 435.18 297.238 447.516C293.539 460.028 290.016 472.539 287.022 485.051C280.857 510.251 275.925 535.804 272.579 561.533C270.993 574.397 269.584 587.261 268.704 600.302C267.823 613.166 267.294 626.207 267.294 639.071C267.118 664.976 269.232 690.881 273.283 716.433L267.823 717.315Z" fill="#AE9BCA"/>
<path d="M315.909 358.17C308.511 362.576 302.699 372.092 300.937 383.546C299.352 395.001 302.346 405.751 308.159 412.095C315.557 407.689 321.369 398.173 323.131 386.718C324.716 375.088 321.722 364.514 315.909 358.17Z" fill="#AE9BCA"/>
<path d="M272.402 397.821C271.522 404.517 274.34 412.623 280.505 419.32C286.67 426.016 294.772 429.365 301.465 428.836C302.346 422.139 299.528 414.033 293.363 407.337C287.198 400.816 279.096 397.292 272.402 397.821Z" fill="#AE9BCA"/>
<path d="M302.17 431.127C307.807 434.828 316.437 435.709 325.068 432.889C333.699 430.07 340.216 424.254 342.682 418.086C337.046 414.386 328.415 413.504 319.784 416.324C310.977 418.967 304.46 424.783 302.17 431.127Z" fill="#AE9BCA"/>
<path d="M294.244 457.208C299.88 460.909 308.511 461.79 317.142 458.97C325.773 456.151 332.29 450.335 334.756 444.167C329.119 440.467 320.489 439.586 311.858 442.405C303.227 445.049 296.71 450.864 294.244 457.208Z" fill="#AE9BCA"/>
<path d="M285.437 486.461C291.073 490.162 299.704 491.043 308.335 488.223C316.966 485.404 323.483 479.589 325.949 473.421C320.312 469.72 311.682 468.839 303.051 471.658C294.42 474.478 287.903 480.117 285.437 486.461Z" fill="#AE9BCA"/>
<path d="M279.624 513.776C285.261 517.477 293.892 518.358 302.522 515.538C311.153 512.719 317.67 506.903 320.136 500.735C314.5 497.035 305.869 496.154 297.238 498.973C288.431 501.617 281.914 507.432 279.624 513.776Z" fill="#AE9BCA"/>
<path d="M282.09 508.313C276.454 512.014 267.823 512.895 259.192 510.075C250.561 507.256 244.044 501.44 241.578 495.272C247.215 491.572 255.845 490.691 264.476 493.51C273.107 496.154 279.624 501.969 282.09 508.313Z" fill="#AE9BCA"/>
<path d="M264.476 423.725C263.596 430.422 266.414 438.528 272.579 445.225C278.744 451.921 286.846 455.27 293.539 454.741C294.42 448.044 291.602 439.938 285.437 433.242C279.272 426.545 271.17 423.373 264.476 423.725Z" fill="#AE9BCA"/>
<path d="M255.493 453.331C254.612 460.028 257.431 468.134 263.595 474.83C269.76 481.527 277.863 484.875 284.556 484.346C285.437 477.65 282.619 469.544 276.454 462.847C270.113 456.151 262.186 452.802 255.493 453.331Z" fill="#AE9BCA"/>
<path d="M434.451 478.355C423.178 484.523 412.609 491.924 402.217 499.678C392.001 507.432 382.137 515.891 372.802 524.702C363.467 533.513 354.483 542.853 346.029 552.721C337.574 562.59 329.824 572.811 322.426 583.384C307.63 604.531 295.301 627.617 285.437 651.407C275.749 675.373 268.528 700.397 264.124 725.95L269.584 726.831C273.636 701.631 280.329 676.783 289.488 652.993C298.823 629.203 310.625 606.294 325.068 585.147C332.29 574.573 339.864 564.176 348.142 554.307C356.421 544.439 365.052 535.099 374.211 526.112C383.37 517.124 393.058 508.665 403.098 500.735C413.138 492.805 423.706 485.404 434.803 479.06L434.451 478.355Z" fill="#AE9BCA"/>
<path d="M476.196 449.278C475.667 457.913 469.855 467.429 460.343 474.126C450.832 480.822 439.911 482.937 431.632 480.646C432.161 472.011 437.973 462.495 447.485 455.798C456.997 449.102 467.917 446.987 476.196 449.278Z" fill="#AE9BCA"/>
<path d="M412.081 441.877C418.422 447.692 422.297 458.089 421.592 469.72C420.888 481.351 415.78 491.219 408.911 496.33C402.569 490.514 398.694 480.117 399.399 468.486C400.103 456.856 405.035 446.987 412.081 441.877Z" fill="#AE9BCA"/>
<path d="M374.211 460.909C381.961 464.786 388.478 473.773 390.944 485.228C393.41 496.682 391.121 507.432 385.836 514.128C378.086 510.251 371.569 501.264 369.103 489.809C366.637 478.531 368.927 467.605 374.211 460.909Z" fill="#AE9BCA"/>
<path d="M348.671 484.523C356.421 488.4 362.938 497.387 365.404 508.842C367.87 520.296 365.58 531.046 360.296 537.742C352.546 533.865 346.029 524.878 343.563 513.423C341.097 501.969 343.387 491.219 348.671 484.523Z" fill="#AE9BCA"/>
<path d="M319.432 508.665C327.886 510.428 336.517 517.477 341.801 527.874C347.086 538.271 347.614 549.373 344.267 557.303C335.813 555.541 327.182 548.492 321.898 538.095C316.437 527.521 315.909 516.419 319.432 508.665Z" fill="#AE9BCA"/>
<path d="M298.647 538.8C306.397 538.447 315.381 542.677 322.25 550.431C329.119 558.184 332.114 567.7 330.881 575.278C323.131 575.631 314.148 571.401 307.278 563.647C300.409 555.893 297.414 546.377 298.647 538.8Z" fill="#AE9BCA"/>
<path d="M283.675 557.832C291.425 557.48 300.409 561.709 307.278 569.463C314.147 577.217 317.142 586.733 315.909 594.31C308.159 594.663 299.176 590.433 292.306 582.68C285.437 574.926 282.442 565.41 283.675 557.832Z" fill="#AE9BCA"/>
<path d="M275.045 585.852C281.562 585.499 289.312 589.024 295.301 595.72C301.289 602.417 303.755 610.523 302.699 617.043C296.181 617.396 288.431 613.871 282.443 607.175C276.63 600.478 273.988 592.372 275.045 585.852Z" fill="#AE9BCA"/>
<path d="M266.766 615.105C271.522 612.461 278.743 612.109 285.613 614.752C292.658 617.396 297.59 622.506 299.352 627.617C294.596 630.26 287.374 630.612 280.505 627.969C273.635 625.326 268.527 620.391 266.766 615.105Z" fill="#AE9BCA"/>
<path d="M263.419 639.247C266.414 635.899 271.698 633.961 277.687 634.137C283.675 634.313 288.783 636.956 291.426 640.481C288.431 643.829 283.147 645.768 277.158 645.591C271.17 645.239 266.062 642.772 263.419 639.247Z" fill="#AE9BCA"/>
<path d="M460.343 513.247C452.945 517.829 442.025 518.71 430.928 514.833C420.007 510.956 411.729 503.379 408.911 495.449C416.308 490.867 427.229 489.986 438.326 493.863C449.246 497.563 457.349 505.141 460.343 513.247Z" fill="#AE9BCA"/>
<path d="M437.093 532.456C429.695 537.037 418.774 537.919 407.678 534.042C396.757 530.165 388.478 522.587 385.66 514.481C393.058 509.899 403.979 509.018 415.075 512.895C425.996 516.772 434.099 524.349 437.093 532.456Z" fill="#AE9BCA"/>
<path d="M412.433 555.893C405.036 560.475 394.115 561.356 383.018 557.479C372.098 553.603 363.819 546.025 361.001 538.095C368.399 533.513 379.319 532.632 390.416 536.509C401.337 540.386 409.439 547.787 412.433 555.893Z" fill="#AE9BCA"/>
<path d="M384.427 571.577C378.438 575.278 369.455 575.983 360.472 572.987C351.489 569.815 344.972 563.647 342.506 557.127C348.495 553.426 357.478 552.721 366.461 555.717C375.444 558.889 381.961 565.057 384.427 571.577Z" fill="#AE9BCA"/>
<path d="M363.466 586.556C358.535 589.728 351.313 590.433 344.091 587.966C336.869 585.499 331.585 580.389 329.648 574.926C334.58 571.754 341.801 571.049 349.023 573.516C356.245 575.983 361.529 581.093 363.466 586.556Z" fill="#AE9BCA"/>
<path d="M350.961 605.941C346.029 609.113 338.807 609.818 331.585 607.351C324.364 604.884 319.079 599.773 317.142 594.31C322.074 591.138 329.296 590.433 336.517 592.901C343.739 595.368 349.023 600.478 350.961 605.941Z" fill="#AE9BCA"/>
<path d="M337.222 623.387C333.347 626.735 326.653 628.321 319.608 627.264C312.562 626.031 306.75 622.506 304.108 618.1C307.983 614.752 314.676 613.166 321.721 614.224C328.767 615.281 334.58 618.982 337.222 623.387Z" fill="#AE9BCA"/>
<path d="M324.011 645.239C319.608 646.473 313.619 645.415 308.511 641.715C303.227 638.19 300.056 633.08 299.704 628.498C304.108 627.264 310.096 628.322 315.204 632.022C320.312 635.547 323.659 640.657 324.011 645.239Z" fill="#AE9BCA"/>
<path d="M309.216 658.456C305.693 658.808 301.465 657.046 297.943 653.698C294.596 650.35 292.835 645.944 293.187 642.419C296.71 642.067 300.937 643.829 304.46 647.177C307.983 650.526 309.568 654.931 309.216 658.456Z" fill="#AE9BCA"/>
<path d="M299.528 661.804C297.238 662.157 294.42 661.275 292.482 659.161C290.369 657.046 289.488 654.403 289.84 652.112C292.13 651.759 294.948 652.64 296.886 654.755C299 656.87 299.88 659.513 299.528 661.804Z" fill="#AE9BCA"/>
<path d="M296.357 668.324C294.068 668.677 291.249 667.796 289.312 665.681C287.198 663.566 286.317 660.923 286.67 658.632C288.96 658.28 291.778 659.161 293.715 661.275C295.829 663.214 296.71 666.033 296.357 668.324Z" fill="#AE9BCA"/>
<path d="M182.924 456.679C191.026 465.491 198.072 475.183 204.765 485.051C211.458 494.92 217.623 505.317 223.26 515.891C228.896 526.464 233.828 537.39 238.408 548.492C242.811 559.594 246.686 571.049 250.033 582.503C256.726 605.589 260.601 629.379 262.186 653.345C263.596 677.312 262.363 701.454 258.664 725.245L253.556 724.364C257.431 700.926 259.016 677.136 258.135 653.522C256.902 629.908 253.379 606.293 247.215 583.208C244.044 571.754 240.521 560.475 236.118 549.373C231.89 538.271 226.959 527.345 221.498 516.772C216.038 506.198 210.225 495.801 203.708 485.932C197.191 476.064 190.145 466.195 182.395 457.384L182.924 456.679Z" fill="#CFC2E0"/>
<path d="M154.918 418.615C152.804 426.369 155.094 436.414 161.435 445.225C167.776 454.036 176.759 459.146 184.685 459.499C186.799 451.745 184.509 441.7 178.168 432.889C171.827 424.254 162.844 418.967 154.918 418.615Z" fill="#CFC2E0"/>
<path d="M213.396 431.303C205.998 434.475 199.481 442.405 196.663 452.979C193.844 463.376 195.253 473.597 199.833 480.117C207.231 476.945 213.748 469.015 216.566 458.442C219.561 448.044 217.975 437.823 213.396 431.303Z" fill="#CFC2E0"/>
<path d="M240.874 459.323C232.947 460.556 224.493 466.372 219.032 475.712C213.572 485.051 212.163 495.272 214.981 502.674C222.907 501.44 231.362 495.625 236.822 486.285C242.459 477.121 243.692 466.9 240.874 459.323Z" fill="#CFC2E0"/>
<path d="M256.374 487.519C248.448 488.752 239.993 494.567 234.533 503.907C229.072 513.247 227.663 523.468 230.481 530.87C238.408 529.636 246.862 523.821 252.323 514.481C257.783 505.317 259.016 495.096 256.374 487.519Z" fill="#CFC2E0"/>
<path d="M275.045 517.477C267.118 516.596 257.431 520.12 249.681 527.698C241.93 535.275 238.055 544.791 238.76 552.721C246.686 553.603 256.374 550.078 264.124 542.5C271.874 535.099 275.749 525.407 275.045 517.477Z" fill="#CFC2E0"/>
<path d="M284.204 550.254C277.511 547.611 268.351 548.668 260.073 553.426C251.618 558.184 246.158 565.586 245.101 572.635C251.794 575.278 260.953 574.221 269.232 569.463C277.511 564.705 282.971 557.303 284.204 550.254Z" fill="#CFC2E0"/>
<path d="M291.602 571.401C284.908 568.758 275.749 569.815 267.471 574.573C259.016 579.331 253.556 586.733 252.499 593.782C259.192 596.425 268.351 595.368 276.63 590.61C285.085 585.852 290.545 578.45 291.602 571.401Z" fill="#CFC2E0"/>
<path d="M290.897 598.54C285.261 596.249 277.334 597.13 270.113 601.183C262.891 605.236 258.311 611.58 257.255 617.572C262.891 619.863 270.817 618.982 278.039 614.929C285.085 611.052 289.84 604.708 290.897 598.54Z" fill="#CFC2E0"/>
<path d="M289.488 626.736C286.141 622.859 279.977 620.568 272.931 620.744C266.061 621.096 260.073 623.916 256.902 627.969C260.249 631.846 266.414 634.137 273.459 633.961C280.329 633.784 286.318 630.789 289.488 626.736Z" fill="#CFC2E0"/>
<path d="M285.261 648.94C283.675 645.239 279.624 641.714 274.164 640.128C268.88 638.542 263.596 639.247 260.249 641.538C261.834 645.239 265.885 648.763 271.346 650.349C276.63 651.935 281.914 651.231 285.261 648.94Z" fill="#CFC2E0"/>
<path d="M149.81 479.589C154.918 485.756 164.253 489.809 175.174 489.809C185.918 489.809 195.43 485.58 200.362 479.236C195.253 473.068 185.918 469.015 174.997 469.015C164.077 469.015 154.741 473.244 149.81 479.589Z" fill="#CFC2E0"/>
<path d="M164.429 503.203C169.537 509.37 178.873 513.423 189.793 513.423C200.538 513.423 210.049 509.194 214.981 502.85C209.873 496.682 200.538 492.629 189.617 492.629C178.873 492.805 169.361 497.035 164.429 503.203Z" fill="#CFC2E0"/>
<path d="M179.225 531.398C184.333 537.566 193.668 541.619 204.589 541.619C215.333 541.619 224.845 537.39 229.777 531.046C224.669 524.878 215.333 520.825 204.413 520.825C193.492 521.001 184.157 525.23 179.225 531.398Z" fill="#CFC2E0"/>
<path d="M198.952 553.426C203.004 558.361 210.754 561.709 219.561 561.709C228.368 561.709 235.942 558.184 239.993 553.074C235.942 548.14 228.192 544.791 219.385 544.791C210.754 544.968 203.18 548.492 198.952 553.426Z" fill="#CFC2E0"/>
<path d="M212.867 572.987C216.214 577.217 222.379 580.036 229.425 580.036C236.47 580.036 242.635 577.04 245.982 572.811C242.635 568.582 236.47 565.762 229.425 565.762C222.379 565.762 216.214 568.582 212.867 572.987Z" fill="#CFC2E0"/>
<path d="M218.152 593.605C221.498 597.835 227.663 600.654 234.709 600.654C241.754 600.654 247.919 597.659 251.266 593.429C247.919 589.2 241.754 586.38 234.709 586.38C227.663 586.38 221.498 589.376 218.152 593.605Z" fill="#CFC2E0"/>
<path d="M225.021 612.99C227.487 617.043 232.771 620.568 239.464 621.625C245.982 622.682 252.146 621.273 255.845 618.1C253.379 614.047 248.095 610.523 241.402 609.465C234.885 608.408 228.72 609.818 225.021 612.99Z" fill="#CFC2E0"/>
<path d="M230.129 636.252C233.652 638.719 239.112 639.424 244.925 637.838C250.561 636.252 254.965 632.727 256.726 628.85C253.203 626.383 247.743 625.678 241.93 627.264C236.294 628.85 231.89 632.198 230.129 636.252Z" fill="#CFC2E0"/>
<path d="M239.112 652.112C242.106 653.522 246.334 653.169 250.385 651.231C254.436 649.292 257.254 645.944 257.959 642.772C254.965 641.362 250.737 641.714 246.686 643.653C242.635 645.591 239.993 648.94 239.112 652.112Z" fill="#CFC2E0"/>
<path d="M246.686 658.103C248.624 659.161 251.266 659.161 253.732 657.927C256.198 656.693 257.783 654.579 258.135 652.464C256.198 651.407 253.555 651.407 251.09 652.64C248.8 653.874 247.038 655.989 246.686 658.103Z" fill="#CFC2E0"/>
<path d="M247.567 664.624C249.504 665.681 252.147 665.681 254.612 664.447C257.078 663.214 258.664 661.099 259.016 658.984C257.078 657.927 254.436 657.927 251.97 659.161C249.504 660.394 247.919 662.509 247.567 664.624Z" fill="#CFC2E0"/>
<path d="M354.131 430.422C345.853 440.291 338.807 451.04 331.938 462.142C325.244 473.244 319.256 484.523 313.795 496.33C308.335 507.961 303.403 519.944 299.176 532.103C294.948 544.263 291.426 556.775 288.431 569.286C282.443 594.486 279.448 620.215 279.096 646.12C278.92 672.025 281.386 697.93 286.494 723.306L291.954 722.073C286.494 697.049 283.676 671.673 283.323 645.944C283.323 620.391 285.965 594.839 291.426 569.639C294.244 557.127 297.591 544.791 301.466 532.632C305.517 520.472 310.097 508.489 315.381 496.858C320.665 485.228 326.477 473.773 332.995 462.671C339.512 451.569 346.557 440.819 354.484 430.774L354.131 430.422Z" fill="#8477AB"/>
<path d="M382.137 387.952C384.78 396.235 382.842 407.16 376.501 416.853C370.16 426.545 360.825 432.537 352.194 433.418C349.552 425.135 351.489 414.209 357.83 404.517C364.347 394.825 373.683 388.833 382.137 387.952Z" fill="#8477AB"/>
<path d="M319.96 404.693C328.063 407.689 335.461 415.972 339.159 427.074C342.858 438.176 341.802 449.102 337.046 456.503C328.943 453.507 321.546 445.225 317.847 434.123C314.148 423.021 315.204 411.919 319.96 404.693Z" fill="#8477AB"/>
<path d="M291.602 436.237C300.233 437.119 309.568 442.934 316.085 452.626C322.602 462.319 324.364 473.244 321.898 481.527C313.267 480.646 303.931 474.83 297.414 465.138C291.073 455.446 289.136 444.52 291.602 436.237Z" fill="#8477AB"/>
<path d="M276.63 467.429C285.261 468.31 294.596 474.126 301.113 483.818C307.63 493.51 309.392 504.436 306.926 512.719C298.295 511.838 288.96 506.022 282.442 496.33C275.925 486.637 273.988 475.712 276.63 467.429Z" fill="#8477AB"/>
<path d="M258.135 500.735C266.59 499.326 277.158 502.674 285.965 510.428C294.596 518.182 299.352 528.226 299 536.861C290.545 538.271 279.977 534.923 271.17 527.169C262.363 519.415 257.783 509.37 258.135 500.735Z" fill="#8477AB"/>
<path d="M249.857 536.509C256.902 533.337 266.766 533.865 276.102 538.624C285.437 543.382 291.602 550.959 293.363 558.537C286.318 561.709 276.454 561.18 267.118 556.422C257.783 551.664 251.618 543.91 249.857 536.509Z" fill="#8477AB"/>
<path d="M242.987 559.594C250.033 556.422 259.897 556.951 269.232 561.709C278.567 566.467 284.732 574.045 286.494 581.622C279.448 584.794 269.584 584.266 260.249 579.507C250.914 574.926 244.573 567.172 242.987 559.594Z" fill="#8477AB"/>
<path d="M245.277 588.847C251.266 586.204 259.721 586.556 267.823 590.61C275.749 594.663 281.21 601.183 282.619 607.703C276.63 610.347 268.175 609.994 260.073 605.941C251.971 601.888 246.686 595.368 245.277 588.847Z" fill="#8477AB"/>
<path d="M248.271 619.158C251.794 614.928 258.311 611.933 265.709 611.933C273.283 611.933 279.8 614.752 283.323 618.982C279.8 623.211 273.283 626.207 265.885 626.207C258.311 626.207 251.794 623.387 248.271 619.158Z" fill="#8477AB"/>
<path d="M253.908 642.772C255.493 638.719 259.721 634.842 265.357 632.727C270.993 630.789 276.806 631.141 280.505 633.608C278.92 637.661 274.692 641.538 269.056 643.653C263.419 645.591 257.783 645.063 253.908 642.772Z" fill="#8477AB"/>
<path d="M390.944 453.331C385.836 460.204 375.796 465.138 364.171 465.667C352.546 466.195 342.154 462.142 336.517 455.622C341.625 448.749 351.665 443.815 363.29 443.286C374.916 442.758 385.308 446.811 390.944 453.331Z" fill="#8477AB"/>
<path d="M376.325 479.589C371.217 486.461 361.177 491.396 349.552 491.924C337.927 492.453 327.534 488.4 321.898 481.879C327.006 475.007 337.046 470.072 348.671 469.544C360.296 469.015 370.688 473.068 376.325 479.589Z" fill="#8477AB"/>
<path d="M362.058 510.604C356.95 517.477 346.91 522.411 335.284 522.94C323.659 523.468 313.267 519.415 307.63 512.895C312.739 506.022 322.778 501.088 334.404 500.559C345.853 500.207 356.245 504.26 362.058 510.604Z" fill="#8477AB"/>
<path d="M341.802 535.451C337.574 541.091 329.472 545.144 320.136 545.496C310.625 545.849 302.346 542.677 297.591 537.39C301.818 531.751 309.92 527.698 319.256 527.345C328.767 526.993 337.046 530.165 341.802 535.451Z" fill="#8477AB"/>
<path d="M327.71 557.127C324.364 561.885 317.847 565.233 310.096 565.586C302.522 565.938 295.653 563.119 291.954 558.713C295.301 553.955 301.818 550.607 309.568 550.254C317.142 549.902 324.011 552.721 327.71 557.127Z" fill="#8477AB"/>
<path d="M323.131 579.684C319.784 584.442 313.267 587.79 305.517 588.142C297.943 588.495 291.073 585.675 287.374 581.27C290.721 576.512 297.238 573.163 304.988 572.811C312.562 572.459 319.432 575.278 323.131 579.684Z" fill="#8477AB"/>
<path d="M316.79 600.831C314.324 605.412 308.863 609.289 301.818 610.875C294.772 612.461 288.079 611.228 284.028 608.056C286.494 603.474 291.954 599.597 299 598.011C306.045 596.425 312.739 597.659 316.79 600.831Z" fill="#8477AB"/>
<path d="M312.562 626.207C308.863 629.026 303.051 630.084 296.886 628.674C290.721 627.264 285.789 623.74 283.676 619.51C287.374 616.691 293.187 615.633 299.352 617.043C305.693 618.453 310.449 621.977 312.562 626.207Z" fill="#8477AB"/>
<path d="M303.755 643.829C300.585 645.415 296.005 645.415 291.602 643.477C287.198 641.538 284.028 638.19 282.971 634.842C286.141 633.256 290.721 633.256 295.124 635.194C299.528 637.133 302.698 640.305 303.755 643.829Z" fill="#8477AB"/>
<path d="M295.829 650.526C293.892 651.759 290.897 651.759 288.255 650.702C285.613 649.468 283.676 647.354 283.147 645.063C285.085 643.829 288.079 643.829 290.721 644.887C293.539 646.12 295.301 648.235 295.829 650.526Z" fill="#8477AB"/>
<path d="M295.301 657.751C293.363 658.984 290.369 658.984 287.727 657.927C285.085 656.693 283.147 654.579 282.619 652.288C284.556 651.054 287.551 651.054 290.193 652.112C292.835 653.345 294.772 655.46 295.301 657.751Z" fill="#8477AB"/>
<path d="M234.356 637.838C222.203 620.039 209.345 602.593 195.782 585.852L195.958 585.675C210.049 602.064 223.083 619.334 235.765 636.956C248.271 654.579 260.073 672.73 270.641 691.586C273.283 696.168 275.749 700.75 278.039 705.508C277.158 706.036 276.101 706.565 275.221 707.094C272.931 702.336 270.465 697.754 267.999 692.996C257.959 674.14 246.51 655.812 234.356 637.838Z" fill="#AE9BCA"/>
<path d="M182.395 563.295C186.799 563.647 191.554 566.643 194.549 571.577C197.543 576.512 197.895 581.975 196.134 586.204C191.731 585.852 186.975 582.856 183.98 577.921C180.986 572.811 180.634 567.348 182.395 563.295Z" fill="#AE9BCA"/>
<path d="M215.686 573.692C217.447 577.217 217.623 582.68 215.509 587.966C213.396 593.253 209.873 597.13 205.998 598.54C204.236 595.015 204.06 589.552 206.174 584.266C208.288 578.979 211.987 575.102 215.686 573.692Z" fill="#AE9BCA"/>
<path d="M216.919 612.814C213.924 615.457 208.64 616.691 203.004 615.986C197.367 615.281 192.787 612.461 190.498 609.289C193.492 606.646 198.776 605.412 204.413 606.117C210.049 606.822 214.629 609.466 216.919 612.814Z" fill="#AE9BCA"/>
<path d="M230.305 630.26C227.311 632.903 222.027 634.137 216.39 633.432C210.754 632.727 206.174 629.908 203.884 626.735C206.879 624.092 212.163 622.859 217.799 623.563C223.436 624.268 228.015 626.912 230.305 630.26Z" fill="#AE9BCA"/>
<path d="M239.464 644.005C236.47 646.649 231.186 647.882 225.549 647.177C219.913 646.473 215.333 643.653 213.044 640.481C216.038 637.838 221.322 636.604 226.959 637.309C232.595 638.014 237.175 640.657 239.464 644.005Z" fill="#AE9BCA"/>
<path d="M249.504 659.337C246.51 661.98 241.226 663.214 235.589 662.509C229.953 661.804 225.373 658.984 223.083 655.812C226.078 653.169 231.362 651.936 236.999 652.64C242.635 653.345 247.391 655.989 249.504 659.337Z" fill="#AE9BCA"/>
<path d="M227.487 588.495C229.248 592.019 229.424 597.482 227.311 602.769C225.197 608.056 221.674 611.933 217.799 613.342C216.038 609.818 215.862 604.355 217.975 599.068C220.089 593.782 223.612 589.905 227.487 588.495Z" fill="#AE9BCA"/>
<path d="M238.584 603.826C240.345 607.351 240.521 612.814 238.408 618.101C236.294 623.387 232.771 627.264 228.896 628.674C227.135 625.149 226.959 619.687 229.072 614.4C231.186 609.113 234.885 605.236 238.584 603.826Z" fill="#AE9BCA"/>
<path d="M249.328 619.334C251.09 622.859 251.266 628.321 249.152 633.608C247.038 638.895 243.516 642.772 239.641 644.182C237.879 640.657 237.703 635.194 239.817 629.907C241.93 624.621 245.453 620.744 249.328 619.334Z" fill="#AE9BCA"/>
<path d="M259.544 634.489C261.306 638.014 261.482 643.477 259.368 648.763C257.255 654.05 253.732 657.927 249.857 659.337C248.095 655.812 247.919 650.349 250.033 645.063C252.147 639.776 255.846 635.899 259.544 634.489Z" fill="#AE9BCA"/>
<path d="M226.43 678.722H307.102C320.489 685.594 328.943 695.815 328.943 707.094C328.943 719.253 319.256 730.003 304.284 736.875H229.072C214.1 730.003 204.413 719.253 204.413 707.094C204.413 695.815 213.044 685.594 226.43 678.722Z" fill="url(#paint1_linear)"/>
<path d="M234.004 685.066C226.078 684.184 215.333 690.176 212.691 702.159C208.992 725.95 232.771 732.998 245.805 727.007C234.533 724.187 222.027 718.901 221.674 707.27C220.97 701.102 224.669 695.287 224.669 695.11C225.197 694.405 226.254 692.643 228.015 690.529C229.777 688.414 231.89 686.828 234.004 685.066Z" fill="#F7F0A1"/>
<path d="M222.738 680.887H311.865V675.248H222.738V680.887Z" fill="#6C9FC5"/>
<path d="M1181.36 352.465V0.898621L836.481 0.898621V352.465L1181.36 352.465Z" fill="#342E8A"/>
<path d="M1174.76 7.4845H843.094V345.834H1174.76V7.4845Z" fill="#F0EBF5"/>
<path d="M1022.76 103.527H960.755L1015.18 133.132C1019.94 124.145 1022.58 114.1 1022.76 103.527Z" fill="#D8CEE7"/>
<path d="M889.242 103.527C889.595 128.022 903.157 149.169 923.061 160.447L953.885 103.527H889.242Z" fill="#D8CEE7"/>
<path d="M957.232 104.408V169.258C981.716 168.906 1002.85 155.336 1014.13 135.247L957.232 104.408Z" fill="#D8CEE7"/>
<path d="M889.242 101.059H951.243L896.64 71.4538C892.061 80.4412 889.419 90.486 889.242 101.059Z" fill="#D8CEE7"/>
<path d="M988.937 44.1391L958.113 101.059H1022.93C1022.4 76.7405 1008.84 55.4174 988.937 44.1391Z" fill="#FFE2AA"/>
<path d="M954.766 100.355V35.5041C930.283 35.8566 909.146 49.4258 897.873 69.3391L954.766 100.355Z" fill="#D8CEE7"/>
<path d="M957.937 33.5656V95.5965L987.528 40.9671C978.721 36.3852 968.681 33.7419 957.937 33.5656Z" fill="#FFFCEB"/>
<path d="M954.766 107.051L925.175 161.68C933.982 166.262 944.022 168.906 954.766 169.082V107.051Z" fill="#D8CEE7"/>
<path d="M912.669 265.653H898.049V320.987H912.669V265.653Z" fill="#D8CEE7"/>
<path d="M939.09 255.608H924.47V320.987H939.09V255.608Z" fill="#D8CEE7"/>
<path d="M965.687 245.563H951.067V320.987H965.687V245.563Z" fill="#D8CEE7"/>
<path d="M992.108 235.518H977.488V320.987H992.108V235.518Z" fill="#D8CEE7"/>
<path d="M1018.53 225.474H1003.91V320.811H1018.53V225.474Z" fill="#D8CEE7"/>
<path d="M1045.13 215.605H1030.51V320.987H1045.13V215.605Z" fill="#D8CEE7"/>
<path d="M1071.55 205.56H1056.93V320.987H1071.55V205.56Z" fill="#D8CEE7"/>
<path d="M1097.97 195.515H1083.35V320.987H1097.97V195.515Z" fill="#D8CEE7"/>
<path d="M1124.56 185.471H1109.95V320.987H1124.56V185.471Z" fill="#D8CEE7"/>
<path d="M1150.99 175.426H1136.37V320.811H1150.99V175.426Z" fill="#D8CEE7"/>
<path d="M1154.86 118.682C1153.63 118.858 1118.58 125.202 1117.34 125.202L1129.32 128.374C1124.74 130.136 1099.55 139.652 1093.39 141.943C1091.45 150.05 1090.22 155.865 1089.16 160.623C1083.52 160.094 1072.78 159.037 1063.62 158.156C1060.1 161.328 1033.32 185.471 1029.8 188.466C1021.35 187.409 1010.95 185.999 1003.38 185.118C996.159 191.286 961.283 220.892 954.414 226.883C947.544 224.592 937.681 221.244 931.516 219.129C928.874 220.892 884.487 251.731 881.844 253.493L884.31 257.018L932.044 223.888C939.09 226.355 948.425 229.35 955.118 231.641C960.931 226.707 999.153 194.106 1004.44 189.524C1012.89 190.581 1023.28 191.991 1031.03 192.872C1032.97 191.11 1063.62 163.619 1064.85 162.385C1069.61 162.914 1085.29 164.324 1092.33 165.029C1093.56 159.918 1096.38 147.406 1096.91 144.939L1130.91 129.255L1128.26 140.886L1154.86 118.682Z" fill="#E7B1C2"/>
<path d="M409.615 561.709H390.944V704.979H409.615V561.709Z" fill="#57595F"/>
<path d="M412.433 706.389H388.302V684.713V667.267H412.433V706.389Z" fill="#0D2226"/>
<path d="M299 732.294L388.302 684.713V706.389L324.187 732.294V737.052H299V732.294Z" fill="#0D2226"/>
<path d="M501.56 732.294L412.433 684.713V706.389L476.372 732.294V737.052H501.56V732.294Z" fill="#0D2226"/>
<path d="M392.177 684.713V737.052H386.188V740.752H412.433V737.052H406.797L408.558 684.713H392.177Z" fill="#0D2226"/>
<path d="M412.609 553.779H388.478V583.208H412.609V553.779Z" fill="#303030"/>
<path d="M338.631 406.632L309.039 423.021L332.994 531.398L344.62 529.284L330.881 428.484L346.909 421.611L338.631 406.632Z" fill="#21130B"/>
<path d="M449.07 406.632L480.247 431.127L474.963 533.865L462.457 531.222L466.86 442.581L441.849 426.016L449.07 406.632Z" fill="#21130B"/>
<path d="M439.383 481.527H350.784L326.477 330.679C322.074 303.541 343.034 279.046 370.512 279.046H420.007C447.485 279.046 468.446 303.541 464.042 330.679L439.383 481.527Z" fill="#0189A9"/>
<path d="M485.707 542.148H319.784C319.784 532.984 327.182 525.759 336.165 525.759H469.15C478.485 525.759 485.707 532.984 485.707 542.148Z" fill="#0189A9"/>
<path d="M446.956 296.492L455.235 290.853C455.235 290.853 433.57 255.079 435.684 224.24C436.917 208.027 410.143 184.061 403.098 187.762C402.746 187.585 379.495 188.29 377.381 241.334L372.45 303.541L397.637 325.745C397.637 325.745 413.49 298.606 433.57 310.59C453.65 322.573 446.076 317.462 446.076 317.462C446.076 317.462 446.956 302.307 446.956 296.492Z" fill="#022B32"/>
<path d="M356.421 298.078C356.421 298.078 356.245 357.289 362.234 369.801C368.222 382.313 365.58 457.208 365.58 457.208L434.803 459.323C434.803 459.323 443.61 389.538 443.61 370.506C443.61 351.474 450.656 297.902 450.656 297.902C450.656 297.902 403.45 285.742 356.421 298.078Z" fill="#756C87"/>
<path d="M423.882 255.784C424.939 256.841 420.712 285.213 424.763 293.672C424.763 293.672 413.666 354.998 406.268 355.879C399.751 356.584 396.228 304.598 394.995 298.606C393.234 290.676 397.109 250.674 397.109 250.674L423.882 255.784Z" fill="#F37575"/>
<path d="M423.354 268.296C413.49 277.283 403.626 273.054 396.052 261.776C396.229 256.137 396.933 250.85 396.933 250.674L423.706 255.96C424.235 256.313 423.882 261.599 423.354 268.296Z" fill="#F15F5C"/>
<path d="M419.831 190.053C419.831 190.053 431.985 192.343 433.394 202.741C434.803 213.138 436.917 221.949 434.803 234.109C432.689 246.268 425.468 262.481 413.666 265.124C401.689 267.767 389.359 248.03 389.359 237.281C389.359 226.531 384.956 208.556 393.058 197.454C401.337 186.528 419.831 190.053 419.831 190.053Z" fill="#F37575"/>
<path d="M406.092 246.268C412.433 249.088 421.945 249.088 421.945 249.088C421.945 249.088 421.24 250.321 420.183 251.731C417.365 251.555 411.905 251.026 407.501 249.44C406.621 247.678 406.092 246.268 406.092 246.268Z" fill="white"/>
<path d="M407.501 249.616C411.905 251.202 417.365 251.731 420.183 251.907C415.604 257.194 410.848 255.96 407.501 249.616Z" fill="#2C1229"/>
<path d="M419.831 190.053C419.831 190.053 431.985 192.343 433.394 202.741C434.627 212.257 436.564 220.187 435.331 230.76C433.394 229.35 430.576 228.117 426.701 226.883C415.956 223.359 405.035 206.97 403.45 194.634C403.45 184.061 419.831 190.053 419.831 190.053Z" fill="#F15F5C"/>
<path d="M420.007 239.219C419.655 235.871 419.479 232.523 419.479 229.174C420.183 233.404 420.36 236.576 420.712 239.571C418.95 240.1 416.837 240.981 414.195 240.1C416.132 240.453 418.07 239.924 420.007 239.219Z" fill="#252C64"/>
<path d="M413.49 228.822C412.962 226.883 411.2 225.121 409.087 224.416C405.035 223.359 402.746 229.174 399.927 228.998C401.865 230.055 405.035 226.707 407.149 225.826C408.382 225.297 409.439 225.65 410.496 226.178C411.553 226.883 412.433 227.764 413.49 228.822Z" fill="#252C64"/>
<path d="M406.268 227.06C406.268 228.293 407.149 229.174 408.206 229.174C409.263 229.174 410.143 228.117 410.143 227.06C410.143 225.826 409.263 224.945 408.206 224.945C407.149 224.945 406.268 226.002 406.268 227.06Z" fill="#252C64"/>
<path d="M422.297 230.055C423.002 228.117 424.763 226.355 427.053 225.826C431.104 224.945 433.218 230.76 436.036 230.936C434.099 231.818 431.104 228.293 428.99 227.412C427.757 226.883 426.877 227.236 425.644 227.588C424.235 228.293 423.178 229.174 422.297 230.055Z" fill="#252C64"/>
<path d="M429.519 228.646C429.519 229.879 428.638 230.76 427.405 230.76C426.348 230.76 425.468 229.703 425.644 228.469C425.644 227.236 426.524 226.355 427.757 226.355C428.814 226.531 429.519 227.588 429.519 228.646Z" fill="#252C64"/>
<path d="M414.899 219.658C415.252 219.306 411.905 215.957 407.678 215.429C403.45 215.076 399.047 219.658 399.047 219.658C399.047 219.658 405.212 215.957 407.854 217.191C410.32 218.248 412.433 221.068 414.899 219.658Z" fill="#252C64"/>
<path d="M409.263 236.752C408.734 238.338 405.74 238.867 402.746 237.809C399.751 236.752 397.638 234.637 398.166 233.051C398.694 231.465 401.689 230.936 404.683 231.994C407.677 233.051 409.791 235.166 409.263 236.752Z" fill="#F15F5C"/>
<path d="M433.922 235.871C434.098 237.457 432.161 238.867 429.519 239.395C426.877 239.748 424.411 238.867 424.235 237.457C424.058 235.871 425.996 234.461 428.638 233.932C431.28 233.58 433.746 234.461 433.922 235.871Z" fill="#F15F5C"/>
<path d="M374.211 453.155L361.177 459.323C361.177 459.323 346.381 475.712 343.211 504.612C339.864 533.513 379.143 547.611 379.143 547.611L456.468 542.148C456.468 542.148 485.003 463.728 437.621 454.212C392.001 445.225 374.211 453.155 374.211 453.155Z" fill="#0F1941"/>
<path d="M417.718 496.33C417.718 496.33 418.07 510.075 418.95 510.251C425.468 512.895 454.002 509.547 456.997 525.935C460.519 544.086 402.746 676.607 406.621 696.168C410.496 715.729 415.604 732.822 418.774 735.818C421.945 738.99 421.945 741.633 419.303 744.277C416.661 746.92 405.035 743.924 401.689 740.576C398.342 737.228 394.467 712.028 388.655 706.212C382.842 700.397 380.552 696.696 387.245 682.775C394.115 668.853 411.729 561.18 414.019 549.902C416.132 538.8 412.609 533.689 412.609 533.689L385.66 516.596L417.718 496.33Z" fill="#F04B4C"/>
<path d="M439.559 484.347C439.559 484.347 429.519 477.474 409.263 484.347C389.007 491.219 375.444 508.137 373.33 516.067C371.217 523.997 362.234 677.488 350.08 702.512C338.102 727.536 337.398 729.122 332.114 734.408C326.83 739.695 329.296 752.736 332.114 755.555C334.932 758.375 357.125 752.559 359.768 743.924C362.234 735.113 367.694 714.847 369.984 708.68C372.097 702.512 387.598 644.005 402.217 616.338C416.837 588.671 421.593 527.521 421.593 522.411C421.593 517.3 447.309 515.362 447.309 515.362C447.309 515.362 452.769 487.342 439.559 484.347Z" fill="#F37575"/>
<path d="M450.479 297.725C450.479 297.725 459.815 303.188 461.224 310.061C466.508 337.904 471.264 408.57 468.974 426.369C466.332 448.749 457.525 448.749 457.525 448.749L353.427 436.237L357.83 408.394C357.83 408.394 428.638 412.8 435.86 412.8C442.905 412.8 443.434 359.051 443.434 359.051L450.479 297.725Z" fill="#4E485C"/>
<path d="M356.421 298.078C356.421 298.078 331.761 297.902 326.301 329.446C320.841 361.166 324.187 448.925 335.637 448.925C347.086 448.925 410.32 412.271 419.127 412.271C416.837 411.742 415.075 409.804 414.547 407.513L411.553 390.595C411.553 390.595 362.41 391.124 353.603 399.935C353.603 399.935 362.938 365.572 362.938 353.06C362.762 340.372 371.569 298.078 356.421 298.078Z" fill="#9387B2"/>
<path d="M440.615 400.64C440.615 400.64 412.962 391.477 412.257 395.706C410.32 407.16 416.661 412.447 416.661 412.447C416.661 412.447 435.331 415.267 438.326 412.271C441.496 409.275 440.615 400.64 440.615 400.64Z" fill="#F37575"/>
<path d="M675.585 402.579L674.176 447.163C674.176 447.163 695.313 451.216 701.126 448.926C704.296 447.692 705.001 425.488 703.944 399.935C692.847 398.878 685.978 398.878 675.585 402.579Z" fill="#F15F5C"/>
<path d="M703.944 399.759C703.063 379.141 701.302 356.408 698.836 340.372C693.376 304.422 671.534 285.742 671.534 285.742L671.006 396.587L671.534 403.988C681.75 400.111 692.847 398.878 703.944 399.759Z" fill="#713C6A"/>
<path d="M592.976 287.857C592.976 302.483 595.442 374.911 599.846 398.173C604.249 421.435 569.373 461.614 569.373 481.175C569.373 500.735 594.738 529.107 594.738 529.107H679.813C679.813 529.107 706.058 481.527 696.546 459.147C687.035 436.766 674 453.507 680.517 421.435C687.034 389.362 687.739 345.658 684.04 314.995C680.341 284.509 663.96 275.169 635.602 275.169C607.42 275.345 592.976 273.406 592.976 287.857Z" fill="#470A3F"/>
<path d="M670.83 467.781C670.83 467.781 630.846 455.446 611.647 474.654C592.448 493.863 594.914 529.107 594.914 529.107H679.989C679.989 529.284 707.643 490.338 670.83 467.781Z" fill="#131031"/>
<path d="M653.216 493.334C647.227 478.707 640.71 476.064 635.25 476.064C625.386 476.064 609.709 481.527 602.84 498.797C595.618 517.124 568.14 628.321 563.208 648.94C559.686 663.566 552.992 673.787 545.771 682.07C530.623 704.803 535.026 719.429 545.242 730.355C545.242 731.765 556.163 734.585 568.493 700.397C571.311 692.819 572.544 688.061 575.714 671.496C579.237 655.108 659.204 507.961 653.216 493.334Z" fill="#F15F5C"/>
<path d="M567.26 704.098C563.209 706.565 553.521 712.557 549.646 712.557C545.947 712.557 540.663 701.454 538.549 696.168C532.913 711.675 537.492 723.13 545.418 731.589C547.004 733.351 555.635 734.408 567.26 704.098Z" fill="#492144"/>
<path d="M693.728 501.969C694.08 486.109 684.216 482.761 676.466 481.351C666.779 479.588 653.92 490.867 643.352 507.256C632.784 523.821 608.653 636.78 603.721 657.398C600.198 672.025 593.505 682.246 586.283 690.529C571.135 713.261 575.538 728.24 585.754 738.99C585.754 740.4 596.675 742.867 609.005 708.856C611.823 701.278 613.056 696.52 616.227 679.955C619.749 663.566 693.376 517.653 693.728 501.969Z" fill="#F37A7C"/>
<path d="M605.834 717.491C601.079 719.077 595.971 720.134 592.095 719.606C584.345 718.372 582.936 705.331 582.936 696.52C572.192 716.257 576.595 730.355 586.107 740.224C587.692 741.105 595.09 742.867 605.834 717.491Z" fill="#4B2947"/>
<path d="M646.17 404.87L665.369 440.467C665.546 440.819 665.369 441.172 665.193 441.172C664.841 441.348 664.665 441.172 664.489 440.995L644.057 406.103C643.704 405.574 643.88 404.693 644.585 404.341C645.113 403.988 645.818 404.341 646.17 404.87Z" fill="#9ACEDB"/>
<path d="M656.034 416.5C651.807 412.271 645.466 417.91 639.653 419.849C633.84 421.611 579.237 421.258 571.663 419.496C568.845 418.791 570.078 410.156 573.072 398.349C564.265 395.353 554.578 394.649 545.595 395.706C542.6 424.43 541.72 449.807 545.595 452.274C554.402 458.089 626.795 434.475 634.193 434.475C641.591 434.475 637.892 437.823 648.812 437.823C655.153 437.823 659.733 436.59 662.375 435.709C663.96 435.18 664.665 433.418 664.136 431.832C662.375 427.426 659.028 419.496 656.034 416.5Z" fill="#F37575"/>
<path d="M572.015 402.579C572.368 401.169 572.72 399.759 573.072 398.349C564.265 395.353 554.578 394.649 545.595 395.706C545.242 399.23 544.89 402.755 544.538 406.279C549.822 405.046 563.208 402.755 572.015 402.579Z" fill="#F15F5C"/>
<path d="M573.072 398.349C582.055 378.612 596.851 345.482 597.908 332.089C599.669 310.942 595.09 278.869 595.09 278.869C595.09 278.869 570.254 294.201 562.328 312C557.924 321.692 544.362 363.457 540.839 398.173C549.822 397.292 564.089 395.353 573.072 398.349Z" fill="#95518E"/>
<path d="M628.38 445.93H680.694C680.694 445.93 644.761 434.299 628.38 445.93Z" fill="#CFECF5"/>
<path d="M730.893 445.93H680.693C680.693 445.93 700.069 441.877 713.103 441.877C726.137 441.877 730.893 445.93 730.893 445.93Z" fill="#67B7E6"/>
<path d="M721.91 429.717C721.91 429.717 697.427 429.012 680.693 445.93C680.693 445.93 688.62 440.114 701.83 436.766C714.864 433.418 723.848 433.594 723.848 433.594L721.91 429.717Z" fill="#67B7E6"/>
<path d="M624.857 445.93H680.693L627.852 444.696L624.857 445.93Z" fill="#02485C"/>
<path d="M724.376 387.6C720.501 362.223 723.671 332.441 723.671 332.441C723.671 332.441 730.365 326.45 739.524 328.917C748.683 331.384 753.439 332.794 752.558 330.327C751.678 327.683 739.876 323.63 739.876 323.63C739.876 323.63 751.325 323.454 756.962 326.45C762.774 329.446 764.184 323.63 747.979 320.811C731.774 317.991 737.058 316.405 739.876 315.524C742.518 314.643 758.723 318.872 762.951 315.7C766.826 312.881 741.109 310.061 733.535 310.942C766.649 301.602 756.257 297.549 724.904 308.299C715.921 311.295 707.819 324.864 707.643 325.04C706.762 326.097 697.955 367.158 697.427 398.349C706.058 394.649 716.45 392.534 724.376 387.6Z" fill="#F15F5C"/>
<path d="M702.359 336.142C699.893 338.609 671.886 443.286 687.915 447.339C703.944 451.569 723.319 431.479 723.319 431.479L727.194 345.13L702.359 336.142Z" fill="#333B6A"/>
<path d="M924.118 331.032C927.465 323.63 941.204 321.692 945.607 320.282C950.011 318.872 954.062 310.061 957.056 309.18C960.051 308.299 959.17 318.167 954.59 320.634C950.187 323.278 955.823 326.979 959.346 327.155C962.869 327.155 975.375 326.274 978.193 319.753C981.011 313.233 986.472 309.356 987.176 311.647C987.881 313.938 980.483 323.807 980.483 323.807C980.483 323.807 992.46 312.881 993.165 315.7C994.046 318.344 983.125 326.274 983.125 326.274C983.125 326.274 990.523 322.925 992.636 324.159C994.75 325.393 975.199 337.552 971.324 338.786C967.449 340.019 952.301 339.138 944.727 338.433C941.556 338.081 939.971 353.588 934.687 373.854C931.868 368.92 918.482 364.69 914.607 360.637C920.948 346.363 922.709 334.027 924.118 331.032Z" fill="#F37575"/>
<path d="M914.959 345.835L890.299 449.454C890.299 449.454 913.374 452.802 923.061 449.454C932.749 446.106 944.903 377.379 944.903 347.421L914.959 345.835Z" fill="#333B6A"/>
<path d="M1105.72 537.037L1054.46 546.906L1021.7 533.865L1054.46 500.207L1105.72 537.037Z" fill="#47415C"/>
<path d="M1130.2 306.713C1130.2 306.713 1121.92 311.823 1111.88 336.142C1101.84 360.461 1101.84 411.037 1092.16 415.619C1083.52 419.672 1014.83 428.131 997.745 430.07C995.279 430.422 993.165 431.656 991.932 433.77L983.125 447.868L1029.27 449.454C1029.27 449.454 1081.76 475.535 1095.15 466.724C1108.54 457.737 1147.46 383.899 1152.57 362.223C1157.5 340.372 1130.2 306.713 1130.2 306.713Z" fill="#61567B"/>
<path d="M1029.27 408.57C1027.16 408.57 1005.32 403.46 1005.32 403.46L1000.21 426.016L1022.76 435.533L1029.27 408.57Z" fill="#C5E8F0"/>
<path d="M985.591 712.38C985.591 712.38 977.841 735.642 956.528 741.457C948.425 743.572 911.612 761.899 918.482 761.899C921.124 761.899 997.568 762.075 997.568 762.075C997.568 762.075 1003.2 752.031 1001.09 742.867C998.977 733.703 1009.37 712.38 1009.37 712.38H985.591V712.38Z" fill="#61567B"/>
<path d="M136.423 177.012C136.423 177.012 142.764 215.429 163.02 241.334C178.168 260.718 209.697 282.218 209.697 282.218L191.907 301.778L142.588 261.071L136.423 177.012Z" fill="#363A68"/>
<path d="M109.474 141.062H70.0184L71.2514 270.939L123.741 274.464L109.474 141.062Z" fill="#271010"/>
<path d="M153.685 763.838C175.878 763.838 175.35 773.001 175.35 773.001H110.178C110.178 773.001 113.349 744.806 113.877 738.285H129.201C130.963 746.392 136.599 763.838 153.685 763.838Z" fill="#271010"/>
<path d="M44.8305 767.186C65.0865 767.186 69.3138 742.691 69.8423 738.285H84.4618C84.4618 739.519 84.4618 740.224 84.4618 740.4C84.4618 743.396 88.3369 776.35 88.3369 776.35C88.3369 776.35 72.1321 776.35 61.2114 776.35C50.2908 776.35 23.1653 776.35 23.1653 776.35C23.1653 776.35 22.6369 767.186 44.8305 767.186Z" fill="#271010"/>
<path d="M50.643 590.257L29.8586 414.386L35.6712 362.4H150.162L151.042 408.218L163.02 586.909C163.02 586.909 133.076 735.818 133.605 738.285H111.94C111.94 737.756 118.104 575.102 118.104 575.102L93.4449 430.246L83.7572 582.327C83.7572 582.327 88.1607 719.429 88.1607 738.285H67.7285C68.0808 737.756 50.643 590.257 50.643 590.257Z" fill="#2F1E55"/>
<path d="M34.9666 369.096L35.6712 362.223H150.162L150.338 368.215L126.383 376.321C106.831 383.018 85.8709 383.546 66.1433 377.907L34.9666 369.096Z" fill="#101010"/>
<path d="M27.745 175.602C40.2509 161.68 68.9616 139.3 100.667 144.763L133.781 159.566L143.469 231.289L152.275 367.686L33.9098 369.096L22.6369 236.223C22.9892 236.047 15.4152 189.524 27.745 175.602Z" fill="#F1AA7F"/>
<path d="M104.894 112.514C104.894 112.514 105.246 140.534 107.888 154.808C108.945 160.271 106.479 165.91 101.724 168.025C98.2007 169.434 93.6211 170.315 87.9846 169.258C73.0128 166.439 72.6605 149.697 72.6605 149.697L77.7686 98.5923L104.894 112.514Z" fill="#F37575"/>
<path d="M77.5923 98.5923L104.894 112.514C104.894 112.514 105.07 122.911 105.775 134.19C98.7291 134.542 89.746 130.489 80.2344 118.329C78.8253 116.567 77.5924 114.805 76.3594 112.866L77.5923 98.5923Z" fill="#F15F5C"/>
<path d="M103.133 40.7908C103.133 40.7908 112.468 48.7209 116.519 62.1139C120.57 75.5069 124.093 85.023 124.093 85.023L119.866 87.8426C119.866 87.8426 123.212 106.522 120.57 112.866C116.519 122.559 99.4336 130.313 80.2344 108.637C60.8591 86.9615 59.2738 67.7531 62.6205 58.4132C65.791 48.8971 95.5586 35.8565 103.133 40.7908Z" fill="#F37575"/>
<path d="M74.0696 61.409C74.0696 61.409 82.7005 53.4789 95.0302 56.8272C107.36 60.1755 111.587 55.0649 109.121 52.2454C109.121 52.2454 120.042 52.5978 124.093 42.553C128.144 32.6845 127.088 2.55022 107.888 8.18939C88.6892 13.8286 92.5643 27.3978 92.5643 27.3978C92.5643 27.3978 86.3994 20.8775 80.5868 24.2258C74.7742 27.574 75.4788 32.5083 75.4788 32.5083C75.4788 32.5083 70.1946 43.6104 62.7967 45.0202C55.3989 46.43 56.2796 62.8188 56.2796 62.8188C56.2796 62.8188 52.0522 66.1671 55.0466 78.1503C58.041 90.1335 75.831 108.461 75.831 114.276C75.831 114.276 80.2345 106.875 76.7117 95.244C73.1889 83.6132 73.1889 76.7405 76.8879 76.7405C80.9391 77.0929 74.0696 61.409 74.0696 61.409Z" fill="#131840"/>
<path d="M79.5299 84.8468C79.5299 84.8468 78.2969 74.9782 75.4787 74.9782C72.6605 74.9782 70.1945 76.0356 70.8991 81.4985C71.6036 86.9615 74.4219 93.1293 77.9446 90.6622C81.6436 88.195 79.5299 84.8468 79.5299 84.8468Z" fill="#F37575"/>
<path d="M47.1203 62.2901C47.2964 61.409 48.001 60.5279 48.8817 60.1754C51.5238 58.9418 54.8704 61.5852 57.1602 63.3475L57.5125 62.8188C55.9273 61.0565 54.342 59.2943 52.0522 58.2369C48.7055 56.6509 45.7112 58.2369 44.4782 61.2328L47.1203 62.2901Z" fill="#131840"/>
<path d="M46.9441 74.9782C46.768 73.5684 46.768 71.9824 46.9441 70.3964C48.5294 62.995 56.6318 63.6999 56.9841 63.5237V62.995C56.8079 63.1712 45.535 60.7041 43.7736 72.5111C43.5975 73.5684 43.5975 74.4496 43.5975 75.6831L46.9441 74.9782Z" fill="#131840"/>
<path d="M105.246 70.2202C105.246 72.6873 106.127 74.6258 107.36 74.6258C108.593 74.6258 109.474 72.6873 109.474 70.2202C109.474 67.7531 108.593 65.8146 107.36 65.8146C106.303 65.9908 105.246 67.9293 105.246 70.2202Z" fill="#304B9E"/>
<path d="M100.49 65.9908C105.246 61.7614 110.178 64.4048 110.354 64.581L111.235 61.409C111.059 61.2328 105.599 58.237 100.314 63.1712L100.49 65.9908Z" fill="#304B9E"/>
<path d="M113.349 145.996L122.156 410.861H177.111L160.906 290.5L150.338 217.367C150.338 217.367 145.23 168.201 133.957 159.39C122.86 150.578 113.349 145.996 113.349 145.996Z" fill="#565EA4"/>
<path d="M77.7685 80.7936C77.7685 80.7936 76.1832 77.4454 74.7741 77.974C73.365 78.5027 73.0127 85.023 75.4787 87.8426C77.9446 90.6621 80.0583 86.0803 77.7685 80.7936Z" fill="#F15F5C"/>
<path d="M69.3138 144.587L75.1264 410.861H16.2959C16.2959 410.861 14.0061 199.745 20.5232 177.717C27.2165 155.689 69.3138 144.587 69.3138 144.587Z" fill="#565EA4"/>
<path d="M134.662 155.865L109.474 141.062L117.576 272.702L131.491 197.983L126.559 194.634L134.662 155.865Z" fill="#787EB5"/>
<path d="M72.132 271.468L70.0184 141.062L47.4725 151.283L59.6262 194.458L56.6318 196.925L72.132 271.468Z" fill="#787EB5"/>
<path d="M175.526 310.237L256.902 247.854L170.594 239.748L105.422 310.237H175.526Z" fill="#1E3440"/>
<path d="M130.082 283.627C130.082 283.627 121.275 285.566 117.928 289.267C113.701 293.848 103.837 301.25 99.6098 301.25C95.3824 301.25 77.7685 303.012 77.7685 303.012L74.7741 322.925C74.7741 322.925 141.003 307.418 144.173 304.069C147.344 300.721 128.673 306.536 128.673 305.127C128.673 303.541 151.042 301.955 149.986 298.078C148.753 294.201 129.201 303.188 127.616 301.426C125.855 299.488 151.219 296.315 151.219 292.262C151.219 288.209 126.031 298.078 126.031 298.078C126.031 298.078 125.502 295.963 132.372 292.791C139.241 289.443 145.758 286.799 144.349 285.213C142.764 283.627 125.326 294.025 123.036 291.557L130.082 283.627Z" fill="#F37575"/>
<path d="M36.9042 172.606C36.9042 172.606 46.5918 190.581 44.6543 216.486C42.7168 242.391 39.3701 282.041 44.8304 295.082C50.2908 308.123 89.746 295.082 89.746 295.082V325.745C89.746 325.745 32.5007 349.535 15.9436 341.781C-0.613522 334.027 0.971732 267.062 0.971732 234.285C0.795592 201.331 26.3358 148.992 36.9042 172.606Z" fill="#787EB5"/>
<path d="M36.9041 172.606C41.6599 183.004 44.8304 198.511 43.7736 214.548C42.0122 238.69 36.3757 291.029 46.5918 298.959C56.4556 305.127 78.8253 298.959 89.5698 295.082C79.1776 297.902 49.41 304.951 45.5349 294.553C42.1883 286.271 42.7167 266.357 43.069 257.546C44.302 219.306 48.8816 205.736 40.9553 182.475C39.8985 178.95 38.4894 175.602 36.9041 172.606Z" fill="#EFF1F9"/>
<path d="M115.991 103.174L115.286 107.932C105.775 106.875 101.019 98.5923 101.019 98.5923C106.655 104.408 115.991 103.174 115.991 103.174Z" fill="#2B3378"/>
<path d="M199.481 282.923C199.481 282.923 200.714 284.332 202.475 288.738C204.237 292.967 199.305 297.373 198.424 298.254C196.663 300.016 193.316 302.483 191.202 303.541C189.089 304.774 187.856 305.303 185.918 305.832C182.924 306.537 176.407 295.963 177.463 294.906C177.992 294.201 178.872 293.672 179.401 293.848C180.105 294.025 187.327 299.84 187.327 299.84C187.327 299.84 180.81 291.557 181.515 289.09C182.219 286.623 183.628 286.976 184.157 287.504C184.685 288.209 192.964 295.963 192.964 295.963C192.964 295.963 187.327 285.918 187.856 284.332C188.384 282.746 190.674 281.513 193.14 285.566C194.549 287.857 198.424 291.557 198.424 291.557C198.424 291.557 195.253 283.98 195.958 281.689C196.663 279.222 199.481 282.923 199.481 282.923Z" fill="#F37575"/>
<path d="M822.133 742.515C822.133 742.515 822.31 743.572 822.838 745.158C824.423 749.916 828.65 759.432 838.514 761.899C851.549 765.071 861.941 761.547 864.407 764.014C866.697 766.305 867.577 773.706 867.577 773.706L788.843 777.407L793.423 745.158L822.133 742.515Z" fill="#3F3215"/>
<path d="M758.019 548.668L788.315 752.912L828.65 746.392L822.133 547.258L758.019 548.668Z" fill="#3F3215"/>
<path d="M784.263 735.466C784.263 735.466 774.223 743.924 774.223 752.912L739.7 778.464H727.37C727.37 778.464 752.911 746.568 758.019 738.638C763.127 730.708 763.303 722.778 763.303 722.778L784.263 735.466Z" fill="#4D3E66"/>
<path d="M893.646 544.086C882.373 510.251 851.549 525.935 851.549 525.935C832.349 529.636 803.639 596.073 799.587 616.867C796.769 631.846 768.235 699.868 752.734 736.699C763.479 730.884 777.922 734.232 784.087 744.453C817.025 689.824 897.169 555.189 893.646 544.086Z" fill="#554218"/>
<path d="M761.541 740.752C761.541 740.752 771.053 743.572 774.047 749.74C777.042 756.084 761.541 768.243 761.541 773.706C761.541 779.169 765.593 783.927 761.541 786.042C757.49 788.157 723.848 788.509 725.785 781.636C727.546 774.94 740.757 767.362 746.217 758.903C751.501 750.621 756.257 738.461 761.541 740.752Z" fill="#322944"/>
<path d="M856.128 537.037C856.128 537.037 906.856 522.411 890.299 556.951C887.129 563.647 741.109 573.692 741.109 561.533C741.109 549.373 750.445 537.037 750.445 537.037H856.128V537.037Z" fill="#3F3215"/>
<path d="M744.28 317.815C744.28 317.815 761.542 310.766 782.326 309.004C793.775 307.946 805.224 311.647 818.082 311.647C854.367 311.647 889.419 321.339 893.294 338.962C897.169 356.76 849.259 529.107 860.18 540.033C871.1 550.959 763.831 557.832 750.445 544.439C737.058 531.046 705.001 333.146 744.28 317.815Z" fill="#121443"/>
<path d="M793.247 276.226L782.326 312.881C782.326 312.881 810.86 324.159 829.884 312.881L823.895 272.173L793.247 276.226Z" fill="#F26D75"/>
<path d="M744.28 317.815C744.28 317.815 713.808 358.875 707.114 378.436C700.597 397.997 682.631 431.303 684.216 440.114C685.802 448.749 696.37 457.384 714.16 453.155C731.95 448.926 730.717 431.656 730.717 431.656L744.28 317.815Z" fill="#121443"/>
<path d="M892.413 336.142C892.413 336.142 930.811 441.877 923.237 449.454C915.663 457.032 890.475 449.454 890.475 449.454L862.822 395.353L892.413 336.142Z" fill="#121443"/>
<path d="M1123.33 186.176C1123.33 186.176 1109.06 204.855 1106.95 217.72C1104.66 230.76 1102.02 251.731 1102.02 251.731H1107.83C1107.83 251.731 1112.59 263.362 1112.59 271.116C1112.59 278.869 1124.92 273.935 1131.96 273.935C1139.01 273.935 1154.86 267.767 1161.03 245.563C1167.19 223.183 1178.46 183.532 1123.33 186.176Z" fill="#F37575"/>
<path d="M1140.06 292.086L1131.43 298.43L1128.44 310.237L1140.77 304.598L1140.06 292.086Z" fill="#98B1BF"/>
<path d="M1154.68 245.211L1176.35 294.906C1176.35 294.906 1134.96 308.651 1137.07 306.537C1139.18 304.422 1134.43 267.767 1134.43 267.767L1154.68 245.211Z" fill="#F37575"/>
<path d="M1103.96 172.606C1103.25 173.664 1092.15 196.573 1111.35 205.208C1130.73 213.843 1135.49 201.331 1140.59 209.085C1145.7 216.839 1136.19 229.35 1140.24 236.399L1146.76 237.633C1146.76 237.633 1147.99 233.756 1150.63 233.756C1153.28 233.756 1153.98 253.317 1158.03 253.317C1162.26 253.317 1170.18 236.752 1174.06 228.998C1177.93 221.244 1186.04 195.163 1171.24 188.29C1156.45 181.594 1149.93 186.704 1149.93 180.184C1149.93 173.664 1143.41 180.536 1143.41 180.536C1143.41 180.536 1139.89 175.778 1142.18 170.139C1144.47 164.676 1126.33 162.738 1122.1 173.664C1118.22 184.766 1111.18 160.623 1103.96 172.606Z" fill="#332871"/>
<path d="M1185.51 616.867H1166.84V754.85H1185.51V616.867Z" fill="#57595F"/>
<path d="M1188.33 756.084H1164.2V735.289V718.372H1188.33V756.084Z" fill="#0D2226"/>
<path d="M1074.89 780.931L1164.2 735.289V756.084L1100.26 780.931V785.513H1074.89V780.931Z" fill="#0D2226"/>
<path d="M1277.63 780.931L1188.33 735.289V756.084L1252.27 780.931V785.513H1277.63V780.931Z" fill="#0D2226"/>
<path d="M1168.07 735.289V785.513H1162.08V789.214H1188.33V785.513H1182.87L1184.63 735.289H1168.07Z" fill="#0D2226"/>
<path d="M1188.15 587.614H1164.2V635.899H1188.15V587.614Z" fill="#303030"/>
<path d="M920.067 624.797C920.067 624.797 902.629 642.243 896.817 648.059C891.004 653.874 858.594 656.87 864.935 663.39C871.452 669.91 888.01 678.193 895.584 678.193C903.158 678.193 932.221 671.673 932.221 671.673C932.221 671.673 935.567 642.596 939.442 638.542L920.067 624.797Z" fill="#47415C"/>
<path d="M1022.58 474.83C997.92 474.83 911.436 616.691 911.436 616.691L920.067 624.621L943.317 641.891C947.192 638.014 1037.73 525.759 1037.73 525.759C1037.73 525.759 1072.78 540.033 1099.73 540.033C1126.68 540.033 1158.91 484.346 1158.91 484.346C1155.74 481.527 1047.42 474.83 1022.58 474.83Z" fill="#61567B"/>
<path d="M1201.71 473.597C1201.71 473.068 1201.89 472.54 1201.89 472.011C1203.65 450.864 1209.46 283.627 1179.87 283.627C1179.87 283.627 1145.88 289.795 1124.21 317.286C1120.51 321.868 1119.99 326.097 1118.22 332.441C1107.48 374.559 1100.26 452.802 1101.31 482.408C1134.78 495.801 1171.95 494.92 1201.71 473.597Z" fill="#C5E8F0"/>
<path d="M1168.6 269.53C1165.61 269.53 1136.01 298.254 1136.01 298.254L1133.37 314.819L1179.87 293.144L1168.6 269.53Z" fill="#CBEAFB"/>
<path d="M1135.66 300.016L1128.44 303.012L1120.87 318.872L1125.09 317.462L1133.9 310.942L1135.66 300.016Z" fill="#BC4599"/>
<path d="M1125.09 317.462C1125.09 317.462 1107.48 406.808 1103.43 485.228L1091.98 495.449C1091.98 495.449 1093.39 483.113 1093.39 465.314C1093.39 447.516 1111.88 331.737 1120.69 318.872L1125.09 317.462Z" fill="#753064"/>
<path d="M1179.87 283.804C1179.87 283.804 1171.07 285.39 1159.44 290.676C1156.27 303.893 1137.95 334.204 1129.85 366.629C1123.86 390.948 1109.59 422.492 1107.3 442.581C1105.37 459.851 1102.02 474.83 1100.96 485.051C1098.14 509.547 1087.05 551.312 1087.05 551.312L1192.73 536.861C1192.73 536.861 1199.95 493.158 1201.89 472.011C1203.65 451.04 1209.46 283.804 1179.87 283.804Z" fill="#7F72A4"/>
<path d="M1166.31 515.01L1145.7 512.719C1137.78 511.837 1131.96 504.612 1133.02 496.682L1137.6 456.856L1186.92 462.495L1182.34 502.321C1181.46 510.075 1174.24 515.891 1166.31 515.01Z" fill="#9387B2"/>
<path d="M1165.08 279.398L1136.89 303.365L1108.54 440.467C1108.54 440.467 1140.95 383.546 1140.24 377.731C1139.36 371.916 1134.43 366.629 1134.43 366.629C1134.43 366.629 1165.08 289.443 1165.08 279.398Z" fill="#AA9FC2"/>
<path d="M1174.59 272.702L1165.08 279.398L1161.38 293.496L1183.92 284.861L1174.59 272.702Z" fill="#AA9FC2"/>
<path d="M1188.5 589.2H1159.97C1155.39 589.2 1151.69 585.499 1151.69 580.917V556.07H1196.61V580.917C1196.78 585.499 1193.08 589.2 1188.5 589.2Z" fill="#303030"/>
<path d="M1212.11 452.802C1212.11 452.802 1108.36 452.098 1105.01 459.323C1101.67 466.548 1106.6 551.312 1106.6 551.312L1118.93 549.021C1118.93 549.021 1113.82 477.121 1121.39 469.368C1128.97 461.79 1212.99 473.244 1214.04 472.187C1215.28 471.482 1212.11 452.802 1212.11 452.802Z" fill="#21130B"/>
<path d="M1103.6 457.208C1098.14 463.023 1104.66 525.935 1105.72 533.865C1106.42 498.268 1105.37 468.486 1107.13 460.556C1112.94 457.032 1156.09 455.622 1191.32 452.802C1179.34 452.098 1111.88 449.63 1103.6 457.208ZM1107.13 460.556C1107.13 460.556 1107.13 460.38 1107.13 460.556C1107.13 460.38 1107.13 460.38 1107.13 460.556Z" fill="#AA9FC2"/>
<path d="M1260.02 556.775H1075.42C1075.42 545.849 1084.23 536.861 1095.33 536.861H1260.02V556.775Z" fill="#0E6A80"/>
<path d="M1242.58 324.159C1242.58 324.159 1198.9 345.13 1198.9 414.562C1198.9 484.17 1224.26 536.861 1224.26 536.861H1259.84C1259.84 536.861 1214.04 438.881 1235.18 397.116C1256.32 355.351 1291.9 332.089 1242.58 324.159Z" fill="#0E6A80"/>
<path d="M1235.36 397.292C1255.44 357.465 1288.9 334.38 1248.74 325.393C1278.33 335.437 1247.69 357.994 1228.84 395.53C1207.7 437.295 1253.5 535.275 1253.5 535.275V555.189H1075.42C1075.42 555.717 1075.42 556.422 1075.42 556.951H1260.02V537.037C1260.02 537.037 1214.22 439.057 1235.36 397.292Z" fill="#0E5060"/>
<path d="M1170.01 297.197C1156.8 300.369 1141.12 310.061 1132.49 336.142C1123.86 362.4 1115.05 398.702 1103.43 404.165C1091.8 409.451 1016.24 403.46 1016.24 403.46L1014.3 437.471C1014.3 437.471 1096.91 461.79 1118.93 459.323C1141.12 456.856 1179.87 378.26 1191.67 349.888C1214.4 295.082 1183.92 293.848 1170.01 297.197Z" fill="#9387B2"/>
<path d="M1170.01 297.197C1132.84 308.651 1134.43 347.421 1118.05 387.247C1115.41 393.415 1110.47 403.988 1104.13 406.279C1102.72 406.279 1094.8 413.328 1016.06 403.46C1042.48 403.988 1096.38 405.927 1103.25 401.345C1113.82 394.12 1122.98 355.527 1131.08 333.675C1134.43 325.04 1139.01 316.581 1145.7 309.885C1152.39 303.365 1161.03 298.783 1170.01 297.197Z" fill="#D2C4E1"/>
<path d="M1052.7 565.057C1042.66 613.166 1011.48 725.421 1011.48 725.421L973.613 714.495C973.613 714.495 997.392 534.394 1016.42 515.186C1035.61 496.154 1062.56 516.948 1052.7 565.057Z" fill="#7F72A4"/>
<path d="M998.273 433.594C998.273 433.594 1008.66 432.008 1014.13 437.471C1019.59 442.934 1021.7 449.278 1021.7 449.278L982.948 448.044C983.125 448.044 989.113 433.242 998.273 433.594Z" fill="#323C3D"/>
<path d="M983.125 448.044C983.125 448.044 989.114 433.242 998.449 433.594C998.449 433.594 1008.84 432.008 1014.3 437.471C1015.18 438.352 1016.06 439.409 1016.94 440.291C1016.06 438.705 1014.83 436.942 1013.42 435.356C1007.96 428.836 1001.09 430.422 997.568 430.774C988.409 431.656 982.244 448.221 982.244 448.221L983.125 448.044Z" fill="#C5E8F0"/>
<path d="M997.921 433.594C997.921 433.594 992.636 433.065 990.699 435.004C988.761 436.942 987.528 438.176 987 438.881C986.472 439.409 986.824 446.987 995.631 448.925C1004.44 450.864 1002.85 446.635 1005.32 447.692C1007.78 448.749 1010.6 450.335 1012.01 449.102C1013.24 447.868 1015.01 450.864 1016.77 449.102C1018.53 447.339 1013.6 436.061 1010.78 433.418C1007.96 430.598 1005.85 431.656 1003.56 431.656C1001.09 431.656 997.921 433.594 997.921 433.594Z" fill="#F37575"/>
<path d="M1025.93 466.548H1015.71V767.01H1025.93V466.548Z" fill="#753064"/>
<path d="M223.084 464.786H212.867V765.247H223.084V464.786Z" fill="#753064"/>
<path d="M318.023 457.208H307.807V757.67H318.023V457.208Z" fill="#753064"/>
<path d="M1061.51 445.93H183.804V466.724H1061.51V445.93Z" fill="url(#paint2_linear)"/>
<path d="M843.798 567.7H728.603L696.898 395.177C691.262 364.162 718.387 336.142 753.967 336.142H818.258C853.838 336.142 856.657 377.731 854.895 411.214L850.14 479.412L843.798 567.7Z" fill="#0189A9"/>
<path d="M708.876 409.98C703.239 378.965 730.365 350.945 765.945 350.945H830.236C837.81 350.945 843.799 352.707 848.554 356.055C843.27 344.248 833.935 336.142 818.258 336.142H753.968C718.387 336.142 691.086 364.338 696.898 395.177L728.603 567.7H737.763L708.876 409.98Z" fill="#349CB5"/>
<path d="M812.093 596.072H793.423V776.702H812.093V596.072Z" fill="#676E9E"/>
<path d="M814.912 778.288H790.781V754.498V735.289H814.912V778.288Z" fill="#371C45"/>
<path d="M701.478 806.66L790.781 754.498V778.288L726.666 806.66V811.947H701.478V806.66Z" fill="#371C45"/>
<path d="M904.038 806.66L814.912 754.498V778.288L878.85 806.66V811.947H904.038V806.66Z" fill="#371C45"/>
<path d="M794.656 754.498V811.947H788.667V816H814.912V811.947H809.275L811.037 754.498H794.656Z" fill="#371C45"/>
<path d="M814.736 580.212H790.605V598.54H814.736V580.212Z" fill="#303030"/>
<path d="M906.68 580.212H698.836C698.836 567.348 709.228 556.951 722.086 556.951H883.43C896.288 556.775 906.68 567.348 906.68 580.212Z" fill="#034655"/>
<path d="M780.917 300.721C780.917 300.721 814.383 313.938 829.883 301.779L834.463 312.528C834.463 312.528 829.179 321.868 807.69 323.454C786.201 325.04 775.633 309.885 775.633 309.885L780.917 300.721Z" fill="#333B6A"/>
<path d="M785.496 248.559C785.496 248.559 777.746 242.743 777.746 246.973C777.746 251.202 776.866 266.534 784.087 262.304C791.309 258.075 785.496 248.559 785.496 248.559Z" fill="#F26D75"/>
<path d="M794.303 206.089C794.303 206.089 779.86 201.331 775.809 216.134C771.757 230.936 782.502 246.092 782.502 253.493C782.502 260.895 786.377 269.353 793.423 276.226C800.292 283.099 816.497 290.324 816.497 290.324C816.497 290.324 834.463 279.222 840.628 266.886C846.793 254.55 843.094 246.444 845.56 227.941C848.026 209.437 835.344 203.446 830.06 203.446C824.599 203.446 806.105 183.356 794.303 206.089Z" fill="#1D1753"/>
<path d="M911.436 495.449L850.14 476.945L849.083 492.982L890.299 502.145L880.259 557.656L891.885 558.537L911.436 495.449Z" fill="#21130B"/>
<path d="M657.091 280.455C657.091 276.05 653.568 274.64 649.165 273.583C634.193 270.234 615.17 269.706 616.403 274.816C618.164 281.513 632.608 290.853 642.295 290.853C651.983 290.853 656.562 282.923 656.562 282.923L657.091 280.455Z" fill="#4B2947"/>
<path d="M646.17 259.485L649.341 295.434C649.341 295.434 636.306 301.955 620.102 294.377L626.619 235.518L646.17 259.485Z" fill="#F37575"/>
<path d="M646.17 259.485L647.579 274.992C646.17 274.992 644.585 274.464 643 273.759C630.494 267.062 628.732 248.559 628.38 237.985L646.17 259.485Z" fill="#F15F5C"/>
<path d="M668.716 197.63C668.716 197.63 674.529 202.212 675.762 210.318C676.995 218.425 671.71 227.588 671.71 234.461C671.71 241.334 659.028 273.935 643.176 266.181C627.323 258.427 628.556 233.58 628.556 228.117C628.556 222.654 636.306 203.269 645.642 198.864C654.977 194.282 668.716 197.63 668.716 197.63Z" fill="#F37575"/>
<path d="M661.142 229.703C661.142 229.703 660.614 225.826 658.148 223.006C655.858 220.187 649.341 219.834 649.341 219.834C649.341 219.834 655.505 221.244 656.915 223.183C658.324 225.121 659.028 227.941 659.028 227.941L661.142 229.703Z" fill="#501F5E"/>
<path d="M664.665 232.346C664.665 232.346 667.131 230.055 669.773 229.527C672.415 229.174 674.705 232.699 674.705 232.699C674.705 232.699 671.887 230.232 670.125 230.584C668.364 230.936 666.426 232.523 666.426 232.523L664.665 232.346Z" fill="#501F5E"/>
<path d="M645.466 251.202C650.221 253.141 652.511 255.255 658.676 254.903C653.92 256.665 648.284 254.727 645.466 251.202Z" fill="white"/>
<path d="M654.625 231.994C654.096 233.58 652.863 234.461 651.807 234.285C650.75 233.932 650.221 232.522 650.574 230.936C651.102 229.35 652.335 228.469 653.392 228.646C654.625 228.822 655.153 230.408 654.625 231.994Z" fill="#501F5E"/>
<path d="M645.466 230.232C655.153 224.945 656.21 231.289 658.5 232.523C656.562 231.994 654.977 229.174 652.511 229.174C650.574 228.998 647.579 229.703 645.466 230.232Z" fill="#42124A"/>
<path d="M669.421 239.043C668.892 240.276 667.835 240.981 666.955 240.453C666.074 240.1 665.898 238.867 666.426 237.633C666.955 236.399 668.011 235.695 668.716 236.223C669.773 236.576 669.949 237.809 669.421 239.043Z" fill="#501F5E"/>
<path d="M663.079 238.514C669.949 231.994 672.063 237.985 674.176 238.867C672.415 238.69 670.654 236.223 668.716 236.399C667.131 236.399 664.665 237.633 663.079 238.514Z" fill="#42124A"/>
<path d="M649.165 237.457C648.46 239.571 645.818 240.629 643 239.748C640.181 238.867 638.42 236.576 638.948 234.461C639.653 232.346 642.295 231.289 645.113 232.17C647.932 233.051 649.693 235.342 649.165 237.457Z" fill="#F15F5C"/>
<path d="M664.136 235.342C662.551 239.043 660.966 243.801 659.733 247.854C658.324 247.854 656.562 247.502 655.153 246.444C656.914 248.559 660.085 248.383 660.261 248.559C661.318 245.387 662.903 241.157 664.136 235.342Z" fill="#501F5E"/>
<path opacity="0.53" d="M668.716 197.63C668.716 197.63 674.529 202.212 675.762 210.318C676.995 218.425 678.404 233.227 671.71 234.461C667.835 235.166 654.273 212.785 658.148 196.573C663.784 196.397 668.716 197.63 668.716 197.63Z" fill="#F15F5C"/>
<path d="M616.579 274.992L612.704 292.615C617.283 299.664 640.534 336.142 646.522 346.011C650.397 352.179 654.625 310.942 657.091 280.632C640.181 285.918 630.67 288.562 616.579 274.992Z" fill="#95518E"/>
<path d="M1145.17 226.707C1145.17 226.707 1144.82 239.395 1147.99 239.395C1150.99 239.395 1157.86 232.17 1156.62 224.592C1155.57 217.015 1146.58 217.896 1145.17 226.707Z" fill="#F37575"/>
<path d="M1147.46 225.474C1147.46 225.474 1145.88 230.584 1148.17 232.875C1150.46 235.166 1154.86 229.703 1152.39 225.474C1149.93 221.244 1147.82 222.478 1147.46 225.474Z" fill="#F15F5C"/>
<path d="M1114 221.949L1113.47 224.945C1113.47 224.945 1118.93 224.24 1121.75 227.236C1124.74 230.232 1125.09 230.584 1125.09 230.584C1125.09 230.584 1123.51 223.535 1114 221.949Z" fill="#332871"/>
<path d="M1119.81 231.289C1119.81 232.875 1118.75 234.108 1117.52 234.108C1116.29 234.108 1115.23 232.875 1115.23 231.289C1115.23 229.703 1116.29 228.469 1117.52 228.469C1118.75 228.469 1119.81 229.879 1119.81 231.289Z" fill="#332871"/>
<path d="M1112.23 265.653C1112.23 265.653 1111.18 270.587 1111.18 273.583C1111.18 276.402 1118.4 279.574 1124.74 277.812C1131.26 276.05 1140.06 271.644 1142.35 269.53C1144.47 267.415 1146.23 237.633 1146.23 237.633L1140.42 236.576C1140.42 236.576 1137.6 255.96 1135.13 258.427C1132.84 260.542 1112.23 265.653 1112.23 265.653Z" fill="#332871"/>
<path d="M1115.23 259.837C1116.99 259.837 1118.93 259.485 1120.34 258.604C1121.04 258.075 1121.57 257.546 1122.1 256.841C1122.45 256.137 1122.63 255.255 1122.8 254.55V254.374C1122.8 253.846 1123.33 253.493 1123.86 253.493C1124.39 253.493 1124.74 254.022 1124.74 254.55V254.727C1124.39 255.784 1124.04 256.665 1123.33 257.546C1122.63 258.427 1121.75 258.956 1120.87 259.309C1118.93 260.013 1116.99 260.013 1115.23 259.837Z" fill="#332871"/>
<path d="M1095.5 195.868C1095.33 196.925 1096.38 198.864 1097.09 199.569C1100.43 203.974 1107.13 204.679 1111.53 205.208C1111 205.208 1105.01 206.441 1100.08 205.032C1094.8 203.622 1091.63 200.097 1090.57 196.573L1095.5 195.868Z" fill="#332871"/>
<path d="M341.273 745.687C338.631 745.687 336.693 735.642 335.813 730.179C334.756 731.589 333.523 732.822 332.114 734.232C326.83 739.519 329.296 752.559 332.114 755.379C334.932 758.199 357.126 752.383 359.768 743.748C360.12 742.515 360.472 741.105 361.001 739.343C355.364 741.457 344.091 745.687 341.273 745.687Z" fill="#322655"/>
<path d="M388.302 679.779C388.302 679.779 380.2 693.172 380.2 699.516C380.2 705.86 384.251 741.281 384.251 741.281L389.711 741.457C389.711 741.457 385.836 717.138 389.183 716.257C392.529 715.376 398.166 748.506 398.166 748.506L425.996 750.445C425.996 750.445 426.524 741.281 417.894 734.761C409.439 728.24 408.91 730.355 404.859 716.433C400.632 702.335 388.302 679.779 388.302 679.779Z" fill="#322655"/>
<path d="M382.313 521.882C382.313 521.882 381.609 531.222 384.427 534.042C387.245 536.861 400.632 535.099 400.632 528.05C400.632 521.001 386.365 517.829 382.313 521.882Z" fill="#F04B4C"/>
<path d="M661.494 501.264C650.574 505.493 663.96 517.653 672.591 516.243C681.046 514.833 675.057 495.977 661.494 501.264Z" fill="#F04B4C"/>
<path d="M629.965 496.506C629.965 496.506 625.21 491.924 615.346 493.158C605.482 494.567 622.391 511.133 630.141 509.37C637.892 507.608 629.965 496.506 629.965 496.506Z" fill="#F04B4C"/>
<path d="M554.402 437.295C558.453 436.942 563.032 436.942 563.032 439.586C563.032 444.167 548.589 447.692 548.589 443.815C548.589 443.639 548.765 437.823 554.402 437.295Z" fill="#F04B4C"/>
<path d="M368.398 394.12C368.398 394.12 366.989 380.374 365.228 378.436C363.467 376.497 348.671 358.17 346.909 360.285C345.148 362.223 357.83 376.85 357.83 376.85C357.83 376.85 342.682 362.576 341.801 365.924C340.921 369.096 355.716 382.842 355.716 382.842C355.716 382.842 340.216 371.035 340.216 373.502C340.216 373.502 354.66 388.657 355.188 389.186C355.716 389.714 356.949 397.292 356.949 397.292L368.398 394.12Z" fill="#F37575"/>
<path d="M356.949 362.223C356.949 362.223 364.171 365.572 364.171 368.391C364.171 371.035 366.285 383.723 366.285 383.723L360.12 381.079L361.353 369.625C361.353 369.625 354.483 362.223 356.949 362.223Z" fill="#F37575"/>
<path d="M409.087 181.241C400.28 182.299 386.189 180.008 379.495 194.634C375.62 202.917 367.694 218.777 367.694 246.973C367.694 289.09 327.182 307.594 327.182 307.594L344.972 316.229L355.54 307.594L348.319 323.102L377.382 326.097L378.615 306.008L384.603 328.917L398.166 326.097C398.166 326.097 392.882 257.37 392.177 231.289C392.353 231.465 392.353 231.465 392.353 231.465C392.353 231.465 392.177 228.117 392.177 223.888C392.177 222.654 392.177 221.244 392.177 220.011C392.177 215.957 392.53 211.552 393.058 208.556C394.291 201.507 396.933 197.806 403.274 194.811C409.615 191.815 432.513 200.45 432.513 200.45C432.161 186.881 418.07 180.184 409.087 181.241Z" fill="#2B337C"/>
<path d="M421.064 183.532C432.161 185.999 435.684 203.269 444.667 212.257C453.826 221.42 451.536 234.637 447.133 243.272C442.729 251.907 435.86 246.268 435.86 246.268C435.86 246.268 439.559 248.383 441.848 240.981C444.138 233.756 440.087 228.117 427.757 224.064C415.428 220.011 403.626 194.282 403.626 194.282C403.274 189.524 409.791 181.065 421.064 183.532Z" fill="#304B9E"/>
<path d="M435.86 246.444C440.087 248.911 446.076 238.514 441.672 231.818C438.502 226.531 431.633 224.416 425.996 222.125C417.189 217.015 408.734 203.093 403.626 194.634C407.325 204.855 415.252 218.953 424.763 224.592L427.053 225.65C429.343 226.531 436.564 228.469 439.911 233.227C442.729 236.928 441.32 242.567 439.559 245.211C438.854 246.092 437.269 246.973 435.86 246.444Z" fill="#043135"/>
<path d="M394.995 232.522C394.995 232.522 391.825 219.129 386.717 222.302C381.609 225.474 387.069 240.453 392.001 240.453C396.757 240.453 394.995 232.522 394.995 232.522Z" fill="#F37575"/>
<path d="M389.887 225.121C389.887 225.121 397.461 237.457 392.353 236.047C387.069 234.637 384.955 222.83 389.887 225.121Z" fill="#F15F5C"/>
<path d="M669.773 198.511C682.455 201.683 687.387 214.195 681.046 223.711C679.989 225.297 678.58 226.883 676.642 227.06V224.24C677.347 224.416 678.756 222.83 679.108 222.302C685.449 214.195 681.574 202.388 669.773 198.511Z" fill="#562367"/>
<path d="M660.437 189.876C660.437 189.876 669.42 189.876 675.938 196.397C682.455 202.917 680.517 228.822 675.938 232.699C671.358 236.576 687.563 240.1 677.875 240.1C668.011 240.276 651.63 190.757 660.437 189.876Z" fill="#501F5E"/>
<path d="M671.71 201.683C671.886 201.155 666.778 187.409 654.096 185.294C638.948 182.827 621.158 194.106 615.698 209.261C610.238 224.592 605.306 241.862 590.334 246.268C575.362 250.674 572.72 272.525 577.3 286.447C581.879 300.193 596.147 296.668 596.147 296.668C596.147 296.668 587.34 289.09 589.806 286.799C589.806 286.799 596.499 299.664 604.073 297.197C611.647 294.553 614.641 290.5 614.641 290.5C614.641 290.5 601.607 288.562 610.238 281.337C616.226 276.226 619.221 271.644 626.266 263.185C632.96 255.079 629.437 233.227 635.426 217.543C636.13 218.248 637.363 218.777 639.125 218.953C647.051 219.834 643.528 214.019 651.102 205.208C664.136 197.806 670.83 201.683 671.71 201.683Z" fill="#501F5E"/>
<path d="M619.397 218.953C621.511 224.769 622.92 232.522 622.568 238.514C621.511 257.723 601.255 247.678 595.442 248.03C591.919 248.206 588.925 251.378 590.334 255.784C591.391 259.309 593.681 260.366 594.914 261.952C596.675 264.243 595.794 266.71 593.681 267.767C589.453 269.882 584.345 265.124 582.584 270.763C581.351 274.64 582.584 279.398 585.754 282.57C582.232 279.927 580.294 274.992 581.351 270.411C582.408 265.653 585.578 266.005 590.158 266.181C592.976 266.358 593.857 264.948 593.681 264.243C593.505 262.481 589.63 261.952 588.044 256.489C586.635 252.612 588.22 248.383 591.743 246.444C601.079 240.981 622.039 260.542 621.159 231.818C620.806 227.764 620.102 223.359 619.397 218.953Z" fill="#562367"/>
<path d="M636.835 223.006C636.835 223.006 637.187 215.605 633.312 216.31C629.437 217.015 626.795 221.949 628.556 226.883C630.318 231.818 637.363 229.703 636.835 223.006Z" fill="#F37575"/>
<path d="M635.25 224.24C635.25 224.24 635.778 219.658 634.017 219.306C632.255 218.953 630.494 222.478 630.846 224.769C631.374 227.06 635.073 226.883 635.25 224.24Z" fill="#F15F5C"/>
<defs>
<linearGradient id="paint0_linear" x1="1098.55" y1="722.186" x2="1223.12" y2="722.186" gradientUnits="userSpaceOnUse">
<stop stop-color="#F04B49"/>
<stop offset="1" stop-color="#FDC170"/>
</linearGradient>
<linearGradient id="paint1_linear" x1="204.47" y1="707.849" x2="329.037" y2="707.849" gradientUnits="userSpaceOnUse">
<stop stop-color="#F04B49"/>
<stop offset="1" stop-color="#FDC170"/>
</linearGradient>
<linearGradient id="paint2_linear" x1="618.115" y1="551.066" x2="622.791" y2="454.475" gradientUnits="userSpaceOnUse">
<stop stop-color="#6A1954"/>
<stop offset="1" stop-color="#B81E4F"/>
</linearGradient>
</defs>
</svg>
