<svg width="1239" height="1000" viewBox="0 0 1239 1000" fill="none" xmlns="http://www.w3.org/2000/svg">
<path d="M481.682 932.944C549.938 792.128 595.134 640.551 614.812 485.284C618.194 457.921 618.809 425.023 596.672 408.42C575.457 392.432 543.481 401.348 525.341 420.718C507.201 440.088 499.822 466.837 493.058 492.356C502.589 428.712 512.428 364.761 521.959 301.117C526.264 271.601 530.261 238.703 501.052 217.795C481.682 204.267 455.548 204.267 434.641 215.336C390.059 238.395 375.609 286.666 363.311 331.863C334.717 244.544 306.123 157.534 277.53 70.2153C270.151 47.4633 255.393 19.792 231.718 22.8666C213.271 25.0188 203.125 45.0036 197.59 62.8362C168.997 151.077 170.226 248.849 200.665 336.782C181.602 309.418 161.31 280.824 131.794 264.837C102.278 248.849 60.7712 250.079 39.864 276.213C21.4165 299.887 25.4134 333.707 32.1775 362.916C54.622 463.147 94.5916 559.69 149.934 646.393C124.723 629.483 97.9737 611.958 67.8427 609.498C37.7118 607.346 3.27641 626.716 0.816742 656.846C-1.33547 682.058 18.0344 703.273 36.482 720.49C113.962 792.436 203.432 851.16 299.974 893.59C357.469 919.416 419.268 932.329 481.682 932.944Z" fill="#5400FF"/>
<path d="M232.333 23.174C232.333 23.174 269.843 724.487 433.411 907.733" stroke="#4911D1" stroke-miterlimit="10"/>
<path d="M61.0786 269.141C61.0786 269.141 314.425 824.104 410.352 918.801" stroke="#4911D1" stroke-miterlimit="10"/>
<path d="M11.2703 635.017C11.2703 635.017 291.365 758.615 378.991 922.491" stroke="#4911D1" stroke-miterlimit="10"/>
<path d="M959.166 271.908C963.778 260.532 1004.67 156.304 1011.43 71.1376C1020.04 -33.0909 1000.67 9.33839 1000.67 9.33839C997.905 14.2577 987.759 40.0842 979.15 93.582C971.157 143.698 954.246 218.41 957.628 263.914C946.867 297.735 907.205 421.948 895.522 449.927L898.904 451.464C910.28 425.022 945.945 313.108 959.166 271.908Z" fill="#7689F4"/>
<path d="M1007.74 1.65132C1000.06 90.8143 983.452 178.44 959.471 264.836C941.638 328.787 917.041 391.509 895.827 454.538C895.519 455.768 897.364 456.075 897.671 454.845C918.886 391.816 943.483 329.095 961.315 265.143C985.297 178.748 1001.9 91.1218 1009.59 1.95878C1009.59 0.728941 1007.74 0.421487 1007.74 1.65132Z" stroke="#6C81E0" stroke-width="0.9146" stroke-miterlimit="10"/>
<path d="M907.205 957.234C907.205 957.234 949.02 698.046 1008.67 628.253C1056.63 571.988 1084.3 538.782 1154.09 522.18C1223.89 505.269 1236.8 500.657 1236.8 500.657C1236.8 500.657 1214.97 528.944 1178.38 580.597C1141.8 631.942 1049.87 693.127 1018.81 735.556C991.449 772.451 965.315 772.758 917.966 971.069L907.205 957.234Z" fill="#816EF5"/>
<path d="M1236.19 499.12C1144.56 536.015 1053.86 602.119 1003.75 687.9C955.784 769.991 929.343 868.685 914.892 962.46C914.584 964.305 917.659 964.613 917.967 962.768C932.11 869.915 958.551 771.221 1006.21 689.744C1056.32 604.271 1146.41 538.475 1237.72 501.887C1239.26 500.965 1237.72 498.505 1236.19 499.12Z" fill="#7D62D6"/>
<path d="M946.56 499.12C949.327 482.21 974.231 328.481 1026.5 221.177C1090.45 89.8926 1083.38 154.766 1083.38 154.766C1083.07 162.76 1076.92 200.885 1049.25 270.986C1023.12 336.474 990.526 438.243 954.246 490.511C943.178 538.475 902.285 715.879 896.444 758L891.217 757.385C896.444 717.723 933.031 557.845 946.56 499.12Z" fill="#6138FB"/>
<path d="M1078.15 139.699C1023.73 251.921 981.61 368.755 949.02 488.972C924.73 578.442 909.665 671.91 890.295 762.61C889.988 764.147 892.447 764.762 892.755 763.225C912.125 672.525 927.497 579.672 951.479 490.202C983.762 369.985 1026.19 252.844 1080.61 140.929C1081.23 139.391 1078.77 138.162 1078.15 139.699Z" fill="#4631DA"/>
<path d="M935.799 700.506C941.026 655.617 952.402 588.283 968.697 545.854C973.002 534.478 978.228 523.717 984.992 513.571C992.679 502.81 1002.21 493.586 1011.74 484.362C1046.18 451.157 1081.84 417.336 1125.81 398.581C1096.29 436.091 1076 479.75 1056.02 522.794C1047.1 541.857 1025.58 578.444 1013.28 595.662C986.837 632.557 968.082 662.073 935.799 700.506Z" fill="#5400FF"/>
<path d="M1124.89 397.659C1080.92 429.02 1037.26 471.449 1013.28 520.642C982.84 582.749 959.473 648.238 927.497 710.037C926.575 711.574 929.035 713.111 929.65 711.574C958.243 656.231 984.377 599.659 1007.44 541.549C1030.5 483.747 1076.31 435.784 1126.73 399.811C1127.96 398.581 1126.12 396.736 1124.89 397.659Z" fill="#4631DA"/>
<path opacity="0.21" d="M883.223 69.2929H355.317C320.266 69.2929 291.673 97.8865 291.673 132.937V935.404C291.673 970.454 320.266 999.048 355.317 999.048H883.531C918.581 999.048 947.175 970.454 947.175 935.404V132.937C946.867 97.5791 918.581 69.2929 883.223 69.2929Z" fill="#232B38"/>
<path d="M904.745 49.9229H376.839C341.788 49.9229 313.195 78.5166 313.195 113.567V916.034C313.195 951.084 341.788 979.678 376.839 979.678H905.053C940.103 979.678 968.697 951.084 968.697 916.034V113.567C968.389 78.5166 940.103 49.9229 904.745 49.9229Z" fill="#E3EAFF"/>
<path d="M630.8 944.013C609.585 944.013 592.06 926.795 592.06 905.273C592.06 883.751 609.277 866.533 630.8 866.533C652.014 866.533 669.539 883.751 669.539 905.273C669.539 926.795 652.322 944.013 630.8 944.013Z" fill="#583BF7"/>
<path d="M926.267 131.4H350.09V831.483H926.267V131.4Z" fill="#583BF7"/>
<path d="M640.946 108.34C648.247 108.34 654.166 102.421 654.166 95.1194C654.166 87.8178 648.247 81.8987 640.946 81.8987C633.644 81.8987 627.725 87.8178 627.725 95.1194C627.725 102.421 633.644 108.34 640.946 108.34Z" fill="#7689F4"/>
<path opacity="0.15" d="M926.267 131.4C926.267 131.4 755.013 192.891 727.957 351.233C700.9 509.881 929.034 591.05 929.034 591.05L926.267 131.4Z" fill="white"/>
<path opacity="0.15" d="M352.857 819.185C352.857 819.185 524.111 757.693 551.168 599.352C578.224 440.703 350.09 359.534 350.09 359.534L352.857 819.185Z" fill="white"/>
<path d="M424.802 355.229C424.802 355.229 455.856 330.94 455.856 295.582C455.856 275.29 456.47 246.697 456.778 225.789C457.085 211.031 469.384 199.04 484.142 199.04H804.821C819.887 199.04 832.185 211.339 832.185 226.404V327.558C832.185 342.624 819.887 354.922 804.821 354.922L493.98 353.692C481.682 353.692 470.306 348.773 461.697 340.164C461.697 340.164 451.551 354.615 424.802 355.229Z" fill="#7689F4"/>
<path d="M592.093 288.833C599.801 263.49 585.506 236.697 560.163 228.989C534.821 221.28 508.028 235.576 500.319 260.918C492.611 286.261 506.906 313.054 532.249 320.762C557.591 328.471 584.384 314.175 592.093 288.833Z" fill="white"/>
<path d="M739.022 253.153H628.645C624.34 253.153 620.958 249.771 620.958 245.467C620.958 241.162 624.34 237.78 628.645 237.78H739.022C743.327 237.78 746.709 241.162 746.709 245.467C746.709 249.771 743.019 253.153 739.022 253.153Z" fill="white"/>
<path d="M778.995 282.977H628.34C624.035 282.977 620.653 279.595 620.653 275.29C620.653 270.986 624.035 267.604 628.34 267.604H778.995C783.299 267.604 786.681 270.986 786.681 275.29C786.681 279.595 783.299 282.977 778.995 282.977Z" fill="white"/>
<path d="M778.995 312.8H628.34C624.035 312.8 620.653 309.418 620.653 305.114C620.653 300.809 624.035 297.427 628.34 297.427H778.995C783.299 297.427 786.681 300.809 786.681 305.114C786.681 309.111 783.299 312.8 778.995 312.8Z" fill="white"/>
<path d="M578.532 299.272C581.914 278.672 590.215 265.452 575.15 244.544C566.848 232.553 533.028 219.64 517.04 247.619C512.735 254.998 497.055 266.681 504.434 288.203C514.273 317.105 485.987 323.869 498.592 362.916C511.198 401.963 596.364 423.793 612.352 377.367C628.032 330.94 575.15 319.564 578.532 299.272Z" fill="#42261F"/>
<path d="M523.189 311.878C520.422 310.648 506.586 315.567 489.061 365.683C489.061 365.683 451.551 360.456 436.486 364.453L434.333 375.214C434.333 375.214 472.151 379.519 492.443 378.596C512.12 377.674 538.562 318.027 523.189 311.878Z" fill="#F0B7B5"/>
<path d="M533.643 310.341C533.643 310.341 510.276 307.266 497.977 335.245L487.216 360.149L506.894 371.525L515.81 353.077L533.643 310.341Z" fill="#E77081"/>
<path d="M539.484 310.033C527.494 309.726 516.425 310.341 508.124 321.409C501.36 330.325 497.363 352.155 506.894 364.453C506.894 364.453 515.81 384.131 515.195 390.28L560.699 391.817L571.46 324.791C572.383 318.949 566.233 313.108 560.392 312.185C560.699 312.185 544.404 310.033 539.484 310.033Z" fill="#5BB3C1"/>
<path d="M569.308 316.182C555.472 318.334 553.935 361.994 551.168 373.677C551.168 373.677 513.35 380.134 496.132 380.441L495.21 391.51C495.21 391.51 548.708 393.969 558.239 386.898C584.066 367.22 593.289 312.185 569.308 316.182Z" fill="#FFC3BF"/>
<path d="M548.093 310.955C548.093 310.955 581.914 308.803 584.681 332.17C585.296 338.012 584.373 343.854 582.221 349.388L572.383 375.829L547.786 368.45L548.093 310.955Z" fill="#5BB3C1"/>
<path d="M545.019 316.49C541.022 316.49 537.947 313.415 537.947 309.418V287.896H552.09V309.418C552.09 313.108 548.708 316.49 545.019 316.49Z" fill="#F5B097"/>
<path d="M566.234 268.834C568.386 285.129 555.78 302.654 545.941 303.576C534.873 304.499 521.652 293.738 519.192 277.442C517.04 261.147 521.652 246.697 537.64 244.544C554.243 242.392 564.081 252.538 566.234 268.834Z" fill="#FBB99D"/>
<path d="M549.938 266.681C549.323 267.604 549.323 268.834 550.245 269.449C551.168 270.063 552.398 270.063 553.012 269.449C553.627 268.526 553.627 267.296 552.705 266.681C552.09 265.759 550.86 265.759 549.938 266.681Z" fill="#06122F"/>
<path d="M528.416 267.911C528.416 269.141 529.338 269.756 530.568 269.756C531.798 269.756 532.413 268.834 532.413 267.604C532.413 266.374 531.49 265.759 530.261 265.759C529.338 266.066 528.416 266.989 528.416 267.911Z" fill="#06122F"/>
<path d="M540.714 270.063L536.41 274.06C535.488 274.675 535.488 275.29 536.717 275.598L541.944 276.828L540.714 270.063Z" fill="#E69A82"/>
<path d="M550.553 243.929C550.553 243.929 548.093 257.15 516.425 259.302C516.425 259.302 523.496 233.476 550.553 243.929Z" fill="#42261F"/>
<path d="M548.708 243.315C548.708 243.315 559.162 262.07 566.233 264.837C566.233 264.837 570.538 255.613 565.926 247.619C560.391 238.395 548.708 243.315 548.708 243.315Z" fill="#42261F"/>
<path d="M574.535 270.986C574.535 274.675 572.075 277.75 569 277.75C565.926 277.75 563.466 274.675 563.466 270.986C563.466 267.296 565.926 264.222 569 264.222C572.075 264.222 574.535 267.296 574.535 270.986Z" fill="#FBB99D"/>
<path opacity="0.66" d="M566.541 274.368C566.541 274.368 566.848 265.144 570.23 268.219C574.842 272.523 569.308 271.601 569.308 271.601C569.308 271.601 567.771 270.986 566.541 274.368Z" fill="#E69A82"/>
<path d="M536.717 281.747C536.717 281.747 543.789 299.579 549.323 281.132L536.717 281.747Z" fill="white"/>
<path d="M636.334 215.028H504.434C495.21 215.028 487.524 207.342 487.524 198.118C487.524 188.894 495.21 181.208 504.434 181.208H636.334C645.558 181.208 653.244 188.894 653.244 198.118C653.244 207.649 645.558 215.028 636.334 215.028Z" fill="white"/>
<path d="M512.736 187.357L516.118 193.814L522.882 194.736L517.962 199.655L519.192 206.727L512.736 203.345L506.586 206.727L507.816 199.655L502.589 194.736L509.661 193.814L512.736 187.357Z" fill="#F70835"/>
<path d="M541.022 187.357L544.096 193.814L551.168 194.736L545.941 199.655L547.171 206.727L541.022 203.345L534.873 206.727L535.795 199.655L530.876 194.736L537.947 193.814L541.022 187.357Z" fill="#F70835"/>
<path d="M569.308 187.357L572.383 193.814L579.454 194.736L574.228 199.655L575.457 206.727L569.308 203.345L562.852 206.727L564.081 199.655L559.162 194.736L565.926 193.814L569.308 187.357Z" fill="#F70835"/>
<path d="M597.287 187.357L600.362 193.814L607.433 194.736L602.514 199.655L603.744 206.727L597.287 203.345L591.138 206.727L592.368 199.655L587.141 194.736L594.212 193.814L597.287 187.357Z" fill="#EAEBFB"/>
<path d="M625.573 187.357L628.648 193.814L635.719 194.736L630.492 199.655L631.722 206.727L625.573 203.345L619.116 206.727L620.346 199.655L615.427 194.736L622.498 193.814L625.573 187.357Z" fill="#EAEBFB"/>
<path d="M857.397 563.994C857.397 563.994 826.343 539.705 826.343 504.347C826.343 484.055 825.728 455.461 825.421 434.554C825.113 419.796 812.815 407.805 798.057 407.805H477.378C462.312 407.805 450.014 420.103 450.014 435.169V536.323C450.014 551.388 462.312 563.686 477.378 563.686L787.911 562.149C800.209 562.149 811.585 557.23 820.194 548.621C820.501 548.928 830.648 563.072 857.397 563.994Z" fill="#7689F4"/>
<path d="M539.792 531.403C566.281 531.403 587.755 509.929 587.755 483.44C587.755 456.95 566.281 435.476 539.792 435.476C513.302 435.476 491.828 456.95 491.828 483.44C491.828 509.929 513.302 531.403 539.792 531.403Z" fill="white"/>
<path d="M732.566 461.61H622.188C617.884 461.61 614.502 458.228 614.502 453.924C614.502 449.619 617.884 446.237 622.188 446.237H732.566C736.87 446.237 740.253 449.619 740.253 453.924C740.253 458.228 736.87 461.61 732.566 461.61Z" fill="white"/>
<path d="M772.538 491.434H621.883C617.579 491.434 614.197 488.052 614.197 483.747C614.197 479.443 617.579 476.061 621.883 476.061H772.538C776.842 476.061 780.224 479.443 780.224 483.747C780.224 488.052 776.842 491.434 772.538 491.434Z" fill="white"/>
<path d="M772.538 520.95H621.883C617.579 520.95 614.197 517.568 614.197 513.263C614.197 508.959 617.579 505.577 621.883 505.577H772.538C776.842 505.577 780.224 508.959 780.224 513.263C780.224 517.568 776.842 520.95 772.538 520.95Z" fill="white"/>
<path d="M495.21 542.779C495.21 542.779 508.431 510.496 533.95 514.801C559.776 519.105 570.23 544.932 570.23 544.932L495.21 542.779Z" fill="#4B4B63"/>
<path d="M532.105 525.869L533.95 525.562C538.869 524.947 542.559 520.642 541.944 515.723L538.562 481.288L518.577 483.44L521.959 517.568C522.574 522.487 527.186 526.177 532.105 525.869Z" fill="#F5B097"/>
<path d="M544.096 508.344C557.317 507.114 564.081 488.359 562.851 475.138L561.006 451.157L514.272 458.843L516.425 481.288C517.654 494.508 530.568 509.574 544.096 508.344Z" fill="#FBB99D"/>
<path d="M516.425 481.288L523.496 480.673C525.341 480.673 526.571 478.828 526.263 476.983C525.034 472.064 523.189 463.455 526.263 461.918C530.875 460.073 560.084 464.685 563.466 454.539C569.615 435.784 549.938 440.088 529.338 445.622C517.04 448.697 501.667 444.7 512.735 477.598L516.425 481.288Z" fill="#21283A"/>
<path d="M513.658 488.052C516.732 489.282 520.114 487.744 521.037 484.67C522.267 481.595 520.729 478.213 517.655 477.291C514.58 476.061 511.198 477.598 510.276 480.673C509.046 483.747 510.583 486.822 513.658 488.052Z" fill="#FBB99D"/>
<path d="M555.165 472.064C555.472 472.986 556.087 473.294 557.009 473.294C557.932 472.986 558.239 472.371 558.239 471.449C557.932 470.526 557.317 470.219 556.394 470.219C555.472 470.219 555.165 471.141 555.165 472.064Z" fill="#171A1B"/>
<path d="M535.794 473.909C536.102 474.831 536.717 475.138 537.639 475.138C538.561 474.831 538.869 474.216 538.869 473.294C538.562 472.371 537.947 472.064 537.024 472.064C536.102 472.371 535.794 473.294 535.794 473.909Z" fill="#171A1B"/>
<path d="M553.012 476.061L548.4 473.601L548.093 480.058L553.012 476.061Z" fill="#E69A82"/>
<path d="M540.406 487.437C540.406 487.437 547.17 500.35 552.705 487.129L540.406 487.437Z" fill="white"/>
<path opacity="0.66" d="M518.577 484.362C518.577 484.362 516.425 477.291 514.58 480.365C511.813 484.67 516.117 482.825 516.117 482.825C516.117 482.825 516.732 482.21 518.577 484.362Z" fill="#E69A82"/>
<path d="M779.302 419.488H647.402C638.178 419.488 630.492 411.802 630.492 402.578C630.492 393.354 638.178 385.668 647.402 385.668H779.302C788.526 385.668 796.212 393.354 796.212 402.578C795.905 411.802 788.526 419.488 779.302 419.488Z" fill="white"/>
<path d="M655.704 391.51L658.778 397.966L665.85 398.889L660.623 403.808L661.853 410.88L655.704 407.497L649.247 410.88L650.477 403.808L645.557 398.889L652.629 397.966L655.704 391.51Z" fill="#F70835"/>
<path d="M683.682 391.51L687.064 397.966L693.828 398.889L688.909 403.808L690.139 410.88L683.682 407.497L677.533 410.88L678.763 403.808L673.536 398.889L680.608 397.966L683.682 391.51Z" fill="#F70835"/>
<path d="M711.968 391.51L715.043 397.966L722.115 398.889L716.888 403.808L718.118 410.88L711.968 407.497L705.819 410.88L706.742 403.808L701.822 398.889L708.894 397.966L711.968 391.51Z" fill="#F70835"/>
<path d="M740.255 391.51L743.329 397.966L750.401 398.889L745.174 403.808L746.404 410.88L740.255 407.497L733.798 410.88L735.028 403.808L730.108 398.889L736.873 397.966L740.255 391.51Z" fill="#F70835"/>
<path d="M768.233 391.51L771.308 397.966L778.379 398.889L773.46 403.808L774.69 410.88L768.233 407.497L762.084 410.88L763.314 403.808L758.087 398.889L765.159 397.966L768.233 391.51Z" fill="#EAEBFB"/>
<path d="M422.035 781.06C422.035 781.06 453.088 756.771 453.088 721.413C453.088 701.121 453.703 672.527 454.011 651.62C454.318 636.862 466.617 624.871 481.375 624.871H802.054C817.12 624.871 829.418 637.169 829.418 652.235V753.388C829.418 768.454 817.12 780.752 802.054 780.752L491.521 779.215C479.222 779.215 467.846 774.296 459.238 765.687C458.93 765.994 448.784 780.137 422.035 781.06Z" fill="#7689F4"/>
<path d="M770.499 748.307C790.334 730.75 792.181 700.437 774.624 680.602C757.067 660.767 726.754 658.92 706.918 676.477C687.083 694.034 685.236 724.347 702.793 744.182C720.351 764.018 750.664 765.865 770.499 748.307Z" fill="white"/>
<path d="M505.971 734.019H616.349C620.653 734.019 624.035 737.401 624.035 741.705C624.035 746.009 620.653 749.392 616.349 749.392H505.971C501.667 749.392 498.285 746.009 498.285 741.705C498.285 737.401 501.667 734.019 505.971 734.019Z" fill="white"/>
<path d="M505.971 704.195H656.626C660.93 704.195 664.312 707.577 664.312 711.882C664.312 716.186 660.93 719.568 656.626 719.568H505.971C501.667 719.568 498.285 716.186 498.285 711.882C498.285 707.577 501.667 704.195 505.971 704.195Z" fill="white"/>
<path d="M505.971 674.371H656.626C660.93 674.371 664.312 677.754 664.312 682.058C664.312 686.362 660.93 689.744 656.626 689.744H505.971C501.667 689.744 498.285 686.362 498.285 682.058C498.285 678.061 501.667 674.371 505.971 674.371Z" fill="white"/>
<path d="M631.722 637.784H499.822C490.598 637.784 482.912 630.098 482.912 620.874C482.912 611.65 490.598 603.964 499.822 603.964H631.722C640.946 603.964 648.632 611.65 648.632 620.874C648.325 630.098 640.946 637.784 631.722 637.784Z" fill="white"/>
<path d="M508.123 609.805L511.198 616.262L518.27 617.184L513.043 622.104L514.273 629.175L508.123 625.793L501.974 629.175L502.897 622.104L497.977 617.184L505.049 616.262L508.123 609.805Z" fill="#F70835"/>
<path d="M536.41 609.805L539.484 616.262L546.556 617.184L541.329 622.104L542.559 629.175L536.41 625.793L529.953 629.175L531.183 622.104L526.263 617.184L533.028 616.262L536.41 609.805Z" fill="#F70835"/>
<path d="M564.389 609.805L567.463 616.262L574.535 617.184L569.615 622.104L570.845 629.175L564.389 625.793L558.239 629.175L559.469 622.104L554.243 617.184L561.314 616.262L564.389 609.805Z" fill="#F70835"/>
<path d="M592.675 609.805L595.749 616.262L602.821 617.184L597.594 622.104L598.824 629.175L592.675 625.793L586.218 629.175L587.448 622.104L582.529 617.184L589.6 616.262L592.675 609.805Z" fill="#EAEBFB"/>
<path d="M620.653 609.805L624.035 616.262L630.799 617.184L625.88 622.104L627.11 629.175L620.653 625.793L614.504 629.175L615.734 622.104L610.507 617.184L617.579 616.262L620.653 609.805Z" fill="#EAEBFB"/>
<path d="M916.428 365.683L879.226 364.761C862.931 364.453 850.325 350.618 851.247 334.322C852.17 317.412 866.62 304.499 883.53 305.729L930.264 308.803C943.177 309.726 953.016 320.794 952.094 333.707C950.556 351.847 934.876 366.298 916.428 365.683Z" fill="#5400FF"/>
<path d="M867.85 361.071L855.859 385.361L894.291 361.071H867.85Z" fill="#5400FF"/>
<path d="M910.279 334.322C910.279 338.012 907.205 341.086 903.515 341.086C899.826 341.086 896.751 338.012 896.751 334.322C896.751 330.633 899.826 327.558 903.515 327.558C907.512 327.866 910.279 330.633 910.279 334.322Z" fill="white"/>
<path d="M885.99 334.322C885.99 338.012 882.915 341.086 879.226 341.086C875.536 341.086 872.462 338.012 872.462 334.322C872.462 330.633 875.536 327.558 879.226 327.558C882.915 327.866 885.99 330.633 885.99 334.322Z" fill="white"/>
<path d="M934.876 334.322C934.876 338.012 931.801 341.086 928.112 341.086C924.422 341.086 921.348 338.012 921.348 334.322C921.348 330.633 924.422 327.558 928.112 327.558C931.801 327.866 934.876 330.633 934.876 334.322Z" fill="white"/>
<path d="M357.469 504.04L394.671 501.272C410.966 500.043 424.802 512.341 425.417 528.636C426.339 545.546 413.119 559.997 396.208 560.612L349.475 562.457C336.561 563.072 325.8 552.925 325.185 539.705C324.571 521.257 338.714 505.577 357.469 504.04Z" fill="#5400FF"/>
<path d="M408.199 557.845L421.42 581.212L381.758 559.382L408.199 557.845Z" fill="#5400FF"/>
<path d="M366.693 534.785C367 538.475 370.075 541.242 373.764 540.935C377.453 540.627 380.221 537.553 379.913 533.863C379.606 530.174 376.531 527.406 372.842 527.714C369.152 528.021 366.385 531.096 366.693 534.785Z" fill="white"/>
<path d="M391.289 532.941C391.597 536.63 394.671 539.397 398.361 539.09C402.05 538.782 404.817 535.708 404.51 532.018C404.202 528.329 401.128 525.562 397.438 525.869C393.749 526.177 390.982 529.251 391.289 532.941Z" fill="white"/>
<path d="M342.403 536.63C342.711 540.32 345.785 543.087 349.475 542.779C353.164 542.472 355.931 539.397 355.624 535.708C355.317 532.018 352.242 529.251 348.552 529.559C344.863 529.866 342.096 532.941 342.403 536.63Z" fill="white"/>
<path d="M864.468 225.174C858.319 246.082 836.182 258.072 815.275 251.616C794.368 245.467 782.377 223.33 788.833 202.423C794.982 181.515 817.119 169.524 838.027 175.981C858.934 182.13 870.617 204.267 864.468 225.174Z" fill="#FD6019"/>
<path d="M842.023 198.426C836.489 196.888 832.492 201.193 830.34 204.882C829.725 205.805 828.495 205.19 828.495 204.267C828.495 199.963 827.573 194.121 822.039 192.276C812.815 189.509 806.358 199.04 806.973 206.112C807.588 213.184 820.194 234.398 820.194 234.398C820.194 234.398 842.638 223.637 846.943 218.103C851.247 212.876 851.247 201.193 842.023 198.426Z" fill="#EFEFEF"/>
<path d="M387.292 124.021L424.495 122.483C440.79 121.868 454.318 134.474 454.626 150.769C454.933 167.68 441.405 181.515 424.495 181.823L377.761 182.13C364.848 182.13 354.394 171.677 354.394 158.763C354.087 140.008 368.845 124.943 387.292 124.021Z" fill="#5400FF"/>
<path d="M435.563 177.518L447.554 201.808L409.121 177.518H435.563Z" fill="#5400FF"/>
<path d="M407.584 139.701C403.587 140.316 402.358 144.62 402.358 147.695C402.358 148.31 401.435 148.617 401.128 148.002C399.59 145.235 397.131 141.853 393.134 142.468C386.37 143.698 385.447 151.999 388.214 156.304C390.982 160.608 406.047 170.139 406.047 170.139C406.047 170.139 416.808 155.689 417.731 150.769C418.345 145.85 414.348 138.471 407.584 139.701Z" fill="#EFEFEF"/>
</svg>
