<svg width="259" height="59" viewBox="0 0 259 59" fill="none" xmlns="http://www.w3.org/2000/svg">
<path d="M31.3284 0L62.5438 22.5216L50.5077 58.8048L11.8532 58.7088L0 22.3656L31.3284 0Z" fill="url(#paint0_linear)"/>
<path fill-rule="evenodd" clip-rule="evenodd" d="M39.2992 27.1548C40.8664 27.1548 42.1365 28.4136 42.1365 29.9664C42.1365 31.5204 40.8664 32.7792 39.2992 32.7792C37.732 32.7792 36.4606 31.5204 36.4606 29.9664C36.4606 28.4136 37.732 27.1548 39.2992 27.1548Z" fill="white"/>
<path d="M26.8529 18.0816H30.3217V39.1152H41.9741V42.0048H26.8529V18.0816Z" fill="white"/>
<path d="M75.1632 16.8048H81.0086V42.0048H75.1632V16.8048ZM98.4052 22.3488C100.811 22.3488 102.747 23.0688 104.215 24.5088C105.706 25.9488 106.452 28.0848 106.452 30.9168V42.0048H100.823V31.7808C100.823 30.2448 100.486 29.1048 99.8124 28.3608C99.1389 27.5928 98.1646 27.2088 96.8897 27.2088C95.4705 27.2088 94.3399 27.6528 93.4979 28.5408C92.656 29.4048 92.235 30.7008 92.235 32.4288V42.0048H86.6061V22.6368H91.9824V24.9048C92.7281 24.0888 93.6543 23.4648 94.7608 23.0328C95.8674 22.5768 97.0822 22.3488 98.4052 22.3488ZM118.085 42.2928C116.473 42.2928 114.898 42.1008 113.358 41.7168C111.819 41.3088 110.592 40.8048 109.678 40.2048L111.554 36.1728C112.42 36.7248 113.466 37.1808 114.693 37.5408C115.92 37.8768 117.123 38.0448 118.302 38.0448C120.683 38.0448 121.874 37.4568 121.874 36.2808C121.874 35.7288 121.549 35.3328 120.9 35.0928C120.25 34.8528 119.252 34.6488 117.905 34.4808C116.317 34.2408 115.006 33.9648 113.972 33.6528C112.937 33.3408 112.035 32.7888 111.265 31.9968C110.52 31.2048 110.147 30.0768 110.147 28.6128C110.147 27.3888 110.496 26.3088 111.193 25.3728C111.915 24.4128 112.949 23.6688 114.296 23.1408C115.668 22.6128 117.279 22.3488 119.131 22.3488C120.503 22.3488 121.862 22.5048 123.209 22.8168C124.58 23.1048 125.711 23.5128 126.601 24.0408L124.724 28.0368C123.016 27.0768 121.152 26.5968 119.131 26.5968C117.929 26.5968 117.027 26.7648 116.425 27.1008C115.824 27.4368 115.523 27.8688 115.523 28.3968C115.523 28.9968 115.848 29.4168 116.497 29.6568C117.147 29.8968 118.181 30.1248 119.601 30.3408C121.188 30.6048 122.487 30.8928 123.498 31.2048C124.508 31.4928 125.386 32.0328 126.132 32.8248C126.877 33.6168 127.25 34.7208 127.25 36.1368C127.25 37.3368 126.889 38.4048 126.168 39.3408C125.446 40.2768 124.388 41.0088 122.992 41.5368C121.621 42.0408 119.985 42.2928 118.085 42.2928ZM150.279 22.6368V42.0048H144.939V39.7008C144.193 40.5408 143.303 41.1888 142.269 41.6448C141.235 42.0768 140.116 42.2928 138.913 42.2928C136.363 42.2928 134.343 41.5608 132.851 40.0968C131.36 38.6328 130.614 36.4608 130.614 33.5808V22.6368H136.243V32.7528C136.243 35.8728 137.554 37.4328 140.176 37.4328C141.523 37.4328 142.606 37.0008 143.424 36.1368C144.242 35.2488 144.651 33.9408 144.651 32.2128V22.6368H150.279ZM160.871 25.1928C161.545 24.2568 162.447 23.5488 163.577 23.0688C164.732 22.5888 166.055 22.3488 167.546 22.3488V27.5328C166.921 27.4848 166.5 27.4608 166.283 27.4608C164.672 27.4608 163.409 27.9168 162.495 28.8288C161.581 29.7168 161.124 31.0608 161.124 32.8608V42.0048H155.495V22.6368H160.871V25.1928ZM178.618 22.3488C181.625 22.3488 183.934 23.0688 185.546 24.5088C187.157 25.9248 187.963 28.0728 187.963 30.9528V42.0048H182.695V39.5928C181.637 41.3928 179.664 42.2928 176.778 42.2928C175.286 42.2928 173.987 42.0408 172.881 41.5368C171.798 41.0328 170.968 40.3368 170.391 39.4488C169.814 38.5608 169.525 37.5528 169.525 36.4248C169.525 34.6248 170.198 33.2088 171.546 32.1768C172.917 31.1448 175.022 30.6288 177.86 30.6288H182.334C182.334 29.4048 181.962 28.4688 181.216 27.8208C180.47 27.1488 179.352 26.8128 177.86 26.8128C176.826 26.8128 175.803 26.9808 174.793 27.3168C173.807 27.6288 172.965 28.0608 172.267 28.6128L170.247 24.6888C171.305 23.9448 172.568 23.3688 174.035 22.9608C175.527 22.5528 177.054 22.3488 178.618 22.3488ZM178.185 38.5128C179.147 38.5128 180.001 38.2968 180.747 37.8648C181.492 37.4088 182.022 36.7488 182.334 35.8848V33.9048H178.473C176.164 33.9048 175.01 34.6608 175.01 36.1728C175.01 36.8928 175.286 37.4688 175.839 37.9008C176.417 38.3088 177.199 38.5128 178.185 38.5128ZM204.857 22.3488C207.263 22.3488 209.199 23.0688 210.667 24.5088C212.158 25.9488 212.904 28.0848 212.904 30.9168V42.0048H207.275V31.7808C207.275 30.2448 206.938 29.1048 206.265 28.3608C205.591 27.5928 204.617 27.2088 203.342 27.2088C201.923 27.2088 200.792 27.6528 199.95 28.5408C199.108 29.4048 198.687 30.7008 198.687 32.4288V42.0048H193.058V22.6368H198.435V24.9048C199.18 24.0888 200.106 23.4648 201.213 23.0328C202.32 22.5768 203.534 22.3488 204.857 22.3488ZM227.599 42.2928C225.53 42.2928 223.666 41.8728 222.006 41.0328C220.371 40.1688 219.084 38.9808 218.145 37.4688C217.231 35.9568 216.774 34.2408 216.774 32.3208C216.774 30.4008 217.231 28.6848 218.145 27.1728C219.084 25.6608 220.371 24.4848 222.006 23.6448C223.666 22.7808 225.53 22.3488 227.599 22.3488C229.644 22.3488 231.424 22.7808 232.939 23.6448C234.479 24.4848 235.598 25.6968 236.295 27.2808L231.929 29.6208C230.919 27.8448 229.463 26.9568 227.563 26.9568C226.096 26.9568 224.881 27.4368 223.919 28.3968C222.957 29.3568 222.475 30.6648 222.475 32.3208C222.475 33.9768 222.957 35.2848 223.919 36.2448C224.881 37.2048 226.096 37.6848 227.563 37.6848C229.488 37.6848 230.943 36.7968 231.929 35.0208L236.295 37.3968C235.598 38.9328 234.479 40.1328 232.939 40.9968C231.424 41.8608 229.644 42.2928 227.599 42.2928ZM258.305 32.3928C258.305 32.4648 258.269 32.9688 258.196 33.9048H243.511C243.775 35.1048 244.401 36.0528 245.387 36.7488C246.373 37.4448 247.6 37.7928 249.067 37.7928C250.078 37.7928 250.968 37.6488 251.737 37.3608C252.531 37.0488 253.265 36.5688 253.939 35.9208L256.933 39.1608C255.105 41.2488 252.435 42.2928 248.923 42.2928C246.734 42.2928 244.798 41.8728 243.114 41.0328C241.43 40.1688 240.131 38.9808 239.217 37.4688C238.303 35.9568 237.846 34.2408 237.846 32.3208C237.846 30.4248 238.291 28.7208 239.181 27.2088C240.095 25.6728 241.334 24.4848 242.897 23.6448C244.485 22.7808 246.253 22.3488 248.201 22.3488C250.102 22.3488 251.822 22.7568 253.361 23.5728C254.901 24.3888 256.104 25.5648 256.97 27.1008C257.86 28.6128 258.305 30.3768 258.305 32.3928ZM248.237 26.5968C246.963 26.5968 245.892 26.9568 245.026 27.6768C244.16 28.3968 243.631 29.3808 243.438 30.6288H253C252.808 29.4048 252.279 28.4328 251.413 27.7128C250.547 26.9688 249.488 26.5968 248.237 26.5968Z" fill="white"/>
<defs>
<linearGradient id="paint0_linear" x1="0" y1="0" x2="62.5438" y2="0" gradientUnits="userSpaceOnUse">
<stop stop-color="#453B6F"/>
<stop offset="1" stop-color="#5CBE2D"/>
</linearGradient>
</defs>
</svg>
