<svg width="1920" height="1019" viewBox="0 0 1920 1019" fill="none" xmlns="http://www.w3.org/2000/svg">
  <path d="M0 0.900024V83.1C0.1 168.2 91.6 199.5 91.6 199.5C150.7 223 306.1 201.5 306.1 201.5C478.4 184.3 510.6 266.3 510.6 266.3C567.8 378.7 468 478.9 468 478.9C425.1 524.1 370.4 598.5 355.1 619.6C355.1 619.6 355.1 619.6 355.1 619.7C352.5 623.3 351 625.4 351 625.4C350.8 625.7 350.7 626 350.5 626.3C331.9 654.4 328.3 678.9 328.3 678.9C321.7 713.9 343.5 746.5 343.5 746.5C349.2 757.3 355.7 766.4 362.7 774C362.9 774.3 363.2 774.5 363.4 774.7C363.5 774.8 363.6 774.9 363.7 775C410 825.1 475.4 812.7 497.9 806.5C499.8 806 501.9 805.4 504 804.6C505.2 804.2 505.9 803.9 505.9 803.9C556.2 785.6 648.5 712.8 648.5 712.8C805.8 596.7 892.9 671.6 892.9 671.6C951.4 698.8 1023.9 862.5 1023.9 862.5C1065.2 937.3 1124.5 957.3 1124.5 957.3C1141.4 966.2 1162.1 971.5 1182.5 974.6C1221.2 982 1259.8 979.2 1275.7 977.5C1277.4 977.3 1279.3 977.1 1281.3 976.8C1282.5 976.6 1283.2 976.5 1283.2 976.5C1329.5 969.8 1460.9 938.7 1460.9 938.7C1469.1 936.9 1533.9 921.5 1533.9 921.5C1549.8 917.4 1593.9 910 1593.9 910C1826.8 865 1920 1019 1920 1019V3.00002L0 0.900024Z" fill="#1C1028" />
</svg>
