<svg width="1101" height="1096" viewBox="0 0 1101 1096" fill="none" xmlns="http://www.w3.org/2000/svg">
<path fill-rule="evenodd" clip-rule="evenodd" d="M593 80C873.56 80 1101 307.44 1101 588C1101 868.56 873.56 1096 593 1096C312.44 1096 85 868.56 85 588C85 307.44 312.44 80 593 80Z" fill="#F74C9A"/>
<path fill-rule="evenodd" clip-rule="evenodd" d="M508 0C788.56 0 1016 227.44 1016 508C1016 788.56 788.56 1016 508 1016C227.44 1016 0 788.56 0 508C0 227.44 227.44 0 508 0Z" fill="#FFF4E4"/>
<path d="M436.765 405.986C436.765 410.157 433.377 413.507 429.238 413.507C425.063 413.507 421.711 410.123 421.711 405.986C421.711 401.815 425.098 398.464 429.238 398.464C433.377 398.43 436.765 401.815 436.765 405.986Z" fill="#B7B7B7"/>
<path d="M433.514 405.986C433.514 408.379 431.598 410.293 429.204 410.293C426.809 410.293 424.893 408.379 424.893 405.986C424.893 403.593 426.809 401.678 429.204 401.678C431.598 401.678 433.514 403.593 433.514 405.986Z" fill="#EDEDED"/>
<path d="M508.374 1000.25H472.587V40L508.374 73.0259V1000.25Z" fill="#E2E2E2"/>
<path d="M507.69 77.1627L472.587 41.4017H917.264L884.214 77.1627H507.69Z" fill="#EAEAEA"/>
<path d="M882.161 1000.25H917.949V40L882.161 73.0259V1000.25Z" fill="#D8D8D8"/>
<path d="M508.374 770.57V998.879H881.476V385.883C767.989 522.26 638.421 643.526 508.374 770.57Z" fill="#EDEDED"/>
<path d="M881.476 385.883V77.1627H508.374V770.57C638.421 643.526 767.989 522.26 881.476 385.883Z" fill="#F2F2F2"/>
<path d="M508.374 998.879V77.1627H881.476V998.879" stroke="#808080" stroke-miterlimit="10"/>
<path d="M546.56 581.896C552.346 576.115 552.346 566.742 546.56 560.961C540.775 555.18 531.395 555.18 525.61 560.961C519.824 566.742 519.824 576.115 525.61 581.896C531.395 587.677 540.775 587.677 546.56 581.896Z" fill="#666666"/>
<path d="M569.001 565.987C568.214 565.987 567.462 565.953 566.641 565.953C548.473 565.953 533.727 568.756 533.727 572.175C533.727 574.807 542.315 577.03 554.461 577.953C559.285 573.953 564.04 569.782 569.001 565.987Z" fill="#808080"/>
<path d="M579.437 566.466C575.194 570.842 570.267 574.568 565.477 578.431C565.854 578.431 566.264 578.431 566.641 578.431C584.808 578.431 599.554 575.628 599.554 572.209C599.588 569.611 591.274 567.389 579.437 566.466Z" fill="#808080"/>
<path d="M579.437 566.466C576.186 566.192 572.696 566.021 569.001 565.987C564.006 569.816 559.285 573.987 554.495 577.987C557.916 578.261 561.645 578.397 565.512 578.431C570.267 574.534 575.194 570.842 579.437 566.466Z" fill="#D1D1D1"/>
<path d="M690.05 226.36C690.05 226.36 689.332 226.019 687.86 225.335C686.389 224.651 685.226 223.66 684.371 222.326C683.515 220.993 682.968 219.42 682.831 217.608H688.305C688.408 218.429 688.681 219.078 689.058 219.591C689.434 220.104 689.913 220.514 690.495 220.788C691.076 221.061 691.795 221.198 692.582 221.198C693.916 221.198 694.943 220.822 695.695 220.104C696.414 219.386 696.79 218.36 696.79 217.027V216.172C696.79 214.736 696.482 213.642 695.832 212.856C695.182 212.07 694.258 211.694 693.061 211.694H690.529V206.6H693.061C694.087 206.6 694.874 206.258 695.456 205.574C696.003 204.89 696.277 203.933 696.277 202.736V201.95C696.277 200.788 695.969 199.933 695.387 199.318C694.771 198.702 693.916 198.394 692.821 198.394C692.137 198.394 691.555 198.531 691.008 198.805C690.495 199.078 690.016 199.523 689.639 200.104C689.263 200.685 688.989 201.369 688.818 202.224H683.378C683.618 200.343 684.165 198.736 685.021 197.369C685.876 196.001 686.971 194.976 688.339 194.292C689.674 193.608 691.213 193.232 692.924 193.232C695.764 193.232 697.953 193.984 699.493 195.454C701.033 196.924 701.819 199.01 701.819 201.677V202.429C701.819 204.001 701.409 205.369 700.588 206.497C699.767 207.659 698.603 208.514 697.098 209.061C698.774 209.437 700.074 210.292 700.964 211.591C701.888 212.924 702.333 214.6 702.333 216.617V217.369C702.333 219.249 701.956 220.89 701.238 222.224C700.485 223.557 699.424 224.583 698.022 225.266C696.619 225.95 694.908 226.326 692.924 226.326C690.974 226.36 690.05 226.36 690.05 226.36Z" fill="#B7B7B7"/>
<path d="M711.947 225.198C710.578 224.446 709.518 223.318 708.765 221.848C708.047 220.378 707.67 218.6 707.67 216.548V216.514C707.67 215.318 707.807 214.053 708.115 212.754C708.389 211.42 708.834 210.121 709.347 208.822C709.449 208.583 709.518 208.377 709.621 208.172C709.723 207.967 709.826 207.728 709.928 207.523L716.771 193.54H722.656L714.616 209.711L713.863 208.89C714.239 208.206 714.787 207.659 715.505 207.249C716.224 206.873 717.045 206.668 718.003 206.668C719.714 206.668 721.219 207.044 722.451 207.796C723.682 208.548 724.64 209.677 725.29 211.112C725.94 212.548 726.248 214.292 726.248 216.343V216.377C726.248 218.463 725.872 220.241 725.153 221.745C724.435 223.249 723.374 224.378 721.972 225.13C720.569 225.916 718.892 226.292 716.942 226.292C714.992 226.36 713.316 225.984 711.947 225.198ZM719.85 220.07C720.535 219.318 720.877 218.224 720.877 216.822V216.788C720.877 215.215 720.535 213.984 719.816 213.13C719.132 212.275 718.106 211.83 716.805 211.83C715.574 211.83 714.65 212.275 713.966 213.13C713.316 213.984 712.973 215.215 712.973 216.788V216.822C712.973 218.224 713.316 219.318 714 220.07C714.684 220.822 715.642 221.198 716.908 221.198C718.208 221.232 719.166 220.856 719.85 220.07Z" fill="#B7B7B7"/>
<path d="M711.472 247.265C712.075 243.556 709.554 240.061 705.842 239.459C702.13 238.857 698.633 241.376 698.031 245.085C697.428 248.794 699.949 252.289 703.661 252.891C707.372 253.492 710.87 250.974 711.472 247.265Z" fill="#666666"/>
<path d="M708.799 242.839C707.841 241.677 706.37 240.89 704.728 240.89C701.785 240.89 699.425 243.249 699.425 246.19C699.425 247.694 700.041 249.027 701.067 249.985C703.633 247.626 706.301 245.403 708.799 242.839Z" fill="#8C8C8C"/>
<path d="M701.067 250.019C702.025 250.942 703.291 251.489 704.728 251.489C707.67 251.489 710.031 249.13 710.031 246.19C710.031 244.925 709.552 243.762 708.799 242.839C706.302 245.403 703.633 247.626 701.067 250.019Z" fill="#808080"/>
<path d="M945.183 872.724L925.647 847.835C908.3 825.716 882.537 809.75 854.995 804.04L856.329 797.647C880.142 802.604 902.689 814.809 920.138 831.938C917.846 820.69 918.188 808.963 918.496 797.544C918.975 780.416 919.42 764.279 911.824 749.954L917.607 746.877C926.023 762.706 925.544 780.519 925.031 797.715C924.552 814.433 924.141 830.228 931.155 844.382L945.183 872.724Z" fill="#70B28B"/>
<path d="M925.989 778.399C948.912 776.69 973.341 784.69 994.177 774.946C1001.19 771.664 1007.32 766.467 1011.69 760.04C1022.68 743.835 1021.51 722.604 1019.91 703.116C1019.7 700.757 1019.5 698.296 1018.4 696.176C1017.31 694.056 1015.12 692.313 1012.76 692.518C1010.39 692.723 1008.58 694.638 1007.04 696.45C1000.37 704.21 993.596 712.04 985.384 718.193C976.318 724.997 965.267 729.715 953.839 728.792C951.444 728.587 949.254 727.151 948.467 724.894C947.065 720.792 951.205 718.091 954.831 716.928C965.301 713.612 977.241 714.433 986.411 708.416C993.185 703.971 997.325 696.21 998.796 688.244C1000.23 680.279 999.241 672.039 997.428 664.142C996.196 658.808 994.485 653.338 989.832 649.885C988.498 648.894 986.89 648.176 985.247 647.936C978.37 646.979 974.675 652.757 971.254 657.68C963.761 668.449 952.676 678.125 939.538 678.432C937.451 675.971 938.238 672.039 940.325 669.578C942.412 667.116 945.457 665.714 948.296 664.244C960.545 657.783 972.246 645.27 964.89 630.466C963.829 628.312 962.393 626.364 960.75 624.62C954.558 618.022 946.517 614.534 938.785 610.534C935.74 608.962 932.216 611.286 932.319 614.705C932.695 625.475 931.6 636.278 929.034 646.706C928.589 648.483 927.768 650.159 926.468 651.458C921.678 656.244 916.443 652.107 915.52 647.56C914.869 644.312 915.862 640.996 917.025 637.919C919.865 630.227 923.799 622.876 925.442 614.842C927.118 606.808 926.126 597.611 920.309 591.799C915.109 586.568 907.308 585.167 900.123 583.355C892.973 581.508 885.206 578.329 882.332 571.526H882.264C882.366 578.91 876.55 584.962 870.734 589.509C864.917 594.056 858.314 598.466 855.645 605.338C852.669 612.996 855.474 621.817 860.23 628.517C864.986 635.218 871.521 640.381 877.234 646.295C879.527 648.654 881.785 651.321 882.469 654.535C883.461 659.082 880.348 664.962 874.018 662.501C872.307 661.851 870.87 660.62 869.776 659.184C863.241 650.637 857.869 641.167 853.9 631.184C852.634 628.005 848.46 627.287 846.305 629.953C840.831 636.723 834.843 643.15 831.832 651.697C831.045 653.954 830.498 656.313 830.395 658.74C829.643 675.253 845.347 682.022 859.169 683.014C862.385 683.253 865.738 683.287 868.612 684.723C871.52 686.125 873.813 689.441 872.889 692.518C860.743 697.475 846.681 693.065 835.493 686.227C830.395 683.116 824.648 679.287 818.763 682.945C817.326 683.834 816.163 685.099 815.341 686.569C812.467 691.629 813.083 697.304 814.11 702.706C815.615 710.672 818.01 718.604 822.526 725.339C827.043 732.074 833.954 737.476 841.96 738.843C852.771 740.689 863.378 735.117 874.292 733.988C878.09 733.578 882.948 734.399 883.324 738.741C883.53 741.134 882.093 743.322 879.971 744.45C869.878 749.886 857.869 749.989 846.818 747.424C836.828 745.065 827.487 740.655 818.25 736.211C816.128 735.185 813.699 734.125 811.441 734.911C809.183 735.698 807.883 738.159 807.746 740.518C807.609 742.911 808.396 745.202 809.149 747.459C815.512 765.954 822.971 785.886 839.531 796.314C846.1 800.45 853.798 802.775 861.564 802.946C884.522 803.493 903.716 786.365 925.373 778.741L925.989 778.399Z" fill="#70B28B"/>
<path d="M963.042 850.639H892.733L917.264 1000.96L946.688 999.324L963.042 850.639Z" fill="#DDCDB4"/>
<path d="M902.86 818.844C912.782 805.066 928.931 795.014 933.311 778.638C934.782 773.1 934.748 767.151 933.174 761.647C929.205 747.732 916.614 738.296 904.81 729.954C903.373 728.928 901.902 727.903 900.157 727.493C898.447 727.116 896.428 727.527 895.402 728.963C894.375 730.399 894.615 732.313 894.923 734.057C896.154 741.544 897.352 749.065 896.941 756.655C896.496 765.031 893.896 773.51 887.943 779.527C886.711 780.792 884.829 781.339 883.187 780.724C880.211 779.561 880.621 775.937 881.716 773.339C884.795 765.852 890.954 759.459 891.878 751.424C892.562 745.476 890.167 739.458 886.335 734.843C882.503 730.228 877.371 726.877 872.033 724.176C868.441 722.33 864.541 720.723 860.332 721.715C859.135 721.988 857.972 722.569 857.048 723.39C853.25 726.809 854.755 731.664 855.919 735.937C858.451 745.305 858.69 756.176 852.634 763.766C850.239 763.766 848.392 761.476 847.981 759.117C847.571 756.758 848.221 754.399 848.734 752.074C850.889 742.057 849.35 729.51 837.477 726.638C835.767 726.228 833.953 726.091 832.209 726.193C825.537 726.569 819.721 729.475 813.767 731.937C811.441 732.894 811.064 736.005 813.049 737.578C819.31 742.467 824.921 748.245 829.643 754.638C830.429 755.732 831.011 756.997 831.114 758.365C831.558 763.356 826.7 764.348 823.689 762.707C821.534 761.544 820.131 759.39 818.934 757.271C815.923 752.006 813.596 746.296 809.867 741.544C806.138 736.792 800.424 732.963 794.368 733.476C788.928 733.954 784.446 737.681 779.998 740.86C775.55 744.04 770.076 746.911 764.841 745.305L764.807 745.339C769.05 748.792 769.7 754.946 769.529 760.416C769.358 765.886 768.708 771.698 771.342 776.484C774.25 781.784 780.58 784.416 786.636 784.895C792.691 785.373 798.713 784.143 804.769 783.732C807.198 783.561 809.764 783.561 811.92 784.69C814.965 786.296 816.847 790.843 812.433 793.271C811.236 793.92 809.867 794.16 808.533 794.091C800.595 793.75 792.692 792.279 785.13 789.784C782.735 788.997 780.34 791.014 780.819 793.51C782.051 799.835 782.872 806.262 786.259 812.006C787.149 813.544 788.244 814.946 789.578 816.143C798.576 824.416 809.901 818.741 817.018 811.391C818.66 809.681 820.302 807.801 822.458 806.844C824.647 805.886 827.59 806.126 828.89 808.143C825.947 817.374 816.744 823.254 807.54 826.297C803.366 827.698 798.474 829.134 797.721 834.194C797.55 835.425 797.721 836.69 798.166 837.852C799.671 841.887 803.195 844.211 806.719 846.194C811.954 849.134 817.599 851.562 823.553 852.177C829.506 852.793 835.869 851.459 840.454 847.596C846.647 842.365 848.529 833.716 853.079 826.981C854.653 824.656 857.424 822.297 860.059 824.109C861.496 825.134 862.077 826.98 861.701 828.724C859.99 836.998 854.345 843.869 847.639 848.895C841.549 853.442 834.603 856.622 827.692 859.733C826.084 860.451 824.339 861.34 823.724 862.947C823.108 864.588 823.86 866.502 825.16 867.733C826.426 868.93 828.137 869.613 829.779 870.229C843.294 875.425 858.108 880.69 871.897 876.246C877.371 874.502 882.332 871.254 886.13 866.947C897.352 854.194 896.77 835.22 902.758 819.322L902.86 818.844Z" fill="#CE5F78"/>
<path d="M439.439 834.561L160.303 840.904L164.006 1003.63L443.142 997.283L439.439 834.561Z" fill="#CFB495"/>
<path d="M439.503 834.604L160.352 840.929L234.322 819.117L373.915 815.938L439.503 834.604Z" fill="#DDCDB4"/>
<path d="M416.715 411.866C409.462 404.447 398.821 408.242 394.408 409.131C391.773 413.678 390.713 424.824 391.465 425.097C392.629 425.541 397.213 426.054 403.03 425.268C409.462 424.413 422.326 417.61 416.715 411.866Z" fill="#F0995A"/>
<path d="M165.312 324.002C163.738 323.216 156.416 339.763 154.842 339.148C140.507 356.139 130.071 375.866 121.279 396.721C135.614 407.9 149.505 417.029 173.66 426.601C191.143 433.541 227.923 450.704 234.834 453.473C237.606 432.926 240.377 412.413 242.088 391.832L165.312 324.002Z" fill="#E8590A"/>
<path d="M398.445 408.721C308.155 421.405 286.155 413.37 272.264 409.2C271.956 409.097 268.946 407.935 268.467 407.729C262.103 404.789 242.088 391.798 242.088 391.798C240.377 412.379 238.803 419.524 236.032 440.072C236.648 440.311 268.603 450.602 315.032 443.901C357.457 437.781 384.178 429.576 404.569 423.798C404.433 417.131 404.022 416.687 403.851 410.02C403.817 407.524 401.011 408.379 398.445 408.721Z" fill="#F0995A"/>
<path d="M148.444 236.651C148.787 235.455 149.231 234.19 150.395 233.472C152.105 232.378 155.321 221.437 157.34 222.155C159.359 222.873 172.155 238.087 172.771 238.908C173.626 240.036 172.531 249.506 172.463 250.839C171.881 263.352 171.607 274.908 172.702 287.455C173.01 291.045 167.296 295.25 168.357 298.737C169.554 302.737 177.321 314.977 168.391 313.883C160.864 312.959 155.664 300.481 153.269 295.523C145.536 279.626 143.62 253.13 148.444 236.651Z" fill="black"/>
<path d="M219.746 249.061C219.609 247.967 219.37 246.839 218.583 246.087C217.385 244.959 215.503 245.232 213.93 245.677C212.356 246.121 210.782 246.634 209.277 247.249C208.49 247.557 207.668 247.933 207.121 248.617C206.368 249.506 203.118 252.002 203.05 253.164C202.331 264.173 200.997 275.147 199.012 285.985C198.431 289.096 197.815 292.173 196.72 295.147C195.454 298.532 188.475 308.481 195.283 308.412C201.031 308.344 206.129 297.951 208.387 293.848C215.572 280.651 221.867 263.968 219.746 249.061Z" fill="#42210B"/>
<path d="M197.644 342.977C197.541 346.088 148.513 327.182 148.513 327.182L161.89 277.369C161.89 277.369 162.54 279.728 163.293 279.318C164.217 278.805 165.551 279.01 166.68 279.25C180.126 281.882 194.564 285.677 198.807 294.908C199.32 296.07 197.917 333.985 197.644 342.977Z" fill="#F0995A"/>
<path d="M223.681 306.908C230.284 298.908 233.466 288.515 234.287 278.156C235.074 267.831 236.579 255.762 234.834 245.54C233.603 238.361 221.217 222.942 200.86 224.036C168.459 225.813 173.899 240.754 171.197 250.805C169.349 257.711 170.444 266.532 171.299 273.609C171.812 277.916 172.326 282.258 173.591 286.395C177.252 298.361 187.106 308.549 197.644 314.976C207.84 321.301 216.359 315.763 223.681 306.908Z" fill="#FFAC73"/>
<path d="M175.797 277.046C175.976 272.008 172.417 267.792 167.847 267.629C163.277 267.467 159.427 271.42 159.247 276.458C159.068 281.496 162.627 285.713 167.197 285.875C171.767 286.037 175.617 282.085 175.797 277.046Z" fill="#FFAC73"/>
<path d="M210.064 923.768C205.958 893.374 207.463 863.083 209.79 834.878C216.667 807.049 231.892 763.459 228.094 732.484L227.444 619.629C227.273 616.62 207.566 523.286 204.658 523.559C195.831 525.166 167.604 519.252 145.707 543.423C119.465 572.449 125.281 581.406 125.418 589.167C126.513 595.56 128.292 605.372 130.961 617.201C140.233 658.193 150.258 679.629 155.595 698.364C158.777 709.51 168.357 757.783 164.97 782.126C164.696 783.972 164.593 785.989 164.593 788.074C161.719 804.04 159.29 821.579 159.119 840.929C158.572 904.93 174.413 956.896 188.44 991.084C201.613 996.555 206.916 996.999 220.054 1002.47C214.101 977.272 214.067 953.546 210.064 923.768Z" fill="#23477C"/>
<path d="M225.015 605.44C225.22 602.432 206.574 491.833 203.665 491.764C194.701 492.243 167.262 494.875 142.457 516.072C112.725 541.508 111.288 574.568 110.433 582.261C110.706 588.756 101.605 599.389 102.153 624.791C103.077 666.808 120.423 676.039 123.331 695.321C125.042 706.774 128.395 755.869 121.929 779.596C121.45 781.408 121.073 783.356 120.799 785.476C115.907 800.963 111.254 818.023 108.619 837.203C99.8948 900.622 108.996 954.195 118.507 989.888C130.858 996.965 136.059 998.127 148.41 1005.2C145.673 979.358 148.684 955.836 148.513 925.785C148.342 896.007 153.371 867.049 159.085 840.075C171.128 813.169 201.51 768.792 201.681 736.621L225.015 605.44Z" fill="#305591"/>
<path d="M215.948 979.221C219.986 981.717 227.273 984.725 231.687 987.118C241.027 992.213 247.186 994.401 256.457 997.17C259.708 998.127 261.966 1001.61 261.829 1005.55C261.795 1006.74 261.761 1007.84 261.761 1008.66C234.047 1007.73 186.901 1009.38 185.737 1008.66C182.624 1006.71 184.54 997.307 186.661 986.777C190.048 987.255 193.47 987.255 198.397 986.537C206.882 985.306 211.911 981.888 215.948 979.221Z" fill="black"/>
<path d="M147.521 979.426C151.558 981.922 158.537 984.76 162.951 987.153C172.291 992.247 178.45 994.435 187.722 997.204C190.972 998.161 193.23 1001.65 193.093 1005.58C193.059 1006.78 193.025 1007.87 193.025 1008.69C165.312 1007.77 118.165 1009.41 117.002 1008.69C113.888 1006.74 115.223 996.794 117.344 986.264C120.731 986.743 124.734 987.29 129.661 986.572C138.18 985.307 143.483 982.059 147.521 979.426Z" fill="black"/>
<path d="M209.242 369.917C207.84 362.464 207.942 362.874 206.676 354.738C206.642 353.199 205.273 347.148 203.152 343.592C201.647 341.062 199.491 338.908 196.823 337.404C196.823 337.404 152.926 309.438 152.447 309.882C151.216 311.113 149.129 313.301 146.597 316.036C174.823 326.088 194.12 346.43 209.242 369.917Z" fill="#FE7016"/>
<path d="M222.38 497.303C222.894 485.679 223.852 476.243 224.467 469.268C226.589 444.892 217.385 413.234 209.242 369.951C194.12 346.464 174.823 326.122 146.597 316.105C136.641 326.84 119.328 346.567 115.496 354.293C100.203 385.233 100.75 444.858 108.859 495.628C120.971 571.526 99.3474 594.398 101.777 628.996C101.777 628.996 224.399 629.953 229.121 624.141C225.597 610.466 224.775 561.748 222.894 536.312C222.688 532.961 222.517 509.405 222.38 497.303Z" fill="#FE7016"/>
<path d="M107.161 582.41L94.9463 675.943L232.823 693.922L245.038 600.389L107.161 582.41Z" fill="#979797"/>
<path d="M111.437 577.819L99.222 671.352L237.099 689.331L249.314 595.798L111.437 577.819Z" fill="#EAEAEA"/>
<path d="M101.742 600.859L91.0335 682.808C90.7598 684.826 92.1967 686.638 94.1811 686.911L234.937 705.27C236.956 705.544 238.769 704.108 239.043 702.125L249.957 620.62C250.231 618.569 248.794 616.654 246.707 616.415C234.287 614.91 195.078 610.09 194.394 610.021L104.993 598.363C103.419 598.124 101.948 599.252 101.742 600.859Z" fill="#333333"/>
<path d="M196.549 670.672C202.81 659.629 193.538 648.518 190.527 643.697C183.65 642.193 169.212 644.894 169.178 645.851C169.109 647.355 170.409 652.894 173.831 659.39C177.663 666.637 191.691 679.253 196.549 670.672Z" fill="#FFAC73"/>
<path d="M150.189 518.089C150.189 517.782 151.113 509.576 150.908 509.132L160.967 449.918C139.378 447.696 124.768 443.695 105.301 429.097C105.164 428.824 104.993 428.584 104.822 428.311C104.685 429.952 104.548 431.627 104.411 433.371C103.008 453.781 96.6444 510.294 97.0208 511.628C97.7051 519.935 117.891 564.346 133.527 591.765C154.74 628.996 161.582 634.842 173.283 652.518C179.579 650.364 183.89 649.612 190.185 647.458C192.58 646.637 190.801 644.21 189.672 641.885C161.343 582.671 150.429 532.551 150.189 518.089Z" fill="#FFAC73"/>
<path d="M167.638 450.396L181.529 393.951C185.19 369.268 175.747 348.379 146.049 345.746C146.049 345.746 127.574 347.011 120.183 366.054C112.691 385.37 107.216 401.336 104.856 428.277C105.027 428.55 105.198 428.789 105.335 429.063C124.768 443.661 146.049 448.174 167.638 450.396Z" fill="#FE7016"/>
<path d="M252.01 247.591C253.344 247.591 255.499 247.455 257.894 246.463C259.571 245.779 261.384 245.061 262.582 243.284C262.616 243.249 262.616 243.215 262.65 243.215C264.669 240.07 262.924 235.796 259.4 234.634C252.523 232.343 238.461 228.925 235.553 226.942C234.868 223.454 230.9 209.677 226.452 204.104C219.472 195.42 210.132 192.753 204.076 191.01C199.731 189.779 186.216 186.121 170.957 191.591C166.646 193.129 158.161 196.172 151.831 204.309C146.939 210.6 145.194 217.54 144.373 220.89C143.928 222.668 143.107 226.326 142.902 231.078C142.559 238.326 143.791 244.378 145.057 248.685C157.613 249.061 251.531 247.078 252.01 247.591Z" fill="#FE7016"/>
<path d="M427.732 409.063L402.208 412.379C401.216 412.516 409.838 410.875 409.701 409.917L409.53 408.858C409.393 407.866 400.532 407.935 401.524 407.798L427.048 404.482C428.04 404.345 428.93 405.029 429.101 405.986L429.272 407.046C429.409 408.003 428.724 408.926 427.732 409.063Z" fill="#F0995A"/>
<path d="M335.252 836.827V913.033L354.378 900.588L372.58 913.99L372.443 836.246L335.252 836.827Z" fill="#EFDFCA"/>
</svg>
