<svg width="221" height="63" viewBox="0 0 221 63" fill="none" xmlns="http://www.w3.org/2000/svg">
<path d="M33.6176 0.274841L66.8374 24.2979L54.0285 63L12.8918 62.8976L0.277405 24.1315L33.6176 0.274841Z" fill="url(#paint0_linear)"/>
<path fill-rule="evenodd" clip-rule="evenodd" d="M42.1001 29.24C43.768 29.24 45.1197 30.5827 45.1197 32.239C45.1197 33.8966 43.768 35.2394 42.1001 35.2394C40.4323 35.2394 39.0793 33.8966 39.0793 32.239C39.0793 30.5827 40.4323 29.24 42.1001 29.24Z" fill="white"/>
<path d="M28.8547 19.5619H32.5463V41.9978H44.9469V45.08H28.8547V19.5619Z" fill="white"/>
<path d="M104.728 45.08L104.69 28.952L96.7792 42.2384H93.976L86.104 29.2976V45.08H80.2672V18.2H85.4128L95.4736 34.904L105.381 18.2H110.488L110.565 45.08H104.728ZM126.35 45.3872C124.174 45.3872 122.216 44.9392 120.475 44.0432C118.76 43.1216 117.416 41.8544 116.443 40.2416C115.47 38.6288 114.984 36.7984 114.984 34.7504C114.984 32.7024 115.47 30.872 116.443 29.2592C117.416 27.6464 118.76 26.392 120.475 25.496C122.216 24.5744 124.174 24.1136 126.35 24.1136C128.526 24.1136 130.471 24.5744 132.187 25.496C133.902 26.392 135.246 27.6464 136.219 29.2592C137.191 30.872 137.678 32.7024 137.678 34.7504C137.678 36.7984 137.191 38.6288 136.219 40.2416C135.246 41.8544 133.902 43.1216 132.187 44.0432C130.471 44.9392 128.526 45.3872 126.35 45.3872ZM126.35 40.472C127.886 40.472 129.14 39.96 130.113 38.936C131.111 37.8864 131.611 36.4912 131.611 34.7504C131.611 33.0096 131.111 31.6272 130.113 30.6032C129.14 29.5536 127.886 29.0288 126.35 29.0288C124.814 29.0288 123.547 29.5536 122.549 30.6032C121.55 31.6272 121.051 33.0096 121.051 34.7504C121.051 36.4912 121.55 37.8864 122.549 38.936C123.547 39.96 124.814 40.472 126.35 40.472ZM161.625 24.4208L152.908 45.08H146.726L138.048 24.4208H144.23L149.952 38.4752L155.865 24.4208H161.625ZM183.744 34.8272C183.744 34.904 183.705 35.4416 183.628 36.44H168C168.281 37.72 168.947 38.7312 169.996 39.4736C171.046 40.216 172.352 40.5872 173.913 40.5872C174.988 40.5872 175.936 40.4336 176.755 40.1264C177.6 39.7936 178.38 39.2816 179.097 38.5904L182.284 42.0464C180.339 44.2736 177.497 45.3872 173.76 45.3872C171.43 45.3872 169.369 44.9392 167.577 44.0432C165.785 43.1216 164.403 41.8544 163.43 40.2416C162.457 38.6288 161.971 36.7984 161.971 34.7504C161.971 32.728 162.444 30.9104 163.392 29.2976C164.364 27.6592 165.683 26.392 167.347 25.496C169.036 24.5744 170.918 24.1136 172.992 24.1136C175.014 24.1136 176.844 24.5488 178.483 25.4192C180.121 26.2896 181.401 27.544 182.323 29.1824C183.27 30.7952 183.744 32.6768 183.744 34.8272ZM173.03 28.6448C171.673 28.6448 170.534 29.0288 169.612 29.7968C168.691 30.5648 168.128 31.6144 167.923 32.9456H178.099C177.894 31.64 177.331 30.6032 176.409 29.8352C175.488 29.0416 174.361 28.6448 173.03 28.6448ZM193.454 27.1472C194.171 26.1488 195.131 25.3936 196.334 24.8816C197.563 24.3696 198.971 24.1136 200.558 24.1136V29.6432C199.892 29.592 199.444 29.5664 199.214 29.5664C197.499 29.5664 196.155 30.0528 195.182 31.0256C194.209 31.9728 193.723 33.4064 193.723 35.3264V45.08H187.732V24.4208H193.454V27.1472ZM211.145 45.3872C209.429 45.3872 207.753 45.1824 206.114 44.7728C204.476 44.3376 203.17 43.8 202.197 43.16L204.194 38.8592C205.116 39.448 206.229 39.9344 207.535 40.3184C208.841 40.6768 210.121 40.856 211.375 40.856C213.909 40.856 215.177 40.2288 215.177 38.9744C215.177 38.3856 214.831 37.9632 214.14 37.7072C213.449 37.4512 212.386 37.2336 210.953 37.0544C209.263 36.7984 207.868 36.504 206.767 36.1712C205.666 35.8384 204.706 35.2496 203.887 34.4048C203.093 33.56 202.697 32.3568 202.697 30.7952C202.697 29.4896 203.068 28.3376 203.81 27.3392C204.578 26.3152 205.679 25.5216 207.113 24.9584C208.572 24.3952 210.287 24.1136 212.258 24.1136C213.717 24.1136 215.164 24.28 216.597 24.6128C218.057 24.92 219.26 25.3552 220.207 25.9184L218.21 30.1808C216.393 29.1568 214.409 28.6448 212.258 28.6448C210.978 28.6448 210.018 28.824 209.378 29.1824C208.738 29.5408 208.418 30.0016 208.418 30.5648C208.418 31.2048 208.764 31.6528 209.455 31.9088C210.146 32.1648 211.247 32.408 212.757 32.6384C214.447 32.92 215.829 33.2272 216.905 33.56C217.98 33.8672 218.914 34.4432 219.708 35.288C220.501 36.1328 220.898 37.3104 220.898 38.8208C220.898 40.1008 220.514 41.24 219.746 42.2384C218.978 43.2368 217.852 44.0176 216.367 44.5808C214.908 45.1184 213.167 45.3872 211.145 45.3872Z" fill="#263A5D"/>
<defs>
<linearGradient id="paint0_linear" x1="0.277405" y1="0.274841" x2="66.8374" y2="0.274841" gradientUnits="userSpaceOnUse">
<stop stop-color="#5E2CED"/>
<stop offset="1" stop-color="#4E62BB"/>
</linearGradient>
</defs>
</svg>
