<svg width="12" height="14" viewBox="0 0 12 14" fill="none" xmlns="http://www.w3.org/2000/svg">
<path d="M11.1196 4.28473C11.1196 4.27171 11.1066 4.25868 11.1066 4.25868C11.0936 4.23263 11.0806 4.20658 11.0675 4.19355L11.0545 4.18052L7.6026 0.924012C7.57655 0.89796 7.55049 0.884934 7.52444 0.871908C7.51142 0.871908 7.51142 0.871908 7.49839 0.858882C7.47234 0.845856 7.44629 0.845856 7.42023 0.845856H7.40721H1.63667C0.803001 0.845856 0.138672 1.52321 0.138672 2.34385V12.3479C0.138672 13.1815 0.816027 13.8459 1.63667 13.8459H9.62164C10.4553 13.8459 11.1196 13.1685 11.1196 12.3479V4.37592C11.1196 4.36289 11.1196 4.36289 11.1196 4.36289C11.1327 4.33684 11.1196 4.31079 11.1196 4.28473ZM7.69378 1.80978L10.1166 4.08934H7.69378V1.80978V1.80978ZM10.5465 12.3609C10.5595 12.8689 10.1427 13.2857 9.63466 13.2857H1.63667C1.12865 13.2857 0.711818 12.8689 0.711818 12.3609V2.35688C0.711818 1.84886 1.12865 1.43203 1.63667 1.43203H7.10761V4.37592C7.10761 4.53223 7.23787 4.66249 7.39418 4.66249H10.5465V12.3609Z" fill="#171717"/>
<path d="M4.77623 3.73762H2.14497C1.98866 3.73762 1.8584 3.86788 1.8584 4.02419C1.8584 4.18051 1.98866 4.31077 2.14497 4.31077H4.77623C4.93255 4.31077 5.06281 4.18051 5.06281 4.02419C5.06281 3.86788 4.93255 3.73762 4.77623 3.73762Z" fill="#EC595A"/>
<path d="M8.67102 6.00417H2.14497C1.98866 6.00417 1.8584 6.13443 1.8584 6.29074C1.8584 6.44705 1.98866 6.57731 2.14497 6.57731H8.67102C8.82734 6.57731 8.9576 6.44705 8.9576 6.29074C8.9576 6.13443 8.82734 6.00417 8.67102 6.00417Z" fill="#EC595A"/>
<path d="M8.67102 7.90594H2.14497C1.98866 7.90594 1.8584 8.03621 1.8584 8.19252C1.8584 8.34883 1.98866 8.47909 2.14497 8.47909H8.67102C8.82734 8.47909 8.9576 8.34883 8.9576 8.19252C8.9576 8.03621 8.82734 7.90594 8.67102 7.90594Z" fill="#EC595A"/>
<path d="M8.67102 9.79474H2.14497C1.98866 9.79474 1.8584 9.925 1.8584 10.0813C1.8584 10.2376 1.98866 10.3679 2.14497 10.3679H8.67102C8.82734 10.3679 8.9576 10.2376 8.9576 10.0813C8.9576 9.925 8.82734 9.79474 8.67102 9.79474Z" fill="#EC595A"/>
</svg>
