<svg width="50" height="51" viewBox="0 0 50 51" fill="none" xmlns="http://www.w3.org/2000/svg">
<g clip-path="url(#clip0)">
<path d="M35.4154 50.0307C35.641 50.041 35.8562 50.0512 36.0817 50.0512C38.4907 50.0512 40.4998 49.1799 42.0785 47.468C42.0887 47.4577 42.1092 47.4372 42.1195 47.427C42.6833 46.7504 43.3188 46.1354 43.9954 45.4896C44.4567 45.0488 44.9282 44.5978 45.369 44.1262C47.4704 41.9326 47.4601 39.1546 45.3485 37.0429L39.5055 31.1999C38.5009 30.1544 37.3016 29.6008 36.0305 29.6008C34.7696 29.6008 33.56 30.1441 32.5247 31.1794L29.0702 34.634C28.7627 34.4597 28.4449 34.3059 28.1374 34.1522C27.7478 33.9574 27.389 33.7729 27.0713 33.5781C23.9038 31.569 21.0335 28.9448 18.2863 25.5723C16.9025 23.8296 15.9901 22.374 15.3443 20.8774C16.2464 20.0573 17.087 19.2065 17.8968 18.3762C18.1941 18.0789 18.4913 17.7714 18.7989 17.4639C20.9925 15.2702 20.9925 12.5537 18.7989 10.3703L15.8979 7.4693C15.5596 7.13103 15.2316 6.79275 14.9035 6.46472C14.2577 5.80867 13.5914 5.12187 12.9251 4.50682C11.9206 3.50224 10.7315 2.97945 9.47061 2.97945C8.22001 2.97945 7.01041 3.50224 5.96483 4.50682L2.32579 8.13561C0.993181 9.46821 0.234621 11.0878 0.0706074 12.9637C-0.113907 15.3009 0.316627 17.7816 1.42372 20.7749C3.1356 25.398 5.70856 29.6931 9.52186 34.2854C14.1655 39.8209 19.7419 44.198 26.1179 47.2835C28.5474 48.4418 31.7969 49.7949 35.4154 50.0307ZM11.4593 32.6761C7.83048 28.3092 5.40103 24.2499 3.79165 19.9035C2.79733 17.2281 2.4283 15.1472 2.58206 13.1688C2.69482 11.8874 3.18686 10.8213 4.10943 9.909L7.72797 6.29046C8.28151 5.75742 8.88631 5.48065 9.48086 5.48065C10.0652 5.48065 10.6392 5.75742 11.1927 6.30071C11.8385 6.90551 12.4638 7.54106 13.1199 8.20736C13.4479 8.54564 13.7862 8.89417 14.1347 9.23245L17.0357 12.1334C18.2248 13.3225 18.2248 14.4911 17.0357 15.6802C16.7282 15.9877 16.4207 16.2953 16.1234 16.6028C15.2213 17.5151 14.3808 18.3762 13.4479 19.2065C13.4274 19.227 13.4172 19.2372 13.3967 19.2577C12.5664 20.0881 12.6894 20.8876 12.8944 21.4822C12.9046 21.5129 12.9149 21.5334 12.9251 21.5642C13.6734 23.3683 14.7293 25.0802 16.3489 27.1304C19.2704 30.7284 22.3456 33.5269 25.7489 35.6898C26.1692 35.9563 26.61 36.1818 27.0405 36.3971C27.43 36.5919 27.7888 36.7764 28.1066 36.9712C28.1476 36.9917 28.1784 37.0122 28.2194 37.0327C28.5474 37.1967 28.8652 37.2787 29.1932 37.2787C30.003 37.2787 30.5155 36.7661 30.6796 36.5919L34.3186 32.9528C34.8721 32.3993 35.4667 32.1123 36.051 32.1123C36.7685 32.1123 37.3528 32.5633 37.7321 32.9528L43.5956 38.8163C45.0307 40.2514 44.3747 41.543 43.5648 42.3938C43.1548 42.8346 42.7243 43.2447 42.2732 43.6854C41.5864 44.3415 40.8791 45.0283 40.2333 45.7971C39.1262 46.9862 37.8141 47.5397 36.1022 47.5397C35.9382 47.5397 35.764 47.5295 35.5999 47.5192C32.4119 47.3142 29.4597 46.0739 27.2353 45.018C21.1668 42.0966 15.8671 37.945 11.4593 32.6761Z" fill="#171717"/>
<path d="M27.4809 9.20171C26.7941 9.08895 26.1483 9.55023 26.0355 10.2268C25.9228 10.9136 26.3841 11.5594 27.0606 11.6722C29.8796 12.1539 32.4423 13.4866 34.4925 15.5265C36.5324 17.5664 37.865 20.1393 38.3468 22.9583C38.4493 23.5734 38.9823 24.0039 39.5871 24.0039C39.6589 24.0039 39.7306 23.9936 39.8024 23.9834C40.4892 23.8706 40.9505 23.2146 40.8275 22.538C40.2637 19.2065 38.6851 16.162 36.2761 13.7531C33.8467 11.3339 30.8124 9.7655 27.4809 9.20171Z" fill="#EC595A"/>
<path d="M48.711 23.5733C48.7827 23.5733 48.8545 23.5631 48.9262 23.5528C49.613 23.4401 50.0743 22.784 49.9513 22.1075C49.0185 16.5925 46.4148 11.5799 42.4272 7.59232C38.4294 3.60475 33.4167 1.00105 27.9018 0.0682227C27.215 -0.0445363 26.5692 0.41675 26.4564 1.0933C26.3437 1.78011 26.8049 2.42591 27.4815 2.53867C32.4737 3.38949 37.025 5.74718 40.6436 9.36571C44.2621 12.9843 46.6198 17.5356 47.4706 22.5278C47.5731 23.1428 48.1062 23.5733 48.711 23.5733Z" fill="#EC595A"/>
</g>
<defs>
<clipPath id="clip0">
<rect width="50" height="50" fill="white" transform="translate(0 0.0512085)"/>
</clipPath>
</defs>
</svg>
