<svg width="47" height="47" viewBox="0 0 47 47" fill="none" xmlns="http://www.w3.org/2000/svg">
<g clip-path="url(#clip0)">
<path d="M41.8413 18.596C40.4792 18.596 39.2576 19.2062 38.4331 20.1667C37.3112 17.6558 34.7919 15.9007 31.8686 15.9007H31.3685C31.1026 15.6033 30.8196 15.3204 30.5209 15.053V14.553C30.5209 11.6299 28.7658 9.11048 26.2548 7.98851C27.2154 7.16402 27.8256 5.94251 27.8256 4.5803C27.8256 2.10332 25.8104 0.0881348 23.3334 0.0881348C20.8564 0.0881348 18.8412 2.10332 18.8412 4.5803C18.8412 5.94242 19.4515 7.16402 20.412 7.98851C17.901 9.11039 16.1459 11.6298 16.1459 14.553V15.0531C15.8472 15.3205 15.5643 15.6034 15.2984 15.9008H14.7982C11.875 15.9008 9.35557 17.6558 8.2337 20.1668C7.40938 19.2062 6.18787 18.596 4.82567 18.596C2.34868 18.596 0.333496 20.6112 0.333496 23.0881C0.333496 25.5651 2.34868 27.5803 4.82567 27.5803C6.18778 27.5803 7.40938 26.9701 8.23388 26.0096C9.35575 28.5205 11.8751 30.2756 14.7984 30.2756H15.3051C15.5699 30.571 15.8506 30.8518 16.146 31.1165V31.6233C16.146 34.5465 17.9011 37.0659 20.4121 38.1878C19.4515 39.0122 18.8413 40.2339 18.8413 41.596C18.8413 44.0729 20.8565 46.0881 23.3335 46.0881C25.8105 46.0881 27.8257 44.0729 27.8257 41.596C27.8257 40.2339 27.2155 39.0122 26.2549 38.1878C28.7658 37.0659 30.5209 34.5465 30.5209 31.6233V31.1166C30.8164 30.8519 31.0971 30.5711 31.3619 30.2756H31.8686C34.7918 30.2756 37.3112 28.5205 38.4331 26.0096C39.2576 26.9701 40.4792 27.5803 41.8413 27.5803C44.3183 27.5803 46.3335 25.5651 46.3335 23.0881C46.3335 20.6112 44.3184 18.596 41.8413 18.596ZM23.3336 1.885C24.8198 1.885 26.0289 3.09412 26.0289 4.5803C26.0289 6.06649 24.8198 7.27561 23.3336 7.27561C21.8474 7.27561 20.6383 6.06649 20.6383 4.5803C20.6383 3.09412 21.8474 1.885 23.3336 1.885ZM23.3336 9.16241C26.0203 9.16241 28.2538 11.1382 28.6583 13.7131C28.334 13.5288 27.9987 13.3594 27.6519 13.2076C27.1972 13.0086 26.6675 13.216 26.4687 13.6705C26.2698 14.1251 26.4769 14.6548 26.9315 14.8537C30.2036 16.2856 32.3179 19.5178 32.3179 23.088C32.3179 28.042 28.2876 32.0724 23.3336 32.0724C18.3795 32.0724 14.3492 28.042 14.3492 23.088C14.3492 19.5181 16.4634 16.2861 19.7351 14.8539C20.1897 14.655 20.3969 14.1252 20.1979 13.6707C19.999 13.2161 19.4691 13.0089 19.0146 13.2079C18.6681 13.3595 18.333 13.5289 18.0089 13.7131C18.4133 11.1383 20.6468 9.16241 23.3336 9.16241ZM4.82567 25.7834C3.33948 25.7834 2.13036 24.5743 2.13036 23.0881C2.13036 21.6019 3.33948 20.3928 4.82567 20.3928C6.31186 20.3928 7.52097 21.6019 7.52097 23.0881C7.52097 24.5743 6.31186 25.7834 4.82567 25.7834ZM9.40777 23.0881C9.40777 20.4007 11.3848 18.1666 13.9607 17.7629C13.0562 19.3546 12.5523 21.1809 12.5523 23.0881C12.5523 25.0237 13.0654 26.8416 13.9622 28.4136C11.3856 28.0106 9.40777 25.7762 9.40777 23.0881ZM23.3336 44.2913C21.8474 44.2913 20.6383 43.0822 20.6383 41.596C20.6383 40.1098 21.8474 38.9007 23.3336 38.9007C24.8198 38.9007 26.0289 40.1098 26.0289 41.596C26.0289 43.0822 24.8198 44.2913 23.3336 44.2913ZM23.3336 37.0139C20.6457 37.0139 18.4112 35.0361 18.0081 32.4594C19.58 33.3562 21.3979 33.8693 23.3336 33.8693C25.2692 33.8693 27.0871 33.3562 28.659 32.4595C28.2559 35.0361 26.0215 37.0139 23.3336 37.0139ZM32.7049 28.4136C33.6017 26.8417 34.1148 25.0238 34.1148 23.0881C34.1148 21.1809 33.6109 19.3546 32.7065 17.7629C35.2824 18.1666 37.2593 20.4007 37.2593 23.0881C37.2592 25.7762 35.2815 28.0106 32.7049 28.4136ZM41.8413 25.7834C40.3551 25.7834 39.146 24.5743 39.146 23.0881C39.146 21.6019 40.3551 20.3928 41.8413 20.3928C43.3275 20.3928 44.5366 21.6019 44.5366 23.0881C44.5366 24.5743 43.3275 25.7834 41.8413 25.7834Z" fill="#171717"/>
<path d="M17.9429 23.0883C17.9429 26.0606 20.3611 28.4789 23.3335 28.4789C26.3059 28.4789 28.7241 26.0606 28.7241 23.0883C28.7241 20.1159 26.3059 17.6976 23.3335 17.6976C20.3611 17.6976 17.9429 20.1159 17.9429 23.0883ZM26.9273 23.0883C26.9273 25.0699 25.3151 26.682 23.3335 26.682C21.3519 26.682 19.7397 25.0699 19.7397 23.0883C19.7397 21.1067 21.3519 19.4945 23.3335 19.4945C25.3151 19.4945 26.9273 21.1067 26.9273 23.0883Z" fill="#EC595A"/>
<path d="M23.3338 14.1039C23.8301 14.1039 24.2323 13.7017 24.2323 13.2054C24.2323 12.7092 23.8301 12.307 23.3338 12.307H23.3331C22.8369 12.307 22.4351 12.7092 22.4351 13.2054C22.4351 13.7017 22.8376 14.1039 23.3338 14.1039Z" fill="#EC595A"/>
</g>
<defs>
<clipPath id="clip0">
<rect width="46" height="46" fill="white" transform="translate(0.333496 0.0881348)"/>
</clipPath>
</defs>
</svg>
