<svg width="77" height="78" viewBox="0 0 77 78" fill="none" xmlns="http://www.w3.org/2000/svg">
<path d="M70.532 6.87234H59.3542V2.26518C59.3542 1.37968 58.6355 0.661011 57.75 0.661011C56.8645 0.661011 56.1458 1.37968 56.1458 2.26518V6.87234H20.8542V2.26518C20.8542 1.37968 20.1355 0.661011 19.25 0.661011C18.3645 0.661011 17.6458 1.37968 17.6458 2.26518V6.87234H6.468C2.90033 6.87234 0 9.77268 0 13.3371V71.193C0 74.7607 2.90033 77.661 6.468 77.661H70.5352C74.0997 77.661 77 74.7607 77 71.193V13.3371C77 9.77268 74.0997 6.87234 70.532 6.87234ZM73.7917 26.1223H57.75C56.8645 26.1223 56.1458 26.841 56.1458 27.7265C56.1458 28.612 56.8645 29.3307 57.75 29.3307H73.7917V71.1962C73.7917 72.9897 72.3287 74.4527 70.532 74.4527H6.468C4.67133 74.4527 3.20833 72.9897 3.20833 71.193V29.3307H19.25C20.1355 29.3307 20.8542 28.612 20.8542 27.7265C20.8542 26.841 20.1355 26.1223 19.25 26.1223H3.20833V13.3371C3.20833 11.5405 4.67133 10.0775 6.468 10.0775H17.6458V11.8902C17.6458 12.7757 18.3645 13.4943 19.25 13.4943C20.1355 13.4943 20.8542 12.7757 20.8542 11.8902V10.0807H56.1458V11.8902C56.1458 12.7757 56.8645 13.4943 57.75 13.4943C58.6355 13.4943 59.3542 12.7757 59.3542 11.8902V10.0807H70.532C72.3287 10.0807 73.7917 11.5437 73.7917 13.3403V26.1223Z" fill="#171717"/>
<path d="M38.5001 24.6208C28.7724 24.6208 20.8542 32.539 20.8542 42.2667C20.8542 51.9944 28.7724 59.9125 38.5001 59.9125C48.2277 59.9125 56.1459 51.9944 56.1459 42.2667C56.1459 32.539 48.2277 24.6208 38.5001 24.6208ZM38.5001 56.7042C30.5402 56.7042 24.0626 50.2266 24.0626 42.2667C24.0626 34.3068 30.5402 27.8292 38.5001 27.8292C46.46 27.8292 52.9376 34.3068 52.9376 42.2667C52.9376 50.2266 46.46 56.7042 38.5001 56.7042Z" fill="#EC595A"/>
<path d="M44.5572 37.2649L36.6455 45.1798L33.219 41.7533C32.5933 41.1277 31.5763 41.1277 30.9507 41.7533C30.325 42.3789 30.325 43.396 30.9507 44.0216L35.5129 48.5839C35.8145 48.8854 36.222 49.0523 36.6487 49.0523C37.0754 49.0523 37.4828 48.8822 37.7844 48.5839L46.8287 39.5364C47.4543 38.9107 47.4543 37.8937 46.8287 37.2681C46.2031 36.6424 45.1828 36.6392 44.5572 37.2649Z" fill="#171717"/>
</svg>
