<svg width="77" height="78" viewBox="0 0 77 78" fill="none" xmlns="http://www.w3.org/2000/svg">
<path d="M5.80708 77.661H36.5493C37.4348 77.661 38.1535 76.9423 38.1535 76.0568C38.1535 75.1713 37.4348 74.4527 36.5493 74.4527H5.80708C4.37296 74.4527 3.20833 73.2881 3.20833 71.8539V6.46809C3.20833 5.03397 4.37296 3.86934 5.80708 3.86934H41.7083V18.3068C41.7083 19.1923 42.427 19.911 43.3125 19.911H57.75V35.2757C57.75 36.1612 58.4687 36.8799 59.3542 36.8799C60.2397 36.8799 60.9583 36.1612 60.9583 35.2757V18.3068C60.9583 18.0983 60.9166 17.8898 60.8364 17.6941C60.7562 17.4951 60.6375 17.3187 60.4867 17.1711L44.4483 1.13264C44.3007 0.985052 44.121 0.866344 43.9253 0.782927C43.7296 0.702719 43.521 0.661011 43.3125 0.661011H5.80708C2.60517 0.661011 0 3.26618 0 6.46809V71.8539C0 75.0558 2.60517 77.661 5.80708 77.661ZM44.9167 6.13764L55.4817 16.7027H44.9167V6.13764Z" fill="black"/>
<path d="M47.7657 35.5997C47.9453 36.4691 48.8084 37.0178 49.6618 36.8509C50.5312 36.6713 51.0863 35.8243 50.913 34.9548C48.9303 25.3106 40.3384 18.3068 30.4792 18.3068C18.9805 18.3068 9.625 27.6623 9.625 39.1609C9.625 50.6596 18.9805 60.0151 30.4792 60.0151C31.3647 60.0151 32.0833 59.2964 32.0833 58.4109C32.0833 57.5254 31.3647 56.8068 30.4792 56.8068C20.7515 56.8068 12.8333 48.8886 12.8333 39.1609C12.8333 29.4333 20.7515 21.5151 30.4792 21.5151C38.824 21.5151 46.0909 27.4377 47.7657 35.5997Z" fill="black"/>
<path d="M30.4792 29.7896C29.5937 29.7896 28.875 30.5082 28.875 31.3937V39.1611C28.875 40.0466 29.5937 40.7653 30.4792 40.7653H36.5493C37.4348 40.7653 38.1535 40.0466 38.1535 39.1611C38.1535 38.2756 37.4348 37.5569 36.5493 37.5569H32.0833V31.3937C32.0833 30.5082 31.3647 29.7896 30.4792 29.7896Z" fill="black"/>
<path d="M75.396 43.7938C74.5105 43.7938 73.7918 44.5124 73.7918 45.3979V47.278C70.5418 44.1852 66.1784 42.3693 61.6033 42.3693C51.8757 42.3693 43.9575 50.2874 43.9575 60.0151C43.9575 69.7428 51.8757 77.6609 61.6033 77.6609C62.4888 77.6609 63.2075 76.9423 63.2075 76.0568C63.2075 75.1713 62.4888 74.4526 61.6033 74.4526C53.6435 74.4526 47.1659 67.975 47.1659 60.0151C47.1659 52.0552 53.6435 45.5776 61.6033 45.5776C65.6362 45.5776 69.4541 47.3133 72.1588 50.2104H68.9793C68.0938 50.2104 67.3751 50.9291 67.3751 51.8146C67.3751 52.7001 68.0938 53.4188 68.9793 53.4188H75.396C75.4345 53.4188 75.4698 53.3995 75.5083 53.3963C75.6141 53.3899 75.7104 53.361 75.8131 53.3353C75.9189 53.3065 76.0216 53.2776 76.1178 53.2295C76.1499 53.2134 76.1852 53.2134 76.2173 53.1942C76.2751 53.1621 76.3071 53.1076 76.3585 53.0658C76.4483 52.9985 76.5285 52.9311 76.6023 52.8445C76.6697 52.7643 76.721 52.6841 76.7724 52.5942C76.8237 52.5076 76.8686 52.421 76.9007 52.3215C76.936 52.2156 76.952 52.1066 76.9681 51.9943C76.9713 51.9333 77.0001 51.8788 77.0001 51.8146V45.3979C77.0001 44.5124 76.2815 43.7938 75.396 43.7938Z" fill="#EC595A"/>
</svg>
