<svg width="50" height="51" viewBox="0 0 50 51" fill="none" xmlns="http://www.w3.org/2000/svg">
<g clip-path="url(#clip0)">
<path d="M24.9995 0.0511932C14.8148 0.0511932 6.5293 8.33672 6.5293 18.5214C6.5293 21.8743 8.03299 25.4804 8.09601 25.6325C8.58167 26.7852 9.53994 28.5757 10.2309 29.6253L22.895 48.8137C23.4133 49.6003 24.1803 50.0512 24.9995 50.0512C25.8187 50.0512 26.5858 49.6003 27.104 48.8148L39.7692 29.6253C40.4613 28.5757 41.4185 26.7852 41.9041 25.6325C41.9672 25.4814 43.4698 21.8754 43.4698 18.5214C43.4698 8.33672 35.1842 0.0511932 24.9995 0.0511932ZM39.9007 24.7893C39.4672 25.8226 38.5751 27.4882 37.9548 28.4291L25.2896 47.6185C25.0397 47.9977 24.9604 47.9977 24.7105 47.6185L12.0454 28.4291C11.425 27.4882 10.533 25.8215 10.0995 24.7883C10.081 24.7437 8.70227 21.4245 8.70227 18.5214C8.70227 9.53511 16.0132 2.22416 24.9995 2.22416C33.9858 2.22416 41.2968 9.53511 41.2968 18.5214C41.2968 21.4289 39.9148 24.7568 39.9007 24.7893Z" fill="#171717"/>
<path d="M24.9991 8.74416C19.6068 8.74416 15.2207 13.1314 15.2207 18.5225C15.2207 23.9136 19.6068 28.3009 24.9991 28.3009C30.3913 28.3009 34.7774 23.9136 34.7774 18.5225C34.7774 13.1314 30.3913 8.74416 24.9991 8.74416ZM24.9991 26.1279C20.8063 26.1279 17.3937 22.7163 17.3937 18.5225C17.3937 14.3287 20.8063 10.9171 24.9991 10.9171C29.1918 10.9171 32.6045 14.3287 32.6045 18.5225C32.6045 22.7163 29.1918 26.1279 24.9991 26.1279Z" fill="#EC595A"/>
</g>
<defs>
<clipPath id="clip0">
<rect width="50" height="50" fill="white" transform="translate(0 0.0511932)"/>
</clipPath>
</defs>
</svg>
