<svg width="46" height="47" viewBox="0 0 46 47" fill="none" xmlns="http://www.w3.org/2000/svg">
<g clip-path="url(#clip0)">
<path d="M32.8811 26.9371C32.8806 26.9232 32.8802 26.9093 32.879 26.8954C32.8774 26.8763 32.8748 26.8575 32.872 26.8389C32.8703 26.8274 32.869 26.8159 32.8667 26.8044C32.8626 26.7823 32.8572 26.7608 32.8515 26.7393C32.8494 26.7311 32.8477 26.723 32.8453 26.7149C32.8373 26.688 32.8279 26.6617 32.8175 26.6359C32.8163 26.6331 32.8155 26.6301 32.8144 26.6274C32.802 26.5974 32.788 26.5682 32.7726 26.5399L23.7884 10.0989C23.6309 9.81068 23.3286 9.63135 23 9.63135C22.6714 9.63135 22.3691 9.81068 22.2116 10.099L13.2274 26.54C13.212 26.5682 13.198 26.5974 13.1856 26.6275C13.1845 26.6302 13.1837 26.6331 13.1825 26.636C13.1721 26.6618 13.1627 26.6881 13.1547 26.715C13.1523 26.723 13.1506 26.7312 13.1485 26.7394C13.1427 26.7609 13.1374 26.7823 13.1333 26.8044C13.1311 26.8159 13.1298 26.8274 13.128 26.8389C13.1252 26.8576 13.1226 26.8764 13.121 26.8955C13.1198 26.9094 13.1193 26.9233 13.1189 26.9372C13.1184 26.9486 13.1172 26.9597 13.1172 26.9712C13.1172 26.9771 13.118 26.9828 13.1181 26.9887C13.1184 27.0028 13.1193 27.0168 13.1202 27.0309C13.1214 27.0488 13.1228 27.0666 13.1251 27.0842C13.1267 27.0966 13.1287 27.1089 13.1308 27.1213C13.134 27.1407 13.1379 27.16 13.1423 27.1789C13.1449 27.1896 13.1476 27.2003 13.1506 27.2109C13.1563 27.2314 13.1627 27.2515 13.1697 27.2714C13.1717 27.277 13.173 27.2828 13.1751 27.2884L16.4153 35.8747C16.1553 36.0035 15.9149 36.1747 15.7037 36.3858C15.1945 36.8951 14.9141 37.5719 14.9141 38.2915C14.9141 39.4627 15.6652 40.4614 16.7109 40.8323V45.7485C16.7109 46.2447 17.1132 46.647 17.6094 46.647H28.3906C28.8868 46.647 29.2891 46.2447 29.2891 45.7485V40.8338C29.6636 40.7017 30.0071 40.4865 30.2964 40.1972C30.8055 39.6879 31.0859 39.0112 31.0859 38.2915C31.0859 37.2338 30.4733 36.3169 29.5844 35.8759L32.825 27.2884C32.8271 27.2828 32.8284 27.277 32.8303 27.2714C32.8374 27.2515 32.8438 27.2314 32.8495 27.2109C32.8524 27.2003 32.8551 27.1896 32.8577 27.1789C32.8622 27.16 32.866 27.1407 32.8693 27.1213C32.8714 27.1089 32.8735 27.0966 32.875 27.0842C32.8772 27.0666 32.8787 27.0488 32.8799 27.0309C32.8807 27.0168 32.8817 27.0028 32.882 26.9887C32.8821 26.9829 32.8829 26.9771 32.8829 26.9712C32.8828 26.9597 32.8816 26.9486 32.8811 26.9371ZM23 26.0728C23.4954 26.0728 23.8984 26.4758 23.8984 26.9712C23.8984 27.4666 23.4954 27.8696 23 27.8696C22.5046 27.8696 22.1016 27.4666 22.1016 26.9712C22.1016 26.4758 22.5046 26.0728 23 26.0728ZM27.4922 44.8501H18.5078V40.9868H27.4922V44.8501ZM29.0257 38.9265C28.8559 39.0964 28.6303 39.1899 28.3906 39.1899H17.6094C17.114 39.1899 16.7109 38.7869 16.7109 38.2915C16.7109 38.0518 16.8045 37.8262 16.9743 37.6565C17.1442 37.4866 17.3697 37.3931 17.6094 37.3931H28.3846C28.3866 37.3931 28.3886 37.3933 28.3905 37.3933C28.3915 37.3933 28.3926 37.3932 28.3936 37.3932C28.8876 37.3949 29.2892 37.7971 29.2892 38.2915C29.2891 38.5312 29.1955 38.7568 29.0257 38.9265ZM27.7694 35.5962H18.2306L15.3149 27.8696H17.6094C18.1056 27.8696 18.5078 27.4674 18.5078 26.9712C18.5078 26.475 18.1056 26.0728 17.6094 26.0728H15.5304L22.1016 14.0475V24.4304C21.0559 24.8013 20.3047 25.7999 20.3047 26.9712C20.3047 28.4574 21.5138 29.6665 23 29.6665C24.4862 29.6665 25.6953 28.4574 25.6953 26.9712C25.6953 25.8 24.9441 24.8013 23.8984 24.4304V14.0475L30.4696 26.0728H28.3906C27.8944 26.0728 27.4922 26.475 27.4922 26.9712C27.4922 27.4674 27.8944 27.8696 28.3906 27.8696H30.6851L27.7694 35.5962Z" fill="#171717"/>
<path fill-rule="evenodd" clip-rule="evenodd" d="M40.7639 2.44385C41.1348 1.39816 42.1335 0.646973 43.3047 0.646973C44.7909 0.646973 46 1.85609 46 3.34229C46 4.82848 44.7909 6.0376 43.3047 6.0376C42.1334 6.0376 41.1348 5.28641 40.7639 4.24072H31.7316C33.6478 5.04258 35.4052 6.08351 36.8517 7.30296C37.2311 7.6228 37.2794 8.18963 36.9595 8.56886C36.7819 8.77972 36.5279 8.88825 36.2722 8.88825C36.0677 8.88834 35.8621 8.81889 35.6936 8.67676C33.1158 6.50371 29.437 4.95166 25.6953 4.4311V5.13916C25.6953 5.63537 25.2931 6.0376 24.7969 6.0376H21.2031C20.7069 6.0376 20.3047 5.63537 20.3047 5.13916V4.4311C16.563 4.95166 12.8842 6.50371 10.3064 8.67685C10.1379 8.81898 9.93232 8.88834 9.72783 8.88834C9.47223 8.88834 9.21824 8.77981 9.04053 8.56895C8.72068 8.18963 8.76893 7.6228 9.14834 7.30296C10.5948 6.08351 12.3522 5.04258 14.2684 4.24072H5.23609C4.86522 5.28641 3.86652 6.0376 2.69531 6.0376C1.20912 6.0376 0 4.82848 0 3.34229C0 1.85609 1.20912 0.646973 2.69531 0.646973C3.86652 0.646973 4.86522 1.39816 5.23609 2.44385H20.3047V1.54541C20.3047 1.0492 20.7069 0.646973 21.2031 0.646973H24.7969C25.2931 0.646973 25.6953 1.0492 25.6953 1.54541V2.44385H40.7639ZM1.79688 3.34229C1.79688 3.83768 2.19991 4.24072 2.69531 4.24072C3.19071 4.24072 3.59375 3.83768 3.59375 3.34229C3.59375 2.84689 3.19071 2.44385 2.69531 2.44385C2.19991 2.44385 1.79688 2.84689 1.79688 3.34229ZM23.8984 3.42314V3.34229V2.44385H22.1016V3.34229V3.42314V4.24072H23.8984V3.42314ZM42.4062 3.34229C42.4062 3.83768 42.8093 4.24072 43.3047 4.24072C43.8001 4.24072 44.2031 3.83768 44.2031 3.34229C44.2031 2.84689 43.8001 2.44385 43.3047 2.44385C42.8093 2.44385 42.4062 2.84689 42.4062 3.34229ZM7.1875 9.63135C6.69156 9.63135 6.28906 10.0338 6.28906 10.5298C6.28906 11.0257 6.69156 11.4282 7.1875 11.4282C7.68344 11.4282 8.08594 11.0257 8.08594 10.5298C8.08594 10.0338 7.68344 9.63135 7.1875 9.63135ZM38.8125 9.63135C38.3166 9.63135 37.9141 10.0338 37.9141 10.5298C37.9141 11.0257 38.3166 11.4282 38.8125 11.4282C39.3084 11.4282 39.7109 11.0257 39.7109 10.5298C39.7109 10.0338 39.3084 9.63135 38.8125 9.63135ZM44.0272 20.4127H45.1017C45.5979 20.4127 46.0002 20.8149 46.0002 21.3111V24.9049C46.0002 25.4011 45.5979 25.8033 45.1017 25.8033H41.508C41.0118 25.8033 40.6095 25.4011 40.6095 24.9049V21.3111C40.6095 20.8149 41.0118 20.4127 41.508 20.4127H42.2154C41.8914 18.1354 41.1603 15.9643 40.0365 13.9462C39.7951 13.5127 39.9509 12.9655 40.3844 12.7241C40.818 12.4827 41.365 12.6386 41.6064 13.072C42.8799 15.3587 43.6913 17.8248 44.0272 20.4127ZM42.4064 24.0064H44.2033V22.2095H43.2239H43.2229H43.222H42.4064V24.0064ZM5.61568 12.7241C5.1821 12.4826 4.63495 12.6383 4.39363 13.0719C3.12027 15.3586 2.30871 17.8248 1.97297 20.4126H0.898438C0.402231 20.4126 0 20.8148 0 21.3111V24.9048C0 25.401 0.402231 25.8032 0.898438 25.8032H4.49219C4.98839 25.8032 5.39062 25.401 5.39062 24.9048V21.3111C5.39062 20.8148 4.98839 20.4126 4.49219 20.4126H3.78467C4.10873 18.1353 4.83979 15.9643 5.96356 13.9461C6.20497 13.5126 6.04927 12.9655 5.61568 12.7241ZM3.59375 22.2095V24.0064H1.79688V22.2095H2.77626H2.77725H2.77815H3.59375Z" fill="#EC595A"/>
</g>
<defs>
<clipPath id="clip0">
<rect width="46" height="46" fill="white" transform="translate(0 0.646973)"/>
</clipPath>
</defs>
</svg>
