<svg width="46" height="47" viewBox="0 0 46 47" fill="none" xmlns="http://www.w3.org/2000/svg">
<g clip-path="url(#clip0)">
<path d="M42.8009 37.8155L35.8107 27.5715C36.6534 27.1955 37.6018 26.7665 38.0967 25.9113C38.5885 25.0612 38.4869 24.0664 38.3886 23.1044C38.3229 22.4596 38.2607 21.8506 38.3877 21.3754C38.5063 20.9314 38.8548 20.4516 39.2238 19.9437C39.7757 19.1841 40.4011 18.3232 40.4011 17.3021C40.4011 16.2811 39.7756 15.4202 39.2238 14.6606C38.8549 14.1527 38.5064 13.673 38.3877 13.229C38.2607 12.7537 38.3228 12.1448 38.3886 11.5C38.4869 10.5379 38.5885 9.54308 38.0967 8.69302C37.5972 7.82992 36.6354 7.40085 35.7869 7.02226C35.2021 6.76136 34.6498 6.51502 34.3121 6.17723C33.9742 5.83943 33.7278 5.28709 33.467 4.70232C33.0884 3.85378 32.6594 2.89195 31.7963 2.39253C30.9458 1.90066 29.951 2.00227 28.989 2.10046C28.3445 2.16641 27.7355 2.22857 27.2602 2.10154C26.8163 1.98286 26.3366 1.63437 25.8286 1.2654C25.069 0.713601 24.208 0.0881348 23.1869 0.0881348C22.1658 0.0881348 21.3049 0.713601 20.5452 1.2654C20.0375 1.63428 19.5577 1.98277 19.1137 2.10145C18.6385 2.22857 18.0295 2.16623 17.3849 2.10046C16.4227 2.00218 15.4279 1.90057 14.5778 2.39253C13.7147 2.89195 13.2856 3.85378 12.907 4.70232C12.6462 5.28709 12.3998 5.83943 12.062 6.17714C11.7243 6.51493 11.172 6.76128 10.5872 7.02217C9.73855 7.40076 8.77673 7.82974 8.27731 8.69293C7.78543 9.54299 7.88704 10.5379 7.98524 11.5001C8.051 12.1448 8.11326 12.7538 7.98631 13.229C7.86764 13.6729 7.51915 14.1526 7.15017 14.6605C6.59829 15.4202 5.97291 16.2811 5.97291 17.3021C5.97291 18.3232 6.59838 19.1842 7.15017 19.9438C7.51906 20.4516 7.86755 20.9313 7.98622 21.3754C8.11326 21.8505 8.05109 22.4595 7.98524 23.1042C7.88704 24.0664 7.78543 25.0612 8.27731 25.9113C8.7168 26.6709 9.5144 27.0942 10.2779 27.4429L3.2 37.8155C2.8807 38.2834 2.82527 38.8728 3.05158 39.3921C3.27798 39.9113 3.74748 40.2719 4.30754 40.3564L7.05279 40.771C7.05324 40.7711 7.05368 40.7713 7.05413 40.7713L8.95263 41.0579C9.04023 41.0711 9.11569 41.1228 9.16008 41.1995L10.1155 42.8562L11.5069 45.2689C11.7899 45.7596 12.2968 46.0653 12.8629 46.0868C12.884 46.0876 12.9051 46.088 12.9263 46.088C13.4681 46.088 13.9694 45.8241 14.2767 45.3738L21.9016 34.1997C22.3014 34.3891 22.7279 34.5161 23.1871 34.5161C23.5373 34.5161 23.8683 34.4414 24.1832 34.3224L31.7243 45.3737C32.0316 45.8241 32.5329 46.0879 33.0748 46.0879C33.0958 46.0879 33.117 46.0875 33.1381 46.0867C33.7042 46.0652 34.2111 45.7594 34.4942 45.2688L35.8855 42.8561L36.841 41.1994C36.8853 41.1227 36.9608 41.071 37.0486 41.0578L38.9469 40.7712L38.9483 40.771L41.6935 40.3563C42.2536 40.2718 42.7232 39.9112 42.9495 39.392C43.1756 38.8728 43.1201 38.2834 42.8009 37.8155ZM6.83681 39.3756L4.50879 39.0239C4.37133 39.0032 4.31078 38.9083 4.28688 38.8536C4.26298 38.799 4.23468 38.69 4.31311 38.5751L11.5099 28.0284C11.7243 28.15 11.9144 28.2795 12.062 28.4271C12.3998 28.7648 12.6462 29.3172 12.907 29.9019C12.9581 30.0163 13.0102 30.1328 13.064 30.25L6.83681 39.3756ZM13.1634 44.6143C13.0851 44.729 12.9738 44.7431 12.9138 44.7402C12.8541 44.738 12.7436 44.7162 12.6742 44.5957L11.498 42.5562L15.6943 36.4065C15.9041 36.0991 15.8249 35.6799 15.5175 35.4701C15.2099 35.2603 14.7909 35.3395 14.5811 35.6469L10.7507 41.2603L10.3273 40.5261C10.077 40.0921 9.64925 39.8003 9.15379 39.7255L8.31576 39.5989L13.8146 31.5406C14.0269 31.8044 14.2752 32.0368 14.5776 32.2118C15.2218 32.5845 15.9493 32.6163 16.6825 32.5671L16.3351 33.0762C16.1253 33.3837 16.2045 33.8029 16.5119 34.0126C16.8194 34.2223 17.2385 34.1432 17.4483 33.8358L18.4073 32.4306C18.6632 32.4285 18.9022 32.4464 19.1137 32.5029C19.5577 32.6215 20.0375 32.97 20.5454 33.339C20.6141 33.3889 20.684 33.4395 20.7543 33.49L13.1634 44.6143ZM23.1869 33.1687C22.6037 33.1687 21.9886 32.7218 21.3374 32.2488C20.7523 31.8238 20.1474 31.3843 19.4617 31.201C19.1305 31.1126 18.7891 31.0818 18.4445 31.0818C18.046 31.0818 17.6433 31.1229 17.2479 31.1633C16.465 31.2431 15.7251 31.3186 15.2526 31.0454C14.7674 30.7647 14.4615 30.0789 14.1377 29.3529C13.8384 28.682 13.5289 27.9882 13.0149 27.4742C12.5009 26.9602 11.8071 26.6507 11.1362 26.3514C10.4102 26.0276 9.72454 25.7217 9.44388 25.2365C9.1705 24.7641 9.24605 24.0243 9.32592 23.2411C9.40121 22.5039 9.47901 21.7415 9.28819 21.0274C9.10482 20.3417 8.66542 19.7368 8.24047 19.1517C7.76728 18.5005 7.32051 17.8854 7.32051 17.3021C7.32051 16.7189 7.76737 16.1037 8.24047 15.4525C8.66542 14.8675 9.10482 14.2626 9.28819 13.5769C9.47901 12.8629 9.40121 12.1004 9.32592 11.3632C9.24596 10.5799 9.1705 9.84018 9.44388 9.36772C9.72454 8.88258 10.4103 8.57667 11.1362 8.2528C11.8072 7.95354 12.501 7.64404 13.015 7.13007C13.529 6.616 13.8385 5.92226 14.1378 5.25133C14.4616 4.52534 14.7675 3.83959 15.2527 3.55893C15.7252 3.28554 16.465 3.36119 17.248 3.44097C17.9852 3.51643 18.7476 3.59423 19.4618 3.40323C20.1474 3.21996 20.7523 2.78055 21.3374 2.35561C21.9886 1.8826 22.6037 1.43574 23.1869 1.43574C23.7701 1.43574 24.3853 1.8826 25.0365 2.3557C25.6216 2.78064 26.2265 3.22005 26.9122 3.40341C27.6262 3.59414 28.3886 3.51643 29.1259 3.44115C29.9091 3.3611 30.6488 3.28572 31.1214 3.55911C31.6065 3.83977 31.9124 4.52543 32.2362 5.25133C32.5356 5.92235 32.845 6.61609 33.359 7.13025C33.8731 7.64422 34.5668 7.95372 35.2378 8.25298C35.9637 8.57685 36.6494 8.88276 36.9301 9.3679C37.2035 9.84036 37.1279 10.58 37.048 11.3632C36.9728 12.1005 36.895 12.8629 37.0858 13.577C37.2691 14.2627 37.7085 14.8676 38.1335 15.4527C38.6067 16.1039 39.0535 16.7191 39.0535 17.3022C39.0535 17.8855 38.6066 18.5006 38.1335 19.1518C37.7085 19.7369 37.2691 20.3418 37.0859 21.0275C36.895 21.7416 36.9728 22.504 37.048 23.2414C37.128 24.0245 37.2035 24.7641 36.9302 25.2366C36.6494 25.7218 35.9637 26.0277 35.2377 26.3515C34.5668 26.6508 33.873 26.9603 33.3589 27.4743C32.845 27.9883 32.5355 28.6821 32.2362 29.3531C31.9123 30.079 31.6064 30.7647 31.1213 31.0454C30.6489 31.3189 29.9091 31.2432 29.126 31.1634C28.3887 31.0882 27.6265 31.0104 26.9122 31.2011C26.2265 31.3844 25.6216 31.8239 25.0364 32.2489C24.3853 32.7218 23.7702 33.1687 23.1869 33.1687ZM33.3267 44.5957C33.2572 44.7163 33.1467 44.738 33.0871 44.7402C33.027 44.743 32.9158 44.729 32.8374 44.6143L25.3679 33.6678C25.5256 33.5589 25.6791 33.4475 25.8286 33.339C26.3365 32.9701 26.8163 32.6217 27.2603 32.5029C27.3679 32.4741 27.4831 32.4563 27.6033 32.4448L34.5031 42.5563L33.3267 44.5957ZM36.8469 39.7255C36.3514 39.8003 35.9238 40.0921 35.6734 40.5261L35.25 41.2603L29.2956 32.5342C30.1602 32.6167 31.036 32.6514 31.796 32.2118C32.0036 32.0917 32.1856 31.9443 32.3483 31.7786L37.6847 39.5989L36.8469 39.7255ZM41.7139 38.8536C41.69 38.9083 41.6295 39.0032 41.492 39.0239L39.164 39.3756L33.1566 30.5721C33.2678 30.3478 33.3691 30.1211 33.4668 29.902C33.7277 29.3172 33.9741 28.7649 34.3119 28.4272C34.396 28.3431 34.4934 28.2647 34.6013 28.1903L41.6876 38.5752C41.7661 38.69 41.7378 38.799 41.7139 38.8536Z" fill="#171717"/>
<path d="M34.4996 17.3021C34.4996 11.0643 29.4247 5.98938 23.1868 5.98938C16.9489 5.98938 11.874 11.0643 11.874 17.3021C11.874 23.5401 16.9489 28.615 23.1868 28.615C29.4247 28.615 34.4996 23.5401 34.4996 17.3021ZM23.1868 27.2674C17.692 27.2674 13.2216 22.7969 13.2216 17.3021C13.2216 11.8073 17.692 7.33707 23.1868 7.33707C28.6816 7.33707 33.152 11.8074 33.152 17.3022C33.152 22.797 28.6817 27.2674 23.1868 27.2674Z" fill="#EC595A"/>
<path d="M27.6504 11.4709C26.9725 11.4709 26.3351 11.7349 25.8556 12.2143L21.4143 16.6556L20.5174 15.7586C20.0379 15.2793 19.4005 15.0153 18.7226 15.0153C18.0446 15.0153 17.4071 15.2793 16.9277 15.7587C15.9382 16.7484 15.9382 18.3585 16.9277 19.3483L20.217 22.6374C20.5367 22.9573 20.9618 23.1334 21.4141 23.1334C21.8663 23.1334 22.2915 22.9573 22.611 22.6375L24.7341 20.5146C24.9974 20.2515 24.9974 19.8248 24.7342 19.5618C24.471 19.2985 24.0444 19.2986 23.7814 19.5617L21.6582 21.6847C21.5278 21.815 21.3003 21.8151 21.1699 21.6846L17.8806 18.3955C17.4164 17.9312 17.4164 17.1759 17.8806 16.7117C18.1055 16.4867 18.4045 16.3629 18.7225 16.3629C19.0404 16.3629 19.3394 16.4867 19.5643 16.7117L20.8617 18.0091C21.1664 18.3136 21.6619 18.3136 21.9666 18.0091L26.8085 13.1673C27.0333 12.9423 27.3323 12.8185 27.6503 12.8185C27.9683 12.8185 28.2672 12.9423 28.4921 13.1673C28.9564 13.6315 28.9564 14.3868 28.4922 14.851L25.9908 17.3521C25.7276 17.6153 25.7276 18.0419 25.9907 18.305C26.2539 18.568 26.6805 18.5682 26.9436 18.3051L29.445 15.8039C29.9244 15.3245 30.1883 14.687 30.1883 14.0091C30.1883 13.3311 29.9244 12.6937 29.445 12.2143C28.9659 11.735 28.3285 11.4709 27.6504 11.4709Z" fill="#EC595A"/>
</g>
<defs>
<clipPath id="clip0">
<rect width="46" height="46" fill="white" transform="translate(0 0.0881348)"/>
</clipPath>
</defs>
</svg>
