<svg width="46" height="47" viewBox="0 0 46 47" fill="none" xmlns="http://www.w3.org/2000/svg">
<path fill-rule="evenodd" clip-rule="evenodd" d="M5.09906 43.944H40.9009C43.7124 43.944 46 41.6568 46 38.845V14.7605V8.45831C46 5.64688 43.7124 3.35925 40.9009 3.35925H5.09906C2.28763 3.35925 0 5.64688 0 8.45831V14.7605V38.845C0 41.6568 2.28763 43.944 5.09906 43.944ZM1.51887 14.0011V8.45831C1.51887 6.48429 3.12504 4.87812 5.09906 4.87812H40.9009C42.875 4.87812 44.4811 6.48429 44.4811 8.45831V14.0011H1.51887ZM1.51887 15.52H44.4811V38.845C44.4811 40.819 42.875 42.4252 40.9009 42.4252H5.09906C3.12504 42.4252 1.51887 40.819 1.51887 38.845V15.52Z" fill="#171717"/>
<path fill-rule="evenodd" clip-rule="evenodd" d="M21.1025 36.0052C21.1555 36.0162 21.208 36.0217 21.2601 36.0217C21.6115 36.0217 21.9268 35.7763 22.0022 35.4187L25.0649 20.8771C25.1514 20.4665 24.8886 20.0638 24.4784 19.9774C24.0678 19.8909 23.6652 20.1537 23.5787 20.5639L20.516 35.1055C20.4295 35.5157 20.6923 35.9187 21.1025 36.0052ZM18.1494 32.883C17.9757 32.883 17.8007 32.8233 17.6578 32.7016L12.7436 28.5171C12.574 28.3726 12.4766 28.1616 12.4766 27.9387C12.4766 27.7162 12.5745 27.5051 12.7436 27.3606L17.6578 23.1761C17.977 22.904 18.4563 22.9426 18.7283 23.2617C19 23.5812 18.9618 24.0605 18.6423 24.3322L14.4074 27.9387L18.6423 31.5451C18.9618 31.8172 19 32.2965 18.7283 32.6156C18.5779 32.7923 18.3643 32.883 18.1494 32.883ZM27.8506 32.883C27.6358 32.883 27.4222 32.7923 27.2722 32.6156C27.0001 32.2965 27.0386 31.8172 27.3578 31.5451L31.5927 27.9387L27.3578 24.3322C27.0386 24.0605 27.0001 23.5812 27.2722 23.2617C27.5438 22.9426 28.0235 22.904 28.3422 23.1761L33.2565 27.3606C33.426 27.5051 33.5235 27.7162 33.5235 27.9387C33.5235 28.1616 33.426 28.3726 33.2565 28.5171L28.3422 32.7016C28.1994 32.8233 28.0244 32.883 27.8506 32.883Z" fill="#EC595A"/>
<path fill-rule="evenodd" clip-rule="evenodd" d="M5.59131 11.8625C4.26611 11.8625 3.18799 10.7844 3.18799 9.45923C3.18799 8.13403 4.26611 7.05591 5.59131 7.05591C6.9165 7.05591 7.99463 8.13403 7.99463 9.45923C7.99463 10.7844 6.9165 11.8625 5.59131 11.8625ZM5.59131 8.57478C5.10395 8.57478 4.70686 8.97187 4.70686 9.45923C4.70686 9.94701 5.10395 10.3437 5.59131 10.3437C6.07909 10.3437 6.47576 9.94701 6.47576 9.45923C6.47576 8.97187 6.07909 8.57478 5.59131 8.57478ZM12.9756 11.8859C11.6508 11.8859 10.5723 10.8073 10.5723 9.48254C10.5723 8.15735 11.6508 7.07922 12.9756 7.07922C14.3008 7.07922 15.3789 8.15735 15.3789 9.48254C15.3789 10.8073 14.3008 11.8859 12.9756 11.8859ZM12.9756 8.59809C12.4882 8.59809 12.0911 8.99476 12.0911 9.48254C12.0911 9.97033 12.4882 10.367 12.9756 10.367C13.4634 10.367 13.86 9.97033 13.86 9.48254C13.86 8.99476 13.4634 8.59809 12.9756 8.59809ZM17.957 9.50544C17.957 10.8306 19.0352 11.9088 20.3599 11.9088C21.6851 11.9088 22.7632 10.8306 22.7632 9.50544C22.7632 8.18066 21.6851 7.10254 20.3599 7.10254C19.0352 7.10254 17.957 8.18066 17.957 9.50544ZM19.4759 9.50544C19.4759 9.01765 19.8726 8.62098 20.3599 8.62098C20.8477 8.62098 21.2444 9.01765 21.2444 9.50544C21.2444 9.99322 20.8477 10.3899 20.3599 10.3899C19.8726 10.3899 19.4759 9.99322 19.4759 9.50544Z" fill="#EC595A"/>
</svg>
