<svg width="50" height="51" viewBox="0 0 50 51" fill="none" xmlns="http://www.w3.org/2000/svg">
<path d="M44.5652 1.1382H5.43475C2.43913 1.1382 0 3.57733 0 6.57294V30.486C0 33.4816 2.43913 35.9207 5.43475 35.9207H9.7826C10.3826 35.9207 10.8696 35.4338 10.8696 34.8338C10.8696 34.2338 10.3826 33.7468 9.7826 33.7468H5.43475C3.63689 33.7468 2.17388 32.2838 2.17388 30.4859V6.57294C2.17388 4.77508 3.63689 3.31208 5.43475 3.31208H44.5652C46.363 3.31208 47.826 4.77508 47.826 6.57294V30.486C47.826 32.2839 46.363 33.7469 44.5652 33.7469H40.2173C39.6173 33.7469 39.1303 34.2339 39.1303 34.8339C39.1303 35.4339 39.6173 35.9209 40.2173 35.9209H44.5652C47.5608 35.9209 49.9999 33.4817 49.9999 30.4861V6.57294C50 3.57733 47.5609 1.1382 44.5652 1.1382Z" fill="#171717"/>
<path fill-rule="evenodd" clip-rule="evenodd" d="M45.4479 5.93592C45.0957 5.44893 44.4174 5.33806 43.9304 5.69248L27.0391 17.8903C25.8022 18.7837 24.2001 18.7837 22.9631 17.8903L6.07177 5.69248C5.58264 5.33816 4.90438 5.44903 4.55435 5.93592C4.20217 6.42291 4.3109 7.10331 4.79779 7.45335L21.6891 19.6511C22.6782 20.3664 23.8391 20.7251 25 20.7251C26.1609 20.7251 27.3217 20.3685 28.313 19.6511L45.2043 7.45335C45.6892 7.10331 45.8 6.42291 45.4479 5.93592ZM17.0722 18.849C16.6483 18.4251 15.9591 18.4251 15.5352 18.849L4.66559 29.7186C4.24168 30.1425 4.24168 30.8317 4.66559 31.2556C4.87867 31.4664 5.15686 31.573 5.43516 31.573C5.71345 31.573 5.99164 31.4665 6.20258 31.2556L17.0722 20.386C17.4961 19.9621 17.4961 19.2729 17.0722 18.849ZM34.4633 18.849L45.3329 29.7186C45.7568 30.1425 45.7568 30.8317 45.3329 31.2556C45.122 31.4665 44.8438 31.573 44.5655 31.573C44.2872 31.573 44.009 31.4664 43.7959 31.2556L32.9263 20.386C32.5024 19.9621 32.5024 19.2729 32.9263 18.849C33.3502 18.4251 34.0394 18.4251 34.4633 18.849Z" fill="#EC595A"/>
<path fill-rule="evenodd" clip-rule="evenodd" d="M25.0004 25.0511C18.4069 25.0511 13.0439 30.4143 13.0439 37.0077C13.0439 43.6012 18.4069 48.9642 25.0004 48.9642C28.1222 48.9642 31.0743 47.7707 33.3135 45.6011C33.7461 45.1837 33.757 44.4946 33.3396 44.0641C32.9222 43.6316 32.2353 43.625 31.8026 44.038C29.97 45.8141 27.5526 46.7902 25.0004 46.7902C19.6069 46.7902 15.2178 42.4011 15.2178 37.0076C15.2178 31.6141 19.6069 27.225 25.0004 27.225C30.3829 27.225 34.7652 31.5963 34.783 36.9748C34.7826 36.9857 34.7825 36.9967 34.7825 37.0077C34.7825 39.4469 34.2347 40.2686 32.6086 40.2686C31.1735 40.2686 30.4432 39.1834 30.4348 37.045C30.4349 37.0326 30.4349 37.0202 30.4349 37.0077C30.4349 34.0121 27.9959 31.5729 25.0002 31.5729C22.0046 31.5729 19.5654 34.012 19.5654 37.0076C19.5654 40.0032 22.0046 42.4425 25.0002 42.4425C26.6382 42.4425 28.1098 41.7132 29.1073 40.5624C29.8474 41.7741 31.0479 42.4425 32.6086 42.4425C36.9197 42.4425 36.9561 38.4201 36.9565 37.0424C36.9568 37.0308 36.957 37.0192 36.957 37.0076C36.957 30.4143 31.5939 25.0511 25.0004 25.0511ZM28.261 36.9853C28.2608 36.9928 28.2607 37.0002 28.2607 37.0077C28.2607 37.0208 28.2608 37.0338 28.2608 37.0468C28.2398 38.8266 26.785 40.2686 25.0002 40.2686C23.2023 40.2686 21.7393 38.8056 21.7393 37.0077C21.7393 35.2099 23.2023 33.7469 25.0002 33.7469C26.7906 33.7469 28.2489 35.1977 28.261 36.9853Z" fill="#171717"/>
</svg>
