<svg width="77" height="78" viewBox="0 0 77 78" fill="none" xmlns="http://www.w3.org/2000/svg">
<path d="M71.3496 77.657C71.1924 77.657 71.032 77.6345 70.8748 77.5864C70.0279 77.3233 69.5563 76.425 69.8193 75.5781L73.4991 63.7463C73.6916 63.1304 73.7878 62.4887 73.7878 61.8471C73.7878 58.7609 71.5806 56.1205 68.5425 55.5655L55.636 53.2236C54.8725 53.0856 54.3175 52.4183 54.3175 51.6451V32.9351C54.3175 31.4433 53.1016 30.2274 51.6066 30.2274C50.1148 30.2274 48.8989 31.4433 48.8989 32.9351V66.0177C48.8989 66.6658 48.5075 67.2529 47.9076 67.4999C47.314 67.7469 46.6211 67.6154 46.1591 67.1534L40.1823 61.1734C39.0402 60.0377 37.1891 60.0377 36.0598 61.1734C34.9241 62.3091 34.9241 64.157 36.0598 65.2927L45.6907 74.9236C46.3163 75.5492 46.3163 76.5662 45.6907 77.1918C45.0651 77.8174 44.0481 77.8174 43.4225 77.1918L33.7916 67.5609C31.4047 65.174 31.4047 61.2921 33.7916 58.9052C36.1785 56.5216 40.0572 56.5183 42.4505 58.9052L45.6907 62.1455V32.9383C45.6907 29.6756 48.3439 27.0225 51.6066 27.0225C54.8725 27.0225 57.5256 29.6756 57.5256 32.9383V50.3105L69.1167 52.4119C73.6852 53.2396 76.996 57.2081 76.996 61.8439C76.996 62.8096 76.8516 63.772 76.5629 64.696L72.8831 76.5277C72.6682 77.2142 72.033 77.657 71.3496 77.657Z" fill="#EC595A"/>
<path d="M27.1378 40.8849C26.7111 40.8849 26.3037 40.7148 26.0021 40.4165L17.7956 32.2068C17.17 31.5812 17.17 30.5642 17.7956 29.9386C18.4212 29.313 19.4382 29.313 20.0638 29.9386L27.1378 37.0126L42.2867 21.8604C42.9123 21.2348 43.9293 21.2348 44.5549 21.8604C45.1805 22.486 45.1805 23.503 44.5549 24.1286L28.2735 40.4133C27.9719 40.7148 27.5645 40.8849 27.1378 40.8849Z" fill="black"/>
<path d="M23.2528 60.7051C23.1213 60.7051 22.9865 60.689 22.8518 60.6537C9.39993 57.1857 0 45.0492 0 31.1386C0 14.3342 13.6732 0.661011 30.4776 0.661011C43.7979 0.661011 55.466 9.1819 59.5179 21.8606C59.7874 22.7075 59.319 23.609 58.4785 23.8785C57.6219 24.1448 56.73 23.6796 56.4605 22.8391C52.8385 11.4918 42.3959 3.86918 30.4776 3.86918C15.4409 3.86918 3.20817 16.1019 3.20817 31.1386C3.20817 43.5863 11.6136 54.4459 23.6538 57.545C24.5136 57.7664 25.0269 58.6422 24.8055 59.4988C24.6195 60.2238 23.9682 60.7051 23.2528 60.7051Z" fill="black"/>
</svg>
