<svg width="12" height="14" viewBox="0 0 12 14" fill="none" xmlns="http://www.w3.org/2000/svg">
<path d="M11.1196 4.28473C11.1196 4.2717 11.1066 4.25867 11.1066 4.25867C11.0936 4.23262 11.0806 4.20657 11.0675 4.19354L11.0545 4.18052L7.6026 0.924004C7.57655 0.897952 7.55049 0.884926 7.52444 0.8719C7.51142 0.8719 7.51142 0.8719 7.49839 0.858874C7.47234 0.845848 7.44629 0.845848 7.42023 0.845848H7.40721H1.63667C0.803001 0.845848 0.138672 1.5232 0.138672 2.34384V12.3479C0.138672 13.1815 0.816027 13.8458 1.63667 13.8458H9.62164C10.4553 13.8458 11.1196 13.1685 11.1196 12.3479V4.37591C11.1196 4.36288 11.1196 4.36288 11.1196 4.36288C11.1327 4.33683 11.1196 4.31078 11.1196 4.28473ZM7.69378 1.80978L10.1166 4.08933H7.69378V1.80978V1.80978ZM10.5465 12.3609C10.5595 12.8689 10.1427 13.2857 9.63466 13.2857H1.63667C1.12865 13.2857 0.711818 12.8689 0.711818 12.3609V2.35687C0.711818 1.84885 1.12865 1.43202 1.63667 1.43202H7.10761V4.37591C7.10761 4.53222 7.23787 4.66248 7.39418 4.66248H10.5465V12.3609Z" fill="#6A737C"/>
<path d="M4.77623 3.73761H2.14497C1.98866 3.73761 1.8584 3.86787 1.8584 4.02418C1.8584 4.1805 1.98866 4.31076 2.14497 4.31076H4.77623C4.93255 4.31076 5.06281 4.1805 5.06281 4.02418C5.06281 3.86787 4.93255 3.73761 4.77623 3.73761Z" fill="#6A737C"/>
<path d="M8.67102 6.00416H2.14497C1.98866 6.00416 1.8584 6.13442 1.8584 6.29073C1.8584 6.44704 1.98866 6.57731 2.14497 6.57731H8.67102C8.82734 6.57731 8.9576 6.44704 8.9576 6.29073C8.9576 6.13442 8.82734 6.00416 8.67102 6.00416Z" fill="#6A737C"/>
<path d="M8.67102 7.90594H2.14497C1.98866 7.90594 1.8584 8.0362 1.8584 8.19251C1.8584 8.34882 1.98866 8.47908 2.14497 8.47908H8.67102C8.82734 8.47908 8.9576 8.34882 8.9576 8.19251C8.9576 8.0362 8.82734 7.90594 8.67102 7.90594Z" fill="#6A737C"/>
<path d="M8.67102 9.79473H2.14497C1.98866 9.79473 1.8584 9.92499 1.8584 10.0813C1.8584 10.2376 1.98866 10.3679 2.14497 10.3679H8.67102C8.82734 10.3679 8.9576 10.2376 8.9576 10.0813C8.9576 9.92499 8.82734 9.79473 8.67102 9.79473Z" fill="#6A737C"/>
</svg>
