<svg width="158" height="44" viewBox="0 0 158 44" fill="none" xmlns="http://www.w3.org/2000/svg">
<path d="M29.05 2.61719L21.597 6.92883L0.314453 43.8571L42.9401 43.8301L50.393 39.5185L29.05 2.61719ZM23.8168 11.2674L7.73375 39.1822L1.8146 42.606L21.8458 7.85035L23.8168 11.2674ZM22.2966 7.29877L28.0074 3.9961L24.2068 10.5948L22.2966 7.29877ZM24.2068 11.94L39.893 39.0678L8.56109 39.088L24.2068 11.94ZM8.07007 39.7607L40.2832 39.7405L42.2607 43.1575L2.14419 43.1844L8.07007 39.7607ZM41.0566 39.7405L48.671 39.7338L42.9603 43.0364L41.0566 39.7405ZM40.6732 39.0678L24.597 11.2674L28.9288 3.75396L49.3504 39.0678H40.6732Z" fill="black"/>
<path d="M28.061 35.0152H22.934L21.9814 37.3708H18.4826L23.8347 25.2463H27.2123L32.5817 37.3708H29.0136L28.061 35.0152ZM27.0564 32.4864L25.4975 28.6065L23.9386 32.4864H27.0564Z" fill="black"/>
<path d="M67.4779 20.3815C67.4944 20.3155 67.5027 20.266 67.5027 20.233C67.5027 20.2 67.4862 20.1835 67.4532 20.1835C67.4367 20.1835 67.3872 20.2248 67.3047 20.3073C67.2388 20.3897 67.148 20.5052 67.0326 20.6537C66.9171 20.8021 66.6696 21.0826 66.2902 21.495C65.9273 21.9074 65.5479 22.295 65.152 22.6579C64.0798 23.6807 63.0075 24.4642 61.9353 25.0086C61.6714 25.1406 61.3827 25.2066 61.0693 25.2066C59.8651 25.2066 59.263 24.2993 59.263 22.4847C59.263 20.8681 60.03 18.9216 61.5641 16.6452C62.29 15.5894 63.156 14.5584 64.1623 13.5522C65.185 12.5294 66.2655 11.6221 67.4037 10.8303C68.5419 10.0385 69.7791 9.40344 71.1153 8.92506C72.4515 8.43018 73.7547 8.18274 75.0248 8.18274C75.2393 8.18274 75.528 8.25697 75.8909 8.40543C76.5012 8.66937 76.8064 8.9498 76.8064 9.24673C76.8064 9.41169 76.6992 9.50242 76.4847 9.51891C76.4023 9.51891 76.361 9.5519 76.361 9.61789C76.361 9.68387 76.4765 9.81584 76.7074 10.0138C76.9549 10.1952 77.0786 10.3767 77.0786 10.5582C77.0786 10.7231 77.0209 10.8716 76.9054 11.0035C76.0806 11.9108 75.4208 12.6696 74.9259 13.28C74.431 13.8738 74.0516 14.3192 73.7877 14.6162C73.5402 14.9131 73.2515 15.2595 72.9216 15.6554C72.6082 16.0348 72.2535 16.5214 71.8576 17.1153C71.4617 17.6927 71.0988 18.27 70.7689 18.8474C70.0101 20.2495 69.6307 21.5362 69.6307 22.7074C69.6307 23.8621 69.7379 24.9591 69.9523 25.9984C70.1668 27.0541 70.3895 27.6975 70.6204 27.9284C70.6204 27.9779 70.5627 28.0026 70.4472 28.0026C69.6884 28.0026 69.0368 27.7057 68.4924 27.1119C67.5027 26.0066 67.0078 24.555 67.0078 22.7569C67.0078 22.1136 67.1645 21.3218 67.4779 20.3815ZM70.7194 14.8141L75.4702 10.0385C75.5857 9.92306 75.6434 9.84058 75.6434 9.79109C75.6434 9.74161 75.6022 9.71686 75.5197 9.71686C74.2495 9.91482 72.9051 10.4344 71.4865 11.2757C70.0678 12.117 68.7811 13.0903 67.6264 14.1955C66.4717 15.3007 65.4077 16.4307 64.4344 17.5854C63.4612 18.7402 62.7024 19.7794 62.158 20.7032C61.6301 21.6269 61.3662 22.2868 61.3662 22.6827C61.3662 22.7487 61.4074 22.7817 61.4899 22.7817C61.5889 22.7817 61.7703 22.7239 62.0343 22.6085C62.2982 22.4765 63.2055 21.7507 64.7561 20.431C66.3232 19.0948 68.311 17.2225 70.7194 14.8141ZM83.7867 8.13325C84.2651 7.73735 84.8095 7.5394 85.4198 7.5394C86.0302 7.5394 86.3353 7.66312 86.3353 7.91056C86.3353 8.00953 86.2611 8.158 86.1126 8.35595C85.9807 8.65287 85.3621 9.7746 84.2568 11.7211C81.3701 16.7689 79.9267 20.1341 79.9267 21.8166C79.9267 21.9486 79.9597 22.0146 80.0256 22.0146C80.1246 22.0146 80.2896 21.8496 80.5205 21.5197C81.1968 20.3485 82.0629 19.0041 83.1186 17.4865C84.1744 15.9688 85.1724 14.6327 86.1126 13.4779C87.0529 12.3232 88.1169 11.2427 89.3046 10.2365C90.4923 9.23023 91.5728 8.60339 92.5461 8.35595C94.1627 8.09201 95.2102 7.96004 95.6885 7.96004C95.738 7.97654 95.7628 8.01778 95.7628 8.08376C95.7628 8.13325 95.6721 8.20748 95.4906 8.30646C93.6266 9.3457 91.3089 11.3252 88.5376 14.245C85.7827 17.1483 83.2918 20.1341 81.0649 23.2023C80.471 24.2086 80.0091 24.8354 79.6792 25.0828C79.3493 25.3303 78.9534 25.454 78.4915 25.454C77.6337 25.454 77.2048 24.5467 77.2048 22.7322C77.2048 21.9404 77.3615 21.1321 77.675 20.3073C78.8297 17.2225 79.9102 15.0121 80.9164 13.6759C81.4773 12.8511 81.7577 12.3975 81.7577 12.315C81.7577 12.2655 81.6587 12.3645 81.4608 12.6119C77.3533 17.7751 74.45 21.1568 72.7509 22.7569C71.5797 23.9776 70.2518 25.2313 68.7671 26.518C67.2825 27.8047 66.0948 28.6872 65.204 29.1656C64.9236 29.3965 64.6267 29.512 64.3132 29.512C63.9998 29.512 63.6204 29.38 63.175 29.1161C62.7296 28.8522 62.5069 28.547 62.5069 28.2006C62.5069 28.0191 62.6059 27.8542 62.8039 27.7057L66.8619 24.291C67.1093 24.0766 67.266 23.9694 67.332 23.9694C67.3815 23.9694 67.4062 24.0024 67.4062 24.0683C67.4062 24.1178 67.3815 24.1921 67.332 24.291C67.2825 24.39 67.2083 24.4972 67.1093 24.6127C66.9938 24.7282 66.8784 24.8354 66.7629 24.9344L66.3422 25.3798C65.8309 25.8911 65.5752 26.1716 65.5752 26.2211C65.5752 26.2871 65.5917 26.32 65.6247 26.32C65.6577 26.32 65.7401 26.2706 65.8721 26.1716C67.4557 25.0828 69.7404 23.0373 72.7262 20.0351C75.7119 17.0163 78.3018 14.278 80.4958 11.8201L83.7867 8.13325ZM91.1587 20.3815C91.1752 20.3155 91.1834 20.266 91.1834 20.233C91.1834 20.2 91.1669 20.1835 91.1339 20.1835C91.1174 20.1835 91.0679 20.2248 90.9855 20.3073C90.9195 20.3897 90.8287 20.5052 90.7133 20.6537C90.5978 20.8021 90.3504 21.0826 89.971 21.495C89.608 21.9074 89.2286 22.295 88.8327 22.6579C87.7605 23.6807 86.6883 24.4642 85.616 25.0086C85.3521 25.1406 85.0634 25.2066 84.75 25.2066C83.5458 25.2066 82.9437 24.2993 82.9437 22.4847C82.9437 20.8681 83.7107 18.9216 85.2449 16.6452C85.9707 15.5894 86.8367 14.5584 87.843 13.5522C88.8657 12.5294 89.9462 11.6221 91.0844 10.8303C92.2227 10.0385 93.4599 9.40344 94.796 8.92506C96.1322 8.43018 97.4354 8.18274 98.7056 8.18274C98.92 8.18274 99.2087 8.25697 99.5716 8.40543C100.182 8.66937 100.487 8.9498 100.487 9.24673C100.487 9.41169 100.38 9.50242 100.165 9.51891C100.083 9.51891 100.042 9.5519 100.042 9.61789C100.042 9.68387 100.157 9.81584 100.388 10.0138C100.636 10.1952 100.759 10.3767 100.759 10.5582C100.759 10.7231 100.702 10.8716 100.586 11.0035C99.7613 11.9108 99.1015 12.6696 98.6066 13.28C98.1117 13.8738 97.7323 14.3192 97.4684 14.6162C97.2209 14.9131 96.9323 15.2595 96.6023 15.6554C96.2889 16.0348 95.9342 16.5214 95.5383 17.1153C95.1424 17.6927 94.7795 18.27 94.4496 18.8474C93.6908 20.2495 93.3114 21.5362 93.3114 22.7074C93.3114 23.8621 93.4186 24.9591 93.6331 25.9984C93.8475 27.0541 94.0702 27.6975 94.3011 27.9284C94.3011 27.9779 94.2434 28.0026 94.1279 28.0026C93.3691 28.0026 92.7175 27.7057 92.1732 27.1119C91.1834 26.0066 90.6885 24.555 90.6885 22.7569C90.6885 22.1136 90.8452 21.3218 91.1587 20.3815ZM94.4001 14.8141L99.151 10.0385C99.2664 9.92306 99.3242 9.84058 99.3242 9.79109C99.3242 9.74161 99.2829 9.71686 99.2004 9.71686C97.9303 9.91482 96.5858 10.4344 95.1672 11.2757C93.7485 12.117 92.4618 13.0903 91.3071 14.1955C90.1524 15.3007 89.0884 16.4307 88.1152 17.5854C87.1419 18.7402 86.3831 19.7794 85.8387 20.7032C85.3108 21.6269 85.0469 22.2868 85.0469 22.6827C85.0469 22.7487 85.0882 22.7817 85.1706 22.7817C85.2696 22.7817 85.4511 22.7239 85.715 22.6085C85.9789 22.4765 86.8862 21.7507 88.4368 20.431C90.0039 19.0948 91.9917 17.2225 94.4001 14.8141ZM100.118 21.6682C101.306 20.3155 102.84 18.501 104.721 16.2245C106.601 13.9481 107.987 12.3315 108.878 11.3747C109.769 10.4179 110.536 9.69212 111.179 9.19724C112.68 8.07552 114.206 7.51465 115.757 7.51465C116.103 7.51465 116.491 7.65487 116.92 7.9353C117.365 8.21573 117.588 8.65287 117.588 9.24673C117.588 9.82409 117.035 10.7149 115.93 11.9191C115.385 12.5129 114.594 13.1233 113.554 13.7501C112.532 14.3605 111.385 14.8554 110.115 15.2348C109.637 15.3172 109.282 15.3585 109.051 15.3585C108.837 15.3585 108.729 15.3337 108.729 15.2842C108.729 15.2348 108.787 15.177 108.903 15.111C110.288 14.3522 111.839 13.2058 113.554 11.6716C115.287 10.1375 116.153 9.13126 116.153 8.65287C116.153 8.58689 116.103 8.5539 116.004 8.5539C115.922 8.5539 115.823 8.57039 115.707 8.60339C115.608 8.63638 115.493 8.66937 115.361 8.70236C115.229 8.73535 114.948 8.87557 114.519 9.12301C114.091 9.35395 113.637 9.65088 113.159 10.0138C112.697 10.3602 112.111 10.9046 111.402 11.6469C110.709 12.3727 110.008 13.214 109.298 14.1708C106.577 17.9813 104.812 20.3238 104.003 21.198C103.871 21.3465 103.706 21.528 103.508 21.7424C103.921 21.7919 104.539 21.8496 105.364 21.9156C106.189 21.9816 106.742 22.0393 107.022 22.0888C107.319 22.1218 107.748 22.2043 108.309 22.3363C108.87 22.4682 109.315 22.6332 109.645 22.8311C110.503 23.359 111.327 24.0766 112.119 24.9839C112.301 25.1818 112.391 25.3138 112.391 25.3798C112.391 25.4458 112.367 25.4788 112.317 25.4788C112.235 25.4788 112.128 25.4458 111.996 25.3798C111.748 25.3138 111.385 25.2231 110.907 25.1076C110.445 24.9921 109.439 24.8437 107.888 24.6622C106.337 24.4807 104.911 24.39 103.607 24.39C102.321 24.39 101.38 24.3983 100.787 24.4148C99.9123 25.2396 98.6833 26.0066 97.0997 26.7159C95.5161 27.4253 94.3284 27.7799 93.5366 27.7799C92.7283 27.7799 91.9695 27.5655 91.2602 27.1366C90.5508 26.7242 90.1962 26.1633 90.1962 25.454C90.1962 24.9426 90.5838 24.3818 91.3591 23.7714C93.1407 22.3693 96.0605 21.6682 100.118 21.6682ZM91.5571 26.1716C91.5571 26.3365 91.755 26.4438 92.1509 26.4933C92.6623 26.4933 93.0995 26.4603 93.4624 26.3943C93.8253 26.3448 94.3614 26.1633 95.0707 25.8499C95.7636 25.5365 96.4976 25.0746 97.2729 24.4642C96.2172 24.4642 95.0047 24.654 93.6356 25.0334C92.2499 25.4128 91.5571 25.7922 91.5571 26.1716ZM124.064 8.43018C125.252 7.67136 126.258 7.29196 127.083 7.29196C127.841 7.29196 128.32 7.58064 128.518 8.158C128.584 8.35595 128.617 8.51266 128.617 8.62813C128.617 9.25498 128.262 10.2365 127.553 11.5727C126.843 12.9088 125.903 14.3605 124.732 15.9276C123.561 17.4782 122.299 18.9711 120.946 20.4062C119.593 21.8414 118.183 23.0373 116.715 23.9941C115.247 24.9509 113.96 25.4293 112.855 25.4293C112.08 25.4293 111.362 25.0993 110.702 24.4395C110.042 23.7797 109.712 22.9796 109.712 22.0393C109.712 21.0826 109.976 20.0186 110.504 18.8474C111.032 17.6597 111.758 16.4637 112.682 15.2595C113.622 14.0553 114.653 12.9336 115.775 11.8943C116.896 10.8386 118.117 9.9808 119.437 9.32096C120.773 8.66112 122.043 8.3312 123.247 8.3312C123.577 8.3312 123.849 8.36419 124.064 8.43018ZM112.212 23.5487C113.053 23.5487 114.694 22.4765 117.136 20.332C119.577 18.1875 121.829 15.9523 123.891 13.6264C125.969 11.284 127.008 9.82409 127.008 9.24673C127.008 9.19724 126.975 9.1725 126.909 9.1725C126.349 9.1725 125.557 9.50242 124.534 10.1623C123.528 10.8221 122.563 11.5644 121.639 12.3892C120.715 13.214 119.915 13.9481 119.239 14.5914C118.579 15.2348 118.2 15.6307 118.101 15.7791C118.002 15.9276 117.919 16.0018 117.853 16.0018C117.82 16.0018 117.804 15.9606 117.804 15.8781L117.853 15.5069C118.035 14.9131 118.587 13.9481 119.511 12.6119L119.981 11.9191C120.097 11.7046 120.154 11.5809 120.154 11.5479C120.154 11.4984 120.138 11.4737 120.105 11.4737C119.973 11.4737 119.75 11.6139 119.437 11.8943C118.2 13.0161 117.103 14.1543 116.146 15.309C115.189 16.4472 114.455 17.437 113.944 18.2783C113.449 19.1031 113.045 19.8949 112.731 20.6537C112.236 21.8084 111.989 22.5837 111.989 22.9796C111.989 23.359 112.063 23.5487 112.212 23.5487ZM142.433 10.3849C142.928 10.5499 143.2 10.7149 143.25 10.8798L143.275 10.9788C143.275 11.3252 142.928 11.8118 142.235 12.4387C139.415 15.6059 137.41 18.0556 136.223 19.7876C135.876 20.2825 135.39 21.0083 134.763 21.9651C134.136 22.9054 133.624 23.6559 133.229 24.2168C132.849 24.7942 132.338 25.5117 131.694 26.3695C131.068 27.2438 130.507 27.9614 130.012 28.5223C129.533 29.0831 128.94 29.71 128.23 30.4028C127.537 31.0956 126.869 31.673 126.226 32.1349C124.774 33.1741 123.216 33.9412 121.549 34.4361C121.121 34.4361 120.716 34.3288 120.337 34.1144C119.941 33.9164 119.735 33.6278 119.718 33.2483C119.735 32.3576 120.428 31.2523 121.797 29.9327C123.166 28.6295 125.005 27.6315 127.315 26.9386C127.645 26.8562 127.876 26.7324 128.008 26.5675L135.084 18.1298L135.456 17.6349C135.489 17.5689 135.505 17.5277 135.505 17.5112C135.505 17.4782 135.489 17.4617 135.456 17.4617C135.439 17.4617 135.076 17.8246 134.367 18.5504C133.657 19.2598 133.039 19.8949 132.511 20.4557C132 21.0166 131.323 21.6929 130.482 22.4847C129.641 23.26 128.61 24.0271 127.389 24.7859C126.185 25.5612 125.17 25.9489 124.346 25.9489C123.257 25.9489 122.58 25.2313 122.316 23.7962C122.267 23.4662 122.242 23.1363 122.242 22.8064C122.242 21.3218 122.886 19.7299 124.172 18.0308C125.442 16.3152 127.001 14.7976 128.849 13.4779C130.713 12.1418 132.717 11.0283 134.862 10.1375C137.006 9.23023 138.911 8.76835 140.578 8.75185H140.602C141.13 8.75185 141.567 8.93331 141.914 9.29622C142.277 9.64263 142.458 9.94781 142.458 10.2117C142.458 10.2942 142.45 10.352 142.433 10.3849ZM120.956 33.1494C120.956 33.2483 120.997 33.2978 121.079 33.2978H121.129C121.541 33.2978 122.58 32.506 124.247 30.9224C125.929 29.3553 126.919 28.1923 127.216 27.4335C127.216 27.4005 127.199 27.384 127.166 27.384C126.061 27.7799 124.75 28.7367 123.232 30.2543C121.714 31.7885 120.956 32.7535 120.956 33.1494ZM141.518 10.8056C141.617 10.7066 141.666 10.6324 141.666 10.5829C141.666 10.5169 141.592 10.4839 141.444 10.4839C140.437 10.4839 139.151 10.8303 137.584 11.5232C136.033 12.1995 134.441 13.0985 132.808 14.2203C131.191 15.342 129.599 16.7276 128.032 18.3772C126.482 20.0103 125.253 21.6847 124.346 23.4003C124.296 23.4662 124.271 23.5322 124.271 23.5982C124.271 23.6477 124.313 23.6724 124.395 23.6724C125.319 23.6724 127.504 22.328 130.952 19.6392C134.416 16.9338 137.938 13.9893 141.518 10.8056Z" fill="black"/>
<path d="M65.7137 34.1138V39.3101H65.2609L61.9205 35.0937V39.3101H61.3711V34.1138H61.824L65.1718 38.3302V34.1138H65.7137ZM69.5031 39.3546C68.83 39.3546 68.3055 39.1616 67.9294 38.7756C67.5532 38.3896 67.3652 37.8279 67.3652 37.0905V34.1138H67.9145V37.0683C67.9145 37.672 68.0506 38.1223 68.3228 38.4193C68.595 38.7162 68.9884 38.8647 69.5031 38.8647C70.0227 38.8647 70.4186 38.7162 70.6908 38.4193C70.963 38.1223 71.099 37.672 71.099 37.0683V34.1138H71.6335V37.0905C71.6335 37.8279 71.4455 38.3896 71.0694 38.7756C70.6982 39.1616 70.1761 39.3546 69.5031 39.3546ZM76.8371 39.3101L75.6494 37.6398C75.5158 37.6547 75.3772 37.6621 75.2337 37.6621H73.8381V39.3101H73.2888V34.1138H75.2337C75.8968 34.1138 76.4165 34.2722 76.7926 34.5889C77.1687 34.9056 77.3567 35.3411 77.3567 35.8954C77.3567 36.3012 77.2528 36.6451 77.045 36.9272C76.8421 37.2043 76.5501 37.4048 76.169 37.5285L77.4384 39.3101H76.8371ZM75.2189 37.1945C75.7335 37.1945 76.127 37.0806 76.3991 36.853C76.6713 36.6253 76.8074 36.3061 76.8074 35.8954C76.8074 35.4747 76.6713 35.1531 76.3991 34.9304C76.127 34.7027 75.7335 34.5889 75.2189 34.5889H73.8381V37.1945H75.2189ZM82.3277 38.835V39.3101H78.6532V34.1138H82.2164V34.5889H79.2026V36.4373H81.8897V36.9049H79.2026V38.835H82.3277ZM87.9615 34.1138V39.3101H87.5087L84.1683 35.0937V39.3101H83.6189V34.1138H84.0718L87.4196 38.3302V34.1138H87.9615ZM91.9142 39.3546C91.3995 39.3546 90.9343 39.2408 90.5186 39.0131C90.1079 38.7855 89.7837 38.4712 89.5462 38.0704C89.3136 37.6646 89.1973 37.2118 89.1973 36.7119C89.1973 36.2121 89.3136 35.7618 89.5462 35.3609C89.7837 34.9551 90.1103 34.6384 90.526 34.4108C90.9417 34.1831 91.4069 34.0693 91.9216 34.0693C92.3076 34.0693 92.6639 34.1336 92.9905 34.2623C93.3172 34.391 93.5943 34.579 93.8219 34.8265L93.473 35.1753C93.0672 34.7646 92.555 34.5592 91.9364 34.5592C91.5257 34.5592 91.1521 34.6532 90.8155 34.8413C90.479 35.0294 90.2143 35.2867 90.0213 35.6133C89.8332 35.9399 89.7392 36.3061 89.7392 36.7119C89.7392 37.1177 89.8332 37.484 90.0213 37.8106C90.2143 38.1372 90.479 38.3945 90.8155 38.5826C91.1521 38.7706 91.5257 38.8647 91.9364 38.8647C92.56 38.8647 93.0722 38.6568 93.473 38.2411L93.8219 38.59C93.5943 38.8374 93.3147 39.028 92.9831 39.1616C92.6565 39.2903 92.3002 39.3546 91.9142 39.3546ZM96.6658 37.5136V39.3101H96.1239V37.5136L94.0454 34.1138H94.6318L96.4134 37.0311L98.1949 34.1138H98.7442L96.6658 37.5136Z" fill="black"/>
</svg>
