<svg width="198" height="50" viewBox="0 0 198 50" fill="none" xmlns="http://www.w3.org/2000/svg">
<path d="M27.045 0.995972L52.998 19.764L42.991 50L10.853 49.92L0.997986 19.634L27.045 0.995972Z" fill="url(#paint0_linear)"/>
<path fill-rule="evenodd" clip-rule="evenodd" d="M33.672 23.625C34.975 23.625 36.031 24.674 36.031 25.968C36.031 27.263 34.975 28.312 33.672 28.312C32.369 28.312 31.312 27.263 31.312 25.968C31.312 24.674 32.369 23.625 33.672 23.625Z" fill="white"/>
<path d="M23.324 16.064H26.208V33.592H35.896V36H23.324V16.064Z" fill="white"/>
<path d="M72.58 15C74.44 15 76.05 15.31 77.41 15.93C78.79 16.55 79.85 17.43 80.59 18.57C81.33 19.71 81.7 21.06 81.7 22.62C81.7 24.16 81.33 25.51 80.59 26.67C79.85 27.81 78.79 28.69 77.41 29.31C76.05 29.91 74.44 30.21 72.58 30.21H68.35V36H63.49V15H72.58ZM72.31 26.25C73.77 26.25 74.88 25.94 75.64 25.32C76.4 24.68 76.78 23.78 76.78 22.62C76.78 21.44 76.4 20.54 75.64 19.92C74.88 19.28 73.77 18.96 72.31 18.96H68.35V26.25H72.31ZM92.4904 36.24C90.7904 36.24 89.2604 35.89 87.9004 35.19C86.5604 34.47 85.5104 33.48 84.7504 32.22C83.9904 30.96 83.6104 29.53 83.6104 27.93C83.6104 26.33 83.9904 24.9 84.7504 23.64C85.5104 22.38 86.5604 21.4 87.9004 20.7C89.2604 19.98 90.7904 19.62 92.4904 19.62C94.1904 19.62 95.7104 19.98 97.0504 20.7C98.3904 21.4 99.4404 22.38 100.2 23.64C100.96 24.9 101.34 26.33 101.34 27.93C101.34 29.53 100.96 30.96 100.2 32.22C99.4404 33.48 98.3904 34.47 97.0504 35.19C95.7104 35.89 94.1904 36.24 92.4904 36.24ZM92.4904 32.4C93.6904 32.4 94.6704 32 95.4304 31.2C96.2104 30.38 96.6004 29.29 96.6004 27.93C96.6004 26.57 96.2104 25.49 95.4304 24.69C94.6704 23.87 93.6904 23.46 92.4904 23.46C91.2904 23.46 90.3004 23.87 89.5204 24.69C88.7404 25.49 88.3504 26.57 88.3504 27.93C88.3504 29.29 88.7404 30.38 89.5204 31.2C90.3004 32 91.2904 32.4 92.4904 32.4ZM108.939 21.99C109.499 21.21 110.249 20.62 111.189 20.22C112.149 19.82 113.249 19.62 114.489 19.62V23.94C113.969 23.9 113.619 23.88 113.439 23.88C112.099 23.88 111.049 24.26 110.289 25.02C109.529 25.76 109.149 26.88 109.149 28.38V36H104.469V19.86H108.939V21.99ZM128.238 35.22C127.778 35.56 127.208 35.82 126.528 36C125.868 36.16 125.168 36.24 124.428 36.24C122.508 36.24 121.018 35.75 119.958 34.77C118.918 33.79 118.398 32.35 118.398 30.45V23.82H115.908V20.22H118.398V16.29H123.078V20.22H127.098V23.82H123.078V30.39C123.078 31.07 123.248 31.6 123.588 31.98C123.948 32.34 124.448 32.52 125.088 32.52C125.828 32.52 126.458 32.32 126.978 31.92L128.238 35.22ZM135.995 20.22H140.135V23.82H136.115V36H131.435V23.82H128.945V20.22H131.435V19.5C131.435 17.66 131.975 16.2 133.055 15.12C134.155 14.04 135.695 13.5 137.675 13.5C138.375 13.5 139.035 13.58 139.655 13.74C140.295 13.88 140.825 14.09 141.245 14.37L140.015 17.76C139.475 17.38 138.845 17.19 138.125 17.19C136.705 17.19 135.995 17.97 135.995 19.53V20.22ZM149.942 36.24C148.242 36.24 146.712 35.89 145.352 35.19C144.012 34.47 142.962 33.48 142.202 32.22C141.442 30.96 141.062 29.53 141.062 27.93C141.062 26.33 141.442 24.9 142.202 23.64C142.962 22.38 144.012 21.4 145.352 20.7C146.712 19.98 148.242 19.62 149.942 19.62C151.642 19.62 153.162 19.98 154.502 20.7C155.842 21.4 156.892 22.38 157.652 23.64C158.412 24.9 158.792 26.33 158.792 27.93C158.792 29.53 158.412 30.96 157.652 32.22C156.892 33.48 155.842 34.47 154.502 35.19C153.162 35.89 151.642 36.24 149.942 36.24ZM149.942 32.4C151.142 32.4 152.122 32 152.882 31.2C153.662 30.38 154.052 29.29 154.052 27.93C154.052 26.57 153.662 25.49 152.882 24.69C152.122 23.87 151.142 23.46 149.942 23.46C148.742 23.46 147.752 23.87 146.972 24.69C146.192 25.49 145.802 26.57 145.802 27.93C145.802 29.29 146.192 30.38 146.972 31.2C147.752 32 148.742 32.4 149.942 32.4ZM161.92 13.74H166.6V36H161.92V13.74ZM170.943 19.86H175.623V36H170.943V19.86ZM173.283 17.61C172.423 17.61 171.723 17.36 171.183 16.86C170.643 16.36 170.373 15.74 170.373 15C170.373 14.26 170.643 13.64 171.183 13.14C171.723 12.64 172.423 12.39 173.283 12.39C174.143 12.39 174.843 12.63 175.383 13.11C175.923 13.59 176.193 14.19 176.193 14.91C176.193 15.69 175.923 16.34 175.383 16.86C174.843 17.36 174.143 17.61 173.283 17.61ZM187.647 36.24C185.947 36.24 184.417 35.89 183.057 35.19C181.717 34.47 180.667 33.48 179.907 32.22C179.147 30.96 178.767 29.53 178.767 27.93C178.767 26.33 179.147 24.9 179.907 23.64C180.667 22.38 181.717 21.4 183.057 20.7C184.417 19.98 185.947 19.62 187.647 19.62C189.347 19.62 190.867 19.98 192.207 20.7C193.547 21.4 194.597 22.38 195.357 23.64C196.117 24.9 196.497 26.33 196.497 27.93C196.497 29.53 196.117 30.96 195.357 32.22C194.597 33.48 193.547 34.47 192.207 35.19C190.867 35.89 189.347 36.24 187.647 36.24ZM187.647 32.4C188.847 32.4 189.827 32 190.587 31.2C191.367 30.38 191.757 29.29 191.757 27.93C191.757 26.57 191.367 25.49 190.587 24.69C189.827 23.87 188.847 23.46 187.647 23.46C186.447 23.46 185.457 23.87 184.677 24.69C183.897 25.49 183.507 26.57 183.507 27.93C183.507 29.29 183.897 30.38 184.677 31.2C185.457 32 186.447 32.4 187.647 32.4Z" fill="#263A5D"/>
<defs>
<linearGradient id="paint0_linear" x1="0.997986" y1="0.995972" x2="52.998" y2="0.995972" gradientUnits="userSpaceOnUse">
<stop stop-color="#5E2CED"/>
<stop offset="1" stop-color="#4E62BB"/>
</linearGradient>
</defs>
</svg>
