<svg id="Capa_1" enable-background="new 0 0 511.888 511.888" height="512" viewBox="0 0 511.888 511.888" width="512" xmlns="http://www.w3.org/2000/svg"><g><g><ellipse cx="255.944" cy="255.944" fill="#a160e4" rx="256" ry="255.888" transform="matrix(.707 -.707 .707 .707 -106.015 255.944)"/></g><path d="m106.565 398.793 110.116 110.116c12.782 1.962 25.875 2.981 39.207 2.979 141.354-.031 255.969-114.646 256-256 .001-3.563-.091-7.104-.234-10.631l-155.275-155.275z" fill="#7a3eb4"/><path d="m106.565 89.982h249.814v308.811h-249.814z" fill="#eef4ff"/><path d="m232.055 89.982h124.324v308.811h-124.324z" fill="#d6e9f8"/><g><g><path d="m151.877 187.747h-16.454v-69.512h28.795c13.776 0 24.983 11.208 24.983 24.983s-11.207 24.983-24.983 24.983h-12.341zm0-36h12.341c4.703 0 8.529-3.825 8.529-8.528s-3.826-8.528-8.529-8.528h-12.341z" fill="#2681ff"/></g><g><path d="m205.187 222.242-51.892-62.036 17.867-5.311 55.326 67.359z" fill="#2681ff"/></g><g><path d="m177.607 222.254h-21.484l48.054-57.235h21.484z" fill="#2681ff"/></g></g><g><path d="m388.128 295.406v-33.521h-63.498v33.521l-18.635 14.182v98.831l9.445 14.182h81.878l9.445-14.182v-98.831z" fill="#ffe377"/><path d="m309.304 242.135h94.15v39.5h-94.15z" fill="#ff6379"/><path d="m388.128 261.885h-31.749v160.716h40.939l9.445-14.182v-98.831l-18.635-14.182z" fill="#edbe00"/><path d="m319.49 321.453h72.115v72.115h-72.115z" fill="#00ddc1"/><path d="m356.379 321.453h35.226v72.115h-35.226z" fill="#00baa0"/><circle cx="356.098" cy="357.707" fill="#eef4ff" r="23.39"/><path d="m356.098 381.096c12.918 0 23.39-10.472 23.39-23.39s-10.472-23.39-23.39-23.39z" fill="#d6e9f8"/><path d="m332.708 357.707c0 2.624.439 5.145 1.236 7.5h44.307c.797-2.355 1.236-4.876 1.236-7.5s-.439-5.145-1.236-7.5h-44.307c-.797 2.355-1.236 4.875-1.236 7.5z" fill="#d6e9f8"/><path d="m379.414 355.933c-.007-.099-.014-.198-.023-.296-.052-.587-.123-1.168-.218-1.741-.006-.036-.013-.072-.019-.108-.209-1.228-.511-2.425-.903-3.58h-22.154v15h22.154c.391-1.156.693-2.352.903-3.58.006-.036.013-.072.019-.108.095-.573.166-1.155.218-1.742.009-.098.015-.198.023-.296.045-.586.074-1.176.074-1.774-.001-.599-.03-1.189-.074-1.775z" fill="#b2d7f3"/><path d="m356.379 242.135h47.075v39.5h-47.075z" fill="#ff415b"/></g><g><path d="m135.423 258.11h150.664v15h-150.664z" fill="#2681ff"/></g><g><path d="m135.423 300.408h150.664v15h-150.664z" fill="#2681ff"/></g><g><path d="m135.423 342.707h150.664v15h-150.664z" fill="#2681ff"/></g><g><path d="m232.055 258.11h54.032v15h-54.032z" fill="#005fe0"/></g><g><path d="m232.055 300.408h54.032v15h-54.032z" fill="#005fe0"/></g><g><path d="m232.055 342.707h54.032v15h-54.032z" fill="#005fe0"/></g></g></svg>