<svg width="638" height="503" viewBox="0 0 638 503" fill="none" xmlns="http://www.w3.org/2000/svg">
<path d="M633.439 445.207H582.675V445.609H633.439V445.207Z" fill="#EBEBEB"/>
<path d="M449.227 440.85H395.503V441.252H449.227V440.85Z" fill="#EBEBEB"/>
<path d="M88.3111 457.444H39.6048V457.846H88.3111V457.444Z" fill="#EBEBEB"/>
<path d="M302.577 450.658H214.845V451.06H302.577V450.658Z" fill="#EBEBEB"/>
<path d="M249.341 330.211L264.372 345.243L229.465 380.15C227.68 381.935 225.259 382.938 222.734 382.938C220.21 382.938 217.788 381.935 216.003 380.15L214.423 378.569C212.637 376.784 211.634 374.363 211.634 371.838C211.634 369.313 212.637 366.892 214.423 365.107L249.329 330.2L249.341 330.211Z" fill="#F0F0F0"/>
<path d="M249.364 330.244L264.372 345.252L263.656 345.969C262.037 347.588 259.84 348.498 257.55 348.498C255.26 348.498 253.064 347.588 251.444 345.969L248.625 343.149C247.005 341.529 246.096 339.333 246.096 337.043C246.096 334.753 247.005 332.556 248.625 330.937L249.341 330.221L249.364 330.244Z" fill="#E0E0E0"/>
<path d="M380.501 282.639C379.492 268.062 374.183 254.111 365.246 242.552C356.308 230.992 344.143 222.343 330.289 217.698C316.436 213.053 301.515 212.621 287.416 216.456C273.317 220.291 260.671 228.222 251.079 239.244C241.487 250.267 235.38 263.886 233.529 278.38C231.678 292.875 234.167 307.592 240.682 320.671C247.196 333.75 257.443 344.604 270.126 351.859C282.809 359.114 297.359 362.445 311.936 361.431C331.475 360.07 349.674 351.006 362.532 336.231C375.389 321.455 381.853 302.178 380.501 282.639ZM239.142 292.479C238.21 279.097 241.268 265.738 247.929 254.094C254.59 242.449 264.554 233.041 276.562 227.06C288.57 221.078 302.082 218.792 315.389 220.49C328.696 222.188 341.201 227.795 351.322 236.6C361.443 245.405 368.725 257.014 372.248 269.958C375.771 282.902 375.377 296.6 371.114 309.32C366.852 322.04 358.913 333.21 348.302 341.418C337.691 349.626 324.884 354.503 311.502 355.433C293.558 356.679 275.855 350.746 262.285 338.941C248.715 327.135 240.39 310.423 239.142 292.479Z" fill="#E0E0E0"/>
<path d="M269.195 331.023C263.504 326.09 258.843 320.082 255.479 313.344C252.116 306.605 250.115 299.269 249.594 291.756C249.556 291.424 249.587 291.088 249.683 290.768C249.78 290.448 249.94 290.151 250.154 289.894C250.368 289.638 250.632 289.427 250.929 289.275C251.227 289.124 251.552 289.034 251.886 289.011C252.219 288.988 252.553 289.033 252.869 289.143C253.184 289.253 253.475 289.425 253.722 289.65C253.969 289.875 254.168 290.148 254.307 290.452C254.446 290.755 254.522 291.084 254.53 291.418C255.516 305.266 261.947 318.158 272.416 327.275C282.886 336.391 296.541 340.988 310.392 340.06C311.044 340.015 311.688 340.232 312.181 340.661C312.674 341.091 312.976 341.699 313.021 342.352C313.066 343.004 312.85 343.648 312.42 344.141C311.99 344.634 311.382 344.936 310.73 344.981C303.229 345.502 295.699 344.537 288.571 342.142C281.444 339.747 274.859 335.968 269.195 331.023V331.023Z" fill="#E0E0E0"/>
<path d="M358.053 274.888C357.686 274.571 357.423 274.15 357.297 273.682C355.361 266.8 352.043 260.384 347.545 254.827C343.047 249.27 337.463 244.688 331.135 241.361C330.582 241.043 330.173 240.523 329.993 239.91C329.814 239.297 329.879 238.639 330.173 238.072C330.468 237.506 330.97 237.075 331.575 236.87C332.179 236.665 332.84 236.701 333.419 236.971C340.345 240.613 346.456 245.628 351.38 251.711C356.304 257.793 359.937 264.815 362.057 272.347C362.145 272.66 362.17 272.987 362.131 273.309C362.092 273.631 361.989 273.943 361.83 274.225C361.67 274.508 361.455 274.756 361.199 274.955C360.943 275.154 360.65 275.301 360.336 275.386C359.944 275.495 359.531 275.506 359.133 275.419C358.735 275.333 358.365 275.15 358.053 274.888V274.888Z" fill="#E0E0E0"/>
<path d="M301.371 234.897C300.88 234.46 300.58 233.848 300.535 233.193C300.491 232.541 300.706 231.898 301.134 231.404C301.561 230.91 302.167 230.605 302.818 230.555C309.09 230.12 315.391 230.712 321.471 232.308C321.788 232.392 322.085 232.537 322.346 232.735C322.607 232.933 322.826 233.181 322.991 233.464C323.156 233.747 323.263 234.059 323.307 234.384C323.352 234.708 323.331 235.039 323.248 235.355C323.165 235.672 323.02 235.969 322.821 236.23C322.623 236.491 322.375 236.71 322.092 236.875C321.809 237.04 321.497 237.147 321.172 237.192C320.848 237.236 320.518 237.216 320.201 237.132C314.652 235.664 308.898 235.121 303.172 235.524C302.513 235.557 301.867 235.332 301.371 234.897V234.897Z" fill="#E0E0E0"/>
<path d="M312 502.516C484.189 502.516 623.775 494.367 623.775 484.314C623.775 474.261 484.189 466.111 312 466.111C139.811 466.111 0.224854 474.261 0.224854 484.314C0.224854 494.367 139.811 502.516 312 502.516Z" fill="#F5F5F5"/>
<path d="M131.615 49.575C118.654 62.6159 140.684 82.8606 126.131 92.1549C138.014 98.1205 179.662 105.694 190.451 82.2335C182.588 76.1231 188.055 61.1044 180.803 46.6806C169.949 25.2942 118.654 34.7654 131.615 49.575Z" fill="#263a5d"/>
<path d="M132.788 49.2374C128.752 48.562 115.1 55.3478 125.263 73.5664C133.448 88.2957 126.63 89.3409 126.63 89.3409C126.63 89.3409 134.67 89.566 129.846 78.6155C124.732 66.9254 122.336 54.801 132.788 49.2374Z" fill="#263a5d"/>
<path d="M228.384 164.917C227.887 164.007 227.052 163.328 226.06 163.028C225.067 162.727 223.996 162.828 223.078 163.309L222.129 163.807C221.823 163.968 221.245 164.354 220.778 164.627C220.312 164.901 219.765 165.206 219.251 165.464C218.237 165.974 217.189 166.414 216.115 166.782C214.128 167.502 212.037 167.899 209.924 167.956C207.983 167.979 206.052 167.669 204.216 167.039C203.049 166.606 201.924 166.068 200.855 165.431C199.472 162.376 198.154 159.289 197.028 156.105C195.661 152.391 194.455 148.596 193.394 144.753C192.333 140.909 191.4 137.018 190.628 133.111C190.226 131.165 189.872 129.203 189.551 127.258L189.117 124.347C188.972 123.414 188.843 122.353 188.763 121.613V121.292C188.55 119.16 187.498 117.199 185.84 115.842C184.181 114.485 182.051 113.843 179.919 114.056C177.787 114.269 175.826 115.321 174.469 116.979C173.112 118.638 172.47 120.768 172.683 122.9C172.796 124.267 172.892 125.312 173.037 126.454C173.181 127.595 173.342 128.689 173.503 129.798C173.857 132.017 174.259 134.204 174.709 136.391C175.603 140.736 176.73 145.031 178.086 149.255C178.713 151.378 179.485 153.468 180.208 155.574C180.932 157.681 181.816 159.739 182.733 161.781C184.488 165.908 186.48 169.929 188.699 173.825L188.892 174.179C189.469 175.226 190.334 176.085 191.384 176.655C194.423 178.312 197.707 179.473 201.112 180.096C204.609 180.714 208.194 180.638 211.661 179.871C216.555 178.736 221.05 176.297 224.67 172.812C225.265 172.265 225.827 171.703 226.278 171.108C226.728 170.513 227.275 169.95 227.886 169.114C228.357 168.533 228.654 167.83 228.742 167.087C228.831 166.345 228.706 165.592 228.384 164.917Z" fill="#FF8B7B"/>
<path d="M239.077 149.866H238.611C237.072 149.833 235.546 150.156 234.151 150.808C232.757 151.461 231.532 152.426 230.571 153.629L222.804 163.373V170.03C229.043 172.507 236.955 165.833 236.955 165.833L240.959 164.82C242.306 164.484 243.481 163.66 244.256 162.508C245.032 161.355 245.352 159.956 245.155 158.581L244.577 154.674C244.388 153.347 243.729 152.131 242.72 151.249C241.71 150.366 240.418 149.876 239.077 149.866V149.866Z" fill="#FF8B7B"/>
<path d="M188.554 112.287C193.748 117.626 194.069 133.561 194.069 133.561L173.294 150.284C173.294 150.284 164.755 126.646 169.483 118.301C173.487 111.226 181.929 105.485 188.554 112.287Z" fill="#407BFF"/>
<g opacity="0.2">
<path opacity="0.2" d="M188.554 112.287C193.748 117.626 194.069 133.561 194.069 133.561L173.294 150.284C173.294 150.284 164.755 126.646 169.483 118.301C173.487 111.226 181.929 105.485 188.554 112.287Z" fill="white"/>
</g>
<path d="M154.175 470.533L165.656 471.788L167.232 440.592L155.751 439.322L154.175 470.533Z" fill="#FF8B7B"/>
<path d="M167.537 464.294H154.046C153.774 464.285 153.51 464.383 153.308 464.566C153.107 464.749 152.985 465.004 152.969 465.275L152.068 478.027C152.068 478.694 152.329 479.334 152.794 479.812C153.26 480.29 153.894 480.567 154.561 480.583C160.253 480.583 160.317 480.583 167.425 480.583H186.576C192.461 480.583 192.477 474.618 189.937 474.071C178.504 471.659 174.05 468.314 170.014 465.13C169.304 464.584 168.433 464.289 167.537 464.294V464.294Z" fill="#263a5d"/>
<path opacity="0.2" d="M167.232 440.608L166.412 456.688H154.866L155.751 439.338L167.232 440.608Z" fill="black"/>
<path d="M173.423 191.706C173.423 191.706 183.36 274.888 183.36 311.872C175.529 363.328 168.888 453.633 168.888 453.633L153.001 453.215C153.001 453.215 145.781 354.87 152.47 312.403C143.9 274.357 133.319 186.561 133.319 186.561L173.423 191.706Z" fill="#263a5d"/>
<path opacity="0.2" d="M142.79 214.861C140.897 215.695 139.06 216.651 137.291 217.724C139.478 234.141 142.356 254.804 145.411 273.875C150.621 258.181 147.807 223.673 142.79 214.861Z" fill="black"/>
<path d="M29.8443 441.573L39.3154 448.182L55.6527 421.554L46.1816 414.945L29.8443 441.573Z" fill="#FF8B7B"/>
<path d="M41.7113 444.693L33.6713 433.871C33.5182 433.649 33.2842 433.496 33.0196 433.445C32.755 433.394 32.481 433.449 32.2563 433.598L21.4827 440.512C20.9452 440.907 20.5849 441.499 20.4796 442.157C20.3743 442.816 20.5325 443.49 20.9199 444.034C24.2806 448.616 24.3449 448.649 28.574 454.341C31.195 457.83 36.421 464.857 40.0229 469.697C43.6248 474.537 48.3363 470.871 47.2428 468.491C42.4188 457.894 42.4188 452.411 42.5153 447.201C42.5317 446.299 42.249 445.417 41.7113 444.693V444.693Z" fill="#263a5d"/>
<path opacity="0.2" d="M55.6366 421.554L47.2267 435.286L37.0803 429.754L46.1816 414.945L55.6366 421.554Z" fill="black"/>
<path d="M87.9414 452.733C79.7245 452.733 62.6154 452.733 62.3259 440.641C62.1008 431.153 73.8392 427.214 83.9696 426.731C85.092 426.677 86.2141 426.845 87.2717 427.225C88.3293 427.604 89.3018 428.189 90.1335 428.944C90.9653 429.7 91.64 430.612 92.1192 431.628C92.5983 432.645 92.8726 433.745 92.9262 434.868V435.511C104.407 434.964 111.836 432.456 114.554 428.179C120.68 418.531 108.942 393.623 97.6054 369.551C84.2591 341.234 69.1439 309.155 68.8544 278.426C68.8438 277.302 69.0546 276.188 69.4747 275.146C69.8949 274.104 70.5161 273.155 71.303 272.353C72.0899 271.551 73.0271 270.912 74.0609 270.473C75.0948 270.033 76.2052 269.801 77.3286 269.791V269.791C79.5822 269.795 81.7436 270.686 83.3447 272.272C84.9458 273.858 85.8578 276.011 85.8831 278.265C86.1404 305.247 100.355 335.526 112.994 362.251C127.466 393.092 140.089 419.737 128.913 437.344C122.433 447.7 109.006 452.733 87.9414 452.733Z" fill="#5E2CED"/>
<path d="M160.703 190.066C160.703 190.066 133.271 285.131 119.876 319.606C93.9231 364.727 50.8609 433.774 50.8609 433.774L37.1125 425.734C37.1125 425.734 69.2725 345.978 90.9001 308.833C96.705 270.241 118.654 184.599 118.654 184.599L160.703 190.066Z" fill="#263a5d"/>
<path d="M44.1877 452.459C44.7333 453.363 45.5739 454.05 46.5675 454.405C46.8584 454.475 47.163 454.462 47.447 454.369C47.7311 454.275 47.9834 454.104 48.1755 453.875C48.3092 453.752 48.4112 453.598 48.4728 453.428C48.5344 453.257 48.5538 453.074 48.5293 452.894C48.3363 450.964 43.3515 448.456 42.3546 447.973C42.2964 447.949 42.2317 447.948 42.1725 447.969C42.1132 447.989 42.0636 448.031 42.033 448.086C41.9942 448.146 41.9736 448.215 41.9736 448.287C41.9736 448.358 41.9942 448.428 42.033 448.488C42.6234 449.877 43.3449 451.207 44.1877 452.459V452.459ZM47.6127 452.459C47.7543 452.637 47.8483 452.847 47.8861 453.071C47.8938 453.133 47.8861 453.196 47.8637 453.255C47.8413 453.314 47.8048 453.367 47.7574 453.408C47.6277 453.556 47.4611 453.666 47.2746 453.729C47.0882 453.791 46.8885 453.802 46.6962 453.762C45.6349 453.553 44.2359 451.832 42.8852 449.115C44.6365 449.931 46.2354 451.04 47.6127 452.395V452.459Z" fill="#407BFF"/>
<path d="M41.9525 448.552L42.049 448.632C43.657 449.517 47.8378 450.24 48.7544 448.906C48.9082 448.662 48.9831 448.377 48.9687 448.089C48.9543 447.801 48.8514 447.525 48.674 447.298C47.066 444.452 42.242 447.796 42.0329 447.941C41.985 447.979 41.9468 448.028 41.9217 448.084C41.8965 448.14 41.885 448.201 41.8882 448.263C41.8817 448.363 41.904 448.464 41.9525 448.552ZM48.0629 447.619C48.1098 447.675 48.1528 447.734 48.1916 447.796C48.3684 448.102 48.4006 448.327 48.3041 448.456C47.7735 449.227 44.6861 448.954 42.8852 448.246C44.0912 447.523 46.9052 446.06 48.0629 447.619Z" fill="#407BFF"/>
<path d="M175.32 466.948C176.374 467.044 177.429 466.777 178.311 466.192C178.534 465.996 178.699 465.742 178.787 465.458C178.875 465.174 178.883 464.872 178.809 464.584C178.786 464.402 178.722 464.228 178.622 464.075C178.522 463.922 178.388 463.793 178.23 463.699C176.623 462.719 171.589 465.211 170.609 465.725C170.553 465.756 170.51 465.805 170.487 465.863C170.463 465.922 170.461 465.987 170.48 466.047C170.504 466.114 170.545 466.174 170.598 466.222C170.652 466.27 170.716 466.303 170.785 466.32C172.272 466.684 173.791 466.894 175.32 466.948V466.948ZM177.314 464.166C177.543 464.151 177.771 464.201 177.973 464.31C178.054 464.31 178.134 464.423 178.166 464.616C178.208 464.808 178.198 465.008 178.135 465.195C178.073 465.382 177.961 465.549 177.812 465.677C177.025 466.401 174.805 466.497 171.815 465.967C173.505 465.061 175.337 464.451 177.234 464.166H177.314Z" fill="#407BFF"/>
<path d="M170.786 466.401H170.898C172.506 465.661 175.642 462.718 175.127 461.191C175.02 460.938 174.841 460.723 174.612 460.571C174.383 460.42 174.115 460.339 173.841 460.339C170.625 459.969 170.4 465.79 170.384 466.031C170.384 466.095 170.4 466.158 170.431 466.214C170.462 466.27 170.507 466.318 170.56 466.353C170.629 466.391 170.707 466.408 170.786 466.401V466.401ZM173.68 460.934H173.905C174.243 460.934 174.452 461.078 174.5 461.239C174.806 462.124 172.747 464.455 171.091 465.468C171.236 464.069 171.75 460.934 173.712 460.934H173.68Z" fill="#407BFF"/>
<path d="M118.654 184.679L173.423 191.69C185.772 150.107 189.84 130.023 190.934 120.359C191.223 117.93 190.655 115.476 189.328 113.421C188.001 111.366 185.998 109.839 183.666 109.103C180.45 108.074 176.301 106.852 172.184 105.887C170.785 105.517 169.354 105.18 167.955 104.858C159.756 103.195 151.448 102.12 143.096 101.642C141.858 101.53 140.635 101.465 139.397 101.401C136.969 101.272 134.573 101.24 132.386 101.24C130.745 101.238 129.121 101.578 127.618 102.238C126.116 102.898 124.767 103.864 123.658 105.075C122.549 106.285 121.705 107.713 121.178 109.267C120.652 110.822 120.455 112.469 120.6 114.104C121.034 118.928 121.372 123.414 121.629 127.531C122.24 137.179 122.433 144.897 122.288 151.651C121.959 162.74 120.744 173.784 118.654 184.679V184.679Z" fill="#5E2CED"/>
<g opacity="0.3">
<path opacity="0.3" d="M118.654 184.679L173.423 191.69C185.772 150.107 189.84 130.023 190.934 120.359C191.223 117.93 190.655 115.476 189.328 113.421C188.001 111.366 185.998 109.839 183.666 109.103C180.45 108.074 176.301 106.852 172.184 105.887C170.785 105.517 169.354 105.18 167.955 104.858C159.756 103.195 151.448 102.12 143.096 101.642C141.858 101.53 140.635 101.465 139.397 101.401C136.969 101.272 134.573 101.24 132.386 101.24C130.745 101.238 129.121 101.578 127.618 102.238C126.116 102.898 124.767 103.864 123.658 105.075C122.549 106.285 121.705 107.713 121.178 109.267C120.652 110.822 120.455 112.469 120.6 114.104C121.034 118.928 121.372 123.414 121.629 127.531C122.24 137.179 122.433 144.897 122.288 151.651C121.959 162.74 120.744 173.784 118.654 184.679Z" fill="white"/>
</g>
<path opacity="0.3" d="M122.256 151.587C129.492 142.228 132.113 131.519 129.765 125.617L121.597 127.45C122.256 137.066 122.433 144.817 122.256 151.587Z" fill="#407BFF"/>
<path d="M172.184 105.791C170.769 105.421 169.354 105.083 167.955 104.762C159.749 103.106 151.437 102.031 143.08 101.546C141.841 101.449 140.619 101.385 139.397 101.32L137.259 101.224L138.867 104.038C139.092 104.424 144.559 113.364 158.163 122.98L161.073 125.006L163.871 122.868C166.566 120.935 168.767 118.395 170.298 115.453C171.829 112.512 172.646 109.251 172.683 105.935L172.184 105.791Z" fill="white"/>
<path d="M149.126 85.0153C148.611 91.785 147.019 98.6834 143.08 101.578C143.08 101.578 148.097 109.923 161.089 119.041C169.226 112.818 167.955 104.762 167.955 104.762C159.304 101.546 159.915 95.5478 163.566 85.9802L156.812 82.3461C156.229 81.704 155.471 81.2474 154.63 81.033C153.79 80.8187 152.906 80.8561 152.087 81.1405C151.268 81.425 150.55 81.9439 150.024 82.6329C149.497 83.3218 149.185 84.1503 149.126 85.0153V85.0153Z" fill="#FF8B7B"/>
<path opacity="0.2" d="M156.812 82.3461C156.265 81.7416 155.561 81.3001 154.779 81.0706C153.996 80.841 153.166 80.8322 152.378 81.0452C151.591 81.2582 150.879 81.6847 150.319 82.2775C149.759 82.8703 149.374 83.6063 149.206 84.4043C151.771 89.5768 155.909 93.8042 161.025 96.4804C161.208 92.8541 162.064 89.2935 163.549 85.9802L156.812 82.3461Z" fill="black"/>
<path d="M138.609 63.7898C141.97 76.8628 143.112 82.4587 151.104 87.9098C163.115 96.1749 178.44 89.1962 179.035 75.3995C179.597 62.9697 174.018 43.6737 160.06 40.9079C156.979 40.2781 153.788 40.4479 150.791 41.4013C147.794 42.3548 145.091 44.0599 142.94 46.3543C140.789 48.6487 139.262 51.4558 138.504 54.508C137.746 57.5601 137.782 60.7556 138.609 63.7898V63.7898Z" fill="#FF8B7B"/>
<path d="M171.879 43.6094C164.005 50.6085 154.665 55.7567 144.543 58.6763C144.543 58.6763 154.529 79.918 135.844 74.5634C130.425 56.4734 135.844 47.0827 140.668 42.6607C155.526 37.8367 165.978 36.2286 171.879 43.6094Z" fill="#263a5d"/>
<path d="M137.982 76.6699C139.078 79.0384 141.067 80.8768 143.514 81.7833C146.73 82.9411 148.643 80.1753 147.952 76.9593C147.325 74.081 144.881 69.9967 141.52 70.2057C140.793 70.2678 140.093 70.5087 139.482 70.9071C138.87 71.3054 138.367 71.8488 138.017 72.4888C137.667 73.1287 137.48 73.8454 137.474 74.575C137.468 75.3045 137.643 76.0241 137.982 76.6699V76.6699Z" fill="#FF8B7B"/>
<path d="M118.252 181.367L115.149 185.95C114.907 186.303 115.309 186.754 115.937 186.834L173.374 194.199C173.873 194.199 174.307 194.07 174.387 193.764L175.513 188.94C175.513 188.603 175.191 188.265 174.661 188.185L119.185 181.077C119.018 181.038 118.843 181.044 118.679 181.095C118.515 181.146 118.368 181.24 118.252 181.367V181.367Z" fill="#407BFF"/>
<path d="M124.893 188.522L123.414 188.329C123.124 188.329 122.915 188.104 122.963 187.927L124.475 181.64C124.533 181.534 124.624 181.451 124.735 181.404C124.846 181.357 124.97 181.35 125.086 181.383L126.581 181.576C126.871 181.576 127.08 181.785 127.032 181.978L125.52 188.249C125.472 188.442 125.199 188.554 124.893 188.522Z" fill="#263a5d"/>
<path d="M169.129 194.182L167.65 194.006C167.36 194.006 167.151 193.781 167.2 193.588L168.711 187.316C168.711 187.139 169.033 187.011 169.322 187.043L170.818 187.236C171.107 187.236 171.316 187.461 171.268 187.638L169.756 193.925C169.708 194.102 169.435 194.231 169.129 194.182Z" fill="#263a5d"/>
<path d="M147.019 191.352L145.54 191.159C145.234 191.159 145.025 190.95 145.074 190.757L146.585 184.486C146.585 184.293 146.907 184.181 147.212 184.213L148.692 184.406C148.981 184.406 149.19 184.631 149.158 184.808L147.63 191.095C147.598 191.272 147.309 191.385 147.019 191.352Z" fill="#263a5d"/>
<path d="M161.009 63.2269C161.202 64.3043 161.941 65.0761 162.617 64.9314C163.292 64.7867 163.726 63.8219 163.517 62.7446C163.308 61.6672 162.569 60.8954 161.909 61.0401C161.25 61.1848 160.848 62.1496 161.009 63.2269Z" fill="#263a5d"/>
<path d="M173.165 60.8954C173.374 61.9727 174.114 62.7285 174.773 62.5998C175.433 62.4712 175.883 61.4743 175.674 60.3969C175.465 59.3195 174.725 58.5638 174.066 58.6924C173.407 58.8211 172.972 59.818 173.165 60.8954Z" fill="#263a5d"/>
<path d="M173.712 58.821L176.156 57.5668C176.156 57.5668 175.32 59.8502 173.712 58.821Z" fill="#263a5d"/>
<path d="M169.949 63.3074C171.386 65.5726 173.123 67.6333 175.111 69.4338C174.64 69.9344 174.064 70.3251 173.425 70.578C172.786 70.8309 172.099 70.9398 171.413 70.8971L169.949 63.3074Z" fill="#FF5652"/>
<path d="M162.36 75.2387C162.311 75.2949 162.283 75.3661 162.281 75.4403C162.28 75.5145 162.303 75.5871 162.349 75.6458C162.394 75.7045 162.458 75.7456 162.531 75.7623C162.603 75.779 162.679 75.7701 162.745 75.7372C163.96 75.1175 165.305 74.7943 166.669 74.7943C168.033 74.7943 169.378 75.1175 170.593 75.7372C170.665 75.7787 170.751 75.7901 170.832 75.7691C170.914 75.7481 170.983 75.6963 171.027 75.6247C171.071 75.5513 171.085 75.4641 171.067 75.3805C171.049 75.297 171 75.2233 170.93 75.1744C169.619 74.5027 168.167 74.1524 166.693 74.1524C165.22 74.1524 163.767 74.5027 162.456 75.1744C162.456 75.1744 162.456 75.2066 162.36 75.2387Z" fill="#263a5d"/>
<path d="M156.812 59.9145C156.911 59.8533 156.99 59.7637 157.037 59.6572C157.372 58.9243 157.876 58.2813 158.508 57.781C159.14 57.2807 159.881 56.9372 160.671 56.7789C160.756 56.7689 160.838 56.7423 160.912 56.7004C160.987 56.6585 161.052 56.6022 161.104 56.5349C161.157 56.4676 161.195 56.3905 161.217 56.3081C161.24 56.2258 161.245 56.1398 161.234 56.0553C161.226 55.9712 161.201 55.8896 161.161 55.8154C161.121 55.7412 161.066 55.6758 161 55.6233C160.934 55.5707 160.858 55.532 160.777 55.5096C160.695 55.4871 160.61 55.4813 160.527 55.4925C159.521 55.6802 158.575 56.1049 157.767 56.7314C156.959 57.3578 156.312 58.1679 155.879 59.0944C155.817 59.2212 155.798 59.3651 155.826 59.5038C155.853 59.6425 155.926 59.7682 156.032 59.8615C156.138 59.9549 156.272 60.0107 156.413 60.0202C156.554 60.0298 156.694 59.9926 156.812 59.9145V59.9145Z" fill="#263a5d"/>
<path d="M176.783 51.7619L176.864 51.6815C176.913 51.612 176.948 51.5334 176.966 51.4504C176.984 51.3673 176.986 51.2815 176.971 51.1977C176.956 51.114 176.925 51.034 176.879 50.9625C176.833 50.891 176.773 50.8293 176.703 50.781C175.872 50.1836 174.91 49.7931 173.898 49.642C172.885 49.491 171.851 49.5838 170.882 49.9127C170.727 49.9802 170.604 50.1046 170.538 50.2602C170.472 50.4158 170.469 50.5907 170.528 50.7489C170.592 50.9065 170.716 51.0322 170.873 51.0985C171.03 51.1648 171.207 51.1663 171.364 51.1026C172.134 50.8503 172.954 50.7858 173.754 50.9145C174.554 51.0431 175.311 51.3613 175.963 51.8423C176.087 51.9302 176.238 51.9705 176.388 51.9557C176.539 51.9409 176.679 51.8721 176.783 51.7619V51.7619Z" fill="#263a5d"/>
<path d="M161.604 61.1526L164.048 59.9145C164.048 59.9145 163.099 62.1818 161.604 61.1526Z" fill="#263a5d"/>
<path d="M77.4089 286.9C75.154 286.9 72.9902 286.01 71.3882 284.423C69.7862 282.836 68.8755 280.68 68.8543 278.426C68.6292 255.592 76.2351 236.312 90.8518 222.676C108.845 205.889 136.905 198.09 169.901 200.695C193.04 202.528 207.882 196.9 225.055 190.355C227.886 189.294 230.732 188.201 233.658 187.139C235.791 186.363 238.144 186.466 240.201 187.425C242.257 188.384 243.849 190.121 244.625 192.253C245.401 194.385 245.298 196.739 244.339 198.795C243.38 200.852 241.644 202.443 239.511 203.219C236.665 204.249 233.899 205.31 231.15 206.355C213.639 213.012 195.549 219.878 168.55 217.756C140.41 215.521 116.966 221.711 102.526 235.186C91.2699 245.606 85.7866 260.094 85.9635 278.265C85.9741 279.388 85.7633 280.503 85.3432 281.545C84.923 282.587 84.3018 283.536 83.5149 284.337C82.7279 285.139 81.7908 285.778 80.7569 286.218C79.7231 286.658 78.6127 286.889 77.4893 286.9H77.4089Z" fill="#5E2CED"/>
<path d="M275.249 215.298L240.839 227.904C237.968 228.956 234.797 228.824 232.023 227.537C229.249 226.251 227.1 223.915 226.048 221.044L211.838 182.255C210.786 179.384 210.918 176.213 212.204 173.439C213.491 170.665 215.826 168.515 218.698 167.464L253.108 154.858L275.233 215.253L275.249 215.298Z" fill="#407BFF"/>
<path opacity="0.7" d="M275.249 215.298L240.839 227.904C237.968 228.956 234.797 228.824 232.023 227.537C229.249 226.251 227.1 223.915 226.048 221.044L211.838 182.255C210.786 179.384 210.918 176.213 212.204 173.439C213.491 170.665 215.826 168.515 218.698 167.464L253.108 154.858L275.233 215.253L275.249 215.298Z" fill="white"/>
<path opacity="0.2" d="M237.775 160.463L253.131 154.851L275.257 215.279L259.901 220.907C258.879 219.919 258.097 218.708 257.617 217.37L238.321 164.644C237.817 163.311 237.63 161.88 237.775 160.463V160.463Z" fill="#407BFF"/>
<path d="M287.616 169.903L286.106 170.456L289.79 180.511L291.3 179.958L287.616 169.903Z" fill="#407BFF"/>
<path d="M283.78 164.193L278.361 149.368C277.431 146.854 275.754 144.685 273.555 143.152C271.355 141.62 268.74 140.798 266.059 140.797C264.534 140.792 263.021 141.059 261.589 141.585L251.813 145.171L251.25 143.659L261.042 140.073C262.649 139.484 264.348 139.185 266.059 139.189C269.071 139.196 272.009 140.124 274.478 141.849C276.947 143.573 278.829 146.012 279.872 148.837L285.291 163.663L283.78 164.193Z" fill="#407BFF"/>
<path d="M275.516 219.629L289.876 214.435C294.567 212.738 296.995 207.559 295.298 202.868L275.807 148.982C274.111 144.29 268.932 141.863 264.24 143.56L249.881 148.754C245.189 150.451 242.762 155.629 244.459 160.321L263.949 214.207C265.646 218.898 270.825 221.326 275.516 219.629Z" fill="#5E2CED"/>
<path d="M267.298 165.335C267.626 166.232 267.68 167.205 267.454 168.133C267.228 169.06 266.732 169.9 266.029 170.546C265.326 171.191 264.447 171.614 263.503 171.759C262.56 171.905 261.594 171.767 260.729 171.364C259.864 170.961 259.138 170.31 258.642 169.493C258.147 168.677 257.906 167.732 257.948 166.779C257.99 165.825 258.314 164.905 258.879 164.136C259.445 163.366 260.225 162.782 261.123 162.457C262.324 162.021 263.648 162.08 264.805 162.62C265.963 163.159 266.859 164.136 267.298 165.335Z" fill="white"/>
<path d="M279.309 198.122C279.636 199.018 279.69 199.991 279.463 200.918C279.237 201.844 278.741 202.683 278.039 203.328C277.336 203.973 276.458 204.395 275.515 204.541C274.573 204.687 273.608 204.55 272.743 204.148C271.878 203.746 271.152 203.096 270.656 202.282C270.16 201.467 269.917 200.523 269.957 199.571C269.997 198.618 270.319 197.698 270.882 196.928C271.445 196.158 272.223 195.572 273.119 195.244C273.714 195.026 274.347 194.927 274.98 194.954C275.614 194.981 276.236 195.132 276.811 195.399C277.386 195.667 277.902 196.045 278.331 196.512C278.76 196.979 279.092 197.526 279.309 198.122V198.122Z" fill="white"/>
<path d="M138.336 194.247L138.207 194.102C135.699 191.594 133.046 188.86 130.65 186.062C128.254 183.264 125.906 180.466 123.768 177.572C121.671 174.748 119.764 171.788 118.059 168.712C116.839 166.511 115.801 164.215 114.956 161.846C115.92 158.63 116.95 155.414 118.172 152.326C119.571 148.612 121.147 144.962 122.867 141.36C124.588 137.758 126.421 134.22 128.399 130.763C129.363 129.026 130.376 127.306 131.422 125.617L133.03 123.141C133.528 122.337 134.123 121.533 134.541 120.842L134.718 120.584C135.861 118.842 136.283 116.724 135.895 114.677C135.507 112.629 134.339 110.813 132.637 109.609C130.936 108.406 128.834 107.911 126.774 108.227C124.715 108.544 122.858 109.648 121.597 111.306C120.793 112.4 120.182 113.268 119.538 114.217C118.895 115.165 118.316 116.114 117.705 117.063C116.532 118.96 115.39 120.874 114.296 122.819C112.121 126.701 110.151 130.695 108.395 134.783C107.495 136.809 106.787 138.883 105.87 140.958C104.954 143.032 104.343 145.138 103.7 147.293C102.335 151.563 101.213 155.906 100.339 160.302V160.672C100.089 161.845 100.173 163.065 100.58 164.193C102.138 168.316 104.207 172.227 106.739 175.835C109.123 179.26 111.779 182.486 114.682 185.483C117.51 188.371 120.512 191.082 123.671 193.604C126.829 196.121 130.142 198.436 133.592 200.534C134.43 201.024 135.418 201.192 136.37 201.006C137.323 200.819 138.175 200.292 138.766 199.523C139.358 198.754 139.649 197.795 139.585 196.827C139.52 195.859 139.105 194.947 138.416 194.263L138.336 194.247Z" fill="#FF8B7B"/>
<path d="M157.021 202.239L156.812 201.82C156.144 200.427 155.162 199.208 153.943 198.259C152.723 197.31 151.3 196.658 149.785 196.353L137.58 193.877L131.615 196.852C132.258 203.541 141.809 207.545 141.809 207.545L144.527 210.648C145.443 211.689 146.711 212.355 148.088 212.518C149.465 212.681 150.854 212.33 151.988 211.533L155.204 209.233C156.285 208.47 157.06 207.349 157.393 206.069C157.726 204.788 157.594 203.431 157.021 202.239V202.239Z" fill="#FF8B7B"/>
<path d="M127.386 102.269C120.616 105.373 113.412 116.114 113.412 116.114L127.884 143.209C127.884 143.209 144.334 124.251 142.951 114.763C141.825 106.707 136.004 98.3135 127.386 102.269Z" fill="#5E2CED"/>
<g opacity="0.3">
<path opacity="0.3" d="M127.386 102.269C120.616 105.373 113.412 116.114 113.412 116.114L127.884 143.209C127.884 143.209 144.334 124.251 142.951 114.763C141.825 106.707 136.004 98.3135 127.386 102.269Z" fill="white"/>
</g>
<path d="M590.65 457.283C576.484 457.283 562.559 454.373 555.805 445.561C523.838 403.753 524.127 319.655 524.401 238.274C524.561 194.456 528.019 153.05 523.146 120.89C520.284 101.932 510.282 88.9228 500.184 82.2014C485.198 72.2961 464.615 77.6186 455.82 79.8858C454.724 80.192 453.578 80.2765 452.449 80.1344C451.321 79.9924 450.232 79.6267 449.246 79.0587C448.26 78.4906 447.398 77.7317 446.709 76.8264C446.021 75.921 445.519 74.8873 445.235 73.7859C444.95 72.6844 444.888 71.5373 445.053 70.4116C445.217 69.2859 445.604 68.2043 446.191 67.2301C446.779 66.2559 447.554 65.4085 448.473 64.7377C449.392 64.0669 450.435 63.5861 451.542 63.3234C462.525 60.4773 488.285 53.8362 509.607 67.9223C523.999 77.4256 536.445 94.39 540.063 118.333C545.128 151.78 541.671 193.797 541.51 238.274C541.236 316.793 540.963 397.98 569.393 435.109C571.692 438.1 580.649 440.785 595.523 440.014C596.841 440.014 598.128 439.869 599.398 439.756C598.822 438.591 598.525 437.309 598.53 436.01C598.53 433.741 599.431 431.565 601.035 429.961C602.639 428.356 604.815 427.455 607.084 427.455C625.785 427.455 635.626 429.063 637.524 437.618C638.07 440.078 638.36 446.253 629.323 450.482C622.569 453.649 606.457 457.283 590.65 457.283Z" fill="#5E2CED"/>
<path d="M403.447 464.664L386 457.798L395.198 427.552L412.661 434.402L403.447 464.664Z" fill="#FFC3BD"/>
<path d="M385.582 455.949L405.264 463.667C405.513 463.768 405.721 463.95 405.855 464.183C405.989 464.416 406.041 464.687 406.004 464.954L404.074 477.207C404.024 477.503 403.908 477.784 403.735 478.029C403.561 478.275 403.335 478.478 403.073 478.625C402.811 478.771 402.519 478.857 402.219 478.876C401.919 478.895 401.619 478.847 401.34 478.734C396.404 476.692 388.669 473.315 382.414 470.855C378.571 469.343 371.255 466.931 365.932 464.841C360.61 462.751 361.993 457.219 364.324 457.605C374.921 459.31 378.973 457.492 383.202 455.917C383.97 455.623 384.822 455.634 385.582 455.949V455.949Z" fill="#263a5d"/>
<path opacity="0.2" d="M412.661 434.418L395.198 427.552L390.454 443.149L407.917 450.015L412.661 434.418Z" fill="black"/>
<path d="M434.481 200.293C434.481 200.293 418.691 278.345 412.661 316.841C405.875 359.983 387.946 438.791 387.946 438.791L411.149 447.909C411.149 447.909 444.29 367.219 448.905 328.145C462.814 296.387 490.472 202.93 490.472 202.93L434.481 200.293Z" fill="#5E2CED"/>
<path d="M386.82 438.92L412.291 448.938L416.649 441.22L388.171 429.417L386.82 438.92Z" fill="#263a5d"/>
<path d="M380.581 456.286C379.693 456.01 378.923 455.444 378.394 454.678C378.248 454.395 378.171 454.081 378.171 453.762C378.171 453.443 378.248 453.129 378.394 452.845C378.46 452.671 378.573 452.518 378.72 452.404C378.868 452.29 379.045 452.22 379.23 452.202C380.919 452.025 384.054 456.142 384.36 456.624C384.395 456.677 384.413 456.738 384.413 456.801C384.413 456.864 384.395 456.925 384.36 456.978C384.326 457.031 384.278 457.073 384.221 457.098C384.164 457.124 384.1 457.132 384.038 457.123C382.859 456.97 381.7 456.69 380.581 456.286V456.286ZM379.729 452.926C379.599 452.862 379.455 452.834 379.311 452.845C379.214 452.845 379.102 452.845 378.989 453.119C378.882 453.31 378.826 453.526 378.826 453.746C378.826 453.965 378.882 454.181 378.989 454.373C379.456 455.225 381.064 455.981 383.395 456.367C382.416 454.986 381.169 453.816 379.729 452.926V452.926Z" fill="#407BFF"/>
<path d="M384.006 457.107C383.954 457.089 383.909 457.055 383.878 457.01C382.848 455.788 381.401 452.009 382.27 450.707C382.404 450.505 382.603 450.355 382.834 450.282C383.065 450.208 383.314 450.217 383.54 450.305C383.779 450.366 384.002 450.476 384.196 450.628C384.39 450.78 384.55 450.971 384.665 451.189C385.662 452.974 384.537 456.737 384.489 456.897C384.47 456.955 384.436 457.005 384.391 457.045C384.345 457.085 384.29 457.111 384.231 457.123C384.196 457.14 384.156 457.148 384.117 457.145C384.077 457.142 384.039 457.129 384.006 457.107V457.107ZM383.459 450.964H383.331C382.913 450.868 382.816 450.964 382.768 451.109C382.286 451.881 383.074 454.614 383.99 456.11C384.449 454.622 384.449 453.031 383.99 451.543C383.888 451.292 383.7 451.087 383.459 450.964V450.964Z" fill="#407BFF"/>
<path opacity="0.2" d="M468.523 247.552C459.775 258.39 456.318 286.015 456.35 309.042C462.251 292.785 469.021 272.138 474.971 253.389L468.523 247.552Z" fill="black"/>
<path d="M508.449 467.575H489.7L487.208 436.058H505.957L508.449 467.575Z" fill="#FFC3BD"/>
<path d="M488.639 465.999H509.784C510.055 465.997 510.318 466.088 510.529 466.258C510.74 466.428 510.886 466.666 510.942 466.931L513.627 479.024C513.69 479.319 513.685 479.624 513.614 479.918C513.543 480.211 513.406 480.484 513.214 480.717C513.023 480.951 512.781 481.138 512.508 481.265C512.234 481.392 511.935 481.456 511.633 481.452C506.295 481.355 497.885 481.034 491.163 481.034C487.015 481.034 479.328 481.468 473.62 481.468C467.912 481.468 467.188 475.824 469.487 475.309C479.988 473.01 483.107 469.858 486.452 466.835C487.055 466.299 487.832 466.002 488.639 465.999V465.999Z" fill="#263a5d"/>
<path opacity="0.2" d="M505.957 436.058H487.192L488.494 452.315H507.259L505.957 436.058Z" fill="black"/>
<path d="M457.186 201.274C457.186 201.274 467.574 288.25 469.761 319.558C472.8 363.135 484.554 449.163 484.554 449.163H509.478C509.478 449.163 512.148 361.302 507.645 322.211C513.852 288.106 511.89 203.895 511.89 203.895L457.186 201.274Z" fill="#5E2CED"/>
<path d="M483.557 449.694H510.926L512.164 440.93L481.338 440.351L483.557 449.694Z" fill="#263a5d"/>
<path d="M484.056 468.137C483.13 468.207 482.207 467.963 481.435 467.446C481.195 467.236 481.009 466.972 480.892 466.675C480.774 466.379 480.729 466.059 480.76 465.742C480.76 465.552 480.812 465.366 480.912 465.204C481.011 465.042 481.153 464.911 481.322 464.825C482.834 464.053 487.224 466.755 487.754 467.06C487.81 467.092 487.855 467.139 487.884 467.196C487.913 467.254 487.923 467.318 487.915 467.382C487.901 467.446 487.869 467.505 487.824 467.553C487.779 467.601 487.721 467.637 487.658 467.655C486.479 467.951 485.271 468.113 484.056 468.137ZM482.03 465.323C481.886 465.314 481.742 465.342 481.612 465.404C481.531 465.404 481.435 465.532 481.419 465.774C481.385 465.99 481.408 466.212 481.484 466.417C481.56 466.622 481.687 466.805 481.853 466.948C482.593 467.575 484.378 467.655 486.677 467.189C485.278 466.277 483.717 465.644 482.078 465.323H482.03Z" fill="#407BFF"/>
<path d="M487.594 467.655H487.433C486.034 466.883 483.3 463.908 483.59 462.381C483.638 462.144 483.767 461.931 483.955 461.779C484.142 461.626 484.377 461.543 484.619 461.545C484.862 461.51 485.11 461.528 485.346 461.598C485.582 461.667 485.8 461.786 485.986 461.947C487.594 463.249 487.899 467.173 487.915 467.333C487.918 467.392 487.907 467.451 487.882 467.505C487.856 467.558 487.818 467.604 487.77 467.639C487.714 467.659 487.653 467.664 487.594 467.655V467.655ZM484.844 462.14H484.699C484.281 462.14 484.249 462.397 484.233 462.477C484.056 463.362 485.841 465.693 487.192 466.69C487.094 465.136 486.534 463.647 485.584 462.413C485.375 462.242 485.114 462.145 484.844 462.14V462.14Z" fill="#407BFF"/>
<path d="M465.789 81.3331L450.77 81.1401C445.721 81.1401 440.704 80.9793 435.736 80.8989C434.224 80.8989 432.745 80.8024 431.249 80.7381C431.346 80.7381 431.41 80.5612 431.49 80.4808C432.552 79.3552 433.613 78.1975 434.706 77.0879C435.253 76.5091 435.789 75.9463 436.314 75.3995C436.813 74.8528 437.456 74.2418 437.794 73.7915L439.161 72.0549C440.238 70.6806 440.855 69.0019 440.925 67.257C440.994 65.5122 440.513 63.7897 439.548 62.334C438.584 60.8783 437.185 59.7632 435.551 59.1471C433.917 58.531 432.131 58.445 430.445 58.9014L427.47 59.7054C426.554 59.9788 425.637 60.2843 424.721 60.5898C422.92 61.217 421.151 61.9084 419.398 62.6642C415.866 64.2237 412.454 66.0402 409.187 68.0992C405.804 70.2614 402.604 72.6977 399.62 75.3834C396.461 78.2556 393.6 81.4395 391.081 84.8867C390.446 85.7469 389.906 86.6744 389.473 87.6525C387.98 91.075 387.907 94.9506 389.269 98.4272C390.632 101.904 393.32 104.697 396.742 106.193L398.205 106.836C401.509 108.258 404.931 109.387 408.432 110.213C411.487 111.001 414.381 111.515 417.227 111.998C420.074 112.48 422.855 112.866 425.621 113.204C428.387 113.541 431.121 113.799 433.854 114.024C439.305 114.506 444.708 114.747 450.095 114.908C455.482 115.069 460.756 115.069 466.352 114.812C470.715 114.625 474.834 112.743 477.829 109.565C480.825 106.387 482.462 102.165 482.391 97.798C482.319 93.4312 480.546 89.2648 477.448 86.1864C474.35 83.1079 470.172 81.3607 465.805 81.317L465.789 81.3331Z" fill="#FFC3BD"/>
<path d="M474.536 110.679C461.56 125.473 430.333 119.941 430.333 119.941L432.053 83.0858C442.757 80.7301 453.672 79.4641 464.631 79.307C482.962 79.2748 484.924 98.812 474.536 110.679Z" fill="#263a5d"/>
<path d="M439.9 99.3427C439.128 105.292 438.292 113.3 437.794 124.074C431.024 158.324 428.5 182.589 434.481 200.293C439.209 206.13 500.811 205.004 511.89 203.879C518.323 187.96 518.998 142.26 519.754 103.845C519.848 98.5515 518.043 93.3992 514.665 89.3223C511.288 85.2453 506.561 82.5137 501.342 81.6225C487.479 79.1652 473.338 78.6887 459.341 80.2074C454.429 80.7663 449.845 82.9545 446.321 86.4228C442.797 89.8911 440.537 94.4396 439.9 99.3427V99.3427Z" fill="#263a5d"/>
<path opacity="0.2" d="M499.67 122.723C499.879 134.429 508.369 153.13 517.92 162.617C518.499 152.728 518.869 142.003 519.159 131.181L499.67 122.723Z" fill="black"/>
<path d="M553.345 145.476L552.798 144.19C550.55 138.826 547.922 133.63 544.935 128.64C542.073 123.816 538.985 119.266 535.785 114.876C532.585 110.486 529.193 106.289 525.719 102.205C523.95 100.179 522.198 98.1527 520.349 96.1909L517.567 93.2644L514.608 90.2735C511.509 87.2133 507.34 85.4802 502.984 85.4415C498.629 85.4028 494.43 87.0615 491.277 90.0662C488.123 93.0709 486.264 97.1853 486.093 101.537C485.922 105.89 487.452 110.137 490.359 113.38L490.842 113.911L500.281 124.411C503.497 127.981 506.568 131.615 509.623 135.233C511.102 137.05 512.63 138.867 514.013 140.716C515.396 142.566 516.859 144.351 518.242 146.184C520.236 148.966 522.166 151.731 523.886 154.449C523.623 155.821 523.29 157.179 522.889 158.517C521.734 162.412 520.376 166.244 518.821 169.998C517.213 173.97 515.508 178.038 513.74 182.042C511.971 186.046 510.073 190.227 508.385 194.247L508.224 194.601C507.483 196.378 507.371 198.354 507.905 200.204C508.44 202.053 509.589 203.665 511.164 204.773C512.739 205.881 514.644 206.418 516.565 206.296C518.487 206.175 520.309 205.401 521.731 204.104C525.278 200.816 528.644 197.337 531.814 193.684C535.03 190.071 538.047 186.266 540.867 182.267C542.298 180.257 543.664 178.167 545.015 175.996C546.418 173.789 547.701 171.507 548.858 169.162C550.16 166.604 551.288 163.961 552.235 161.251C553.469 157.781 554.163 154.142 554.293 150.461C554.335 148.751 554.011 147.052 553.345 145.476V145.476Z" fill="#FFC3BD"/>
<path d="M502.435 81.8315C524.127 85.546 538.262 114.908 538.262 114.908L512.116 143.032C512.116 143.032 497.049 127.692 487.996 113.477C478.235 98.008 486.902 79.1944 502.435 81.8315Z" fill="#263a5d"/>
<path d="M462.814 35.5372C459.18 29.4429 457.99 21.0652 464.647 12.5267C463.35 12.6893 462.034 12.472 460.858 11.9012C459.682 11.3303 458.697 10.4304 458.022 9.31072C465.312 3.34686 474.478 0.156751 483.895 0.305923C503.352 0.305923 504.799 7.81528 504.14 12.9448C517.454 13.797 527.166 48.4173 493.415 54.5438C474.102 34.2026 462.814 35.5372 462.814 35.5372Z" fill="#263a5d"/>
<path d="M502.918 13.5719C502.918 13.5719 508.337 8.0404 501.599 1.35112C503.11 1.76531 504.487 2.56359 505.597 3.66823C506.708 4.77286 507.513 6.14619 507.935 7.65448C508.884 11.5458 506.262 14.6654 502.918 13.5719Z" fill="#263a5d"/>
<path d="M495.457 50.3147C494.942 60.9758 493.977 73.1001 495.762 81.6064C492.996 85.9641 485.921 90.9811 473.25 92.1067C468.748 89.5499 462.798 83.2948 464.873 80.0788C470.259 76.6216 472.543 66.1535 470.999 58.3226L495.457 50.3147Z" fill="#FFC3BD"/>
<path opacity="0.2" d="M489.282 52.3247L470.967 58.3226C471.59 61.6575 471.617 65.0764 471.047 68.4208C476.514 68.2439 484.088 64.1274 486.934 60.2682C487.861 59.1833 488.55 57.9152 488.954 56.5465C489.359 55.1779 489.47 53.7394 489.282 52.3247Z" fill="black"/>
<path d="M500.795 33.4307C497.402 46.5038 496.084 54.3347 488.076 59.818C476.032 68.067 460.885 58.821 460.29 45.0083C459.775 32.5624 465.403 13.2664 479.393 10.5167C482.473 9.89896 485.66 10.079 488.651 11.0398C491.643 12.0005 494.338 13.7101 496.483 16.0061C498.627 18.302 500.149 21.1081 500.904 24.1578C501.659 27.2076 501.621 30.3996 500.795 33.4307V33.4307Z" fill="#FFC3BD"/>
<path d="M498.094 14.7136C492.353 18.7979 485.23 36.1 499.702 43.0466C512.695 31.6298 509.334 14.7136 498.094 14.7136Z" fill="#263a5d"/>
<path d="M501.406 16.7879C503.866 5.40329 475.132 -0.481989 466.03 12.8162C462.943 20.824 499.67 27.8992 501.406 16.7879Z" fill="#263a5d"/>
<path d="M479.972 47.3078C476.986 45.9579 473.785 45.1467 470.517 44.9118C470.471 44.9118 470.426 44.921 470.383 44.939C470.341 44.957 470.303 44.9833 470.272 45.0164C470.24 45.0494 470.216 45.0886 470.2 45.1314C470.184 45.1743 470.177 45.2199 470.179 45.2656C470.197 45.3696 470.25 45.4643 470.329 45.5344C470.407 45.6045 470.508 45.6458 470.613 45.6515C473.746 45.878 476.815 46.6507 479.682 47.9349C479.772 47.9744 479.874 47.9781 479.967 47.9453C480.059 47.9124 480.136 47.8454 480.181 47.758C480.198 47.7149 480.207 47.6685 480.206 47.6219C480.205 47.5753 480.194 47.5294 480.175 47.4871C480.155 47.4448 480.127 47.407 480.092 47.3762C480.057 47.3453 480.016 47.322 479.972 47.3078V47.3078Z" fill="#263a5d"/>
<path d="M503.931 47.7259C501.601 50.1993 498.387 51.6502 494.99 51.762C490.488 51.8584 489.346 47.5651 491.517 43.8988C493.479 40.6828 498.174 36.5663 502.259 38.2065C506.343 39.8466 506.761 44.6546 503.931 47.7259Z" fill="#FFC3BD"/>
<path d="M480.004 33.2056C479.795 34.283 479.055 35.0548 478.396 34.9101C477.737 34.7654 477.302 33.7845 477.511 32.7071C477.72 31.6298 478.46 30.874 479.119 31.0991C479.779 31.3242 480.213 32.08 480.004 33.2056Z" fill="#263a5d"/>
<path d="M467.831 30.8418C467.622 31.9192 466.883 32.675 466.223 32.5463C465.564 32.4177 465.114 31.4207 465.323 30.3434C465.532 29.266 466.272 28.4942 466.931 28.6389C467.59 28.7836 467.976 29.7645 467.831 30.8418Z" fill="#263a5d"/>
<path d="M471.594 32.08C469.665 35.1234 467.327 37.8881 464.647 40.2969C466.255 42.4355 469.809 42.0174 469.809 42.0174L471.594 32.08Z" fill="#ED847E"/>
<path d="M478.251 26.9505C478.366 26.9254 478.485 26.9299 478.598 26.9637C478.71 26.9974 478.812 27.0593 478.894 27.1435C479.411 27.7675 480.067 28.2604 480.811 28.5818C481.554 28.9032 482.363 29.044 483.172 28.9927C483.342 28.9695 483.514 29.0136 483.652 29.1157C483.791 29.2178 483.883 29.3698 483.911 29.5394C483.925 29.623 483.921 29.7086 483.901 29.7909C483.881 29.8731 483.844 29.9504 483.793 30.0181C483.741 30.0857 483.677 30.1423 483.604 30.1844C483.53 30.2265 483.449 30.2532 483.365 30.263C482.344 30.3451 481.318 30.1823 480.372 29.7879C479.427 29.3935 478.589 28.7791 477.929 27.9957C477.869 27.9373 477.821 27.8673 477.789 27.7899C477.756 27.7126 477.739 27.6294 477.739 27.5455C477.739 27.4615 477.756 27.3783 477.789 27.301C477.821 27.2237 477.869 27.1537 477.929 27.0952C478.025 27.0242 478.135 26.9748 478.251 26.9505V26.9505Z" fill="#263a5d"/>
<path d="M464.069 23.3807C463.935 23.353 463.815 23.279 463.731 23.1717C463.677 23.1046 463.637 23.0274 463.613 22.9446C463.589 22.8618 463.583 22.7751 463.593 22.6896C463.604 22.6041 463.631 22.5216 463.674 22.447C463.717 22.3723 463.775 22.3071 463.843 22.2551C464.633 21.6079 465.566 21.158 466.564 20.9427C467.562 20.7274 468.598 20.7528 469.584 21.017C469.747 21.0721 469.882 21.1888 469.96 21.342C470.038 21.4952 470.053 21.6728 470.002 21.8371C469.938 21.9923 469.819 22.1187 469.668 22.1927C469.517 22.2667 469.344 22.2832 469.182 22.2391V22.2391C468.396 22.0386 467.574 22.0274 466.783 22.2063C465.992 22.3852 465.254 22.7491 464.631 23.2682C464.556 23.3357 464.464 23.3818 464.365 23.4016C464.266 23.4214 464.164 23.4142 464.069 23.3807V23.3807Z" fill="#263a5d"/>
<path d="M515.975 193.78L502.162 193.684L509.302 209.539C509.302 209.539 521.088 207.014 520.445 200.614L515.975 193.78Z" fill="#FFC3BD"/>
<path d="M495.135 204.57L497.402 209.04C498.012 210.231 499.044 211.151 500.296 211.621C501.548 212.09 502.93 212.076 504.172 211.581L509.302 209.539L502.162 193.684L496.679 197.865C495.675 198.623 494.97 199.711 494.687 200.937C494.405 202.163 494.564 203.449 495.135 204.57Z" fill="#FFC3BD"/>
<path d="M410.828 182.106C409.159 182.089 407.532 181.585 406.145 180.656C404.759 179.727 403.674 178.414 403.024 176.877C402.373 175.341 402.185 173.647 402.483 172.006C402.781 170.364 403.552 168.844 404.701 167.634C410.844 161.299 416.391 156.378 421.28 152.085C433.082 141.681 437.151 137.613 436.765 129.814C436.187 125.002 435.164 120.255 433.71 115.632C430.188 102.687 426.2 88.0384 433.034 76.2839C436.7 69.9645 442.923 65.639 451.542 63.4199C453.721 62.9028 456.016 63.2608 457.934 64.4171C459.852 65.5734 461.24 67.4358 461.8 69.6042C462.36 71.7727 462.048 74.0743 460.929 76.0147C459.811 77.9551 457.977 79.3797 455.82 79.9823C449.757 81.5903 448.294 84.0505 447.78 84.8867C444.564 90.4343 447.667 101.915 450.175 111.129C451.992 116.94 453.21 122.92 453.81 128.978C454.614 145.46 444.885 154.047 432.552 164.917C427.905 169.033 422.614 173.697 416.922 179.55C416.128 180.361 415.18 181.005 414.133 181.444C413.087 181.883 411.963 182.108 410.828 182.106V182.106Z" fill="#5E2CED"/>
<path d="M429.593 59.2552L442.972 55.8302L439.852 72.9393C439.852 72.9393 427.808 73.3091 426.908 66.9575L429.593 59.2552Z" fill="#FFC3BD"/>
<path d="M452.362 64.8993L451.333 69.3695C451.017 70.735 450.202 71.9328 449.047 72.7273C447.892 73.5218 446.482 73.8556 445.094 73.6629L439.852 72.9393L442.972 55.8302L449.114 58.4834C450.321 59.0032 451.307 59.9302 451.901 61.1027C452.494 62.2752 452.658 63.6188 452.362 64.8993Z" fill="#FFC3BD"/>
<path d="M406.045 153.971L405.681 153.607C404.054 151.981 401.417 151.981 399.791 153.608L352.374 201.042C350.748 202.668 350.748 205.305 352.375 206.931L352.739 207.295C354.366 208.921 357.003 208.921 358.629 207.294L406.046 159.86C407.672 158.234 407.672 155.597 406.045 153.971Z" fill="#263a5d"/>
<path d="M430.758 178.652L430.394 178.288C428.768 176.662 426.131 176.662 424.504 178.288L377.079 225.714C375.452 227.34 375.452 229.977 377.079 231.603L377.443 231.967C379.069 233.594 381.706 233.594 383.332 231.967L430.758 184.542C432.384 182.915 432.384 180.278 430.758 178.652Z" fill="#263a5d"/>
<path d="M367.335 171.627L400.752 138.21C401.823 137.139 403.094 136.29 404.492 135.711C405.891 135.131 407.391 134.833 408.905 134.833C410.419 134.833 411.918 135.131 413.317 135.711C414.715 136.29 415.986 137.139 417.057 138.21L446.267 167.42C447.338 168.491 448.187 169.762 448.767 171.161C449.346 172.559 449.644 174.059 449.644 175.573C449.644 177.087 449.346 178.586 448.767 179.985C448.187 181.384 447.338 182.655 446.267 183.725L412.85 217.142L367.335 171.627Z" fill="#407BFF"/>
<path opacity="0.7" d="M367.335 171.627L400.752 138.21C401.823 137.139 403.094 136.29 404.492 135.711C405.891 135.131 407.391 134.833 408.905 134.833C410.419 134.833 411.918 135.131 413.317 135.711C414.715 136.29 415.986 137.139 417.057 138.21L446.267 167.42C447.338 168.491 448.187 169.762 448.767 171.161C449.346 172.559 449.644 174.059 449.644 175.573C449.644 177.087 449.346 178.586 448.767 179.985C448.187 181.384 447.338 182.655 446.267 183.725L412.85 217.142L367.335 171.627Z" fill="white"/>
<path opacity="0.2" d="M378.861 160.012L367.283 171.574L412.806 217.096L424.367 205.519C423.907 204.173 423.142 202.951 422.132 201.949L382.43 162.328C381.437 161.289 380.215 160.496 378.861 160.012V160.012Z" fill="#407BFF"/>
<path d="M365.331 165.744L364.501 166.574C360.972 170.103 360.972 175.825 364.501 179.354L405.036 219.889C408.565 223.418 414.287 223.418 417.816 219.889L418.646 219.059C422.176 215.53 422.176 209.808 418.646 206.279L378.111 165.744C374.582 162.215 368.86 162.215 365.331 165.744Z" fill="#407BFF"/>
</svg>
