<svg width="206" height="82" viewBox="0 0 206 82" fill="none" xmlns="http://www.w3.org/2000/svg">
<path d="M42.5848 0L85.0159 30.7795L68.6552 80.3666L16.1121 80.2354L0 30.5663L42.5848 0Z" fill="url(#paint0_linear)"/>
<path fill-rule="evenodd" clip-rule="evenodd" d="M53.4193 37.1116C55.5496 37.1116 57.2761 38.8319 57.2761 40.9541C57.2761 43.0779 55.5496 44.7983 53.4193 44.7983C51.289 44.7983 49.5609 43.0779 49.5609 40.9541C49.5609 38.8319 51.289 37.1116 53.4193 37.1116Z" fill="white"/>
<path d="M36.5013 24.7115H41.2164V53.4574H57.0555V57.4066H36.5013V24.7115Z" fill="white"/>
<path d="M102.169 22.9666H110.115V50.9122H127.331V57.4066H102.169V22.9666ZM142.162 30.5434C146.249 30.5434 149.388 31.5274 151.579 33.4954C153.77 35.4306 154.865 38.3662 154.865 42.3022V57.4066H147.704V54.1102C146.265 56.5702 143.584 57.8002 139.66 57.8002C137.633 57.8002 135.867 57.4558 134.363 56.767C132.892 56.0782 131.764 55.127 130.979 53.9134C130.194 52.6998 129.802 51.3222 129.802 49.7806C129.802 47.3206 130.717 45.3854 132.548 43.975C134.412 42.5646 137.273 41.8594 141.132 41.8594H147.214C147.214 40.1866 146.707 38.9074 145.693 38.0218C144.679 37.1034 143.159 36.6442 141.132 36.6442C139.726 36.6442 138.336 36.8738 136.963 37.333C135.622 37.7594 134.478 38.3498 133.529 39.1042L130.783 33.7414C132.221 32.7246 133.938 31.9374 135.933 31.3798C137.96 30.8222 140.036 30.5434 142.162 30.5434ZM141.573 52.6342C142.881 52.6342 144.042 52.339 145.056 51.7486C146.069 51.1254 146.789 50.2234 147.214 49.0426V46.3366H141.966C138.826 46.3366 137.257 47.3698 137.257 49.4362C137.257 50.4202 137.633 51.2074 138.385 51.7978C139.17 52.3554 140.233 52.6342 141.573 52.6342ZM161.79 20.9002H169.441V57.4066H161.79V20.9002ZM187.185 30.5434C191.273 30.5434 194.412 31.5274 196.602 33.4954C198.793 35.4306 199.889 38.3662 199.889 42.3022V57.4066H192.728V54.1102C191.289 56.5702 188.608 57.8002 184.684 57.8002C182.657 57.8002 180.891 57.4558 179.387 56.767C177.915 56.0782 176.787 55.127 176.002 53.9134C175.218 52.6998 174.825 51.3222 174.825 49.7806C174.825 47.3206 175.741 45.3854 177.572 43.975C179.436 42.5646 182.297 41.8594 186.155 41.8594H192.237C192.237 40.1866 191.73 38.9074 190.717 38.0218C189.703 37.1034 188.183 36.6442 186.155 36.6442C184.749 36.6442 183.36 36.8738 181.986 37.333C180.646 37.7594 179.501 38.3498 178.553 39.1042L175.806 33.7414C177.245 32.7246 178.962 31.9374 180.956 31.3798C182.984 30.8222 185.06 30.5434 187.185 30.5434ZM186.597 52.6342C187.905 52.6342 189.065 52.339 190.079 51.7486C191.093 51.1254 191.812 50.2234 192.237 49.0426V46.3366H186.989C183.85 46.3366 182.281 47.3698 182.281 49.4362C182.281 50.4202 182.657 51.2074 183.409 51.7978C184.193 52.3554 185.256 52.6342 186.597 52.6342Z" fill="white"/>
<defs>
<linearGradient id="paint0_linear" x1="0" y1="0" x2="85.0159" y2="0" gradientUnits="userSpaceOnUse">
<stop stop-color="#5E2CED"/>
<stop offset="1" stop-color="#4E62BB"/>
</linearGradient>
</defs>
</svg>
