<svg width="1642" height="1224" viewBox="0 0 1642 1224" fill="none" xmlns="http://www.w3.org/2000/svg">
<path d="M1475.43 788.141C1474.63 799.525 1473.23 810.309 1471.23 820.694C1432.68 1025.6 1175.98 1052.96 769.661 1018.61C478.603 994.046 334.773 933.134 274.244 820.694C245.877 768.17 235.689 704.461 237.288 627.77C242.481 347.571 468.815 342.179 545.524 322.607C622.234 303.035 640.213 233.934 640.213 233.934C712.328 -39.6748 937.862 2.46489 937.862 2.46489C1298.84 38.4135 1431.28 254.904 1385.14 413.277C1338.99 571.651 1492.81 546.686 1475.43 788.141Z" fill="#FFECCC"/>
<path d="M366.535 451.023C370.131 444.632 377.722 440.838 385.113 442.635C388.709 443.434 390.307 442.435 392.305 439.839C397.099 433.249 403.692 429.454 412.082 429.853C416.077 430.053 417.276 428.455 418.274 425.06C422.27 411.48 431.059 402.293 444.244 397.699C461.224 391.708 479.003 397.3 489.99 412.079C492.387 415.274 494.185 416.073 498.18 414.475C510.566 409.483 524.349 415.674 528.944 428.256C529.943 430.852 531.341 432.45 533.539 434.047C542.328 440.039 546.124 450.424 543.127 460.01C539.931 470.395 531.141 476.986 520.354 477.186C497.381 477.186 474.208 477.186 451.236 477.186C428.063 477.186 404.89 477.385 381.717 477.186C368.333 476.786 360.143 462.607 366.535 451.023Z" fill="white"/>
<path d="M920.483 381.123H1024.36V327.001H1014.97V281.466H1160.2V331.394H1149.21V381.123H1231.72L1316.62 503.149H1281.26V812.706H1003.39L920.483 381.123Z" fill="#659B91"/>
<path d="M759.073 249.312L514.96 435.046V813.704H759.073H1003.39V435.046L759.073 249.312Z" fill="white"/>
<path d="M1024.16 490.167C1019.37 490.167 1014.37 488.569 1010.38 485.174L759.073 277.272L507.769 485.174C498.58 492.763 484.996 491.565 477.405 482.378C469.814 473.191 471.012 459.611 480.201 452.022L745.289 232.735C753.28 226.145 764.866 226.145 772.857 232.735L1037.94 452.022C1047.13 459.611 1048.33 473.191 1040.74 482.378C1036.55 487.571 1030.35 490.167 1024.16 490.167Z" fill="#2D656E"/>
<path d="M837.381 812.706V654.532C837.381 611.194 802.222 576.244 759.073 576.244C715.724 576.244 680.765 611.394 680.765 654.532V812.706H837.381Z" fill="#F5E1DA"/>
<path d="M759.073 594.218C725.912 594.218 698.944 621.18 698.944 654.332V812.706H707.933V654.532C707.933 626.372 730.906 603.405 759.073 603.405C787.24 603.405 810.213 626.372 810.213 654.532V812.706H819.202V654.532C819.402 621.379 792.234 594.218 759.073 594.218Z" fill="white"/>
<path d="M602.058 585.231V525.916C582.681 527.713 567.499 543.89 567.499 563.862V585.231H602.058Z" fill="#F5E1DA"/>
<path d="M608.85 585.231H643.409V563.862C643.409 544.09 628.227 527.713 608.85 525.916V585.231Z" fill="#F5E1DA"/>
<path d="M643.409 592.021H608.85V646.144H643.409V592.021Z" fill="#F5E1DA"/>
<path d="M602.058 592.021H567.499V646.144H602.058V592.021Z" fill="#F5E1DA"/>
<path d="M909.296 585.231V525.916C889.919 527.713 874.737 543.89 874.737 563.862V585.231H909.296Z" fill="#F5E1DA"/>
<path d="M916.088 585.231H950.647V563.862C950.647 544.09 935.465 527.713 916.088 525.916V585.231Z" fill="#F5E1DA"/>
<path d="M950.647 592.021H916.088V646.144H950.647V592.021Z" fill="#F5E1DA"/>
<path d="M909.296 592.021H874.737V646.144H909.296V592.021Z" fill="#F5E1DA"/>
<path d="M801.423 721.636C801.423 718.041 798.426 715.045 794.831 715.045C791.235 715.045 788.239 718.041 788.239 721.636C788.239 725.231 791.235 728.227 794.831 728.227C798.426 728.227 801.423 725.231 801.423 721.636Z" fill="white"/>
<path d="M761.47 599.411H756.875V812.706H761.47V599.411Z" fill="white"/>
<path d="M763.068 453.42H811.012C810.013 427.057 789.237 405.888 763.068 403.891V453.42Z" fill="#F5E1DA"/>
<path d="M755.078 453.42V403.891C728.908 405.888 708.333 427.057 707.134 453.42H755.078Z" fill="#F5E1DA"/>
<path d="M763.068 461.408V507.343C788.039 505.345 807.815 485.973 810.612 461.408H763.068Z" fill="#F5E1DA"/>
<path d="M755.077 461.408H707.533C710.33 485.973 730.307 505.345 755.077 507.343V461.408Z" fill="#F5E1DA"/>
<path d="M1001.19 191.395C1002.79 187.999 1005.38 185.803 1008.98 185.004C1012.57 184.205 1013.57 182.208 1014.17 178.813C1016.97 160.04 1030.55 150.054 1049.33 152.45C1053.13 152.85 1053.53 151.052 1053.93 148.256C1056.12 133.677 1063.71 122.693 1076.7 115.503C1100.87 102.322 1132.23 116.901 1137.83 143.863C1138.03 145.261 1138.43 146.659 1138.63 148.057C1139.03 151.052 1140.42 152.251 1143.62 152.051C1155.21 151.252 1164.6 155.446 1171.39 165.032C1173.19 167.429 1174.98 168.627 1177.98 168.827C1189.97 169.826 1198.76 179.412 1198.56 190.596C1198.36 202.179 1188.37 211.566 1176.18 211.766C1149.21 211.965 1122.25 211.766 1095.48 211.766C1068.51 211.766 1041.54 211.766 1014.77 211.766C1002.59 211.766 996.194 201.78 1001.19 191.395Z" fill="white"/>
<path d="M1584.9 812.905C1541.95 1032.79 1255.49 1062.35 801.822 1025.4C476.805 999.039 316.594 933.533 248.874 812.905H1584.9Z" fill="#B7884A"/>
<path d="M328.78 490.367C327.581 486.972 326.582 483.976 325.783 481.38C325.584 481.779 325.384 482.378 325.384 482.778C324.585 484.975 323.786 487.371 322.987 490.167C308.004 535.702 270.448 660.723 283.233 730.423C287.828 755.787 299.015 773.761 320.39 778.155V813.505H331.776V778.155C411.482 762.178 349.156 552.678 328.78 490.367Z" fill="#ACAF6D"/>
<path d="M1514.98 490.367C1513.78 486.972 1512.79 483.976 1511.99 481.38C1511.79 481.779 1511.59 482.378 1511.59 482.778C1510.79 484.975 1509.99 487.371 1509.19 490.167C1494.21 535.702 1456.65 660.723 1469.44 730.423C1474.03 755.787 1485.22 773.761 1506.59 778.155V813.505H1517.98V778.155C1597.49 762.178 1535.36 552.678 1514.98 490.367Z" fill="#ACAF6D"/>
<path d="M415.478 599.611C414.679 597.414 414.079 595.417 413.48 593.619C413.28 594.019 413.28 594.218 413.08 594.618C412.681 596.016 412.082 597.613 411.482 599.611C401.494 629.767 376.723 712.649 385.113 758.783C388.11 775.559 395.501 787.542 409.684 790.338V813.704H417.275V790.338C470.213 779.553 429.062 640.752 415.478 599.611Z" fill="#ACAF6D"/>
<path d="M1568.72 1178.58H307.405C301.412 1178.58 296.618 1173.79 296.618 1167.8C296.618 1161.81 301.412 1157.01 307.405 1157.01H1568.72C1574.71 1157.01 1579.51 1161.81 1579.51 1167.8C1579.51 1173.59 1574.71 1178.58 1568.72 1178.58Z" fill="#2D656E"/>
<path d="M407.287 1001.64C407.287 1005.43 406.888 1009.22 406.488 1012.82H44.5146C47.5111 965.887 81.0715 927.142 125.419 915.958C131.812 889.396 155.584 869.624 184.15 869.624C202.129 869.624 218.11 877.413 229.297 889.795C237.687 886.001 247.076 883.804 257.064 883.804C287.828 883.804 313.797 904.175 322.387 932.135C326.982 931.136 331.576 930.737 336.571 930.737C375.525 930.737 407.287 962.491 407.287 1001.64Z" fill="#ACAF6D"/>
<path d="M463.693 838.028L441.589 942.155L626.447 981.377L648.551 877.25L463.693 838.028Z" fill="#FFECCC"/>
<path d="M463.749 837.797L441.728 941.534L517.938 957.703L539.959 853.967L463.749 837.797Z" fill="#EED0C0"/>
<path d="M852.163 658.127L832.786 668.312L813.609 678.298L814.807 653.134V652.934C814.807 652.934 805.818 658.926 793.433 654.532C781.047 649.939 789.637 585.631 789.637 585.631L851.364 585.231L852.163 658.127Z" fill="#F2BD7C"/>
<path opacity="0.5" d="M832.586 668.312L813.409 678.298L814.607 653.134C818.403 649.739 830.788 640.352 834.384 642.549C836.582 643.947 835.982 655.131 832.586 668.312Z" fill="#F2BD7C"/>
<path d="M790.835 582.036C790.835 582.036 811.811 608.398 831.587 610.195C831.587 610.195 831.587 602.806 836.582 602.806C841.576 602.806 839.978 624.175 831.188 626.772C831.188 626.772 833.385 638.555 853.162 639.154C853.162 639.154 857.956 602.606 854.56 583.234L790.835 582.036Z" fill="#372329"/>
<path d="M759.672 586.629L856.358 588.227C856.358 588.227 862.951 550.481 825.794 550.681C787.639 550.88 788.239 580.638 788.239 580.638L764.866 581.037C762.069 581.237 759.672 583.633 759.672 586.629Z" fill="#F58883"/>
<path d="M809.613 669.111C809.613 669.111 824.396 656.529 853.562 648.94L854.561 660.923L805.418 682.891L809.613 669.111Z" fill="#F58883"/>
<path d="M658.591 1107.68L636.018 1134.25C636.018 1134.25 593.868 1104.49 564.103 1123.06L649.003 1171.39L678.767 1121.86L658.591 1107.68Z" fill="#372329"/>
<path d="M896.311 1094.7L927.674 1105.89C927.674 1105.89 915.489 1153.82 942.257 1174.19L956.44 1081.72L901.905 1071.93L896.311 1094.7Z" fill="#372329"/>
<path d="M791.834 937.527C791.834 937.527 785.841 1049.97 901.905 1104.49L921.482 1060.35C921.482 1060.35 840.177 1031.59 854.76 899.981L791.834 937.527Z" fill="#372329"/>
<path d="M792.633 730.024C792.633 730.024 800.025 684.689 805.618 679.496C811.212 674.104 850.765 652.135 858.356 657.128C865.348 661.722 882.927 766.172 879.331 858.041C878.732 871.222 868.145 881.607 854.96 881.607L800.624 882.007C785.642 882.007 774.055 869.025 776.053 854.047L792.633 730.024Z" fill="#F58883"/>
<path d="M781.646 870.223L646.206 1108.48C646.206 1108.48 686.758 1133.85 687.158 1132.05C687.757 1130.45 789.437 962.891 813.009 942.72C836.582 922.549 872.339 912.962 872.339 869.624L781.646 870.223Z" fill="#402E32"/>
<path d="M856.358 780.751C856.358 780.751 855.959 789.539 854.161 800.323C851.164 818.098 844.372 841.465 829.79 841.864C806.217 842.663 706.135 828.683 706.135 828.683L709.531 807.313C709.531 807.313 814.807 809.51 815.606 805.716C815.806 804.517 816.405 800.723 817.005 796.129C818.203 787.342 819.402 776.158 819.402 776.158L856.358 780.751Z" fill="#F2BD7C"/>
<path opacity="0.5" d="M856.358 780.751C856.358 780.751 855.959 789.539 854.161 800.323L817.005 796.329C818.203 787.542 819.402 776.358 819.402 776.358L856.358 780.751Z" fill="#F2BD7C"/>
<path d="M812.01 781.95C812.01 781.95 821.599 685.488 846.77 687.285C872.14 689.083 862.551 783.747 862.551 783.747L812.01 781.95Z" fill="white"/>
<path d="M690.031 836.91L676.757 834.026L614.088 1122.28L627.362 1125.16L690.031 836.91Z" fill="#402E32"/>
<path d="M381.917 1061.35L380.319 1068.54C379.919 1070.14 380.918 1071.93 382.716 1072.13L623.233 1124.46C624.831 1124.86 626.629 1123.86 626.829 1122.06L628.427 1114.87C628.826 1113.28 627.827 1111.48 626.03 1111.28L385.513 1058.95C383.915 1058.55 382.317 1059.55 381.917 1061.35Z" fill="#402E32"/>
<path d="M516.435 1158.98C531.18 1144.24 531.18 1120.34 516.435 1105.6C501.691 1090.86 477.786 1090.86 463.041 1105.6C448.297 1120.34 448.297 1144.24 463.041 1158.98C477.786 1173.72 501.691 1173.72 516.435 1158.98Z" fill="#402E32"/>
<path d="M489.79 1151.42C500.381 1151.42 508.967 1142.84 508.967 1132.25C508.967 1121.66 500.381 1113.08 489.79 1113.08C479.199 1113.08 470.613 1121.66 470.613 1132.25C470.613 1142.84 479.199 1151.42 489.79 1151.42Z" fill="white"/>
<path d="M489.79 1144.63C482.998 1144.63 477.405 1139.04 477.405 1132.25C477.405 1125.46 482.998 1119.87 489.79 1119.87C496.582 1119.87 502.175 1125.46 502.175 1132.25C502.175 1139.04 496.582 1144.63 489.79 1144.63ZM489.79 1122.26C484.197 1122.26 479.602 1126.86 479.602 1132.25C479.602 1137.84 484.197 1142.43 489.79 1142.43C495.384 1142.43 499.978 1137.84 499.978 1132.25C499.978 1126.86 495.384 1122.26 489.79 1122.26Z" fill="#402E32"/>
<path d="M716.124 807.313C716.124 807.313 687.357 803.719 677.369 814.903C667.381 825.887 669.578 840.466 678.967 845.459C688.556 850.252 699.943 842.064 703.139 837.67C706.335 833.077 718.92 829.881 728.309 831.079C737.698 832.278 716.124 807.313 716.124 807.313Z" fill="#F2BD7C"/>
<path d="M645.969 976.022L426.402 928.121L397.228 1061.78L616.795 1109.68L645.969 976.022Z" fill="#FFECCC"/>
<path d="M426.156 927.554L396.854 1061.8L511.029 1086.71L540.33 952.463L426.156 927.554Z" fill="#EED0C0"/>
<path d="M540.331 952.506L539.931 954.303L470.613 1006.23L468.415 1007.63L467.217 1005.43L425.666 929.539L426.065 927.541L427.863 927.941L469.414 1003.83L538.733 952.106L540.331 952.506Z" fill="white"/>
<path d="M511.565 1084.32L510.965 1086.71L509.767 1086.51L468.415 1007.63L398.697 1062.15L396.9 1061.75L397.099 1060.35L467.217 1005.43L469.214 1003.83L470.613 1006.23L511.565 1084.32Z" fill="white"/>
<path d="M1532.16 862.235H1008.38V1137.04H1532.16V862.235Z" fill="#CFA294"/>
<path d="M1556.13 840.666H984.607V866.029H1556.13V840.666Z" fill="#CFA294"/>
<path d="M1032.95 1137.04H1008.38V1170.39H1032.95V1137.04Z" fill="#CFA294"/>
<path d="M1532.16 1137.04H1507.59V1170.39H1532.16V1137.04Z" fill="#CFA294"/>
<path d="M1510.39 883.804H1030.15V1120.47H1510.39V883.804Z" stroke="white" stroke-width="0.6245" stroke-miterlimit="10"/>
<path d="M1030.15 964.688H1510.39" stroke="white" stroke-width="0.6245" stroke-miterlimit="10"/>
<path d="M1030.15 1040.18H1510.39" stroke="white" stroke-width="0.6245" stroke-miterlimit="10"/>
<path d="M1293.64 894.389H1236.91V904.175H1293.64V894.389Z" fill="white"/>
<path d="M1293.64 974.474H1236.91V984.26H1293.64V974.474Z" fill="white"/>
<path d="M1293.64 1050.77H1236.91V1060.55H1293.64V1050.77Z" fill="white"/>
<path opacity="0.5" d="M1532.16 866.029H1008.38V874.417H1532.16V866.029Z" fill="#CFA294"/>
<path d="M343.562 1042.78C342.963 1043.18 338.768 1046.97 332.176 1053.56C329.379 1056.56 325.983 1059.95 322.387 1063.95C320.789 1065.54 319.191 1067.34 317.593 1069.34C314.796 1072.53 312 1075.93 309.003 1079.52C307.405 1081.52 305.607 1083.72 304.009 1085.91C301.412 1089.31 298.815 1092.71 296.018 1096.5C294.42 1098.5 293.022 1100.69 291.624 1102.89C288.827 1107.08 285.83 1111.48 283.034 1116.07C281.835 1118.07 280.437 1120.07 279.238 1122.26C277.24 1125.66 275.243 1129.05 273.245 1132.65C272.246 1134.65 271.048 1136.64 270.049 1138.64C268.451 1141.83 266.653 1145.03 265.055 1148.43C264.056 1150.22 263.257 1152.22 262.258 1154.02C260.86 1156.81 259.661 1159.81 258.463 1162.8C257.863 1164.4 257.064 1166 256.465 1167.4C255.067 1170.79 253.668 1174.39 252.27 1177.98C251.471 1179.98 250.672 1182.18 250.072 1184.17C248.874 1187.77 247.675 1191.56 246.477 1195.16C246.077 1196.96 245.478 1198.75 244.879 1200.55C244.08 1203.35 243.48 1206.14 242.681 1208.94C242.282 1210.34 242.082 1211.73 241.682 1213.13C241.083 1216.13 240.284 1219.32 239.685 1222.52H229.696C234.291 1202.75 260.46 1102.09 324.784 1054.56C330.777 1050.17 336.97 1046.17 343.562 1042.78Z" fill="white"/>
<path d="M315.995 1065.54C315.995 1065.54 365.536 1051.36 404.091 1081.32C404.091 1081.32 370.73 1063.55 313.997 1069.94L315.995 1065.54Z" fill="white"/>
<path d="M256.864 1163C256.864 1163 308.404 1148.23 348.357 1179.38C348.357 1179.38 313.598 1160.81 254.667 1167.6L256.864 1163Z" fill="white"/>
<path d="M300.613 1081.52C300.613 1081.52 359.344 1064.55 405.09 1100.09C405.09 1100.09 365.537 1078.92 298.216 1086.51L300.613 1081.52Z" fill="white"/>
<path d="M266.853 1133.85C266.853 1133.85 325.584 1116.87 371.33 1152.42C371.33 1152.42 331.776 1131.25 264.456 1138.84L266.853 1133.85Z" fill="white"/>
<path d="M261.06 1149.02C261.06 1149.02 319.79 1132.05 365.536 1167.6C365.536 1167.6 325.983 1146.43 258.662 1154.02L261.06 1149.02Z" fill="white"/>
<path d="M236.488 1210.34C236.488 1210.34 277.64 1198.55 309.602 1223.32C309.602 1223.32 281.835 1208.54 234.89 1213.93L236.488 1210.34Z" fill="white"/>
<path d="M241.882 1196.16C241.882 1196.16 296.817 1180.38 339.367 1213.53C339.367 1213.53 302.411 1193.76 239.685 1200.95L241.882 1196.16Z" fill="white"/>
<path d="M290.824 1097.7C290.824 1097.7 353.551 1079.72 402.293 1117.47C402.293 1117.47 359.943 1094.9 288.228 1103.09L290.824 1097.7Z" fill="white"/>
<path d="M278.439 1117.07C278.439 1117.07 341.165 1099.1 389.908 1136.84C389.908 1136.84 347.558 1114.27 275.842 1122.46L278.439 1117.07Z" fill="white"/>
<path d="M245.278 1179.38C245.278 1179.38 308.004 1161.41 356.747 1199.15C356.747 1199.15 314.397 1176.59 242.681 1184.77L245.278 1179.38Z" fill="white"/>
<path d="M314.397 1064.75C314.397 1064.75 286.629 1040.18 246.677 1058.35C246.677 1058.35 285.031 1050.77 311.001 1068.54L314.397 1064.75Z" fill="white"/>
<path d="M241.682 1196.76C241.682 1196.76 213.915 1172.19 173.962 1190.37C173.962 1190.37 212.317 1182.78 238.286 1200.55L241.682 1196.76Z" fill="white"/>
<path d="M286.629 1096.7C286.629 1096.7 258.862 1072.13 218.909 1090.31C218.909 1090.31 257.264 1082.72 283.233 1100.49L286.629 1096.7Z" fill="white"/>
<path d="M275.443 1115.47C275.443 1115.47 246.277 1089.51 203.927 1108.68C203.927 1108.68 244.479 1100.49 271.847 1119.47L275.443 1115.47Z" fill="white"/>
<path d="M264.855 1133.65C264.855 1133.65 233.692 1105.89 188.545 1126.46C188.545 1126.46 231.894 1117.87 261.06 1137.84L264.855 1133.65Z" fill="white"/>
<path d="M259.062 1147.83C259.062 1147.83 227.899 1120.07 182.752 1140.64C182.752 1140.64 226.101 1132.05 255.266 1152.02L259.062 1147.83Z" fill="white"/>
<path d="M252.47 1164.6C252.47 1164.6 221.306 1136.84 176.16 1157.41C176.16 1157.41 219.509 1148.82 248.674 1168.8L252.47 1164.6Z" fill="white"/>
<path d="M301.212 1079.72C301.212 1079.72 267.452 1049.57 218.51 1071.74C218.51 1071.74 265.454 1062.35 297.017 1084.12L301.212 1079.72Z" fill="white"/>
<path d="M245.078 1181.38C245.078 1181.38 211.318 1151.22 162.376 1173.39C162.376 1173.39 209.321 1164 240.883 1185.77L245.078 1181.38Z" fill="white"/>
<path d="M238.686 1212.93C238.686 1212.93 205.725 1183.58 158.181 1205.34C158.181 1205.34 203.927 1196.16 234.691 1217.33L238.686 1212.93Z" fill="white"/>
<path d="M1641.63 986.058C1636.64 972.677 1630.85 964.289 1623.65 964.289C1591.69 964.289 1608.47 1128.05 1609.47 1137.84C1608.07 1128.45 1584.3 975.673 1531.36 980.266C1477.43 984.86 1557.73 1139.24 1559.53 1143.03C1558.13 1140.64 1508.19 1061.35 1474.83 1071.54C1441.67 1081.72 1492.41 1153.22 1494.41 1156.21C1492.61 1154.42 1463.04 1123.26 1442.07 1125.06C1444.07 1103.69 1442.07 1081.92 1425.89 1079.12C1409.31 1076.33 1392.73 1117.47 1380.34 1159.21C1375.95 1120.86 1367.56 1079.92 1351.57 1081.92C1330.6 1084.52 1334.79 1154.02 1339.19 1194.56C1329.2 1161.81 1310.62 1112.48 1291.65 1113.87C1263.28 1115.67 1301.03 1215.93 1301.03 1215.93C1301.03 1215.93 1267.47 1154.42 1251.49 1163.4C1235.51 1172.39 1252.49 1222.92 1252.49 1222.92H1342.79C1342.79 1223.12 1342.79 1223.32 1342.79 1223.32L1384.94 1222.92C1384.94 1222.92 1384.94 1222.72 1384.94 1222.52H1641.43V986.058H1641.63Z" fill="white"/>
<path d="M163.974 1223.32H143.798C145.995 1198.15 158.98 1130.85 233.492 1088.51C319.79 1039.38 192.141 1172.39 163.974 1223.32Z" fill="white"/>
<path d="M130.613 1223.32H110.437C99.8494 1192.36 79.873 1112.28 138.604 1070.14C208.521 1019.61 127.417 1149.02 130.613 1223.32Z" fill="white"/>
<path d="M94.0562 1223.32H76.2772C50.7073 1192.36 -36.7896 1124.86 18.1457 1121.66C69.0857 1118.67 88.4628 1193.36 94.0562 1223.32Z" fill="white"/>
<path d="M1207.94 666.914H1049.13V839.268H1207.94V666.914Z" fill="#D1966E"/>
<path d="M1207.97 839.457H1287.28V667.104H1207.97V839.457Z" fill="#F2BD7C"/>
<path d="M1146.62 666.914H1110.46V714.247H1146.62V666.914Z" fill="#402E32"/>
<path d="M1146.62 792.135H1110.46V839.467H1146.62V792.135Z" fill="#402E32"/>
<path d="M1383.54 481.779H1216.73V662.92H1383.54V481.779Z" fill="#D1966E"/>
<path d="M1383.62 662.994H1466.92V481.853H1383.62V662.994Z" fill="#F2BD7C"/>
<path d="M1319.21 481.779H1281.26V531.508H1319.21V481.779Z" fill="#402E32"/>
<path d="M1319.21 613.191H1281.26V662.92H1319.21V613.191Z" fill="#402E32"/>
<path d="M1398.32 662.721H1235.51V839.468H1398.32V662.721Z" fill="#D1966E"/>
<path d="M1398.16 839.358H1479.46V662.611H1398.16V839.358Z" fill="#F2BD7C"/>
<path d="M1335.19 662.72H1298.24V711.251H1335.19V662.72Z" fill="#402E32"/>
<path d="M1335.19 790.937H1298.24V839.467H1335.19V790.937Z" fill="#402E32"/>
</svg>
