<svg width="1399" height="1321" viewBox="0 0 1399 1321" fill="none" xmlns="http://www.w3.org/2000/svg">
<path fill-rule="evenodd" clip-rule="evenodd" d="M623 75C967.073 75 1246 353.927 1246 698C1246 1042.07 967.073 1321 623 1321C278.927 1321 0 1042.07 0 698C0 353.927 278.927 75 623 75Z" fill="#F74C9A"/>
<path fill-rule="evenodd" clip-rule="evenodd" d="M776 0C1120.07 0 1399 278.927 1399 623C1399 967.073 1120.07 1246 776 1246C431.927 1246 153 967.073 153 623C153 278.927 431.927 0 776 0Z" fill="#F1F1F1"/>
<path d="M1205.35 209.92C1206.53 208.354 1207.2 206.468 1207.84 204.653C1217.99 175.081 1226.4 144.905 1232.99 114.337C1233.77 110.671 1234.52 106.721 1233.09 103.234C1231.06 98.2164 1225.26 95.8678 1219.88 95.1916C1211.97 94.1597 1203.25 95.9034 1197.8 101.704C1192.67 107.148 1191.32 115.013 1190.14 122.415C1188.22 134.727 1186.33 147.004 1184.41 159.317C1182.95 168.783 1181.49 178.32 1182.27 187.857C1183.02 196.86 1192.64 226.574 1205.35 209.92Z" fill="black"/>
<path d="M1125.68 364.824C1135.33 354.611 1151.29 271.981 1150.5 269.312C1142.03 241.021 1103.28 327.423 1080.38 373.187C1101.75 389.093 1125.93 398.452 1151.71 405.071C1160.05 397.349 1115.99 375.108 1125.68 364.824Z" fill="#D8560E"/>
<path d="M1087.61 377.955C1080.7 391.762 1075.89 399.805 1073.15 401.94C1052.03 418.345 951.092 428.166 924.63 440.052C926.054 448.664 927.942 457.489 930.115 466.385C950.451 462.328 959.569 460.087 980.582 453.147C992.905 449.055 1040.34 453.895 1051.88 448.023C1066.06 440.835 1144.34 415.925 1158.41 408.594C1158.91 408.345 1159.3 408.025 1159.62 407.74C1133.8 401.121 1109.12 392.545 1087.61 377.955Z" fill="#F0995A"/>
<path d="M1212.97 271.696L1146.66 301.944L1129.2 202.411L1186.9 186.326L1212.97 271.696Z" fill="#F0995A"/>
<path d="M1109.01 91.811C1109.08 91.1349 1109.22 90.4232 1109.69 89.9606C1110.54 89.1421 1111.93 89.498 1113.04 89.925C1118.24 91.8822 1123.97 94.3732 1125.96 99.5687C1127.32 103.127 1126.53 107.077 1125.75 110.814C1124.36 117.255 1122.9 123.838 1119.16 129.247C1116.03 133.802 1113.46 138.108 1107.3 136.862C1108.73 121.881 1107.09 106.686 1109.01 91.811Z" fill="#360124"/>
<path d="M1110.93 97.2912C1111 96.6151 1109.22 90.4232 1109.72 89.9606C1110.58 89.1421 1111.97 89.498 1113.07 89.925C1118.27 91.8822 1124 94.3732 1126 99.5687C1127.35 103.127 1126.57 107.077 1125.79 110.814C1124.4 117.255 1122.94 123.838 1119.2 129.247C1116.06 133.802 1107.87 148.036 1101.67 146.791C1103.1 131.809 1108.97 112.166 1110.93 97.2912Z" fill="black"/>
<path d="M1189.57 169.566C1177.64 207.891 1149.47 233.442 1125.57 226.325C1101.67 219.208 1091.59 182.27 1103.06 143.802C1114.53 105.334 1116.45 94.3021 1142.88 97.2557C1177.39 101.099 1207.31 112.664 1189.57 169.566Z" fill="#FFAC73"/>
<path d="M1208.27 179.387C1205.64 188.212 1196.34 193.23 1187.51 190.597C1178.67 187.963 1173.65 178.675 1176.29 169.85C1178.92 161.025 1188.22 156.007 1197.05 158.641C1205.88 161.239 1210.91 170.562 1208.27 179.387Z" fill="#FFAC73"/>
<path d="M669.802 1100.16L261.579 998.568L266.281 979.636L655.699 1076.54L821.275 428.38L895.105 446.457L890.44 465.389L835.414 451.902L669.802 1100.16Z" fill="black"/>
<path d="M736.132 1124.79C753.935 1107 753.935 1078.16 736.132 1060.38C718.329 1042.59 689.465 1042.59 671.662 1060.38C653.859 1078.16 653.859 1107 671.662 1124.79C689.465 1142.58 718.329 1142.58 736.132 1124.79Z" fill="black"/>
<path d="M730.658 1092.74C730.777 1078 718.914 1065.95 704.162 1065.83C689.409 1065.71 677.354 1077.57 677.235 1092.31C677.116 1107.05 688.979 1119.09 703.731 1119.21C718.484 1119.33 730.539 1107.48 730.658 1092.74Z" fill="#4D4D4D"/>
<path d="M695.018 1092.66C695.054 1097.57 699.078 1101.52 703.993 1101.48C708.908 1101.45 712.861 1097.42 712.826 1092.51C712.79 1087.6 708.766 1083.65 703.851 1083.69C698.936 1083.72 694.947 1087.75 695.018 1092.66Z" fill="black"/>
<path d="M937.655 455.424C938.005 446.095 922.736 437.95 903.552 437.232C884.368 436.514 868.533 443.494 868.183 452.823C867.833 462.152 883.101 470.297 902.285 471.015C921.47 471.733 937.305 464.753 937.655 455.424Z" fill="#FFAC73"/>
<path d="M1029.73 802.669C1028.63 806.406 981.864 862.916 979.442 870.673C948.849 968.392 959.284 945.439 933.427 1008.46C915.263 1052.8 899.415 1072.55 882.568 1095.25C879.221 1099.77 878.117 1100.98 873.807 1099.63L856.997 1094.29C855.18 1093.72 853.613 1093.55 852.331 1093.44C848.947 1093.15 847.558 1093.23 850.016 1087.35C858.777 1066.29 886.629 882.808 888.73 846.048C889.834 826.974 889.692 825.835 903.047 803.95C925.485 819.75 1006.26 791.211 1029.73 802.669Z" fill="#23477C"/>
<path d="M1065.99 557.2C1117.7 515.493 1107.59 594.244 1110.29 602.571C1135.86 681.038 1029.84 753.739 1014.1 824.839C977.519 819.537 933.926 818.789 896.494 815.836C935.101 747.191 1041.27 577.128 1065.99 557.2Z" fill="#23477C"/>
<path d="M1078.74 821.281C1079.74 837.081 1088.75 851.03 1089.56 864.232C1090.56 880.317 1111.79 895.548 1134.58 929.781C1164.82 975.188 1200.04 1115.29 1200.04 1115.29L1174.72 1129.13L1028.41 918.643C1016.84 904.409 1001.92 880.495 997.25 860.247C996.823 858.361 996.431 851.6 996.039 849.749C1023.5 837.508 1051.06 831.031 1078.74 821.281Z" fill="#305591"/>
<path d="M1153 549.727C1152.32 549.691 1151.68 549.584 1151 549.62C1156.59 538.233 1155.56 542.396 1153 549.727Z" fill="#708380"/>
<path d="M1004.87 793.951C1016.27 738.402 1040.02 628.406 1055.55 567.057C1070.76 565.1 1065.99 568.445 1095.76 577.875C1103.81 580.437 1126.57 562.858 1142.95 565.811C1142.95 565.811 1145.73 553.641 1147.33 545.385C1166.24 543.713 1197.12 573 1209.23 610.97C1215.54 630.684 1197.41 676.305 1180.49 706.232C1168.7 727.05 1141.88 764.201 1121.9 794.912C1110.26 812.847 1089.28 849.358 1090.17 865.051C1056.83 868.182 1028.45 856.724 995.576 849.713C997.606 832.49 1000.81 813.772 1004.87 793.951Z" fill="#305591"/>
<path d="M1151.04 1096.32C1145.23 1100.34 1139.25 1103.97 1132.94 1107.85C1119.59 1116.04 1110.79 1119.45 1097.54 1123.79C1092.91 1125.32 1089.6 1130.98 1089.67 1137.42C1089.71 1139.38 1089.71 1141.16 1089.67 1142.51C1128.99 1141.66 1198.33 1144.11 1199.97 1142.94C1204.46 1139.81 1201.93 1118.95 1198.01 1107.89C1193.17 1108.63 1187.04 1108.88 1180.06 1107.6C1168.13 1105.4 1156.7 1100.77 1151.04 1096.32Z" fill="black"/>
<path d="M853.862 1072.34C847.772 1073.97 833.099 1076.36 826.617 1077.71C812.869 1080.56 804.429 1080.81 791.928 1080.45C787.547 1080.34 783.06 1084.12 781.243 1089.53C780.673 1091.16 780.175 1092.66 779.747 1093.8C813.332 1104.83 868.785 1127.99 870.53 1127.53C875.231 1126.25 878.971 1112.58 881.785 1097.28C877.475 1096.46 872.169 1094.83 866.648 1091.66C857.175 1086.18 857.317 1077.75 853.862 1072.34Z" fill="black"/>
<path d="M1140.96 260.807C1150.47 261.519 1172.33 259.882 1195.09 243.655C1195.77 243.192 1199.9 237.997 1200.93 236.716C1202.18 235.221 1203.53 234.936 1205.42 235.399C1209.45 236.36 1221.16 243.762 1227.15 250.452C1239.79 264.65 1241.04 267.39 1247.66 283.368C1260.27 313.687 1273.59 362.689 1237.37 466.848C1229.11 518.874 1222.23 588.337 1209.7 610.543C1204.1 607.02 1197.94 604.529 1191.5 603.105L1051.39 572.359C1051.14 572.252 1080.38 486.135 1077.46 487.203C1087.32 446.03 1094.05 412.473 1099.39 395.392C1102.24 386.424 1137 260.487 1140.96 260.807Z" fill="#FE7016"/>
<path d="M1082.33 424.252C1082.33 424.252 943.577 432.33 914.337 437.063C912.307 453.717 913.838 454.464 912.449 471.189C947.495 476.136 1096.76 489.623 1115.21 486.491C1128.92 484.178 1161.26 428.202 1171.73 388.061C1144.59 387.955 1125.61 391.157 1102.07 379.556C1093.34 401.299 1082.33 424.252 1082.33 424.252Z" fill="#FFAC73"/>
<path d="M1129.67 295.503C1126.03 296.037 1099.18 363.472 1094.02 376.318C1117.56 387.919 1144.59 387.99 1171.73 388.097C1173.12 362.155 1179.17 288.03 1129.67 295.503Z" fill="#FE7016"/>
<path d="M1102.99 123.304C1101.25 122.877 1098.47 121.916 1095.65 119.817C1093.7 118.358 1091.56 116.757 1090.63 113.981C1089.14 109.533 1091.77 105.298 1092.31 104.479C1094.05 102.309 1096.12 100.067 1098.54 97.825C1105.98 90.9569 1113.78 87.0425 1119.69 84.8006C1121.83 80.3524 1126 73.1641 1133.76 67.1858C1145.91 57.8623 1159.05 57.4353 1167.56 57.1862C1173.69 57.0083 1192.6 56.6524 1210.69 69.1786C1215.82 72.7015 1225.86 79.6407 1231.31 92.6651C1235.55 102.771 1235.37 112.664 1235.3 117.468C1235.27 120.03 1235.05 125.19 1233.7 131.631C1231.6 141.453 1227.93 149.175 1224.76 154.513C1208.2 150.776 1191.6 147.04 1175.04 143.303C1171.62 132.485 1165.99 110.316 1149.58 103.519C1141.42 100.138 1133.51 101.988 1129.92 102.914C1121.3 105.156 1115.71 110.102 1111.65 113.696C1107.69 117.29 1104.84 120.742 1102.99 123.304Z" fill="#FE7016"/>
<path d="M656.055 1077.57L200.82 963.054L268.133 695.628L723.937 811.886L656.055 1077.57Z" fill="#CFB495"/>
<path d="M723.938 811.886L268.133 695.628L398.093 693.742L736.439 751.889L723.938 811.886Z" fill="#DDCDB4"/>
<path d="M727.464 797.26L355.07 701.998L410.38 485.459L782.454 579.974L727.464 797.26Z" fill="#CFB495"/>
<path d="M782.454 579.974L410.38 485.459L516.3 483.929L702.034 531.329L782.454 579.974Z" fill="#DDCDB4"/>
<path d="M787.108 403.079L524.953 336.196L485.902 489.007L748.057 555.89L787.108 403.079Z" fill="#CFB495"/>
<path d="M787.155 403.043L524.991 336.178L599.712 335.074L730.811 368.525L787.155 403.043Z" fill="#DDCDB4"/>
<path d="M598.465 523.856L629.201 265.967L662.003 193.728L629.201 489.801L598.465 523.856Z" fill="#DDCDB4"/>
<path d="M629.201 489.8L792.212 536.524L812.477 241.022L662.003 193.728L629.201 489.8Z" fill="#CFB495"/>
<path d="M792.212 536.524L748.726 562.075L598.5 523.856L629.913 485.815L792.212 536.524Z" fill="#BD9A7B"/>
<path d="M524.314 514.924L497.175 622.677L524.777 614.777L539.272 637.125L568.94 526.027L524.314 514.924Z" fill="#EFDFCA"/>
</svg>
