<svg width="198" height="63" viewBox="0 0 198 63" fill="none" xmlns="http://www.w3.org/2000/svg">
<path d="M33.6731 0.274841L66.9462 24.2979L54.1167 63L12.9141 62.8976L0.27948 24.1315L33.6731 0.274841Z" fill="url(#paint0_linear)"/>
<path fill-rule="evenodd" clip-rule="evenodd" d="M42.1693 29.24C43.8398 29.24 45.1936 30.5827 45.1936 32.239C45.1936 33.8966 43.8398 35.2394 42.1693 35.2394C40.4987 35.2394 39.1436 33.8966 39.1436 32.239C39.1436 30.5827 40.4987 29.24 42.1693 29.24Z" fill="white"/>
<path d="M28.9026 19.5619H32.6V41.9978H45.0205V45.08H28.9026V19.5619Z" fill="white"/>
<path d="M92.0513 18.2C94.4359 18.2 96.5 18.5968 98.2436 19.3904C100.013 20.184 101.372 21.3104 102.321 22.7696C103.269 24.2288 103.744 25.9568 103.744 27.9536C103.744 29.9248 103.269 31.6528 102.321 33.1376C101.372 34.5968 100.013 35.7232 98.2436 36.5168C96.5 37.2848 94.4359 37.6688 92.0513 37.6688H86.6282V45.08H80.3975V18.2H92.0513ZM91.7051 32.6C93.5769 32.6 95 32.2032 95.9744 31.4096C96.9487 30.5904 97.4359 29.4384 97.4359 27.9536C97.4359 26.4432 96.9487 25.2912 95.9744 24.4976C95 23.6784 93.5769 23.2688 91.7051 23.2688H86.6282V32.6H91.7051ZM120.721 24.1136C123.286 24.1136 125.35 24.8816 126.914 26.4176C128.504 27.9536 129.299 30.232 129.299 33.2528V45.08H123.298V34.1744C123.298 32.536 122.939 31.32 122.221 30.5264C121.503 29.7072 120.465 29.2976 119.106 29.2976C117.593 29.2976 116.388 29.7712 115.491 30.7184C114.593 31.64 114.145 33.0224 114.145 34.8656V45.08H108.145V16.5872H114.145V26.5712C114.939 25.7776 115.901 25.176 117.029 24.7664C118.157 24.3312 119.388 24.1136 120.721 24.1136ZM144.809 45.3872C142.63 45.3872 140.668 44.9392 138.924 44.0432C137.206 43.1216 135.86 41.8544 134.886 40.2416C133.912 38.6288 133.424 36.7984 133.424 34.7504C133.424 32.7024 133.912 30.872 134.886 29.2592C135.86 27.6464 137.206 26.392 138.924 25.496C140.668 24.5744 142.63 24.1136 144.809 24.1136C146.988 24.1136 148.937 24.5744 150.655 25.496C152.373 26.392 153.719 27.6464 154.694 29.2592C155.668 30.872 156.155 32.7024 156.155 34.7504C156.155 36.7984 155.668 38.6288 154.694 40.2416C153.719 41.8544 152.373 43.1216 150.655 44.0432C148.937 44.9392 146.988 45.3872 144.809 45.3872ZM144.809 40.472C146.347 40.472 147.604 39.96 148.578 38.936C149.578 37.8864 150.078 36.4912 150.078 34.7504C150.078 33.0096 149.578 31.6272 148.578 30.6032C147.604 29.5536 146.347 29.0288 144.809 29.0288C143.271 29.0288 142.001 29.5536 141.001 30.6032C140.001 31.6272 139.501 33.0096 139.501 34.7504C139.501 36.4912 140.001 37.8864 141.001 38.936C142.001 39.96 143.271 40.472 144.809 40.472ZM173.512 44.0816C172.922 44.5168 172.191 44.8496 171.319 45.08C170.473 45.2848 169.576 45.3872 168.627 45.3872C166.165 45.3872 164.255 44.76 162.896 43.5056C161.563 42.2512 160.896 40.408 160.896 37.976V29.4896H157.704V24.8816H160.896V19.8512H166.896V24.8816H172.05V29.4896H166.896V37.8992C166.896 38.7696 167.114 39.448 167.55 39.9344C168.012 40.3952 168.653 40.6256 169.473 40.6256C170.422 40.6256 171.23 40.3696 171.896 39.8576L173.512 44.0816ZM186.087 45.3872C183.908 45.3872 181.946 44.9392 180.203 44.0432C178.485 43.1216 177.138 41.8544 176.164 40.2416C175.19 38.6288 174.703 36.7984 174.703 34.7504C174.703 32.7024 175.19 30.872 176.164 29.2592C177.138 27.6464 178.485 26.392 180.203 25.496C181.946 24.5744 183.908 24.1136 186.087 24.1136C188.267 24.1136 190.215 24.5744 191.933 25.496C193.651 26.392 194.997 27.6464 195.972 29.2592C196.946 30.872 197.433 32.7024 197.433 34.7504C197.433 36.7984 196.946 38.6288 195.972 40.2416C194.997 41.8544 193.651 43.1216 191.933 44.0432C190.215 44.9392 188.267 45.3872 186.087 45.3872ZM186.087 40.472C187.626 40.472 188.882 39.96 189.856 38.936C190.856 37.8864 191.356 36.4912 191.356 34.7504C191.356 33.0096 190.856 31.6272 189.856 30.6032C188.882 29.5536 187.626 29.0288 186.087 29.0288C184.549 29.0288 183.28 29.5536 182.28 30.6032C181.28 31.6272 180.78 33.0096 180.78 34.7504C180.78 36.4912 181.28 37.8864 182.28 38.936C183.28 39.96 184.549 40.472 186.087 40.472Z" fill="#263A5D"/>
<defs>
<linearGradient id="paint0_linear" x1="0.27948" y1="0.274841" x2="66.9462" y2="0.274841" gradientUnits="userSpaceOnUse">
<stop stop-color="#5E2CED"/>
<stop offset="1" stop-color="#4E62BB"/>
</linearGradient>
</defs>
</svg>
