<svg width="1069" height="1253" viewBox="0 0 1069 1253" fill="none" xmlns="http://www.w3.org/2000/svg">
<path d="M967.77 1211.61C967.77 1234.35 777.578 1252.59 542.756 1252.59C307.934 1252.59 117.742 1234.15 117.742 1211.61C117.742 1188.87 307.934 1170.64 542.756 1170.64C777.578 1170.64 967.77 1189.08 967.77 1211.61Z" fill="#D1D3D4"/>
<path d="M534.157 1069.03C829.151 1069.03 1068.29 829.742 1068.29 534.561C1068.29 239.38 829.151 0.088562 534.157 0.088562C239.164 0.088562 0.0239258 239.38 0.0239258 534.561C0.0239258 829.742 239.164 1069.03 534.157 1069.03Z" fill="#FDE8E7"/>
<path d="M535.795 1069.03C802.555 1069.03 1023.46 873.395 1063.58 617.733V519.197H1027.35V598.886H965.723V390.751H916.793V534.971H868.887V575.327H820.98V620.396H753.011V368.627H696.711V568.567H625.466V625.927H576.536V525.957H483.795V640.677H420.738V469.826H384.502V598.681H323.084V442.785H274.154V534.766H226.248V575.123H178.341V620.191H110.781V518.992H54.2767V593.355H4.93738C34.2134 860.898 260.642 1069.03 535.795 1069.03Z" fill="#FBCAC7"/>
<path d="M534.976 471.26C534.771 470.236 534.771 469.211 534.771 467.982C534.771 451.389 548.284 437.868 565.071 437.868C567.118 437.868 568.961 438.073 570.803 438.483C570.803 437.459 570.599 436.229 570.599 435.205C570.599 413.9 587.796 396.692 609.088 396.692C617.891 396.692 625.875 399.56 632.426 404.477C633.655 379.279 654.537 359.408 680.128 359.408C706.538 359.408 727.829 380.713 727.829 407.14C727.829 407.959 727.829 408.779 727.829 409.393C733.357 405.911 739.908 403.862 746.869 403.862C766.113 403.862 781.877 419.636 781.877 438.893C781.877 442.785 781.263 446.677 780.035 450.16C782.082 449.545 784.334 449.34 786.586 449.34C799.279 449.34 809.925 459.173 810.949 471.465H534.976V471.26Z" fill="white"/>
<path d="M409.683 240.796C409.479 239.157 409.479 237.518 409.479 235.879C409.479 210.272 430.361 189.376 455.952 189.376C459.023 189.376 461.889 189.581 464.755 190.196C464.55 188.557 464.55 186.713 464.55 185.075C464.55 152.297 491.165 125.666 523.921 125.666C537.433 125.666 549.921 130.173 559.953 137.753C562 99.0345 593.938 68.306 633.245 68.306C673.781 68.306 706.538 101.083 706.538 141.645C706.538 142.874 706.538 144.103 706.538 145.127C714.932 139.596 724.963 136.523 735.814 136.523C765.499 136.523 789.657 160.696 789.657 190.401C789.657 196.546 788.633 202.282 786.791 207.814C790.067 206.789 793.547 206.38 797.027 206.38C816.681 206.38 832.855 221.334 834.697 240.591H409.683V240.796Z" fill="white"/>
<path d="M118.766 384.401C118.766 383.581 118.561 382.557 118.561 381.737C118.561 367.602 130.026 356.13 144.152 356.13C145.79 356.13 147.428 356.335 149.065 356.54C149.065 355.516 148.861 354.696 148.861 353.672C148.861 335.645 163.601 320.895 181.617 320.895C188.987 320.895 195.948 323.353 201.476 327.655C202.704 306.35 220.31 289.347 242.012 289.347C264.327 289.347 282.548 307.579 282.548 329.909C282.548 330.523 282.548 331.138 282.548 331.957C287.256 328.884 292.784 327.245 298.721 327.245C315.099 327.245 328.407 340.561 328.407 356.95C328.407 360.227 327.792 363.505 326.769 366.578C328.611 366.168 330.454 365.759 332.501 365.759C343.352 365.759 352.36 373.953 353.383 384.605H118.766V384.401Z" fill="white"/>
<path d="M534.567 1069.03C710.223 1069.03 866.02 984.222 963.266 853.319H898.367C905.533 848.402 910.856 840.822 912.698 831.809H914.95C914.541 833.652 914.131 835.291 913.517 837.135C933.58 837.135 954.053 837.135 974.731 837.135C1000.53 799.851 1021.61 758.879 1037.17 715.655C1030.42 712.787 1022.43 710.943 1012.4 710.943C1012.4 710.943 941.565 710.943 925.187 710.943C912.698 710.943 828.965 744.335 828.146 744.539C825.28 745.564 816.476 747.612 813.405 753.963C813.201 754.373 812.996 754.577 812.996 754.987C812.996 755.192 812.996 755.192 812.791 755.397C812.587 755.807 812.587 756.011 812.587 756.421C812.587 756.626 812.587 756.626 812.587 756.831C812.587 757.241 812.382 757.855 812.382 758.47L811.972 765.025L811.358 773.015L810.539 785.306C810.539 785.306 802.35 785.101 799.893 792.271C799.075 794.525 797.232 809.069 796.413 815.42C796.208 816.649 797.027 816.854 797.846 817.878H795.185V825.048H800.098C800.098 824.229 800.098 823.409 799.893 822.385C800.303 824.229 799.893 825.663 800.712 826.687C802.555 829.35 807.059 829.555 811.358 830.579C822.209 832.833 842.477 837.135 843.5 837.135C843.705 837.135 844.115 837.135 844.319 837.135C843.705 835.291 843.091 833.243 842.886 831.194H845.343C846.981 840.413 852.304 848.402 859.674 853.319H607.45C614.001 848.812 619.119 842.051 621.167 834.062H623.828C623.623 835.086 623.214 836.111 623.009 836.93C657.403 836.93 683.608 836.93 691.593 836.93C695.278 836.93 697.53 835.906 697.53 831.604C697.53 831.194 697.53 830.375 697.53 829.35C697.53 825.868 697.53 819.517 697.53 814.396C697.53 811.323 697.53 808.455 697.53 807.021C697.53 804.767 696.506 803.129 695.483 802.309C693.845 800.875 691.593 799.031 691.593 799.031C689.341 791.042 668.663 777.317 656.584 774.858L600.08 758.879C600.08 758.879 581.245 749.046 557.496 733.682C541.528 723.234 529.858 710.738 503.244 710.738C503.244 710.738 432.408 710.738 416.03 710.738C403.541 710.738 319.808 744.13 318.989 744.335C316.123 745.359 307.32 747.407 304.249 753.758C304.044 754.168 303.839 754.373 303.839 754.782C303.839 754.987 303.839 754.987 303.839 755.192C303.635 755.602 303.634 755.807 303.634 756.216C303.634 756.421 303.634 756.421 303.634 756.626C303.634 757.036 303.43 757.65 303.43 758.265L303.02 764.82L302.406 772.81L301.587 785.101C301.587 785.101 293.398 784.896 290.941 792.066C290.122 794.32 288.28 808.865 287.461 815.215C287.256 816.444 287.87 816.649 288.894 817.673H286.233V824.843H291.146C291.146 824.024 291.146 823.205 290.941 822.18C291.351 824.024 290.941 825.458 291.76 826.482C293.603 829.145 298.107 829.35 302.406 830.375C313.257 832.628 333.525 836.93 334.548 836.93C334.753 836.93 335.162 836.93 335.367 836.93C334.753 835.086 334.139 833.038 333.934 830.989H336.391C338.029 840.208 343.352 848.197 350.722 853.114H116.718C123.27 848.607 128.388 841.847 130.435 833.857H133.097C132.892 834.881 132.482 835.906 132.278 836.725C166.672 836.725 192.877 836.725 200.861 836.725C204.546 836.725 206.798 835.701 206.798 831.399C206.798 830.989 206.798 830.17 206.798 829.145C206.798 825.663 206.798 819.312 206.798 814.191C206.798 811.118 206.798 808.25 206.798 806.816C206.798 804.563 205.775 802.924 204.546 802.104C202.909 800.67 200.657 798.827 200.657 798.827C198.405 790.837 177.727 777.112 165.648 774.653L109.144 758.675C109.144 758.675 90.3087 748.841 66.5603 733.477C54.8908 725.897 45.4734 717.089 30.9377 712.991C104.64 920.717 302.201 1069.03 534.567 1069.03ZM799.484 820.951C799.075 819.927 798.665 819.107 798.256 818.698C798.665 819.107 799.279 819.927 799.484 820.951C799.689 821.156 799.689 821.361 799.689 821.566C799.689 821.156 799.689 821.156 799.484 820.951ZM290.532 820.951C290.123 819.927 289.713 819.107 289.304 818.698C289.713 819.107 290.123 819.927 290.532 820.951C290.737 821.156 290.737 821.361 290.737 821.566C290.737 821.156 290.532 820.951 290.532 820.951ZM403.746 831.809H405.998C405.589 833.652 405.179 835.291 404.565 837.135C452.062 837.135 502.834 837.135 551.15 837.135C551.969 837.135 552.788 837.135 553.607 837.135C553.197 835.906 552.788 834.677 552.583 833.447H554.835C556.882 841.642 562 848.607 568.756 853.319H389.415C396.581 848.402 401.904 840.822 403.746 831.809Z" fill="#F8AFB1"/>
<path d="M418.896 659.114H478.062C492.598 659.114 504.267 670.996 504.267 685.336V858.85H486.661V685.336C486.661 680.419 482.771 676.527 477.857 676.527H418.691C413.778 676.527 409.888 672.635 409.888 667.718C410.093 663.006 413.982 659.114 418.896 659.114Z" fill="#433175"/>
<path d="M379.793 676.732C379.793 678.985 381.636 681.034 384.092 681.034H433.636C435.888 681.034 437.936 679.19 437.936 676.732V661.572C437.936 659.114 436.093 657.27 433.636 657.27H384.092C381.636 657.27 379.793 659.114 379.793 661.572V676.732V676.732Z" fill="#69C9CD"/>
<path d="M297.902 616.094L393.51 665.874L400.061 649.486L327.383 597.862L297.902 616.094Z" fill="#9E8AC1"/>
<path d="M331.682 468.187L327.383 597.862C318.784 609.334 297.902 615.889 297.902 615.889V442.17L331.682 468.187Z" fill="#9E8AC1"/>
<path d="M393.919 664.85C394.943 667.103 399.037 671.405 407.841 675.298C414.801 678.371 420.124 677.756 424.219 672.635C429.747 665.26 416.235 657.475 427.085 657.475C427.085 657.475 421.762 645.798 399.856 650.305L393.919 664.85Z" fill="#F8AFB1"/>
<path d="M702.853 882.203C670.711 882.203 490.96 885.276 490.96 885.276C490.96 885.276 485.228 954.518 532.11 954.518C556.882 954.518 642.254 950.421 671.325 950.421C686.884 950.421 701.215 949.601 710.837 967.014L797.437 1103.04L831.012 1085.22C831.012 1085.22 776.964 974.389 747.893 910.269C738.885 891.217 728.648 882.203 702.853 882.203Z" fill="#433175"/>
<path d="M491.984 885.276C491.984 885.276 491.984 769.122 491.984 682.673C491.984 673.454 491.984 665.874 502.015 658.499C502.015 658.499 540.709 652.968 543.575 658.704C569.575 710.943 608.678 885.276 608.678 885.276H491.984Z" fill="#EF4F85"/>
<path d="M540.095 658.909C540.095 658.909 536.205 667.513 524.126 667.103C513.685 666.899 508.362 658.09 508.362 658.09L508.771 638.219L540.709 639.038L540.095 658.909Z" fill="#F69998"/>
<path d="M564.048 605.441C563.229 627.771 544.599 645.184 522.283 644.159C499.968 643.34 482.566 624.698 483.59 602.369L484.409 580.039C485.228 557.71 503.858 540.502 526.173 541.321C548.488 542.141 565.686 560.783 564.867 583.112L564.048 605.441Z" fill="#F8AFB1"/>
<path d="M569.575 573.279C567.323 564.88 564.048 567.748 563.843 561.192C563.638 550.13 558.725 550.13 552.378 548.696C545.008 547.057 546.851 542.141 540.709 537.019C538.047 534.766 529.244 532.717 521.26 536.814C514.708 540.297 512.661 541.526 505.905 540.911C499.149 540.297 492.393 544.394 490.755 553.408C488.913 563.241 484.409 568.362 480.724 570.821C470.487 577.376 475.401 587.824 479.7 592.535C481.952 594.994 482.566 598.886 481.952 602.573C481.338 605.237 480.11 607.9 478.472 610.358C474.787 616.299 478.472 626.747 486.866 628.795C494.236 630.639 495.259 635.146 495.259 638.219C495.259 643.34 502.834 647.847 508.567 641.087C513.071 635.555 503.653 630.639 504.063 626.337C504.882 616.094 500.787 613.636 500.787 613.636C499.149 613.021 497.511 611.792 496.078 610.153C493.212 606.671 492.803 602.164 495.055 600.115C496.692 598.681 499.354 599.091 501.606 600.525C510.614 602.369 506.724 591.921 508.157 588.029C509.59 584.136 514.504 584.751 520.441 586.39C526.378 588.233 530.268 582.497 536.819 580.654C543.37 578.81 548.079 583.931 557.087 585.365C567.937 587.619 570.599 577.171 569.575 573.279Z" fill="#433175"/>
<path d="M824.665 1088.7L797.437 1103.04L809.516 1124.75L872.162 1087.47L824.665 1088.7Z" fill="#EF4F85"/>
<path d="M801.122 1150.36C802.76 1150.36 804.398 1149.95 806.035 1148.93L857.831 1117.79C862.335 1115.13 863.768 1109.19 861.107 1104.68C858.446 1100.17 852.508 1098.74 848.004 1101.4L804.398 1127.62L734.79 1011.47C732.334 1007.37 728.444 1004.5 723.94 1003.48C719.436 1002.25 714.727 1003.07 710.632 1005.53L687.908 1019.25C683.404 1021.92 681.971 1027.86 684.632 1032.36C687.294 1036.87 693.231 1038.3 697.735 1035.64L719.231 1022.74L792.933 1145.65C794.775 1148.72 798.051 1150.36 801.122 1150.36Z" fill="#433175"/>
<path d="M692.821 928.911H473.763V994.875H692.821V928.911Z" fill="#69C9CD"/>
<path d="M693.026 1142.78C698.349 1142.78 702.443 1138.48 702.443 1133.15V882.203C702.443 866.429 689.546 853.523 673.782 853.523H473.763C468.44 853.523 464.141 857.825 464.141 863.152C464.141 868.478 468.44 872.575 473.763 872.575H673.782C679.105 872.575 683.199 876.877 683.199 882.203V1133.15C683.404 1138.48 687.703 1142.78 693.026 1142.78Z" fill="#433175"/>
<path d="M473.763 1077.43C479.086 1077.43 483.181 1073.13 483.181 1067.8V721.8C483.181 706.026 470.283 693.12 454.519 693.12H390.234C384.911 693.12 380.612 697.422 380.612 702.544C380.612 707.87 384.911 712.172 390.234 712.172H454.519C459.842 712.172 463.936 716.474 463.936 721.595V1067.6C464.346 1073.34 468.645 1077.43 473.763 1077.43Z" fill="#433175"/>
<path d="M473.763 1004.5H692.821C698.144 1004.5 702.239 1000.2 702.239 994.875C702.239 989.548 697.939 985.246 692.821 985.246H473.763C468.44 985.246 464.141 989.548 464.141 994.875C464.346 1000.2 468.645 1004.5 473.763 1004.5Z" fill="#433175"/>
<path d="M326.974 1073.95C326.974 992.826 392.896 926.862 473.968 926.862C554.835 926.862 620.757 992.826 620.757 1073.95C620.757 1155.07 554.835 1221.04 473.968 1221.04C392.896 1221.04 326.974 1155.07 326.974 1073.95ZM350.517 1073.95C350.517 1141.96 405.794 1197.48 473.968 1197.48C541.937 1197.48 597.418 1142.17 597.418 1073.95C597.418 1005.94 542.142 950.421 473.968 950.421C405.794 950.626 350.517 1005.94 350.517 1073.95Z" fill="#433175"/>
<path d="M359.525 1072.52C359.525 1009.42 410.707 958.205 473.763 958.205C536.614 958.205 588.001 1009.42 588.001 1072.52C588.001 1135.41 536.819 1186.83 473.763 1186.83C410.912 1186.83 359.525 1135.61 359.525 1072.52ZM370.171 1072.52C370.171 1129.67 416.644 1176.17 473.763 1176.17C530.882 1176.17 577.355 1129.67 577.355 1072.52C577.355 1015.36 530.882 968.858 473.763 968.858C416.644 968.858 370.171 1015.36 370.171 1072.52Z" fill="#433175"/>
<path d="M473.763 1211.61C476.629 1211.61 479.086 1209.16 479.086 1206.29V938.744C479.086 935.876 476.629 933.418 473.763 933.418C470.897 933.418 468.44 935.876 468.44 938.744V1206.49C468.44 1209.36 470.897 1211.61 473.763 1211.61Z" fill="#433175"/>
<path d="M340.076 1077.84H607.655C610.521 1077.84 612.978 1075.38 612.978 1072.52C612.978 1069.65 610.521 1067.19 607.655 1067.19H340.076C337.21 1067.19 334.753 1069.65 334.753 1072.52C334.753 1075.38 337.21 1077.84 340.076 1077.84Z" fill="#433175"/>
<path d="M568.347 1172.49C569.78 1172.49 571.009 1172.08 572.032 1170.85C574.079 1168.8 574.079 1165.52 572.032 1163.27L382.864 973.98C380.817 971.931 377.541 971.931 375.494 973.98C373.447 976.028 373.447 979.306 375.494 981.354L564.662 1170.64C565.686 1172.08 567.119 1172.49 568.347 1172.49Z" fill="#433175"/>
<path d="M379.179 1172.49C380.612 1172.49 381.841 1172.08 382.864 1170.85L572.032 981.559C574.079 979.51 574.079 976.233 572.032 974.184C569.985 972.136 566.709 972.136 564.457 974.184L375.289 1163.47C373.242 1165.52 373.242 1168.8 375.289 1171.05C376.518 1172.08 377.951 1172.49 379.179 1172.49Z" fill="#433175"/>
<path d="M446.125 1072.52C446.125 1087.88 458.409 1100.17 473.763 1100.17C489.118 1100.17 501.401 1087.88 501.401 1072.52C501.401 1057.15 489.118 1044.86 473.763 1044.86C458.613 1044.86 446.125 1057.36 446.125 1072.52Z" fill="#68C3CB"/>
<path d="M348.061 712.582C348.061 715.04 350.108 717.293 352.769 717.293H406.613C409.069 717.293 411.321 715.245 411.321 712.582V695.988C411.321 693.53 409.274 691.277 406.613 691.277H352.769C350.313 691.277 348.061 693.325 348.061 695.988V712.582Z" fill="#69C9CD"/>
<path d="M693.026 1219.81C695.483 1219.81 697.53 1217.76 697.53 1215.3V1139.09C697.53 1136.64 695.483 1134.59 693.026 1134.59C690.569 1134.59 688.522 1136.64 688.522 1139.09V1215.51C688.522 1217.96 690.569 1219.81 693.026 1219.81Z" fill="#433175"/>
<path d="M654.742 1181.7H731.105C733.562 1181.7 735.404 1179.66 735.404 1177.2C735.404 1174.74 733.357 1172.9 731.105 1172.9H654.742C652.285 1172.9 650.238 1174.94 650.238 1177.2C650.443 1179.66 652.49 1181.7 654.742 1181.7Z" fill="#433175"/>
<path d="M720.05 1208.75C721.278 1208.75 722.302 1208.34 723.121 1207.52C724.759 1205.88 724.759 1203.01 723.121 1201.37L669.073 1147.29C667.435 1145.65 664.569 1145.65 662.726 1147.29C661.088 1148.93 661.088 1151.8 662.726 1153.64L716.57 1207.52C717.593 1208.34 718.822 1208.75 720.05 1208.75Z" fill="#433175"/>
<path d="M666.002 1208.75C667.23 1208.75 668.254 1208.34 669.073 1207.52L722.916 1153.64C724.554 1152 724.554 1149.13 722.916 1147.29C721.278 1145.65 718.412 1145.65 716.774 1147.29L662.931 1201.17C661.293 1202.8 661.293 1205.67 662.931 1207.31C663.75 1208.34 664.978 1208.75 666.002 1208.75Z" fill="#433175"/>
<path d="M649.419 1177.2C649.419 1153.23 669.073 1133.56 693.026 1133.56C717.184 1133.56 736.633 1153.23 736.633 1177.2C736.633 1201.37 716.979 1220.83 693.026 1220.83C668.868 1221.04 649.419 1201.37 649.419 1177.2ZM660.27 1177.2C660.27 1195.23 675.01 1209.77 692.821 1209.77C710.837 1209.77 725.373 1195.02 725.373 1177.2C725.373 1159.17 710.632 1144.63 692.821 1144.63C675.01 1144.63 660.27 1159.38 660.27 1177.2Z" fill="#433175"/>
<path d="M682.994 1177.2C682.994 1182.73 687.498 1187.03 692.821 1187.03C698.349 1187.03 702.648 1182.52 702.648 1177.2C702.648 1171.67 698.144 1167.36 692.821 1167.36C687.498 1167.36 682.994 1171.87 682.994 1177.2Z" fill="#68C3CB"/>
<path d="M525.149 843.281L528.834 863.356H672.553L673.372 847.378L554.835 836.315L525.149 843.281Z" fill="#F8AFB1"/>
<path d="M499.559 699.266L525.149 843.281C529.858 853.933 558.315 835.906 558.315 835.906L529.039 687.179L499.559 699.266Z" fill="#F8AFB1"/>
<path d="M504.472 738.189L497.102 696.808L528.22 683.902L540.504 730.404L504.472 738.189Z" fill="#EF4F85"/>
<path d="M672.348 863.357C673.781 865.2 679.104 870.322 692.412 870.731C699.577 870.936 707.971 862.947 706.947 857.006C705.719 850.86 694.049 854.957 695.483 848.607C697.12 841.642 680.742 844.305 672.963 847.378L672.348 863.357Z" fill="#F8AFB1"/>
<path d="M256.752 1201.99H229.114V1221.45H295.65L256.752 1201.99Z" fill="#9E8AC1"/>
<path d="M336.186 1201.99H308.548V1221.45H375.084L336.186 1201.99Z" fill="#9E8AC1"/>
<path d="M327.383 736.55L260.847 749.866L314.076 954.313L302.611 1201.99H341.509L375.289 953.289L327.383 736.55Z" fill="#433175"/>
<path d="M231.571 736.55H327.383L305.272 813.781C305.272 813.781 261.051 1140.32 264.736 1204.03H226.862C226.862 1204.03 243.649 889.988 225.224 837.34C202.499 773.015 231.571 736.55 231.571 736.55Z" fill="#433175"/>
<path d="M230.956 736.55L221.744 524.523L233.004 452.208L259.823 441.146H295.241L314.895 450.16L325.95 470.645L327.383 736.55H230.956Z" fill="#9E8AC1"/>
<path d="M266.988 414.105L259.823 441.146C259.823 441.146 256.752 463.271 281.729 461.837C299.949 460.812 295.241 440.941 295.241 440.941L292.374 413.9H266.988V414.105Z" fill="#F69998"/>
<path d="M278.248 328.065C301.178 328.065 311.414 338.717 314.895 376.206C317.966 408.983 310.595 420.046 286.847 420.046C286.847 420.046 266.374 419.431 266.374 419.226C255.319 415.129 242.216 406.525 242.216 374.158C242.421 337.488 254.091 328.065 278.248 328.065Z" fill="#F8AFB1"/>
<path d="M314.076 421.07C326.564 409.188 318.375 367.602 318.17 362.891C316.532 336.669 299.335 327.86 299.335 327.86C299.335 327.86 314.076 346.297 313.871 377.026C313.666 423.733 293.193 410.827 290.941 423.323C291.146 423.323 309.367 425.372 314.076 421.07Z" fill="#433175"/>
<path d="M268.012 423.938C268.012 423.938 269.65 418.407 256.752 411.647C247.539 406.935 253.272 397.511 252.453 392.39C252.248 390.956 247.949 391.571 247.744 383.991C247.335 372.519 254.91 373.953 254.91 373.953C254.91 373.953 259.414 369.856 273.54 370.88C304.044 372.724 311.414 351.828 311.414 351.828C309.162 316.593 276.406 322.739 256.752 327.245C239.146 331.138 234.027 363.095 234.437 390.137C235.051 430.903 268.012 423.938 268.012 423.938Z" fill="#433175"/>
<path d="M196.357 646.003L349.084 696.603L353.997 680.009L225.019 625.108L196.357 646.003Z" fill="#9E8AC1"/>
<path d="M215.807 475.152L196.357 646.003C209.051 651.739 235.051 629.205 235.051 629.205L233.004 452.208L215.807 475.152Z" fill="#9E8AC1"/>
<path d="M349.698 694.349C350.722 696.603 356.25 705.412 363.006 708.689C369.762 711.967 383.069 712.787 383.683 706.231C384.297 699.471 376.108 691.277 386.344 691.277C386.344 691.277 380.817 680.214 353.588 680.829L349.698 694.349Z" fill="#F8AFB1"/>
<path d="M235.256 512.436C235.87 531.898 236.279 551.359 236.279 570.821L236.689 629.205L235.665 627.771C268.421 642.316 301.383 656.041 333.934 671.406C300.564 658.499 267.603 644.159 234.437 630.639L233.413 630.229V629.205L234.027 570.821C234.027 551.359 234.437 531.898 235.256 512.436Z" fill="#433175"/>
<path d="M327.588 647.027C325.131 624.493 323.903 601.959 322.674 579.425C321.855 556.89 320.832 534.356 321.036 511.617C323.493 534.151 324.721 556.685 325.95 579.22C326.769 601.754 327.792 624.288 327.588 647.027Z" fill="#433175"/>
</svg>
