<svg width="1090" height="1424" viewBox="0 0 1090 1424" fill="none" xmlns="http://www.w3.org/2000/svg">
<path d="M536.879 1389.92C536.879 1408.56 462.522 1423.43 370.991 1423.43C279.459 1423.43 205.103 1408.35 205.103 1389.92C205.103 1371.28 279.459 1356.41 370.991 1356.41C462.522 1356.41 536.879 1371.28 536.879 1389.92Z" fill="#D1D3D4"/>
<path d="M952.855 1235.99C952.855 1256.1 788.643 1272.22 585.891 1272.22C383.139 1272.22 218.926 1256.1 218.926 1235.99C218.926 1215.89 383.139 1199.76 585.891 1199.76C788.433 1199.76 952.855 1216.09 952.855 1235.99Z" fill="#D1D3D4"/>
<path d="M1089.21 544.667C1089.21 845.197 845.614 1088.76 545.047 1088.76C244.48 1088.76 0.884277 845.197 0.884277 544.667C0.884277 244.137 244.48 0.571106 545.047 0.571106C845.614 0.571106 1089.21 244.137 1089.21 544.667Z" fill="#FDE8E7"/>
<path d="M546.723 1088.76C818.385 1088.76 1043.55 889.595 1084.39 629.485V529.169H1047.53V610.218H984.902V398.276H935.052V545.085H886.249V586.133H837.236V631.998H768.116V375.658H710.726V579.222H638.045V637.653H588.195V535.87H493.731V652.732H429.428V478.906H392.564V610.218H329.728V451.68H279.878V545.295H231.075V586.343H182.272V632.208H113.152V529.169H56.1803V604.772H5.70178C35.6538 876.82 266.473 1088.76 546.723 1088.76Z" fill="#FBCAC7"/>
<path d="M545.675 480.163C545.466 479.115 545.466 478.068 545.466 476.812C545.466 459.848 559.29 446.026 576.256 446.026C578.35 446.026 580.236 446.235 582.121 446.654C582.121 445.607 581.911 444.35 581.911 443.303C581.911 421.523 599.505 403.931 621.289 403.931C630.295 403.931 638.464 406.863 645.166 411.889C646.423 386.339 667.788 365.815 693.55 365.815C720.361 365.815 742.144 387.595 742.144 414.402C742.144 415.24 742.144 416.077 742.144 416.706C747.799 413.145 754.292 411.051 761.414 411.051C781.102 411.051 797.021 426.968 797.021 446.654C797.021 450.633 796.393 454.612 795.136 458.173C797.23 457.544 799.534 457.125 801.838 457.125C814.825 457.125 825.507 466.969 826.764 479.744H545.675V480.163Z" fill="white"/>
<path d="M418.327 245.603C418.118 243.927 418.118 242.252 418.118 240.576C418.118 214.398 439.273 193.245 465.454 193.245C468.596 193.245 471.529 193.664 474.461 194.083C474.252 192.408 474.252 190.523 474.252 188.847C474.252 155.548 501.271 128.323 534.784 128.323C548.608 128.323 561.175 132.93 571.438 140.679C573.533 101.306 606.208 69.892 646.004 69.892C687.267 69.892 720.78 103.401 720.78 144.658C720.78 145.915 720.78 147.171 720.78 148.218C729.367 142.773 739.63 139.422 750.522 139.422C780.893 139.422 805.399 163.925 805.399 194.293C805.399 200.575 804.352 206.439 802.467 212.094C805.818 211.256 809.379 210.628 812.94 210.628C833.047 210.628 849.385 225.916 851.27 245.393H418.327V245.603Z" fill="white"/>
<path d="M121.739 391.784C121.739 390.946 121.53 389.899 121.53 389.061C121.53 374.61 133.259 362.883 147.712 362.883C149.387 362.883 151.063 363.092 152.739 363.301C152.739 362.254 152.529 361.417 152.529 360.369C152.529 341.94 167.401 327.07 185.833 327.07C193.373 327.07 200.494 329.583 205.94 333.981C207.197 312.201 225.21 294.818 247.203 294.818C270.033 294.818 288.465 313.248 288.465 336.076C288.465 336.704 288.465 337.332 288.465 338.17C293.283 335.029 298.938 333.353 304.803 333.353C321.559 333.353 335.174 346.966 335.174 363.72C335.174 367.071 334.545 370.422 333.498 373.563C335.383 373.144 337.268 372.726 339.153 372.726C350.254 372.726 359.261 381.103 360.308 391.993H121.739V391.784Z" fill="white"/>
<path d="M545.466 1088.76C724.34 1088.76 883.107 1002.48 982.179 869.281H915.991C923.322 864.255 928.768 856.506 930.444 847.5H932.748C932.329 849.385 931.91 851.061 931.281 852.945C951.599 852.945 972.544 852.945 993.699 852.945C1019.88 814.829 1041.25 773.363 1057.16 729.173C1050.25 726.241 1042.08 724.566 1031.82 724.566C1031.82 724.566 959.558 724.566 943.011 724.566C930.234 724.566 844.986 758.703 844.148 758.912C841.216 759.959 832.209 762.053 829.277 768.336C829.068 768.755 829.068 768.965 828.858 769.383C828.858 769.593 828.858 769.593 828.649 769.802C828.649 770.221 828.439 770.431 828.439 770.849C828.439 771.059 828.439 771.059 828.439 771.268C828.439 771.687 828.23 772.315 828.23 772.734L827.811 779.436L827.183 787.394L826.345 799.96C826.345 799.96 817.967 799.751 815.453 807.081C814.615 809.384 812.73 824.254 811.892 830.537C811.683 831.793 812.311 832.003 813.359 833.05H810.636V840.38H815.663C815.663 839.542 815.663 838.704 815.453 837.657C815.872 839.542 815.453 840.799 816.291 842.055C818.176 844.778 822.784 844.987 827.183 846.034C838.284 848.338 858.81 852.736 859.857 852.736C860.067 852.736 860.276 852.736 860.695 852.736C860.067 850.851 859.439 848.757 859.229 846.663H861.743C863.418 856.087 868.864 864.045 876.404 869.281H619.613C626.316 864.673 631.342 857.762 633.646 849.804H636.369C636.16 850.851 635.741 851.898 635.532 852.736C670.511 852.736 697.321 852.736 705.489 852.736C709.26 852.736 711.564 851.689 711.564 847.291C711.564 846.872 711.564 846.034 711.564 844.987C711.564 841.427 711.564 834.935 711.564 829.699C711.564 826.557 711.564 823.625 711.564 822.159C711.564 820.065 710.516 818.18 709.469 817.343C707.793 815.877 705.489 813.992 705.489 813.992C703.185 805.824 682.24 791.792 669.882 789.489L612.282 773.153C612.282 773.153 593.012 763.101 568.925 747.603C552.588 737.131 540.858 724.356 513.629 724.356C513.629 724.356 441.367 724.356 424.82 724.356C412.044 724.356 326.796 758.493 325.958 758.703C323.025 759.75 314.019 761.844 311.086 768.127C310.877 768.546 310.668 768.755 310.668 769.174C310.668 769.383 310.668 769.383 310.668 769.593C310.458 770.012 310.458 770.221 310.458 770.64C310.458 770.849 310.458 770.849 310.458 771.059C310.458 771.478 310.249 772.106 310.249 772.525L309.83 779.227L309.201 787.185L308.364 799.751C308.364 799.751 300.195 799.541 297.472 806.871C296.634 809.175 294.749 824.044 293.911 830.327C293.702 831.584 294.54 831.793 295.377 832.84H292.654V840.17H297.681C297.681 839.333 297.681 838.495 297.472 837.448C297.891 839.333 297.472 840.589 298.1 841.846C299.985 844.568 304.593 844.778 308.992 845.825C320.093 848.129 340.62 852.527 341.667 852.527C341.876 852.527 342.295 852.527 342.505 852.527C341.876 850.642 341.248 848.547 341.038 846.453H343.552C345.228 855.877 350.673 863.836 358.214 869.071H119.645C126.348 864.464 131.374 857.553 133.678 849.595H136.401C136.192 850.642 135.773 851.689 135.564 852.527C170.542 852.527 197.353 852.527 205.521 852.527C209.292 852.527 211.596 851.479 211.596 847.081C211.596 846.663 211.596 845.825 211.596 844.778C211.596 841.217 211.596 834.725 211.596 829.489C211.596 826.348 211.596 823.416 211.596 821.95C211.596 819.856 210.548 817.971 209.501 817.133C207.825 815.667 205.521 813.782 205.521 813.782C203.217 805.615 182.272 791.583 169.914 789.279L112.314 772.944C112.314 772.944 93.0443 762.891 68.957 747.393C57.0181 739.645 47.3832 730.849 32.5119 726.451C107.287 937.555 308.782 1088.76 545.466 1088.76ZM815.453 836.191C815.034 835.144 814.615 834.306 814.196 833.887C814.615 834.306 815.034 835.144 815.453 836.191C815.663 836.401 815.663 836.61 815.663 836.819C815.453 836.401 815.453 836.401 815.453 836.191ZM296.844 836.191C296.425 835.144 296.006 834.306 295.587 833.887C296.006 834.306 296.425 835.144 296.844 836.191C296.844 836.401 296.844 836.61 297.053 836.819C296.844 836.401 296.844 836.191 296.844 836.191ZM412.044 847.291H414.348C413.929 849.176 413.51 850.851 412.881 852.736C461.265 852.736 513.001 852.736 562.223 852.736C563.06 852.736 563.898 852.736 564.736 852.736C564.317 851.479 564.108 850.223 563.689 848.966H565.993C568.087 857.343 573.324 864.464 580.236 869.281H397.382C404.922 864.045 410.158 856.296 412.044 847.291Z" fill="#F8AFB1"/>
<path d="M841.007 550.531V459.848H830.324V323.51H341.458V1238.5H830.324V619.642H841.007V574.196H830.324V550.531H841.007Z" fill="#433175"/>
<path d="M812.102 390.946H359.471V1155.15H812.102V390.946Z" fill="#69C9CD"/>
<path d="M609.559 1193.9C609.559 1207.09 598.877 1217.56 585.891 1217.56C572.695 1217.56 562.223 1206.88 562.223 1193.9C562.223 1180.7 572.905 1170.02 585.891 1170.02C599.087 1170.23 609.559 1180.7 609.559 1193.9Z" fill="white"/>
<path d="M634.903 362.254C634.903 366.024 631.761 369.375 627.991 369.375H543.791C539.811 369.375 536.669 366.233 536.669 362.254C536.669 358.485 539.811 355.343 543.791 355.343H627.991C631.761 355.343 634.903 358.485 634.903 362.254Z" fill="white"/>
<path d="M663.599 362.254C663.599 367.699 659.2 371.888 653.964 371.888C648.518 371.888 644.329 367.49 644.329 362.254C644.329 356.809 648.727 352.621 653.964 352.621C659.2 352.621 663.599 357.019 663.599 362.254Z" fill="white"/>
<path d="M703.604 434.088H478.86C447.232 434.088 421.469 459.848 421.469 491.472V563.934C421.469 595.558 447.023 621.317 478.86 621.317H619.194C628.201 645.821 626.316 667.811 620.451 677.654C614.167 688.335 626.106 686.45 628.62 685.403C662.132 670.114 684.963 637.234 692.084 621.317H703.814C735.441 621.317 761.204 595.558 761.204 563.934V491.472C760.995 459.848 735.441 434.088 703.604 434.088Z" fill="white"/>
<path d="M504.832 550.74C504.413 553.044 503.366 554.929 502.528 556.813C502.318 557.442 502.109 558.07 502.109 558.489C501.481 561.421 500.224 563.725 498.129 565.819C496.035 568.332 493.731 570.636 491.427 572.73C488.704 575.453 486.609 573.358 485.353 571.892C484.096 570.636 483.677 569.379 483.677 568.123C483.677 567.285 483.886 566.238 483.886 565.4C484.096 559.536 484.515 553.672 484.515 547.599C484.724 540.269 484.724 532.939 484.724 525.609C484.724 516.184 484.724 506.969 484.724 497.545C484.724 494.194 485.143 490.843 485.353 487.493C485.353 485.817 485.143 484.142 485.143 482.466C485.143 478.278 487.447 476.602 491.427 478.068C497.92 480.372 503.156 484.561 505.46 491.262C507.136 496.289 509.021 501.734 508.393 508.017C508.602 511.158 509.021 514.718 508.812 518.069C508.602 523.514 507.974 528.959 507.345 534.405C506.926 540.059 505.879 545.504 504.832 550.74ZM491.217 564.143C494.778 560.793 496.873 556.604 498.339 551.787C499.805 546.761 500.433 541.525 501.271 536.289C501.69 533.567 502.109 530.844 502.109 528.122C502.318 522.467 502.109 516.603 502.318 510.949C502.528 505.294 501.69 500.058 500.014 494.613C498.758 490.425 496.035 487.911 492.265 486.236L491.217 564.143Z" fill="#433175"/>
<path d="M543.581 540.687C543.162 545.923 542.953 550.949 542.324 556.185C541.905 560.164 540.858 564.143 539.811 567.913C539.183 570.845 537.297 573.568 533.737 574.405C530.595 575.034 526.615 573.358 524.73 570.217C523.892 568.751 523.264 567.075 523.055 565.609C522.217 561.63 521.588 557.651 520.541 551.997H520.96C520.541 549.065 519.913 546.342 519.703 543.41C519.284 537.337 519.075 531.263 519.075 525.19C519.075 519.535 519.284 513.671 519.703 508.017C519.913 504.456 520.751 500.687 521.379 497.126C522.007 493.775 522.845 490.425 523.892 487.283C524.94 484.561 526.615 481.838 528.291 479.744C530.176 477.231 536.041 477.859 537.926 479.534C540.858 482.047 542.953 485.398 543.162 489.796C543.372 492.938 544.209 495.87 544.419 499.011C544.628 504.037 544.419 509.273 544.419 514.299C544.419 517.441 544.419 520.582 544.419 523.724C544.419 529.169 544 535.033 543.581 540.687ZM534.575 485.817C534.365 485.608 534.156 485.398 533.946 485.189C533.737 484.979 533.527 484.77 533.318 484.351C533.318 484.142 533.318 484.351 533.108 484.561C530.595 486.864 529.757 490.215 528.919 493.566C527.453 501.734 526.406 509.692 525.777 517.86C525.359 524.771 525.568 531.682 525.568 538.384C526.615 545.714 527.663 553.044 528.919 560.164C529.338 562.259 529.757 564.353 530.595 565.819C530.804 566.238 531.852 567.075 532.899 567.285C532.899 567.285 532.899 567.075 532.689 567.075C532.899 566.657 533.108 566.238 533.318 565.819C533.527 565.191 533.737 564.562 533.946 563.725C534.156 562.887 534.365 562.259 534.575 561.421C535.831 557.232 536.25 552.625 536.46 548.227C536.879 543.619 536.879 539.012 537.507 534.405C538.135 529.169 537.716 523.724 537.926 518.279C537.926 513.043 538.345 507.807 538.135 502.781C538.135 498.592 537.088 494.613 536.879 490.425C536.879 488.749 536.041 487.074 534.575 485.817Z" fill="#433175"/>
<path d="M578.979 537.965C578.979 535.452 578.56 532.939 578.56 530.635C578.56 525.19 578.56 519.745 578.56 514.09C578.56 506.969 578.56 499.849 578.56 492.728C578.56 488.959 578.56 485.398 578.979 481.629C578.979 480.372 579.817 479.744 580.654 478.906C580.864 478.906 580.864 478.697 582.54 476.602C584.006 478.906 584.215 478.906 584.215 479.115C584.844 479.953 585.472 480.791 585.472 481.629C585.472 488.54 585.053 495.66 585.053 502.571C585.053 509.692 585.053 516.813 585.053 523.933C585.053 528.75 585.472 533.357 585.472 538.174C585.472 542.572 585.472 547.18 585.472 551.787C585.472 557.861 585.472 563.934 585.472 569.798C585.472 573.149 583.377 574.824 581.073 574.615C578.979 574.405 576.675 572.521 576.465 569.798C575.837 564.772 575.418 559.745 574.58 554.719C573.742 548.855 572.276 542.991 571.229 537.127C570.81 535.242 569.972 533.148 569.553 531.263C568.925 528.75 568.506 526.446 568.087 523.933C566.83 517.86 565.574 511.786 564.108 505.713C563.06 501.315 561.594 497.126 560.547 492.728C560.337 491.891 559.918 491.053 559.5 490.215L561.175 489.377C561.804 490.425 562.013 491.681 562.013 492.938C562.013 494.194 562.013 495.451 562.013 496.917C562.013 500.477 562.013 504.247 562.222 507.807C562.222 509.692 562.432 511.577 562.432 513.462C562.432 520.582 562.432 527.493 562.432 534.614C562.432 539.64 563.06 544.667 563.27 549.902C563.479 555.976 563.479 562.049 563.898 568.123C563.898 570.636 562.432 572.311 560.128 572.311C559.081 572.311 556.358 570.845 556.777 568.751C557.405 566.028 557.195 563.306 557.195 560.583C556.986 557.651 556.777 554.929 556.777 551.997C556.777 548.227 556.567 532.101 556.358 529.378C556.148 523.305 556.358 517.441 556.358 511.367C556.358 508.435 556.567 505.503 556.358 502.362C556.358 500.058 555.939 497.755 555.729 495.66C555.52 492.1 555.52 488.54 555.52 484.979C555.52 484.77 555.52 484.142 555.52 483.723C555.101 482.676 554.682 479.534 558.033 478.697C559.709 478.278 562.432 478.278 563.479 481.21C564.736 484.561 566.412 487.911 567.249 491.472C568.925 497.755 570.391 504.247 572.067 510.739C574.161 519.745 576.465 528.541 578.35 537.546C578.56 539.012 578.979 540.269 579.188 541.735C578.979 540.478 578.979 539.221 578.979 537.965Z" fill="#433175"/>
<path d="M625.897 573.358C625.478 573.568 625.268 573.777 623.383 575.034C622.127 573.149 621.917 572.939 621.708 572.521C621.498 572.311 620.87 571.683 620.87 570.636C620.66 567.494 620.451 564.562 620.032 561.421C619.404 555.766 618.775 550.321 617.937 544.876C617.937 544.876 617.728 544.876 617.728 544.667C613.329 543.619 609.14 542.991 604.951 543.829C604.951 545.295 604.742 546.97 604.532 548.436C604.323 553.253 604.113 557.861 604.113 562.468C604.113 564.772 604.113 567.075 604.113 569.589C604.113 571.683 602.857 574.405 597.62 573.149C597.62 569.17 597.62 566.447 597.62 563.934C597.83 557.651 598.039 551.159 598.458 544.876C598.877 540.059 599.505 535.242 600.134 530.425C600.762 524.143 601.391 518.069 602.228 511.786C603.066 506.132 603.904 500.477 604.742 494.823C604.951 492.519 605.161 490.215 605.37 487.911C605.789 485.398 606.208 483.095 606.836 480.791C607.046 479.953 607.884 479.115 608.303 478.906C608.721 478.697 609.14 478.278 611.444 476.393C612.911 479.115 613.12 479.744 613.539 480.581C613.958 481.21 614.377 482.047 614.377 483.095C615.424 488.33 616.052 493.775 616.89 499.011C617.519 504.247 617.938 509.483 618.775 514.509C619.613 520.163 621.079 526.027 622.127 531.682C623.174 538.174 624.431 544.667 625.268 550.949C625.897 555.347 626.316 559.745 626.944 564.143C627.154 565.819 627.572 567.494 627.782 569.17C627.782 569.379 627.782 569.798 627.782 570.217C627.782 570.426 627.782 571.473 626.944 572.102C626.735 572.73 626.106 573.149 625.897 573.358ZM605.37 537.546L616.89 538.174C613.748 524.771 612.911 510.949 610.397 497.336L605.37 537.546Z" fill="#433175"/>
<path d="M642.025 484.351C638.883 484.351 637.417 483.304 637.626 480.581C637.626 479.744 640.349 478.068 644.119 478.068C646.842 478.068 649.984 478.068 652.078 478.068C654.173 478.068 656.267 478.068 658.362 477.859C659.828 477.859 662.761 477.859 662.761 481.21C662.97 484.77 659.619 484.979 658.362 484.979C656.686 484.979 655.22 484.979 653.754 484.77C653.754 493.357 653.754 501.943 653.754 510.32C653.754 515.556 653.963 520.792 654.173 525.818C654.382 530.216 654.592 534.405 654.801 538.803C655.011 546.97 654.801 555.138 655.011 563.096C655.011 565.609 655.22 568.123 655.22 570.426C655.22 571.892 653.754 573.777 652.288 573.987C649.565 574.824 647.889 572.73 647.889 570.426C647.889 567.494 647.889 564.562 647.889 561.63C647.889 553.463 648.099 545.504 647.889 537.546C647.889 530.635 647.261 523.724 647.052 517.022C646.842 513.043 646.633 509.064 646.633 505.294C646.633 499.849 646.842 494.404 646.842 488.959C646.842 487.493 646.633 486.027 646.423 484.561C645.166 484.351 643.491 484.351 642.025 484.351Z" fill="#433175"/>
<path d="M686.638 567.704C687.476 567.913 688.105 568.541 688.524 569.379C688.524 569.589 688.733 569.798 688.942 570.217C688.942 570.217 688.942 570.426 690.199 572.102C688.314 573.358 688.105 573.568 687.686 573.777C687.267 573.987 686.638 574.615 685.591 574.615C683.916 574.615 682.03 574.405 680.145 574.196C679.517 574.196 679.098 573.987 678.47 573.987C677.213 573.987 676.375 573.777 675.747 573.568C673.443 573.149 672.605 571.892 672.605 569.798C672.605 568.96 672.605 568.123 672.605 566.866C672.814 562.677 672.814 558.489 673.024 554.51C673.024 550.321 673.443 546.133 673.443 541.944C673.443 535.661 673.443 529.378 673.443 523.095C673.443 517.022 674.071 510.949 674.071 504.875C674.071 498.383 674.071 491.681 674.071 485.189C674.071 484.77 673.862 484.142 673.862 483.723C673.862 482.885 673.862 481.838 674.49 481.21C675.537 480.163 677.213 478.906 678.889 478.906C682.24 478.697 685.591 478.906 688.942 478.697C689.99 478.697 693.132 478.906 693.132 482.047C693.132 484.561 691.246 486.027 688.942 486.027C686.22 486.027 683.497 486.027 680.564 486.027V507.388C682.24 507.179 683.916 507.179 685.591 506.76C687.895 506.341 689.571 507.598 689.78 509.483C689.99 510.739 689.78 513.671 686.429 513.881C684.334 513.881 682.449 514.09 680.355 514.09C680.355 519.954 680.145 525.818 679.936 531.682C679.726 540.897 679.726 550.321 679.517 559.536C679.517 562.259 679.517 564.981 679.517 567.704C682.24 566.657 684.544 567.075 686.638 567.704Z" fill="#433175"/>
<path d="M760.995 891.271C760.995 988.027 682.659 1066.35 585.891 1066.35C489.123 1066.35 410.787 987.817 410.787 891.271C410.787 794.515 489.123 716.189 585.891 716.189C682.659 716.189 760.995 794.515 760.995 891.271Z" fill="#FFD498"/>
<path d="M599.715 866.349C573.952 855.459 572.067 850.851 572.067 845.406C572.067 837.657 578.56 833.05 589.871 833.05C604.951 833.05 614.586 838.495 619.823 841.427C621.708 842.474 623.802 843.102 626.106 843.102C627.572 843.102 629.039 842.893 630.295 842.265C633.647 841.008 636.369 838.285 637.836 834.935L644.957 816.086C647.261 810.222 644.748 803.73 639.511 800.798C630.086 795.353 619.823 792.002 608.722 790.326V773.991C608.722 767.08 603.066 761.425 596.154 761.425H578.141C571.229 761.425 565.574 767.08 565.574 773.991V792.63C539.602 800.798 522.636 822.369 522.636 848.547C522.636 883.522 550.493 899.229 577.722 909.91C600.343 918.915 602.228 926.245 602.228 932.109C602.228 943.628 590.708 947.607 580.864 947.607C569.344 947.607 556.567 943.837 546.723 937.345C544.628 936.089 542.324 935.251 539.811 935.251C538.345 935.251 537.088 935.46 535.831 935.879C532.061 937.136 529.338 940.068 528.082 943.628L521.379 962.686C519.494 967.922 521.379 973.786 525.778 977.137C535.412 984.048 549.446 989.283 564.108 991.168V1008.13C564.108 1015.04 569.763 1020.7 576.675 1020.7H594.688C601.6 1020.7 607.255 1015.04 607.255 1008.13V988.446C634.694 980.278 652.497 957.66 652.497 929.806C651.66 892.527 624.012 876.401 599.715 866.349Z" fill="#433175"/>
<path d="M382.511 823.835C379.159 823.835 364.707 823.835 364.707 823.835H351.93C351.93 823.835 337.478 823.835 334.127 823.835C323.025 823.835 312.762 830.955 312.762 846.244C312.762 859.438 319.674 899.648 317.999 937.555C316.323 978.603 305.85 1020.07 305.85 1020.07H410.368C410.368 1020.07 400.105 980.697 398.22 939.021C396.544 901.323 403.665 846.244 403.665 846.244C403.875 830.746 393.612 823.835 382.511 823.835Z" fill="#EF4F85"/>
<path d="M370.781 823.835C370.781 823.835 365.754 825.301 358.004 825.301C351.092 825.301 345.647 823.835 345.647 823.835V807.499H370.781V823.835Z" fill="#F5919C"/>
<path d="M396.544 767.08C396.125 767.08 395.706 766.87 395.287 767.08C395.287 761.425 395.497 753.467 395.497 753.467C395.497 732.943 378.95 716.398 358.423 716.398C337.897 716.398 321.35 732.943 321.35 753.467C321.35 753.467 321.559 761.635 321.559 767.289C321.14 767.289 320.721 767.289 320.093 767.289C317.37 767.917 315.904 771.687 316.951 775.457C317.998 779.227 320.931 781.74 323.654 780.902C323.863 780.902 324.073 780.693 324.282 780.693C328.89 793.258 339.572 811.479 358.423 811.479C376.646 811.479 388.166 794.096 392.983 780.902C395.706 781.53 398.639 779.017 399.686 775.457C400.524 771.268 399.267 767.708 396.544 767.08Z" fill="#F7A5AA"/>
<path d="M410.578 1020.07H357.795H305.012C305.012 1020.07 302.708 1029.49 302.708 1053.37C302.708 1081.85 314.857 1082.06 314.857 1165.83L322.188 1372.33H355.91L357.167 1077.66H357.795H358.214L359.68 1372.33H392.564L400.733 1165.83C400.733 1082.06 412.882 1081.85 412.882 1053.37C412.882 1029.49 410.578 1020.07 410.578 1020.07Z" fill="#FFD498"/>
<path d="M518.447 621.317C514.886 621.317 513.21 621.317 509.231 621.317C503.575 621.317 509.021 594.72 501.69 594.72C497.292 594.72 497.082 614.616 496.035 628.647C495.407 638.281 496.035 650.219 500.434 656.501C497.711 673.675 493.522 690.848 487.657 706.974C481.583 723.937 473.623 740.273 463.989 755.352C454.354 770.431 443.043 784.462 430.476 797.028C424.192 803.311 417.49 809.175 410.368 814.62C406.807 817.343 403.247 819.856 399.686 822.369C397.801 823.625 396.125 824.673 394.24 825.929L391.517 827.605C390.679 828.023 389.632 828.652 389.004 828.861C388.794 828.861 388.585 829.071 388.375 829.071C381.673 832.631 379.369 841.008 382.93 847.5C386.49 853.993 394.868 856.506 401.362 852.945H401.571C403.037 852.108 404.084 851.479 405.132 850.851C406.179 850.223 407.436 849.385 408.483 848.757C410.578 847.291 412.672 845.825 414.767 844.359C418.956 841.427 422.935 838.285 426.706 835.144C434.455 828.861 441.577 821.95 448.489 814.829C462.103 800.379 474.042 784.672 484.096 767.499C494.15 750.535 502.109 732.524 508.183 713.885C514.258 695.246 518.237 676.188 520.541 656.92V656.711C524.73 651.894 525.987 643.517 527.872 632.627C528.919 627.181 525.359 621.317 518.447 621.317Z" fill="#F7A5AA"/>
<path d="M415.395 802.682L386.281 825.301C378.531 831.374 377.274 842.474 383.139 850.013C389.004 857.762 400.314 859.019 407.855 853.155L436.969 830.537L415.395 802.682Z" fill="#EF4F85"/>
<path d="M315.694 828.442C314.857 828.861 314.438 829.071 314.019 829.489L312.762 830.327C311.924 830.955 311.296 831.374 310.668 832.003C309.411 833.05 308.154 834.097 307.107 835.144C304.803 837.238 302.708 839.542 300.823 841.846C297.053 846.453 293.702 851.061 290.769 855.877C284.905 865.302 280.087 875.354 276.108 885.197C268.148 905.303 263.121 925.617 259.561 946.141C256 966.665 253.905 987.189 252.649 1007.71C251.392 1028.24 251.182 1012.53 251.601 1032.84C251.601 1033.26 251.601 1033.47 251.811 1033.89C246.574 1046.25 247.831 1067.82 257.885 1082.9C275.898 1109.5 276.108 1084.57 272.547 1078.5C268.567 1071.8 266.682 1063.63 266.682 1057.35C266.682 1054.63 269.614 1053.79 270.662 1055.67C275.06 1063.84 280.716 1066.77 273.804 1042.69C272.756 1038.71 271.918 1035.15 271.081 1032.01C271.5 1012.11 272.547 1028.66 274.432 1008.97C276.317 989.074 279.249 969.597 283.439 950.33C287.628 931.062 293.073 912.423 300.823 894.831C304.593 886.035 308.992 877.867 314.228 870.328C316.742 866.558 319.465 862.998 322.397 860.066C323.863 858.6 325.329 857.134 326.796 855.877C327.424 855.249 328.262 854.621 328.89 854.202C329.309 853.993 329.518 853.783 329.728 853.574L330.147 853.364C330.147 853.364 330.356 853.364 330.147 853.364C337.059 849.385 339.363 840.589 335.593 833.678C331.613 826.976 322.816 824.463 315.694 828.442Z" fill="#F7A5AA"/>
<path d="M311.715 882.265L335.593 854.202C341.876 846.872 341.038 835.563 333.498 829.28C326.167 822.997 314.857 823.835 308.573 831.374L284.695 859.438L311.715 882.265Z" fill="#EF4F85"/>
<path d="M416.861 844.149C429.428 837.657 419.165 828.442 409.949 811.688C400.943 795.143 395.497 762.682 395.497 762.682V745.718C395.497 727.917 378.95 713.466 358.214 713.466C337.687 713.466 321.14 727.917 321.14 745.718V762.682C321.14 762.682 315.695 795.143 306.479 811.688C297.472 828.233 287.209 837.657 299.567 844.149C312.134 850.642 312.972 859.647 303.546 867.396C291.398 877.239 292.236 895.041 307.316 903.418C317.161 908.863 308.783 931.062 325.958 931.062C348.998 931.062 347.322 917.659 358.004 917.659C368.896 917.659 367.22 931.062 390.26 931.062C407.226 931.062 399.057 908.863 408.902 903.418C423.983 895.041 424.82 877.239 412.672 867.396C403.456 859.647 404.294 850.432 416.861 844.149Z" fill="#433175"/>
<path d="M330.356 1372.54H355.281V1389.92H295.378L330.356 1372.54Z" fill="#EF4F85"/>
<path d="M387.328 1372.54H362.403V1389.92H422.307L387.328 1372.54Z" fill="#EF4F85"/>
</svg>
