<svg width="1970" height="1107" viewBox="0 0 1970 1107" fill="none" xmlns="http://www.w3.org/2000/svg">
<path d="M53.6323 1106.72C53.6323 1106.72 150.542 874.056 353.187 999.544C506.643 1094.58 699.542 971.576 800.038 831.46C900.533 691.344 1506.45 833.3 1641.33 1004.42C1697.97 1076.27 1835.06 1010.58 1856.85 1103.96L53.6323 1106.72Z" fill="url(#paint0_linear)"/>
<path d="M1257 615.996C1257.19 606.52 1264.54 590.236 1250.01 574.872C1239.72 563.832 1230.61 551.412 1226.29 545.34C1224.73 542.856 1207.08 557.392 1207.44 557.944C1210.29 562.268 1223.63 584.164 1225.56 596.308C1227.67 610.108 1251.21 625.104 1251.21 625.104C1251.21 625.104 1256.91 625.38 1257 615.996Z" fill="#FF938F"/>
<path d="M1235.3 557.484L1207.35 557.852C1207.35 557.852 1163.68 488.76 1162.3 466.864C1161.01 445.98 1118.99 354.348 1168.18 297.216C1170.39 294.64 1172.78 292.064 1175.45 289.672C1175.54 289.58 1175.63 289.488 1175.72 289.396C1175.72 289.396 1175.81 289.488 1176 289.764C1177.01 291.42 1180.87 298.504 1185.47 314.144C1192.64 338.524 1201.47 383.788 1203.58 462.08C1203.58 461.988 1223.07 528.964 1235.3 557.484Z" fill="#FF938F"/>
<path d="M1148.14 190.772C1148.14 190.772 1145.11 198.96 1149.61 202.088C1154.02 205.308 1138.3 219.936 1135.27 232.264C1132.23 244.592 1136 251.124 1136 251.124C1136 251.124 1135.54 243.672 1138.3 239.992C1138.3 239.992 1135.36 248.456 1140.23 254.712C1145.11 260.968 1142.25 264.188 1142.25 264.188C1142.25 264.188 1157.7 264.464 1161.47 253.976C1161.47 253.976 1160.55 258.944 1159.45 260.784C1159.45 260.784 1174.53 255.54 1178.48 245.144C1182.43 234.84 1175.08 222.696 1170.48 221.04C1165.88 219.384 1158.44 207.056 1159.82 203.652C1161.1 200.524 1148.14 190.772 1148.14 190.772Z" fill="#202654"/>
<path d="M1151.72 1069.56L1133.61 1076.27C1133.61 1076.27 1055.09 967.252 1045.44 871.388C1043.69 854.276 1044.24 837.716 1048.01 822.352C1048.01 822.352 1047.28 817.936 1045.9 810.208C1045.25 806.62 1044.52 802.204 1043.6 797.236C1041.02 782.608 1037.53 762.552 1033.48 739.736C1024.29 687.296 1012.25 620.136 1002.96 570.824L1007.83 569.26L1060.52 552.24L1071.37 517.648L1110.63 507.344C1110.63 507.344 1119.36 524.548 1127.27 605.6C1128.74 616.272 1130.03 627.956 1131.04 640.652C1134.07 679.476 1134.35 727.592 1127.27 782.7C1125.43 796.776 1123.22 811.312 1120.37 826.308C1118.35 837.256 1117.98 852.16 1118.9 869.364C1122.95 947.748 1151.72 1069.56 1151.72 1069.56Z" fill="#ECEBFC"/>
<path d="M1131.13 640.744L1045.9 810.3C1045.25 806.712 1044.52 802.296 1043.6 797.328C1041.02 782.7 1037.53 762.644 1033.48 739.828C1024.29 687.388 1012.25 620.228 1002.96 570.916L1007.83 569.352L1060.52 552.332L1071.37 517.74L1118.26 503.756C1118.26 503.756 1119.36 524.548 1127.27 605.6C1128.83 616.272 1130.12 628.048 1131.13 640.744Z" fill="#B1C9F6"/>
<path d="M1187.4 139.62L1102.26 208.528C1102.26 208.528 1099.78 193.532 1091.04 195.832C1077.34 199.42 1056.38 162.712 1072.56 129.592C1073.66 127.384 1086.72 94.632 1128.65 90.492C1182.53 94.724 1187.4 139.62 1187.4 139.62Z" fill="#202654"/>
<path d="M1156.78 323.804C1146.39 328.588 1133.89 331.9 1118.72 332.728C1061.9 335.856 1049.02 285.992 1046.63 252.872C1054.82 249.928 1061.99 250.204 1066.12 250.388C1070.17 250.572 1074.4 251.032 1077.8 251.492C1084.79 247.904 1097.2 230.24 1104.47 200.708L1106.95 201.812L1147.96 221.132C1147.96 221.132 1143.63 234.472 1140.42 247.26C1137.93 257.288 1136.09 266.948 1137.57 269.616C1140.78 270.904 1142.71 271.732 1142.71 271.732C1143.17 272.928 1152.09 295.652 1156.78 323.804Z" fill="#FFA5A2"/>
<path d="M1171.03 361.156C1170.57 362.26 1170.11 363.364 1169.65 364.56C1155.22 395.564 1116.14 498.052 1116.14 498.052C1119.91 521.144 955.148 519.488 954.688 498.512C949.631 480.572 967.009 453.892 982.363 434.848C986.133 430.156 989.719 426.016 992.845 422.428C994.868 420.128 996.615 417.736 998.178 415.16C1002.13 408.72 1004.61 401.544 1005.44 393.908C1007.56 373.852 1007.74 354.624 1007.65 338.984C1007.65 331.44 1007.56 324.724 1007.65 319.112C1010.77 316.812 1013.81 314.604 1016.66 312.58C1020.98 309.452 1024.75 306.508 1027.6 303.472C1030.73 300.252 1032.66 296.94 1032.84 293.168C1033.02 290.316 1032.93 287.464 1032.66 284.52C1032.57 283.14 1032.38 281.76 1032.11 280.38C1029.9 265.936 1023.83 252.872 1023.83 252.872C1039.09 246.708 1066.22 250.388 1066.22 250.388C1066.22 250.388 1066.22 251.86 1066.22 254.344C1066.12 264.28 1066.22 289.672 1069.43 294.548C1073.39 300.528 1146.02 326.84 1149.89 318.652C1153.66 310.648 1143.36 273.112 1142.9 271.732V271.64C1143.63 271.916 1144.46 272.284 1145.2 272.56C1148.87 274.032 1152.09 275.78 1155.13 276.884C1174.89 284.06 1176.73 290.684 1176.73 290.684C1161.93 300.344 1182.34 331.072 1171.03 361.156Z" fill="#F9795A"/>
<path d="M1147.96 221.132C1147.96 221.132 1143.63 234.472 1140.42 247.26C1116.42 240.544 1109.15 215.336 1106.95 201.812L1147.96 221.132Z" fill="#FF7E79"/>
<path d="M1153.01 235.3C1153.01 235.3 1095.64 222.052 1104.47 186.448C1113.29 150.844 1111.82 125.176 1148.78 132.168C1185.74 139.16 1189.51 154.524 1189.42 167.128C1189.42 179.64 1168.18 237.784 1153.01 235.3Z" fill="#FFA5A2"/>
<path d="M1192.64 146.796C1186.48 133.916 1179.22 134.56 1174.71 136.86C1147.77 111.928 1121.38 132.26 1121.38 132.26C1111.18 156.824 1089.2 166.852 1089.2 166.852C1089.2 166.852 1098.03 175.868 1123.59 175.684C1131.41 175.592 1139.22 172.004 1146.39 167.128C1132.6 181.02 1116.51 189.484 1116.51 189.484C1148.51 183.32 1169.93 146.336 1172.14 142.38C1174.8 146.336 1180.04 154.892 1180.5 162.068C1181.06 171.82 1177.75 190.864 1183.35 191.508C1183.08 191.6 1201.93 166.116 1192.64 146.796Z" fill="#202654"/>
<path d="M1208.27 1102.77H1117.25C1117.25 1102.77 1113.84 1088.23 1119.82 1078.39C1125.15 1069.65 1124.69 1064.31 1120.74 1057.04C1124.88 1058.7 1128.65 1060.63 1134.44 1060.26C1138.94 1059.99 1144 1056.77 1148.23 1054.38C1152.18 1058.88 1168.73 1079.03 1173.98 1082.8C1179.95 1087.04 1206.43 1085.56 1208.27 1102.77Z" fill="#1B2251"/>
<path d="M1045.71 442.668C1021.9 441.012 999.281 438.896 982.179 434.756C985.949 430.064 989.535 425.924 992.661 422.336C994.684 420.036 996.431 417.644 997.994 415.068C1001.95 408.628 1004.43 401.452 1005.26 393.816C1007.37 373.76 1007.56 354.532 1007.46 338.892C1028.15 315.708 1045.62 296.756 1045.62 296.756C1045.62 296.756 1084.24 332.176 1090.21 367.504C1096.37 402.924 1107.68 446.992 1045.71 442.668Z" fill="#F24B46"/>
<path d="M1055.37 249.56C1055.37 249.56 1083.41 282.864 1077.43 332.728H1089.02C1089.02 332.728 1095.64 297.86 1066.12 250.48C1066.12 250.48 1062.26 249.928 1061.07 249.836C1059.6 249.744 1055.37 249.56 1055.37 249.56Z" fill="#C0D3F8"/>
<path d="M1156.51 359.224L1145.2 356.464C1160.37 316.352 1148.78 281.944 1145.01 272.744C1148.69 274.216 1152 275.688 1155.04 277.068C1170.67 328.22 1156.51 359.224 1156.51 359.224Z" fill="#C0D3F8"/>
<path d="M1161.38 339.076C1161.38 339.076 1105.39 324.448 1089.57 320.4C1073.76 316.352 1072.56 325.644 1072.56 325.644C1072.56 325.644 1070.35 356.096 1070.08 359.224C1066.4 406.972 998.086 415.16 998.086 415.16C998.086 415.16 980.433 437.148 965.262 458.86C939.333 495.936 942.459 558.68 942.459 558.68C941.908 566.224 941.816 574.504 942.368 583.428C944.39 616.364 948.16 756.388 952.114 797.88C953.493 812.876 954.78 823.548 955.24 827.872C955.424 829.16 954.964 830.448 954.32 831.552C948.528 841.304 943.747 851.516 939.885 862.004C901.452 964.492 945.77 1090.62 945.77 1090.62L957.263 1086.02C957.263 1086.02 982.455 945.632 1002.96 883.532C1006.45 873.044 1009.76 864.764 1012.8 859.796C1021.72 845.352 1029.99 821.892 1037.53 793.924C1051.69 741.024 1063.18 672.208 1070.72 619.124C1071.73 619.216 1080.1 547.824 1107.5 514.98L1118.26 504.032L1152.28 420.404C1152.28 420.404 1161.66 364.836 1164.51 355.452C1167.45 345.976 1161.38 339.076 1161.38 339.076Z" fill="#C0D3F8"/>
<path d="M1078.26 328.496C1078.26 325.828 1080.47 323.62 1083.13 323.62C1085.8 323.62 1088.01 325.828 1088.01 328.496C1088.01 331.164 1085.8 333.372 1083.13 333.372C1080.38 333.372 1078.26 331.164 1078.26 328.496Z" fill="#1B2251"/>
<path d="M1079.09 328.496C1079.09 325.828 1081.3 323.62 1083.96 323.62C1086.63 323.62 1088.84 325.828 1088.84 328.496C1088.84 331.164 1086.63 333.372 1083.96 333.372C1081.3 333.372 1079.09 331.164 1079.09 328.496Z" fill="#242E6C"/>
<path d="M1081.11 327.576C1081.2 327.208 1081.66 327.024 1082.03 327.116C1082.4 327.208 1082.58 327.668 1082.49 328.036C1082.4 328.404 1081.94 328.588 1081.57 328.496C1081.2 328.404 1081.02 327.944 1081.11 327.576Z" fill="#EFECEA"/>
<path d="M1085.53 328.956C1085.62 328.588 1086.08 328.404 1086.44 328.496C1086.81 328.588 1087 329.048 1086.9 329.416C1086.81 329.784 1086.35 329.968 1085.98 329.876C1085.62 329.784 1085.34 329.324 1085.53 328.956Z" fill="#EFECEA"/>
<path d="M1148.41 344.32C1148.41 341.652 1150.62 339.444 1153.29 339.444C1155.95 339.444 1158.16 341.652 1158.16 344.32C1158.16 346.988 1155.95 349.196 1153.29 349.196C1150.53 349.196 1148.41 346.988 1148.41 344.32Z" fill="#1B2251"/>
<path d="M1149.24 344.32C1149.24 341.652 1151.45 339.444 1154.12 339.444C1156.78 339.444 1158.99 341.652 1158.99 344.32C1158.99 346.988 1156.78 349.196 1154.12 349.196C1151.45 349.196 1149.24 346.988 1149.24 344.32Z" fill="#242E6C"/>
<path d="M1151.27 343.4C1151.36 343.032 1151.82 342.848 1152.18 342.94C1152.55 343.032 1152.74 343.492 1152.64 343.86C1152.55 344.228 1152.09 344.412 1151.72 344.32C1151.36 344.136 1151.17 343.768 1151.27 343.4Z" fill="#EFECEA"/>
<path d="M1155.68 344.78C1155.77 344.412 1156.23 344.228 1156.6 344.32C1156.97 344.412 1157.15 344.872 1157.06 345.24C1156.97 345.608 1156.51 345.792 1156.14 345.7C1155.77 345.516 1155.49 345.148 1155.68 344.78Z" fill="#EFECEA"/>
<path d="M1071.46 173.752C1071.46 173.752 1068.42 181.94 1072.93 185.068C1077.34 188.288 1061.62 202.916 1058.59 215.244C1055.55 227.572 1059.32 234.104 1059.32 234.104C1059.32 234.104 1058.86 226.652 1061.62 222.972C1061.62 222.972 1058.68 231.436 1063.55 237.692C1068.42 243.948 1065.57 247.168 1065.57 247.168C1065.57 247.168 1081.02 247.444 1084.79 236.956C1084.79 236.956 1083.87 241.924 1082.77 243.764C1082.77 243.764 1097.85 238.52 1101.8 228.124C1105.75 217.82 1098.4 205.676 1093.8 204.02C1089.2 202.364 1081.76 190.036 1083.13 186.632C1084.42 183.504 1071.46 173.752 1071.46 173.752Z" fill="#202654"/>
<path d="M1185.47 314.144C1172.5 316.076 1167.17 323.804 1167.17 323.804C1167.17 323.804 1166.07 307.428 1168.18 297.216C1168.92 293.628 1170.11 290.868 1171.77 289.764C1172.6 289.304 1173.79 289.304 1175.35 289.672C1175.54 289.672 1175.72 289.764 1175.91 289.764C1177.01 291.42 1180.87 298.504 1185.47 314.144Z" fill="#F9795A"/>
<path d="M1367.52 617.836C1344.35 619.032 1328.53 583.06 1318.79 582.6C1317.23 582.508 1314.19 582.968 1310.24 583.52C1319.8 599.252 1327.16 617.836 1331.29 638.168C1345.18 707.536 1315.94 771.936 1265.92 781.872C1217.28 791.624 1166.99 746.36 1151.54 680.028C1151.08 678.188 1150.71 676.256 1150.35 674.416C1146.3 654.176 1145.93 634.396 1148.69 616.272C1148.69 616.18 1148.69 616.18 1148.69 616.088C1146.58 616.64 1145.01 617.1 1144 617.56C1135.18 621.792 1134.44 661.076 1112.56 668.804C1090.67 676.624 1075.96 634.672 1101.98 602.104C1117.8 582.232 1145.93 572.572 1165.42 568.156C1169.47 561.532 1174.16 555.552 1179.31 550.492C1179.49 550.308 1179.68 550.124 1179.86 549.94C1165.52 542.212 1154.58 528.32 1151.17 511.116C1149.98 505.32 1149.79 499.432 1150.35 493.82C1150.25 493.82 1150.25 493.82 1150.16 493.82C1140.32 490.876 1132.32 482.688 1130.21 471.832C1127.08 456.192 1137.2 441.012 1152.83 437.884C1164.14 435.584 1175.17 440.276 1181.7 449.016C1186.02 446.9 1190.71 445.244 1195.67 444.232C1200.09 443.312 1204.5 443.036 1208.73 443.128C1211.49 432.824 1219.76 424.452 1230.98 422.244C1246.61 419.116 1261.78 429.236 1264.91 444.876C1266.93 455.088 1263.25 465.208 1256.17 471.832C1259.12 476.984 1261.32 482.688 1262.52 488.852C1265.74 505.136 1261.69 521.144 1252.68 533.564C1260.86 536.416 1268.77 540.556 1276.22 545.984C1295.8 542.212 1327.8 539.176 1351.52 552.24C1388.21 572.296 1390.69 616.64 1367.52 617.836Z" fill="#7F22BA"/>
<path d="M1151.54 680.12C1151.08 678.28 1150.71 676.348 1150.35 674.508C1146.3 654.268 1145.93 634.488 1148.69 616.364C1151.54 613.052 1155.4 610.568 1159.72 612.592C1169.29 617.1 1167.82 663.008 1182.34 673.588C1193.1 681.316 1166.07 681.408 1151.54 680.12Z" fill="#6615B2"/>
<path d="M1207.08 543.224C1201.56 545.248 1189.88 548.928 1179.4 550.492C1179.58 550.308 1179.77 550.124 1179.95 549.94C1165.61 542.212 1154.67 528.32 1151.27 511.116C1150.07 505.32 1149.89 499.432 1150.44 493.82C1150.35 493.82 1150.35 493.82 1150.25 493.82C1150.81 493.544 1151.54 493.912 1152.55 495.292C1156.23 500.444 1175.91 542.304 1206.98 537.52C1207.08 537.428 1215.17 540.188 1207.08 543.224Z" fill="#6615B2"/>
<path d="M1221.79 446.808C1221.79 446.808 1229.05 433.192 1239.9 436.688C1250.75 440.184 1252.22 455.824 1245.14 460.148C1245.23 460.148 1234.75 450.396 1221.79 446.808Z" fill="#6615B2"/>
<path d="M1170.94 454.72C1170.94 454.72 1155.31 447.544 1148.32 455.824C1141.24 464.104 1155.4 474.776 1155.4 474.776C1155.4 474.776 1162.21 460.7 1170.94 454.72Z" fill="#6615B2"/>
<path d="M1177.38 531.08L1172.32 549.756C1172.32 549.756 1154.67 543.316 1145.56 539.82C1142.81 538.808 1141.34 538.072 1141.34 538.072C1134.07 535.22 1125.43 531.54 1115.96 527.676H1115.87C1099.78 520.592 1081.76 512.312 1066.86 504.032C1056.38 498.144 1047.46 492.164 1041.58 486.828C1040.93 486.276 1040.47 485.816 1039.92 485.172C1026.22 470.912 1013.62 433.836 1005.53 395.104C1004.43 389.768 1003.42 384.432 1002.41 379.28C998.914 360.052 996.799 341.284 996.339 325.276C995.971 315.708 996.155 307.152 997.075 300.252C997.351 297.768 997.626 295.468 998.178 293.352C1005.53 254.344 1025.85 252.412 1025.85 252.412C1026.31 252.32 1026.68 252.32 1027.23 252.228C1030.73 252.32 1033.76 255.264 1036.61 260.324C1040.2 266.672 1043.41 276.608 1046.45 288.384C1050.95 307.152 1055 331.072 1058.49 354.808C1060.42 367.78 1062.26 380.844 1064.29 392.896C1065.3 400.164 1066.49 407.064 1067.5 413.412C1069.62 425.464 1071.73 435.308 1074.03 441.748C1075.5 445.888 1080.74 452.328 1087.92 459.688C1100.33 472.66 1118.9 488.944 1135.27 502.468C1142.07 508.172 1148.42 513.324 1153.84 517.648C1162.48 524.548 1177.38 531.08 1177.38 531.08Z" fill="#FFA5A2"/>
<path d="M1048.75 288.568C1022.82 276.332 998.085 293.168 998.085 293.168C1005.62 253.608 1026.96 251.86 1026.96 251.86C1035.78 250.02 1042.86 265.476 1048.75 288.568Z" fill="#F9795A"/>
<path d="M1165.42 526.94C1165.42 526.94 1176.18 531.172 1182.25 532.276C1188.32 533.38 1197.79 530.344 1205.51 535.404C1213.24 540.464 1218.75 543.776 1218.75 543.776C1218.75 543.776 1220.59 546.628 1216.55 547.824C1214.16 548.468 1202.39 541.016 1201.83 542.948C1201.37 544.972 1209.37 549.388 1214.06 549.664C1218.75 549.94 1227.3 553.988 1227.3 557.024C1227.3 560.06 1213.51 567.236 1205.42 566.684C1197.33 566.224 1180.78 551.964 1176.55 550.952C1172.32 549.94 1154.67 542.856 1154.67 542.856L1165.42 526.94Z" fill="#FFA5A2"/>
<path d="M1012.8 1102.77H921.772C921.772 1102.77 919.565 1088.88 924.346 1078.39C928.944 1068.27 936.851 1063.3 935.196 1051.06C940.988 1057.04 948.896 1062.75 962.136 1061C963.791 1063.58 973.169 1078.94 978.594 1082.8C984.386 1087.04 1010.96 1085.56 1012.8 1102.77Z" fill="#1B2251"/>
<path d="M1954.49 1019.32C1954.49 1019.32 1972.15 1035.7 1968.65 1047.29C1965.25 1058.88 1949.25 1066.7 1947.14 1080.87C1945.02 1095.04 1936.38 1102.86 1928.66 1102.86C1920.93 1102.86 1891.69 1102.86 1891.69 1102.86C1891.69 1102.86 1885.99 1092.83 1899.79 1089.89C1913.58 1086.85 1918.73 1070.2 1917.9 1054.65C1917.07 1039.1 1919.19 1018.5 1919.19 1018.5L1948.42 1011.6L1954.49 1019.32Z" fill="#F24B46"/>
<path d="M1734.65 1101.2C1733.27 1101.85 1729.32 1102.4 1723.8 1102.77H1634.53C1634.99 1099.92 1637.28 1091.64 1650.34 1089.52C1665.79 1087.04 1692.45 1078.02 1698.43 1058.33C1698.61 1057.69 1698.79 1057.04 1698.98 1056.4C1703.67 1035.33 1738.15 1062.84 1738.15 1062.84C1738.15 1062.84 1738.24 1063.67 1738.42 1065.14C1739.16 1072.87 1741.18 1097.89 1734.65 1101.2Z" fill="#F24B46"/>
<path d="M1654.39 536.968C1654.39 536.968 1659.63 602.196 1665.79 680.672C1674.15 787.208 1684.18 918.124 1685.19 942.872C1686.93 985.928 1693.83 1054.84 1693.83 1054.84C1693.83 1054.84 1710.2 1071.21 1742.84 1064.31C1742.84 1064.31 1771.98 965.964 1780.35 862.004C1780.44 860.256 1780.63 858.6 1780.72 856.852C1788.44 750.96 1800.49 527.952 1800.49 527.952L1654.39 536.968Z" fill="#363F78"/>
<path d="M1654.39 536.968C1654.39 536.968 1659.63 602.196 1665.79 680.672L1780.26 862.004C1780.35 860.256 1780.53 858.6 1780.63 856.852C1788.35 750.96 1800.39 527.952 1800.39 527.952L1654.39 536.968Z" fill="#202654"/>
<path d="M1678.29 544.788C1678.29 544.788 1772.53 781.136 1834.5 892.18C1896.48 1003.22 1915.78 1034.23 1915.78 1034.23C1915.78 1034.23 1951.27 1020.06 1954.49 1010.31C1954.49 1010.31 1930.77 795.856 1889.3 743.6C1865.86 714.068 1838.37 625.472 1836.99 594.468C1835.7 563.464 1828.62 502.1 1828.62 502.1L1678.29 544.788Z" fill="#363F78"/>
<path d="M1493.39 512.036C1493.39 512.036 1460.11 528.044 1455.69 532.092C1451.19 536.232 1440.15 556.288 1440.98 557.852C1441.81 559.324 1443.46 559.876 1446.5 557.76C1449.53 555.644 1457.99 546.996 1458.27 548.56C1458.54 550.216 1435.74 577.08 1439.79 582.784C1443.83 588.488 1466.82 586.832 1479.87 577.448C1492.93 568.156 1506.08 533.84 1508.01 532C1524.74 516.176 1493.39 512.036 1493.39 512.036Z" fill="#FFA5A2"/>
<path d="M1491.92 529.148C1482.72 521.144 1482.45 519.12 1482.45 519.12C1482.45 519.12 1541.39 417.092 1546.53 407.34C1551.68 397.496 1583.22 244.316 1583.22 244.316L1692.45 212.668C1692.45 212.668 1615.49 411.756 1602.07 436.32C1579.82 476.984 1507.37 536.784 1507.37 536.784C1507.37 536.784 1499.18 535.496 1491.92 529.148Z" fill="#F24B46"/>
<path d="M1636.82 172.648C1636.82 172.648 1598.39 240.36 1560.79 249.192C1560.79 249.192 1562.35 226.468 1571.54 210.92C1567.77 206.504 1564.46 202.456 1561.61 198.776C1552.14 186.632 1547.64 179.18 1547.64 179.18L1560.42 144.864L1569.06 121.588C1573.2 129.132 1577.8 135.572 1582.58 141.092C1607.22 169.52 1636.82 172.648 1636.82 172.648Z" fill="#FFA5A2"/>
<path d="M1582.58 141.184C1582.58 141.184 1587.17 175.132 1561.61 198.776C1552.14 186.632 1547.64 179.18 1547.64 179.18L1560.42 144.864C1574.03 140.816 1582.58 141.184 1582.58 141.184Z" fill="#FF7D78"/>
<path d="M1537.52 184.24C1537.52 184.24 1594.99 161.792 1580.46 126.28C1565.93 90.676 1563.64 63.812 1526.31 76.692C1488.98 89.48 1487.51 105.948 1489.44 119.012C1491.37 131.984 1522.17 189.116 1537.52 184.24Z" fill="#FFA5A2"/>
<path d="M1834.23 519.948C1811.06 553.252 1637.83 597.78 1639.86 574.78C1640.69 565.948 1641.7 550.4 1639.86 529.24C1639.4 524.272 1638.75 519.028 1638.02 513.508C1633.61 483.148 1623.12 444.232 1599.86 399.06C1598.11 395.656 1596.28 392.252 1594.44 388.848C1584.78 371.368 1576.69 352.876 1570.44 334.844C1558.39 300.16 1553.61 266.948 1559.68 245.236C1559.68 245.144 1559.77 245.052 1559.77 244.96C1596 228.216 1609.98 163.264 1609.98 163.264C1609.98 163.264 1733.55 185.436 1802.69 350.208C1802.69 350.208 1809.31 368.332 1816.94 392.896C1826.14 422.704 1836.8 461.988 1838.64 489.956C1839.47 503.204 1838.37 513.968 1834.23 519.948Z" fill="#F9795A"/>
<path d="M1588.74 60.132C1589.1 59.304 1590.3 58.476 1593.15 57.648C1593.15 57.648 1590.48 56.728 1587.36 57.464C1585.7 53.508 1581.84 46.792 1574.49 46.792C1574.49 46.792 1578.71 47.896 1580.28 52.128C1570.16 45.78 1551.5 43.848 1504.88 59.396C1443.46 79.912 1474.17 115.608 1483.46 118.46C1492.75 121.312 1509.94 103.004 1525.3 100.428C1540.74 97.944 1549.02 119.38 1554.9 121.22C1560.79 122.968 1557.48 118.092 1563.64 113.216C1569.8 108.34 1573.29 119.84 1573.2 127.936C1573.11 136.032 1585.06 143.668 1585.06 143.668C1585.06 143.668 1585.06 143.668 1592.14 130.788C1599.22 117.908 1597.29 70.988 1590.58 62.524C1589.93 61.696 1589.29 60.96 1588.74 60.132Z" fill="#1D2453"/>
<path d="M1838.55 489.956C1689.51 444.968 1665.79 267.132 1665.79 267.132C1665.79 267.132 1750.65 331.992 1816.85 392.896C1826.14 422.612 1836.71 461.896 1838.55 489.956Z" fill="#F24B46"/>
<path d="M1879.47 495.752C1879.47 495.752 1876.06 523.996 1876.89 528.596C1877.72 533.196 1883.05 546.904 1884.43 546.996C1885.81 547.088 1889.86 547.272 1889.67 544.42C1889.58 541.568 1887.74 538.992 1888.94 539.452C1890.13 539.912 1890.5 550.584 1895.83 550.308C1901.16 550.032 1917.07 544.052 1916.43 531.724C1915.78 519.396 1898.96 496.672 1898.5 494.648C1895.1 477.076 1879.47 495.752 1879.47 495.752Z" fill="#FFA5A2"/>
<path d="M1888.38 500.536C1876.52 505.964 1872.2 500.444 1872.2 500.444C1872.2 500.444 1803.34 385.352 1796.07 376.06C1788.81 366.768 1661.65 312.212 1661.65 312.212C1661.65 312.212 1609.88 292.432 1607.86 260.968C1606.11 233.644 1621.56 216.9 1638.57 206.78C1658.8 194.728 1684.36 196.476 1702.93 210.92C1744.67 243.304 1827.33 308.532 1840.66 326.196C1870.27 365.572 1903.09 488.944 1903.09 488.944C1903.09 488.944 1897.67 496.212 1888.38 500.536Z" fill="#F9795A"/>
<path d="M1592.23 578.552L1561.25 609.556L1560.79 609.28L1514.26 580.024C1514.26 580.024 1538.35 587.844 1541.57 586.924C1544.6 586.096 1578.26 574.504 1586.25 575.424C1586.71 575.516 1587.17 575.608 1587.45 575.792C1592.23 578.552 1592.23 578.552 1592.23 578.552Z" fill="#1D2453"/>
<path d="M1559.87 618.02C1558.58 617.744 1554.9 616.916 1549.94 615.628C1535.5 611.948 1510.03 604.864 1499.92 598.976C1490.91 593.732 1443.19 566.04 1410.36 546.536C1423.51 539.544 1436.38 538.532 1447.23 539.912C1485.58 562.452 1535.69 591.984 1541.85 596.308C1551.96 603.392 1565.66 611.948 1565.66 611.948C1565.66 611.948 1565.57 612.316 1565.48 612.96C1565.02 614.8 1563.54 618.756 1559.87 618.02Z" fill="#C84BDC"/>
<path d="M1559.87 618.02C1558.58 617.744 1554.9 616.916 1549.94 615.628C1535.5 611.948 1510.03 604.864 1499.92 598.976C1490.91 593.732 1443.19 566.04 1410.36 546.536C1393.91 536.784 1381.13 529.056 1378.92 527.308C1372.21 522.156 1359.34 509.276 1362.46 506.792C1365.68 504.4 1371.84 506.792 1374.14 506.424H1374.23C1374.78 506.332 1375.7 506.24 1376.9 506.148C1381.31 505.872 1390.14 506.516 1402.64 513.692C1402.64 513.692 1422.5 525.284 1447.23 539.82C1485.58 562.36 1535.69 591.892 1541.85 596.216C1551.96 603.3 1565.66 611.856 1565.66 611.856C1565.66 611.856 1565.57 612.224 1565.48 612.868C1565.02 614.8 1563.54 618.756 1559.87 618.02Z" fill="#C643DB"/>
<path d="M1559.87 618.02C1558.58 617.744 1554.9 616.916 1549.94 615.628C1550.58 609.924 1546.63 605.324 1546.63 605.324L1565.57 612.96C1565.02 614.8 1563.54 618.756 1559.87 618.02Z" fill="#1D2453"/>
<g opacity="0.5">
<g opacity="0.5">
<path opacity="0.5" d="M1518.86 593.64C1518.58 593.456 1518.49 593.088 1518.68 592.812L1519.04 592.26C1519.23 591.984 1519.59 591.892 1519.87 592.076C1520.15 592.26 1520.24 592.628 1520.05 592.904L1519.69 593.456C1519.59 593.732 1519.23 593.824 1518.86 593.64Z" fill="#1D2453"/>
<path opacity="0.5" d="M1516.1 591.984C1515.83 591.8 1515.73 591.432 1515.92 591.156L1516.28 590.604C1516.47 590.328 1516.84 590.236 1517.11 590.42C1517.39 590.604 1517.48 590.972 1517.3 591.248L1516.93 591.8C1516.84 592.076 1516.47 592.168 1516.1 591.984Z" fill="#1D2453"/>
<path opacity="0.5" d="M1513.34 590.328C1513.07 590.144 1512.98 589.776 1513.16 589.5L1513.53 588.948C1513.71 588.672 1514.08 588.58 1514.35 588.764C1514.63 588.948 1514.72 589.316 1514.54 589.592L1514.17 590.144C1514.08 590.42 1513.71 590.512 1513.34 590.328Z" fill="#1D2453"/>
<path opacity="0.5" d="M1510.58 588.672C1510.31 588.488 1510.22 588.12 1510.4 587.844L1510.77 587.292C1510.95 587.016 1511.32 586.924 1511.6 587.108C1511.87 587.292 1511.96 587.66 1511.78 587.936L1511.41 588.488C1511.32 588.764 1510.86 588.856 1510.58 588.672Z" fill="#1D2453"/>
<path opacity="0.5" d="M1507.83 587.108C1507.55 586.924 1507.46 586.556 1507.64 586.28L1508.01 585.728C1508.19 585.452 1508.56 585.36 1508.84 585.544C1509.11 585.728 1509.21 586.096 1509.02 586.372L1508.65 586.924C1508.56 587.108 1508.1 587.292 1507.83 587.108Z" fill="#1D2453"/>
<path opacity="0.5" d="M1505.07 585.452C1504.79 585.268 1504.7 584.9 1504.88 584.624L1505.25 584.072C1505.44 583.796 1505.8 583.704 1506.08 583.888C1506.35 584.072 1506.45 584.44 1506.26 584.716L1505.89 585.268C1505.8 585.544 1505.34 585.636 1505.07 585.452Z" fill="#1D2453"/>
<path opacity="0.5" d="M1502.31 583.796C1502.03 583.612 1501.94 583.244 1502.13 582.968L1502.49 582.416C1502.68 582.14 1503.04 582.048 1503.32 582.232C1503.6 582.416 1503.69 582.784 1503.5 583.06L1503.14 583.612C1503.04 583.888 1502.59 583.98 1502.31 583.796Z" fill="#1D2453"/>
<path opacity="0.5" d="M1499.55 582.14C1499.28 581.956 1499.18 581.588 1499.37 581.312L1499.73 580.76C1499.92 580.484 1500.29 580.392 1500.56 580.576C1500.84 580.76 1500.93 581.128 1500.75 581.404L1500.38 581.956C1500.19 582.232 1499.83 582.324 1499.55 582.14Z" fill="#1D2453"/>
<path opacity="0.5" d="M1496.79 580.576C1496.52 580.392 1496.42 580.024 1496.61 579.748L1496.98 579.196C1497.16 578.92 1497.53 578.828 1497.8 579.012C1498.08 579.196 1498.17 579.564 1497.99 579.84L1497.62 580.392C1497.44 580.576 1497.07 580.76 1496.79 580.576Z" fill="#1D2453"/>
</g>
<g opacity="0.5">
<path opacity="0.5" d="M1464.24 561.256C1463.97 561.072 1463.88 560.704 1464.06 560.428L1464.43 559.876C1464.61 559.6 1464.98 559.508 1465.26 559.692C1465.53 559.876 1465.62 560.244 1465.44 560.52L1465.07 561.072C1464.89 561.348 1464.52 561.44 1464.24 561.256Z" fill="#1D2453"/>
<path opacity="0.5" d="M1461.49 559.692C1461.21 559.508 1461.12 559.14 1461.3 558.864L1461.67 558.312C1461.85 558.036 1462.22 557.944 1462.5 558.128C1462.77 558.312 1462.87 558.68 1462.68 558.956L1462.31 559.508C1462.13 559.692 1461.76 559.876 1461.49 559.692Z" fill="#1D2453"/>
<path opacity="0.5" d="M1458.73 558.036C1458.45 557.852 1458.36 557.484 1458.54 557.208L1458.91 556.656C1459.1 556.38 1459.46 556.288 1459.74 556.472C1460.02 556.656 1460.11 557.024 1459.92 557.3L1459.56 557.852C1459.37 558.128 1459 558.22 1458.73 558.036Z" fill="#1D2453"/>
<path opacity="0.5" d="M1455.97 556.38C1455.69 556.196 1455.6 555.828 1455.79 555.552L1456.15 555C1456.34 554.724 1456.7 554.632 1456.98 554.816C1457.26 555 1457.35 555.368 1457.16 555.644L1456.8 556.196C1456.61 556.472 1456.25 556.564 1455.97 556.38Z" fill="#1D2453"/>
<path opacity="0.5" d="M1453.21 554.724C1452.94 554.54 1452.84 554.172 1453.03 553.896L1453.39 553.344C1453.58 553.068 1453.95 552.976 1454.22 553.16C1454.5 553.344 1454.59 553.712 1454.41 553.988L1454.04 554.54C1453.85 554.816 1453.49 554.908 1453.21 554.724Z" fill="#1D2453"/>
<path opacity="0.5" d="M1450.45 553.16C1450.18 552.976 1450.08 552.608 1450.27 552.332L1450.64 551.78C1450.82 551.504 1451.19 551.412 1451.46 551.596C1451.74 551.78 1451.83 552.148 1451.65 552.424L1451.28 552.976C1451.1 553.16 1450.73 553.344 1450.45 553.16Z" fill="#1D2453"/>
<path opacity="0.5" d="M1447.69 551.504C1447.42 551.32 1447.33 550.952 1447.51 550.676L1447.88 550.124C1448.06 549.848 1448.43 549.756 1448.71 549.94C1448.98 550.124 1449.07 550.492 1448.89 550.768L1448.52 551.32C1448.34 551.596 1447.97 551.688 1447.69 551.504Z" fill="#1D2453"/>
<path opacity="0.5" d="M1444.94 549.848C1444.66 549.664 1444.57 549.296 1444.75 549.02L1445.12 548.468C1445.3 548.192 1445.67 548.1 1445.95 548.284C1446.22 548.468 1446.32 548.836 1446.13 549.112L1445.76 549.664C1445.58 549.94 1445.21 550.032 1444.94 549.848Z" fill="#1D2453"/>
<path opacity="0.5" d="M1442.18 548.192C1441.9 548.008 1441.81 547.64 1441.99 547.364L1442.36 546.812C1442.55 546.536 1442.91 546.444 1443.19 546.628C1443.47 546.812 1443.56 547.18 1443.37 547.456L1443.01 548.008C1442.82 548.284 1442.45 548.376 1442.18 548.192Z" fill="#1D2453"/>
</g>
<g opacity="0.5">
<path opacity="0.5" d="M1431.42 541.936C1431.14 541.752 1431.05 541.384 1431.24 541.108L1431.6 540.556C1431.79 540.28 1432.16 540.188 1432.43 540.372C1432.71 540.556 1432.8 540.924 1432.62 541.2L1432.25 541.752C1432.16 541.936 1431.79 542.12 1431.42 541.936Z" fill="#1D2453"/>
<path opacity="0.5" d="M1436.84 545.064C1436.57 544.88 1436.48 544.512 1436.66 544.236L1437.03 543.684C1437.21 543.408 1437.58 543.316 1437.86 543.5C1438.13 543.684 1438.22 544.052 1438.04 544.328L1437.67 544.88C1437.58 545.156 1437.12 545.248 1436.84 545.064Z" fill="#1D2453"/>
<path opacity="0.5" d="M1428.66 540.28C1428.39 540.096 1428.29 539.728 1428.48 539.452L1428.85 538.9C1429.03 538.624 1429.4 538.532 1429.67 538.716C1429.95 538.9 1430.04 539.268 1429.86 539.544L1429.49 540.096C1429.4 540.372 1429.03 540.464 1428.66 540.28Z" fill="#1D2453"/>
<path opacity="0.5" d="M1425.9 538.624C1425.63 538.44 1425.54 538.072 1425.72 537.796L1426.09 537.244C1426.27 536.968 1426.64 536.876 1426.91 537.06C1427.19 537.244 1427.28 537.612 1427.1 537.888L1426.73 538.44C1426.64 538.716 1426.27 538.808 1425.9 538.624Z" fill="#1D2453"/>
<path opacity="0.5" d="M1423.15 536.968C1422.87 536.784 1422.78 536.416 1422.96 536.14L1423.33 535.588C1423.51 535.312 1423.88 535.22 1424.16 535.404C1424.43 535.588 1424.52 535.956 1424.34 536.232L1423.97 536.784C1423.88 537.06 1423.51 537.152 1423.15 536.968Z" fill="#1D2453"/>
<path opacity="0.5" d="M1420.39 535.404C1420.11 535.22 1420.02 534.852 1420.2 534.576L1420.57 534.024C1420.75 533.748 1421.12 533.656 1421.4 533.84C1421.67 534.024 1421.77 534.392 1421.58 534.668L1421.21 535.22C1421.12 535.404 1420.66 535.496 1420.39 535.404Z" fill="#1D2453"/>
<path opacity="0.5" d="M1417.63 533.748C1417.35 533.564 1417.26 533.196 1417.44 532.92L1417.81 532.368C1418 532.092 1418.36 532 1418.64 532.184C1418.92 532.368 1419.01 532.736 1418.82 533.012L1418.46 533.564C1418.36 533.84 1417.9 533.932 1417.63 533.748Z" fill="#1D2453"/>
<path opacity="0.5" d="M1414.87 532.092C1414.59 531.908 1414.5 531.54 1414.69 531.264L1415.05 530.712C1415.24 530.436 1415.61 530.344 1415.88 530.528C1416.16 530.712 1416.25 531.08 1416.07 531.356L1415.7 531.908C1415.61 532.184 1415.15 532.276 1414.87 532.092Z" fill="#1D2453"/>
<path opacity="0.5" d="M1412.11 530.436C1411.84 530.252 1411.74 529.884 1411.93 529.608L1412.3 529.056C1412.48 528.78 1412.85 528.688 1413.12 528.872C1413.4 529.056 1413.49 529.424 1413.31 529.7L1412.94 530.252C1412.85 530.528 1412.39 530.62 1412.11 530.436Z" fill="#1D2453"/>
<path opacity="0.5" d="M1409.35 528.872C1409.08 528.688 1408.99 528.32 1409.17 528.044L1409.54 527.492C1409.72 527.216 1410.09 527.124 1410.36 527.308C1410.64 527.492 1410.73 527.86 1410.55 528.136L1410.18 528.688C1410 528.872 1409.63 528.964 1409.35 528.872Z" fill="#1D2453"/>
<path opacity="0.5" d="M1406.69 527.216C1406.41 527.032 1406.32 526.664 1406.5 526.388L1406.87 525.836C1407.05 525.56 1407.42 525.468 1407.7 525.652C1407.97 525.836 1408.07 526.204 1407.88 526.48L1407.51 527.032C1407.33 527.308 1406.96 527.4 1406.69 527.216Z" fill="#1D2453"/>
<path opacity="0.5" d="M1403.93 525.56C1403.65 525.376 1403.56 525.008 1403.74 524.732L1404.11 524.18C1404.3 523.904 1404.66 523.812 1404.94 523.996C1405.22 524.18 1405.31 524.548 1405.12 524.824L1404.76 525.376C1404.57 525.652 1404.2 525.744 1403.93 525.56Z" fill="#1D2453"/>
<path opacity="0.5" d="M1401.17 523.996C1400.89 523.812 1400.8 523.444 1400.99 523.168L1401.35 522.616C1401.54 522.34 1401.91 522.248 1402.18 522.432C1402.46 522.616 1402.55 522.984 1402.37 523.26L1402 523.812C1401.81 523.996 1401.45 524.18 1401.17 523.996Z" fill="#1D2453"/>
<path opacity="0.5" d="M1379.93 509.736C1379.66 510.104 1379.2 510.196 1378.83 510.012C1378.74 510.012 1378.64 509.92 1378.55 509.828L1374.23 506.424C1374.78 506.332 1375.7 506.24 1376.9 506.148L1379.75 508.356C1380.12 508.724 1380.21 509.276 1379.93 509.736Z" fill="#1D2453"/>
<path opacity="0.5" d="M1449.44 555.736L1448.61 555.276C1448.06 554.908 1447.88 554.172 1448.15 553.62L1450.18 550.124C1450.54 549.572 1451.28 549.388 1451.83 549.664L1452.66 550.124C1453.21 550.492 1453.39 551.228 1453.12 551.78L1451.1 555.276C1450.73 555.92 1449.99 556.104 1449.44 555.736Z" fill="#1D2453"/>
<path opacity="0.5" d="M1454.87 559.048L1454.04 558.588C1453.49 558.22 1453.3 557.484 1453.58 556.932L1455.6 553.436C1455.97 552.884 1456.7 552.7 1457.26 552.976L1458.08 553.436C1458.64 553.804 1458.82 554.54 1458.54 555.092L1456.52 558.588C1456.15 559.14 1455.42 559.324 1454.87 559.048Z" fill="#1D2453"/>
</g>
<g opacity="0.5">
<path opacity="0.5" d="M1488.7 575.7C1488.43 575.516 1488.33 575.148 1488.52 574.872L1488.89 574.32C1489.07 574.044 1489.44 573.952 1489.71 574.136C1489.99 574.32 1490.08 574.688 1489.9 574.964L1489.53 575.516C1489.34 575.792 1488.98 575.884 1488.7 575.7Z" fill="#1D2453"/>
<path opacity="0.5" d="M1485.94 574.136C1485.67 573.952 1485.58 573.584 1485.76 573.308L1486.13 572.756C1486.31 572.48 1486.68 572.388 1486.95 572.572C1487.23 572.756 1487.32 573.124 1487.14 573.4L1486.77 573.952C1486.59 574.228 1486.22 574.32 1485.94 574.136Z" fill="#1D2453"/>
<path opacity="0.5" d="M1483.18 572.48C1482.91 572.296 1482.82 571.928 1483 571.652L1483.37 571.1C1483.55 570.824 1483.92 570.732 1484.2 570.916C1484.47 571.1 1484.56 571.468 1484.38 571.744L1484.01 572.296C1483.83 572.572 1483.46 572.664 1483.18 572.48Z" fill="#1D2453"/>
<path opacity="0.5" d="M1480.43 570.824C1480.15 570.64 1480.06 570.272 1480.24 569.996L1480.61 569.444C1480.79 569.168 1481.16 569.076 1481.44 569.26C1481.71 569.444 1481.81 569.812 1481.62 570.088L1481.25 570.64C1481.07 570.916 1480.7 571.008 1480.43 570.824Z" fill="#1D2453"/>
<path opacity="0.5" d="M1477.67 569.168C1477.39 568.984 1477.3 568.616 1477.48 568.34L1477.85 567.788C1478.04 567.512 1478.4 567.42 1478.68 567.604C1478.96 567.788 1479.05 568.156 1478.86 568.432L1478.5 568.984C1478.31 569.26 1477.94 569.352 1477.67 569.168Z" fill="#1D2453"/>
<path opacity="0.5" d="M1474.91 567.604C1474.63 567.42 1474.54 567.052 1474.73 566.776L1475.09 566.224C1475.28 565.948 1475.65 565.856 1475.92 566.04C1476.2 566.224 1476.29 566.592 1476.11 566.868L1475.74 567.42C1475.55 567.604 1475.19 567.788 1474.91 567.604Z" fill="#1D2453"/>
<path opacity="0.5" d="M1472.06 565.948C1471.78 565.764 1471.69 565.396 1471.88 565.12L1472.24 564.568C1472.43 564.292 1472.79 564.2 1473.07 564.384C1473.35 564.568 1473.44 564.936 1473.25 565.212L1472.89 565.764C1472.8 566.04 1472.43 566.132 1472.06 565.948Z" fill="#1D2453"/>
<path opacity="0.5" d="M1469.3 564.292C1469.03 564.108 1468.93 563.74 1469.12 563.464L1469.49 562.912C1469.67 562.636 1470.04 562.544 1470.31 562.728C1470.59 562.912 1470.68 563.28 1470.5 563.556L1470.13 564.108C1470.04 564.384 1469.67 564.476 1469.3 564.292Z" fill="#1D2453"/>
<path opacity="0.5" d="M1466.54 562.636C1466.27 562.452 1466.17 562.084 1466.36 561.808L1466.73 561.256C1466.91 560.98 1467.28 560.888 1467.55 561.072C1467.83 561.256 1467.92 561.624 1467.74 561.9L1467.37 562.452C1467.28 562.728 1466.91 562.82 1466.54 562.636Z" fill="#1D2453"/>
</g>
</g>
<path d="M1449.53 570.456C1451.37 570.824 1452.75 568.8 1451.83 567.144C1450.91 565.488 1449.44 563.648 1447.42 562.452C1443.28 560.06 1441.99 567.696 1443.37 568.524C1444.2 568.984 1447.14 569.996 1449.53 570.456Z" fill="#313B75"/>
<path d="M1449.17 561.348L1444.02 570.088C1444.02 570.088 1438.87 569.076 1431.88 565.12C1427.56 562.728 1424.98 560.52 1423.7 559.14C1422.87 558.312 1422.5 557.76 1422.5 557.76L1427.93 548.652C1428.48 548.56 1429.12 548.652 1429.86 548.928C1436.02 550.676 1448.52 560.612 1448.52 560.612L1449.17 561.348Z" fill="#313B75"/>
<path d="M1429.76 548.836L1423.7 559.048C1422.87 558.22 1422.5 557.668 1422.5 557.668L1427.93 548.56C1428.39 548.56 1429.03 548.652 1429.76 548.836Z" fill="#7F22BA"/>
<path d="M1546.81 603.76C1547.09 603.668 1564.83 607.716 1574.49 614.708L1562.26 614.524L1546.53 605.232C1546.53 605.232 1545.52 604.22 1546.81 603.76Z" fill="#313B75"/>
<path d="M1510.49 568.34C1510.49 568.34 1499.55 575.884 1497.62 576.896C1495.69 577.908 1492.66 577.632 1492.66 577.632L1473.71 574.412C1473.71 574.412 1453.58 562.636 1449.26 559.968C1448.89 559.692 1448.61 559.6 1448.52 559.508C1447.23 558.588 1446.87 557.76 1447.23 557.484C1447.69 557.208 1480.79 570.456 1484.47 571.928H1484.56C1488.15 573.308 1488.89 572.572 1488.89 572.572L1507.18 567.512C1507.46 567.42 1507.83 567.328 1508.19 567.42C1509.2 567.696 1510.49 568.34 1510.49 568.34Z" fill="#1D2453"/>
<path d="M1508.1 567.602C1503.14 569.166 1489.25 573.399 1488.06 573.491C1486.77 573.675 1456.61 562.727 1449.26 560.059C1448.89 559.783 1448.61 559.691 1448.52 559.599C1447.23 558.679 1446.87 557.851 1447.23 557.575C1447.69 557.299 1480.79 570.547 1484.47 572.019C1488.15 573.491 1488.89 572.755 1488.89 572.755L1507.18 567.695C1507.37 567.511 1507.73 567.51 1508.1 567.602Z" fill="#7F22BA"/>
<path d="M1510.49 568.34C1510.49 568.34 1499.55 575.884 1497.62 576.896C1495.69 577.908 1492.65 577.632 1492.65 577.632C1489.07 575.7 1486.31 573.584 1484.56 572.02C1488.15 573.4 1488.89 572.664 1488.89 572.664L1507.18 567.604C1507.46 567.512 1507.83 567.42 1508.19 567.512C1509.2 567.696 1510.49 568.34 1510.49 568.34Z" fill="#1D2453"/>
<path d="M1561.71 609.74L1514.35 580.116C1514.35 580.116 1538.81 588.12 1542.12 587.2C1545.25 586.372 1579.27 574.964 1587.27 576.068C1578.16 579.748 1556.65 588.948 1555.18 594.008C1553.71 598.792 1558.95 606.244 1561.71 609.74Z" fill="#7F22BA"/>
<path d="M423.617 32.808C423.525 30.232 421.502 1.98793 378.472 0.51593C378.472 0.51593 399.619 2.99992 403.297 12.2919C403.297 12.2919 388.862 0.791919 377.185 4.47192C365.508 8.15192 358.612 28.6679 358.52 35.4759C358.428 42.192 364.956 63.996 372.404 65.836C375.254 66.572 378.472 66.388 381.414 65.836C379.392 68.964 377.461 72.368 375.622 76.14C358.428 111.376 376.174 145.784 390.701 142.012C399.987 139.528 402.654 155.444 402.654 155.444L493.127 82.12C493.127 82.212 459.935 13.396 423.617 32.808Z" fill="#202654"/>
<path d="M455.154 1070.57L435.937 1077.74C435.937 1077.74 352.452 961.916 342.154 859.98C340.315 841.764 340.959 824.192 344.912 807.908C344.912 807.908 344.085 803.216 342.706 795.028C342.062 791.164 341.235 786.564 340.315 781.228C337.557 765.68 333.879 744.428 329.558 720.14C319.72 664.388 307.031 593.088 297.101 540.648L302.25 538.992L358.244 520.868L369.829 484.068L411.572 473.12C411.572 473.12 420.858 491.336 429.225 577.54C430.788 588.856 432.168 601.276 433.179 614.8C436.397 656.016 436.673 707.26 429.225 765.772C427.295 780.768 424.904 796.224 421.87 812.14C419.663 823.824 419.387 839.648 420.307 857.864C424.628 941.124 455.154 1070.57 455.154 1070.57Z" fill="#F9795A"/>
<path d="M433.271 614.8L342.706 795.028C342.062 791.164 341.235 786.564 340.315 781.228C337.557 765.68 333.879 744.428 329.558 720.14C319.72 664.388 307.031 593.088 297.101 540.648L302.25 538.992L358.244 520.868L369.829 484.068L411.572 473.12C411.572 473.12 420.859 491.336 429.226 577.54C430.881 588.764 432.26 601.276 433.271 614.8Z" fill="#F24B46"/>
<path d="M393.459 496.212L391.345 478.18C356.222 487.472 262.346 452.052 262.346 452.052C262.346 452.052 228.327 481.952 232.74 553.712C234.947 588.764 238.901 737.528 243.038 781.596C244.509 797.512 245.888 808.92 246.44 813.428C246.624 814.808 246.164 816.096 245.429 817.292C239.268 827.688 234.211 838.544 230.074 849.584C189.251 958.512 236.326 1092.56 236.326 1092.56L248.555 1087.59C248.555 1087.59 275.403 938.364 297.193 872.4C300.871 861.176 304.457 852.436 307.675 847.192C317.145 831.92 325.972 806.896 333.879 777.18C348.958 720.968 361.095 647.828 369.186 591.34C370.381 591.708 393.459 496.212 393.459 496.212Z" fill="#F9795A"/>
<path d="M670.212 473.212C662.673 479.928 642.537 456.928 639.778 453.892C639.594 453.616 639.503 453.432 639.503 453.432L645.571 436.412C645.571 436.412 671.867 435.4 676.28 439.724C680.694 444.14 678.487 466.128 670.212 473.212Z" fill="#FF7E79"/>
<path d="M645.663 436.412L643.088 453.984C643.088 453.984 641.893 453.984 639.87 453.8C633.434 453.34 617.896 452.512 600.334 450.58C573.854 448.004 542.501 443.312 529.997 435.584C510.964 423.9 479.703 388.296 459.291 352.6C458.74 351.772 458.28 350.852 457.82 350.024C447.247 331.072 439.799 312.304 439.247 297.308C438.788 288.108 439.799 280.288 441.73 273.48C444.212 264.464 448.258 257.288 452.487 251.952C453.039 251.032 453.683 250.204 454.51 249.468C461.498 241.188 468.302 237.692 468.302 237.692C471.796 236.22 475.566 237.968 479.519 242.2V242.384C482.737 245.696 486.231 250.848 489.541 257.196C489.725 257.38 489.817 257.472 489.817 257.656C490.552 258.944 491.288 260.416 492.115 261.98C492.391 262.256 492.575 262.716 492.667 262.992C494.23 266.304 495.885 269.8 497.448 273.48C515.377 312.488 534.41 371.552 550.224 389.124C557.028 396.668 588.289 411.572 613.206 422.612C631.136 430.616 645.663 436.412 645.663 436.412Z" fill="#FF7E79"/>
<path d="M460.579 277.988C449.546 283.14 436.214 286.636 420.123 287.464C359.716 290.776 346.016 237.784 343.533 202.64C352.268 199.512 359.899 199.788 364.221 200.064C368.542 200.34 372.956 200.708 376.633 201.168C383.989 197.304 397.321 178.536 404.952 147.164L407.527 148.36L451.109 168.876C451.109 168.876 446.511 183.044 443.017 196.66C440.351 207.332 438.42 217.544 440.075 220.396C443.477 221.776 445.592 222.696 445.592 222.696C445.592 222.696 445.592 222.696 445.592 222.788C446.052 223.8 455.522 247.996 460.579 277.988Z" fill="#FFA5A2"/>
<path d="M475.658 317.64C475.198 318.836 474.738 320.032 474.186 321.228C458.924 354.164 430.605 490.784 430.605 490.784C434.65 515.348 246.164 486 245.705 463.644C239.085 439.908 269.242 401.82 286.252 382.776C288.367 380.384 290.298 377.808 291.953 375.048C296.182 368.24 298.848 360.512 299.676 352.508C302.986 320.86 301.791 291.144 302.067 273.112C305.377 270.628 308.595 268.328 311.629 266.212C316.226 262.9 320.272 259.772 323.214 256.552C326.524 253.056 328.547 249.56 328.822 245.604C329.006 242.568 328.914 239.532 328.546 236.404C328.363 234.932 328.179 233.46 327.995 231.988C325.604 216.624 319.26 202.732 319.26 202.732C335.442 196.2 364.313 200.064 364.313 200.064C364.313 200.064 364.313 201.628 364.221 204.296C364.129 214.784 364.221 241.832 367.623 246.984C371.852 253.332 449.086 281.3 453.131 272.652C457.177 264.188 446.143 224.26 445.776 222.788V222.696C471.612 232.816 480.898 241.372 480.898 241.372C465.176 251.492 487.702 285.624 475.658 317.64Z" fill="#313B75"/>
<path d="M451.2 168.876C451.2 168.876 446.603 183.044 443.109 196.66C417.641 189.576 409.917 162.712 407.527 148.36L451.2 168.876Z" fill="#FF7E79"/>
<path d="M456.533 183.872C456.533 183.872 395.574 169.796 404.952 131.892C414.331 94.08 412.767 66.756 452.028 74.116C491.38 81.568 495.334 97.852 495.242 111.192C495.242 124.716 472.623 186.54 456.533 183.872Z" fill="#FFA5A2"/>
<path d="M498.736 89.848C492.208 76.14 484.484 76.876 479.611 79.268C451.016 52.7721 422.881 74.392 422.881 74.392C412.032 100.52 388.678 111.192 388.678 111.192C388.678 111.192 398.056 120.76 425.18 120.576C433.455 120.484 441.822 116.712 449.361 111.468C434.742 126.188 417.548 135.204 417.548 135.204C451.476 128.672 474.278 89.388 476.669 85.156C479.519 89.388 485.036 98.496 485.496 106.132C486.139 116.528 482.553 136.676 488.53 137.412C488.53 137.412 508.574 110.364 498.736 89.848Z" fill="#202654"/>
<path d="M480.714 241.372C480.714 241.372 495.425 266.948 497.54 273.572C497.54 273.572 478.508 272.836 470.785 287.464C470.876 287.464 469.038 244.776 480.714 241.372Z" fill="#313B75"/>
<path d="M379.759 444.876C342.614 444.508 311.169 405.868 291.861 375.048C296.09 368.24 298.756 360.512 299.584 352.508C302.894 320.86 301.699 291.144 301.975 273.112C305.285 270.628 308.503 268.328 311.537 266.212C316.134 262.9 320.18 259.772 323.122 256.552C353.555 307.888 430.237 445.428 379.759 444.876Z" fill="#1D2453"/>
<path d="M307.491 1102.86H210.674C210.674 1102.86 208.375 1088.14 213.432 1076.92C218.305 1066.15 225.844 1061.28 224.006 1048.3C230.166 1054.65 240.188 1061.74 254.163 1059.9C255.91 1062.66 265.197 1077.56 270.989 1081.7C277.333 1086.12 305.56 1084.46 307.491 1102.86Z" fill="#1B2251"/>
<path d="M515.286 1102.86H418.468C418.468 1102.86 414.882 1087.4 421.226 1076.92C426.835 1067.62 424.72 1062.29 420.491 1054.65C424.904 1056.49 430.513 1058.06 436.765 1057.69C441.546 1057.41 446.695 1055.2 451.2 1052.63C455.338 1057.41 473.175 1077.65 478.784 1081.61C485.128 1086.12 513.355 1084.46 515.286 1102.86Z" fill="#1B2251"/>
<path d="M599.047 388.204L504.804 510.748L512.527 516.084L607.782 393.54L599.047 388.204Z" fill="#C643DB"/>
<path d="M607.782 393.54H703.404L603.368 516.084H512.527L607.782 393.54Z" fill="#7F22BA"/>
<path d="M599.047 388.204H693.934L699.266 393.54H607.782L599.047 388.204Z" fill="#B1C9F6"/>
<path d="M601.529 389.676H695.681L697.244 388.204H599.047L601.529 389.676Z" fill="#C643DB"/>
<path d="M588.198 467.876C587.922 463 581.486 463.184 576.613 463.184C568.613 463.184 555.925 462.632 548.661 459.78C548.661 459.78 572.015 459.412 567.05 452.052C566.131 450.672 554.546 451.684 541.582 451.684C536.249 451.684 523.101 458.952 523.836 459.32C514.458 458.124 505.907 456.284 503.149 455.64C496.713 452.144 489.081 447.912 480.898 443.312C461.222 432.272 438.696 418.748 423.341 407.524C414.515 401.084 407.803 395.472 405.412 391.332C401.734 385.076 397.689 375.14 393.183 362.996C390.885 356.556 388.402 349.564 385.92 342.204C381.598 329.968 377.185 316.72 372.68 303.472C364.497 279.276 355.854 254.988 347.487 236.22C342.062 224.444 336.913 214.692 331.948 208.712C327.995 203.928 324.225 201.444 320.639 201.996C320.088 202.18 319.628 202.272 319.168 202.456C319.168 202.456 298.205 208.252 297.929 250.48C297.745 252.78 297.929 255.264 298.113 257.932C298.389 265.384 299.86 274.4 302.066 284.244C305.56 300.804 311.353 320.032 318.616 339.536C320.639 344.78 322.662 350.116 324.869 355.544C340.591 394.552 360.819 430.892 377.829 443.312C378.564 443.864 379.116 444.324 379.851 444.784C386.931 449.292 397.413 453.8 409.55 458.032C426.743 463.828 447.063 469.072 465.268 473.488H465.452C476.025 475.788 485.771 477.996 493.954 479.56C493.954 479.56 495.334 479.928 497.632 480.388C498 480.48 498.368 480.572 498.736 480.572C506.459 482.504 522.273 486.552 537.26 492.348C558.224 500.628 573.578 490.324 580.566 483.056C584.888 478.548 588.381 472.384 588.198 467.876Z" fill="#FFA5A2"/>
<path d="M347.487 236.404C319.536 228.676 297.929 250.572 297.929 250.572C298.297 208.436 319.26 202.64 319.26 202.64C327.627 199.144 337.373 213.772 347.487 236.404Z" fill="#313B75"/>
<path d="M1013.44 752.064C1002.04 741.76 1011.42 717.472 1007.1 712.688C1006.36 711.86 1004.71 710.664 1002.68 709.1C999.833 720.968 994.592 733.112 986.961 744.612C961.032 783.712 917.175 800.18 889.04 781.412C861.64 763.196 859.25 718.392 883.063 680.028C883.707 678.924 884.442 677.912 885.086 676.808C892.626 665.4 901.728 655.924 911.566 648.748L911.658 648.656C910.371 647.92 909.451 647.368 908.808 647.184C902.74 644.976 883.983 663.1 870.007 656.476C856.124 649.944 868.812 623.356 896.303 620.228C913.037 618.296 930.782 626.944 942 634.028C946.965 632.832 951.93 632.188 956.803 632.28C956.987 632.28 957.171 632.28 957.355 632.28C954.229 621.884 955.608 610.292 962.044 600.632C964.25 597.32 966.825 594.56 969.767 592.168C969.767 592.168 969.767 592.076 969.675 592.076C966.457 586.096 966.549 578.46 970.595 572.388C976.479 563.556 988.34 561.164 997.075 567.052C1003.42 571.284 1006.45 578.644 1005.44 585.728C1008.48 586.74 1011.42 588.212 1014.27 590.052C1016.75 591.708 1018.96 593.64 1020.89 595.664C1026.96 592.076 1034.86 592.076 1041.12 596.216C1049.94 602.104 1052.33 613.972 1046.45 622.712C1042.59 628.508 1036.15 631.452 1029.72 631.268C1028.7 635.04 1027.05 638.812 1024.75 642.216C1018.68 651.416 1009.21 657.028 999.189 658.592C1001.67 663.744 1003.42 669.448 1004.43 675.428C1015.37 682.88 1031.83 696.404 1036.79 713.608C1044.43 740.288 1024.84 762.276 1013.44 752.064Z" fill="#F9795A"/>
<path d="M882.88 680.028C883.523 678.924 884.259 677.912 884.902 676.808C892.442 665.4 901.544 655.924 911.382 648.748C914.325 648.564 917.267 649.116 918.278 652.152C920.669 658.776 898.51 679.568 900.349 691.344C901.912 700.084 889.132 687.388 882.88 680.028Z" fill="#F24B46"/>
<path d="M973.077 641.848C969.583 640.192 962.319 636.42 956.711 632.28C956.895 632.28 957.079 632.28 957.262 632.28C954.136 621.884 955.516 610.292 961.952 600.632C964.159 597.32 966.733 594.56 969.675 592.168C969.675 592.168 969.675 592.076 969.583 592.076C969.951 592.26 970.135 592.72 969.951 593.824C969.216 597.964 958.918 626.76 975.744 639.18C975.744 639.088 978.226 644.24 973.077 641.848Z" fill="#F24B46"/>
<path d="M1025.12 603.484C1025.12 603.484 1034.86 600.54 1038.36 607.256C1041.76 613.972 1035.14 621.976 1029.9 620.688C1029.9 620.688 1029.44 611.212 1025.12 603.484Z" fill="#F24B46"/>
<path d="M997.534 583.336C997.534 583.336 993.581 572.664 986.409 573.216C979.237 573.768 980.892 585.36 980.892 585.36C980.892 585.36 990.638 582.048 997.534 583.336Z" fill="#F24B46"/>
<path d="M775.764 689.136C775.764 689.136 751.215 657.488 751.031 631.636C750.847 605.784 751.583 597.228 755.904 598.424C760.226 599.62 779.626 613.972 786.522 628.324C793.51 642.676 805.738 680.212 806.014 685.272C806.29 690.424 775.764 689.136 775.764 689.136Z" fill="#FD8857"/>
<path d="M777.051 679.016C777.051 679.016 761.421 657.12 760.777 639.64C760.226 622.16 760.501 616.364 763.168 617.284C765.834 618.112 778.063 628.232 782.568 638.076C787.165 647.92 795.348 673.496 795.624 676.992C795.9 680.488 777.051 679.016 777.051 679.016Z" fill="#C643DB"/>
<path d="M815.3 675.98C815.3 675.98 803.531 633.108 808.22 621.424C812.91 609.74 836.999 617.56 839.666 625.748C842.424 633.936 840.677 668.712 840.677 668.712L815.3 675.98Z" fill="#FD8857"/>
<path d="M818.427 626.668C818.427 626.668 816.772 660.616 822.656 673.864L834.057 670.644C834.057 670.644 835.804 632.74 834.333 630.164C832.862 627.588 818.427 626.668 818.427 626.668Z" fill="#C643DB"/>
<path d="M807.575 623.816C807.575 623.816 847.111 650.036 850.329 647.276C853.547 644.516 841.503 617.928 836.814 615.536C832.124 613.144 807.299 608.268 807.575 623.816Z" fill="#FD8857"/>
<path d="M734.809 1102.74H1274.16V657.735H734.809V1102.74Z" fill="#242E6C"/>
<path d="M1543.78 657.672H1004.43V1102.68H1543.78V657.672Z" fill="#1B2251"/>
<path d="M1543.78 657.672V962.928L1004.43 1102.68V657.672H1543.78Z" fill="#354077"/>
<path d="M1004.43 657.672L1111.18 774.788H1643.35L1543.78 657.672H1004.43Z" fill="#242E6C"/>
<path d="M735.125 989.884H820.541L813.002 965.78L820.541 948.576H735.125V989.884Z" fill="#7831BB"/>
<path d="M1543.96 1066.15H1458.45L1465.99 1042.14L1458.45 1024.94H1543.96V1066.15Z" fill="#B1C9F6"/>
<path d="M1004.43 707.996L890.786 821.8H735.125V657.672H1004.43V707.996Z" fill="#1B2251"/>
<path d="M734.757 657.672L613.482 774.788H883.339L1004.43 657.672H734.757Z" fill="#242E6C"/>
<path d="M1168.09 907.636V874.148H1181.88C1184.92 874.148 1187.68 874.516 1190.16 875.344C1192.64 876.08 1194.85 877.184 1196.59 878.656C1198.34 880.036 1199.81 881.784 1200.82 883.716C1201.83 885.648 1202.29 887.856 1202.29 890.248V891.812C1202.29 894.204 1201.83 896.412 1200.82 898.344C1199.81 900.276 1198.43 902.024 1196.59 903.404C1194.75 904.784 1192.64 905.888 1190.07 906.624C1187.58 907.36 1184.73 907.82 1181.7 907.82H1168.09V907.636ZM1177.38 879.76V902.116H1181.79C1185.47 902.116 1188.23 901.196 1190.16 899.448C1192.09 897.608 1193.01 895.032 1193.01 891.72V890.156C1193.01 886.752 1192.09 884.176 1190.16 882.428C1188.32 880.68 1185.56 879.76 1181.88 879.76H1177.38V879.76Z" fill="#EFECEA"/>
<path d="M1245.78 891.628C1245.78 894.204 1245.32 896.504 1244.4 898.528C1243.49 900.552 1242.2 902.3 1240.54 903.68C1238.89 905.06 1236.87 906.164 1234.57 906.9C1232.27 907.636 1229.69 908.004 1226.84 908.004C1223.99 908.004 1221.51 907.636 1219.12 906.9C1216.82 906.164 1214.8 905.06 1213.05 903.68C1211.4 902.3 1210.02 900.552 1209.1 898.528C1208.18 896.504 1207.72 894.204 1207.72 891.628V890.156C1207.72 887.58 1208.18 885.28 1209.1 883.256C1210.02 881.232 1211.3 879.484 1213.05 878.012C1214.71 876.54 1216.73 875.528 1219.03 874.7C1221.33 873.872 1223.9 873.596 1226.75 873.596C1229.6 873.596 1232.08 873.964 1234.47 874.7C1236.77 875.436 1238.8 876.54 1240.45 878.012C1242.11 879.484 1243.39 881.14 1244.4 883.256C1245.32 885.28 1245.78 887.58 1245.78 890.156V891.628V891.628ZM1236.41 890.156C1236.41 886.66 1235.58 883.992 1233.92 882.152C1232.27 880.312 1229.88 879.392 1226.75 879.392C1223.63 879.392 1221.23 880.312 1219.58 882.152C1217.92 883.992 1217.1 886.66 1217.1 890.156V891.72C1217.1 893.468 1217.28 895.032 1217.74 896.32C1218.2 897.7 1218.84 898.804 1219.67 899.724C1220.5 900.644 1221.51 901.288 1222.71 901.84C1223.9 902.3 1225.28 902.576 1226.84 902.576C1229.97 902.576 1232.36 901.656 1234.02 899.816C1235.67 897.976 1236.5 895.308 1236.5 891.812V890.156H1236.41Z" fill="#EFECEA"/>
<path d="M1288.81 907.636H1279.62L1261.69 885.556V907.636H1252.5V874.148H1261.69L1279.62 896.228V874.148H1288.81V907.636Z" fill="#EFECEA"/>
<path d="M1322.65 900.736H1306.47L1303.43 907.636H1293.6L1310.24 874.148H1318.79L1335.52 907.636H1325.68L1322.65 900.736ZM1308.95 895.124H1320.17L1314.56 882.612L1308.95 895.124Z" fill="#EFECEA"/>
<path d="M1369.73 879.76H1356.03V907.636H1346.83V879.76H1333.32V874.148H1369.73V879.76Z" fill="#EFECEA"/>
<path d="M1401.91 893.1H1384.25V902.116H1405.03V907.636H1375.06V874.148H1404.94V879.76H1384.25V887.764H1401.91V893.1Z" fill="#EFECEA"/>
<path d="M601.621 985.468L591.783 987.4C580.106 989.7 568.705 981.972 566.499 970.288L552.063 895.86C550.041 885.188 556.201 874.884 566.131 871.388C566.039 871.112 565.947 870.836 565.947 870.56L565.12 866.144C564.568 863.108 566.499 860.164 569.533 859.52L573.946 858.692C576.98 858.14 579.923 860.072 580.566 863.108L581.394 867.524C581.486 867.708 581.486 867.892 581.486 868.168V868.26C592.243 867.432 602.265 874.792 604.38 885.648L618.815 960.076C620.93 971.852 613.298 983.168 601.621 985.468Z" fill="#D5E2FA"/>
<path d="M605.002 890.134L552.831 900.269L562.75 951.388L614.921 941.253L605.002 890.134Z" fill="#F24B46"/>
<path d="M581.394 868.26L566.131 871.388C566.039 871.112 565.947 870.836 565.947 870.56L565.12 866.144C564.568 863.108 566.499 860.164 569.533 859.52L573.946 858.692C576.98 858.14 579.923 860.072 580.566 863.108L581.394 867.524C581.302 867.8 581.394 867.984 581.394 868.26Z" fill="#F24B46"/>
<path d="M866.237 849.492C866.237 849.492 859.801 858.6 853.825 858.692C847.941 858.784 838.838 854.46 838.838 854.46C838.838 854.46 833.413 842.316 837.091 837.532C837.091 837.532 840.769 835.876 844.631 838.82C845.274 839.28 846.01 839.924 846.653 840.752C847.573 841.856 848.676 842.5 849.78 842.868C854.009 844.156 859.066 841.12 860.905 844.064C862.008 845.72 863.203 847.008 864.215 847.928C865.41 848.94 866.237 849.492 866.237 849.492Z" fill="#C643DB"/>
<path d="M781.925 915.18C781.925 915.18 804.819 859.796 845.918 858.692C845.918 858.692 883.891 862.924 886.006 915.18H781.925Z" fill="#C643DB"/>
<path d="M834.7 860.348C834.7 860.348 851.158 864.028 856.307 861.82C856.307 861.82 857.043 854.92 850.147 855.932C845.366 856.576 842.332 854.276 840.493 853.356C837.827 852.068 833.965 857.496 834.7 860.348Z" fill="#FD8857"/>
<path d="M849.044 849.952C848.033 850.78 844.723 838.82 844.723 838.82C845.366 839.28 846.102 839.924 846.745 840.752C847.665 841.856 848.768 842.5 849.871 842.868C849.871 843.236 850.055 849.216 849.044 849.952Z" fill="#6615B2"/>
<path d="M864.215 847.928C863.939 848.02 856.4 852.62 855.296 852.62C854.285 852.62 860.905 844.064 860.905 844.064C862.1 845.72 863.295 847.008 864.215 847.928Z" fill="#6615B2"/>
<path d="M804.267 899.724C803.807 899.356 820.449 875.252 825.046 875.068C829.643 874.884 839.849 880.312 847.297 881.048C854.744 881.784 861.916 879.668 863.387 884.084C864.766 888.5 868.628 904.048 866.329 906.532C863.847 909.016 813.369 907.452 804.267 899.724Z" fill="#7F22BA"/>
<path d="M611.643 937.168C611 938.364 610.08 939.376 609.069 940.112C608.425 940.48 607.782 940.848 607.138 941.032C605.207 941.676 603.092 941.584 601.162 940.572L498.644 888.5C494.782 886.568 493.219 881.784 495.242 877.92C496.253 875.988 497.908 874.608 499.839 874.056C501.77 873.412 503.884 873.504 505.815 874.516L608.333 926.588C612.103 928.52 613.574 933.304 611.643 937.168Z" fill="#7F22BA"/>
<path d="M532.571 905.796L526.135 884.912L509.677 876.448L519.607 899.172L532.571 905.796Z" fill="#C0D3F8"/>
<path d="M557.672 918.492L544.616 911.868L534.686 889.236L551.144 897.608L557.672 918.492Z" fill="#C0D3F8"/>
<path d="M582.681 931.188L569.625 924.564L559.695 901.932L576.153 910.304L582.681 931.188Z" fill="#C0D3F8"/>
<path d="M609.069 940.112C608.425 940.48 607.782 940.848 607.138 941.032C605.207 941.676 603.092 941.584 601.162 940.572L595.185 937.536L585.255 914.904L601.805 923.276L609.069 940.112Z" fill="#C0D3F8"/>
<path d="M495.15 877.92C495.15 877.92 493.035 866.788 484.024 863.476C484.024 863.476 485.128 864.764 480.714 866.144C476.393 867.524 477.588 870.56 476.117 871.94C476.117 871.94 482.369 880.22 495.15 877.92Z" fill="#C0D3F8"/>
<path d="M493.403 879.392L493.127 879.3C492.391 878.932 492.115 878.104 492.483 877.368L493.77 874.884C494.138 874.148 494.966 873.872 495.701 874.24L495.977 874.332C496.713 874.7 496.989 875.528 496.621 876.264L495.334 878.748C494.966 879.484 494.138 879.76 493.403 879.392Z" fill="#1D2453"/>
<path d="M611.184 936.892C611.184 936.892 621.389 932.016 629.389 937.352C629.389 937.352 627.734 937.26 629.205 941.584C630.676 945.908 627.458 946.644 627.274 948.76C627.366 948.76 616.884 948.576 611.184 936.892Z" fill="#C0D3F8"/>
<path d="M611.184 939.284C611.919 939.652 612.839 939.376 613.298 938.64L614.493 936.34C614.861 935.604 614.585 934.684 613.85 934.224C613.114 933.856 612.195 934.132 611.735 934.868L610.54 937.168C610.172 937.996 610.448 938.916 611.184 939.284Z" fill="#1D2453"/>
<path d="M744.319 937.996C743.124 938.732 741.837 939.008 740.549 939.008C739.814 939.008 739.078 938.916 738.435 938.732C736.504 938.18 734.757 936.984 733.654 935.052L676.096 835.508C673.89 831.736 675.177 826.952 678.947 824.744C680.786 823.64 682.992 823.456 684.923 823.916C686.854 824.468 688.601 825.664 689.704 827.596L747.261 927.14C749.376 931.004 748.089 935.788 744.319 937.996Z" fill="#FD8857"/>
<path d="M695.129 868.536L701.105 847.468L691.819 831.46L687.773 855.932L695.129 868.536Z" fill="#F24B46"/>
<path d="M709.196 892.824L701.841 880.22L705.886 855.748L715.173 871.848L709.196 892.824Z" fill="#F24B46"/>
<path d="M723.264 917.112L715.908 904.508L719.954 880.036L729.148 896.136L723.264 917.112Z" fill="#F24B46"/>
<path d="M740.55 939.008C739.814 939.008 739.078 938.916 738.435 938.732C736.504 938.18 734.757 936.984 733.654 935.052L730.252 929.164L734.297 904.692L743.584 920.7L740.55 939.008Z" fill="#6615B2"/>
<path d="M678.855 824.836C678.855 824.836 683.176 814.348 677.384 806.62C677.384 806.62 677.568 808.276 673.154 807.08C668.741 805.884 668.189 809.104 666.166 809.38C666.166 809.38 666.902 819.776 678.855 824.836Z" fill="#FD8857"/>
<path d="M676.648 825.112L676.556 824.836C676.188 824.192 676.372 823.272 677.108 822.904L679.59 821.524C680.234 821.156 681.153 821.34 681.521 822.076L681.613 822.352C681.981 822.996 681.797 823.916 681.061 824.284L678.579 825.664C677.843 825.94 677.016 825.756 676.648 825.112Z" fill="#F24B46"/>
<path d="M744.044 937.536C744.044 937.536 755.261 939.008 759.122 947.84C759.122 947.84 757.743 946.828 756.64 951.244C755.536 955.66 752.41 954.556 751.123 956.212C751.123 956.212 742.481 950.416 744.044 937.536Z" fill="#7831BB"/>
<path d="M742.664 939.376L742.756 939.652C743.124 940.296 744.043 940.572 744.687 940.204L747.169 938.824C747.813 938.456 748.089 937.536 747.721 936.892L747.629 936.616C747.261 935.972 746.342 935.696 745.698 936.064L743.216 937.444C742.572 937.812 742.296 938.732 742.664 939.376Z" fill="#363F78"/>
<path d="M558.04 965.872C556.844 965.228 555.833 964.308 555.097 963.204C554.73 962.56 554.362 961.916 554.178 961.272C553.626 959.34 553.718 957.224 554.73 955.292L608.425 853.632C610.448 849.768 615.229 848.296 618.999 850.32C620.93 851.332 622.217 852.988 622.861 854.92C623.412 856.852 623.32 858.968 622.309 860.9L568.613 962.56C566.591 966.424 561.809 967.896 558.04 965.872Z" fill="#1D2453"/>
<path d="M590.68 887.304L611.643 881.14L620.286 864.764L597.484 874.424L590.68 887.304Z" fill="#7F22BA"/>
<path d="M577.532 912.144L584.336 899.172L607.138 889.604L598.495 905.98L577.532 912.144Z" fill="#7F22BA"/>
<path d="M564.384 936.984L571.28 924.012L594.082 914.444L585.439 930.82L564.384 936.984Z" fill="#7F22BA"/>
<path d="M555.097 963.204C554.73 962.56 554.362 961.916 554.178 961.272C553.626 959.34 553.718 957.224 554.73 955.292L557.856 949.312L580.658 939.744L572.015 956.12L555.097 963.204Z" fill="#7F22BA"/>
<path d="M619.091 850.32C619.091 850.32 630.308 848.388 633.71 839.464C633.71 839.464 632.423 840.476 631.136 836.152C629.848 831.736 626.814 833.024 625.435 831.46C625.343 831.368 616.976 837.532 619.091 850.32Z" fill="#7F22BA"/>
<path d="M617.712 848.388C618.08 847.652 619.091 847.376 619.826 847.744L622.033 848.94C622.769 849.308 623.044 850.32 622.677 851.056C622.309 851.792 621.298 852.068 620.562 851.7L618.355 850.504C617.528 850.136 617.252 849.124 617.712 848.388Z" fill="#1D2453"/>
<path d="M558.224 965.412C558.224 965.412 562.913 975.716 557.488 983.628C557.488 983.628 557.58 981.972 553.259 983.352C548.937 984.732 548.202 981.512 546.179 981.328C546.179 981.42 546.455 970.932 558.224 965.412Z" fill="#1D2453"/>
<path d="M555.925 965.228L555.833 965.504C555.465 966.148 555.741 967.068 556.385 967.436L558.867 968.724C559.511 969.092 560.43 968.816 560.798 968.172L560.89 967.896C561.258 967.252 560.982 966.332 560.338 965.964L557.856 964.676C557.212 964.308 556.293 964.584 555.925 965.228Z" fill="#1D2453"/>
<path d="M665.339 873.412C665.339 873.412 670.028 880.036 674.35 880.128C678.671 880.22 685.199 877.092 685.199 877.092C685.199 877.092 689.153 868.26 686.486 864.856C686.486 864.856 683.82 863.66 680.97 865.776C680.51 866.144 679.958 866.604 679.498 867.156C678.855 867.984 678.027 868.444 677.2 868.72C674.166 869.64 670.488 867.432 669.109 869.548C668.281 870.744 667.454 871.664 666.718 872.4C665.891 873.044 665.339 873.412 665.339 873.412Z" fill="#C0D3F8"/>
<path d="M726.482 921.16C726.482 921.16 709.932 880.956 680.05 880.22C680.05 880.22 652.467 883.256 650.995 921.16H726.482Z" fill="#C0D3F8"/>
<path d="M688.233 881.416C688.233 881.416 676.28 884.084 672.603 882.52C672.603 882.52 672.051 877.552 677.108 878.196C680.602 878.656 682.808 877 684.096 876.356C685.934 875.344 688.693 879.3 688.233 881.416Z" fill="white"/>
<path d="M677.843 873.78C678.579 874.332 680.969 865.684 680.969 865.684C680.51 866.052 679.958 866.512 679.498 867.064C678.855 867.892 678.027 868.352 677.2 868.628C677.2 868.904 677.108 873.228 677.843 873.78Z" fill="#B1C9F6"/>
<path d="M666.81 872.308C666.994 872.4 672.511 875.712 673.246 875.712C673.982 875.712 669.2 869.456 669.2 869.456C668.373 870.744 667.454 871.664 666.81 872.308Z" fill="#B1C9F6"/>
<path d="M710.3 909.936C710.575 909.66 698.531 892.18 695.221 892.088C691.911 891.996 684.463 895.952 679.039 896.412C673.614 896.964 668.373 895.4 667.362 898.62C666.35 901.84 663.5 913.156 665.247 914.904C667.086 916.652 703.68 915.548 710.3 909.936Z" fill="#7F22BA"/>
<path d="M784.223 875.62C779.258 875.712 776.776 868.26 776.776 868.26L728.689 882.796C730.803 888.04 727.401 892.18 727.401 892.18C727.401 892.18 719.035 897.7 721.701 906.256L732.366 941.4C734.297 947.656 740.917 951.152 747.17 949.312L797.923 933.948C804.175 932.016 807.669 925.392 805.83 919.136L795.165 883.992C793.601 879.024 789.096 875.804 784.223 875.62Z" fill="#C0D3F8"/>
<path d="M723.907 881.232L726.758 890.8C727.769 894.296 741.009 893.284 756.18 888.684C771.351 884.084 782.844 877.552 781.832 874.056L778.982 864.488L723.907 881.232Z" fill="#FD8857"/>
<path d="M778.982 864.488C779.994 867.984 768.501 874.516 753.33 879.116C738.159 883.716 724.919 884.636 723.908 881.232C722.896 877.736 734.389 871.204 749.56 866.604C764.731 862.004 777.971 861.084 778.982 864.488Z" fill="#F24B46"/>
<path d="M655.225 894.664C651.731 893.008 652.65 886.936 652.65 886.936L614.218 880.312C613.85 884.728 610.08 886.292 610.08 886.292C610.08 886.292 602.357 887.304 601.162 894.112L596.381 922.264C595.553 927.232 598.863 932.016 603.92 932.844L644.467 939.744C649.432 940.572 654.214 937.26 655.041 932.2L659.822 904.048C660.466 900.368 658.535 896.596 655.225 894.664Z" fill="#C643DB"/>
<path d="M611.368 877.644L610.08 885.28C609.621 888.04 619.091 891.996 631.227 894.02C643.364 896.136 653.662 895.584 654.122 892.824L655.409 885.188L611.368 877.644Z" fill="#242E6C"/>
<path d="M655.409 885.188C654.949 887.948 644.743 888.5 632.515 886.384C620.378 884.268 610.908 880.404 611.367 877.644C611.827 874.884 622.033 874.332 634.262 876.448C646.398 878.472 655.869 882.428 655.409 885.188Z" fill="#FD8857"/>
<path d="M532.643 1102.66H770.871V906.058H532.643V1102.66Z" fill="#F9795A"/>
<path d="M651.839 1102.66H890.068V906.058H651.839V1102.66Z" fill="#F24B46"/>
<path d="M651.731 906.164H890.603V1040.76L651.731 1102.68V906.164Z" fill="#FD8857"/>
<path d="M651.731 906.164L698.899 957.868H934L890.051 906.164H651.731Z" fill="#F9795A"/>
<path d="M532.755 1052.81H570.544L567.234 1042.23L570.544 1034.6H532.755V1052.81Z" fill="#EB3668"/>
<path d="M651.731 928.336L601.529 978.568H532.755V906.164H651.731V928.336Z" fill="#F24B46"/>
<path d="M532.663 906.163L479.06 957.867H598.311L651.731 906.163H532.663Z" fill="#F9795A"/>
<path d="M696.968 1016.66V993.379H705.978C707.909 993.379 709.748 993.655 711.403 994.207C713.058 994.759 714.437 995.495 715.632 996.507C716.828 997.519 717.747 998.623 718.391 1000C719.034 1001.38 719.402 1002.86 719.402 1004.51V1005.52C719.402 1007.18 719.034 1008.74 718.391 1010.03C717.747 1011.41 716.828 1012.61 715.632 1013.53C714.437 1014.54 713.058 1015.28 711.403 1015.83C709.748 1016.38 707.909 1016.66 705.978 1016.66H696.968V1016.66ZM702.944 997.243V1012.79H705.886C708.277 1012.79 710.116 1012.15 711.311 1010.95C712.598 1009.66 713.15 1007.92 713.15 1005.62V1004.51C713.15 1002.12 712.506 1000.37 711.311 999.083C710.116 997.887 708.277 997.243 705.886 997.243H702.944Z" fill="#242E6C"/>
<path d="M747.721 1005.52C747.721 1007.27 747.445 1008.93 746.802 1010.31C746.158 1011.69 745.331 1012.88 744.227 1013.9C743.124 1014.91 741.837 1015.64 740.274 1016.2C738.711 1016.75 737.056 1017.02 735.217 1017.02C733.378 1017.02 731.723 1016.75 730.16 1016.2C728.597 1015.64 727.309 1014.91 726.206 1013.9C725.103 1012.88 724.275 1011.69 723.632 1010.31C722.988 1008.93 722.712 1007.27 722.712 1005.52V1004.51C722.712 1002.76 722.988 1001.11 723.632 999.728C724.275 998.348 725.103 997.06 726.206 996.14C727.309 995.128 728.597 994.392 730.16 993.84C731.723 993.288 733.378 993.012 735.217 993.012C737.056 993.012 738.711 993.288 740.274 993.84C741.837 994.392 743.124 995.128 744.227 996.14C745.331 997.152 746.158 998.348 746.802 999.728C747.445 1001.11 747.721 1002.76 747.721 1004.51V1005.52ZM741.653 1004.51C741.653 1002.03 741.101 1000.19 739.998 998.9C738.894 997.612 737.331 996.968 735.309 996.968C733.286 996.968 731.723 997.612 730.619 998.9C729.516 1000.19 728.964 1002.03 728.964 1004.51V1005.52C728.964 1006.72 729.148 1007.82 729.424 1008.74C729.7 1009.66 730.16 1010.49 730.711 1011.14C731.263 1011.78 731.907 1012.24 732.734 1012.61C733.562 1012.98 734.389 1013.07 735.493 1013.07C737.515 1013.07 739.078 1012.42 740.182 1011.14C741.285 1009.85 741.837 1008.01 741.837 1005.52V1004.51H741.653Z" fill="#242E6C"/>
<path d="M775.948 1016.66H769.88L758.111 1001.29V1016.66H752.043V993.38H758.111L769.88 1008.74V993.38H775.856V1016.66H775.948Z" fill="#242E6C"/>
<path d="M798.107 1011.87H787.533L785.51 1016.66H779.074L790.016 993.38H795.624L806.566 1016.66H800.13L798.107 1011.87ZM789.188 1008.01H796.544L792.866 999.268L789.188 1008.01Z" fill="#242E6C"/>
<path d="M828.908 997.244H819.898V1016.66H813.829V997.244H805.002V993.38H828.816V997.244H828.908Z" fill="#242E6C"/>
<path d="M849.963 1006.54H838.378V1012.79H851.986V1016.66H832.402V993.38H851.986V997.244H838.47V1002.76H850.055V1006.54H849.963Z" fill="#242E6C"/>
<path d="M194.032 1063.76C194.032 1063.76 146.313 820.236 64.9417 830.264C-16.4291 840.292 194.032 1063.76 194.032 1063.76Z" fill="url(#paint1_linear)"/>
<path d="M158.633 1052.54C158.633 1052.54 83.4225 962.744 16.5789 989.424C-50.2648 1016.1 111.282 1009.48 158.633 1052.54Z" fill="url(#paint2_linear)"/>
<path d="M1560.51 960.996C1560.51 960.996 1590.39 795.304 1616.14 824.008C1641.88 852.62 1560.51 960.996 1560.51 960.996Z" fill="url(#paint3_linear)"/>
<path d="M1571.45 975.256C1571.45 975.256 1622.85 893.652 1640.96 920.424C1659.07 947.104 1571.45 975.256 1571.45 975.256Z" fill="url(#paint4_linear)"/>
<defs>
<linearGradient id="paint0_linear" x1="53.5924" y1="940.64" x2="1856.85" y2="940.64" gradientUnits="userSpaceOnUse">
<stop stop-color="#C643DB"/>
<stop offset="1" stop-color="#6615B2"/>
</linearGradient>
<linearGradient id="paint1_linear" x1="46.228" y1="946.889" x2="194.045" y2="946.889" gradientUnits="userSpaceOnUse">
<stop stop-color="#C643DB"/>
<stop offset="1" stop-color="#6615B2"/>
</linearGradient>
<linearGradient id="paint2_linear" x1="0.580517" y1="1018.48" x2="158.616" y2="1018.48" gradientUnits="userSpaceOnUse">
<stop stop-color="#C643DB"/>
<stop offset="1" stop-color="#6615B2"/>
</linearGradient>
<linearGradient id="paint3_linear" x1="1560.49" y1="890.797" x2="1621.16" y2="890.797" gradientUnits="userSpaceOnUse">
<stop stop-color="#C643DB"/>
<stop offset="1" stop-color="#6615B2"/>
</linearGradient>
<linearGradient id="paint4_linear" x1="1571.44" y1="945.093" x2="1643.39" y2="945.093" gradientUnits="userSpaceOnUse">
<stop stop-color="#C643DB"/>
<stop offset="1" stop-color="#6615B2"/>
</linearGradient>
</defs>
</svg>
