<svg width="388" height="90" viewBox="0 0 388 90" fill="none" xmlns="http://www.w3.org/2000/svg">
<g clip-path="url(#clip0)">
<path d="M48.5808 1.79276L95.2001 35.5752L77.2246 90L19.4952 89.856L1.79266 35.3412L48.5808 1.79276Z" fill="url(#paint0_linear)"/>
<path fill-rule="evenodd" clip-rule="evenodd" d="M60.4849 42.525C62.8254 42.525 64.7223 44.4132 64.7223 46.7424C64.7223 49.0734 62.8254 50.9616 60.4849 50.9616C58.1443 50.9616 56.2456 49.0734 56.2456 46.7424C56.2456 44.4132 58.1443 42.525 60.4849 42.525Z" fill="white"/>
<path d="M41.8968 28.9152H47.0773V60.4656H64.4798V64.8H41.8968V28.9152Z" fill="white"/>
<path d="M148.644 27V64.8H141.476L122.669 41.85V64.8H114.047V27H121.268L140.021 49.95V27H148.644ZM170.771 65.232C167.718 65.232 164.969 64.602 162.526 63.342C160.119 62.046 158.233 60.264 156.868 57.996C155.503 55.728 154.82 53.154 154.82 50.274C154.82 47.394 155.503 44.82 156.868 42.552C158.233 40.284 160.119 38.52 162.526 37.26C164.969 35.964 167.718 35.316 170.771 35.316C173.825 35.316 176.555 35.964 178.962 37.26C181.37 38.52 183.256 40.284 184.622 42.552C185.987 44.82 186.669 47.394 186.669 50.274C186.669 53.154 185.987 55.728 184.622 57.996C183.256 60.264 181.37 62.046 178.962 63.342C176.555 64.602 173.825 65.232 170.771 65.232ZM170.771 58.32C172.927 58.32 174.687 57.6 176.052 56.16C177.453 54.684 178.154 52.722 178.154 50.274C178.154 47.826 177.453 45.882 176.052 44.442C174.687 42.966 172.927 42.228 170.771 42.228C168.616 42.228 166.837 42.966 165.436 44.442C164.035 45.882 163.335 47.826 163.335 50.274C163.335 52.722 164.035 54.684 165.436 56.16C166.837 57.6 168.616 58.32 170.771 58.32ZM209.91 35.316C213.502 35.316 216.394 36.396 218.586 38.556C220.813 40.716 221.927 43.92 221.927 48.168V64.8H213.52V49.464C213.52 47.16 213.017 45.45 212.011 44.334C211.006 43.182 209.551 42.606 207.646 42.606C205.527 42.606 203.838 43.272 202.581 44.604C201.324 45.9 200.695 47.844 200.695 50.436V64.8H192.288V35.748H200.318V39.15C201.431 37.926 202.814 36.99 204.467 36.342C206.12 35.658 207.934 35.316 209.91 35.316ZM246.468 27C249.809 27 252.701 27.558 255.144 28.674C257.623 29.79 259.527 31.374 260.856 33.426C262.186 35.478 262.85 37.908 262.85 40.716C262.85 43.488 262.186 45.918 260.856 48.006C259.527 50.058 257.623 51.642 255.144 52.758C252.701 53.838 249.809 54.378 246.468 54.378H238.87V64.8H230.14V27H246.468ZM245.983 47.25C248.606 47.25 250.6 46.692 251.965 45.576C253.33 44.424 254.012 42.804 254.012 40.716C254.012 38.592 253.33 36.972 251.965 35.856C250.6 34.704 248.606 34.128 245.983 34.128H238.87V47.25H245.983ZM276.52 39.582C277.526 38.178 278.873 37.116 280.562 36.396C282.286 35.676 284.262 35.316 286.49 35.316V43.092C285.555 43.02 284.927 42.984 284.603 42.984C282.196 42.984 280.31 43.668 278.945 45.036C277.58 46.368 276.897 48.384 276.897 51.084V64.8H268.491V35.748H276.52V39.582ZM305.02 65.232C301.966 65.232 299.218 64.602 296.775 63.342C294.368 62.046 292.482 60.264 291.117 57.996C289.752 55.728 289.069 53.154 289.069 50.274C289.069 47.394 289.752 44.82 291.117 42.552C292.482 40.284 294.368 38.52 296.775 37.26C299.218 35.964 301.966 35.316 305.02 35.316C308.074 35.316 310.804 35.964 313.211 37.26C315.618 38.52 317.504 40.284 318.87 42.552C320.235 44.82 320.917 47.394 320.917 50.274C320.917 53.154 320.235 55.728 318.87 57.996C317.504 60.264 315.618 62.046 313.211 63.342C310.804 64.602 308.074 65.232 305.02 65.232ZM305.02 58.32C307.176 58.32 308.936 57.6 310.301 56.16C311.702 54.684 312.403 52.722 312.403 50.274C312.403 47.826 311.702 45.882 310.301 44.442C308.936 42.966 307.176 42.228 305.02 42.228C302.865 42.228 301.086 42.966 299.685 44.442C298.284 45.882 297.583 47.826 297.583 50.274C297.583 52.722 298.284 54.684 299.685 56.16C301.086 57.6 302.865 58.32 305.02 58.32ZM335.751 36.396H343.188V42.876H335.967V64.8H327.56V42.876H323.087V36.396H327.56V35.1C327.56 31.788 328.53 29.16 330.47 27.216C332.446 25.272 335.212 24.3 338.769 24.3C340.026 24.3 341.212 24.444 342.326 24.732C343.475 24.984 344.427 25.362 345.182 25.866L342.972 31.968C342.002 31.284 340.871 30.942 339.577 30.942C337.027 30.942 335.751 32.346 335.751 35.154V36.396ZM351.702 35.748H360.109V64.8H351.702V35.748ZM355.906 31.698C354.361 31.698 353.103 31.248 352.133 30.348C351.163 29.448 350.678 28.332 350.678 27C350.678 25.668 351.163 24.552 352.133 23.652C353.103 22.752 354.361 22.302 355.906 22.302C357.45 22.302 358.708 22.734 359.678 23.598C360.648 24.462 361.133 25.542 361.133 26.838C361.133 28.242 360.648 29.412 359.678 30.348C358.708 31.248 357.45 31.698 355.906 31.698ZM386.599 63.396C385.773 64.008 384.749 64.476 383.527 64.8C382.342 65.088 381.084 65.232 379.755 65.232C376.306 65.232 373.63 64.35 371.726 62.586C369.857 60.822 368.923 58.23 368.923 54.81V42.876H364.451V36.396H368.923V29.322H377.33V36.396H384.551V42.876H377.33V54.702C377.33 55.926 377.635 56.88 378.246 57.564C378.893 58.212 379.791 58.536 380.941 58.536C382.27 58.536 383.402 58.176 384.336 57.456L386.599 63.396Z" fill="#263A5D"/>
</g>
<defs>
<linearGradient id="paint0_linear" x1="1.79266" y1="1.79276" x2="95.2001" y2="1.79276" gradientUnits="userSpaceOnUse">
<stop stop-color="#5E2CED"/>
<stop offset="1" stop-color="#4E62BB"/>
</linearGradient>
<clipPath id="clip0">
<rect width="388" height="90" fill="white"/>
</clipPath>
</defs>
</svg>
