<svg width="839" height="992" viewBox="0 0 839 992" fill="none" xmlns="http://www.w3.org/2000/svg">
<path d="M657.2 607L670.4 619.2L667.3 633.8L649.6 630.6L644.4 617.5L657.2 607Z" fill="#DEC2A7"/>
<path d="M412.4 412L414.4 427.6L407.8 437.8L397.1 436.2L395.7 418.2L410.3 411L412.4 412Z" fill="#EACDB0"/>
<path d="M302.9 415.1L372.8 499.4L387.4 433.9L414.4 439.1L398.8 538L372.6 556.2L303 509.9L302.9 415.1Z" fill="#A1BDCC"/>
<path d="M360.5 607.9L364.2 762.6L337.4 962.5L315 962.7L298.6 778.8L265.7 595L360.5 607.9Z" fill="#8C9498"/>
<path d="M315.1 960L315.2 972.2L339.6 984L351.6 971.7L339.3 959.8L315.1 960Z" fill="#3A3029"/>
<path d="M238.8 965.9L258 982.3L253.2 991.9L217.5 984.2V965.9H238.8Z" fill="#3A3029"/>
<path d="M282.8 668.7L266.8 818.7L245.6 968.2L215.5 966.8L216.6 811.7L198.4 667.8L241 648L282.8 668.7Z" fill="#8C9498"/>
<path d="M221.3 403.8L279.9 392.8C279.9 392.8 319.8 418.5 350 496.1C380.8 575.1 376.4 696.2 376.4 696.2C376.4 696.2 215.2 698.8 188.8 699.4L204.2 532L221.3 403.8Z" fill="#A1BDCC"/>
<path d="M261.2 404.5C254.2 404.3 247.2 404 240.2 403.8C239.8 398.2 239.8 392.7 240.3 387.1C234.4 385.4 227.5 382.8 226.1 376.8C225.7 374.9 225.9 372.9 226.1 371C227 363 227.8 355.1 228.7 347.1C229 344.3 229.3 341.5 230.7 339.1C233 334.8 238 332.7 242.7 331.6C254.8 328.7 268.2 330.5 278.1 337.9C280.7 339.9 283.2 342.3 284.5 345.3C286.5 350 285.6 355.3 284.6 360.3C283.7 364.9 282.8 369.5 281.9 374.1C280.9 379.4 279.3 385.4 274.4 387.7C271.8 388.9 268.6 388.8 266.3 390.5C262.1 393.5 263.1 399.8 261.2 404.5Z" fill="#EACDB0"/>
<path d="M324.1 321.6C323.9 316.2 322.8 310.8 321.4 305.9C319 297.6 308.8 294.4 300.1 294.3C281.4 294.2 262.8 286.8 245 294.5C234.8 298.9 220.9 300.6 211.8 306.5C208 308.9 205.1 312.6 202.9 316.5C195.2 330.1 196.3 348.2 205.6 360.8C207.7 363.6 210.1 366.2 212.6 368.6C217.9 373.6 224.1 379.8 231 381.4C230.8 375.3 224.1 356.6 228.4 351.4C235.3 343.1 252.1 344.8 261.4 346.1C271.5 347.6 280.8 354.1 290.8 355C298 355.6 306.8 351.6 312.7 347.5C321.9 341.1 324.5 331.4 324.1 321.6Z" fill="#3A3029"/>
<path d="M263.7 403.9L320.9 534.4L343 696.4L261.1 698.1C261.1 698.1 270.5 578.1 267.1 562.4C263.7 546.7 257 514.2 249.7 477.6C248 469.2 235.8 404.6 235.7 404.9L263.7 403.9Z" fill="white"/>
<path d="M522.3 419.9L513.1 417.6L495.5 427.6L445.6 548.4L461.2 567.1L503.9 511.9L522.3 419.9Z" fill="#8AAD9F"/>
<path d="M598.9 959.7L599.9 969.3L582.5 981.3L572.3 972.9L580.6 962.1L598 950.1L598.9 959.7Z" fill="#514943"/>
<path d="M598.5 666.2L601.5 695.3L575.3 795.5L599.6 956.5L581.7 962.7L534.7 805.5L527.2 759.8L527.5 663L598.5 666.2Z" fill="#CAB5A1"/>
<path d="M461.2 698.7L498.8 968.4H515.8L518.9 795.5L550 674.2L461.2 698.7Z" fill="#CAB5A1"/>
<path d="M515.7 966.3V976L497.3 985.7L488 976L497.3 966.3H515.7Z" fill="#514943"/>
<path d="M602.4 583.4C592.7 527.1 577.7 472.5 572.2 415.1C557.8 415.1 538 408.4 523.1 412.4C523.1 412.4 522.8 412.5 522.4 412.6C517 414.2 512.2 417.2 508.6 422.6C508.6 422.7 508.5 422.7 508.5 422.8C503.2 428.6 497.1 437.6 491.4 451.5C476.8 486.9 418.5 695.1 417.5 749.3C417.7 749.3 417.9 749.4 418 749.4C430.3 753.2 443.6 756.1 457.6 758.2C498.4 764.4 544 764.3 581.1 763.7C586 763.6 637.9 765.3 637.2 762C624.3 702.8 612.7 643.2 602.4 583.4Z" fill="#8AAD9F"/>
<path d="M570 417.7L584.7 426.8L620.5 524.4L660 604.6L642.3 619.2L590.3 546.3L559.6 447.9L570 417.7Z" fill="#8AAD9F"/>
<path d="M498.4 325.9C498.4 325.9 487.3 334.9 492.5 368.3C497.7 401.7 494.6 423.5 494.6 423.5C494.6 423.5 506.1 428.7 514.4 423.5C522.7 418.3 525.9 417.3 522.7 403.7C519.6 390.2 513.3 325.6 513.3 325.6L498.4 325.9Z" fill="#9E6652"/>
<path d="M525.8 337.2C513.2 340.7 503.2 352.4 501.8 365.4C494.9 359 491.4 349 492.6 339.7C493.8 330.4 499.9 321.7 508.3 317.4C516.1 321.6 522.2 328.9 524.8 337.4L525.8 337.2Z" fill="#9E6652"/>
<path d="M500.1 354.1C506.6 319.5 549.7 325.5 562.1 353.5C569.1 369.4 567.5 400.5 547.7 405.7C547.4 408.8 547 414.5 544.7 416.5C542.2 418.7 534.2 416.6 531.1 415.9C530.2 415.7 529.3 415.5 528.7 414.8C527.9 414 527.8 411.9 527.8 409.6C525.5 409.4 523.2 409 520.8 408.2C510.8 404.9 503.5 395.6 500.5 385.5C497.4 375.4 498.1 364.5 500.1 354.1Z" fill="#EACDB0"/>
<path d="M509.2 317.2C509.2 317.2 505 335.9 529 341.1C552.9 346.3 568.5 365 564.4 384.8C560.3 404.6 542.6 419.2 551.9 424.4C561.3 429.6 595.6 424.4 595.6 424.4C595.6 424.4 616.4 354.6 588.3 324.4C560.2 294.3 519.6 293.3 509.2 317.2Z" fill="#9E6652"/>
<path d="M541.7 467.1C459.5 485 417.7 446.8 412.1 441.2C412.1 441.2 412 440.6 411.8 440.9C411.6 440.7 411.5 441.2 411.5 441.2C405.9 446.8 364.2 485.1 281.9 467.4C281.9 467.4 269.4 615.3 317.4 675.6C368.7 740 411.9 759.4 412.1 759.3C412.3 759.5 455.9 740.3 506.6 675.4C554.1 614.7 541.7 467.1 541.7 467.1Z" fill="#066598"/>
<path d="M529.7 482.3C455.1 498.2 417.2 464.3 412.1 459.2C412.1 459.2 412 458.7 411.8 458.9C411.6 458.7 411.5 459.2 411.5 459.2C406.4 464.2 368.6 498.3 293.9 482.5C293.9 482.5 282.6 614.2 326.1 667.9C372.6 725.2 411.8 746.1 412 745.9C412.2 746 451.8 725.5 497.8 667.7C540.9 613.8 529.7 482.3 529.7 482.3Z" fill="#4498C5"/>
<g opacity="0.06">
<g opacity="0.06">
<path opacity="0.06" d="M411.4 472.3C411.4 472.3 411.5 471.8 411.7 472C411.9 471.8 412 472.3 412 472.3C417.2 477.5 455.5 511.8 530.7 497.4C530.3 484 529.6 475.6 529.6 475.6C455 491.5 417.1 457.6 412 452.5C412 452.5 411.9 452 411.7 452.2C411.5 452 411.4 452.5 411.4 452.5C406.3 457.5 368.5 491.6 293.8 475.8C293.8 475.8 293.1 484.2 292.7 497.6C368 511.8 406.2 477.4 411.4 472.3Z" fill="black"/>
</g>
</g>
<g opacity="0.34">
<path opacity="0.34" d="M507.6 519C451.2 531.3 415.9 503.8 412 499.9C412 499.9 411.9 499.5 411.8 499.7C411.7 499.5 411.6 499.9 411.6 499.9C407.7 503.8 372.8 531.3 316.4 519.1C316.4 519.1 314.2 619.2 347.1 660.6C382.2 704.8 411.9 718.1 412 718C412.1 718.1 442 705 476.8 660.5C509.4 618.8 507.6 519 507.6 519Z" fill="white"/>
</g>
<path d="M428 21.3C428 17.9 428 14.5 428 11.1L423.3 1.50002C422.1 0.200018 419.7 0.200017 418.6 1.60002L414.7 11.1V21.3C411 21.3 405 24.2 405 27.8C405 31.4 408 34.3 411.7 34.3H414.7V380.1C414.7 399.6 404.4 415.8 389.6 415.5C378.1 415.2 368.1 405.5 366.4 389.5C366 386 363 383.3 359.3 383.3H359C354.8 383.3 351.4 386.9 352 391C354.9 413.7 372.9 429.9 390 429.9C403.3 429.9 414.3 423.7 420.6 412.6C428.5 398.8 428 383.6 428 368.5C428 354.2 428 339.8 428 325.5C428 305.5 428 285.5 428 265.4C428 242.6 428 219.7 428 196.9C428 174.1 428 151.4 428 128.6C428 108.8 428 89 428 69.1C428 57.5 428 45.9 428 34.3H430.1C433.8 34.3 436.8 31.4 436.8 27.8C436.8 24.2 431.7 21.3 428 21.3Z" fill="#59595B"/>
<g opacity="0.26">
<path opacity="0.26" d="M428 215.2L414.5 201.1V178H428V215.2Z" fill="black"/>
</g>
<path d="M322.3 245.5L324.7 230.7C333 179.4 352.7 130.7 382.4 88L419.8 34.1C328.6 38 250.5 92 212.2 169.3C200.5 192.9 192.6 218.7 189.1 245.8C208.8 239.9 231.7 236.5 256.1 236.5C280 236.6 302.6 239.8 322.3 245.5Z" fill="#6596C1"/>
<path d="M518.1 215.7L524.5 247.5H526.9C547.8 240.6 572.5 236.6 599.1 236.6C625.6 236.6 650.5 240.6 671.6 247.4C667.4 212.7 655.9 180.3 638.6 151.7C596.1 81.1 518.6 33.9 430.2 33.9C427.6 33.9 425 34 422.4 34L452.3 77.7C489 122.8 505.9 168.5 518.1 215.7Z" fill="#6596C1"/>
<path d="M324.7 230.7L322.3 245.5C322.5 245.6 322.7 245.6 322.9 245.7C348.1 234.5 382.7 228 420.9 228C461.1 228 497.4 235.1 523 247.5H524.4L518 215.7C505.8 168.5 488.9 122.8 452.3 77.7L422.5 34C421.6 34 420.7 34.1 419.8 34.1L382.3 88C352.7 130.7 333 179.4 324.7 230.7Z" fill="#5A8FB7"/>
<path d="M322.3 245.5L322.2 246C322.4 245.9 322.7 245.8 322.9 245.7C322.7 245.6 322.5 245.5 322.3 245.5Z" fill="white"/>
<path d="M389.4 433.9L382.8 422.1L383.2 403.7L389.4 405.7L391.5 415.1L403 425.5L399.6 436.2L389.4 433.9Z" fill="#EACDB0"/>
<path d="M389.7 418.7L391.2 406.6L403.5 397.5L411.9 404L409.9 414.1L389.7 418.7Z" fill="#EACDB0"/>
<path d="M221.7 403.7L197.9 423L138.4 530.7L169.6 570.2L189.4 564L236.3 459.9L221.7 403.7Z" fill="#A1BDCC"/>
<path d="M228 547.3L235.2 563.9V625.5L224 626.5L208.2 573.3L228 547.3Z" fill="#EACDB0"/>
<path d="M251.9 538L263.4 548.4L277.9 608.8L268.6 614L244.6 566.1L228 552.5L231.1 538H251.9Z" fill="#EACDB0"/>
<path d="M160.1 447.1C160.1 447.1 151.8 449.7 148.1 457C144.4 464.3 134.7 495.9 139.6 517.8C144.5 539.7 146.9 567.7 194.3 577.4C217.4 579.8 213.8 560.4 230.8 555.5C247.8 550.6 264 553.5 255.9 527.1C247.8 500.7 229.5 498.3 213.7 470.3C198 442.4 180.6 433.5 160.1 447.1Z" fill="#C2969C"/>
<path d="M154.3 450.1L118.6 471.3L90.5 481.8L93.6 494.2L122.8 492.2L151.9 479.7L154.3 450.1Z" fill="#C2969C"/>
<path d="M189.4 439.1L219.6 443.2L241.4 429.9L246.7 437L228 457.8L206.1 464.1L189.4 439.1Z" fill="#C2969C"/>
<path d="M170.8 386.6C170.8 386.6 190.8 394.4 193 412.2C193 412.2 202.5 400.5 194.9 388.7C187.3 376.9 182.9 372.5 171.3 377.9C159.6 383.2 170.8 386.6 170.8 386.6Z" fill="#754C3D"/>
<path d="M190.7 402.5C183 376.9 150.9 384.9 143.8 407C139.8 419.6 143.5 442.9 158.8 445.3C159.3 447.6 160 451.9 162 453.2C164.1 454.7 169.9 452.4 172.2 451.6C172.8 451.4 173.5 451.1 173.9 450.6C174.4 449.9 174.4 448.3 174.2 446.6C175.9 446.3 177.7 445.8 179.4 445C186.7 441.7 191.4 434.1 192.9 426.2C194.4 418.4 193 410.2 190.7 402.5Z" fill="#EACDB0"/>
<path d="M176.3 392.6C169.3 404 155.1 407.7 148.4 418.8C148.4 418.8 144.1 426 148.6 440.1C148.6 440.1 133.7 443.9 123.9 430.4C114.1 416.8 123 384 123 384C123 384 138 367.3 162.5 367.8C170.8 368 179.2 372.4 179.4 381.8C179.6 385.7 178.3 389.3 176.3 392.6Z" fill="#754C3D"/>
<path d="M137.4 949.1C137.4 949.1 138.6 958.9 150.6 959.1C162.6 959.3 167.5 967.3 156.5 967.2C145.5 967 132.4 969.1 128.1 960.9C123.7 952.7 134.2 943.3 137.4 949.1Z" fill="#BCAC98"/>
<path d="M100.5 905.3C100.5 905.3 96.2 906.2 94.1 914.2C92 922.2 42.2 908.5 25 920.3C7.8 932.1 5.6 942 3.5 960C-1.1 998 67 993.9 90.2 985.2C113.3 976.5 152.4 973.1 141.9 931.9C139.9 930.9 100.5 905.3 100.5 905.3Z" fill="#D3C2A4"/>
<path d="M145.2 928.1L141.8 930.8C141.8 930.8 124.8 936.3 105.4 914.5C97.7999 902.9 100.2 901 100.2 901L104.5 902C104.6 901.9 112.6 927.1 145.2 928.1Z" fill="#37454D"/>
<path d="M129 868.4C129 868.4 130.7 865.8 135.5 865.7C140.3 865.6 147.7 873.5 149.5 874.2C151.3 874.8 155.6 875.9 151.3 877.5C146.9 879.1 131.1 873.3 129 868.4Z" fill="#4F3C22"/>
<path d="M112.3 879C112.3 879 120 868.5 131.3 868.4C138 868.4 144 871.2 149 875.4C151.6 877.6 153.6 880.2 156 882.5C157.6 884 159.6 884.7 161.1 886.4C164.8 890.4 166.5 897.5 165.1 902.7C163.7 907.9 169.6 923.2 152.1 926.9C134.7 930.6 111.6 920.1 106.6 911.1C101.8 902.1 97.4001 892.9 112.3 879Z" fill="#DACAAF"/>
<path d="M115.2 880.3C115.2 880.3 110 877.2 105.7 879.3C101.4 881.4 97.9 880.7 98 885.5C98.1 890.3 97.3 902.4 103.1 906.1C108.9 909.8 107.5 899.9 110.5 896.5C113.3 893 118.3 881.7 115.2 880.3Z" fill="#4F3C22"/>
<path d="M137.6 951.9C137.6 951.9 138.5 965.9 145.5 967C152.5 968.1 169.4 975.3 166.3 979.3C163.2 983.3 158.3 979.2 153.3 979.1C148.3 979 133.7 981.1 121.6 976.3C110.2 974.9 105 980 105 980L137.6 951.9Z" fill="#D3C2A4"/>
<path d="M11.6 941.3C9.9 940.8 0.699984 938.3 0.399984 927.5C-1.60728e-05 916.8 7.09998 908 17.9 908.2C28.7 908.4 28.5 918.1 26.2 919.6C24 921 10.8 922.6 12.7 934.4C14.2 939.5 11.6 941.3 11.6 941.3Z" fill="#BCAC98"/>
<path d="M154 450.5C154 450.5 155 464 162.3 464C169.6 464 185 457.6 187.3 454.6C190.4 450.4 184.5 441.6 184.5 441.6L189.4 439C189.4 439 223.8 482.7 206.1 494.2C188.4 505.7 164.5 512.9 157.2 498.4C149.9 483.9 149.4 453.7 149.4 453.7L154 450.5Z" fill="#F2D263"/>
<path d="M236.3 624.4L245.7 631.7L242.5 635.8L225.9 632.7L223.8 625.4L236.3 624.4Z" fill="#3A3029"/>
<path d="M267.5 611.9L276.9 605.1L285.2 604.6L287.3 610.9L269.6 617.1L267.5 611.9Z" fill="#3A3029"/>
<path d="M138.5 530.2L174.1 525.8L258.5 542.4L258.3 562L170.1 570.7L142.7 561.7L138.5 530.2Z" fill="#AECCDC"/>
<path d="M258.5 543.9L271.3 547.7L277.8 564.8L269.6 574.4L266.5 560.9L258.3 560L258.5 543.9Z" fill="#DEC2A7"/>
<path d="M90.9 483.1L75.9 482.8V485.9L87.4 492.2L85.3 494.2L87.4 495.3L93.2 492.4L90.9 483.1Z" fill="#EACDB0"/>
<path d="M241.9 430.8L244.6 425.5L251.9 424.5L255 429.7L252.9 435.9L246.6 436.6L241.9 430.8Z" fill="#EACDB0"/>
<path d="M476.1 469.9L469.7 460.7L452.7 458.8L443.3 473L441.4 486.2L455.5 489L470.3 469.5L476.1 469.9Z" fill="#EACDB0"/>
<path d="M738.1 675.4L697.5 667.1L675.7 630.6L665.2 639L680.9 687.9L715.2 708.7L738.1 675.4Z" fill="#B26650"/>
<path d="M702.7 846.2V956.5H719.4L729.8 889.9L739.2 838.9L702.7 846.2Z" fill="#2E4661"/>
<path d="M739.2 834.7L745.4 882.6L753.7 959.6L770.4 958.6V899.3L778.7 838.9L739.2 834.7Z" fill="#2E4661"/>
<path d="M731.4 673.8C731.4 673.8 713.7 670.7 706.4 697.7C699.1 724.7 679.3 803.9 678.3 845.5C677.3 887.1 704.3 860.1 736.6 865.3C768.9 870.5 795.4 871 795.4 852.3C795.4 833.6 806.8 674.4 731.4 673.8Z" fill="#B26650"/>
<path d="M721.2 620C735.9 594 769 610.6 771.2 636.5C772.5 651.2 762.6 675.8 745.3 674.5C744.2 676.9 742.3 681.4 739.9 682.4C737.3 683.5 731.4 679.6 729.1 678.2C728.5 677.8 727.8 677.4 727.5 676.7C727.1 675.9 727.6 674.1 728.2 672.2C726.4 671.4 724.6 670.4 722.9 669.2C715.7 663.8 712.5 654.3 712.8 645.4C713.2 636.4 716.8 627.9 721.2 620Z" fill="#EACDB0"/>
<path d="M741.8 613.3C741.8 613.3 765.4 619.2 765.4 629C765.4 643.8 766.4 653.7 765.4 662.5L782.1 652.6L791.9 625.1C791.9 625.1 789.9 602.5 778.1 598.6C766.3 594.7 741.7 590.7 741.7 590.7L723 596.6L709.2 595.6L714 636.9C714.1 636.9 720.1 607.4 741.8 613.3Z" fill="#754C3D"/>
<path d="M749.6 677.5L778.7 687.9L804.8 752.5L825.6 799.3L814.1 806.6L780.8 759.7L749.6 677.5Z" fill="#B26650"/>
<path d="M814.1 806.6L821.4 817L825.6 812.8H838.1L825.6 799.3L814.1 806.6Z" fill="#EACDB0"/>
<path d="M702.7 956.5L693.4 965.9L697.5 972.1L716.3 965.9V956.5H702.7Z" fill="#8C9498"/>
<path d="M756.5 959.5L760 973.2L771.4 977.3L777.7 974.2L768 958.8L756.5 959.5Z" fill="#8C9498"/>
<path d="M675.7 630.6L665.2 623.3L652.7 626.5L654.8 633.8L666.4 638L675.7 630.6Z" fill="#EACDB0"/>
<path d="M664.2 637.2L668.4 628.8L660 624.6L648.3 627.2L650.7 632.7L664.2 637.2Z" fill="#DEC2A7"/>
</svg>
