<svg id="visual" viewBox="0 0 960 540" width="960" height="540" xmlns="http://www.w3.org/2000/svg" xmlns:xlink="http://www.w3.org/1999/xlink" version="1.1"><rect x="0" y="0" width="960" height="540" fill="#f1f1f1"></rect><defs><linearGradient id="grad1_0" x1="43.8%" y1="0%" x2="100%" y2="100%"><stop offset="14.444444444444446%" stop-color="#f1f1f1" stop-opacity="1"></stop><stop offset="85.55555555555554%" stop-color="#f1f1f1" stop-opacity="1"></stop></linearGradient></defs><defs><linearGradient id="grad2_0" x1="0%" y1="0%" x2="56.3%" y2="100%"><stop offset="14.444444444444446%" stop-color="#f1f1f1" stop-opacity="1"></stop><stop offset="85.55555555555554%" stop-color="#f1f1f1" stop-opacity="1"></stop></linearGradient></defs><g transform="translate(960, 0)"><path d="M0 324C-42.7 319.5 -85.3 314.9 -124 299.3C-162.7 283.8 -197.3 257.2 -226.3 226.3C-255.2 195.4 -278.5 160.1 -293.8 121.7C-309.1 83.3 -316.6 41.6 -324 0L0 0Z" fill="#5E2CED"></path></g><g transform="translate(0, 540)"><path d="M0 -324C44.9 -322 89.7 -319.9 124 -299.3C158.3 -278.8 181.9 -239.6 207.2 -207.2C232.4 -174.7 259.3 -149 279 -115.6C298.7 -82.2 311.4 -41.1 324 0L0 0Z" fill="#5E2CED"></path></g></svg>