<svg width="26" height="31" viewBox="0 0 26 31" fill="none" xmlns="http://www.w3.org/2000/svg">
<path d="M25.6629 8.92269C25.6629 8.89263 25.6329 8.86257 25.6329 8.86257C25.6028 8.80245 25.5728 8.74233 25.5427 8.71227L25.5126 8.68221L17.5467 1.16718C17.4866 1.10706 17.4265 1.077 17.3664 1.04694C17.3363 1.04694 17.3363 1.04694 17.3062 1.01688C17.2461 0.986816 17.186 0.986816 17.1259 0.986816H17.0958H3.77918C1.85533 0.986816 0.322266 2.54994 0.322266 4.44373V27.5299C0.322266 29.4537 1.88539 30.9868 3.77918 30.9868H22.206C24.1299 30.9868 25.6629 29.4237 25.6629 27.5299V9.13311C25.6629 9.10305 25.6629 9.10305 25.6629 9.10305C25.693 9.04293 25.6629 8.98281 25.6629 8.92269ZM17.7571 3.21127L23.3483 8.47179H17.7571V3.21127ZM24.3403 27.56C24.3704 28.7323 23.4084 29.6942 22.2361 29.6942H3.77918C2.60683 29.6942 1.64491 28.7323 1.64491 27.56V4.47379C1.64491 3.30145 2.60683 2.33952 3.77918 2.33952H16.4044V9.13311C16.4044 9.49383 16.705 9.79443 17.0658 9.79443H24.3403V27.56Z" fill="#171717"/>
<path d="M11.0245 7.66016H4.95234C4.59162 7.66016 4.29102 7.96076 4.29102 8.32148C4.29102 8.6822 4.59162 8.98281 4.95234 8.98281H11.0245C11.3852 8.98281 11.6858 8.6822 11.6858 8.32148C11.6858 7.96076 11.3852 7.66016 11.0245 7.66016Z" fill="#EC595A"/>
<path d="M20.0125 12.8906H4.95234C4.59162 12.8906 4.29102 13.1912 4.29102 13.5519C4.29102 13.9126 4.59162 14.2132 4.95234 14.2132H20.0125C20.3732 14.2132 20.6738 13.9126 20.6738 13.5519C20.6738 13.1912 20.3732 12.8906 20.0125 12.8906Z" fill="#EC595A"/>
<path d="M20.0125 17.2794H4.95234C4.59162 17.2794 4.29102 17.58 4.29102 17.9407C4.29102 18.3014 4.59162 18.602 4.95234 18.602H20.0125C20.3732 18.602 20.6738 18.3014 20.6738 17.9407C20.6738 17.58 20.3732 17.2794 20.0125 17.2794Z" fill="#EC595A"/>
<path d="M20.0125 21.6381H4.95234C4.59162 21.6381 4.29102 21.9387 4.29102 22.2994C4.29102 22.6601 4.59162 22.9607 4.95234 22.9607H20.0125C20.3732 22.9607 20.6738 22.6601 20.6738 22.2994C20.6738 21.9387 20.3732 21.6381 20.0125 21.6381Z" fill="#EC595A"/>
</svg>
