<svg width="196" height="83" viewBox="0 0 196 83" fill="none" xmlns="http://www.w3.org/2000/svg">
<path d="M44.2265 0.673218L87.6269 32.2035L70.8925 83L17.1491 82.8656L0.668884 31.9851L44.2265 0.673218Z" fill="url(#paint0_linear)"/>
<path fill-rule="evenodd" clip-rule="evenodd" d="M55.3086 38.69C57.4876 38.69 59.2535 40.4523 59.2535 42.6262C59.2535 44.8018 57.4876 46.5642 55.3086 46.5642C53.1296 46.5642 51.3621 44.8018 51.3621 42.6262C51.3621 40.4523 53.1296 38.69 55.3086 38.69Z" fill="white"/>
<path d="M38.004 25.9875H42.8268V55.4346H59.0277V59.48H38.004V25.9875Z" fill="white"/>
<path d="M116.711 60.0848C113.935 60.0848 111.243 59.7152 108.634 58.976C106.059 58.2032 103.985 57.212 102.413 56.0024L105.172 49.8536C106.677 50.9624 108.467 51.8528 110.54 52.5248C112.614 53.1968 114.688 53.5328 116.761 53.5328C119.069 53.5328 120.775 53.1968 121.878 52.5248C122.982 51.8192 123.534 50.8952 123.534 49.7528C123.534 48.9128 123.199 48.224 122.531 47.6864C121.895 47.1152 121.059 46.6616 120.022 46.3256C119.019 45.9896 117.648 45.62 115.908 45.2168C113.233 44.5784 111.042 43.94 109.336 43.3016C107.631 42.6632 106.159 41.6384 104.922 40.2272C103.718 38.816 103.115 36.9344 103.115 34.5824C103.115 32.5328 103.667 30.6848 104.771 29.0384C105.875 27.3584 107.53 26.0312 109.738 25.0568C111.979 24.0824 114.704 23.5952 117.915 23.5952C120.156 23.5952 122.347 23.864 124.487 24.4016C126.628 24.9392 128.501 25.712 130.106 26.72L127.598 32.9192C124.353 31.0712 121.109 30.1472 117.865 30.1472C115.591 30.1472 113.902 30.5168 112.798 31.256C111.728 31.9952 111.193 32.9696 111.193 34.1792C111.193 35.3888 111.811 36.296 113.049 36.9008C114.32 37.472 116.243 38.0432 118.818 38.6144C121.494 39.2528 123.684 39.8912 125.39 40.5296C127.096 41.168 128.551 42.176 129.755 43.5536C130.992 44.9312 131.611 46.796 131.611 49.148C131.611 51.164 131.042 53.012 129.905 54.692C128.802 56.3384 127.129 57.6488 124.888 58.6232C122.648 59.5976 119.922 60.0848 116.711 60.0848ZM163.051 46.0232C163.051 46.124 163.001 46.8296 162.901 48.14H142.482C142.85 49.82 143.72 51.1472 145.091 52.1216C146.462 53.096 148.168 53.5832 150.208 53.5832C151.613 53.5832 152.85 53.3816 153.921 52.9784C155.024 52.5416 156.044 51.8696 156.981 50.9624L161.145 55.4984C158.603 58.4216 154.89 59.8832 150.007 59.8832C146.964 59.8832 144.272 59.2952 141.93 58.1192C139.589 56.9096 137.783 55.2464 136.512 53.1296C135.241 51.0128 134.606 48.6104 134.606 45.9224C134.606 43.268 135.225 40.8824 136.462 38.7656C137.733 36.6152 139.455 34.952 141.629 33.776C143.837 32.5664 146.295 31.9616 149.004 31.9616C151.646 31.9616 154.038 32.5328 156.178 33.6752C158.319 34.8176 159.991 36.464 161.195 38.6144C162.432 40.7312 163.051 43.2008 163.051 46.0232ZM149.054 37.9088C147.282 37.9088 145.793 38.4128 144.589 39.4208C143.385 40.4288 142.649 41.8064 142.382 43.5536H155.676C155.409 41.84 154.673 40.4792 153.469 39.4712C152.265 38.4296 150.793 37.9088 149.054 37.9088ZM181.105 59.8832C178.262 59.8832 175.704 59.2952 173.429 58.1192C171.189 56.9096 169.433 55.2464 168.162 53.1296C166.891 51.0128 166.255 48.6104 166.255 45.9224C166.255 43.2344 166.891 40.832 168.162 38.7152C169.433 36.5984 171.189 34.952 173.429 33.776C175.704 32.5664 178.262 31.9616 181.105 31.9616C183.948 31.9616 186.49 32.5664 188.731 33.776C190.971 34.952 192.727 36.5984 193.998 38.7152C195.269 40.832 195.905 43.2344 195.905 45.9224C195.905 48.6104 195.269 51.0128 193.998 53.1296C192.727 55.2464 190.971 56.9096 188.731 58.1192C186.49 59.2952 183.948 59.8832 181.105 59.8832ZM181.105 53.432C183.112 53.432 184.751 52.76 186.022 51.416C187.326 50.0384 187.978 48.2072 187.978 45.9224C187.978 43.6376 187.326 41.8232 186.022 40.4792C184.751 39.1016 183.112 38.4128 181.105 38.4128C179.098 38.4128 177.443 39.1016 176.138 40.4792C174.834 41.8232 174.182 43.6376 174.182 45.9224C174.182 48.2072 174.834 50.0384 176.138 51.416C177.443 52.76 179.098 53.432 181.105 53.432Z" fill="#263A5D"/>
<defs>
<linearGradient id="paint0_linear" x1="0.668884" y1="0.673218" x2="87.6269" y2="0.673218" gradientUnits="userSpaceOnUse">
<stop stop-color="#5E2CED"/>
<stop offset="1" stop-color="#4E62BB"/>
</linearGradient>
</defs>
</svg>
