<?xml version="1.0" encoding="utf-8"?>
<!-- Generator: Adobe Illustrator 22.0.1, SVG Export Plug-In . SVG Version: 6.00 Build 0)  -->
<svg version="1.1" id="Layer_1" xmlns="http://www.w3.org/2000/svg" xmlns:xlink="http://www.w3.org/1999/xlink" x="0px" y="0px"
	 viewBox="0 0 643 738" style="enable-background:new 0 0 643 738;" xml:space="preserve">
<style type="text/css">
	.st0{fill:url(#SVGID_1_);}
</style>
<g>
	<g>
		
			<linearGradient id="SVGID_1_" gradientUnits="userSpaceOnUse" x1="470.1333" y1="1600.1737" x2="470.1333" y2="2260.2458" gradientTransform="matrix(-0.7071 0.7071 0.7071 0.7071 -786.6068 -1286.4866)">
			<stop  offset="0" style="stop-color:#EF519A"/>
			<stop  offset="1" style="stop-color:#5e2ced"/>
		</linearGradient>
		<path class="st0" d="M639.4,374.8c0.5,62.6-31.3,130.5-78.8,184.8c-65.5,75.1-148,126.2-233,153.7c-85,27.4-161.6,24.6-208.6,12.3
			C71.9,713.2-48.6,656,29,528.7c77.6-127.2,89.4-205.9,81.6-322.6c-6.6-99.2,15.5-165.3,72-192.8c58.3-28.4,123.8,7.1,158.2,72.7
			c34.4,65.6,64.8,125.2,153.6,149.9C583.1,260.7,638.9,299.8,639.4,374.8z"/>
	</g>
</g>
</svg>
