<svg width="1050" height="1424" viewBox="0 0 1050 1424" fill="none" xmlns="http://www.w3.org/2000/svg">
<path d="M719.8 1216.4H414C401 1216.4 390.3 1205.7 390.3 1192.7V948.6C390.3 935.6 401 924.9 414 924.9H719.9C732.9 924.9 743.6 935.6 743.6 948.6V1192.7C743.5 1205.7 732.9 1216.4 719.8 1216.4Z" fill="#603E6B"/>
<path d="M442.8 965.4C443.9 963.3 527 796.5 521.5 807.1C530.3 789.7 536.7 771.1 553.8 763.9C559.8 761.4 566.9 761.1 573 763.4C585.5 767.9 592.4 779 597.9 790.4L597.8 790.2L690.6 960.7L685.9 963.3C602.6 856.2 578.6 778 561.7 783.2C552.4 786.8 547.3 801.6 539.4 815.9L522.6 847.2C472.8 936.4 448.1 967.4 448.5 966.8C448.1 967.3 447.2 968.5 446.6 969.1L442.8 965.4Z" fill="#603E6B"/>
<path d="M553.7 727.6C551.1 736 543.1 761.9 538.5 777C536.7 783 538.6 789.5 543.4 793.6C543.6 793.8 543.8 794 544 794.1C546.1 796.2 550.6 802.9 552.6 802.9C554.7 802.9 559.8 807.3 562.8 807.3C565.7 807.3 567.5 807.8 572 809.5C576.5 811.2 584.4 805.4 584.4 802.9C584.4 800.4 586.5 784.1 588.9 770.3C591.3 756.5 591.2 725.9 591.2 725.9C592.6 724.5 594.7 722.1 597.2 719.1C586.2 713.3 575.2 707.5 563.4 704C558.1 716.6 554.4 725.2 553.7 727.6Z" fill="#FC7575"/>
<path d="M740.3 401.4L695.8 285.6C695.8 285.6 637.7 500.6 637.7 518.2C637.7 532.4 585.6 652 563.4 704.1C575.2 707.6 591.7 718.8 602.7 724.6C629 693.2 703.4 579.3 703.4 579.3L740.3 401.4Z" fill="#0E5466"/>
<path d="M836.4 1378.1C793.9 1378.1 788.5 1323.3 788.5 1323.3L825.3 1052.1L843.4 716.8L853.8 632L679.3 649L650.9 733.7L610.6 1045.9L676.3 1317.1C676.3 1317.1 670.9 1371.9 628.4 1371.9C585.9 1371.9 586.9 1388.8 586.9 1388.8H711.3C711.3 1388.8 704 1328.1 704 1322.5C704 1316.9 696.2 1024.1 696.2 1024.1L743.4 757.2L761.9 1037.4C761.9 1037.4 760.6 1323.1 760.6 1328.7C760.6 1334.3 753.3 1395 753.3 1395C753.3 1395 784.4 1395 805.1 1395C825.8 1395 877.7 1395 877.7 1395C877.7 1395 878.9 1378.1 836.4 1378.1Z" fill="#1E3340"/>
<path d="M861.3 264.7C837.5 232 743.4 203.1 699.2 256.5C660.8 303 652.5 438.1 649.9 555.9C647.6 662 630.9 754 630.9 754L856.9 757.2L861.4 451.3C861.3 451.3 885.1 297.4 861.3 264.7Z" fill="#42858C"/>
<path d="M733.5 180.7C733.5 180.7 732.9 229 728.1 253.6C726.3 263.1 730.8 272.9 739.1 276.4C745.3 279 753.5 280.5 763.7 278.6C790.3 273.7 791.2 244.8 791.2 244.8L782.2 156.7L733.5 180.7Z" fill="#FC7575"/>
<path d="M782.3 156.7L733.5 180.7C733.5 180.7 733.3 198.5 732 218.1C744.7 218.7 760.7 211.7 777.7 190.7C780.2 187.6 782.6 184.5 784.8 181.4L782.3 156.7Z" fill="#FD5E5A"/>
<path d="M809.4 87.2C803.5 71 750.2 48.5 736.7 56.8C736.7 56.8 720 70.5 712.8 93.5C705.6 116.5 699.2 133.2 699.2 133.2L706.9 138.1C706.9 138.1 705.7 144.5 704.8 152.5C712.8 153.6 725.2 154.4 734.3 151.2C734.3 151.2 723.7 160 704.1 159.8C703.5 168 703.5 176.6 705.6 181.3C712.8 197.9 743.3 211.4 777.9 174C812.3 136.4 815.2 103.4 809.4 87.2Z" fill="#FC7575"/>
<path d="M788.6 93.1C788.6 93.1 773.2 79.4 751.1 85.3C729 91.2 721.5 82.1 725.8 77.5C725.8 77.5 706.4 78 699.2 60.9C692 43.8 693.8 -8.10002 728.1 1.69998C762.4 11.5 755.5 35 755.5 35C755.5 35 766.5 23.7 776.9 29.6C787.3 35.5 785.9 43.8 785.9 43.8C785.9 43.8 795.4 62.9 808.5 65.3C821.6 67.7 820.2 96.1 820.2 96.1C820.2 96.1 827.9 102 822.5 122.5C817.1 143.1 785.2 174.9 785.2 184.7C785.2 184.7 777.3 172 783.7 151.9C790 131.8 790 120.1 783.2 120.1C776.4 120.1 788.6 93.1 788.6 93.1Z" fill="#0B1742"/>
<path d="M778.8 133.3C778.8 133.3 781 116.4 785.9 116.4C790.8 116.4 795.4 118.2 794.2 127.8C793 137.3 787.9 148 781.5 143.6C775.1 139.2 778.8 133.3 778.8 133.3Z" fill="#FC7575"/>
<path d="M824.8 60.9C824.2 59.1 822.8 57.3 821.1 56.5C815.5 53.9 808 59.5 803.1 63.3L802.3 62.2C805.6 58.5 809.1 54.8 814.1 52.4C821.3 49.1 827.8 52.5 830.6 58.8L824.8 60.9Z" fill="#0B1742"/>
<path d="M820.3 88.2C820.8 85.2 820.8 81.7 820.1 78.6C816.5 63.1 799.1 64.5 798.3 64V63C798.8 63.2 823.5 58 827 83C827.3 85.2 827.5 87 827.3 89.6L820.3 88.2Z" fill="#0B1742"/>
<path d="M732.7 108.2C732.7 112.4 731 115.7 728.9 115.7C726.8 115.7 725.1 112.3 725.1 108.2C725.1 104 726.8 100.7 728.9 100.7C731 100.7 732.7 104.1 732.7 108.2Z" fill="#2846A6"/>
<path d="M742.1 96.1C735.2 91.6 725.4 93.2 725.4 93.2L725 90.3C725.4 90.2 735.8 88.4 743.6 93.5L742.1 96.1Z" fill="#2846A6"/>
<path d="M782.1 126.5C782.1 126.5 785 120.8 787.5 121.6C790.1 122.4 790.6 133.9 786.1 138.8C781.5 143.6 777.7 135.6 782.1 126.5Z" fill="#FD5E5A"/>
<path d="M248 398.6C248 398.6 351.5 431.4 357.7 490.3L330.1 499.2L234.7 439.8L248 398.6Z" fill="#2E98A0"/>
<path d="M134.3 800.2C134.3 800.2 194 1312.8 208.9 1367.5V1402.1H323.3C323.3 1402.1 316.4 1390.6 303.5 1390.6C290.6 1390.6 257.9 1378.1 248.9 1369.5C239.9 1360.9 254.5 652.4 254.5 652.4H112.4L134.3 800.2Z" fill="#0F1D5B"/>
<path d="M117.5 217.4L114.7 260.2L216.2 248.7L192.5 219.6L117.5 217.4Z" fill="#D3C4BA"/>
<path d="M200.7 696.8L184.2 779.7C184.2 779.7 52.1 1228.9 57.9 1385.8C57.9 1385.8 69 1404.4 108.3 1415.4C110.4 1416 112.4 1423.3 112.4 1423.3H10L15.8 1391.7C15.8 1391.7 19.1 857.6 19.1 795.4C19.1 733.2 35.6 652.3 35.6 652.3H207.3L200.7 696.8Z" fill="#1A2A63"/>
<path d="M269.4 546C269.4 400.7 226.9 256.1 195.2 237.8C195.2 237.8 158.3 235.3 139.3 234.6C111 233.7 67.4 248 43.9 328.1C29.1 378.6 36.0999 500.6 37.6999 606.9C38.3999 654 31.2 698.1 32.3 731.4C112.3 731.4 170.8 728.7 248.5 728.7C249.6 703.4 269.4 591.7 269.4 546Z" fill="#D24307"/>
<path d="M156.7 409.8C156.9 412 109.5 238.8 109.5 238.8C109.5 238.8 93.6 244.2 72.5 258.2C51.4 272.2 22.2 368.7 22.2 368.7C22.2 368.7 29.4 597 29.4 614.3C29.4 623.6 14.2 763.4 0.199951 890.7L173.3 907.1C170.5 729.7 156.7 409.8 156.7 409.8Z" fill="#5CD4ED"/>
<path d="M195.2 237.8C195.2 237.8 256.3 261.6 269.4 421.3C282.5 581 282.5 907.1 282.5 907.1H222.7C222.7 907.1 216.2 441.2 216.2 409.3C216.2 377.4 195.2 237.8 195.2 237.8Z" fill="#42AEBC"/>
<path d="M192.5 219.6L216.1 405.3L224.5 312.5L216.2 302.4V248.7L192.5 219.6Z" fill="#9DE5F4"/>
<path d="M62.6 814.9H121.8C130.5 814.9 137.5 807.9 137.5 799.2V708.1H47V799.2C47 807.9 54 814.9 62.6 814.9Z" fill="#9DE5F4"/>
<path d="M23.4076 631.57H47.0076L47.0076 579.67H23.4076L23.4076 631.57Z" fill="#9DE5F4"/>
<path d="M89 420.8L88.9 420.7C89.9 420.5 89.9 420.6 89 420.8Z" fill="#FC7575"/>
<path d="M335.3 515.2L486.2 407.4L329.6 393.2L211.1 518.1L335.3 515.2Z" fill="#1E3340"/>
<path d="M270.7 466C270.7 466 252.3 470.1 245.4 477.4C236.7 486.7 216.1 501.9 207.4 501.9C198.7 501.9 161.8 505.5 161.8 505.5L155.6 546.2C155.6 546.2 293.5 514.6 299.9 507.7C306.4 500.7 267.6 512.9 267.6 509.8C267.6 506.7 314.4 503.2 311.9 495.4C309.5 487.6 268.8 505.9 265.1 502C261.5 498.1 314.3 491.7 314.3 483.4C314.3 475.1 261.8 495.3 261.8 495.3C261.8 495.3 260.8 491.1 275.1 484.4C289.3 477.7 303.1 472.3 300 468.9C296.9 465.5 260.5 486.9 255.7 481.8L270.7 466Z" fill="#FC7575"/>
<path d="M86.7 273.6C86.7 273.6 104.2 305.5 100.7 351.6C97.2 397.6 91.3 468.2 101 491.2C110.8 514.2 182.4 491.2 182.4 491.2V545.7C182.4 545.7 78.6 587.9 48.5 574.1C18.4 560.3 21.3001 441.4 21.3001 383.1C21.3001 324.8 67.5 231.8 86.7 273.6Z" fill="#9DE5F4"/>
<path d="M146 69.4C145.9 47.6 167.7 35.1 188.3 35.9C208.5 36.7 228.3 37 235.3 50C252.2 81.5 226.1 140.5 226.1 140.5C226.1 140.5 212.3 168 184.7 168C165.8 168 146.2 110.1 146 69.4Z" fill="#F98A8A"/>
<path d="M126.4 130.2C126.4 130.2 118.9 230.3 121.6 251.3C124.3 272.3 179.3 277.6 190 261.4C200.7 245.2 190 176.1 190 176.1L126.4 130.2Z" fill="#EA7373"/>
<path d="M194.4 218C193.2 196.7 190 176.1 190 176.1L126.4 130.2C126.4 130.2 124.1 158.4 122.7 189C124 188.3 125.6 187.5 126.4 186.6C133.7 178.2 142.1 149 142.1 149C142.1 149 146 178.7 146 195C146 205.4 163.9 212.3 181.4 216C184.2 212 186.3 206.9 187.7 202.6C187.2 207.3 186.3 212.2 184.6 216.6C187.9 217.1 191.2 217.7 194.4 218Z" fill="#D86666"/>
<path d="M219 180.6C220.7 184.5 223.7 189.9 227.4 193.4C233.7 185.5 237.3 174.8 237.3 166.1C237.3 150.3 228 141.8 228 136C228 136 224.7 149.4 207.1 152.2C189.5 155 175.3 140.9 168.6 133.8C161.9 126.7 153.3 119.9 153.3 108.3C153.3 96.6999 152.1 51.3999 152.1 51.3999C152.1 51.3999 150.3 43.5999 131.1 53.6999C111.9 63.7999 114.2 71.4999 111.2 86.7999C108.1 102.2 112.3 113.5 100.5 117.5C88.6001 121.5 75.6001 140.1 84.8001 159.9C94.0001 179.7 119.3 182.1 126.6 174.5C133.9 166.8 142.3 143.4 142.3 143.4C142.3 143.4 146.2 167.2 146.2 182.2C146.2 191.7 164.1 198 181.6 201.3C184.4 197.6 186.5 193 187.9 189.1C187.4 193.4 186.5 197.9 184.8 201.9C193.7 203.4 202.2 204.1 207.9 204.1C213.3 204.1 218.2 202 222.3 198.7C219.6 193.3 218.8 186.9 219 180.6Z" fill="#E3E4FF"/>
<path d="M129.1 52.9C111.5 61.3 111.4 70.6 108.8 84.2C104.6 103.9 109.6 111.1 98.1999 114.9C72.2999 126.3 71.3999 168.3 102.7 178.1C110.6 180.2 120.2 180.7 126.3 174.5C119.5 179.3 110.7 177.9 103.6 175.1C77.7999 164.7 78.8 129.6 100.3 120.9C115.2 116.8 110.7 102.4 113.9 85.2C116.2 72.5 113.9 65.3 130.4 55.7C136.2 52.1 148.1 45.4 151.9 51.3C149 44.3 135.7 49.8 129.1 52.9Z" fill="#C5C6FE"/>
<path d="M161.7 94.5C161.7 94.5 156 86.4 146 88.8C136 91.2 143.7 118.3 152.5 118.3C161.2 118.3 161.7 94.5 161.7 94.5Z" fill="#F98A8A"/>
<path d="M218.8 88.4C218.7 119.9 217.3 116.7 215.6 132C212.4 131.3 209.1 130.8 205.8 130.2C216.8 134.8 215.5 134 217.3 134.7C217.7 129.2 224.7 114.1 218.8 88.4Z" fill="#18287D"/>
<path d="M189.1 83.3C189.1 83.3 193.7 81.3 201.6 83.3C209.5 85.3 211.9 86.5 211.9 86.5C211.9 86.5 212.9 78 207.9 78C202.9 78 201.4 81.8 197.7 78C194 74.3 189.1 83.3 189.1 83.3Z" fill="#E3E4FF"/>
<path d="M242.4 82.5C242.4 82.5 238.9 80.6 233.2 82.8C227.4 85 225.6 86.3 225.6 86.3C225.6 86.3 224.6 77.8 228.3 77.7C232 77.6 233.2 81.4 235.8 77.4C238.4 73.5 242.4 82.5 242.4 82.5Z" fill="#E3E4FF"/>
<path d="M202.3 91C202.3 93.6 200.6 95.7 198.6 95.7C196.5 95.7 194.9 93.6 194.9 91C194.9 88.4 196.6 86.3 198.6 86.3C200.6 86.3 202.3 88.4 202.3 91Z" fill="#18287D"/>
<path d="M236 93C236 95.6 234.3 97.7 232.3 97.7C230.2 97.7 228.6 95.6 228.6 93C228.6 90.4 230.3 88.3 232.3 88.3C234.3 88.4 236 90.4 236 93Z" fill="#18287D"/>
<path d="M153.4 96.3C153.4 96.3 147.3 90.8 145.9 95.7C144.6 100.6 147.7 110.9 152.1 111.5C156.5 112.1 153.4 96.3 153.4 96.3Z" fill="#D86666"/>
<path d="M214.9 144.8C208.6 151.1 196.6 150.4 186.1 138.9C184.8 137.5 186.6 135.3 188.1 136.5C190.7 137.4 198.3 149.3 214.9 144.8Z" fill="#18287D"/>
<path d="M156.7 409.8L117.5 217.4L76.9 248.9L112.4 314.8L109.8 335.4L156.7 409.8Z" fill="#9DE5F4"/>
<path d="M321 519.4C321 519.4 323.5 521.9 331 526.5C338.3 531 345.6 523.9 347.2 522.6C350.1 520 354.1 515.1 356.1 511.9C358.1 508.7 359.1 506.6 359.8 503.3C360.8 498.5 342.7 483.5 341 484.7C339.9 485.5 339 486.6 339.3 487.9C339.7 489.2 349.7 503.8 349.7 503.8C349.7 503.8 335.4 489.6 331.2 490.1C327 490.6 327.6 493.1 328.6 494.3C329.7 495.5 343.2 512.6 343.2 512.6C343.2 512.6 326.1 499.5 323.4 499.8C320.7 500.1 318.8 503.7 325.7 509.5C329.6 512.8 335.9 520.6 335.9 520.6C335.9 520.6 323.1 512.6 319 513C314.8 513.4 321 519.4 321 519.4Z" fill="#FC7575"/>
<path d="M835.5 243.8C835.5 243.8 802.3 263 802.3 318.9C802.3 374.9 1005.8 596.9 1005.8 596.9V506C1005.8 506 898.4 273.9 835.5 243.8Z" fill="#0E5466"/>
<path d="M848.2 1408.7C848.2 1408.7 857.2 1399.6 874.2 1393.9C891.3 1388.3 914.7 1385.4 915.7 1373.9C924.9 1271.2 880.9 1019.8 880.9 1019.8L918.9 817.8L997.3 881.7L947.4 1033.8C947.4 1033.8 979.5 1087.5 972.3 1124.6C965.2 1161.7 941.1 1377.5 941.1 1377.5C941.1 1377.5 953.4 1396.4 946.2 1405.4L848.2 1408.7Z" fill="#FC7575"/>
<path d="M874.3 1393.9C877.9 1392.7 881.9 1391.6 885.8 1390.6C896.7 1392.7 905.1 1394.7 905.1 1394.7C914.7 1388.3 930.3 1384 943.3 1381.3C946.5 1387.3 951.5 1399 946.2 1405.5L848.2 1408.7C848.2 1408.7 857.2 1399.6 874.3 1393.9Z" fill="#18287D"/>
<path d="M986.3 199.3C986.3 199.3 1019.8 200.7 1009.6 229.1C999.5 257.5 993.1 258.8 993.1 258.8C993.1 258.8 1021.7 255.2 1021.7 279.4C1021.7 303.7 1007.9 317 1007.9 317C1007.9 317 984.9 355 1009.6 366.1C1034.3 377.1 1048.7 356.5 1048.7 356.5C1048.7 356.5 1052.6 366.5 1043.9 375.3C1035.2 384.1 1017.9 375.3 1017.9 375.3C1017.9 375.3 1033.7 397.8 1046.3 394.4L1040.6 410.5C1040.6 410.5 1023.8 413.8 1013 399.9C1009.5 395.3 1007 386.8 1007 386.8L1018.1 412.6L996.2 406.2C990.8 398.6 998 366.7 993.8 351.8C989.6 336.9 996.2 322.4 996.2 316.7C996.2 310.9 946.9 304.9 945.1 277.5C943.4 250.3 950.6 185 986.3 199.3Z" fill="#18287D"/>
<path d="M806.5 1399C806.5 1399 815.5 1389.9 832.5 1384.2C849.6 1378.6 873 1375.7 874 1364.2C883.2 1261.5 839.2 1010.1 839.2 1010.1L877.2 808.1L955.6 872L905.7 1024.1C905.7 1024.1 937.8 1077.8 930.6 1114.9C923.5 1152 899.4 1367.8 899.4 1367.8C899.4 1367.8 911.7 1386.7 904.5 1395.7L806.5 1399Z" fill="#FC7575"/>
<path d="M971.6 263.7C971.6 263.7 1011.3 284.2 1001.8 369.9C992.3 455.6 992.8 549.3 1003.6 576.6C1049.5 693.2 1007.2 1187 1007.2 1187C948.4 1193.6 770.4 1191.5 770.4 1191.5C770.4 1191.5 680.1 628.3 814.5 519.2C848.8 491.3 818.7 366.4 878.8 306.4C931 254.2 971.6 263.7 971.6 263.7Z" fill="#29ABE2"/>
<path d="M845 534.2C842.7 532.1 840.4 530 838.2 527.8C833.7 530.3 816 541.3 810.2 563.4C810 564.1 809.4 564.6 808.6 564.6C807.5 564.6 806.8 563.6 807 562.6C813 540.1 830 528.7 835.8 525.4C831.6 520.8 827.8 515.8 824.6 510.4C833.2 520 843.1 528 853.6 535.1C896.5 563.6 933.8 565.7 960.7 570C943.2 571.1 926.3 571.1 906.3 565.9C854.2 636.6 878.6 761.8 878.6 773.3C878.6 775.4 875.4 775.4 875.4 773.3C875.4 762.2 850.9 637.3 903 565C902.7 564.9 887.4 561.1 871.5 552.6C824.5 618.9 829.8 679.1 829.8 679.8C830 681.9 826.8 682.2 826.6 680.1C826.5 679.5 821.1 618.3 868.6 551.1C860.6 546.6 853.7 541.8 847.3 536.4C824.6 559.2 802.5 602.8 804.5 648.9C804.5 649.8 803.8 650.5 803 650.6H802.9C802 650.6 801.3 649.9 801.3 649.1C799.4 601.9 821.8 557.5 845 534.2Z" fill="#047FAA"/>
<path d="M920.7 274.8C928.8 241 922 181.1 922 181.1L963.4 166.5C963.4 166.5 975.3 266.7 973.7 266.7C959.7 288.9 918.7 291.3 920.7 274.8Z" fill="#FC7575"/>
<path d="M872.6 97.7C872.6 97.7 904.1 137.5 917 142.4C929.9 147.3 958.8 155 958.8 155C958.8 155 970.6 213.6 970.2 226.3C970.2 226.3 1022 216.7 1000.6 127.6C992.4 93.7 988.9 72.1 954.7 57.5C920.5 42.9 883.9 65 872.6 97.7Z" fill="#18287D"/>
<path d="M898.3 86.7C898.3 86.7 876 94.3 873.9 111.6C871.8 128.9 875.9 137.6 874.9 145.9C873.9 154.3 874.8 169.8 884.8 193.8C894.7 217.8 928.5 204.2 947.9 187C969.7 167.6 971.7 161.7 971.7 130.5C971.6 99.3 934 73.5 898.3 86.7Z" fill="#FC7575"/>
<path d="M897.3 167.9C897.7 165.2 894.1 168.4 887.9 159.9C890.3 156.1 891.6 151.5 891.9 147.3C889.8 155.7 885.3 159 884.8 159.8C885 160 889.7 168.1 895.9 169C896.6 169.1 897.2 168.6 897.3 167.9Z" fill="#2846A6"/>
<path d="M911.5 148.4C909.9 149.7 907.6 149.4 906.3 147.7C905 146.1 905.3 143.7 906.9 142.5C908.5 141.2 910.8 141.5 912.1 143.2C913.4 144.8 913.2 147.1 911.5 148.4Z" fill="#2846A6"/>
<path d="M881 147.4C879.4 148.7 877.1 148.4 875.8 146.7C874.5 145.1 874.8 142.7 876.4 141.5C878 140.2 880.3 140.5 881.6 142.2C882.9 143.8 882.6 146.1 881 147.4Z" fill="#2846A6"/>
<path d="M898.3 139.3C902.5 138.9 906.7 139.3 910.8 140.6C912.9 141.3 914.7 142.2 916.5 143.1C918.3 144 920.1 145 921.9 146.3C919.7 146.3 917.7 145.8 915.7 145.2C913.7 144.6 911.8 143.6 910 142.9C906.3 141.5 902.3 140.6 898.3 139.3Z" fill="#0F1D5B"/>
<path d="M870.6 138.7C873.7 138.6 876.8 139.1 879.9 140.3C881.5 140.9 882.9 141.7 884.3 142.5C885.7 143.3 887.1 144.2 888.4 145.2C886.8 145.1 885.2 144.6 883.7 144C882.2 143.5 880.7 142.6 879.4 142C876.6 140.8 873.6 139.8 870.6 138.7Z" fill="#0F1D5B"/>
<path d="M898.4 128.1L900.1 132.7C900.1 132.7 911.2 132 916.1 136.6C916.1 136.5 907.7 125.3 898.4 128.1Z" fill="#0F1D5B"/>
<path d="M873.6 126.5L874.3 130.8C874.3 130.8 885.4 130.1 890.3 134.7C890.3 134.6 883 123.7 873.6 126.5Z" fill="#0F1D5B"/>
<path d="M888.2 180C888.2 180 900.9 178.7 911.5 174.6C911.5 174.6 901.8 190.4 895.8 189.6C889.9 188.9 888.2 180 888.2 180Z" fill="white"/>
<path d="M877 70.5C877 70.5 859.3 73.4 861.5 90.6C863.7 107.8 906.1 128.6 935.2 125.2C946.1 123.9 945.9 130.4 950.1 134.7C957 141.8 963 150.5 956.4 164C945.9 185.5 936.7 174.1 936.7 174.1C936.7 174.1 944.9 187.2 970.5 180.4C996.1 173.5 1000.4 135.7 982.1 113.4C963.8 91.1 944.6 80.6 928.9 75C894.8 62.9 877 70.5 877 70.5Z" fill="#2846A6"/>
<path d="M959.7 129.8C956.7 129.8 943.7 138.5 946.9 147.8C950.1 157.1 953.4 157.9 961.8 153.7C970.1 149.5 967.2 129.8 959.7 129.8Z" fill="#FC7575"/>
<path d="M950.9 141.8C950.9 141.8 957.4 134 960.5 138C963.6 142 962.3 148.7 957.9 150.8C953.3 152.9 946.5 146.5 950.9 141.8Z" fill="#FD5E5A"/>
<path d="M931.3 160.5C931.3 164.7 925.9 168.1 919.3 168.1C912.6 168.1 907.3 164.7 907.3 160.5C907.3 156.3 912.7 152.9 919.3 152.9C925.9 152.8 931.3 156.3 931.3 160.5Z" fill="#FD5E5A"/>
<path d="M883.8 162.7C883.8 159.1 879.9 156.1 874.6 155.3C874.8 159.3 875.5 164.1 876.8 169.7C880.9 168.4 883.8 165.8 883.8 162.7Z" fill="#FD5E5A"/>
<path d="M832.6 1384.2C836.2 1383 840.2 1381.9 844.1 1380.9C855 1383 863.4 1385 863.4 1385C873 1378.6 888.6 1374.3 901.6 1371.6C904.8 1377.6 909.8 1389.3 904.5 1395.8L806.5 1399C806.5 1399 815.5 1389.9 832.6 1384.2Z" fill="#18287D"/>
<path d="M1000.4 607.4C1000.4 607.4 1005.1 606.2 1015.9 600.3C1026.4 594.7 1022.9 581 1022.3 578.2C1021.2 572.9 1018 564.7 1015.6 560.1C1013.2 555.5 1011.3 552.9 1007.9 549.7C1002.8 545.1 972.3 556.6 972.6 559.5C972.8 561.4 973.5 563.3 975.3 563.7C977.2 564.1 1001.6 562.2 1001.6 562.2C1001.6 562.2 974.7 569.6 972.3 575C969.9 580.4 973.4 581.5 975.6 581C977.8 580.5 1007.7 576.1 1007.7 576.1C1007.7 576.1 980.1 587.5 978.6 591C977.1 594.5 980 599.2 991.8 595C998.4 592.6 1008.5 591.1 1008.5 591.1C1008.5 591.1 993.7 600.4 991.4 605.6C988.8 610.7 1000.4 607.4 1000.4 607.4Z" fill="#FC7575"/>
<path d="M973.8 308.9C973.8 308.9 940.7 325.4 954.5 366C968.3 406.6 977 490 973.8 514.1C970.6 538.2 884.4 624.1 884.1 624.2C878.8 625 858.3 631.4 845 636.5C831.7 641.6 820.2 636.8 817.2 640.2C814.8 643 822 648.5 830.3 645.9C838.5 643.3 852.3 639.2 851.9 648.3C851.5 657.2 802.4 669.5 801.9 669.6C797.1 670.7 788.7 674 792.8 676.7C795.3 677.7 811.2 674.5 820.5 671.5C836.7 666.2 841.9 664.7 843.9 666C844.2 668.1 833.8 671.7 811.2 680.5C786.3 690.1 773.4 706.8 822.6 683.7C836.2 677.3 847.6 673.8 847.8 675.3C848.5 679.9 839.3 683.5 831.1 687.7C823.1 691.8 805.8 701.7 815 703.5C817.1 703.4 827.5 697.1 835.2 692.5C851.7 682.5 856.6 679.9 859.2 681C860.4 689 841 697.7 832.2 703.9C830.9 704.8 831.9 706.9 833.4 706.5C839.9 704.7 851.9 699.1 864.6 689.3C877.8 679.1 896.7 659.3 907.5 647C910.3 646.4 994.5 579.2 1010.5 540.9C1026.8 502.5 1036.8 301.3 973.8 308.9Z" fill="#FD5E5A"/>
</svg>
