<svg width="1201" height="737" viewBox="0 0 1201 737" fill="none" xmlns="http://www.w3.org/2000/svg">
<path d="M367.646 720.76C479.579 716.291 591.299 712.035 703.232 707.566C775.797 704.8 855.597 698.842 906.882 647.557C927.523 626.915 942.845 599.251 969.445 587.122C1007.96 569.246 1054.14 590.314 1095.42 580.312C1140.11 569.459 1169.48 520.941 1166.71 474.976C1163.94 429.011 1134.15 387.728 1096.06 361.979C1057.97 336.23 1012 324.314 966.466 317.504C920.926 310.694 874.749 308.779 829.422 300.693C816.654 298.352 802.397 294.522 795.8 283.456C784.947 264.73 804.525 241.534 825.166 234.938C845.808 228.341 869.216 229.83 887.942 218.978C912.84 204.933 922.629 171.523 914.755 144.072C906.882 116.621 884.325 95.128 858.576 82.5728C832.827 70.0176 804.099 65.5488 775.584 62.3568C549.803 37.672 315.298 102.15 133.992 238.981C110.158 257.069 101.646 264.304 86.5376 290.053C71.4288 315.802 69.7264 352.19 91.0064 373.258C108.882 391.133 136.971 393.261 162.082 389.856C186.979 386.664 211.877 379.003 236.987 381.344C262.098 383.685 288.485 400.07 291.464 424.968C294.443 449.44 274.227 470.507 253.16 483.275C223.368 501.15 189.32 510.301 156.336 520.941C123.352 531.581 89.9424 545.2 65.2576 569.672C40.5728 594.144 26.7408 632.448 39.7216 664.794C48.872 687.35 69.5136 703.949 92.2832 712.886C115.053 721.824 139.738 724.165 163.997 725.442C229.114 728.634 302.53 723.314 367.646 720.76Z" fill="#D1DAFF"/>
<path d="M233.582 110.45C220.176 116.195 206.344 122.154 191.874 123.218C177.403 124.282 161.443 119.813 152.506 108.322C143.568 96.8304 143.355 80.232 149.101 66.8256C154.846 53.4192 165.486 42.7792 177.19 34.0544C203.365 14.264 235.498 2.55999 268.269 0.857588C285.506 0.00638779 304.232 2.34719 316.787 14.264C337.216 33.8416 328.491 63.208 307.424 77.8912C286.357 92.5744 257.203 100.448 233.582 110.45Z" fill="#D1DAFF"/>
<path d="M1070 235.131C1093.85 211.281 1093.85 172.611 1070 148.761C1046.15 124.91 1007.48 124.91 983.625 148.761C959.775 172.611 959.775 211.281 983.625 235.131C1007.48 258.982 1046.15 258.982 1070 235.131Z" fill="#D1DAFF"/>
<path d="M836.445 714.376C836.445 701.821 846.446 691.819 859.002 691.819H23.5488C10.9936 691.819 0.992004 701.821 0.992004 714.376C0.992004 726.931 10.9936 736.933 23.5488 736.933H858.789C846.446 736.933 836.445 726.718 836.445 714.376Z" fill="#9FB5FE"/>
<path d="M1177.78 691.819H909.435H859.002C846.446 691.819 836.445 701.821 836.445 714.376C836.445 726.931 846.446 736.933 859.002 736.933H909.435H1177.99C1190.54 736.933 1200.55 726.931 1200.55 714.376C1200.55 701.821 1190.33 691.819 1177.78 691.819Z" fill="#84A0EF"/>
<path d="M786.65 313.674L900.285 342.827V522.856C900.285 545.838 905.179 568.395 914.33 589.462L927.949 620.106C938.163 642.875 944.547 667.134 947.526 691.819H707.062L723.022 634.789C730.045 609.891 730.47 583.504 724.512 558.394L721.746 547.115C718.979 535.624 710.893 526.048 700.04 521.154L699.402 520.941C678.973 512.003 667.907 489.659 673.014 468.166L698.976 356.872L786.65 313.674Z" fill="white"/>
<path d="M914.33 589.462L929.651 620.957L847.723 652.238C833.466 657.558 817.506 654.154 807.078 643.088L797.502 633.086L793.246 634.15C773.03 638.832 751.75 633.938 735.365 621.17L727.278 614.786V589.462H914.33Z" fill="#D1DAFF"/>
<path d="M867.939 520.941C860.491 525.197 851.766 529.878 842.403 534.347C833.04 538.816 822.826 543.072 812.398 546.69C801.971 550.307 791.331 553.286 781.117 555.627C770.902 557.968 761.326 559.67 752.814 560.947C761.326 561.586 771.328 561.586 781.968 560.096C792.608 558.819 803.674 556.053 814.314 552.435C824.954 548.605 835.381 543.71 844.531 538.178C853.894 533.07 861.768 526.899 867.939 520.941Z" fill="#D1DAFF"/>
<path d="M869.216 547.115C856.023 550.733 839.211 555.414 821.974 558.819C804.738 562.437 787.288 564.778 773.882 566.693C787.501 567.97 805.376 567.118 822.826 563.501C840.275 560.096 857.299 553.712 869.216 547.115Z" fill="#D1DAFF"/>
<path d="M893.901 652.451C884.112 653.515 872.834 654.792 860.917 655.643C849 656.494 836.232 656.707 823.464 656.494C810.696 656.069 798.141 655.218 786.224 653.728C774.307 652.238 763.029 650.536 753.453 648.834C762.603 652.664 773.456 656.282 785.373 659.048C797.29 661.602 810.27 663.304 823.464 663.517C836.445 663.942 849.638 662.878 861.555 660.963C873.685 658.835 884.75 655.856 893.901 652.451Z" fill="#D1DAFF"/>
<path d="M882.622 678.2C869.854 678.2 853.682 677.774 837.509 675.434C821.336 673.306 805.376 669.262 793.246 665.645C798.779 668.837 805.589 671.816 813.037 674.37C820.485 676.923 828.571 678.838 836.87 679.902C845.17 680.966 853.469 681.392 861.342 680.966C869.216 680.754 876.451 679.69 882.622 678.2Z" fill="#D1DAFF"/>
<path d="M829.635 328.144L736.003 338.571C721.533 350.488 709.829 371.555 709.829 371.555L731.322 382.408L699.615 410.498C712.382 481.786 749.197 529.878 763.667 548.818L777.074 550.733C797.715 536.05 856.023 488.17 867.301 431.565L835.381 400.922L870.28 380.28C867.726 374.109 852.83 342.189 829.635 328.144Z" fill="#D1DAFF"/>
<path d="M785.586 290.691C787.288 280.051 786.862 268.773 784.309 258.346L744.515 310.056L749.835 322.611L753.027 330.059C760.475 328.782 767.71 324.739 772.818 319.206C779.84 311.546 783.883 301.118 785.586 290.691Z" fill="black"/>
<path d="M812.186 360.915L811.122 320.696L804.312 304.523L784.734 257.494L784.096 258.346C786.65 268.986 787.288 280.051 785.373 290.691C783.67 301.118 779.627 311.546 772.392 319.419C767.072 324.952 760.05 328.995 752.602 330.272L757.922 342.827L754.73 361.128C753.666 367.725 752.602 374.322 751.963 380.918C751.75 391.984 752.176 403.05 753.24 414.115C761.752 416.669 770.69 418.371 779.84 419.435C789.629 419.435 799.418 418.797 809.206 417.307C811.76 398.794 812.824 379.854 812.186 360.915Z" fill="#E9B49D"/>
<path d="M752.176 380.918C750.899 393.048 750.048 404.965 750.048 417.094C760.05 418.584 770.051 419.222 780.053 419.222C771.115 418.158 762.178 416.456 753.453 413.902C752.389 403.05 751.963 391.984 752.176 380.918Z" fill="black"/>
<path d="M444.042 549.669L462.13 557.33L474.472 565.203L478.515 558.819L470.429 551.371L444.042 549.669Z" fill="#DD8947"/>
<path d="M465.322 542.434L444.042 549.669L470.429 551.371L465.322 542.434Z" fill="#EBC162"/>
<path d="M863.896 379.003C863.896 379.003 846.446 326.016 804.525 304.736L811.334 320.909L812.398 361.128C812.824 380.067 811.973 398.794 809.632 417.52C806.44 442.418 800.694 467.102 792.608 490.936L769.838 557.755C769.838 557.755 840.275 493.277 861.981 431.139L827.933 399.645L863.896 379.003Z" fill="white"/>
<path d="M750.048 417.094C750.261 398.368 751.963 379.642 754.942 361.128L758.134 342.827L752.814 330.272L749.622 322.824C730.258 342.827 715.787 368.363 715.787 368.363L737.706 381.557L706.85 411.349C716.426 478.806 769.413 557.755 769.413 557.755L756.006 486.467C751.963 463.485 749.835 440.29 750.048 417.094Z" fill="white"/>
<path d="M809.419 417.307C789.842 420.074 769.626 420.074 750.048 417.094C749.835 440.29 751.963 463.485 756.219 486.254L769.626 557.542L792.395 490.723C800.482 466.89 806.227 442.418 809.419 417.307Z" fill="#7BE0F1"/>
<path d="M749.623 95.5536C736.855 91.0848 722.81 89.5952 709.616 93.2128C702.807 95.128 696.423 98.5328 691.103 103.002C698.338 119.387 714.511 130.666 733.45 130.666C750.687 130.666 765.795 121.302 773.669 107.258C766.008 102.789 758.135 98.5328 749.623 95.5536Z" fill="#151161"/>
<path d="M749.623 95.5536C758.135 98.5328 766.221 102.576 773.882 107.258C777.712 100.448 779.84 92.7872 779.84 84.488C779.84 58.952 759.199 38.3104 733.663 38.3104C708.127 38.3104 687.485 58.952 687.485 84.488C687.485 91.0848 688.762 97.256 691.315 103.002C696.635 98.32 703.019 94.9152 709.829 93.2128C722.81 89.5952 736.855 91.2976 749.623 95.5536Z" fill="#3732A7"/>
<path d="M659.608 289.202C642.371 271.114 627.262 250.472 619.176 226.851C611.09 203.23 610.451 176.205 621.73 153.861C632.157 133.219 652.16 117.898 674.504 111.939C696.848 105.981 721.32 109.173 741.962 119.6C753.027 110.875 770.903 111.726 782.181 120.238C791.331 127.261 796.013 138.539 798.992 149.818C808.143 183.866 804.738 220.893 789.842 252.813C751.538 274.518 703.658 286.648 659.608 289.202Z" fill="#3732A7"/>
<path d="M658.118 304.523C660.672 301.544 660.672 293.458 653.862 294.522L651.309 300.48L658.118 304.523Z" fill="#E0A02F"/>
<path d="M650.032 300.48C661.902 300.48 671.525 290.857 671.525 278.987C671.525 267.117 661.902 257.494 650.032 257.494C638.162 257.494 628.539 267.117 628.539 278.987C628.539 290.857 638.162 300.48 650.032 300.48Z" fill="#DB9387"/>
<path d="M637.69 281.115C638.966 287.925 645.35 292.606 652.373 291.33C659.182 290.053 663.864 283.669 662.587 276.646C661.31 269.837 654.926 265.155 647.904 266.432C641.094 267.709 636.413 274.306 637.69 281.115Z" fill="#D17E74"/>
<path d="M658.118 304.523C655.565 302.608 654.075 299.203 653.862 296.011C653.862 295.16 653.011 294.522 652.16 294.522C651.522 294.522 651.096 294.522 650.67 294.734C650.032 294.734 649.606 295.16 649.394 295.798C648.968 297.501 648.968 299.629 649.394 301.331C649.819 302.821 650.67 304.31 651.734 305.587C652.586 306.438 653.862 306.864 655.139 306.438C657.054 306.013 658.118 304.523 658.118 304.523Z" fill="#ECB344"/>
<path d="M784.522 241.322C772.818 236.002 739.621 217.488 727.278 170.672C720.682 189.824 708.126 207.061 692.166 219.403C678.973 229.618 663.226 236.427 646.84 239.406L652.586 271.965C658.97 308.779 694.082 333.464 730.896 327.08C767.71 320.696 792.395 285.584 786.011 248.77L784.522 241.322Z" fill="#E9B49D"/>
<path d="M807.717 273.454C810.271 270.688 810.483 262.389 803.461 263.453L800.695 269.411L807.717 273.454Z" fill="#E0A02F"/>
<path d="M801.333 268.56C813.203 268.56 822.826 258.937 822.826 247.067C822.826 235.197 813.203 225.574 801.333 225.574C789.463 225.574 779.84 235.197 779.84 247.067C779.84 258.937 789.463 268.56 801.333 268.56Z" fill="#E9B49D"/>
<path d="M813.888 247.067C813.888 254.09 808.142 259.622 801.333 259.622C794.31 259.622 788.778 253.877 788.778 247.067C788.778 240.045 794.523 234.512 801.333 234.512C808.355 234.512 813.888 240.258 813.888 247.067Z" fill="#DB9387"/>
<path d="M807.717 273.454C805.163 271.326 803.674 268.134 803.461 264.942C803.461 264.091 802.61 263.453 801.758 263.453C801.12 263.453 800.694 263.453 800.056 263.666C799.418 263.666 798.779 264.091 798.779 264.73C798.354 266.432 798.354 268.347 798.779 270.262C799.205 271.752 800.056 273.242 801.12 274.518C801.971 275.37 803.248 275.795 804.525 275.582C806.653 274.731 807.717 273.454 807.717 273.454Z" fill="#ECB344"/>
<path d="M675.355 229.192C667.694 230.469 661.736 235.789 659.608 241.96C670.674 237.491 682.59 235.363 694.507 235.789C690.251 230.894 683.016 227.915 675.355 229.192Z" fill="#3732A7"/>
<path d="M731.96 219.616C723.661 221.106 717.064 226.638 714.298 233.448C726.64 228.979 740.046 226.638 753.24 226.638C748.133 221.106 740.259 218.126 731.96 219.616Z" fill="#3732A7"/>
<path d="M740.046 238.768L736.216 239.619C735.152 238.768 733.875 238.342 732.598 238.342C729.406 238.342 726.853 240.896 726.853 244.088C726.853 247.28 729.406 249.834 732.598 249.834C735.79 249.834 738.344 247.28 738.344 244.088C738.344 243.662 738.344 243.237 738.131 242.811L740.685 239.832C741.11 239.406 740.685 238.555 740.046 238.768Z" fill="#272425"/>
<path d="M665.141 246.429L669.184 246.642C670.035 245.79 671.099 244.939 672.589 244.726C675.781 244.301 678.76 246.429 679.186 249.408C679.611 252.6 677.483 255.579 674.504 256.005C671.312 256.43 668.333 254.302 667.907 251.323C667.907 250.898 667.907 250.472 667.907 250.046L664.928 247.493C664.077 247.28 664.503 246.429 665.141 246.429Z" fill="#272425"/>
<path d="M707.062 277.072C701.742 277.923 696.422 278.349 691.315 278.349C692.805 281.328 695.997 283.669 699.402 283.669C702.594 283.456 705.573 280.051 707.062 277.072Z" fill="#DB9387"/>
<path d="M739.621 286.222C725.15 291.542 709.616 294.309 694.294 294.309C699.614 302.395 709.403 307.502 718.766 306.013C728.13 304.523 736.855 295.373 739.621 286.222Z" fill="white"/>
<path d="M683.442 183.227C697.061 176.418 706.637 164.714 710.893 151.094L641.52 185.355C654.501 190.462 669.61 190.037 683.442 183.227Z" fill="#151161"/>
<path d="M694.507 144.498C702.594 144.498 710.042 140.88 715.362 135.347L673.653 135.56C678.76 141.093 686.208 144.498 694.507 144.498Z" fill="#151161"/>
<path d="M754.73 166.416C760.262 174.502 768.774 179.61 777.712 181.099L749.41 139.816C747.494 148.754 749.197 158.33 754.73 166.416Z" fill="#151161"/>
<path d="M687.272 275.157C683.016 270.475 677.27 268.56 674.717 270.901L663.226 281.328C665.779 278.987 671.312 280.902 675.781 285.584C680.037 290.266 681.526 296.011 678.973 298.352L690.464 287.925C693.018 285.584 691.528 279.838 687.272 275.157Z" fill="#797979"/>
<path d="M675.781 285.584C671.525 280.902 665.779 278.987 663.226 281.328L655.352 288.563C657.906 286.222 663.438 288.138 667.907 292.819C672.163 297.501 673.653 303.246 671.099 305.587L678.973 298.352C681.526 296.011 680.037 290.266 675.781 285.584Z" fill="#B1B1B1"/>
<path d="M667.907 292.819C663.651 288.138 657.906 286.222 655.352 288.563L640.669 301.97L656.416 319.206L671.099 305.8C673.866 303.246 672.376 297.501 667.907 292.819Z" fill="#797979"/>
<path d="M745.366 275.157C741.11 270.475 735.365 268.56 732.811 270.901L721.32 281.328C723.874 278.987 729.406 280.902 733.875 285.584C738.131 290.266 739.621 296.011 737.067 298.352L748.558 287.925C751.112 285.584 749.622 279.838 745.366 275.157Z" fill="#797979"/>
<path d="M733.875 285.584C729.619 280.902 723.874 278.987 721.32 281.328L713.446 288.563C716 286.222 721.533 288.138 726.002 292.819C730.258 297.501 731.747 303.246 729.194 305.587L737.067 298.352C739.621 296.011 738.131 290.266 733.875 285.584Z" fill="#B1B1B1"/>
<path d="M726.002 292.819C721.746 288.138 716 286.222 713.446 288.563L698.763 301.97L714.51 319.206L729.194 305.8C731.747 303.246 730.47 297.501 726.002 292.819Z" fill="#797979"/>
<path d="M628.326 304.31L602.152 328.144H707.701V394.325L733.237 370.917C736.003 368.363 737.706 364.746 737.706 360.915V310.907C737.706 305.374 733.237 300.693 727.491 300.693H637.264C634.072 300.693 630.667 301.97 628.326 304.31Z" fill="#3732A7"/>
<path d="M707.914 406.454V459.229C696.635 479.232 658.331 485.19 658.331 485.19V406.454H707.914Z" fill="#3732A7"/>
<path d="M585.554 328.144H720.256L644.499 400.496C634.498 410.072 628.752 423.478 628.752 437.31V637.981H498.944V430.075C498.944 415.818 504.902 402.198 515.542 392.622L585.554 328.144Z" fill="#9FB5FE"/>
<path d="M720.256 328.144V395.176L677.696 433.693C673.866 437.31 671.525 442.205 671.525 447.525V637.981H628.539V437.31C628.539 423.478 634.285 410.072 644.286 400.496L720.256 328.144Z" fill="#84A0EF"/>
<path d="M657.48 637.981H469.79V691.819H657.48V637.981Z" fill="#B6C9FF"/>
<path d="M737.067 637.981H657.48V691.819H737.067V637.981Z" fill="#9FB5FE"/>
<path d="M639.179 650.536H633.434C635.349 650.536 636.838 652.026 636.838 653.941V676.072C636.838 677.987 635.349 679.477 633.434 679.477H639.179C641.094 679.477 642.584 677.987 642.584 676.072V653.941C642.584 652.026 641.094 650.536 639.179 650.536Z" fill="#4E4E4E"/>
<path d="M633.434 650.536H603.216H597.47C595.555 650.536 594.066 652.026 594.066 653.941V676.072C594.066 677.987 595.555 679.477 597.47 679.477H603.216H633.434C635.349 679.477 636.838 677.987 636.838 676.072V653.941C636.838 652.026 635.349 650.536 633.434 650.536Z" fill="#5E5E5E"/>
<path d="M629.178 657.133V673.731L623.006 668.198L627.05 664.155L629.178 657.133Z" fill="#D1422F"/>
<path d="M621.091 657.133H629.178L627.05 664.155H618.963L621.091 657.133Z" fill="#D6634F"/>
<path d="M614.92 668.198H623.006L627.05 664.155H618.963L614.92 668.198Z" fill="#DC925B"/>
<path d="M629.178 673.731H621.091L614.92 668.198H623.006L629.178 673.731Z" fill="#D6634F"/>
<path d="M611.515 673.731V657.133L605.557 662.666L609.387 666.709L611.515 673.731Z" fill="#D1422F"/>
<path d="M603.429 673.731H611.515L609.387 666.709H601.301L603.429 673.731Z" fill="#DC925B"/>
<path d="M597.258 662.666H605.557L609.387 666.709H601.301L597.258 662.666Z" fill="#D6634F"/>
<path d="M611.515 657.133H603.429L597.258 662.666H605.557L611.515 657.133Z" fill="#DC925B"/>
<path d="M524.48 651.813H519.16C523.842 651.813 527.672 655.643 527.672 660.325V672.242C527.672 676.923 523.842 680.754 519.16 680.754H524.48C529.161 680.754 532.992 676.923 532.992 672.242V660.325C532.992 655.643 529.161 651.813 524.48 651.813Z" fill="#4E4E4E"/>
<path d="M519.16 651.813H505.541H500.008C495.326 651.813 491.496 655.643 491.496 660.325V672.242C491.496 676.923 495.326 680.754 500.008 680.754H505.328H518.947C523.629 680.754 527.459 676.923 527.459 672.242V660.325C527.672 655.643 523.841 651.813 519.16 651.813Z" fill="#5E5E5E"/>
<path d="M472.344 461.782C469.365 461.782 467.024 466.89 467.024 473.061C467.024 479.232 469.365 484.339 472.344 484.339H498.731V461.782H472.344Z" fill="#3732A7"/>
<path d="M483.41 554.563C474.472 554.563 467.024 569.885 467.024 588.611C467.024 607.55 474.259 622.659 483.41 622.659H498.944V554.35H483.41V554.563Z" fill="#3732A7"/>
<path d="M485.538 440.715C484.048 440.715 482.771 443.269 482.771 446.248C482.771 449.227 484.048 451.781 485.538 451.781H498.731V440.502H485.538V440.715Z" fill="#3732A7"/>
<path d="M755.155 537.752H671.525V557.755H755.155V537.752Z" fill="#3732A7"/>
<path d="M863.896 417.094L864.322 432.629C865.173 468.592 873.685 504.13 889.006 536.688L898.795 557.542L863.896 417.094Z" fill="#D1DAFF"/>
<path d="M844.531 592.442C841.765 573.715 831.976 559.458 821.974 557.968C820.91 557.755 819.846 557.755 818.782 557.968C807.717 559.67 801.12 577.758 804.312 598.613C807.504 619.254 818.995 634.789 830.274 633.086C841.126 631.384 847.723 613.296 844.531 592.442Z" fill="#E4D3D5"/>
<path d="M835.806 574.992L783.67 579.674L785.373 615.424L831.55 618.616C835.594 613.083 838.36 606.486 839.424 599.677C840.488 591.378 839.211 582.653 835.806 574.992Z" fill="#E9B49D"/>
<path d="M848.574 573.715L835.594 574.992C839.211 582.653 840.275 591.378 838.998 599.677C837.934 606.486 835.168 613.083 831.125 618.616L854.107 620.318L848.574 573.715Z" fill="black"/>
<path d="M670.035 559.67L687.485 551.371C689.4 550.52 691.528 549.882 693.656 549.882L714.298 548.605C717.064 548.392 720.043 549.03 722.597 550.52L767.71 574.992H783.67C787.075 574.992 790.054 576.694 791.97 579.461C799.418 591.165 799.205 606.061 791.544 617.552C788.99 621.17 784.096 622.446 780.266 620.318L771.328 615.424L757.709 616.914C746.43 618.19 735.365 614.998 726.427 607.976L687.91 611.594C685.782 611.806 683.654 610.317 683.229 608.189C682.59 605.635 684.293 603.082 686.846 602.869L707.275 599.89L676.206 601.166C673.866 601.166 671.95 599.677 671.525 597.336C671.099 594.995 672.589 592.867 674.717 592.229L690.677 587.547L709.19 585.419L687.059 584.994L670.674 587.973C667.907 588.398 665.141 586.696 664.502 583.93C663.864 581.376 665.354 578.822 667.694 577.758L684.931 570.949L707.275 566.906L692.379 565.416L674.291 570.523C671.099 571.374 667.907 569.459 667.056 566.267C666.205 563.501 667.694 560.947 670.035 559.67Z" fill="#EBC162"/>
<path d="M725.576 552.01L738.344 603.082L735.365 598.826C725.789 585.206 722.171 568.182 725.576 552.01Z" fill="#DD8947"/>
<path d="M707.062 599.89L704.934 599.251C696.422 596.698 687.485 596.91 679.186 600.102L675.994 601.379L707.062 599.89Z" fill="#DD8947"/>
<path d="M708.765 585.206L699.827 583.078C691.315 581.163 682.59 582.014 674.504 585.632L670.248 587.547L686.634 584.568L708.765 585.206Z" fill="#DD8947"/>
<path d="M707.062 566.693L692.166 565.203L674.078 570.31L685.995 563.288C689.4 561.373 693.443 560.947 697.061 562.65L707.062 566.693Z" fill="#DD8947"/>
<path d="M693.443 611.168L705.147 607.976C711.531 606.274 718.554 606.061 724.938 607.763L726.214 607.976L693.443 611.168Z" fill="#DD8947"/>
<path d="M968.381 566.48L925.182 368.15C922.416 355.595 912.627 345.806 900.285 342.827C885.814 357.085 875.387 374.96 870.067 394.538L863.896 417.094L898.795 557.542L821.974 557.968C831.976 559.245 841.765 573.715 844.531 592.442C847.723 613.083 841.126 631.384 830.061 633.086L929.651 620.957C956.038 617.552 973.913 592.442 968.381 566.48Z" fill="white"/>
<path d="M898.795 557.542H949.229L937.312 550.733C924.544 543.498 908.159 546.264 898.795 557.542Z" fill="#D1DAFF"/>
<path d="M908.371 354.957C903.69 357.298 898.795 360.702 893.901 365.171C889.006 369.427 884.538 374.747 880.707 380.493C876.877 386.238 873.898 392.41 871.77 398.581C869.641 404.752 868.577 410.71 868.152 415.818C869.854 410.923 871.769 405.39 874.323 399.645C876.877 393.899 880.069 388.154 883.686 382.621C887.304 377.088 891.347 371.981 895.603 367.299C900.072 362.405 904.328 358.362 908.371 354.957Z" fill="#D1DAFF"/>
<path d="M869.003 415.605C873.259 410.923 878.579 405.178 884.538 399.858C890.496 394.538 896.88 389.856 901.987 386.238C895.816 387.515 888.155 391.346 881.984 397.091C875.813 402.411 871.131 409.434 869.003 415.605Z" fill="#D1DAFF"/>
<path d="M924.757 450.93C917.947 461.357 910.712 476.466 906.243 492.426C901.562 508.386 899.434 524.771 899.646 537.539C902.413 525.197 906.03 509.45 910.499 493.702C915.181 478.168 920.714 462.846 924.757 450.93Z" fill="#D1DAFF"/>
<path d="M898.582 440.502C895.39 451.355 892.837 466.038 892.837 480.722C892.624 495.405 894.539 510.301 897.518 521.154C897.306 509.875 896.667 495.405 896.88 480.934C896.88 466.251 897.944 451.781 898.582 440.502Z" fill="#D1DAFF"/>
<path d="M468.939 585.206C469.365 582.44 468.939 579.674 468.088 577.12C466.811 579.461 465.96 582.227 466.173 584.994C462.555 584.781 458.725 584.355 455.107 584.142C454.682 583.717 454.256 583.078 454.043 582.44C452.766 579.674 452.554 576.269 453.192 573.29C450.638 574.566 448.723 577.12 448.723 580.312C448.723 584.355 451.915 587.76 455.958 587.973L467.237 588.611L476.174 587.973C478.941 587.76 481.069 585.419 481.282 582.653C480.218 583.504 479.154 584.142 478.09 584.781C475.323 585.632 471.918 585.845 468.939 585.206Z" fill="#DD8947"/>
<path d="M477.664 577.12L470.216 574.354L457.874 572.438C456.384 572.226 454.682 572.438 453.405 573.077C452.766 576.056 452.979 579.461 454.256 582.227C454.469 582.866 454.894 583.504 455.32 583.93C458.938 584.142 462.768 584.568 466.386 584.781C466.173 582.014 467.024 579.461 468.301 576.907C469.152 579.461 469.578 582.227 469.152 584.994C471.918 585.845 475.536 585.419 478.302 584.355C479.579 583.93 480.643 583.078 481.494 582.227C481.494 582.227 481.494 582.227 481.494 582.014C481.282 579.886 479.792 577.971 477.664 577.12Z" fill="#EBC162"/>
<path d="M470.642 599.89C469.578 597.123 469.152 593.931 469.79 590.952C471.067 593.293 472.557 596.272 472.77 598.826C475.749 598.4 478.515 596.91 480.643 594.782C481.069 594.357 481.282 594.144 481.707 593.718C481.707 592.654 481.494 591.803 481.069 590.952C480.218 589.25 478.515 588.398 476.6 588.398H467.662L456.384 587.76V591.803C456.384 594.144 457.235 596.059 458.299 597.762C462.13 599.464 466.386 600.315 470.642 599.89Z" fill="#EBC162"/>
<path d="M480.43 594.995C478.302 597.123 475.536 598.4 472.557 599.038C472.344 596.272 470.854 593.506 469.578 591.165C469.152 594.144 469.365 597.336 470.429 600.102C466.386 600.528 461.917 599.677 458.086 597.974C459.576 599.89 461.704 601.379 464.045 601.805L466.386 602.23C468.939 602.869 471.706 602.23 474.046 600.954L478.728 598.187C480.218 597.336 481.069 595.634 481.282 594.144C481.069 594.357 480.856 594.782 480.43 594.995Z" fill="#DD8947"/>
<path d="M467.662 572.651C465.747 571.8 463.832 570.523 462.13 569.246C463.194 567.118 463.832 564.565 464.045 562.224C462.13 563.714 460.853 565.842 459.789 567.97L447.021 560.734C447.872 558.606 448.511 556.266 449.149 554.138C447.234 555.627 445.957 557.542 445.106 559.67C443.403 558.606 442.127 556.904 441.488 554.776C441.063 553.712 441.063 552.435 441.063 551.158C440.211 552.01 439.573 553.286 439.36 554.563C438.935 557.33 440.211 560.096 442.552 561.373L466.811 575.63C470.003 577.333 474.046 576.269 475.962 573.29C476.174 572.864 476.387 572.438 476.6 572.013C475.536 572.864 474.472 573.29 473.195 573.502C471.706 573.928 469.578 573.502 467.662 572.651Z" fill="#DD8947"/>
<path d="M473.834 563.714L449.362 550.094C446.595 548.605 443.403 549.456 441.488 551.371C441.275 552.648 441.488 553.712 441.914 554.989C442.552 556.904 443.829 558.606 445.531 559.883C446.382 557.755 447.659 555.627 449.574 554.35C448.723 556.478 448.085 558.819 447.446 560.947L460.214 568.182C461.066 565.842 462.555 563.926 464.47 562.437C464.258 564.778 463.619 567.331 462.555 569.459C464.258 570.736 466.173 572.013 468.088 572.864C470.003 573.715 472.131 574.141 474.046 573.928C475.323 573.715 476.387 573.29 477.451 572.438C478.09 569.034 476.813 565.416 473.834 563.714Z" fill="#EBC162"/>
<path d="M474.259 553.286C472.344 551.158 470.854 548.817 469.365 546.263C468.301 544.561 467.237 542.858 466.173 541.156C465.109 539.454 464.045 537.751 463.832 535.836C463.619 533.708 464.258 531.58 465.322 529.878C466.173 528.601 467.024 527.324 468.088 526.26C465.109 526.26 462.342 527.75 461.066 530.516C459.576 533.07 459.789 536.262 461.278 538.815L471.705 555.626C473.833 559.031 478.089 560.095 481.494 558.18C481.707 558.18 481.707 557.967 481.92 557.967H481.707C478.728 557.116 476.174 555.414 474.259 553.286Z" fill="#DD8947"/>
<path d="M484.686 548.605L477.451 531.155C476.174 528.176 473.195 526.048 470.003 526.048H468.088C467.024 527.112 465.96 528.389 465.322 529.666C464.258 531.368 463.619 533.496 463.832 535.624C464.045 537.539 465.109 539.242 466.173 540.944C467.237 542.646 468.301 544.349 469.365 546.051C470.854 548.392 472.344 550.946 474.259 553.074C476.174 555.202 478.728 556.904 481.494 557.33H481.707C484.899 555.84 486.176 552.01 484.686 548.605Z" fill="#EBC162"/>
<path d="M807.504 430.288C807.504 430.075 807.504 429.65 807.717 429.437C796.864 429.862 783.883 430.288 770.902 429.65C763.88 429.224 756.858 428.586 750.261 427.734C750.261 428.798 750.261 429.862 750.261 430.926C756.645 432.203 763.667 433.267 770.69 433.693C783.883 434.331 797.077 432.842 807.504 430.288Z" fill="#59C7D3"/>
<path d="M768.562 469.443C768.562 473.274 769.2 477.955 770.69 482.637C772.179 487.318 774.52 492 777.499 496.256C780.265 500.299 783.457 503.917 787.075 506.683L788.565 502.64C786.224 499.874 783.67 496.682 781.542 493.49C776.009 485.403 771.754 476.466 768.562 469.443Z" fill="#59C7D3"/>
<path d="M766.008 498.171C767.923 503.491 772.392 509.875 778.138 514.77C779.627 516.046 781.33 517.323 783.032 518.387L784.096 515.195C782.819 514.131 781.542 513.28 780.266 512.216C774.733 507.534 769.838 502.214 766.008 498.171Z" fill="#59C7D3"/>
<path d="M847.51 621.595C849.851 617.765 851.979 612.87 853.256 607.338C854.533 601.805 854.746 595.634 854.107 589.675C853.256 583.717 851.554 577.758 848.787 572.651C846.234 567.544 842.829 563.288 839.637 560.309C842.19 564.139 844.744 568.608 846.659 573.715C848.574 578.822 850.064 584.355 850.915 590.101C851.554 595.846 851.554 601.592 850.915 607.125C850.277 612.232 849 617.339 847.51 621.595Z" fill="#D1DAFF"/>
<path d="M573.85 420.074H516.181C513.84 420.074 511.925 418.158 511.925 415.818C511.925 413.477 513.84 411.562 516.181 411.562H573.85C576.19 411.562 578.106 413.477 578.106 415.818C578.106 418.158 576.19 420.074 573.85 420.074Z" fill="#E0DEDF"/>
<path d="M612.792 420.074H591.512C589.171 420.074 587.256 418.158 587.256 415.818C587.256 413.477 589.171 411.562 591.512 411.562H612.792C615.133 411.562 617.048 413.477 617.048 415.818C617.048 418.158 615.133 420.074 612.792 420.074Z" fill="#E0DEDF"/>
<path d="M856.874 650.11C845.382 650.11 836.019 659.474 836.019 670.965C836.019 682.456 845.382 691.819 856.874 691.819H1000.94V650.11H856.874Z" fill="#C85D6F"/>
<path d="M871.77 670.965C871.77 659.474 881.133 650.11 892.624 650.11H883.048C871.557 650.11 862.194 659.474 862.194 670.965C862.194 682.456 871.557 691.819 883.048 691.819H892.411C880.92 691.819 871.77 682.456 871.77 670.965Z" fill="#ECCD7C"/>
<path d="M939.866 670.965C939.866 659.474 949.229 650.11 960.72 650.11H951.357C939.866 650.11 930.502 659.474 930.502 670.965C930.502 682.456 939.866 691.819 951.357 691.819H960.72C949.229 691.819 939.866 682.456 939.866 670.965Z" fill="#ECCD7C"/>
<path d="M975.829 670.965C975.829 679.69 982.851 686.712 991.576 686.712H1097.34V655.218H991.576C982.851 655.218 975.829 662.24 975.829 670.965Z" fill="#FEFBF7"/>
<path d="M1030.94 663.73H977.318C976.467 663.73 975.616 662.878 975.616 662.027C975.616 661.176 976.467 660.325 977.318 660.325H1030.94C1031.8 660.325 1032.65 661.176 1032.65 662.027C1032.65 663.091 1031.8 663.73 1030.94 663.73Z" fill="#EFE1DF"/>
<path d="M1053.29 663.73H1041.37C1040.52 663.73 1039.67 662.878 1039.67 662.027C1039.67 661.176 1040.52 660.325 1041.37 660.325H1053.29C1054.14 660.325 1054.99 661.176 1054.99 662.027C1054.99 663.091 1054.35 663.73 1053.29 663.73Z" fill="#EFE1DF"/>
<path d="M1009.03 671.178H973.701C972.85 671.178 971.998 670.326 971.998 669.475C971.998 668.624 972.85 667.773 973.701 667.773H1009.03C1009.88 667.773 1010.73 668.624 1010.73 669.475C1010.73 670.539 1009.88 671.178 1009.03 671.178Z" fill="#EFE1DF"/>
<path d="M1073.93 671.178H1023.92C1023.07 671.178 1022.22 670.326 1022.22 669.475C1022.22 668.624 1023.07 667.773 1023.92 667.773H1073.93C1074.78 667.773 1075.63 668.624 1075.63 669.475C1075.63 670.539 1074.99 671.178 1073.93 671.178Z" fill="#EFE1DF"/>
<path d="M1086.91 671.178H1083.29C1082.44 671.178 1081.59 670.326 1081.59 669.475C1081.59 668.624 1082.44 667.773 1083.29 667.773H1086.91C1087.76 667.773 1088.61 668.624 1088.61 669.475C1088.61 670.539 1087.76 671.178 1086.91 671.178Z" fill="#EFE1DF"/>
<path d="M1041.58 680.754H976.042C975.191 680.754 974.339 679.902 974.339 679.051C974.339 678.2 975.191 677.349 976.042 677.349H1041.58C1042.44 677.349 1043.29 678.2 1043.29 679.051C1043.29 679.902 1042.44 680.754 1041.58 680.754Z" fill="#EFE1DF"/>
<path d="M1097.34 686.712H991.576C982.851 686.712 975.829 679.69 975.829 670.965C975.829 662.24 982.851 655.218 991.576 655.218H1097.34C1098.83 655.218 1099.89 654.154 1099.89 652.664C1099.89 651.174 1098.83 650.11 1097.34 650.11H991.576C980.085 650.11 970.722 659.474 970.722 670.965C970.722 682.456 980.085 691.819 991.576 691.819H1097.34C1098.83 691.819 1099.89 690.755 1099.89 689.266C1099.89 687.776 1098.83 686.712 1097.34 686.712Z" fill="#A54A59"/>
<path d="M923.693 554.563C914.968 554.563 907.946 561.586 907.946 570.31C907.946 579.035 914.968 586.058 923.693 586.058H1032.43V554.563H923.693V554.563Z" fill="#4E5A68"/>
<path d="M1013.49 570.31C1013.49 576.907 1018.81 582.227 1025.41 582.227H1105.21V558.606H1025.41C1018.81 558.394 1013.49 563.714 1013.49 570.31Z" fill="#FEFBF7"/>
<path d="M1054.99 564.99H1014.35C1013.71 564.99 1013.07 564.352 1013.07 563.714C1013.07 563.075 1013.71 562.437 1014.35 562.437H1054.99C1055.63 562.437 1056.27 563.075 1056.27 563.714C1056.27 564.352 1055.63 564.99 1054.99 564.99Z" fill="#EFE1DF"/>
<path d="M1072.01 564.99H1063.08C1062.44 564.99 1061.8 564.352 1061.8 563.714C1061.8 563.075 1062.44 562.437 1063.08 562.437H1072.01C1072.65 562.437 1073.29 563.075 1073.29 563.714C1073.29 564.352 1072.65 564.99 1072.01 564.99Z" fill="#EFE1DF"/>
<path d="M1038.39 570.523H1011.79C1011.15 570.523 1010.52 569.885 1010.52 569.246C1010.52 568.608 1011.15 567.97 1011.79 567.97H1038.39C1039.03 567.97 1039.67 568.608 1039.67 569.246C1039.67 569.885 1039.24 570.523 1038.39 570.523Z" fill="#EFE1DF"/>
<path d="M1087.55 570.523H1049.67C1049.03 570.523 1048.39 569.885 1048.39 569.246C1048.39 568.608 1049.03 567.97 1049.67 567.97H1087.55C1088.19 567.97 1088.83 568.608 1088.83 569.246C1088.83 569.885 1088.19 570.523 1087.55 570.523Z" fill="#EFE1DF"/>
<path d="M1097.34 570.523H1094.57C1093.93 570.523 1093.29 569.885 1093.29 569.246C1093.29 568.608 1093.93 567.97 1094.57 567.97H1097.34C1097.98 567.97 1098.61 568.608 1098.61 569.246C1098.61 569.885 1097.98 570.523 1097.34 570.523Z" fill="#EFE1DF"/>
<path d="M1063.08 577.758H1013.49C1012.86 577.758 1012.22 577.12 1012.22 576.482C1012.22 575.843 1012.86 575.205 1013.49 575.205H1063.08C1063.72 575.205 1064.35 575.843 1064.35 576.482C1064.35 577.12 1063.72 577.758 1063.08 577.758Z" fill="#EFE1DF"/>
<path d="M1105.21 582.227H1025.41C1018.81 582.227 1013.49 576.907 1013.49 570.31C1013.49 563.714 1018.81 558.394 1025.41 558.394H1105.21C1106.28 558.394 1107.13 557.542 1107.13 556.478C1107.13 555.414 1106.28 554.563 1105.21 554.563H1025.41C1016.69 554.563 1009.66 561.586 1009.66 570.31C1009.66 579.035 1016.69 586.058 1025.41 586.058H1105.21C1106.28 586.058 1107.13 585.206 1107.13 584.142C1107.13 583.078 1106.28 582.227 1105.21 582.227Z" fill="#3D444D"/>
<path d="M1004.98 586.058H1131.6C1133.51 586.058 1135 587.547 1135 589.462C1135 591.378 1133.51 592.867 1131.6 592.867H1004.98C1003.07 592.867 1001.58 591.378 1001.58 589.462C1001.58 587.547 1003.28 586.058 1004.98 586.058Z" fill="#8C5233"/>
<path d="M1004.98 646.706H1131.6C1133.51 646.706 1135 648.195 1135 650.11C1135 652.026 1133.51 653.515 1131.6 653.515H1004.98C1003.07 653.515 1001.58 652.026 1001.58 650.11C1001.58 648.195 1003.28 646.706 1004.98 646.706Z" fill="#8C5233"/>
<path d="M1005.1 646.762H1130.23V592.711H1005.1V646.762Z" fill="#EFE1DF"/>
<path d="M865.598 608.189V631.597C865.598 640.109 872.408 646.918 880.92 646.918H1004.98V592.867H880.92C872.621 592.867 865.598 599.677 865.598 608.189Z" fill="white"/>
<path d="M920.075 603.72H863.896C863.045 603.72 862.194 602.869 862.194 602.018C862.194 601.166 863.045 600.315 863.896 600.315H920.075C920.926 600.315 921.778 601.166 921.778 602.018C921.778 603.082 920.926 603.72 920.075 603.72Z" fill="#EFE1DF"/>
<path d="M960.72 603.72H933.694C932.843 603.72 931.992 602.869 931.992 602.018C931.992 601.166 932.843 600.315 933.694 600.315H960.72C961.571 600.315 962.422 601.166 962.422 602.018C962.422 603.082 961.571 603.72 960.72 603.72Z" fill="#EFE1DF"/>
<path d="M964.763 615.637H903.051C902.2 615.637 901.349 614.786 901.349 613.934C901.349 613.083 902.2 612.232 903.051 612.232H964.763C965.615 612.232 966.466 613.083 966.466 613.934C966.466 614.998 965.615 615.637 964.763 615.637Z" fill="#EFE1DF"/>
<path d="M928.587 628.618H875.174C874.323 628.618 873.472 627.766 873.472 626.915C873.472 626.064 874.323 625.213 875.174 625.213H928.587C929.438 625.213 930.29 626.064 930.29 626.915C930.29 627.979 929.438 628.618 928.587 628.618Z" fill="#EFE1DF"/>
<path d="M984.128 628.618H959.869C959.018 628.618 958.167 627.766 958.167 626.915C958.167 626.064 959.018 625.213 959.869 625.213H984.128C984.979 625.213 985.83 626.064 985.83 626.915C985.83 627.979 984.979 628.618 984.128 628.618Z" fill="#EFE1DF"/>
<path d="M947.526 640.322H863.896C863.045 640.322 862.194 639.47 862.194 638.619C862.194 637.768 863.045 636.917 863.896 636.917H947.526C948.378 636.917 949.229 637.768 949.229 638.619C949.229 639.47 948.378 640.322 947.526 640.322Z" fill="#EFE1DF"/>
<path d="M880.92 653.515H1004.98C1006.9 653.515 1008.39 652.026 1008.39 650.11C1008.39 648.195 1006.9 646.706 1004.98 646.706H880.92C872.408 646.706 865.599 639.896 865.599 631.384V607.976C865.599 599.464 872.408 592.654 880.92 592.654H1004.98C1006.9 592.654 1008.39 591.165 1008.39 589.25C1008.39 587.334 1006.9 585.845 1004.98 585.845H880.92C868.791 585.845 858.789 595.846 858.789 607.976V631.384C858.789 643.726 868.791 653.515 880.92 653.515Z" fill="#BB6C4E"/>
<path d="M136.758 449.44V390.707H180.595V449.653C180.595 460.718 186.979 470.72 196.768 475.827C224.006 490.085 242.52 518.813 241.456 552.01C240.179 595.208 205.067 630.533 161.869 632.022C114.627 633.725 75.8975 596.059 75.8975 549.243C75.8975 517.323 93.9855 489.659 120.586 475.827C130.374 470.72 136.758 460.718 136.758 449.44Z" fill="white"/>
<path d="M134.843 390.707H182.298C185.702 390.707 188.469 387.941 188.469 384.536C188.469 381.131 185.702 378.365 182.298 378.365H134.843C131.438 378.365 128.672 381.131 128.672 384.536C128.672 387.941 131.438 390.707 134.843 390.707Z" fill="white"/>
<path d="M174.637 557.33C166.125 559.245 157.613 561.373 148.888 562.224C128.672 564.565 107.818 561.16 89.5168 552.648C113.563 547.966 150.803 549.456 174.637 557.33Z" fill="#BE6573"/>
<path d="M148.888 562.437C157.613 561.373 166.125 559.458 174.637 557.542C180.382 556.266 186.128 554.776 191.874 553.712C203.79 551.584 216.133 550.52 227.624 553.286C225.709 589.675 195.491 618.616 158.464 618.616C121.437 618.616 91.0064 589.462 89.304 552.648C108.03 561.16 128.672 564.565 148.888 562.437Z" fill="#E16878"/>
<path d="M187.83 529.878C187.83 532.006 189.533 533.922 191.874 533.922C194.002 533.922 195.917 532.219 195.917 529.878C195.917 527.75 194.214 525.835 191.874 525.835C189.746 525.835 187.83 527.75 187.83 529.878Z" fill="#E16878"/>
<path d="M161.018 535.411C161.018 537.965 163.146 540.093 165.699 540.093C168.253 540.093 170.381 537.965 170.381 535.411C170.381 532.858 168.253 530.73 165.699 530.73C163.146 530.942 161.018 532.858 161.018 535.411Z" fill="#E16878"/>
<path d="M143.781 518.174C143.781 520.09 145.27 521.579 147.186 521.579C149.101 521.579 150.59 520.09 150.59 518.174C150.59 516.259 149.101 514.77 147.186 514.77C145.27 514.77 143.781 516.259 143.781 518.174Z" fill="#E16878"/>
<path d="M163.358 505.194C163.358 508.598 166.125 511.578 169.742 511.578C173.147 511.578 176.126 508.811 176.126 505.194C176.126 501.576 173.36 498.81 169.742 498.81C166.125 498.81 163.358 501.789 163.358 505.194Z" fill="#E16878"/>
<path d="M136.333 493.702C136.333 495.83 138.035 497.533 140.163 497.533C142.291 497.533 143.994 495.83 143.994 493.702C143.994 491.574 142.291 489.872 140.163 489.872C138.035 490.085 136.333 491.787 136.333 493.702Z" fill="#E16878"/>
<path d="M122.501 529.878C122.501 532.006 124.203 533.922 126.544 533.922C128.672 533.922 130.587 532.219 130.587 529.878C130.587 527.75 128.885 525.835 126.544 525.835C124.203 525.835 122.501 527.75 122.501 529.878Z" fill="#E16878"/>
<path d="M157.187 486.042C159.303 486.042 161.018 484.327 161.018 482.211C161.018 480.096 159.303 478.381 157.187 478.381C155.072 478.381 153.357 480.096 153.357 482.211C153.357 484.327 155.072 486.042 157.187 486.042Z" fill="#E16878"/>
<path d="M193.15 578.184C195.853 578.184 198.045 575.993 198.045 573.29C198.045 570.587 195.853 568.395 193.15 568.395C190.447 568.395 188.256 570.587 188.256 573.29C188.256 575.993 190.447 578.184 193.15 578.184Z" fill="#BE6573"/>
<path d="M181.659 589.888C181.659 591.59 182.936 592.867 184.638 592.867C186.341 592.867 187.617 591.59 187.617 589.888C187.617 588.186 186.341 586.909 184.638 586.909C183.149 586.909 181.659 588.186 181.659 589.888Z" fill="#BE6573"/>
<path d="M161.869 575.205C161.869 578.184 164.21 580.525 167.189 580.525C170.168 580.525 172.509 578.184 172.509 575.205C172.509 572.226 170.168 569.885 167.189 569.885C164.21 569.885 161.869 572.438 161.869 575.205Z" fill="#BE6573"/>
<path d="M158.038 594.57C158.038 597.123 160.166 599.251 162.72 599.251C165.274 599.251 167.401 597.123 167.401 594.57C167.401 592.016 165.274 589.888 162.72 589.888C159.954 589.888 158.038 592.016 158.038 594.57Z" fill="#BE6573"/>
<path d="M133.566 599.89C133.566 602.869 135.907 604.997 138.674 604.997C141.653 604.997 143.781 602.656 143.781 599.89C143.781 596.91 141.44 594.57 138.674 594.57C135.907 594.57 133.566 596.91 133.566 599.89Z" fill="#BE6573"/>
<path d="M138.674 578.61C138.674 580.099 139.738 581.163 141.227 581.163C142.717 581.163 143.781 580.099 143.781 578.61C143.781 577.12 142.717 576.056 141.227 576.056C139.95 576.056 138.674 577.12 138.674 578.61Z" fill="#BE6573"/>
<path d="M112.286 580.099C112.286 582.866 114.414 584.994 117.181 584.994C119.947 584.994 122.075 582.866 122.075 580.099C122.075 577.333 119.947 575.205 117.181 575.205C114.414 575.205 112.286 577.546 112.286 580.099Z" fill="#BE6573"/>
<path d="M383.181 673.731C385.096 673.731 386.798 672.029 386.798 670.114V216.211C386.798 214.296 385.096 212.594 383.181 212.594C381.266 212.594 379.563 214.296 379.563 216.211V670.114C379.563 672.029 381.266 673.731 383.181 673.731Z" fill="#505050"/>
<path d="M353.389 691.819H413.186L389.352 670.114H377.222L353.389 691.819Z" fill="#CBCBCB"/>
<path d="M114.202 414.966H413.186C415.101 414.966 416.803 413.264 416.803 411.349C416.803 409.434 415.101 407.731 413.186 407.731H114.202C112.286 407.731 110.584 409.434 110.584 411.349C110.371 413.477 112.074 414.966 114.202 414.966Z" fill="#505050"/>
<path d="M369.987 411.349C369.987 418.584 375.946 424.542 383.181 424.542C390.416 424.542 396.374 418.584 396.374 411.349C396.374 404.114 390.416 398.155 383.181 398.155C375.946 398.155 369.987 404.114 369.987 411.349Z" fill="#6D7797"/>
<path d="M129.098 678.838H188.043L199.96 691.819H117.394L129.098 678.838Z" fill="#98999B"/>
<path d="M147.398 665.858H169.955L181.659 678.838H135.482L147.398 665.858Z" fill="#CBCBCB"/>
<path d="M134.63 626.064C142.291 625.638 150.165 630.32 153.357 637.342C154.846 633.299 154.846 628.618 153.357 624.574C156.336 625 159.315 626.277 161.443 628.618C163.571 630.746 164.848 633.725 165.061 636.704C168.253 633.512 173.573 632.448 178.041 633.299C175.488 633.938 173.998 636.917 173.785 639.47C173.573 642.024 174.211 644.79 174.211 647.344C174.211 651.813 172.296 656.282 169.104 659.261C165.912 662.453 161.443 664.155 156.974 663.942C150.803 663.73 144.206 660.325 142.078 654.579C141.014 651.387 141.014 647.77 141.44 644.365C141.653 640.96 142.078 637.342 141.44 634.15C140.801 630.533 137.822 627.128 134.63 626.064Z" fill="#E2AC42"/>
<path d="M145.483 641.386C145.057 645.429 145.057 649.898 146.973 653.515C149.313 657.771 154.208 660.538 159.102 660.112C163.997 659.686 168.465 656.069 169.742 651.387C170.806 648.195 170.381 644.578 169.955 641.386C169.104 643.726 167.401 645.854 165.273 647.131C164.422 643.514 162.294 640.109 159.315 637.981C159.315 642.024 156.549 646.28 152.931 647.77C152.293 643.726 149.313 639.896 145.483 638.406C145.696 638.832 145.696 640.747 145.483 641.386Z" fill="#D78C1B"/>
<path d="M147.824 598.826C150.378 599.89 152.08 602.018 153.144 604.571C154.208 606.912 154.634 609.678 155.485 612.232C156.336 614.786 157.4 617.339 159.528 619.042C155.272 619.042 151.654 615.637 149.739 611.806C148.037 607.763 147.824 603.082 147.824 598.826Z" fill="#E2AC42"/>
<path d="M174.424 627.128C176.978 621.17 183.149 617.126 189.533 617.339C188.682 620.106 186.554 622.659 184 624.362C181.446 625.851 177.403 627.341 174.424 627.128Z" fill="#E2AC42"/>
<path d="M133.141 624.362C132.502 622.021 130.162 620.531 128.034 619.254C125.906 617.978 123.565 616.701 122.714 614.36C121.437 616.914 122.075 620.957 124.203 623.085C126.118 625.213 130.374 625.426 133.141 624.362Z" fill="#E2AC42"/>
<path d="M171.445 314.312C170.594 314.312 169.742 314.312 168.891 314.525C169.53 312.184 169.955 309.63 169.955 307.077C169.955 303.459 169.317 300.054 168.04 297.075C179.318 295.16 187.618 285.371 187.618 273.667C187.618 260.474 176.978 249.834 163.784 249.834C158.89 249.834 154.208 251.323 150.59 253.877C146.122 239.832 132.928 229.618 117.606 229.618C98.4544 229.618 82.92 245.152 82.92 264.304C82.92 283.456 98.4544 298.99 117.606 298.99C118.032 298.99 118.458 298.99 118.883 298.99C118.032 301.544 117.606 304.31 117.606 307.077C117.606 321.547 129.31 333.251 143.781 333.251C146.76 333.251 149.739 332.826 152.293 331.762C152.293 332.4 152.293 333.038 152.293 333.677C152.293 338.784 154.208 343.466 157.4 346.87C151.867 347.509 147.611 352.19 147.611 357.936C147.611 364.107 152.506 369.002 158.677 369.002C164.848 369.002 169.742 364.107 169.742 357.936C169.742 356.021 169.317 354.318 168.466 352.829C169.317 353.042 170.381 353.042 171.232 353.042C181.872 353.042 190.597 344.317 190.597 333.677C190.81 323.037 182.085 314.312 171.445 314.312Z" fill="white"/>
<path d="M194.427 202.592C194.427 214.722 184.638 224.51 172.509 224.51C160.379 224.51 150.59 214.722 150.59 202.592C150.59 190.462 160.379 180.674 172.509 180.674C184.638 180.674 194.427 190.462 194.427 202.592Z" fill="white"/>
<path d="M88.24 213.445C88.24 219.403 83.3456 224.51 77.1744 224.51C71.216 224.51 66.1088 219.616 66.1088 213.445C66.1088 207.486 71.0032 202.379 77.1744 202.379C83.3456 202.592 88.24 207.486 88.24 213.445Z" fill="white"/>
<path d="M340.195 413.477L299.337 323.25C293.379 310.269 290.4 296.011 290.4 281.754V234.725H254.224V281.754C254.224 296.011 251.245 310.269 245.286 323.25L204.216 413.477C197.194 428.798 208.472 446.248 225.283 446.248H318.915C335.939 446.248 347.217 428.798 340.195 413.477Z" fill="white"/>
<path d="M289.974 224.51H254.437C251.67 224.51 249.33 226.851 249.33 229.618C249.33 232.384 251.67 234.725 254.437 234.725H289.974C292.741 234.725 295.082 232.384 295.082 229.618C295.294 226.851 292.954 224.51 289.974 224.51Z" fill="white"/>
<path d="M235.072 366.235C244.222 371.981 255.288 374.322 265.928 373.045C272.312 372.194 278.483 370.066 284.654 367.512C273.802 364.533 251.245 360.064 235.072 366.235Z" fill="#DD8947"/>
<path d="M332.534 417.094L305.721 357.936C303.381 358.787 301.253 359.851 298.912 360.702C294.23 362.83 289.336 365.171 284.654 367.299C278.696 369.853 272.525 371.981 265.928 372.832C255.288 374.322 244.222 371.768 235.072 366.022L212.09 416.882C209.962 421.563 210.387 426.67 213.154 430.926C215.92 435.182 220.389 437.736 225.496 437.736H319.128C324.235 437.736 328.704 435.182 331.47 430.926C334.237 426.883 334.449 421.563 332.534 417.094Z" fill="#EBC162"/>
<path d="M254.862 388.792C254.862 391.133 252.947 393.048 250.606 393.048C248.266 393.048 246.35 391.133 246.35 388.792C246.35 386.451 248.266 384.536 250.606 384.536C252.947 384.536 254.862 386.451 254.862 388.792Z" fill="#DD8947"/>
<path d="M275.717 402.411C275.717 404.965 273.589 407.093 271.035 407.093C268.482 407.093 266.354 404.965 266.354 402.411C266.354 399.858 268.482 397.73 271.035 397.73C273.589 397.942 275.717 399.858 275.717 402.411Z" fill="#DD8947"/>
<path d="M281.462 385.813C281.462 387.302 280.186 388.579 278.696 388.579C277.206 388.579 275.93 387.302 275.93 385.813C275.93 384.323 277.206 383.046 278.696 383.046C280.186 383.046 281.462 384.323 281.462 385.813Z" fill="#DD8947"/>
<path d="M301.891 395.814C301.891 398.581 299.55 400.922 296.784 400.922C294.018 400.922 291.677 398.581 291.677 395.814C291.677 393.048 294.018 390.707 296.784 390.707C299.55 390.707 301.891 393.048 301.891 395.814Z" fill="#DD8947"/>
<path d="M256.139 412.626C256.139 415.392 254.011 417.52 251.245 417.52C248.478 417.52 246.35 415.392 246.35 412.626C246.35 409.859 248.478 407.731 251.245 407.731C254.011 407.731 256.139 410.072 256.139 412.626Z" fill="#DD8947"/>
<path d="M282.526 421.776C282.526 424.117 280.611 426.032 278.27 426.032C275.93 426.032 274.014 424.117 274.014 421.776C274.014 419.435 275.93 417.52 278.27 417.52C280.611 417.52 282.526 419.435 282.526 421.776Z" fill="#DD8947"/>
<path d="M243.158 259.622H412.973C414.888 259.622 416.59 258.346 416.803 256.43C417.016 254.302 415.314 252.387 413.186 252.387H243.371C241.456 252.387 239.754 253.664 239.541 255.792C239.328 257.92 241.03 259.622 243.158 259.622Z" fill="#505050"/>
<path d="M369.987 256.005C369.987 263.24 375.946 269.198 383.181 269.198C390.416 269.198 396.374 263.24 396.374 256.005C396.374 248.77 390.416 242.811 383.181 242.811C375.946 243.024 369.987 248.77 369.987 256.005Z" fill="#6D7797"/>
<path d="M463.194 542.434C463.194 534.56 456.81 528.176 448.936 528.176C441.063 528.176 434.678 534.56 434.678 542.434C434.678 549.03 439.36 554.776 445.531 556.266V676.498C445.531 678.413 447.021 679.902 448.936 679.902C450.851 679.902 452.341 678.413 452.341 676.498V556.266C458.512 554.776 463.194 549.03 463.194 542.434ZM448.936 549.882C444.893 549.882 441.488 546.477 441.488 542.434C441.488 538.39 444.893 534.986 448.936 534.986C452.979 534.986 456.384 538.39 456.384 542.434C456.384 546.477 452.979 549.882 448.936 549.882Z" fill="#505050"/>
<path d="M269.546 516.898L273.802 527.75C274.866 530.304 275.291 533.07 275.291 535.624V635.214C275.291 647.131 284.654 657.346 296.358 657.558C308.488 657.771 318.277 647.982 318.277 636.066V535.624C318.277 532.858 318.702 530.304 319.766 527.75L324.022 516.898H269.546Z" fill="white"/>
<path d="M302.104 583.291C298.273 583.078 294.443 581.802 290.4 581.376C288.272 581.163 285.931 581.163 283.803 581.589V635.853C283.803 643.088 289.549 648.834 296.784 648.834C304.019 648.834 309.765 642.875 309.765 635.853V582.653C307.211 583.291 304.657 583.504 302.104 583.291Z" fill="#7BE0F1"/>
<path d="M332.109 516.898L336.365 527.75C337.429 530.304 337.854 533.07 337.854 535.624V635.214C337.854 647.131 347.218 657.346 358.922 657.558C371.051 657.771 380.84 647.982 380.84 636.066V535.624C380.84 532.858 381.266 530.304 382.33 527.75L386.586 516.898H332.109Z" fill="white"/>
<path d="M364.454 583.291C360.624 583.078 356.794 581.802 352.75 581.376C350.622 581.163 348.282 581.163 346.154 581.589V635.853C346.154 643.088 351.899 648.834 359.134 648.834C366.37 648.834 372.115 642.875 372.115 635.853V582.653C369.774 583.291 367.008 583.504 364.454 583.291Z" fill="#E16878"/>
<path d="M394.459 516.898L398.715 527.75C399.779 530.304 400.205 533.07 400.205 535.624V635.214C400.205 647.131 409.568 657.346 421.272 657.558C433.402 657.771 443.19 647.982 443.19 636.066V535.624C443.19 532.858 443.616 530.304 444.68 527.75L448.936 516.898H394.459Z" fill="white"/>
<path d="M426.805 583.291C422.974 583.078 419.144 581.802 415.101 581.376C412.973 581.163 410.632 581.163 408.504 581.589V635.853C408.504 643.088 414.25 648.834 421.485 648.834C428.72 648.834 434.465 642.875 434.465 635.853V582.653C432.125 583.291 429.571 583.504 426.805 583.291Z" fill="#EBC162"/>
<path d="M470.854 539.029H275.93C274.44 532.858 268.694 528.176 262.098 528.176C255.501 528.176 249.755 532.858 248.266 539.029H236.349C234.434 539.029 232.944 540.518 232.944 542.434C232.944 544.349 234.434 545.838 236.349 545.838H248.266C249.542 550.946 253.586 554.989 258.693 556.266V676.498C258.693 678.413 260.182 679.902 262.098 679.902C264.013 679.902 265.502 678.413 265.502 676.498V556.266C270.61 554.989 274.653 550.946 275.93 545.838H470.854C472.77 545.838 474.259 544.349 474.259 542.434C474.259 540.518 472.77 539.029 470.854 539.029ZM262.098 549.882C258.054 549.882 254.65 546.477 254.65 542.434C254.65 538.39 258.054 534.986 262.098 534.986C266.141 534.986 269.546 538.39 269.546 542.434C269.546 546.477 266.354 549.882 262.098 549.882Z" fill="#505050"/>
<path d="M301.253 673.731H223.155C216.558 673.731 211.238 679.051 211.238 685.648V691.819H313.17V685.648C313.17 679.051 307.85 673.731 301.253 673.731Z" fill="#87735B"/>
<path d="M485.538 673.731H291.251C284.654 673.731 279.334 679.051 279.334 685.648V691.819H497.454V685.648C497.454 679.051 492.134 673.731 485.538 673.731Z" fill="#AB9575"/>
</svg>
