<svg width="421" height="421" viewBox="0 0 421 421" fill="none" xmlns="http://www.w3.org/2000/svg">
<path d="M417.3 76.3C413.3 72.3 406.7 72.3 402.6 76.3C401.4 77.5 399.5 76.6 397.5 74.6C385.6 62.8 346.2 23.7 344.8 21.9C343.1 19.8 343.4 18.3 344 17.7C348 13.7 348.1 7.10001 344 3.10001C340 -0.999991 333.4 -0.899991 329.3 3.10001C298.6 34 290.5 74.3 286.1 113.6C285.9 115 285.4 115.6 284.2 115.7C239 120.2 191.3 123.3 157.2 156.9C123.5 190.9 120.5 238.7 116 283.9C115.9 284.9 114.8 285.8 113.5 285.9C74.4 290.3 34.3 298.4 3.40002 329.1C-0.599976 333.1 -0.599976 339.7 3.40002 343.8C7.40002 347.8 14 347.8 18.1 343.8C19.1 342.8 20 341.9 21 341C22.5 339.6 23.5 339.4 25.6 341.5C36.3 352.2 78.7 394.5 79.7 395.6C80.8 396.8 80.3 398.6 79.7 399.3C78.7 400.4 77.7 401.4 76.7 402.4C72.7 406.4 72.7 413 76.7 417.1C80.7 421.1 87.3 421.1 91.4 417.1C122.1 386.2 130.1 346.1 134.6 306.8C134.8 305.2 135.1 304.6 136.6 304.4C181.8 299.9 229.5 296.8 263.6 263.2C297.3 229.2 300.3 181.4 304.8 136.2C304.9 135 305.5 134.4 307 134.2C346.3 129.8 386.5 121.7 417.5 91C421.4 86.9 421.4 80.3 417.3 76.3ZM102.1 361.2C100 366.8 97.7 372.3 94.9 377.5C94.5 378.2 93.1 378.9 91.8 377.6C82.6 368.4 44.8 330.6 43.1 328.9C41.2 327 42.5 325.6 43.4 325.2C48.6 322.5 54.1 320.1 59.7 318.1C60.6 317.8 62.8 317.6 64.1 318.9C65.1 320 92.9 347.7 101 355.8C103.2 358 102.9 358.9 102.1 361.2ZM113.5 308.7C112.6 316.4 111.4 324 110 331.4C109.8 332.4 109.1 334.2 107.7 332.6C106.6 331.3 93.2 318 88 312.9C86.8 311.7 88.1 310.5 89.2 310.3C96.5 308.9 104 307.8 111.6 306.9C112.7 306.8 113.6 307.3 113.5 308.7ZM146.5 282.5C144.1 282.7 141.7 283 139.3 283.2C137.4 283.4 137 282.2 137.1 280.8C137.3 278.4 137.5 276.1 137.8 273.8C137.9 272.9 138.4 271.5 140.1 273.2C141.2 274.3 144.6 277.7 146.9 280C148.2 281.3 147.4 282.4 146.5 282.5ZM199.1 274.4C192.4 276.1 185.4 277.5 178.1 278.7C177.3 278.8 175.7 278.8 174.1 277.3C172.8 276 150.4 253.6 143.4 246.6C141.3 244.5 141.5 243.2 141.8 241.2C142.9 234.6 144.2 228.2 145.7 222C146.3 219.7 147.6 220.1 149 221.3C149 221.3 198 270.4 199.4 271.7C200.8 272.8 200 274.2 199.1 274.4ZM240.7 255.6C236.2 259 231.4 262 226.3 264.6C224.4 265.6 223.2 265.4 221.5 263.7C210.1 252.3 157.3 199.5 156.2 198.4C155 197.2 155.2 195.2 155.5 194.5C158.1 189.2 161.2 184.3 164.7 179.6C165.3 178.8 167.4 178.6 168 179.1C168 179.1 239 250 240.3 251.4C241.7 253 241.3 255.1 240.7 255.6ZM267 221.7C264.7 226.8 262 231.6 259 236.1C258.4 237 256.4 237.9 254.6 236C252.7 234.1 182.9 164.3 182.9 164.3C182.3 163.7 182.5 162.5 183.5 161.8C188.2 158.5 193.3 155.7 198.6 153.3C199.6 152.9 201.6 152.1 204.1 154.6C206.3 156.7 253.9 204.4 265.6 216.1C267.4 217.8 267.5 220.7 267 221.7ZM279.9 172.2C278.9 179.5 277.6 186.7 276.1 193.5C275.9 194.4 275.1 195.6 273.6 194.2C272.1 192.8 227.8 148.5 226.2 146.8C224.6 145.2 226 144.4 226.8 144.3C233.3 142.8 240 141.7 246.9 140.7C248.1 140.5 249.9 139.7 252.2 141.9C254.1 143.8 272.3 162 278.3 168C279.6 169.1 280.1 171.4 279.9 172.2ZM283.3 142.9L277.5 137.1C279.6 136.9 281.8 136.7 283.9 136.5C283.7 138.6 283.5 140.8 283.3 142.9ZM337.9 108.3C330.6 109.9 323.1 111 315.5 112.1C307.8 113.2 307.2 112.2 308.2 104.9C309.2 97.3 310.4 89.9 311.9 82.7C312.1 81.9 313.2 81 314.4 82.2C320.3 88.1 337.7 105.4 338.4 106.2C339.2 107.1 338.6 108.2 337.9 108.3ZM380.2 93.2C376 95.6 371.6 97.7 367 99.5C365.7 100 362.9 100.4 360.6 98.4C358.6 96.8 332.4 70.3 322.8 60.6C320.6 58.4 320.3 54.3 320.9 52.9C322.8 48.3 324.9 43.9 327.4 39.6C328.1 38.4 330.6 37.3 332.5 39.2C343.2 49.9 378.3 84.8 380.7 87.4C383.4 90.5 381.5 92.5 380.2 93.2Z" fill="#00AEB3" fill-opacity="0.1"/>
<path d="M114.6 298.5C114.8 296.8 114.9 295.2 115.1 293.5C115.3 291.5 113.7 291.6 112.9 291.7C74.6 296.1 36.8 304 7.50002 333.1C5.70002 334.9 5.70002 337.8 7.50002 339.6C9.30002 341.4 12.2 341.4 13.9 339.6C38.9 314.3 73.1 305.8 112.2 301.1C114 300.8 114.5 299.7 114.6 298.5Z" fill="#38353B" fill-opacity="0.1"/>
<path d="M340 7.1C338.2 5.3 335.3 5.3 333.5 7.1C298.9 41.9 294.3 88.9 289.8 134.6C285.7 178.7 281.6 224.2 252.9 252.4C226.2 279.5 183.9 284.8 141.9 288.7C141.6 291.8 141.3 294.9 141 297.9L142.6 297.7C184.8 293.6 228.5 289.3 259.3 258.8C289.9 227.9 294.1 184.2 298.2 142L298.9 135.4C303.5 86.4 309.7 43.4 339.9 13.4C341.8 11.8 341.8 8.9 340 7.1Z" fill="#38353B" fill-opacity="0.1"/>
<path d="M118.4 314.9C113.4 351.1 104.5 382.8 80.8 406.3C79 408.1 79 411 80.8 412.8C82.6 414.6 85.5 414.6 87.3 412.8C114.7 385.2 123.3 350 127.9 313.8L131.1 284C135.1 240.3 139.5 195.4 167.9 167.4C195.6 139.3 239.7 134.7 283 130.7C283.5 130.7 284.6 129.4 284.7 128.9C284.9 126.9 285.1 125 285.3 123C285.4 121.7 284.8 121.2 283.9 121.5L278.2 122.1C236 126.2 192.4 130.5 161.5 161C131 191.9 126.7 235.5 122.6 277.7L118.4 314.9Z" fill="#38353B" fill-opacity="0.1"/>
<path d="M272 209.5C272.4 208.2 272.8 206.9 273.2 205.6C273.8 203.7 273.6 202.2 271.3 200C261.8 190.5 230.3 158.9 228.3 157C226 154.8 223.7 155 222.7 155.3C221.3 155.7 220 156.1 218.7 156.5C217.6 156.9 215.9 158.3 218.1 160.4C220 162.2 256.4 198.6 267.6 209.9C269.7 211.9 271.6 210.7 272 209.5Z" fill="#00AEB3" fill-opacity="0.1"/>
<path d="M282.4 161.2C282.8 158.8 283.1 156.4 283.5 154C283.6 153.2 283.4 151.1 282.4 150.1C281.4 149.1 279 146.7 279 146.7C278 145.8 277.5 145.7 276 145.9C273.3 146.2 270.6 146.5 267.9 146.8C266.5 147 266.8 147.9 267.3 148.6C267.3 148.6 279.7 161 280.5 161.8C281.3 162.6 282.2 161.9 282.4 161.2Z" fill="#00AEB3" fill-opacity="0.1"/>
<path d="M251.5 248.7C252 248.2 252.5 247.7 252.9 247.1C255.2 244.5 253.7 243.5 252.2 241.8C252.2 241.8 189.3 178.7 187.3 176.9C185.3 175.1 184 175.4 183.5 175.8C182.2 176.9 181 178.1 179.8 179.3C179.2 179.9 178.4 181.3 180.4 183.5C182.4 185.7 245.7 248.8 245.7 248.8C247 250 249.5 250.8 251.5 248.7Z" fill="#00AEB3" fill-opacity="0.1"/>
<path d="M161.1 282.3C162.9 282.1 164.7 281.9 166.5 281.7C167.6 281.6 168.4 279.8 166.3 277.7C161.6 273 153.6 265 151.5 262.9C148.3 259.8 147.9 262 147.8 263.1C147.6 264.8 147.4 266.5 147.2 268.2C147.1 269.4 147 271.4 148.9 273.8C150.2 275.4 153.7 278.8 155.9 280.9C157 282 159.3 282.5 161.1 282.3Z" fill="#00AEB3" fill-opacity="0.1"/>
<path d="M211.4 271.9C212.9 271.4 214.3 270.9 215.7 270.4C216.7 270 218.4 268.8 215.8 266.2C213.2 263.6 163 213.4 163 213.4C161.7 211.9 159.5 211.5 158.8 213.3C158.3 214.7 157.7 216.2 157.2 217.7C156.9 218.6 156.9 220.6 158.5 222.5C159.9 224.1 194.9 259 205.7 269.7C207.6 271.6 210.5 272.2 211.4 271.9Z" fill="#00AEB3" fill-opacity="0.1"/>
<path d="M396.3 81.4L347.4 32.5C345.3 35 343.4 37.5 341.5 40.2L388.6 87.3C391.1 85.5 393.7 83.5 396.3 81.4Z" fill="#00AEB3" fill-opacity="0.1"/>
<path d="M356.8 102.8L326 72C324.9 75.4 323.9 78.9 323 82.5L346.4 105.9C349.9 104.9 353.4 103.9 356.8 102.8Z" fill="#00AEB3" fill-opacity="0.1"/>
<path d="M105.8 348.3C106.2 346.8 106.7 345.3 107.1 343.7C107.3 342.8 107.9 341.3 105.7 338.9C104.1 337.1 95 328.2 90.6 323.7C88.7 321.8 87.4 321.4 85.7 321.8C83.7 322.3 81.7 322.8 79.8 323.4C78 323.9 78.3 325 79.6 326.2C85.4 331.9 100.7 347.1 102.4 349C104.4 351.4 105.5 349.3 105.8 348.3Z" fill="#00AEB3" fill-opacity="0.1"/>
<path d="M86.8 390.5C87.6 389.4 88.3 388.3 89 387.1C89.5 386.3 89.8 383.8 88.4 382.4C79.9 373.8 48.7 342.6 46.9 340.9C44.8 339 43.1 339.2 42.4 339.7C41.2 340.5 39.9 341.4 38.7 342.3C37.9 342.9 36.8 344.2 38.6 346.1C40.1 347.8 74 381.6 83 390.5C84.4 392 86.3 391.3 86.8 390.5Z" fill="#00AEB3" fill-opacity="0.1"/>
<path d="M413.2 80.4C411.4 78.6 408.5 78.6 406.8 80.4C384.1 103.2 354 112.4 319.6 117.4C316.1 117.9 315.3 118.5 315 121C314.9 121.9 314.8 122.8 314.7 123.7C314.4 126.2 315.5 127.3 318.5 126.9C353.1 122.2 386.7 113.3 413.3 86.9C415 85.1 415 82.2 413.2 80.4Z" fill="#38353B" fill-opacity="0.1"/>
</svg>
