<svg width="1284" height="1144" viewBox="0 0 1284 1144" fill="none" xmlns="http://www.w3.org/2000/svg">
<path d="M886.452 1143.27C1071.44 1143.27 1221.4 1132.06 1221.4 1118.23C1221.4 1104.41 1071.44 1093.2 886.452 1093.2C701.463 1093.2 551.5 1104.41 551.5 1118.23C551.5 1132.06 701.463 1143.27 886.452 1143.27Z" fill="#D4D8E4"/>
<path d="M639.41 820.83C340.516 807.42 137.578 727.258 50.264 510.612C-72.214 205.46 100.924 4.90599 399.818 18.018C698.712 31.13 1439.84 435.516 1253.59 990.392C1140.65 1327.43 938.304 833.942 639.41 820.83Z" fill="#7DB5DB"/>
<path d="M1078.36 821.724C1081.34 793.116 1106.67 772.554 1134.98 775.236C1163.59 778.216 1184.15 803.546 1181.47 831.856C1178.49 860.464 1153.16 881.026 1124.85 878.344C1096.24 875.662 1075.68 850.332 1078.36 821.724Z" fill="#587BC9"/>
<path d="M1137.67 160.76C1137.67 152.118 1144.52 145.264 1153.16 145.264C1161.8 145.264 1168.66 152.118 1168.66 160.76C1168.66 169.402 1161.8 176.256 1153.16 176.256C1144.52 176.256 1137.67 169.402 1137.67 160.76Z" fill="#305399"/>
<path d="M319.656 387.24C319.656 378.598 326.51 371.744 335.152 371.744C343.794 371.744 350.648 378.598 350.648 387.24C350.648 395.882 343.794 402.736 335.152 402.736C326.51 402.736 319.656 395.882 319.656 387.24Z" fill="#F7F7F7"/>
<path d="M1153.16 706.696C1153.16 698.054 1160.02 691.2 1168.66 691.2C1177.3 691.2 1184.15 698.054 1184.15 706.696C1184.15 715.338 1177.3 722.192 1168.66 722.192C1160.02 722.192 1153.16 715.338 1153.16 706.696Z" fill="#F7F7F7"/>
<path d="M681.428 219.466C681.428 210.824 688.282 203.97 696.924 203.97C705.566 203.97 712.42 210.824 712.42 219.466C712.42 228.108 705.566 234.962 696.924 234.962C688.282 234.664 681.428 227.81 681.428 219.466Z" fill="#F7F7F7"/>
<path d="M733.28 665.274C733.28 656.632 740.134 649.778 748.776 649.778C757.418 649.778 764.272 656.632 764.272 665.274C764.272 673.916 757.418 680.77 748.776 680.77C740.134 680.77 733.28 673.916 733.28 665.274Z" fill="#F7F7F7"/>
<path d="M356.608 38.8779C356.608 17.4219 373.892 0.137939 395.348 0.137939C416.804 0.137939 434.088 17.4219 434.088 38.8779C434.088 60.3339 416.804 77.6179 395.348 77.6179C373.892 77.6179 356.608 60.3339 356.608 38.8779Z" fill="#587BC9"/>
<path d="M163.802 520.148C163.802 488.56 189.43 462.932 221.018 462.932C252.606 462.932 278.234 488.56 278.234 520.148C278.234 551.736 252.606 577.364 221.018 577.364C189.43 577.364 163.802 551.736 163.802 520.148Z" fill="#305399"/>
<path d="M861.718 1116.15C856.056 1120.62 739.24 1118.53 736.856 1106.91C735.962 1102.74 750.564 1096.18 768.444 1089.92C795.86 1080.09 831.62 1070.55 831.62 1070.55L846.52 1076.51L866.486 1084.56C866.486 1084.56 868.274 1083.07 868.87 1089.92C869.466 1096.48 867.38 1111.38 861.718 1116.15Z" fill="#231F20"/>
<path d="M836.09 1058.34L831.024 1077.11C831.024 1077.11 843.54 1091.71 865.89 1086.65L871.552 1064.89L836.09 1058.34Z" fill="#F4C6BA"/>
<path d="M861.718 1087.24C861.718 1087.24 793.178 1107.51 782.152 1101.25C775 1097.08 770.828 1093.5 768.444 1090.22C795.86 1080.39 831.62 1070.85 831.62 1070.85L846.52 1076.81L861.718 1087.24Z" fill="#F4C6BA"/>
<path d="M990.752 636.666L898.372 632.494C898.372 632.494 900.756 826.492 918.04 867.02C935.622 907.548 1000.59 925.428 990.752 636.666Z" fill="#282324"/>
<path d="M1031.88 1053.57C1031.88 1053.57 1033.07 1051.48 1036.05 1057.74C1039.03 1063.7 1042.6 1078.6 1039.33 1084.86C1036.05 1091.12 926.682 1133.13 920.126 1123.3C914.166 1114.36 994.03 1053.87 994.03 1053.87L1031.88 1053.57Z" fill="#231F20"/>
<path d="M993.732 1041.05L996.116 1060.42C996.116 1060.42 1013.1 1069.06 1031.88 1056.25L1028.9 1033.9L993.732 1041.05Z" fill="#F4C6BA"/>
<path d="M1015.49 1062.81C1015.49 1062.81 963.336 1105.12 948.436 1098.27C933.536 1091.41 998.5 1050.59 998.5 1050.59L1015.49 1062.81Z" fill="#F4C6BA"/>
<path d="M915.358 857.782C915.358 857.782 937.112 903.972 958.568 971.022C980.024 1037.77 985.984 1042.24 985.984 1042.24L1034.86 1032.41C1034.86 1032.41 987.772 795.798 985.388 768.382C983.004 740.668 915.358 857.782 915.358 857.782Z" fill="#282324"/>
<path d="M1140.94 318.998C1130.51 282.344 1100.12 272.808 1090.28 233.174C1080.45 193.54 1097.44 152.118 1061.97 96.392C1026.21 40.368 948.436 63.016 948.436 63.016L940.986 64.506L933.536 66.294C933.536 66.294 853.076 76.724 842.646 141.986C832.216 207.546 788.112 227.512 794.966 267.742C801.82 307.972 853.97 339.858 858.738 377.406C867.082 441.476 926.384 458.76 1019.06 439.688C1111.44 420.318 1158.82 380.982 1140.94 318.998Z" fill="#193036"/>
<path d="M1046.18 404.226C1023.23 345.222 1007.74 279.662 1016.38 215.89C1016.98 210.824 1017.87 205.758 1018.76 200.99H862.016C867.082 211.718 870.36 223.638 870.956 236.154C872.446 270.126 848.606 299.926 818.21 312.144C835.196 333.898 855.758 354.46 858.738 377.406C867.082 441.476 926.384 458.76 1019.06 439.688C1032.47 437.006 1044.99 433.728 1056.61 429.854C1052.74 421.51 1049.46 412.868 1046.18 404.226Z" fill="#0E2226"/>
<path d="M836.984 526.406C839.368 488.858 811.952 369.36 835.196 340.156C846.818 325.554 861.122 323.468 881.386 317.806L886.154 743.648H816.124C810.76 743.648 806.588 738.88 807.482 733.516C813.74 695.074 835.196 558.59 836.984 526.406Z" fill="#ECECEC"/>
<path d="M864.102 623.852C862.314 633.686 859.036 643.222 854.566 652.46C854.566 652.758 854.268 653.056 853.97 653.652C853.076 656.334 851.288 660.506 850.99 661.4C848.606 667.956 846.818 674.512 845.03 681.068C841.156 695.372 837.878 709.676 834.898 723.98C833.408 730.536 832.216 737.092 830.726 743.648H886.75L885.26 623.852H864.102V623.852Z" fill="#DADADB"/>
<path d="M872.446 349.99C872.446 349.99 856.056 389.624 838.772 386.942C806.588 382.174 696.924 328.236 696.924 328.236C696.626 323.17 701.692 309.76 706.758 299.032C710.93 290.092 716.294 284.132 719.87 280.854C766.954 299.628 822.68 303.8 869.764 322.276L872.446 349.99Z" fill="#ECECEC"/>
<path d="M876.32 594.946C876.32 594.946 845.924 760.038 840.56 830.366C835.196 900.396 826.852 1056.55 826.852 1056.55L875.724 1065.49C875.724 1065.49 968.402 665.87 976.746 639.646C985.09 613.422 876.32 594.946 876.32 594.946Z" fill="#353031"/>
<path d="M954.396 665.274C959.164 642.328 962.74 626.534 963.932 622.064C971.978 595.84 876.32 594.648 876.32 594.648C876.32 594.648 870.658 625.044 864.102 664.976H954.396V665.274Z" fill="#282324"/>
<path d="M878.704 319.296C878.704 319.296 831.918 368.764 829.832 375.32C827.448 381.876 847.116 406.61 847.116 406.61C847.116 406.61 835.792 457.866 834.6 467.104C833.408 476.64 859.93 562.166 859.93 562.166C863.208 493.924 856.056 465.018 860.824 399.16C862.314 379.194 878.704 319.296 878.704 319.296Z" fill="#DADADB"/>
<path d="M902.544 353.566L909.994 636.666L864.698 631.302C860.526 630.706 857.546 627.428 857.546 623.256C858.142 591.966 860.526 466.21 859.036 426.576C856.056 337.176 876.916 319.296 876.916 319.296C897.18 313.336 898.968 321.68 921.914 322.574C939.496 323.468 890.326 350.586 902.544 353.566Z" fill="#587BC9"/>
<path d="M1036.35 743.35L912.378 739.774C907.61 739.774 903.736 735.9 903.736 731.132V350.586L935.026 323.766C1016.08 327.64 1008.63 371.446 1002.97 455.78C997.606 538.028 1034.26 690.008 1044.99 732.324C1046.48 737.986 1042.31 743.35 1036.35 743.35Z" fill="#ECECEC"/>
<path d="M902.842 300.82L867.976 316.912C867.38 317.21 867.082 317.508 867.082 318.104L858.44 351.778C858.142 353.566 859.93 354.758 861.122 353.566L895.094 324.66C895.69 324.064 895.69 323.468 895.69 322.872L905.226 302.012C904.928 300.82 903.736 300.224 902.842 300.82Z" fill="#4169AF"/>
<path d="M901.352 260.292C901.352 261.782 901.65 263.57 901.352 265.656C901.352 265.954 901.352 266.252 901.352 266.252C902.246 270.722 897.776 268.636 898.074 273.404C898.968 290.986 888.836 324.958 878.704 338.666C881.386 342.54 882.28 344.328 890.922 347.01C904.63 351.48 929.066 327.342 930.854 326.15C930.854 326.15 930.854 312.74 932.642 304.396C933.238 302.31 933.834 300.224 934.43 298.138C936.814 291.284 939.496 285.324 942.476 280.854C943.966 278.172 945.754 276.086 946.946 274.298L901.352 260.292Z" fill="#F4C6BA"/>
<path d="M901.352 260.292C901.352 261.782 901.65 263.57 901.352 265.656C901.352 265.954 901.352 266.252 901.352 266.252C902.246 270.722 897.776 268.636 898.074 273.404C898.372 277.278 897.776 282.046 897.18 287.112C911.484 294.562 923.106 306.184 930.854 320.19C931.152 315.72 931.45 309.164 932.642 304.396C933.238 302.31 933.834 300.224 934.43 298.138C936.814 291.284 939.496 285.324 942.476 280.854C943.966 278.172 945.754 276.086 946.946 274.298L901.352 260.292Z" fill="#EF9C9C"/>
<path d="M963.932 284.728C929.364 292.178 905.226 306.184 873.638 254.63C842.944 204.566 856.354 125.894 893.604 110.398C926.384 96.9879 1022.04 126.49 1041.41 156.29C1063.17 189.964 1012.8 274 963.932 284.728Z" fill="#F4C6BA"/>
<path d="M862.91 148.84C862.91 149.138 862.612 149.436 862.612 149.734C920.722 155.694 966.912 122.318 966.912 122.318C997.308 178.044 1029.19 198.606 1040.82 204.864C1047.07 187.878 1048.56 171.488 1042.9 159.866C1042.31 158.674 1041.71 157.482 1041.11 156.588C1039.92 154.8 1038.43 153.012 1036.64 150.926C1027.7 141.688 1012.21 132.748 994.626 125.298C991.05 123.808 987.474 122.318 983.6 121.126C980.024 119.934 976.15 118.444 972.276 117.252C968.402 116.06 964.528 114.868 960.952 113.974C934.132 106.822 907.908 104.736 893.604 110.398C892.71 110.696 891.816 111.292 890.922 111.59C879.002 117.848 869.466 131.854 862.91 148.84Z" fill="#EF9C9C"/>
<path d="M867.38 159.866C866.784 154.502 852.48 148.542 842.05 152.118C831.62 155.694 832.514 185.196 840.56 191.752C847.414 197.116 854.864 200.096 859.036 197.414C862.91 194.732 868.87 169.998 867.38 159.866Z" fill="#F4C6BA"/>
<path d="M1032.77 211.122C1036.35 206.95 1051.25 210.228 1058.1 218.87C1064.95 227.81 1047.37 251.65 1036.94 252.544C1028.3 253.14 1020.25 251.054 1018.47 246.882C1016.68 242.71 1025.92 218.87 1032.77 211.122Z" fill="#F4C6BA"/>
<path d="M951.118 192.05C949.628 195.626 947.84 198.904 946.946 200.394C946.946 200.394 931.45 190.262 924.894 200.99C917.444 213.506 930.258 224.234 930.258 224.234" stroke="#6C341E" stroke-width="1.2219" stroke-miterlimit="10" stroke-linecap="round" stroke-linejoin="round"/>
<path d="M899.862 155.098C899.862 155.098 907.014 145.264 919.232 151.522" stroke="#6C341E" stroke-width="1.2219" stroke-miterlimit="10" stroke-linecap="round" stroke-linejoin="round"/>
<path d="M1013.4 189.07C1013.4 189.07 1013.1 176.852 999.394 175.362" stroke="#6C341E" stroke-width="1.2219" stroke-miterlimit="10" stroke-linecap="round" stroke-linejoin="round"/>
<path d="M911.782 175.66C910.292 180.428 907.312 184.004 904.928 183.11C902.544 182.514 901.948 177.746 903.438 172.978C904.928 168.21 907.908 164.634 910.292 165.528C912.676 166.422 913.272 170.892 911.782 175.66Z" fill="#6C341E"/>
<path d="M998.798 202.778C997.308 207.546 994.328 211.122 991.944 210.228C989.56 209.632 988.964 204.864 990.454 200.096C991.944 195.328 994.924 191.752 997.308 192.646C999.692 193.54 1000.29 198.01 998.798 202.778Z" fill="#6C341E"/>
<path d="M852.48 168.21C852.182 174.17 850.096 178.938 847.414 178.938C844.732 178.938 847.116 173.872 847.116 167.912C847.414 161.952 845.626 157.184 848.308 157.184C850.692 157.482 852.778 162.25 852.48 168.21Z" fill="#EF9C9C"/>
<path d="M1039.33 226.32C1036.05 231.386 1035.15 236.75 1037.54 237.942C1039.62 239.432 1040.82 234.068 1044.09 229.002C1047.37 223.936 1051.54 220.956 1049.16 219.466C1046.78 218.274 1042.6 221.254 1039.33 226.32Z" fill="#EF9C9C"/>
<path d="M906.716 207.546C905.822 210.526 897.776 210.526 888.538 207.546C879.3 204.566 872.744 200.096 873.638 197.116C874.532 194.136 882.578 194.136 891.816 197.116C901.054 200.096 907.61 204.864 906.716 207.546Z" fill="#FF738F"/>
<path d="M1009.53 239.432C1008.63 242.412 1000.59 242.412 991.348 239.432C982.11 236.452 975.554 231.982 976.448 229.002C977.342 226.022 985.388 226.022 994.626 229.002C1003.57 231.982 1010.42 236.75 1009.53 239.432Z" fill="#FF738F"/>
<path d="M949.926 250.458C948.734 253.14 946.35 257.312 942.178 260.292C938.9 262.676 934.43 263.868 928.768 262.676C921.914 261.186 917.742 258.206 915.358 254.928C911.782 250.458 911.186 245.392 911.186 242.412C911.186 241.22 912.378 240.326 913.57 240.326L949.032 247.478C949.628 247.776 950.224 249.266 949.926 250.458Z" fill="white"/>
<path d="M968.402 117.848C968.402 117.848 921.616 152.118 862.612 145.264C862.612 145.264 857.248 125 880.79 99.372C904.332 73.744 976.15 98.1799 1004.46 110.398C1032.77 122.616 1075.98 145.264 1047.07 202.778C1047.07 202.48 1006.55 187.878 968.402 117.848Z" fill="#193036"/>
<path d="M950.224 328.236C950.224 328.236 955.588 378.002 956.184 381.876C956.78 385.75 929.364 401.246 929.364 401.246L938.304 478.726C938.304 478.726 905.822 553.226 905.524 560.676C905.226 574.086 900.16 347.01 900.16 347.01L950.224 328.236Z" fill="#DADADB"/>
<path d="M932.046 307.078C932.046 307.078 943.668 319.296 949.926 325.256C954.992 330.024 913.57 348.202 897.18 355.354C894.2 356.546 890.624 354.46 890.624 350.884L890.922 323.766C890.922 320.19 893.306 317.21 896.882 316.316L932.046 307.078Z" fill="#4169AF"/>
<path d="M998.5 370.85C998.5 370.85 998.5 393.796 973.468 420.914C935.324 462.038 863.804 512.102 843.838 495.116C794.37 453.396 906.716 402.14 920.424 384.856C981.514 308.866 998.5 370.85 998.5 370.85Z" fill="#ECECEC"/>
<path d="M678.448 511.804C683.812 512.698 686.792 514.486 682.024 516.274C678.746 517.466 669.21 521.936 663.846 524.618L712.42 557.994C719.87 555.908 735.366 540.114 735.366 540.114L730.002 511.506C730.002 511.506 713.016 507.036 708.248 505.546C703.48 504.056 683.812 503.46 676.66 498.692C669.806 494.222 663.25 494.818 663.548 498.692C664.144 502.864 672.786 510.91 678.448 511.804Z" fill="#F4C6BA"/>
<path d="M877.81 442.37C877.81 442.37 894.498 482.004 880.194 492.434C854.268 511.804 739.538 545.478 739.538 545.478C735.664 541.902 728.81 535.048 724.638 523.724C721.062 514.486 720.764 506.44 721.062 501.374C767.55 481.11 814.336 461.144 860.824 440.88L877.81 442.37Z" fill="#ECECEC"/>
<path d="M592.922 220.062C596.2 224.532 596.796 227.81 592.326 226.022C589.048 224.83 579.214 220.956 573.552 218.87L584.28 276.682C591.134 280.556 613.186 280.258 613.186 280.258L629.576 256.418C629.576 256.418 620.636 241.22 618.252 236.75C615.868 232.28 602.458 217.976 600.67 209.632C598.882 201.586 594.114 197.414 591.432 200.394C589.048 203.672 589.644 215.592 592.922 220.062Z" fill="#F4C6BA"/>
<path d="M783.046 312.442C783.046 312.442 766.656 352.076 749.372 349.394C717.188 344.626 612.292 287.112 612.292 287.112C611.994 282.046 612.292 272.212 617.06 261.186C621.232 252.246 626.596 246.286 630.172 243.008C677.256 261.782 724.638 280.556 771.722 299.032L783.046 312.442Z" fill="#ECECEC"/>
<path d="M593.518 279.066C593.518 279.066 565.804 275.192 559.844 268.04C554.182 260.888 559.546 258.504 559.546 258.504C559.546 258.504 547.03 251.65 545.242 247.478C541.666 239.134 545.242 236.452 545.242 236.452C545.242 236.452 540.474 233.472 539.58 225.128C538.686 216.784 541.07 214.4 544.348 215.294C547.626 216.486 552.394 225.724 567.294 231.684C567.294 231.684 554.48 221.552 551.798 212.612C549.116 203.672 553.884 200.99 558.056 203.672C562.228 206.354 557.758 209.036 589.644 224.532L603.65 272.808L593.518 279.066Z" fill="#F4C6BA"/>
<path d="M545.54 236.452C545.54 236.452 541.964 239.134 545.54 247.478C547.328 251.65 559.844 258.504 559.844 258.504C559.844 258.504 554.182 260.888 560.142 268.04C560.44 268.338 561.036 268.934 561.334 269.232C567.592 252.544 572.36 234.962 575.638 217.082C559.546 207.844 561.632 205.758 558.354 203.672C554.182 200.99 549.414 203.672 552.096 212.612C554.778 221.552 567.592 231.684 567.592 231.684C552.692 225.724 547.626 216.188 544.646 215.294C541.368 214.102 538.984 216.784 539.878 225.128C540.772 233.472 545.54 236.452 545.54 236.452Z" fill="#EF9C9C"/>
<path d="M941.88 618.488L978.534 681.962L986.878 678.088L949.926 614.614L941.88 618.488Z" fill="#DADADB"/>
<path d="M651.165 530.844L436.439 589.545L442.569 611.966L657.295 553.265L651.165 530.844Z" fill="#F7F7F7"/>
<path d="M632.384 462.312L417.658 521.013L423.787 543.434L638.513 484.733L632.384 462.312Z" fill="#F7F7F7"/>
<path d="M613.592 393.799L398.866 452.5L404.995 474.921L619.721 416.22L613.592 393.799Z" fill="#F7F7F7"/>
<path d="M548.038 210.887L362.057 261.729L368.187 284.151L554.167 233.308L548.038 210.887Z" fill="#F7F7F7"/>
<path d="M543.905 138.37L329.18 197.071L335.309 219.493L550.035 160.791L543.905 138.37Z" fill="#F7F7F7"/>
<path d="M686.561 716.837L500.581 767.68L506.71 790.101L692.691 739.258L686.561 716.837Z" fill="#F7F7F7"/>
<path d="M719.691 781.469L504.965 840.17L511.095 862.592L725.821 803.89L719.691 781.469Z" fill="#F7F7F7"/>
<path d="M446.008 624.15C477.298 656.93 516.932 670.936 555.076 684.346C582.194 693.882 607.822 702.822 629.874 718.02C666.528 743.35 696.924 780.302 714.208 816.062C718.082 824.108 727.022 827.982 735.366 825.896C746.392 822.916 751.756 810.698 746.988 800.268C726.724 758.846 692.156 716.828 650.436 688.22C624.212 670.042 595.306 659.91 566.996 650.076C531.236 637.56 497.562 625.64 472.232 599.118C457.928 584.218 446.604 566.636 438.26 547.564C421.87 508.824 421.274 466.21 436.472 430.152C442.134 416.742 452.266 400.352 465.974 382.77C472.232 374.426 479.384 366.082 485.94 358.036C505.31 334.494 525.574 310.356 538.984 281.152C561.036 233.174 569.082 175.958 564.016 128.278C562.824 117.252 551.798 109.802 541.07 112.782C532.428 115.166 526.766 123.51 527.958 132.45C532.428 173.276 525.574 223.936 505.906 265.954C494.284 290.986 476.702 312.144 457.928 334.792C451.074 343.136 443.922 351.778 437.068 360.42C421.572 380.684 409.95 399.16 402.798 415.848C383.726 460.846 384.322 513.89 404.586 561.57C414.718 584.814 428.426 605.972 446.008 624.15Z" fill="#587BC9"/>
<path d="M490.708 356.844C500.542 360.42 510.674 363.996 520.508 367.87C541.07 375.916 558.056 384.856 569.976 393.498C601.266 416.742 622.722 453.694 628.086 495.414C630.768 515.976 629.874 536.836 625.106 557.1C616.762 592.86 593.816 620.276 569.38 649.182C550.308 672.128 530.342 695.67 516.932 724.576C495.774 770.468 487.132 824.108 491.006 870C491.9 881.324 502.926 889.072 513.952 886.092C522.296 883.708 527.958 875.662 527.362 867.02C524.084 827.684 531.534 780.004 550.01 739.774C561.334 715.338 578.916 694.478 597.392 672.724C623.318 641.732 650.436 609.846 660.568 565.444C666.23 541.008 667.422 515.678 664.144 490.646C657.29 439.39 630.768 393.2 591.432 364.294C576.83 353.566 557.46 343.434 533.918 333.898C523.488 329.726 513.058 326.15 502.926 322.276C475.212 312.442 448.988 302.906 426.34 287.41C388.196 261.186 356.608 220.956 339.622 183.706C336.046 175.66 326.808 171.19 318.166 173.574C307.438 176.554 301.776 188.474 306.246 198.606C326.212 242.114 361.972 287.41 405.48 317.508C432.3 335.984 462.1 346.712 490.708 356.844Z" fill="#3B455A"/>
<path d="M639.708 547.862C636.728 549.352 636.728 552.928 643.284 558.292C649.84 563.656 655.204 562.464 655.204 562.464C655.204 562.464 654.906 565.742 659.972 568.722C660.27 567.828 660.568 566.934 660.866 565.742C662.356 558.888 663.846 551.736 664.74 544.584C651.33 549.054 642.39 546.372 639.708 547.862Z" fill="#0E2226"/>
<path d="M642.986 540.71C648.946 543.988 659.376 543.69 664.442 543.392C665.038 537.73 665.634 532.068 665.932 526.406C645.072 532.664 645.37 529.088 641.198 529.982C636.43 531.174 634.642 536.24 642.986 540.71Z" fill="#0E2226"/>
<path d="M720.466 553.226C720.466 553.226 697.818 570.212 688.878 569.02C679.938 568.126 682.024 562.464 682.024 562.464C682.024 562.464 668.316 566.338 664.144 564.848C655.502 561.57 656.396 557.1 656.396 557.1C656.396 557.1 650.734 558.292 644.476 552.928C637.92 547.862 637.92 544.286 640.9 542.498C643.88 541.008 654.012 544.286 668.912 537.73C668.912 537.73 652.82 539.816 644.476 535.346C636.132 530.876 637.92 525.512 642.39 524.618C647.158 523.426 645.966 528.492 679.342 517.168L723.446 541.306L720.466 553.226Z" fill="#F4C6BA"/>
<path d="M646.264 985.922C646.264 985.922 659.376 983.836 556.864 1049.99C454.352 1116.45 418.294 1117.64 354.522 1114.36C290.75 1111.08 290.75 1111.08 290.75 1111.08C290.75 1111.08 311.908 1017.21 403.096 993.372C494.284 969.83 646.264 985.922 646.264 985.922Z" fill="#A9C3E4"/>
<path d="M578.32 1002.91C525.872 997.246 483.854 1033.6 437.962 1052.08C399.222 1067.87 352.138 1066.38 318.762 1093.8C315.782 1096.18 319.954 1100.35 322.934 1097.97C355.416 1071.45 402.202 1072.94 439.75 1057.74C485.046 1039.56 526.468 1003.21 578.32 1008.87C582.194 1009.17 582.194 1003.21 578.32 1002.91Z" fill="#587BC9"/>
<path d="M351.244 1047.91C347.37 1059.53 342.602 1070.55 335.45 1080.39C333.066 1083.37 338.43 1086.35 340.516 1083.37C347.966 1073.24 353.032 1061.32 356.906 1049.4C358.396 1045.82 352.436 1044.33 351.244 1047.91Z" fill="#587BC9"/>
<path d="M408.162 1066.38C427.83 1075.92 448.69 1084.56 470.444 1087.54C474.318 1088.14 475.808 1082.47 471.934 1081.88C450.776 1078.9 430.214 1070.55 411.142 1061.32C407.566 1059.53 404.586 1064.89 408.162 1066.38Z" fill="#587BC9"/>
<path d="M415.612 1021.98C405.778 1036.88 393.262 1049.99 383.428 1064.89C381.342 1068.17 386.408 1071.15 388.494 1067.87C398.328 1052.97 410.844 1040.16 420.678 1024.96C422.764 1021.68 417.698 1018.7 415.612 1021.98Z" fill="#587BC9"/>
<path d="M475.51 1038.67C492.496 1041.05 507.992 1049.99 524.978 1052.67C528.852 1053.27 530.342 1047.61 526.468 1047.01C509.482 1044.33 494.284 1035.39 477 1033.01C473.424 1032.11 471.636 1038.07 475.51 1038.67Z" fill="#587BC9"/>
<path d="M493.986 999.928C490.41 1012.15 484.152 1024.07 478.192 1035.39C476.404 1038.67 481.47 1041.65 483.258 1038.37C489.516 1026.75 495.774 1014.23 499.648 1001.42C500.84 997.842 495.178 996.352 493.986 999.928Z" fill="#587BC9"/>
<path d="M269.294 1110.49C269.294 1110.49 366.74 1125.68 355.118 1099.16C343.496 1072.64 325.318 1071.45 325.318 1071.45C325.318 1071.45 408.162 1065.79 389.388 1044.03C370.614 1022.28 354.82 1019.6 354.82 1019.6C354.82 1019.6 440.644 1008.27 411.738 986.816C382.832 965.36 382.832 965.36 382.832 965.36C382.832 965.36 470.146 945.99 447.796 933.772C425.446 921.554 415.016 921.852 415.016 921.852C415.016 921.852 482.364 864.338 453.16 857.186C423.658 850.034 405.48 848.842 405.48 848.842C405.48 848.842 471.636 809.506 446.306 802.95C420.976 796.394 407.566 802.354 407.566 802.354C407.566 802.354 464.484 734.708 427.532 736.496C390.58 737.986 390.58 782.984 390.58 782.984C390.58 782.984 343.794 735.9 349.456 773.746C355.118 811.592 363.462 833.346 363.462 833.346C363.462 833.346 325.318 783.58 322.934 819.936C320.55 856.292 330.98 866.424 330.98 866.424C330.98 866.424 294.028 808.91 291.942 855.398C289.856 901.886 298.796 920.064 298.796 920.064C298.796 920.064 268.698 847.352 262.142 907.548C255.586 967.744 265.42 981.75 265.42 981.75C265.42 981.75 234.13 927.216 225.786 974.598C217.442 1022.28 244.858 1086.35 244.858 1086.35L269.294 1110.49Z" fill="#D4D8E4"/>
<path d="M273.168 1100.65C297.008 1057.14 309.226 1009.17 327.702 963.572C348.562 912.018 376.574 862.252 402.202 812.784C403.99 809.506 398.924 806.228 397.136 809.804C372.402 857.186 346.476 905.164 325.318 954.334C304.756 1001.72 293.134 1052.67 268.102 1097.97C266.016 1100.95 271.082 1103.93 273.168 1100.65Z" fill="#587BC9"/>
<path d="M341.41 928.706C367.336 914.7 391.474 898.012 416.804 883.112C420.082 881.026 417.102 875.96 413.824 878.046C388.494 892.946 364.058 909.634 338.43 923.64C335.152 925.428 338.132 930.792 341.41 928.706Z" fill="#587BC9"/>
<path d="M339.92 856.888C347.37 864.636 349.158 875.662 353.032 885.496C354.522 889.072 360.184 887.582 358.694 884.006C354.522 873.278 352.138 861.656 344.092 853.014C341.41 849.736 337.238 853.908 339.92 856.888Z" fill="#587BC9"/>
<path d="M309.822 1002.31C326.212 992.478 344.688 986.816 362.866 980.856C366.442 979.664 364.952 974.002 361.376 975.194C342.9 981.452 323.828 987.114 307.14 997.246C303.564 999.034 306.544 1004.4 309.822 1002.31Z" fill="#587BC9"/>
<path d="M276.148 1096.18C276.148 1096.18 340.814 927.514 280.916 937.944C238.898 945.394 245.454 938.838 245.454 938.838C245.454 938.838 275.552 784.772 231.746 796.096C187.94 807.42 195.092 819.042 195.092 819.042C195.092 819.042 205.82 716.232 174.232 719.808C142.644 723.384 144.73 747.522 144.73 747.522C144.73 747.522 117.91 659.612 83.3419 655.44C44.0059 650.672 54.7339 729.94 63.9719 741.562C73.2099 753.482 90.1959 782.09 76.4879 802.95C62.7799 823.81 39.8339 832.75 71.1239 851.822C102.414 870.894 120.294 888.178 120.294 888.178C120.294 888.178 32.6819 888.178 91.3879 939.434C150.392 991.286 168.868 989.2 168.868 989.2C168.868 989.2 86.322 985.326 139.664 1037.48C193.006 1089.33 259.162 1111.08 259.162 1111.08L276.148 1096.18Z" fill="#A9C3E4"/>
<path d="M87.812 706.696C83.342 781.494 137.876 840.498 169.166 903.376C196.582 958.208 197.178 1029.13 240.686 1075.92C243.368 1078.6 247.54 1074.43 244.858 1071.75C203.138 1027.05 201.35 957.91 176.318 904.27C146.22 840.2 89.302 782.388 93.772 706.696C94.07 703.12 88.11 703.12 87.812 706.696Z" fill="#587BC9"/>
<path d="M225.488 1046.42C234.13 1023.77 242.772 1001.42 252.904 979.366C254.394 975.79 249.328 972.81 247.838 976.386C237.408 998.736 228.468 1021.68 219.826 1044.63C218.634 1048.5 224.296 1049.99 225.488 1046.42Z" fill="#587BC9"/>
<path d="M170.656 1032.11C187.94 1036.88 204.628 1042.84 219.528 1052.67C222.806 1054.76 225.786 1049.69 222.508 1047.61C207.012 1037.48 189.728 1031.22 172.146 1026.45C168.57 1025.26 166.782 1031.22 170.656 1032.11Z" fill="#587BC9"/>
<path d="M191.814 948.374C203.734 919.17 214.76 887.88 217.144 856.292C217.442 852.418 211.482 852.418 211.184 856.292C208.8 887.284 197.774 917.978 186.152 946.586C184.662 950.162 190.324 951.652 191.814 948.374Z" fill="#587BC9"/>
<path d="M128.042 940.924C150.69 954.036 170.358 971.022 193.006 984.134C196.284 985.922 199.264 980.856 195.986 979.068C173.338 965.956 153.67 948.97 131.022 935.858C127.744 933.772 124.764 939.136 128.042 940.924Z" fill="#587BC9"/>
<path d="M145.624 852.716C148.008 827.684 159.332 804.738 162.014 779.706C162.312 775.832 156.352 775.832 156.054 779.706C153.372 804.738 142.048 827.684 139.664 852.716C139.068 856.59 145.028 856.59 145.624 852.716Z" fill="#587BC9"/>
<path d="M89.302 828.578C107.48 833.048 125.658 840.796 142.644 848.842C146.22 850.332 149.2 845.266 145.624 843.776C128.042 835.73 109.864 827.684 91.09 822.916C87.216 822.022 85.428 827.684 89.302 828.578Z" fill="#587BC9"/>
<path d="M0.199975 1008.87C0.199975 1008.87 -7.84602 1003.8 78.574 1016.91C164.994 1030.03 184.96 1046.42 217.442 1078.6C250.222 1110.78 250.222 1110.78 250.222 1110.78C250.222 1110.78 194.198 1151.01 134.002 1120.62C73.806 1089.63 0.199975 1008.87 0.199975 1008.87Z" fill="#D4D8E4"/>
<path d="M44.0059 1032.71C66.9519 1057.44 101.222 1061.32 131.916 1069.96C164.398 1078.9 192.112 1105.72 226.68 1107.51C230.554 1107.8 230.554 1101.84 226.68 1101.55C194.198 1099.76 167.974 1074.13 137.28 1065.19C106.288 1056.25 71.1239 1053.27 47.8799 1028.54C45.4959 1025.56 41.3239 1029.73 44.0059 1032.71Z" fill="#587BC9"/>
<path d="M187.94 1116.74C195.39 1112.27 203.138 1108.7 211.78 1106.91C215.654 1106.02 213.866 1100.35 210.29 1101.25C201.35 1103.33 193.006 1107.21 184.96 1111.68C181.682 1113.47 184.662 1118.53 187.94 1116.74Z" fill="#587BC9"/>
<path d="M166.782 1078.9C160.524 1064.3 153.372 1049.4 142.942 1037.18C140.558 1034.2 136.386 1038.37 138.77 1041.35C148.306 1052.67 155.458 1066.68 161.12 1080.39C162.61 1083.96 168.272 1082.47 166.782 1078.9Z" fill="#587BC9"/>
<path d="M141.154 1100.06C153.372 1096.78 166.186 1095.59 178.702 1092.31C182.278 1091.41 180.788 1085.45 177.212 1086.65C164.994 1089.92 152.18 1091.12 139.664 1094.39C135.79 1095.29 137.28 1100.95 141.154 1100.06Z" fill="#587BC9"/>
<path d="M117.016 1061.02C108.97 1051.48 105.096 1039.56 97.0498 1030.03C94.6658 1027.05 90.4939 1031.22 92.8778 1034.2C100.626 1043.73 104.798 1055.65 112.844 1065.19C115.228 1068.17 119.4 1063.7 117.016 1061.02Z" fill="#587BC9"/>
<path d="M88.7059 1074.43C96.4539 1069.66 105.394 1066.08 113.738 1063.1C117.314 1061.91 115.824 1055.95 112.248 1057.44C103.308 1060.72 93.7719 1064.59 85.7259 1069.36C82.4479 1071.45 85.4279 1076.51 88.7059 1074.43Z" fill="#587BC9"/>
<path d="M144.432 307.674C144.432 314.23 139.068 319.594 132.512 319.594C125.956 319.594 120.592 314.23 120.592 307.674V219.764C120.592 213.208 125.956 207.844 132.512 207.844C139.068 207.844 144.432 213.208 144.432 219.764V307.674Z" fill="#F7F7F7"/>
<path d="M176.318 251.948C182.874 251.948 188.238 257.312 188.238 263.868C188.238 270.424 182.874 275.788 176.318 275.788H88.4079C81.8519 275.788 76.4879 270.424 76.4879 263.868C76.4879 257.312 81.8519 251.948 88.4079 251.948H176.318Z" fill="#F7F7F7"/>
<path d="M1176.7 1080.98C1176.7 1087.54 1171.34 1092.9 1164.78 1092.9C1158.23 1092.9 1152.86 1087.54 1152.86 1080.98V993.074C1152.86 986.518 1158.23 981.154 1164.78 981.154C1171.34 981.154 1176.7 986.518 1176.7 993.074V1080.98Z" fill="#F7F7F7"/>
<path d="M1208.89 1025.26C1215.44 1025.26 1220.81 1030.62 1220.81 1037.18C1220.81 1043.73 1215.44 1049.1 1208.89 1049.1H1120.98C1114.42 1049.1 1109.06 1043.73 1109.06 1037.18C1109.06 1030.62 1114.42 1025.26 1120.98 1025.26H1208.89Z" fill="#F7F7F7"/>
</svg>
