<svg width="1671" height="1196" viewBox="0 0 1671 1196" fill="none" xmlns="http://www.w3.org/2000/svg">
<path d="M1194.3 1129.2L69.1 1129.9C71.6 887.6 94.6 516.8 280.3 444.4C498.8 359.4 738.6 374.3 909.2 161.7C1101.4 -77.6 1639 -77.9 1639 346.2C1639 472.5 1658.8 599 1654.9 725.2C1651.4 837.2 1608.8 969.5 1523 1045.9C1444.6 1115.6 1321.1 1129.8 1220.5 1129.7C1211.7 1129.7 1203 1129.5 1194.3 1129.2Z" fill="url(#paint0_linear)"/>
<path d="M69.1 1129.9C69.1 1129.9 72.3 668 287.8 595.6C503.2 523.2 750.4 534.8 926.9 345C1103.5 155.2 1614.1 145.8 1614.1 485.3C1614.1 593.1 1634.9 693.9 1661.2 797.7C1681.2 876.8 1670.1 965.9 1616.7 1030.9C1554.6 1106.4 1456.1 1120.3 1364.3 1129.1C1308.2 1134.4 1251.2 1136.7 1194.8 1134.3L69.1 1129.9Z" fill="url(#paint1_linear)"/>
<path d="M315.7 667.4H297.4V1130.7H315.7V667.4Z" fill="#164A6F"/>
<path d="M1381.4 667.4H1364.4V1130.7H1381.4V667.4Z" fill="#164A6F"/>
<path d="M1364.4 989.9H315.7V1018.9H1364.4V989.9Z" fill="#2775A1"/>
<path d="M1515.5 702.6H183C176.8 702.6 171.8 697.6 171.8 691.4V643.3C171.8 637.1 176.8 632.1 183 632.1H1515.6C1521.8 632.1 1526.8 637.1 1526.8 643.3V691.4C1526.7 697.6 1521.7 702.6 1515.5 702.6Z" fill="#1D6294"/>
<path d="M1498 632.8H1242C1242 603 1266.2 578.8 1296 578.8H1498V632.8Z" fill="#32A4EA"/>
<path d="M310.6 592C310.6 592 240.4 592 220.3 592C200.2 592 214.5 626.5 231.4 631.2C248.3 635.9 273.3 631.2 305.4 631.2C337.6 631.3 310.6 592 310.6 592Z" fill="#FC7575"/>
<path d="M836.8 444.4L878.1 638.3C928.5 638.3 976.5 638.3 1019.5 638.3L1060.2 449.9C984.2 380.1 853.5 383.6 836.8 444.4Z" fill="#FC7575"/>
<path d="M1257.8 504.8C1200.1 447.1 1079.3 462.4 1052.6 429.5L1019.6 638.4C1111.4 638.3 1180.5 638 1201.3 637.4C1283.5 635.1 1298.9 594.1 1298.9 594.1C1298.9 594.1 1307.9 555 1257.8 504.8Z" fill="#9DE5F4"/>
<path d="M1288.2 545.1C1320.7 552.8 1378.2 546.4 1378.2 546.4L1392.2 586.2C1392.2 586.2 1295.9 597.6 1295.9 596C1274.6 582.6 1272.3 543.2 1288.2 545.1Z" fill="#FC7575"/>
<path d="M1458.3 498.9C1458.3 498.9 1420.1 529.1 1415.3 541.5C1410.6 553.9 1403.2 581.7 1403.2 581.7C1403.2 581.7 1347.3 591.2 1334.7 592.6C1334.7 592.6 1343.9 642.4 1429.5 621.8C1462.1 613.9 1482.8 610.6 1496.9 577.7C1510.9 544.9 1489.7 509.7 1458.3 498.9Z" fill="#18287D"/>
<path d="M1468.9 523.6C1468.9 523.6 1461.6 502.2 1445 500.1C1428.4 498.1 1420.1 502 1412 501C1404 500 1389 500.9 1366 510.5C1343 520.1 1356 552.5 1372.5 571.1C1391.1 592 1396.8 594 1426.7 593.9C1456.7 594 1481.5 557.9 1468.9 523.6Z" fill="#FC7575"/>
<path d="M1390.8 522.7C1393.3 523.1 1390.3 519.6 1398.5 513.7C1402.1 516 1406.6 517.3 1410.6 517.5C1402.5 515.4 1399.3 511.2 1398.6 510.7C1398.4 510.9 1390.7 515.4 1389.7 521.3C1389.7 521.9 1390.2 522.6 1390.8 522.7Z" fill="#2846A6"/>
<path d="M1409.6 536.3C1408.4 534.8 1408.7 532.5 1410.2 531.3C1411.8 530.1 1414 530.4 1415.2 531.9C1416.4 533.4 1416.1 535.7 1414.6 536.9C1413 538.1 1410.8 537.9 1409.6 536.3Z" fill="#2846A6"/>
<path d="M1410.6 507C1409.4 505.5 1409.7 503.2 1411.2 502C1412.8 500.8 1415 501.1 1416.2 502.6C1417.4 504.1 1417.1 506.4 1415.6 507.6C1414 508.8 1411.8 508.5 1410.6 507Z" fill="#2846A6"/>
<path d="M1418.3 523.6C1418.7 527.6 1418.3 531.7 1417.1 535.6C1416.4 537.6 1415.6 539.3 1414.7 541.1C1413.8 542.9 1412.8 544.6 1411.6 546.3C1411.6 544.2 1412.1 542.2 1412.7 540.3C1413.3 538.4 1414.2 536.5 1414.9 534.8C1416.2 531.3 1417.1 527.4 1418.3 523.6Z" fill="#0F1D5B"/>
<path d="M1418.9 497C1419 500 1418.5 503 1417.4 506C1416.8 507.5 1416.1 508.9 1415.3 510.2C1414.5 511.5 1413.7 512.9 1412.7 514.2C1412.8 512.7 1413.3 511.2 1413.8 509.7C1414.3 508.2 1415.2 506.8 1415.7 505.5C1416.9 502.8 1417.8 499.9 1418.9 497Z" fill="#0F1D5B"/>
<path d="M1429.1 523.7L1424.7 525.4C1424.7 525.4 1425.3 536.1 1421 540.7C1421 540.7 1431.7 532.6 1429.1 523.7Z" fill="#0F1D5B"/>
<path d="M1430.6 499.9L1426.5 500.6C1426.5 500.6 1427.1 511.3 1422.8 515.9C1422.8 515.9 1433.3 508.8 1430.6 499.9Z" fill="#0F1D5B"/>
<path d="M1379.2 513.9C1379.2 513.9 1380.5 526.1 1384.4 536.3C1384.4 536.3 1369.3 527 1370 521.2C1370.7 515.5 1379.2 513.9 1379.2 513.9Z" fill="white"/>
<path d="M1484.4 503.2C1484.4 503.2 1481.6 486.2 1465.1 488.3C1448.6 490.4 1428.6 531.2 1431.9 559.1C1433.2 569.6 1426.9 569.4 1422.8 573.4C1416 580.1 1407.6 585.7 1394.7 579.4C1374 569.3 1385 560.5 1385 560.5C1385 560.5 1372.4 568.4 1379 592.9C1385.6 617.5 1421.9 621.6 1443.3 604C1464.7 586.4 1474.8 567.9 1480.2 552.9C1491.7 520.2 1484.4 503.2 1484.4 503.2Z" fill="#2846A6"/>
<path d="M1427.5 582.6C1427.5 579.7 1419.2 567.2 1410.2 570.3C1401.2 573.4 1400.5 576.6 1404.6 584.6C1408.6 592.6 1427.5 589.8 1427.5 582.6Z" fill="#FC7575"/>
<path d="M1415.9 574.1C1415.9 574.1 1423.4 580.3 1419.6 583.3C1415.8 586.2 1409.3 585.1 1407.3 580.8C1405.3 576.4 1411.4 569.9 1415.9 574.1Z" fill="#FD5E5A"/>
<path d="M1398 555.3C1393.9 555.3 1390.7 550.1 1390.7 543.7C1390.7 537.3 1394 532.1 1398 532.1C1402.1 532.1 1405.3 537.3 1405.3 543.7C1405.3 550.1 1402 555.3 1398 555.3Z" fill="#FD5E5A"/>
<path d="M1395.8 509.6C1399.2 509.6 1402.1 505.9 1402.9 500.8C1399 501 1394.5 501.7 1389.1 502.9C1390.3 506.9 1392.9 509.6 1395.8 509.6Z" fill="#FD5E5A"/>
<path d="M1028.5 586.5L1021.7 587C948.2 587.8 855.4 461.1 816.5 402.8C662.9 416.9 479.1 465 387.5 490.9C336.4 505.4 294.7 543.3 276.8 593.3C271.5 608.1 268.6 623.2 270.2 637.4L285.3 761.2L1060.2 791.2L1105.1 638.2L1028.5 586.5Z" fill="#7FCDEE"/>
<path d="M301.2 668.3C299.6 654.2 302.6 639 307.8 624.2C325.7 574.2 367.4 536.3 418.5 521.8C510 495.8 668.8 446.2 816.5 402.7C662.9 416.8 479.1 464.9 387.5 490.8C336.4 505.3 294.7 543.2 276.8 593.2C271.5 608 268.6 623.1 270.2 637.3L285.3 761.1L312.6 762.2L301.2 668.3Z" fill="#CCEBF8"/>
<path d="M285.4 761.2L1060.3 791.2L1105.1 638.2L1047.6 771.4L285.4 761.2Z" fill="#056B96"/>
<path d="M1255.4 596.1C1255.4 596.1 1239.5 564.3 1200.6 577.6C1161.6 590.9 1081.5 599.2 1058.4 596.1C1035.3 593 952.7 510.3 952.7 509.9C952 504.8 945.7 485.1 940.8 472.4C935.9 459.6 940.5 448.6 937.2 445.7C934.5 443.4 929.2 450.3 931.7 458.3C934.2 466.2 938.1 479.4 929.4 479C920.9 478.6 909 431.5 908.9 431C907.8 426.4 904.6 418.3 902.1 422.3C901.2 424.7 904.2 439.9 907.1 448.9C912.2 464.4 913.6 469.4 912.4 471.4C910.4 471.7 906.9 461.7 898.4 440C889.1 416.1 873.1 403.7 895.3 451C901.4 464 904.8 475 903.4 475.2C898.9 475.8 895.5 467.1 891.5 459.2C887.6 451.5 878.1 434.9 876.3 443.7C876.4 445.7 882.5 455.7 886.9 463.1C896.5 479 899 483.6 897.9 486.1C890.2 487.2 881.9 468.6 875.9 460.2C875 458.9 873 459.9 873.4 461.4C875.1 467.6 880.5 479.2 889.9 491.4C899.7 504.1 918.8 522.3 930.6 532.6C931.2 535.3 995.7 616.2 1032.5 631.6C1069.5 647 1262.7 656.6 1255.4 596.1Z" fill="#FF9494"/>
<path d="M221.4 595C221.4 595 214.4 587.3 207 592C199.6 596.7 208.7 600.9 208.7 600.9C208.7 600.9 205.1 600.4 204.1 603.7C203.1 607 208 608.4 208 608.4C208 608.4 203.9 609.7 206.8 612.7C209.8 615.7 212.6 615.6 212.6 615.6C212.6 615.6 207.9 617.8 210.4 620.3C212.9 622.8 218.4 621.7 218.4 621.7C218.4 621.7 215.8 622.6 217.9 624.6C220 626.7 225.4 625.9 225.4 623.1C225.4 620.3 222.1 620.9 222.1 620.9C222.1 620.9 224.3 616.1 220.4 615C220.4 615 221.7 608.8 217.2 608.1C217.2 608.1 220.7 602.7 216.7 601.8C216.9 601.9 224.3 597.9 221.4 595Z" fill="#E56565"/>
<path d="M990.8 1154.7C990.8 1168 980 1178.7 966.8 1178.7C953.6 1178.7 942.8 1167.9 942.8 1154.7C942.8 1141.4 953.6 1130.7 966.8 1130.7C980 1130.7 990.8 1141.4 990.8 1154.7Z" fill="#334851"/>
<path d="M984.526 1157.56C986.109 1147.8 979.482 1138.6 969.724 1137.02C959.966 1135.44 950.771 1142.06 949.188 1151.82C947.604 1161.58 954.231 1170.77 963.989 1172.36C973.747 1173.94 982.942 1167.32 984.526 1157.56Z" fill="#CCEBF8"/>
<path d="M974.1 1161H959.8C957 1161 954.8 1158.8 954.8 1156V1113.9H979.1V1156C979.1 1158.8 976.9 1161 974.1 1161Z" fill="#1F272B"/>
<path d="M970 1152.1C970 1153.8 968.6 1155.2 966.9 1155.2C965.2 1155.2 963.8 1153.8 963.8 1152.1C963.8 1150.4 965.2 1149 966.9 1149C968.6 1149 970 1150.4 970 1152.1Z" fill="#CCEBF8"/>
<path d="M1216 1154.7C1216 1168 1205.2 1178.7 1192 1178.7C1178.7 1178.7 1168 1167.9 1168 1154.7C1168 1141.4 1178.8 1130.7 1192 1130.7C1205.2 1130.7 1216 1141.4 1216 1154.7Z" fill="#334851"/>
<path d="M1209.9 1154.7C1209.9 1164.6 1201.9 1172.6 1192 1172.6C1182.1 1172.6 1174.1 1164.6 1174.1 1154.7C1174.1 1144.8 1182.1 1136.8 1192 1136.8C1201.9 1136.8 1209.9 1144.8 1209.9 1154.7Z" fill="#CCEBF8"/>
<path d="M1199.3 1161H1185C1182.2 1161 1180 1158.8 1180 1156V1113.9H1204.3V1156C1204.3 1158.8 1202.1 1161 1199.3 1161Z" fill="#1F272B"/>
<path d="M1195.2 1152.1C1195.2 1153.8 1193.8 1155.2 1192.1 1155.2C1190.4 1155.2 1189 1153.8 1189 1152.1C1189 1150.4 1190.4 1149 1192.1 1149C1193.8 1149 1195.2 1150.4 1195.2 1152.1Z" fill="#CCEBF8"/>
<path d="M1328.7 1154.7C1328.7 1168 1317.9 1178.7 1304.7 1178.7C1291.4 1178.7 1280.7 1167.9 1280.7 1154.7C1280.7 1141.4 1291.5 1130.7 1304.7 1130.7C1317.9 1130.7 1328.7 1141.4 1328.7 1154.7Z" fill="#334851"/>
<path d="M1317.34 1167.34C1324.33 1160.35 1324.33 1149.01 1317.34 1142.02C1310.35 1135.03 1299.01 1135.03 1292.02 1142.02C1285.03 1149.01 1285.03 1160.35 1292.02 1167.34C1299.01 1174.33 1310.35 1174.33 1317.34 1167.34Z" fill="#CCEBF8"/>
<path d="M1312 1161H1297.7C1294.9 1161 1292.7 1158.8 1292.7 1156V1113.9H1317V1156C1317 1158.8 1314.7 1161 1312 1161Z" fill="#1F272B"/>
<path d="M1307.9 1152.1C1307.9 1153.8 1306.5 1155.2 1304.8 1155.2C1303.1 1155.2 1301.7 1153.8 1301.7 1152.1C1301.7 1150.4 1303.1 1149 1304.8 1149C1306.5 1149 1307.9 1150.4 1307.9 1152.1Z" fill="#CCEBF8"/>
<path d="M966.5 678.7C948.1 677.1 930.3 671.9 924.1 660.9C921.6 656.4 921.2 651.7 922.8 646.9C913.1 644.6 904.2 640.4 898 634.1C886.7 622.8 896 608.6 908.2 598.1C895.4 596.3 882.4 592.1 873.3 585.5C861.6 577 869.3 564 879.7 554C868.7 548.6 862.2 532.7 879.2 517.3C877.2 515.9 875.2 514.3 873.4 512.5C863.3 502.4 873.1 488.3 884.3 479.2C871.7 465.5 896.3 433 908.7 419.3L912.7 422.9C903 433.6 878.2 465.9 888.6 475.9C894.5 471.8 900.6 468.7 905.4 467.4C910.2 466.1 913.8 466.5 915.9 468.7C919.5 472.3 919.8 477.5 916.4 481.5C911.5 487.4 900.4 489.5 888.7 482.5C880.3 489.1 869.7 501.1 877.2 508.7C879.2 510.7 881.3 512.3 883.6 513.7C899.2 502.3 924 496.2 924 509.5C924 525.1 900.7 528.3 884.1 520.1C869 532.7 872.9 546.2 884.1 550C896.6 539.4 912.8 531 919.8 532.5C922.5 533.1 924 535 924 537.6C924 549.6 900.9 559.2 885.3 555.8C877.2 563 867.6 574.7 876.4 581.1C885.9 588 900.5 592.1 914.1 593.3C927.9 583.2 944.7 576.4 950.9 579C958.7 582.3 954.6 601.4 915.7 598.8C911.5 602 907.5 605.5 904.3 609.4C897.2 617.9 896.4 624.9 901.7 630.3C907.7 636.3 916.1 640 925.2 642C935.3 626.2 966.1 614.1 979.1 618.9C988.2 622.3 989.2 636.5 970.6 644.1C958.9 648.9 942.9 650.5 928.1 648C926.7 651.6 926.9 655 928.7 658.3C933.2 666.4 947.8 671.9 967.3 673.5C976.3 648.2 1056.7 630.2 1044.7 657.4C1036.5 675.9 993.7 680.2 971.9 679.1C974 702.5 1108.5 743.2 1096.4 613L1101.7 612.5C1114.5 749.8 967.6 710.5 966.5 678.7ZM973.1 673.8C996.6 674.7 1033.6 669.3 1039.9 655.2C1041.2 652.3 1040.1 651.4 1039.6 651C1030.5 643.6 981.6 657.1 973.1 673.8ZM931.1 643C952.1 645.8 980.1 639.8 980.1 627.6C980.1 617.1 944 626.4 931.1 643ZM923.2 593.8C931 593.7 948.7 591.7 948.8 584C948.5 583.8 928.1 590.7 923.2 593.8ZM890.9 551.2C903.6 551.6 918.5 544.1 918.5 537.7C915.6 536.7 902.5 542.5 890.9 551.2ZM889 516.5C901.3 521.4 918.6 519.7 918.6 509.6C918.6 504.7 902.5 507.6 889 516.5ZM893.4 479.1C906.9 485.9 916.9 477.4 912 472.5C911.6 472.1 910 471.7 906.7 472.6C902.9 473.7 898.1 476 893.4 479.1Z" fill="#2B374D"/>
<path d="M1214.2 287.5L1186.1 463.2L1175.5 462L1186.3 284.4L1214.2 287.5Z" fill="#20293A"/>
<path d="M1115.1 791.3L1112.5 784.6C1178.6 769.5 1204.9 700 1216.1 647.8C1228.8 588.2 1225.7 531.5 1225.7 530.9L1234.8 530.6C1234.8 531.2 1238 588.6 1225.1 648.8C1213.2 704.4 1185.3 775.3 1115.1 791.3Z" fill="#2B374D"/>
<path d="M1160.5 792.7L1154.1 787.8C1190.1 760.1 1203 577.7 1204.9 538.7L1214 539C1211.9 580.8 1199.3 762.9 1160.5 792.7Z" fill="#2B374D"/>
<path d="M1213.5 509.6H1148.1V443.3C1148.1 437 1153.2 431.8 1159.6 431.8H1202.1C1208.4 431.8 1213.6 436.9 1213.6 443.3V509.6H1213.5Z" fill="#2B374D"/>
<path d="M1192 763.8H970V1094.1H1192V763.8Z" fill="#F1F9F4"/>
<path d="M1261.5 763.8H1192V1094.1H1261.5V763.8Z" fill="#164A6F"/>
<path d="M1210.1 1094.1H922.4V1121.1H1210.1V1094.1Z" fill="#164A6F"/>
<path d="M1336.2 1094.1H1210.1V1121.1H1336.2V1094.1Z" fill="#164A6F"/>
<path d="M1113.9 499.6H1066.3V763.8H1113.9V499.6Z" fill="#2B374D"/>
<path d="M1129.7 763.8H1051.5V734.7C1051.5 731.4 1054.2 728.8 1057.4 728.8H1123.7C1127 728.8 1129.7 731.5 1129.7 734.8V763.8Z" fill="#2B374D"/>
<path d="M1140 588.9H849.3V614.9H1140V588.9Z" fill="#5D767D"/>
<path d="M1140 588.9H849.3L1002.4 493.5H1253.8L1140 588.9Z" fill="#F1F9F4"/>
<path d="M1253.8 549.5V493.5L1140 588.9V614.9L1253.8 549.5Z" fill="#164A6F"/>
<path d="M1008 504.8L913.9 566L985.4 562.6C985.4 562.6 1011.5 535.4 1037.5 541.2C1056.8 545.5 1051.6 566 1051.6 566H1126.5L1205.5 504.8H1008Z" fill="#4C5A73"/>
<path d="M1323.4 39.1H1015.3V303.2H1323.4V39.1Z" fill="#20293A"/>
<path d="M1313.23 293.066V49.366L1025.53 49.366V293.066L1313.23 293.066Z" fill="#4C5A73"/>
<path d="M1335.5 42.6L1323.4 39.1V303.2L1329.4 298.7L1335.5 42.6Z" fill="#65789A"/>
<path d="M1237.3 60.4H1045.5V271.6H1237.3V60.4Z" fill="#191E27"/>
<path d="M1230.2 122.8C1191.7 124.6 1125.7 130.9 1124.1 169.5C1124.1 169.6 1123.9 173.7 1123.9 173.5C1123.8 184.2 1120.9 195.1 1110.9 199.2C1100.1 203.8 1081.6 199.9 1076.8 224.9C1073.4 242.3 1080.8 264.2 1089.9 267.9C1077.2 263.9 1065.7 228.9 1079.9 208.8C1093.5 189.6 1119.4 207.7 1119.3 173.4C1119.3 173.3 1119.4 169.1 1119.4 169.3C1121.6 127.3 1188.3 120.9 1230.2 122.8Z" fill="#667287"/>
<path d="M1205.1 155.6C1205.1 155.6 1179.7 159.1 1179.7 183.4C1179.7 207.8 1173.7 210.2 1153.2 216.7C1132.7 223.2 1134.9 259 1167.7 264.7C1181.9 267.2 1191.7 254.4 1201.4 243.4C1226.1 215.2 1235.4 164.4 1205.1 155.6Z" fill="#667287"/>
<path d="M1169.3 224.4L1127 219.4L1118.3 251.5C1118.3 251.5 1109.2 233.2 1104.8 237.5C1100.4 241.9 1108.1 267.7 1117.9 267.7C1127.7 267.7 1142.3 238.3 1142.3 238.3L1161.7 243.6L1169.3 224.4Z" fill="#667287"/>
<path d="M1138.9 197.7L1118.9 213.7C1118.9 213.7 1124.2 206.7 1115.1 205.7C1111.4 205.3 1109.8 208.4 1109.2 212.2C1108.1 219 1110.3 225.9 1114.9 231.1L1115.5 231.8L1140.1 216.2L1166.5 231.8L1172.8 217.5L1138.9 197.7Z" fill="#667287"/>
<path d="M1176 126.6C1176 126.6 1160.6 134.7 1164.9 157.1C1169.2 179.5 1185.8 182.8 1201.9 167.4C1218.1 151.9 1200.8 120.1 1176 126.6Z" fill="#667287"/>
<path d="M1125.1 158.2C1124.2 161.3 1123.7 164.6 1123.8 167.8C1124 181 1131.9 182.3 1142.2 185.7C1157.6 190.9 1172.1 196.5 1172.7 212.9H1165.9C1166.3 200.2 1153.1 194.7 1140.7 189.7C1130.6 185.6 1120.8 183.2 1121.5 167.8C1121.7 164.3 1122.4 160.9 1123.6 157.7L1125.1 158.2Z" fill="#667287"/>
<path d="M1186.3 190C1186.3 190 1164.8 187.8 1162.9 181.7C1161 175.6 1166.3 162 1166.3 162L1166 156.1C1166 156.1 1154.2 169.6 1154.2 181.7C1154.2 193.8 1177.7 203.2 1177.7 203.2L1186.3 190Z" fill="#667287"/>
<path d="M1307.2 63.5H1261.5V146.9H1307.2V63.5Z" fill="#AEC2E7"/>
<path d="M1307.2 154.5H1261.5V237.6H1307.2V154.5Z" fill="#AEC2E7"/>
<path d="M1015.3 777.3H1172.7L1164.8 1063.4L1154.2 795.3L1015.3 777.3Z" fill="#5D767D"/>
<path d="M477.6 784.7C461.4 784.7 450.1 780 444 770.7C429.3 748.4 448.1 706.9 467.9 663C479.5 637.2 491.6 610.5 493.6 592.6C500 536.6 493.8 510.1 493.7 509.8L505 507C505.3 508.1 511.8 535.5 505.1 593.9C502.9 613.7 491 639.9 478.4 667.8C461.6 705.1 442.5 747.4 453.6 764.4C457.6 770.5 466.1 773.4 478.9 773.2C563.4 771.6 610.8 773.2 611.2 773.2L610.8 784.8C610.3 784.8 563.2 783.3 479.1 784.8C478.6 784.7 478.1 784.7 477.6 784.7Z" fill="#0A2126"/>
<path d="M560.7 571.7C541 576.3 521.2 564.1 516.6 544.4L481.8 395.8C477.2 376.1 489.4 356.3 509.1 351.7C528.8 347.1 548.6 359.3 553.2 379L588 527.6C592.7 547.4 580.5 567.1 560.7 571.7Z" fill="#2B374D"/>
<path d="M560.7 571.7C541 576.3 521.2 564.1 516.6 544.4L481.8 395.8C477.2 376.1 489.4 356.3 509.1 351.7C528.8 347.1 548.6 359.3 553.2 379L588 527.6C592.7 547.4 580.5 567.1 560.7 571.7Z" fill="#2B374D"/>
<path d="M560.7 571.7C541 576.3 521.2 564.1 516.6 544.4L481.8 395.8C477.2 376.1 489.4 356.3 509.1 351.7C528.8 347.1 548.6 359.3 553.2 379L588 527.6C592.7 547.4 580.5 567.1 560.7 571.7Z" fill="#2B374D"/>
<path d="M588.1 527.7L553.3 379.1C548.7 359.4 528.9 347.1 509.2 351.8C507.5 352.2 505.9 352.7 504.3 353.4C522.2 351.8 539.1 363.5 543.3 381.5L578.1 530.1C582.3 548.1 572.4 566.1 555.7 572.6C557.4 572.4 559.1 572.2 560.8 571.8C580.5 567.1 592.7 547.4 588.1 527.7Z" fill="#2B374D"/>
<path d="M513.2 529.7L496.4 523.5L472.9 423.2L485.2 410L513.2 529.7Z" fill="#2B374D"/>
<path d="M836.3 805.7H605.3L593.1 776.7H849.9L836.3 805.7Z" fill="#0A2126"/>
<path d="M750.6 791.2H694.8V902.5H750.6V791.2Z" fill="#0A2126"/>
<path d="M736.7 901.7H708.7V1085.3H736.7V901.7Z" fill="#9DA6A8"/>
<path d="M717.6 901.7H708.7V1085.3H717.6V901.7Z" fill="#B2BEBF"/>
<path d="M743.2 1129.9H702V1094.7V1066.4H743.2V1129.9Z" fill="#0A2126"/>
<path d="M550.1 1172L702 1094.7V1129.9L593.1 1172V1179.7H550.1V1172Z" fill="#0A2126"/>
<path d="M895 1171.9V1179.7H852.1V1171.9L743.2 1129.9V1094.8L895 1171.9Z" fill="#0A2126"/>
<path d="M743.2 1179.7V1185.7H698.5V1179.7H708.7V1094.8H736.7L733.8 1179.7H743.2Z" fill="#0A2126"/>
<path d="M850.6 776.7H584.5C569.8 776.7 557.9 764.8 557.9 750.1C557.9 735.4 569.8 723.5 584.5 723.5H850.6C865.3 723.5 877.2 735.4 877.2 750.1C877.2 764.8 865.3 776.7 850.6 776.7Z" fill="#288397"/>
<path d="M850.6 723.6H584.5C576.8 723.6 570 726.9 565.1 732.1C565.2 732.1 565.3 732.1 565.4 732.1H831.5C846.2 732.1 858.1 744 858.1 758.7C858.1 765.7 855.3 772.1 850.9 776.8C865.4 776.6 877.2 764.8 877.2 750.3C877.2 735.5 865.3 723.6 850.6 723.6Z" fill="#44C3D8"/>
<path d="M911.2 384.5C900.5 386.5 865.2 415.6 877.2 426.2C889.1 436.8 991.5 435.6 987.4 414.8C983.5 394.1 958 375.6 911.2 384.5Z" fill="#7CAD98"/>
<path d="M987.5 414.8C986.1 407.6 982.2 400.7 975.6 395.1C979.6 399.8 982.1 405 983.2 410.5C987 430.2 894.4 432.3 875.3 423.3C875.7 424.4 876.3 425.3 877.3 426.2C889.2 436.8 991.5 435.6 987.5 414.8Z" fill="#536460"/>
<path d="M973.8 388.8L948.8 375.8C948.8 375.8 913 369.3 894.9 380.1C894.9 380.1 816.9 444.3 766.4 435.9C748.7 433 721.2 412.1 691.3 387.2C671.3 407.2 650.4 426.6 630.3 445.6C678.8 475.3 737.1 500.9 771.7 494.8C831.4 484.3 907.7 404 907.7 404C907.7 404 936.6 389.3 949.8 398.5C962.9 407.7 970.6 415 971.2 413.1C971.8 411.2 955.8 393.9 955.8 393.9C955.8 393.9 975.9 413 978.5 411.6C981 410.3 966.3 394.8 966.3 394.8L952.3 385.1L972 392.8C972 392.8 977.4 404.4 979.7 403.3C981.6 402.1 973.8 388.8 973.8 388.8Z" fill="#EA5959"/>
<path d="M705.8 283.6C666.4 288.7 659.1 318.3 668.3 363.9C672.1 383 688 450.4 709.3 485.7C735.9 478.2 784.4 443.3 798.2 429.5C770.1 362.7 733.5 280 705.8 283.6Z" fill="#5D8272"/>
<path d="M765.7 672.7C765.7 672.7 954.8 776.8 954.8 784.5C954.8 792.3 823.6 1097.9 823.6 1097.9L828.5 1153.6C828.5 1153.6 859.5 1178.2 850.5 1178.2C841.5 1178.2 816.3 1178.2 816.3 1178.2C816.3 1178.2 804.9 1152 797.6 1144.6C790.3 1137.2 773.2 1119.2 773.2 1119.2L797.6 1090.5L785.4 1089.7L860.4 814.4L751.2 756.8L713.1 677.5L765.7 672.7Z" fill="#3E574C"/>
<path d="M582.4 743.2L579.6 764.3L702.2 809.2L715.2 1098.8H726.6L716 1161.1C716 1161.1 706.1 1191.1 708.9 1193.9C711.7 1196.7 756.8 1193.9 756.8 1193.9L751.1 1098.9L756.8 1098.1C756.8 1098.1 781.2 785.9 781.2 765.5C781.2 745 708.9 677.8 708.9 677.8L582.4 743.2Z" fill="#5D8272"/>
<path d="M735.5 703.7C746.7 717 778.4 752.6 778 766.6C778 766.7 777.5 774.1 777.5 773.6C772.2 840.7 765.7 925 764.9 993.4C782.1 872.9 784.4 759.9 784.4 765.4C784.4 765.1 747.5 714.5 735.5 703.7Z" fill="#CBDED6"/>
<path d="M676.7 271.9C676.7 271.9 675.3 271.8 672.7 271.8C653.2 271.5 568.9 274.4 548.2 341.8C524.8 418.2 498.3 689.3 575.7 767.1C575.7 767.1 725.3 671.9 794.9 690.6C794.9 690.6 697.4 605.9 719.7 532.1C735.2 480.7 748.1 350.9 737.6 310.3C726.9 269.6 676.7 271.9 676.7 271.9Z" fill="#7CAD98"/>
<path d="M716.8 544.8C715.4 544 714.1 543.1 712.8 542.1C699.2 531.9 537.6 335.2 546.7 380.8C551.1 402.7 566.5 464.9 592.6 505C606.2 530.4 664 601.3 690.8 609.8C702.7 613.5 716.7 613.5 731.5 611C720.9 590.1 714 567.2 716.8 544.8Z" fill="#5D8272"/>
<path d="M719.5 532.1C729.6 482.9 744.5 357.5 737.4 310.3C752 361.6 738.2 479.9 719.5 532.1Z" fill="#CBDED6"/>
<path d="M630.6 181.4C630.6 181.4 624.2 241.4 628.8 280.7C630 290.5 635.6 299.2 644 304.3C661 314.5 690.6 329.6 701.7 318.2L687.5 224.4L630.6 181.4Z" fill="#FC7575"/>
<path d="M630.6 181.4L687.5 224.4L694.7 272C672.4 274.9 645.7 244.9 636.2 205.4C634.6 198.6 632.4 192.5 630 186.9C630.4 183.4 630.6 181.4 630.6 181.4Z" fill="#FD5E5A"/>
<path d="M705.9 96.1C706.8 96.7 707.8 97.9999 708.9 99.7999C713.9 107.9 720.2 127.1 718.6 150.8C716.7 179.6 715 239.9 693.9 243.7C672.8 247.4 639.6 223.6 631.2 189.7C622.8 155.8 605.3 141.2 613.1 112.6C621 83.9 705.9 96.1 705.9 96.1Z" fill="#FC7575"/>
<path d="M705.9 96.1C705.9 96.1 621 83.9 613.2 112.5C605.3 141.1 622.9 155.7 631.3 189.6C638.8 187.6 650.8 186.6 644.2 145.5C650.6 123.5 663.4 125.7 665.6 116.1C685.3 120.4 687.6 130.7 688.9 131.8C697.8 146.4 707.1 158.3 717.9 163.7C718.2 158.9 718.4 154.5 718.7 150.7C720.2 126 712.3 100.9 705.9 96.1Z" fill="#FD5E5A"/>
<path d="M631.2 189.6C629.8 186.2 632.1 193.2 631.2 189.6V189.6Z" fill="#FD5E5A"/>
<path d="M642.7 147.1C642.7 147.1 647.3 129.9 653.3 120.6C659.3 111.3 655.8 105 655.8 105C655.8 105 683.3 105.2 694.5 123.4C705.7 141.6 720.1 168.8 747 150.8C774 132.7 761.6 92.5999 754.8 93.7999C748 94.9999 740.6 90 740.6 90C740.6 90 709.5 56.8999 696.4 59.2999C683.3 61.5999 692.4 46.7 669.6 47C646.7 47.3 632.9 71.7999 632.9 71.7999C632.9 71.7999 621.2 61.9 606.1 76.5C591.1 91.2 607 135.1 615.9 150C624.7 164.9 629.8 190.8 629.8 190.8C629.8 190.8 650.7 191.8 642.7 147.1Z" fill="#1B2B80"/>
<path d="M629.6 141.6C630.6 132.9 640.5 130.2 645.8 137C650.2 142.6 653.5 149.9 649.1 156.7C640.3 170.3 628.4 159.1 629.3 144.4C629.4 143.4 629.5 142.5 629.6 141.6Z" fill="#FC7575"/>
<path d="M650 148C649.1 144.7 644 135.5 639.6 139.7C635.2 144 633.3 156.8 642 157.8C650.6 158.8 650.8 151.2 650 148Z" fill="#FD5E5A"/>
<path d="M696.7 199.7L708.7 197.6L703.1 166.1C703 165.4 702.4 165 701.7 165.1C701.1 165.2 700.7 165.8 700.8 166.5L705.9 195.5L696.2 197.2C695.6 197.3 695.2 197.9 695.3 198.6C695.5 199.3 696.1 199.8 696.7 199.7Z" fill="#18287D"/>
<path d="M682.1 165.7C682.7 169.3 685.4 171.7 688.1 171.3C690.8 170.8 692.5 167.5 691.9 164C691.3 160.4 688.6 158 685.9 158.4C683.1 158.9 681.4 162.1 682.1 165.7Z" fill="#18287D"/>
<path d="M707.8 165C708.4 168.3 710.7 170.6 713 170.2C715.3 169.8 716.7 166.8 716.1 163.5C715.5 160.2 713.2 157.9 710.9 158.3C708.6 158.8 707.2 161.8 707.8 165Z" fill="#18287D"/>
<path d="M692.7 224.5C695.1 224.1 696.6 223.3 696.6 223.3C697.1 223 697.3 222.3 697.1 221.7C696.8 221.1 696.1 220.9 695.6 221.2C695.2 221.5 685.4 226.3 674.5 215.7C674.1 215.3 673.4 215.3 673 215.8C672.6 216.3 672.6 217 673.1 217.5C680.9 225 688.4 225.3 692.7 224.5Z" fill="#18287D"/>
<path d="M693 147.4C693 147.4 686.3 142.3 679.5 143.5C672.7 144.7 668.9 154.2 668.9 154.2C668.9 154.2 672.8 146.3 678.9 146.5C685 146.7 693.8 151.5 693.8 151.5L693 147.4Z" fill="#18287D"/>
<path d="M924.3 572.6L908.1 549.5C908.1 549.5 879.3 527.3 858.3 528.4C858.3 528.4 759.5 549.5 718.5 518.7C704.5 508.2 690 478 675.2 443.1C650.7 454.6 627.1 468 602.7 479.6C630.8 523 666 563.8 696 573.3C753.8 591.5 858.5 555.4 858.5 555.4C858.5 555.4 891 555.7 898.4 569.9C905.8 584.1 909.2 594.1 910.6 592.7C912 591.3 905.8 568.5 905.8 568.5C905.8 568.5 914.9 594.7 917.7 594.7C920.6 594.7 914.6 574.2 914.6 574.2L906.6 559.1L920.5 575C920.5 575 919.9 587.8 922.5 587.8C925.2 588 924.3 572.6 924.3 572.6Z" fill="#FC7575"/>
<path d="M627.6 514.9L679.9 454.3C678.3 450.7 676.7 447 675.2 443.2C650.7 454.7 627.1 468.1 602.7 479.7C610.5 491.9 619 503.8 627.6 514.9Z" fill="#FD5E5A"/>
<path d="M688 566.1C688 566.1 688.8 555.6 694.1 554.3C699.4 553 716.1 567 712.2 570.9C708.3 574.7 688 573.1 688 566.1Z" fill="#FD5E5A"/>
<path d="M589.8 295C550.4 300.1 537.7 335.2 546.8 380.7C551.2 402.6 566.6 464.8 592.7 504.9C617.2 493.3 664.8 453.5 680.2 444.4C651.8 377.3 617.8 291.4 589.8 295Z" fill="#96BDAD"/>
<path d="M680.1 444.4C655.5 397.3 628.8 327 606.2 303.9C599.4 296.9 596.2 296.8 595 296C594 295.8 592.6 295.2 589.5 295.3L586.6 295.5C587.4 296.6 614.4 273.3 664.5 401.4C670.1 415.6 675.4 429.9 680.1 444.4Z" fill="#CBDED6"/>
<path d="M487.3 334C487.3 334 487.2 334 487.3 334C486.5 334 485.9 333.4 486 332.6C487.2 291.1 508.6 266.4 526.3 252.9C545.5 238.3 564.1 233.7 564.9 233.5C565.6 233.3 566.3 233.8 566.5 234.5C566.7 235.2 566.2 235.9 565.5 236.1C565.3 236.1 546.5 240.9 527.8 255.1C510.5 268.2 489.7 292.3 488.6 332.6C488.6 333.4 488 334 487.3 334Z" fill="#1B2B80"/>
<path d="M1007.4 383.6C1007 383.6 1006.7 383.5 1006.4 383.2C962.2 336.9 868.1 330.8 867.2 330.7C866.5 330.7 865.9 330 865.9 329.3C865.9 328.6 866.6 328 867.3 328C868.3 328.1 963.3 334.3 1008.3 381.3C1008.8 381.8 1008.8 382.7 1008.3 383.2C1008.1 383.5 1007.8 383.6 1007.4 383.6Z" fill="#1B2B80"/>
<path d="M240 1129.9H135.7L123.5 1029.6H250.2L240 1129.9Z" fill="#B471B9"/>
<path d="M161.2 1029.6H123.5L135.7 1129.9H240L242.3 1107.6C203.7 1097.7 172.7 1068.2 161.2 1029.6Z" fill="#87558B"/>
<path d="M279.6 947.2L302 927.1C311.7 896.5 316.5 862.3 309 828.6C309 828.6 284.3 833.4 257.8 844.7L245.7 870L239.9 853.4C227.3 860.4 215.5 869 207 879.4L213.8 913.8L197.6 895.3C196.3 898.7 195.3 902.2 194.8 905.9C186.5 962.9 187.7 1033.6 187.7 1033.6H244.7C244.7 1033.6 271.6 1000.9 291.5 954.6L279.6 947.2Z" fill="#598891"/>
<path d="M246.3 1010C232.5 1016.9 222.6 1016.9 219 1016.6C236.7 993.4 252.1 964.1 264 937.6C264.9 937.6 265.7 937.7 266.5 937.7C282 937.7 294.2 931.1 302.9 923.9C303.2 922.8 303.5 921.8 303.8 920.7C295 928.6 281.9 936.4 264.8 935.8C268.3 928 271.6 920.3 274.7 912.4C287.7 910.7 300.6 902.8 309.6 896C309.8 895.1 309.9 894.2 310.1 893.3C301.5 900 288.5 908.4 275.6 910.5C291.7 870.5 301.8 838.2 301.9 837.8L305.1 830.5L300.6 835.5C300.4 836.1 292.1 862.3 279.5 895.4C272.8 881.2 276.4 846.4 277.6 837C277 837.2 276.3 837.4 275.7 837.6C274.4 848.6 270.9 884 278.7 897.6C270.7 918.5 260.6 942.3 248.8 965.1C244 957.9 252 911 238.6 892.5C230.5 881.2 229.4 868.1 229.8 859.3C229.2 859.7 228.6 860.1 228 860.5C227.7 869.5 229.1 882.3 237.2 893.5C250.6 912.1 241.4 960.5 247.9 966.8C245.6 971.2 243.2 975.6 240.8 979.9C227.4 937.7 227.6 936.2 229.4 919.5C230.5 909.9 231.4 900.8 225 894.4C219.4 888.8 217.6 877.8 217.1 868.9C216.5 869.4 215.9 869.9 215.4 870.5C216 879.5 218.1 890.1 223.8 895.7C234 905.9 223.4 924.1 228 942.2C232.2 958.6 238.6 978.7 239.6 982C234.6 990.7 229.3 999.1 223.9 1007C221.6 1005.1 212.1 995.8 214.8 976.2C217 960.3 202.1 940.1 192.2 928.6C192.1 929.5 192 930.3 191.9 931.2C201.5 942.7 214.9 961.6 212.9 976C210 996.9 220.3 1006.6 222.7 1008.5C216.1 1017.8 209.1 1026.3 201.9 1033.4H204.4C205.7 1032.1 206.9 1030.8 208.2 1029.4C215.2 1031.6 226.1 1030.4 237 1022.4C243.6 1017.5 250.6 1016.9 256.4 1017.7C256.8 1017.2 257.1 1016.6 257.5 1016.1C251.1 1015 243.2 1015.5 235.9 1021C223.6 1030.1 213.1 1028.8 209.6 1027.9C212.4 1024.8 215.1 1021.5 217.8 1018C226.8 1019.3 238.7 1015.5 247.2 1011.3C252.6 1008.6 258.2 1007.6 263.3 1007.5C263.7 1006.9 264.1 1006.3 264.5 1005.7C258.8 1006 252.5 1007 246.3 1010Z" fill="#BDCFD3"/>
<path opacity="0.34" d="M204.5 903.2L197.6 895.4C196.3 898.8 195.3 902.3 194.8 906C186.5 963 187.7 1033.7 187.7 1033.7C187.7 1033.7 210.1 981.9 204.5 903.2Z" fill="#43666D"/>
<path d="M0.5 988.8C2.9 988.8 33.5 973.2 85.7 988.8C137.9 1004.4 176 1033.7 176 1033.7C176 1033.7 116.3 1045.3 61.7 1036.3C7.10001 1027.3 0.5 988.8 0.5 988.8Z" fill="#245058"/>
<path d="M169.8 1029.4C135.5 1005.8 83 981.2 38.8 981.9C48.1 1008.1 60.6 1027.2 85.4 1039C122.9 1041.6 158.5 1036.9 171.2 1034.9C170.9 1033.2 170.4 1031.4 169.8 1029.4Z" fill="#1B3C42"/>
<path d="M171.2 805L148.8 828.6L157.6 779.3C149.5 765.5 140.4 752.7 130.6 741.6C103.6 711 55 665.5 55 665.5C43.7 688.4 36 710.6 31.2 732.1L56.3 757.8L27.2 754.9C5.7 920.8 156.7 1033.7 156.7 1033.7H187.8C187.8 1033.7 201.8 898.7 190.5 857.2C185.8 839.8 179.2 822 171.2 805Z" fill="#245058"/>
<path d="M193.2 872.4C192.9 869.7 192.5 867.2 192.1 864.8C185.6 882.8 168.2 926.3 149.4 937.7C148.8 935.9 148.1 934.1 147.4 932.3C166.2 925.3 181.3 878.8 188.7 851.3C188.1 849.1 187.4 847 186.7 844.8C178.9 874.9 163.1 922.9 146.1 929C140.7 915 134.4 901.3 127.1 889.3C121.1 879.4 115 865.9 109 850.3C125.2 837.9 137.6 785.3 143.1 757.4C142.2 756.1 141.2 754.9 140.3 753.6C135.3 779.6 122.7 833.8 107.7 846.7C103.4 835.2 99.1 822.7 95 809.9C108.8 789.3 113.3 745.6 114.7 724.5C113.6 723.3 112.4 722.1 111.3 721C110.2 739.3 106.2 783.5 93.5 805.4C73.3 741 56.4 670.1 56.2 669L54.9 666.5V669.2C55.2 670.4 74 760.2 97.7 829.4C70.9 838.3 41.6 819.5 25.8 806.7C25.9 808.4 26.1 810 26.2 811.7C30.2 814.8 34.8 818.1 40 821.3C55.3 830.6 69.8 835.4 83.1 835.4C88.6 835.4 93.9 834.6 98.9 832.9C105.4 851.6 112.2 868.7 118.9 881.8C94.8 890.2 59.8 880.9 40.3 874.2C40.8 875.7 41.4 877.1 41.9 878.6C56.1 883.3 76.8 888.8 96.2 888.8C104.8 888.8 113.2 887.7 120.6 885C121.8 887.2 122.9 889.2 124.1 891.1C155.4 942.8 168.3 1026 169.4 1033.8H173C172.7 1031.6 166.1 986.5 150.5 941.2C168.9 930.7 185.2 893.3 193.2 872.4Z" fill="#E0E3F1"/>
<path opacity="0.44" d="M156.7 1033.7H185.6C185.6 1033.7 178.9 971.6 121.4 930.3L114.5 941.2L113.5 925C110.2 922.9 106.7 920.8 103 918.9L94 939.9L90.1 912.6C78.5 907.5 65.5 903.2 50.9 900.1C88.4 981.6 154.2 1031.8 156.7 1033.7Z" fill="#858AA4"/>
<path d="M281.2 924.8L275.2 951.6L267.9 932.4C260.3 937.1 252.8 942.5 245.8 948.5L243.7 961.8L236.6 957.1C218.1 976.1 204.4 1001.1 202.3 1033.6H250.3C250.3 1033.6 353.5 1004.9 357.1 899.3C357 899.4 319.4 904.9 281.2 924.8Z" fill="#77A1A8"/>
<path d="M220.7 1033.7H228.7C285.2 1003 348.3 910.5 351 906.4L354.9 900.4L348 904.4C347.4 905.4 277.8 1007.5 220.7 1033.7Z" fill="#BDCFD3"/>
<path d="M121.1 945.5L115.2 954.8L114.3 940.9C111.4 939.1 108.5 937.3 105.3 935.7L97.6 953.7L94.3 930.3C78.5 923.4 59.8 918.3 37.5 916C37.5 916 42.3 981.4 71.1 1010.2C99.9 1039 144.9 1034.1 144.9 1034.1H176.1C176.1 1034 170.3 980.8 121.1 945.5Z" fill="#E0C57D"/>
<path d="M148.4 1034H153.1C84.3 986.6 42.6 920.1 42.1 919.4L38.5 917.3L39.8 920.9C40.2 921.5 81 986.4 148.4 1034Z" fill="#F3E8CB"/>
<path d="M176.1 1033.7C176.1 1033.7 118.5 1007.9 80.3 1011.1C42.1 1014.3 2.70001 1056.9 2.70001 1056.9C2.70001 1056.9 15.2 1061.4 33.3 1065.9L50.3 1052.4L45.5 1068.8C73.7 1074.8 109.8 1078.8 134.5 1068.3C180.6 1048.6 176.1 1033.7 176.1 1033.7Z" fill="#AD5B45"/>
<path d="M176.1 1033.7C176.1 1033.7 175.4 1033.4 173.1 1032.4C161.7 1031.7 124.8 1029.8 92.7 1030.9C87.3 1026.7 85.1 1017.6 84.2 1010.8C83.3 1010.8 82.4 1010.9 81.6 1010.9C82.4 1017.3 84.4 1025.8 89.1 1031C87.6 1031.1 77.2 1031.9 73.6 1032.5C67.9 1028.4 66.7 1020.2 66.7 1013.7C65.8 1014 64.9 1014.2 64.1 1014.5C64.2 1020.7 65.5 1028.2 70.2 1033C66.8 1033.6 63.4 1034.3 60.2 1035.1C52.9 1033.9 48.5 1027.7 46.1 1022.6C45.3 1023 44.6 1023.5 43.8 1023.9C46 1028.4 49.6 1033.7 55.4 1036.3C52.6 1037.1 49.8 1037.9 47.1 1038.8C37.6 1036.2 34 1033.1 32.5 1031.1C31.8 1031.6 31.1 1032.1 30.4 1032.6C32 1034.8 35.4 1037.7 42.9 1040.2C24.2 1046.8 10.8 1053.8 10.6 1053.9L5.70001 1056.8L12.6 1056.2C12.9 1056 43.1 1038.4 79.1 1034.3C69.6 1041.9 65.6 1057.9 63.3 1067.1C62.9 1068.6 62.5 1070.3 62.1 1071.5C63 1071.6 63.8 1071.8 64.7 1071.9C65 1070.8 65.4 1069.4 65.8 1067.7C68.4 1057.5 73.1 1038.5 85 1033.7C86.9 1033.6 96.5 1033.2 98.9 1033.1C89.9 1040.9 83 1062.4 79.9 1073.6C80.8 1073.7 81.7 1073.7 82.5 1073.8C86.6 1059 94.9 1035.6 104.1 1032.9C139.3 1032.7 176.1 1033.7 176.1 1033.7Z" fill="#DEBDB5"/>
<defs>
<linearGradient id="paint0_linear" x1="1900.34" y1="1223.16" x2="274.701" y2="308.267" gradientUnits="userSpaceOnUse">
<stop stop-color="#E0CBEE"/>
<stop offset="1" stop-color="#F4DFFF"/>
</linearGradient>
<linearGradient id="paint1_linear" x1="96.4769" y1="1329.79" x2="1610.27" y2="424.556" gradientUnits="userSpaceOnUse">
<stop stop-color="#D8C7F5"/>
<stop offset="1" stop-color="#FBF9FF"/>
</linearGradient>
</defs>
</svg>
