<svg width="960" height="905" viewBox="0 0 960 905" fill="none" xmlns="http://www.w3.org/2000/svg">
<path d="M651.773 904.727C768.823 904.727 863.711 897.869 863.711 889.409C863.711 880.949 768.823 874.091 651.773 874.091C534.723 874.091 439.836 880.949 439.836 889.409C439.836 897.869 534.723 904.727 651.773 904.727Z" fill="#DED0C7"/>
<path d="M267.071 902.718C356.107 902.718 428.284 896.759 428.284 889.409C428.284 882.059 356.107 876.1 267.071 876.1C178.035 876.1 105.858 882.059 105.858 889.409C105.858 896.759 178.035 902.718 267.071 902.718Z" fill="#DED0C7"/>
<path d="M815.498 661.149C815.247 661.149 822.027 661.149 821.775 661.149C820.52 661.149 695.969 660.898 694.713 660.647C687.682 658.889 682.66 652.36 682.911 644.827C683.162 637.544 678.893 467.04 736.9 336.713C740.164 329.682 747.698 325.916 754.98 327.673C755.984 327.924 890.078 328.176 891.082 328.678C899.118 332.193 902.884 341.736 899.118 349.771C843.873 474.071 828.053 644.073 828.053 645.58C827.802 654.369 824.035 661.149 815.498 661.149Z" fill="#564B42"/>
<path d="M695.969 354.291V333.951L739.411 311.1L743.931 345C743.68 345.251 704.758 363.833 695.969 354.291Z" fill="url(#paint0_linear)"/>
<path d="M764.773 354.04L703.251 500.94L677.638 368.353L706.516 356.551L764.773 354.04Z" fill="#F5FCD9"/>
<path d="M764.773 354.04L743.68 345.251L711.789 355.296L721.331 386.684L764.773 354.04Z" fill="white"/>
<path d="M695.969 354.291L681.656 364.838L697.475 387.438L709.027 356.802L695.969 354.291Z" fill="white"/>
<path d="M711.287 361.573L718.318 376.891L713.044 382.667H705.511L703 377.896L708.524 361.573H711.287Z" fill="#002650"/>
<path d="M714.551 499.433L713.044 382.667H705.511L680.651 497.676L696.22 537.602L714.551 499.433Z" fill="#002650"/>
<path d="M660.311 374.129L683.916 365.591L685.422 412.047L696.22 537.602L651.02 537.1V460.009L660.311 374.129Z" fill="#A9DBC9"/>
<path d="M660.311 374.129C650.267 376.389 653.029 373.124 641.478 387.689C617.622 418.073 580.458 476.331 580.458 476.331C580.458 476.331 477.502 473.82 472.731 475.327C469.969 476.331 474.238 480.098 474.489 497.676C474.489 505.962 475.996 508.222 476.498 516.509C482.525 516.007 570.665 521.531 588.996 521.531C617.873 521.531 642.733 477.336 651.02 469.551L660.311 374.129Z" fill="#BCE8DA"/>
<path d="M695.718 348.264C695.718 348.264 684.669 356.551 681.655 361.573C678.893 366.596 664.58 393.716 664.58 393.716L675.88 404.011L666.84 425.356L696.471 525.298C696.471 525.298 683.915 392.209 685.673 379.402C687.18 367.851 694.713 356.3 695.969 353.789L695.718 348.264Z" fill="#BCE8DA"/>
<path d="M764.773 354.04L793.902 361.573L814.744 537.602L694.462 537.351L694.211 512.742L753.725 382.667L764.773 354.04Z" fill="#A9DBC9"/>
<path d="M742.675 336.964C742.675 336.964 742.675 336.211 747.698 337.718C757.491 340.731 765.024 351.529 766.531 356.3C767.033 357.807 767.535 359.313 768.289 361.071L777.831 385.931L766.531 393.464L777.831 418.576L694.462 520.778L695.467 505.46C695.467 505.46 755.984 363.331 751.967 354.291C749.455 348.264 745.94 346.507 743.68 345.502L742.675 336.964Z" fill="#BCE8DA"/>
<path d="M818.26 660.144C818.009 660.144 818.009 660.144 817.758 660.144C808.969 659.642 802.189 651.858 802.942 643.069C803.444 635.787 815.247 465.533 878.024 337.718C882.042 329.682 891.584 326.418 899.369 330.436C907.404 334.453 912.176 354.291 908.409 362.076C848.393 484.116 831.569 643.571 831.569 645.329C830.816 653.867 826.798 660.396 818.26 660.144Z" fill="#716558"/>
<path d="M695.969 345.251V334.202L739.411 311.351L739.913 316.122C739.913 315.871 716.309 360.067 695.969 345.251Z" fill="#F28D50"/>
<path d="M697.727 512.742L783.607 503.953C783.607 503.953 794.907 492.653 792.396 443.938C789.885 395.222 792.647 409.033 792.647 396.227C792.647 382.416 788.127 442.682 788.127 442.682L776.325 474.322L772.056 491.649L697.727 512.742Z" fill="#8DC6B0"/>
<path d="M793.902 361.573C807.713 363.582 819.265 368.353 825.793 387.94C828.053 394.72 832.573 407.527 832.573 427.616C832.573 464.529 825.542 515.253 823.533 520.527C820.269 528.813 809.471 537.351 799.427 537.853L697.476 537.351V512.742L783.607 499.684L785.867 447.956C786.118 447.956 785.867 374.129 793.902 361.573Z" fill="#BCE8DA"/>
<path d="M548.818 505.209C543.042 505.209 537.267 504.456 531.24 502.949C512.909 497.927 499.6 493.909 489.053 490.393C456.409 480.098 452.14 478.842 419.496 491.147C418.491 491.649 417.236 490.896 416.733 489.891C416.231 488.887 416.985 487.631 417.989 487.129C452.14 474.322 457.413 476.08 490.309 486.376C500.856 489.64 514.165 493.909 532.496 498.931C618.627 522.284 700.489 347.511 701.242 345.753C701.745 344.749 703 344.247 704.005 344.749C705.009 345.251 705.511 346.507 705.009 347.511C701.996 354.291 631.182 505.209 548.818 505.209Z" fill="#231F20"/>
<path d="M716.56 193.831C657.549 185.293 645.998 235.264 645.998 235.264C645.998 235.264 645.998 274.689 650.016 292.769C651.271 298.293 652.778 304.069 654.536 309.593C657.298 317.88 660.562 325.916 665.082 331.44C667.593 334.453 670.356 336.964 673.62 338.471C686.427 344.247 708.776 342.489 737.151 317.378C737.151 317.378 748.2 309.844 746.442 292.016C745.94 286.491 746.945 280.716 748.702 275.442C747.698 273.684 748.451 271.424 749.707 269.667C749.707 269.667 749.707 269.667 749.456 269.667L749.707 269.416C749.707 269.416 749.707 269.667 749.456 269.667C749.958 269.416 750.46 269.164 750.962 268.913C754.729 260.376 759.5 254.349 759.5 254.349C759.5 254.349 770.298 201.616 716.56 193.831Z" fill="url(#paint1_linear)"/>
<path d="M64.2189 893.585H82.0477L82.0477 661.307H64.2189L64.2189 893.585Z" fill="#3A2B1A"/>
<path d="M365.152 692.575V674.747H77.63V692.575H365.152Z" fill="#3A2B1A"/>
<path d="M356.37 893.585H374.199L374.199 661.307H356.37V893.585Z" fill="#3A2B1A"/>
<path d="M588.996 684.502C588.996 693.793 596.529 701.076 605.569 701.076H800.18C809.471 701.076 817.004 693.542 817.004 684.502V674.709C817.004 665.418 809.471 658.136 800.18 658.136H605.569C596.278 658.136 588.996 665.669 588.996 674.709V684.502Z" fill="#716558"/>
<path d="M803.444 875.347H781.849V847.473C781.849 844.209 779.338 841.698 776.073 841.698H639.72C636.455 841.698 633.944 844.209 633.944 847.473V875.347H612.349V847.473C612.349 832.407 624.653 819.851 639.971 819.851H775.822C790.889 819.851 803.444 832.156 803.444 847.473V875.347Z" fill="#525E5A"/>
<path d="M718.82 722.671H696.973V869.822H718.82V722.671Z" fill="#525E5A"/>
<path d="M733.385 698.062H681.907V727.191H733.385V698.062Z" fill="#4A5659"/>
<path d="M809.973 875.347C809.973 884.889 802.189 892.673 792.647 892.673C783.104 892.673 775.32 884.889 775.32 875.347C775.32 865.804 783.104 858.02 792.647 858.02C802.189 858.02 809.973 865.804 809.973 875.347Z" fill="#4A5659"/>
<path d="M725.098 875.347C725.098 884.889 717.313 892.673 707.771 892.673C698.229 892.673 690.444 884.889 690.444 875.347C690.444 865.804 698.229 858.02 707.771 858.02C717.313 858.02 725.098 865.804 725.098 875.347Z" fill="#4A5659"/>
<path d="M640.222 875.347C640.222 884.889 632.438 892.673 622.895 892.673C613.353 892.673 605.569 884.889 605.569 875.347C605.569 865.804 613.353 858.02 622.895 858.02C632.438 858.02 640.222 865.804 640.222 875.347Z" fill="#4A5659"/>
<path d="M752.72 254.098C752.72 254.098 768.54 245.309 766.28 263.891C764.02 282.473 758.747 295.531 743.931 291.764C743.68 291.764 737.402 261.38 752.72 254.098Z" fill="url(#paint2_linear)"/>
<path d="M723.34 247.82C723.34 247.82 714.3 241.542 703.251 244.053C703.251 244.053 700.489 245.058 697.727 247.82L698.982 251.838C698.982 251.838 710.282 248.573 722.336 251.838C722.085 251.838 724.596 251.084 723.34 247.82Z" fill="#7F3610"/>
<path d="M704.256 303.818C704.256 303.818 686.929 301.558 675.629 306.329C675.629 306.329 672.616 311.602 675.127 312.356C675.127 312.356 673.871 316.876 676.382 318.382C678.642 319.889 695.467 324.158 701.242 311.602C706.767 298.796 704.256 303.818 704.256 303.818Z" fill="#CA5F38"/>
<path d="M702.247 265.398C702.247 268.913 704.507 271.676 707.52 271.676C710.533 271.676 712.793 268.913 712.793 265.398C712.793 261.882 710.533 259.12 707.52 259.12C704.758 259.12 702.247 261.882 702.247 265.398Z" fill="#231F20"/>
<path d="M656.042 271.676C656.042 275.191 658.302 277.953 661.316 277.953C664.329 277.953 666.589 275.191 666.589 271.676C666.589 268.16 664.329 265.398 661.316 265.398C658.553 265.398 656.042 268.16 656.042 271.676Z" fill="#231F20"/>
<path d="M678.642 296.033C676.884 296.033 675.378 295.029 674.373 294.024C672.616 291.764 672.113 287.747 674.876 284.482C678.893 279.711 679.898 265.649 679.898 265.398C679.898 264.896 680.149 264.644 680.651 264.644C681.153 264.644 681.404 265.147 681.404 265.398C681.404 265.9 680.4 280.213 675.88 285.236C673.62 287.747 674.122 291.011 675.629 292.769C677.136 294.527 679.144 294.778 681.404 293.522C681.656 293.271 682.158 293.522 682.409 293.773C682.66 294.024 682.409 294.527 682.158 294.778C680.902 295.782 679.647 296.033 678.642 296.033Z" fill="#A87C4F"/>
<path d="M670.607 254.098C671.36 254.098 670.858 249.327 670.858 249.327C670.858 249.327 658.553 247.569 654.787 250.582C651.271 253.596 645.747 259.371 645.747 259.371L646.5 262.384C646.751 261.882 656.796 256.107 670.607 254.098Z" fill="#7F3610"/>
<path d="M698.229 188.307C698.229 188.307 689.189 172.989 658.553 195.84C643.738 206.889 639.469 227.229 640.473 237.776C642.733 259.371 646.751 265.398 646.751 265.398C646.751 265.398 644.24 238.78 658.302 226.727C672.616 214.673 705.762 211.911 705.762 211.911L698.229 188.307Z" fill="#A55E27"/>
<path d="M754.98 195.84C754.98 195.84 729.618 165.456 677.638 185.042L706.013 211.911C706.013 211.911 715.053 212.162 724.596 215.929C724.344 215.929 754.98 210.656 754.98 195.84Z" fill="#A55E27"/>
<path d="M752.971 269.416H753.222C753.473 269.416 753.976 269.164 754.227 269.416C754.98 269.667 754.98 270.42 754.98 271.173C754.729 271.927 754.227 272.429 753.976 272.931C752.971 274.94 756.236 279.46 752.218 280.464C749.205 281.218 747.698 277.702 748.2 275.191C748.451 272.68 750.711 270.42 752.971 269.416Z" fill="#CA5F38"/>
<path d="M759.249 261.882C759.249 261.882 748.2 256.609 747.949 275.944C747.949 275.944 749.707 273.433 750.46 270.42C752.72 262.636 761.007 264.896 759.249 261.882Z" fill="#CA5F38"/>
<path d="M863.711 569.744L904.893 889.66H914.687L892.087 576.022L863.711 569.744Z" fill="#824B0F"/>
<path d="M423.765 569.744L382.331 889.66H372.538L395.138 576.022L423.765 569.744Z" fill="#824B0F"/>
<path d="M959.636 537.351H329.849V569.744H959.636V537.351Z" fill="#D18325"/>
<path d="M917.7 566.48H371.785V585.564H917.7V566.48Z" fill="#824B0F"/>
<path d="M650.267 594.856L720.076 608.416L786.118 649.849C798.171 650.602 808.467 639.805 809.722 625.491L812.233 595.107L650.267 594.856Z" fill="#8DC6B0"/>
<path d="M648.007 598.873L575.436 617.958C560.871 617.958 548.567 630.513 546.307 647.338L524.962 843.707L570.664 848.478L597.533 686.26L682.911 682.996L728.111 642.818C727.86 642.818 741.169 606.909 648.007 598.873Z" fill="#03233A"/>
<path d="M715.556 604.398C715.556 604.398 632.689 630.764 632.689 659.642L626.662 842.702L672.113 849.231L688.938 689.022L750.209 677.22C816.502 670.942 807.713 648.091 809.973 625.742L788.629 618.46C788.629 618.209 768.289 596.864 715.556 604.398Z" fill="#002650"/>
<path d="M560.118 847.473C560.118 847.473 559.364 852.244 561.122 855.509C562.88 858.773 529.231 859.527 529.231 859.527L524.711 850.738L530.236 844.209L560.118 847.473Z" fill="#231F20"/>
<path d="M561.374 855.509C561.374 855.509 568.656 863.293 567.651 874.342C566.647 885.391 566.647 885.391 566.647 885.391H541.536L516.927 890.162H470.722C470.722 890.162 468.462 876.853 480.516 874.091C492.569 871.329 504.12 868.818 504.12 868.818L514.416 856.513C516.676 854.504 519.187 851.24 524.711 850.989C527.473 850.738 528.729 852.496 531.24 854.253C534.756 857.016 539.276 858.271 543.796 858.271C550.576 858.271 558.862 857.769 561.374 855.509Z" fill="#805634"/>
<path d="M517.178 893.427H470.974V890.162H517.178L539.778 885.391V887.902L517.178 893.427Z" fill="#231F20"/>
<path d="M566.898 885.391H539.778V893.427H566.898V885.391Z" fill="#231F20"/>
<path d="M662.571 847.222C662.571 847.222 660.813 851.993 662.571 855.509C664.329 858.773 630.68 859.527 630.68 859.527L626.16 850.738L632.187 843.456L662.571 847.222Z" fill="#231F20"/>
<path d="M662.571 855.509C662.571 855.509 669.853 863.293 668.849 874.342C667.844 885.391 667.844 885.391 667.844 885.391H642.733L618.125 890.162H571.92C571.92 890.162 569.66 876.853 581.713 874.091C593.767 871.329 605.318 868.818 605.318 868.818L615.613 856.513C617.873 854.504 620.384 851.24 625.909 850.989C628.671 850.738 629.927 852.496 632.438 854.253C635.953 857.016 640.473 858.271 644.993 858.271C651.773 858.271 660.06 857.769 662.571 855.509Z" fill="#805634"/>
<path d="M618.627 893.427H572.171V890.162H618.627L640.976 885.391V887.902L618.627 893.427Z" fill="#231F20"/>
<path d="M668.096 885.391H640.976V893.427H668.096V885.391Z" fill="#231F20"/>
<path d="M777.831 670.942C777.831 670.942 766.531 594.102 677.638 617.204C677.638 617.204 643.236 605.151 604.313 610.676C600.547 611.178 640.473 595.107 650.518 595.107C650.518 595.107 808.718 598.371 810.225 602.891C811.48 607.16 822.529 672.951 777.831 670.942Z" fill="#8DC6B0"/>
<path d="M787.373 99.9156H332.36V121.26H787.373V99.9156Z" fill="#C8AD92"/>
<path d="M744.685 67.5222H617.622V94.3911H744.685V67.5222Z" fill="#FBF9DE"/>
<path d="M622.142 94.3911C620.636 94.3911 619.38 93.1356 619.38 91.6289V70.2844C619.38 68.7778 620.636 67.5222 622.142 67.5222H744.685C743.931 65.2622 741.671 63.7556 739.16 63.7556H621.389C618.125 63.7556 615.614 66.2667 615.614 69.5311V92.3822C615.614 95.6467 618.125 98.1578 621.389 98.1578H739.16C741.671 98.1578 743.931 96.6511 744.685 94.3911H622.142Z" fill="#CA5F38"/>
<path d="M728.111 81.8356H740.416V97.1534L734.389 92.3822L728.111 96.9022V81.8356Z" fill="#F09638"/>
<path d="M600.288 60.4685L715.799 60.4685V36.1107L600.288 36.1107V60.4685Z" fill="#FBF9DE"/>
<path d="M711.788 60.4911C713.295 60.4911 714.3 59.2356 714.3 57.98V38.6445C714.3 37.1378 713.044 36.1334 711.788 36.1334H600.295C601.048 34.1245 603.057 32.6178 605.317 32.6178H712.291C715.304 32.6178 717.564 34.8778 717.564 37.8911V58.7334C717.564 61.7467 715.304 64.0067 712.291 64.0067H605.317C603.057 64.0067 601.048 62.5 600.295 60.4911H711.788V60.4911Z" fill="#002650"/>
<path d="M626.913 47.9355H615.613V61.7466L621.138 57.4778L626.913 61.7466V47.9355Z" fill="#CA5F38"/>
<path d="M740.416 4.49335H609.085V28.8511H740.416V4.49335Z" fill="#FBF9DE"/>
<path d="M613.102 28.8511C611.596 28.8511 610.591 27.5956 610.591 26.34V7.00445C610.591 5.49779 611.847 4.49334 613.102 4.49334H740.667C739.913 2.48445 737.905 0.977783 735.645 0.977783H612.6C609.587 0.977783 607.327 3.23778 607.327 6.25111V27.0933C607.327 30.1067 609.587 32.3667 612.6 32.3667H735.645C737.905 32.3667 739.913 30.86 740.667 28.8511H613.102V28.8511Z" fill="#71593B"/>
<path d="M714.3 16.5467H725.349V30.3578L719.825 26.0889L714.3 30.3578V16.5467Z" fill="#CA5F38"/>
<path d="M555.096 71.0378H439.585V95.3955H555.096V71.0378Z" fill="#FBF9DE"/>
<path d="M443.602 95.3955C442.096 95.3955 441.091 94.14 441.091 92.8844V73.5489C441.091 72.0422 442.347 71.0378 443.602 71.0378H555.096C554.342 69.0289 552.333 67.5222 550.073 67.5222H443.1C440.087 67.5222 437.827 69.7822 437.827 72.7955V93.6378C437.827 96.6511 440.087 98.9111 443.1 98.9111H550.073C552.333 98.9111 554.342 97.4044 555.096 95.3955H443.602V95.3955Z" fill="#002650"/>
<path d="M528.729 83.0911H540.029V96.9023L534.254 92.6334L528.729 96.6511V83.0911Z" fill="#CA5F38"/>
<path d="M414.994 64.0604L546.325 64.0604V39.7026L414.994 39.7026V64.0604Z" fill="#FBF9DE"/>
<path d="M542.289 64.0066C543.796 64.0066 544.8 62.7511 544.8 61.4955V42.16C544.8 40.6533 543.545 39.6489 542.289 39.6489H414.976C415.729 37.64 417.738 36.1333 419.998 36.1333H543.042C546.056 36.1333 548.316 38.3933 548.316 41.4066V62.2489C548.316 65.2622 546.056 67.5222 543.042 67.5222H419.998C417.738 67.5222 415.729 66.0155 414.976 64.0066H542.289V64.0066Z" fill="#71593B"/>
<path d="M441.342 51.7022H430.042V65.5133L435.818 61.2444L441.342 65.2622V51.7022Z" fill="#CA5F38"/>
<path d="M754.98 195.84C752.469 209.651 732.882 207.893 724.596 215.929C718.569 225.22 731.627 240.538 736.649 245.811C736.649 246.313 736.398 246.816 736.398 247.318C735.896 249.327 736.398 274.94 738.658 274.94L742.676 271.927C742.676 253.093 760.756 251.838 760.756 251.838C770.8 223.964 754.98 195.087 754.98 195.84Z" fill="#7F3610"/>
<path d="M697.727 518.518V534.589L685.422 537.351L679.145 537.853C671.109 537.853 663.576 536.849 655.791 535.844C648.76 535.091 642.231 535.593 635.2 536.598C631.433 537.1 627.918 537.351 624.151 537.351C621.891 537.351 617.371 537.602 615.613 536.096C611.596 532.329 621.389 530.069 623.649 529.818C630.931 528.813 637.711 525.8 645.245 527.558C636.707 525.8 628.922 526.302 620.636 527.307C617.12 527.809 612.851 529.316 609.336 528.562C602.807 527.056 607.829 522.787 612.851 523.791C611.596 523.54 610.591 522.033 610.842 520.527C611.596 515.504 621.891 516.258 625.658 515.253C633.191 513.496 640.976 512.491 648.76 512.742C656.293 512.993 664.329 513.747 671.611 515.002C677.136 516.007 682.66 518.769 687.933 521.28C691.449 521.782 697.727 518.518 697.727 518.518Z" fill="url(#paint3_linear)"/>
<path d="M430.042 486.627C429.791 487.129 429.038 490.393 422.258 489.64C415.478 488.887 404.68 485.12 404.68 485.12C404.68 485.12 399.658 482.609 402.671 477.838C405.684 473.067 428.787 480.098 428.787 480.098C428.787 480.098 432.302 483.362 430.042 486.627Z" fill="url(#paint4_linear)"/>
<path d="M427.782 499.433C427.28 499.936 426.275 503.2 419.747 501.442C413.218 499.936 402.671 495.164 402.671 495.164C402.671 495.164 397.9 492.151 401.415 487.631C404.931 483.111 427.029 492.402 427.029 492.402C427.029 492.402 430.293 496.42 427.782 499.433Z" fill="url(#paint5_linear)"/>
<path d="M420.751 506.464C420.5 506.967 419.496 509.729 413.72 508.222C407.945 506.716 399.156 502.949 399.156 502.949C399.156 502.949 395.138 500.438 398.151 496.42C401.165 492.653 420.249 500.689 420.249 500.689C420.249 500.689 423.011 503.953 420.751 506.464Z" fill="url(#paint6_linear)"/>
<path d="M422.509 515.504C422.258 515.756 421.504 518.267 416.733 517.011C411.962 516.007 404.429 512.491 404.429 512.491C404.429 512.491 400.913 510.231 403.424 506.967C405.936 503.702 422.258 510.482 422.258 510.482C422.258 510.482 424.518 512.993 422.509 515.504Z" fill="url(#paint7_linear)"/>
<path d="M411.962 483.613C411.711 484.116 410.958 486.878 404.931 486.124C398.905 485.371 389.362 482.107 389.362 482.107C389.362 482.107 384.842 479.847 387.605 475.578C390.367 471.309 410.707 477.587 410.707 477.587C410.707 477.587 413.971 480.6 411.962 483.613Z" fill="url(#paint8_linear)"/>
<path d="M409.953 495.164C409.702 495.667 408.698 498.429 402.671 497.173C396.895 495.918 387.604 491.649 387.604 491.649C387.604 491.649 383.335 488.887 386.349 484.869C389.362 480.851 409.2 489.138 409.2 489.138C409.2 489.138 412.213 492.402 409.953 495.164Z" fill="url(#paint9_linear)"/>
<path d="M403.676 501.442C403.424 501.693 402.671 504.204 397.398 502.949C392.376 501.693 384.34 498.178 384.34 498.178C384.34 498.178 380.824 495.918 383.336 492.402C385.847 488.887 403.173 496.169 403.173 496.169C403.173 496.169 405.684 498.931 403.676 501.442Z" fill="url(#paint10_linear)"/>
<path d="M405.433 509.227C405.182 509.478 404.429 511.487 400.16 510.482C395.891 509.478 389.111 506.464 389.111 506.464C389.111 506.464 386.098 504.455 388.358 501.693C390.618 498.931 405.182 504.958 405.182 504.958C405.182 504.958 407.191 507.218 405.433 509.227Z" fill="url(#paint11_linear)"/>
<path d="M448.876 484.116C448.876 484.116 446.867 484.618 428.787 480.098C424.518 479.093 406.94 502.196 420.751 515.756C430.042 525.047 442.347 527.558 460.929 522.787C460.929 522.787 474.991 495.416 448.876 484.116Z" fill="url(#paint12_linear)"/>
<path d="M478.507 496.671C479.26 504.455 472.731 512.491 467.458 517.262C459.924 523.791 458.167 523.038 452.893 523.791C451.135 524.042 448.624 525.298 446.867 525.298C444.607 525.047 445.36 523.289 447.118 522.284C450.382 520.276 453.898 518.267 457.162 516.007C456.66 512.742 456.158 509.729 455.655 506.464C455.404 504.958 454.651 503.2 454.902 501.442C455.153 498.178 458.418 495.667 455.404 492.653C453.898 491.147 451.387 487.882 449.127 487.129C444.355 485.12 439.333 482.358 436.069 478.591C432.302 473.82 433.056 470.807 434.06 465.784C434.311 465.031 434.562 464.278 435.316 463.776C436.32 463.022 438.078 463.273 439.333 464.278C440.589 465.031 441.091 466.287 441.844 467.291C443.853 470.304 444.858 473.067 448.876 474.824C451.136 475.829 453.898 476.833 455.907 478.34C456.911 479.093 465.449 482.107 468.462 483.864C470.973 485.371 473.735 487.129 475.493 489.389C477.753 491.398 478.255 494.16 478.507 496.671Z" fill="url(#paint13_linear)"/>
<path d="M293.438 382.164C299.464 403.76 319.302 461.264 353.202 497.676L347.427 538.607C347.427 538.607 255.269 517.764 242.462 425.356C242.462 425.356 228.4 326.167 293.438 382.164Z" fill="#A3591E"/>
<path d="M51.8689 640.558H376.807C386.6 640.558 394.887 648.593 394.887 658.638C394.887 668.431 386.851 676.718 376.807 676.718H51.8689C42.0756 676.718 33.7889 668.682 33.7889 658.638C33.7889 648.593 41.8245 640.558 51.8689 640.558Z" fill="#D18325"/>
<path d="M336.247 885.3H354.076V671.103H336.247V885.3Z" fill="#3A2B1A"/>
<path d="M187.72 648.342H181.191C181.191 648.342 181.191 648.593 181.191 649.347H130.969C79.24 637.293 94.3067 569.744 95.8133 567.233C95.8133 567.233 213.082 582.049 229.153 569.744C229.153 569.744 254.013 592.093 265.062 646.333L187.971 649.347C187.72 648.593 187.72 648.342 187.72 648.342Z" fill="#5E6D68"/>
<path d="M366.511 683.498C315.284 668.682 187.971 656.629 177.927 655.122L241.207 592.093C269.08 588.327 308.002 596.111 369.524 630.011C377.811 634.531 382.833 643.069 379.318 651.858L366.511 683.498Z" fill="#525E5A"/>
<path d="M287.913 653.364L273.851 688.269C235.18 677.973 170.896 660.647 125.696 649.096L137.247 618.711C146.036 562.964 260.542 615.698 270.084 618.711C284.9 623.482 292.684 638.8 287.913 653.364Z" fill="#5E6D68"/>
<path d="M356.216 858.271L348.682 840.693H326.584L323.069 860.28L356.216 858.271Z" fill="#231F20"/>
<path d="M381.829 891.418H421.504L421.002 886.396C420.5 881.624 416.984 877.858 412.213 876.853L387.102 871.831L356.467 856.513L323.069 860.28L320.307 863.544V884.638H352.7L381.829 891.418Z" fill="#3C2F07"/>
<path d="M351.696 893.427V887.149L381.076 893.427H421.756L421.504 891.418H381.829L352.951 884.387H320.558V893.427H351.696Z" fill="#231F20"/>
<path d="M255.018 858.271L251.502 843.204L225.889 841.698L219.36 862.791L255.018 858.271Z" fill="#231F20"/>
<path d="M279.376 891.418H319.051L318.549 886.396C318.047 881.624 314.531 877.858 309.76 876.853L284.649 871.831L254.013 856.513L220.616 860.28L217.854 863.544V884.638H250.247L279.376 891.418Z" fill="#3C2F07"/>
<path d="M249.493 893.427V887.149L278.874 893.427H319.302L319.051 891.418H279.376L250.749 884.387H218.105V893.427H249.493Z" fill="#231F20"/>
<path d="M286.658 681.489C286.658 681.489 277.116 755.818 260.291 846.72C260.291 846.72 236.938 846.72 218.104 845.213C218.104 845.213 229.907 711.371 233.673 669.687C234.427 662.656 234.176 653.616 233.673 643.822H289.671C288.918 660.647 287.913 674.458 286.658 681.489Z" fill="#5E6D68"/>
<path d="M360.987 850.738L317.293 845.967C317.293 845.967 313.778 711.12 323.32 671.193C324.325 667.427 329.598 648.342 329.347 644.073H380.573C380.573 647.589 381.076 651.356 380.573 655.122C360.485 779.924 360.987 850.738 360.987 850.738Z" fill="#525E5A"/>
<path d="M282.891 503.2C282.891 503.2 294.191 498.931 287.913 411.544L269.582 490.142L282.891 503.2Z" fill="#844317"/>
<path d="M191.236 329.431H167.882L120.925 424.1C120.925 424.1 86.5224 549.153 92.5491 569.493C92.5491 569.493 204.545 591.591 234.678 583.053C234.678 583.053 272.596 598.622 281.134 434.396C281.385 427.113 285.151 421.087 286.407 415.311C286.407 415.311 293.689 389.698 293.187 381.662C293.187 373.878 251.251 333.198 191.236 329.431Z" fill="#A3591E"/>
<path d="M204.544 327.924L190.984 329.431C190.984 329.431 212.329 373.878 233.171 383.671L241.458 359.062L249.995 380.909C249.995 380.909 255.018 374.882 258.031 365.34C260.793 355.798 253.009 341.987 253.009 341.987L204.544 327.924Z" fill="#844317"/>
<path d="M204.544 328.427L191.236 329.431C191.236 329.431 213.082 367.851 233.924 376.891L240.956 354.04L251.251 375.636C251.251 375.636 256.273 370.613 258.784 362.327C261.296 354.04 253.009 341.987 253.009 341.987L204.544 328.427Z" fill="#EFE8CE"/>
<path d="M308.253 209.149L313.778 234.009C325.329 208.144 301.724 183.536 284.9 175.249C254.013 160.182 221.871 169.724 220.867 170.227C220.867 170.227 213.082 176.504 220.113 185.544C227.395 194.584 249.996 194.333 249.996 194.333C246.229 194.082 252.507 194.333 252.507 194.333L270.084 205.131L308.253 209.149Z" fill="#716558"/>
<path d="M210.822 298.796L204.293 328.929C204.293 328.929 237.44 366.344 252.758 342.238L254.013 323.404L210.822 298.796Z" fill="#FBBA6F"/>
<path d="M249.242 333.7C249.242 333.7 230.158 338.722 204.293 328.929L210.822 298.796L254.013 323.404L253.511 331.942L249.242 333.7Z" fill="#F28D50"/>
<path d="M304.236 205.633L278.873 206.387L252.507 194.333L239.951 195.338C229.405 198.1 224.131 205.884 224.131 205.884C215.342 217.184 222.373 251.336 222.373 251.336L215.091 249.829C210.571 236.771 198.769 234.511 194.249 234.511L195.002 263.389L204.293 273.433C206.051 318.382 244.22 326.92 253.511 328.176C245.727 326.669 255.52 328.427 255.52 328.427C255.52 328.427 254.767 328.427 253.511 328.176C255.52 328.678 258.785 329.18 263.556 330.184C287.411 334.704 300.971 297.038 300.971 297.038L310.513 250.331L314.531 230.744C314.531 230.744 314.029 223.713 310.262 212.162L304.236 205.633Z" fill="#FBBA6F"/>
<path d="M210.822 248.071C210.822 248.071 210.32 240.287 202.285 238.78C194.249 237.273 187.72 237.524 188.222 249.076C188.725 260.627 195.505 284.482 211.827 268.662C228.149 252.842 210.822 248.071 210.822 248.071Z" fill="#FBBA6F"/>
<path d="M264.56 228.233L259.036 236.52C259.036 236.52 243.969 229.489 233.171 235.264L230.409 232C230.409 232 236.436 227.731 241.207 226.978C246.48 226.476 264.56 228.233 264.56 228.233Z" fill="#716558"/>
<path d="M281.133 231.749L284.147 242.296C284.147 242.296 295.447 241.542 302.478 246.062C309.509 250.582 307.5 251.838 307.5 251.838L308.504 247.067L304.989 241.793C302.98 240.036 301.222 239.031 298.711 238.278L281.133 231.749Z" fill="#716558"/>
<path d="M273.6 283.729C272.345 283.729 271.34 283.478 271.34 283.478C270.838 283.478 270.587 282.976 270.587 282.724C270.587 282.222 271.089 281.971 271.34 281.971C271.34 281.971 277.116 282.724 280.129 280.213C281.385 278.958 282.138 277.451 282.138 275.191C282.138 271.424 280.38 269.416 278.622 266.904C276.111 263.64 273.349 260.124 273.349 251.084C273.349 250.582 273.6 250.331 274.102 250.331C274.605 250.331 274.856 250.582 274.856 251.084C274.605 259.371 277.116 262.636 279.627 265.9C281.636 268.411 283.393 270.671 283.393 274.94C283.393 277.451 282.64 279.711 280.882 280.967C278.873 283.227 275.609 283.729 273.6 283.729Z" fill="#A87C4F"/>
<path d="M251.251 252.089C250.498 256.358 247.485 259.12 244.471 258.618C241.458 258.116 239.951 254.098 240.705 250.08C241.458 245.811 244.471 243.049 247.485 243.551C250.498 244.053 252.256 247.82 251.251 252.089Z" fill="#231F20"/>
<path d="M299.213 261.631C298.46 265.9 295.447 268.662 292.433 268.16C289.42 267.658 287.913 263.64 288.667 259.622C289.42 255.353 292.433 252.591 295.447 253.093C298.46 253.596 300.218 257.613 299.213 261.631Z" fill="#231F20"/>
<path d="M246.982 293.773L254.767 294.024C262.3 294.276 269.582 296.033 276.613 298.796L280.129 300.302C280.129 300.302 276.865 312.356 264.56 309.844C254.516 308.087 246.731 301.056 246.982 293.773Z" fill="#DB763E"/>
<path d="M192.742 246.564C192.742 246.564 192.742 246.313 192.742 246.062C192.993 244.556 197.011 243.802 198.016 243.802C201.782 243.802 204.796 246.564 206.805 249.578C206.805 249.578 206.805 254.349 205.549 255.604C205.047 256.107 204.293 253.344 204.042 253.093C203.038 250.833 201.782 248.824 199.522 247.82C198.267 247.067 196.509 246.564 195.002 246.816C194.751 246.564 192.993 247.569 192.742 246.564Z" fill="#F28D50"/>
<path d="M205.8 257.111C205.8 257.111 200.527 267.156 199.02 263.138C197.513 259.12 198.267 255.353 201.531 251.084C204.796 246.816 200.527 246.816 200.527 246.816C200.527 246.816 210.069 245.56 205.8 257.111Z" fill="#F28D50"/>
<path d="M215.342 249.578L222.624 251.084C222.624 251.084 217.351 226.224 221.369 211.911C222.373 208.396 225.136 205.884 228.651 204.629C237.44 202.118 255.269 193.078 252.507 193.078C252.507 193.078 227.647 194.333 220.364 185.293C213.082 176.253 221.118 169.976 221.118 169.976C220.867 169.976 220.867 170.227 220.616 170.227C217.351 172.487 214.087 175.249 211.324 178.513C204.042 187.051 193.496 192.576 194.5 234.009L196.258 235.264C200.778 235.516 210.822 236.52 215.342 249.578Z" fill="#5A4A42"/>
<path d="M295.196 181.778C295.196 181.778 299.464 196.844 254.013 192.324C254.013 192.324 288.918 207.391 305.993 195.589C306.244 195.589 301.222 186.298 295.196 181.778Z" fill="#9A8479"/>
<path d="M253.511 194.584C253.511 194.584 273.6 213.92 303.482 208.647C303.482 208.647 312.02 212.664 314.531 230.242C314.531 230.242 314.531 209.902 305.491 203.624C296.451 197.347 302.98 213.669 253.511 194.584Z" fill="#5A4A42"/>
<path d="M471.978 509.729C471.978 509.729 416.733 510.231 369.525 483.362C369.525 483.362 324.576 513.496 334.871 521.782C345.418 530.069 398.402 557.942 477.251 528.562L471.978 509.729Z" fill="#FBBA6F"/>
<path d="M481.52 530.571C481.52 530.571 485.538 539.36 504.371 542.625C515.922 544.633 524.962 545.889 529.482 544.382C539.276 540.867 546.307 532.078 546.307 532.078C546.307 532.078 550.576 522.787 538.02 527.558C525.464 532.329 527.222 535.844 527.222 535.844C527.222 535.844 516.927 531.827 513.16 532.329C511.402 531.073 504.622 526.804 502.864 524.042C502.864 524.042 492.569 512.742 486.04 509.478C479.511 506.213 474.991 508.222 474.991 508.222L471.978 509.478L477.251 528.311L481.52 530.571Z" fill="#FBBA6F"/>
<path d="M118.413 443.938C118.413 443.938 124.189 421.338 130.969 418.576C142.269 414.056 151.058 404.764 154.573 393.213C156.833 385.68 158.842 378.147 158.842 374.631C158.842 365.591 158.842 382.918 158.842 382.918C168.636 379.653 124.942 476.833 105.104 491.649C105.104 491.649 121.176 430.127 121.176 425.356L118.413 443.938Z" fill="#844317"/>
<path d="M168.133 329.431C155.829 329.682 145.784 330.938 136.242 335.709C75.4733 365.089 57.1422 462.771 37.8067 510.733C18.4711 558.696 17.4667 611.178 17.4667 611.178L46.5956 616.953C46.5956 616.953 66.1822 539.36 76.4778 520.778C85.2667 504.456 119.92 433.642 144.278 417.32C152.816 411.544 160.098 404.011 164.116 394.469C168.384 384.173 172.653 370.613 173.156 356.049C173.658 346.507 168.133 329.431 168.133 329.431Z" fill="#A3591E"/>
<path d="M17.4667 611.429C17.4667 611.429 4.66004 621.473 3.15337 629.509C1.64671 637.544 -2.62218 649.347 3.6556 653.616C9.93337 657.884 12.1934 655.373 12.1934 655.373C12.1934 655.373 12.9467 659.893 21.2334 658.638C21.2334 658.638 27.7623 665.418 32.0311 661.902C32.0311 661.902 41.3222 666.171 43.8334 654.118C43.8334 654.118 42.3267 646.584 44.8378 648.844C47.3489 651.104 47.3489 663.158 53.8778 660.898C60.4067 658.638 57.8956 655.122 57.8956 655.122C57.8956 655.122 51.6178 644.827 52.8734 638.549C54.1289 632.271 48.1022 617.707 46.3445 617.456C44.5867 616.953 17.4667 611.429 17.4667 611.429Z" fill="#F8B665"/>
<path d="M299.213 517.011L330.853 461.516C332.109 459.256 335.122 458.251 337.633 459.758L376.556 481.353C378.816 482.609 379.82 485.371 378.564 487.631L353.956 541.369C352.951 543.629 350.44 544.633 348.18 544.131C338.387 541.118 313.276 533.082 300.469 523.289C298.46 521.782 297.958 519.02 299.213 517.011Z" fill="#231F20"/>
<path d="M268.578 204.127C268.578 204.127 311.267 213.92 314.531 241.542C314.531 241.542 322.064 234.511 316.289 212.162C311.518 193.58 268.578 204.127 268.578 204.127Z" fill="#5A4A42"/>
<path d="M279.125 207.642C280.129 207.893 296.451 221.956 300.72 231.749C300.72 231.749 299.967 215.176 284.147 206.136C268.327 197.096 279.125 207.642 279.125 207.642Z" fill="#5A4A42"/>
<path d="M291.931 211.409C292.685 211.911 307.249 227.731 310.011 238.278C310.011 238.278 311.518 221.704 296.953 210.656C282.389 199.607 291.931 211.409 291.931 211.409Z" fill="#5A4A42"/>
<path d="M251.502 194.584C251.502 194.584 242.713 200.36 238.947 205.884V200.109C238.947 200.109 225.387 205.382 223.378 215.678C223.378 215.678 221.369 212.664 224.131 205.633C226.893 198.351 251.502 194.584 251.502 194.584Z" fill="#5A4A42"/>
<path d="M244.722 292.518C244.722 292.518 262.049 285.236 286.156 300.553L283.896 291.764C283.896 291.764 277.618 278.707 240.956 287.747V292.518H244.722Z" fill="#716558"/>
<path d="M750.711 277.2C752.72 277.953 750.711 285.487 750.46 287.244C749.456 293.271 748.451 299.549 747.447 305.576C743.931 326.418 728.864 339.476 705.009 342.489C688.435 344.498 676.884 342.74 669.853 337.216C667.844 335.709 666.338 333.7 665.082 331.691C660.562 325.916 657.298 318.131 654.536 309.844C654.536 310.347 654.787 311.1 654.787 311.602C655.791 322.149 657.047 333.951 666.589 341.484C672.616 346.256 681.153 348.767 692.704 348.767C696.722 348.767 700.991 348.516 705.762 348.013C732.129 344.749 748.953 330.184 752.72 306.831C753.976 298.544 755.482 290.258 756.487 281.971C756.989 277.953 758.747 269.918 752.72 269.416C752.218 269.416 751.716 269.416 751.213 269.667C750.209 271.676 749.456 273.936 748.702 276.196C748.953 276.196 749.707 276.949 750.711 277.2Z" fill="#525E5A"/>
<path d="M749.707 269.917C749.957 269.667 749.957 269.667 749.957 269.667L749.707 269.917Z" fill="#231F20"/>
<path d="M748.702 275.693C749.456 273.433 750.209 271.173 751.213 269.164C750.711 269.416 750.209 269.667 749.707 269.918C748.451 271.676 747.698 273.936 748.702 275.693Z" fill="#231F20"/>
<path d="M749.958 269.667L751.967 267.407C751.213 268.16 750.46 268.913 749.958 269.667Z" fill="#231F20"/>
<path d="M431.888 495.809L395.975 487.267L393.825 496.306L429.738 504.848L431.888 495.809Z" fill="#231F20"/>
<path d="M427.341 489.303L403.155 483.553L401.935 488.683L426.121 494.433L427.341 489.303Z" fill="#231F20"/>
<path d="M652.024 191.822C652.024 205.633 663.324 216.933 677.136 216.933C690.947 216.933 702.247 205.633 702.247 191.822C702.247 178.011 690.947 166.711 677.136 166.711C663.073 166.711 652.024 177.76 652.024 191.822Z" fill="#A2A6A5"/>
<path d="M662.571 191.822C662.571 199.858 669.1 206.387 677.135 206.387C685.171 206.387 691.7 199.858 691.7 191.822C691.7 183.787 685.171 177.258 677.135 177.258C669.1 177.258 662.571 183.787 662.571 191.822Z" fill="#F9FEFE"/>
<path d="M752.72 254.349L746.191 256.107C746.191 256.107 743.931 202.871 701.242 197.598V187.804C701.242 187.804 753.222 190.818 752.72 254.349Z" fill="#F9FEFE"/>
<path d="M649.011 585.313L809.974 585.564L812.485 595.107H645.998L649.011 585.313Z" fill="#8DC6B0"/>
<defs>
<linearGradient id="paint0_linear" x1="695.849" y1="334.131" x2="743.716" y2="334.131" gradientUnits="userSpaceOnUse">
<stop stop-color="#E6CDA9"/>
<stop offset="1" stop-color="#FFB288"/>
</linearGradient>
<linearGradient id="paint1_linear" x1="645.926" y1="267.208" x2="760.527" y2="267.208" gradientUnits="userSpaceOnUse">
<stop stop-color="#E6CDA9"/>
<stop offset="1" stop-color="#FFB288"/>
</linearGradient>
<linearGradient id="paint2_linear" x1="742.386" y1="272.277" x2="766.414" y2="272.277" gradientUnits="userSpaceOnUse">
<stop stop-color="#E6CDA9"/>
<stop offset="1" stop-color="#FFB288"/>
</linearGradient>
<linearGradient id="paint3_linear" x1="605.754" y1="525.499" x2="697.611" y2="525.499" gradientUnits="userSpaceOnUse">
<stop stop-color="#E6CDA9"/>
<stop offset="1" stop-color="#FFB288"/>
</linearGradient>
<linearGradient id="paint4_linear" x1="415.101" y1="488.296" x2="417.215" y2="477.25" gradientUnits="userSpaceOnUse">
<stop stop-color="#E6CDA9"/>
<stop offset="1" stop-color="#FFB288"/>
</linearGradient>
<linearGradient id="paint5_linear" x1="410.537" y1="500.242" x2="418.363" y2="487.47" gradientUnits="userSpaceOnUse">
<stop stop-color="#E6CDA9"/>
<stop offset="1" stop-color="#FFB288"/>
</linearGradient>
<linearGradient id="paint6_linear" x1="405.939" y1="507.224" x2="412.683" y2="496.218" gradientUnits="userSpaceOnUse">
<stop stop-color="#E6CDA9"/>
<stop offset="1" stop-color="#FFB288"/>
</linearGradient>
<linearGradient id="paint7_linear" x1="410.038" y1="515.963" x2="415.761" y2="506.624" gradientUnits="userSpaceOnUse">
<stop stop-color="#E6CDA9"/>
<stop offset="1" stop-color="#FFB288"/>
</linearGradient>
<linearGradient id="paint8_linear" x1="398.683" y1="485.133" x2="400.567" y2="475.289" gradientUnits="userSpaceOnUse">
<stop stop-color="#E6CDA9"/>
<stop offset="1" stop-color="#FFB288"/>
</linearGradient>
<linearGradient id="paint9_linear" x1="394.615" y1="495.781" x2="401.591" y2="484.397" gradientUnits="userSpaceOnUse">
<stop stop-color="#E6CDA9"/>
<stop offset="1" stop-color="#FFB288"/>
</linearGradient>
<linearGradient id="paint10_linear" x1="390.517" y1="502.004" x2="396.528" y2="492.193" gradientUnits="userSpaceOnUse">
<stop stop-color="#E6CDA9"/>
<stop offset="1" stop-color="#FFB288"/>
</linearGradient>
<linearGradient id="paint11_linear" x1="394.171" y1="509.792" x2="399.271" y2="501.468" gradientUnits="userSpaceOnUse">
<stop stop-color="#E6CDA9"/>
<stop offset="1" stop-color="#FFB288"/>
</linearGradient>
<linearGradient id="paint12_linear" x1="441.992" y1="481.162" x2="438.526" y2="524.904" gradientUnits="userSpaceOnUse">
<stop stop-color="#E6CDA9"/>
<stop offset="1" stop-color="#FFB288"/>
</linearGradient>
<linearGradient id="paint13_linear" x1="448.461" y1="525.583" x2="459.626" y2="467.253" gradientUnits="userSpaceOnUse">
<stop stop-color="#E6CDA9"/>
<stop offset="1" stop-color="#FFB288"/>
</linearGradient>
</defs>
</svg>
