<svg id="Layer_1" data-name="Layer 1" xmlns="http://www.w3.org/2000/svg" xmlns:xlink="http://www.w3.org/1999/xlink" viewBox="0 0 1916.73 1150.03"><defs><style>.cls-1{fill:none;}.cls-2{fill:#0fb8ad;}.cls-3{fill:#26265e;}.cls-4{fill:#e72753;}.cls-5{fill:#f8b13d;}.cls-6{opacity:0.03;}.cls-7{fill:#1b449c;}.cls-8{fill:url(#New_Pattern_Swatch_5);}.cls-9{fill:url(#New_Pattern_Swatch_6);}.cls-10{fill:#d9e026;}.cls-11{fill:url(#New_Pattern_Swatch_7);}.cls-12{fill:url(#New_Pattern_Swatch_4);}</style><pattern id="New_Pattern_Swatch_5" data-name="New Pattern Swatch 5" width="3" height="3" patternTransform="translate(0 1)" patternUnits="userSpaceOnUse" viewBox="0 0 3 3"><rect class="cls-1" width="3" height="3"/><rect class="cls-3" width="3" height="3"/></pattern><pattern id="New_Pattern_Swatch_6" data-name="New Pattern Swatch 6" width="3" height="3" patternTransform="translate(0 1)" patternUnits="userSpaceOnUse" viewBox="0 0 3 3"><rect class="cls-1" width="3" height="3"/><rect class="cls-4" width="3" height="3"/></pattern><pattern id="New_Pattern_Swatch_7" data-name="New Pattern Swatch 7" width="3" height="3" patternTransform="translate(0 1)" patternUnits="userSpaceOnUse" viewBox="0 0 3 3"><rect class="cls-1" width="3" height="3"/><rect class="cls-5" width="3" height="3"/></pattern><pattern id="New_Pattern_Swatch_4" data-name="New Pattern Swatch 4" width="3" height="3" patternTransform="translate(0 1)" patternUnits="userSpaceOnUse" viewBox="0 0 3 3"><rect class="cls-1" width="3" height="3"/><rect class="cls-2" width="3" height="3"/></pattern></defs><title>Untitled-1</title><g class="cls-6"><path class="cls-7" d="M981.71,1143.67c-7-2.25-12.21-7.42-17.75-13-2.47-2.4-5-4.87-7.63-7-9.59-8.24-19.54-17.37-27.18-28.9-13.1-19.62-15.43-41.93-7.34-70.16,5.69-19.54,13.7-38.25,21.42-56.52,2.24-5.17,4.49-10.41,6.66-15.73,11.75-28.67,25.08-61.24,30.32-96.13,4.42-29.35-3.82-58.7-22.54-80.57-17.14-19.91-40.5-31-65.88-31.14h-9.21a105.73,105.73,0,0,1-18.94-1.27c-14.53-2.47-23.44-11.16-27.26-26.28a84.37,84.37,0,0,1-2.69-23.66,389.65,389.65,0,0,0-4.05-63.79c-6.58-44.33-30.17-74.73-72-93-8.84-3.75-17.75-7.27-26.66-10.79-14.9-5.91-30.25-12-44.92-19.24a205.74,205.74,0,0,1-85.88-77.12c-3-4.86-5.84-9.73-8.76-14.52-7.78-13.1-15.8-26.66-25.16-39.08-13.4-18.27-28.15-27.18-45-27.18-10.93,0-22.69,3.74-35.94,11.53-50,29.35-79.51,75.47-87.68,137.16-3.81,29.88-2.17,60.35,5.17,93,1.12,5.09,2.32,10,3.52,15.13,3.22,13.77,6.59,28,8.53,42.22,2.85,20.67,1.8,42.68-3.22,67.39-8.23,40.8-19,72-34.14,98.23-18,31.45-44.1,49.56-77.49,54.06a236.23,236.23,0,0,1-32.42,2.24c-38.33,0-76.74-9.13-117.47-28-5.77-2.62-11.46-5.39-17.22-8.08-17.75-8.54-36-17.38-55.41-22.77a209.06,209.06,0,0,0-47.69-7.78c-2.92-.15-5.76-.45-8.68-.83a91.61,91.61,0,0,0-11.76-1h0a3.92,3.92,0,0,1-2.92-1.34V719.9A4.21,4.21,0,0,1,9,719.15a20.62,20.62,0,0,1,4,.67,14.32,14.32,0,0,0,2.39.52c51.14,9.74,94.57,28.91,133,58.55,19.16,14.76,35.71,26.51,53.9,36.09,22.24,11.91,44.85,18.42,67.16,19.39,1.73,0,3.45.08,5.17.08,34.52,0,61-14.6,78.69-43.5,18-29.43,27.55-63.19,28.68-100.25.82-24.34-4.2-47.7-9.36-69.41-8.31-34.14-11.53-62.59-10.19-89.32,1.8-39.83,6.37-86.33,27-129.08,8.31-17.6,19.54-34.74,35.19-53.83,5.47-6.67,10.86-13.33,16.25-20,16.7-20.67,34-42,52.63-61.47,11.39-12.06,21.34-21.19,31.38-28.75,21.93-16.25,40.88-36.69,58.1-62.6,19.54-29.05,39.6-53.9,61.47-75.84C659.31,85.81,675.86,72.93,692,60.5l7.49-5.84C717.63,40.51,730,24.41,737.1,5.47A16.59,16.59,0,0,1,741,.38l.29-.37h91.79a10,10,0,0,1,3.45,5.91c5.54,22.84,18.64,40,30.77,53.68,31.15,35,54,71.28,69.86,110.81,10.11,25.39,21.94,52,40.05,74.5a313.12,313.12,0,0,0,52.71,51.21l12.88,10c19.77,15.34,40.28,31.22,61.54,45.14,15,9.74,30.56,15.13,46.43,16.1,1,.07,2.09.07,3.14.07,18.27,0,34.59-7.56,48.44-22.46,11.76-12.28,21.79-27.32,32.42-48.74,10.78-21.56,19.55-44.47,28.08-66.63,3.07-7.94,6.14-15.95,9.28-23.89a497.59,497.59,0,0,1,25.69-56.15c8.91-16.4,11.83-32.5,8.83-49.27-4.72-26.88-5.54-54.28-5.84-77.64a86.47,86.47,0,0,1,.75-9.73,65.9,65.9,0,0,0,.9-9.51A4.78,4.78,0,0,1,1304,0h80.56c2.4,1.42,4,3.44,5.32,6.73,5.77,13.56,11.08,23.51,17.15,32.35,17.67,25.75,42.67,40.73,76.37,45.6a138.05,138.05,0,0,0,22,1.27c4.64,0,9.28.07,13.92.37,8.24.6,16.62,1,24.87,1.28,18.11.67,36.83,1.42,54.87,5.46,32.87,7.34,54.73,32.79,58.63,68.13,2.4,21.19,2.32,38.34-.38,54.06-7.11,42.08-34.66,71.95-73.59,80a128.05,128.05,0,0,1-26.51,2.77c-20.22,0-40.5-4.94-60.28-14.82-13.4-6.66-26.42-14.82-39-22.69-5-3.22-10.11-6.44-15.28-9.51a207.48,207.48,0,0,0-26.35-13.4,74.18,74.18,0,0,0-28.82-6c-14.82,0-29.58,4.57-45.22,13.93-17.6,10.48-32.73,26-47.62,48.74-13.4,20.67-24.19,43.35-34.52,65.36-3,6.44-6.06,12.88-9.21,19.4A141.24,141.24,0,0,1,1231,410.38c-11.38,13.17-26.43,19.91-47.54,21.19-2.48.15-4.87.22-7.19.22-30.78,0-59.37-12.28-87.37-37.51l-41.49-37.21c-24.7-22.09-49.26-44.1-73.82-66.34C949,268.2,928,239.82,911.18,206.35l-.9-1.8C898.83,181.64,887,158,868.13,140c-24.56-23.81-48.15-35.34-74.35-36.39h-2c-18,0-33.84,8.16-48.22,25.15-7,8.17-13.63,17.9-21,30.55a818.76,818.76,0,0,1-73.15,103.4C635.2,280,626.22,298.82,622.7,318.88c-3.9,22.46-1.42,45.3,7.86,72,13.93,40.43,42.38,68.35,87,85.35,13.7,5.24,27.78,9.43,41.48,13.48,9.81,2.92,20,5.91,29.88,9.28,31.21,10.78,55.69,33.09,74.86,68.13,5.09,9.44,9.74,19.32,14.23,28.9,3.37,7.19,6.74,14.38,10.33,21.42,12,23.58,29.72,44.25,55.78,65,30,24.25,51.44,44.32,69.48,65.13a693,693,0,0,1,57.2,76.15c11.83,18.19,22.47,25.83,35.42,25.83,9.66.08,20.14-4.34,32.72-10.78,24.48-12.58,44-33.77,60-64.69,16.85-32.57,29-59.75,38.11-85.66a299.7,299.7,0,0,0,16.32-80.78c.75-13.1,1.12-26.28,1.5-39,.3-11.45.67-22.91,1.27-34.29.67-11.61,1.8-25.31,5.62-38.26,6.59-22.54,21.86-35.79,45.22-39.38a211.08,211.08,0,0,1,32.35-2.7c25.75,0,47.91,5.92,67.68,18.12,22.61,13.93,41.77,34.29,57,60.5,20.14,34.59,32.11,73.22,35.56,114.78l.82,9.95c1.72,21.87,3.59,44.48,11.16,65.82,6.44,18.11,15.65,38.18,36,49.71a63.92,63.92,0,0,0,19.17,7.79,33,33,0,0,0,7.56.9c12.43,0,22.32-7.34,27.71-20.52,6-14.53,8.53-30.1,11.07-45.22l.6-3.9c5-29.27,11.61-63,27.26-93.73,12.13-23.66,25.53-43.36,40.88-60.2,15.12-16.47,31.67-32,47.69-46.87l13.25-12.35c18.35-17.3,35.94-37.14,57.2-64.32,24.26-31.22,45.22-56.75,68.88-80.11,12-11.83,25.61-24.34,42.68-39.31.6-.52,1.2-1.2,2-1.8,1.2-1.19,2.39-2.39,3.44-2.54V454.33c-6.44,11.6-16.32,19.84-26.06,26.95-21,15.65-43.72,27.78-65,38.48-5.62,2.85-11.23,5.54-16.77,8.31-23.06,11.31-46.8,23-68.66,37.74-41,27.78-66.26,61.77-77.64,104.15-4.2,15.57-6.29,29.5-6.29,42.67v7.64c0,13.78,0,28.08,2.7,42.23,5.53,29.34,21.63,50.16,47.76,61.69,14.75,6.66,30.33,11.08,45.38,15.27,4.49,1.21,8.9,2.48,13.32,3.75,23.36,6.81,54,16.62,82.73,32.49,34.67,19.17,54.51,49.34,60.58,92.4,4,28.82-.75,56-14.23,80.86-7.94,14.52-20.36,25-40,34-13.48,6.14-28,10-42.09,13.77-3.51.9-7,1.8-10.55,2.77l-.75.23c-11,3.07-22.31,6.29-33.09,10.93-11.54,5.1-21.42,13.63-30.4,26.65a36.17,36.17,0,0,1-5.54,6.37h-59.3c-2-2.32-2.39-5.55-2.69-9.21l-.38-2.62c-1.87-14.45-4.49-25.91-8.09-36.17-4-11.15-11.45-18.11-22.68-21.26-12.88-3.59-26.06-5-39.23-6.44-20.22-2.24-40.43-4-59.3-5.54-6.89-.52-13.63-.82-19.77-.82-37.29,0-66,9.66-90.59,30.48-12.73,10.85-23.29,25-33.25,44.54-1.64,3.22-3,5.69-5.31,7h-62.52c-.75-1.05-.45-2.32.75-5.39,7.33-19.84,15.58-34.52,25.9-46.35,32.2-36.68,67.54-59.75,108.12-70.38,9.36-2.54,19.47-3.82,31.9-4.19h7.11c4.42,0,8.76,0,13.1.07s8.69.16,13.11.16a226.94,226.94,0,0,0,30.16-1.73c13.56-2,28.91-5.17,40-19.31,3.82-4.95,7.63-10.49,9.21-17.37,5.32-24.78,12.12-86.33-39.91-122.72l-8.39-5.77c-12.27-8.53-24.93-17.21-36.68-26.94-30.77-25.61-49.94-59.75-56.91-101.53-3.29-19.47-4-38.79-4.64-56.91-.52-23.81-1.79-51.36-10.63-77.49-10.33-30.77-25.23-53.31-45.67-68.88-14.52-11.23-30.1-16.92-46.19-16.92a72.27,72.27,0,0,0-15.35,1.65c-19.77,4.41-34.3,17.59-42.83,39.3-6.74,16.93-8.53,34.74-9.44,48.37-3.14,51.21-8.83,98.16-17.36,143.46-3.74,20.06-5.55,40.8-7.34,60.86l-.75,8.31c-3.52,39.09-15.27,70.09-35.94,95.09-6.89,8.24-14.53,15.88-22,23.37-4.64,4.63-9.28,9.35-13.85,14.22-16.4,17.52-27.33,38.11-33.47,63-2.1,8.08-4,16.33-6,24.56-2.77,11.83-5.62,24.1-9,36.09-5.54,20.36-13,40.42-20.22,59.89-2.24,6.14-4.49,12.28-6.74,18.5a9.83,9.83,0,0,1-4,4.94H981.71m-.45,3.06H1116a13.11,13.11,0,0,0,6-7c9.43-26.13,19.69-51.73,27.1-78.61,5.54-20.14,9.74-40.51,14.9-60.72,5.91-23.81,16.47-44.25,32.79-61.69,11.91-12.74,24.78-24.41,36-37.74,23.06-27.85,33.39-60.72,36.68-96.73,2-23.14,3.75-46.28,7.94-69A1159.1,1159.1,0,0,0,1295,591.57c1-16.25,3.15-32.35,9.13-47.55,7.64-19.31,20.74-32.94,40.73-37.36a70.19,70.19,0,0,1,14.61-1.57c15.94,0,30.84,5.84,44.39,16.25,22,16.84,35.49,40.58,44.48,67.46,8.38,24.7,10,50.68,10.63,76.59.53,19.09,1.35,38.26,4.57,57.28,7.11,42.23,26.12,77,58,103.39,14.45,12.06,30,22.24,45.23,32.87,41.62,29.13,47.68,77.87,38.71,119.65-1.43,6.14-4.87,11.23-8.61,16.09-10,12.8-23.6,16.1-38,18.2a220.34,220.34,0,0,1-29.72,1.64c-8.77,0-17.45-.3-26.21-.3-2.4,0-4.72.08-7.11.16-11.08.3-21.94,1.35-32.65,4.19-43.57,11.53-79.36,36.83-109.76,71.42-11.91,13.63-20,30-26.43,47.17-1.28,3.45-2.4,6.74.82,9.58h64.62c3.67-1.79,5.47-5.15,7.26-8.67,8.53-16.63,18.57-31.75,32.57-43.66,26.58-22.53,56.75-29.72,88.57-29.72,6.44,0,13,.3,19.47.82,19.77,1.65,39.53,3.37,59.3,5.47,13,1.5,25.9,2.85,38.63,6.36,10,2.77,16.92,8.91,20.67,19.39a176.18,176.18,0,0,1,7.93,35.49c.75,5.25.6,10.71,4.8,14.52h61.69c2.91-2.16,5-5.09,7.19-8,7.63-11,16.77-20,28.9-25.23,10.86-4.79,22.23-7.94,33.47-11.09,18-4.93,36-8.83,53.08-16.7,16.84-7.63,31.89-17.74,41.48-35.26,14-25.75,18.71-53.46,14.6-82.81-6.07-42.45-25.69-74.56-62.14-94.63-26.59-14.68-54.74-24.41-83.34-32.72-19.61-5.76-39.53-10.41-58.4-18.87-25.16-11.15-40.51-30.77-46-59.52-3.14-16.4-2.55-32.8-2.69-49.27,0-14.22,2.54-28.3,6.28-41.93,12.13-45.37,39.91-77.64,76.37-102.34,27-18.2,56.31-31.38,85.06-45.83,22.69-11.45,44.92-23.51,65.44-38.78,10.63-7.79,20.66-16.4,27.32-28.68V308.4a5.75,5.75,0,0,0-2.92-.82c-3.14,0-5.24,3.22-7.48,5-14.6,12.81-29,25.91-42.91,39.54-25,24.7-47.39,52.41-69.11,80.41-17.74,22.69-36.23,44.4-56.89,63.94s-41.79,38.26-61.1,59.37c-16.62,18.27-30,38.71-41.33,60.95-15.12,29.65-22,62-27.56,94.63-2.76,16.48-5.15,33-11.52,48.45-4.94,12-13.71,18.49-24.86,18.49a32.06,32.06,0,0,1-6.89-.75,58.86,58.86,0,0,1-18.27-7.49c-18.41-10.33-27.7-28.3-34.66-48.06-8.61-24.11-9.66-49.72-11.91-75-3.44-41.85-15.27-80.56-35.94-116.13-14.67-25.3-33.54-46.49-57.94-61.54-22-13.55-45.38-18.57-69.33-18.57a213.44,213.44,0,0,0-32.8,2.77c-23,3.52-40.43,16.62-47.69,41.48-3.75,12.65-5,25.91-5.77,39-1.19,24.41-1.35,48.82-2.77,73.22a295.68,295.68,0,0,1-16.17,80c-10.41,29.58-23.58,57.58-38,85.13-13.85,27.1-32,49.71-58.55,63.41-12.58,6.52-22.46,10.56-31.37,10.56-11.53,0-21.34-6.88-32.87-24.56A699.62,699.62,0,0,0,1016,745.58c-21.11-24.41-45.07-45.52-69.93-65.59-22.16-17.6-41.71-37.74-55-63.94-8.46-16.62-15.65-34-24.56-50.39C848.59,532.87,824.63,508,789.89,496c-23.51-8-47.77-13.78-71.21-22.69-39.38-15-70.23-40-85.2-83.48-7.94-22.83-12-46.19-7.79-70.45,3.67-20.89,13-38.94,26.06-54.73A825.21,825.21,0,0,0,725.12,160.9a212.09,212.09,0,0,1,20.74-30.17c12.28-14.45,27.18-24,45.9-24h2c28.59,1.12,51.81,15.65,72.32,35.49,18.94,18.12,30.62,42,42.38,65.51,16.32,32.49,37.06,61.39,63.19,85.28,38.26,34.74,76.89,69,115.23,103.55,25.9,23.36,55.25,38.33,89.47,38.33,2.47,0,4.87-.08,7.41-.23,18.87-1.12,36.09-6.43,49.57-22.23a142.65,142.65,0,0,0,20.36-32.12c13.86-28.53,26.35-57.88,43.58-84.38,12.57-19.24,27.1-36.16,46.57-47.77,14.14-8.54,28.67-13.48,43.65-13.48a70.09,70.09,0,0,1,27.63,5.77,206.59,206.59,0,0,1,26,13.18c18,10.93,35.49,22.91,54.36,32.34,19.91,9.88,40.5,15.12,61.69,15.12a129.48,129.48,0,0,0,27.1-2.84c40.43-8.31,68.74-39.16,76.07-82.43,3.07-18.27,2.4-36.69.3-55-4-37.51-27.85-63.34-60.94-70.75-26.58-5.92-53.46-4.8-80.19-6.82-11.9-.82-23.89.3-35.72-1.57-30.17-4.42-55.85-17.37-74.27-44.32-6.88-10-12.13-20.74-16.92-31.82-1.57-4-3.74-6.74-7.26-8.61h-82.73c-1.8,1.87-3.3,3.66-3.3,6.51,0,6.36-1.65,12.73-1.49,19.32.22,26.13,1.34,52.33,5.83,78.09,3,17.07-.44,32.49-8.53,47.24-9.88,18.12-18.12,37.06-25.83,56.53-12,30.25-22.76,61.17-37.28,90.3-8.61,17.37-18.57,34.06-31.83,48-12.87,13.85-28.37,21.49-46.27,21.49-1,0-2,0-3-.08-16-1-31-6.59-44.85-15.57-25.83-16.85-49.79-36.17-74.28-55A310,310,0,0,1,979.61,243c-17.67-21.86-29.2-47.61-39.6-73.67-16.93-42.15-41-78.69-70.39-111.71-13.4-15.2-25.07-31.67-30.1-52.41a13,13,0,0,0-5.46-8.23H740c-2.17,2.32-4.49,4.26-5.76,7.41-7.57,20.06-20.52,35.34-36.69,47.92-18.94,14.75-38,29-55.26,46-23.13,23.28-43.42,48.89-61.84,76.29-16,24-34.51,44.92-57.35,61.84A254.82,254.82,0,0,0,491.3,265.5c-24.63,25.76-46.35,54.06-69,81.61-13.63,16.62-26.13,34.52-35.57,54.51-19.69,40.73-25.3,85.2-27.33,130.2-1.57,30.62,3.07,60.64,10.26,90.22,5.39,22.46,10.11,45,9.29,68.58-1.05,35.64-10,68.73-28.23,98.68s-44.77,42.08-76.07,42.08c-1.65,0-3.37,0-5-.15-23.06-.9-45.22-7.94-65.88-19-19-10-36.39-22.68-53.46-35.85C109.9,745.28,64.76,726.63,16,717.35c-2.24-.37-4.64-1.27-7-1.27a7.58,7.58,0,0,0-5.62,2.39V801c1.72,1.87,3.44,3.3,6,3.3h.52c6.67,0,13.18,1.49,19.77,1.72a206.08,206.08,0,0,1,47,7.71c25.23,6.88,48.37,19.77,72.18,30.7,38.33,17.67,77.79,28.23,118.74,28.23a232.23,232.23,0,0,0,32.87-2.33c35-4.64,61.47-23.81,79.74-55.55,17.59-30.55,27.48-64.39,34.44-99.13,4.57-22.46,6.44-45.37,3.29-68.36-2.69-19.54-7.86-38.56-12.12-57.58-6.82-30.39-9.14-60.79-5.1-92,7.94-60.35,36.54-105.8,86.18-134.92,12.21-7.11,23.59-11.08,34.37-11.08,15.35,0,29.35,7.93,42.52,25.9,12.66,16.92,22.76,35.49,33.77,53.39,21.94,35.26,51.29,60.87,87.15,78.31,23.44,11.61,48,19.92,71.73,30.1,38.71,16.85,63.49,45.67,70.15,90.59a382,382,0,0,1,4,63.35,89.38,89.38,0,0,0,2.76,24.4c4.13,16.33,13.86,25.84,29.73,28.61a113.69,113.69,0,0,0,19.47,1.27h9.21c53.53.22,93.89,51.58,85.42,108.19-5.09,33.61-17.52,64.46-30.17,95.46-9.88,23.89-20.73,47.32-28.15,72.55-7.34,25.46-7.49,49.86,7.71,72.7,7.72,11.6,17.52,20.74,27.7,29.5,8.77,7.26,15.65,17.29,27,20.73Z" transform="translate(-3.27 3.14)"/><path class="cls-7" d="M10.1,450.81a4.76,4.76,0,0,1-3.67-1.35V402.37a6,6,0,0,1,4.49-1.5,27.9,27.9,0,0,1,3.45.3l2.62.22,4.71.15c8.24.38,16.48.68,24.64.68,14.15,0,32.72-.83,51.66-7.42,34.51-12.28,60.64-35.49,80-71.05,13.4-24.78,20.81-53.38,23.28-89.85,1.35-22.23.45-44-.67-66.18-1-23.89-2.17-45.45-7.12-67.09-4.56-19.69-15.87-32.79-33.61-39-21-7.18-43-9.73-62-11.6-14.82-1.35-29.5-1.57-43.2-1.57l-11.15.07H32.49a111.06,111.06,0,0,0-17.9,1,19.88,19.88,0,0,1-3.59.37,6.1,6.1,0,0,1-4.57-1.65V35.27c.08-11,.15-22-.07-33a16.5,16.5,0,0,0,0-2.17,12.39,12.39,0,0,1,2-.15C86.32,0,164.48,0,242.43,0A56.89,56.89,0,0,0,270.8,7.79,60.53,60.53,0,0,0,287.27,5.4c3-.83,6.07-1.43,9.14-2A96.57,96.57,0,0,0,309.81,0h72.1c.53,1.49-.22,2.92-2.47,5.84a163.15,163.15,0,0,1-40.13,38.63c-4.79,3.22-9.73,6.44-14.6,9.58-12.95,8.39-26.28,17.07-38.63,27.11-17,13.85-28.61,33.24-36.54,61-6.89,23.88-9.06,48.74-11.23,72.85l-.23,2.17c-3.37,37.43-9.13,77.12-28.52,113.65a238.18,238.18,0,0,1-23.06,34.82c-32.8,41.48-76.22,67.68-129.08,77.94-13.1,2.47-27.55,4.72-45.6,7a7,7,0,0,1-1.72.15m0,3.07a11,11,0,0,0,2.17-.15c15.27-2,30.55-4.27,45.75-7.12,52.26-10.1,96.43-35.48,130.87-79.06a238.34,238.34,0,0,0,23.36-35.26c18.94-35.64,25.31-74.73,28.9-114.78,2.25-25.08,4.35-50.17,11.31-74.5C259.12,119.8,269.3,98.84,288,83.56c16.77-13.7,35.27-24.63,53-36.54A166,166,0,0,0,381.91,7.64c2.17-2.84,5.09-6.44,1.72-10.7H309.29c-7.42,2.69-15.2,3.44-22.84,5.54A57.13,57.13,0,0,1,270.8,4.72a53.64,53.64,0,0,1-27.55-7.78q-117.36,0-234.87-.08c-4.2,0-5.17,1-5.09,5.47.3,15.64.07,31.37.07,47A8.91,8.91,0,0,0,11,52.94a25.08,25.08,0,0,0,4-.37,104.66,104.66,0,0,1,17.45-1c7.41,0,14.82-.07,22.23-.07,14.38,0,28.68.22,42.9,1.57,20.74,2,41.41,4.64,61.32,11.45,16.92,5.92,27.26,18.12,31.6,36.77,5,21.93,6.14,44.32,7,66.56,1.12,22,2,43.8.67,65.81-2.09,31.37-8.08,61.25-22.91,88.57-18.12,33.32-43.5,57.28-78.39,69.63-16.7,5.84-33.62,7.27-50.61,7.27-9.66,0-19.47-.45-29.2-.83-2.1-.15-4.2-.52-6.22-.52a9,9,0,0,0-7.56,3.37v49.41a7.91,7.91,0,0,0,6.74,3.3Z" transform="translate(-3.27 3.14)"/><path class="cls-7" d="M413.73,1143.67c2.32-18.79,7.86-38.11,17.9-62.07,11.45-27.7,26.8-53.61,41.7-78.62,4.57-7.63,9.13-15.42,13.63-23.13l1.57-2.77c12.28-21.56,25.08-44,40.05-64.09,33.62-44.92,72-70.08,117.4-76.67a124.35,124.35,0,0,1,19.25-1.5c26.35,0,47.31,9,64.16,27.41,10.48,11.68,16.1,26.88,20.89,41.47,8.83,25.69,14,53,18.94,79.52l1.2,6.14c7.49,40.88,19,76.89,35.19,110.21a183,183,0,0,1,14.82,44.1H753.87a10.37,10.37,0,0,1-3.07-6.07l-.75-4.93c-4-28.09-8.23-57.14-10.1-86l-.68-9.88c-1.2-19-2.47-38.71-5.24-57.95-3.67-24.56-9.73-52.87-27.63-76.53-13.92-18.56-32.56-28.75-55.55-30.39-2.32-.15-4.57-.23-6.81-.23-25,0-48.89,10.86-73.08,33-20.21,18.57-33.62,42.46-45.52,65.29-10.41,19.69-21.34,39.46-32,58.55-6.66,12.13-13.4,24.26-20,36.39-14.45,26.88-22.91,48.52-27.48,70.23-.9,4.49-1.8,7-4.19,8.46H413.73m-3.44,3.06h32.27c4.41-2.09,5.54-6.43,6.44-10.92,5.24-24.86,15.42-47.47,27.17-69.33,17.3-31.83,35.12-63.05,52-95C540.41,948,553.59,924.89,573.06,907c20.59-18.94,43.57-32.19,71-32.19a64.19,64.19,0,0,1,6.59.3c21.48,1.49,39.68,10.93,53.3,29,16.63,22,23.06,48.06,27,75.17,3.3,22.38,4.42,44.92,5.92,67.61,2,30.62,6.51,60.86,10.85,91.12a14.17,14.17,0,0,0,4.87,8.67h71.51a186.21,186.21,0,0,0-15.73-48.51c-16.84-34.66-27.93-71.13-35-109.38-5.46-29-10.63-58.26-20.21-86.18-5.09-15.35-10.86-30.55-21.56-42.46-18.87-20.74-41.86-28.52-66.41-28.52a137.39,137.39,0,0,0-19.7,1.57c-49.94,7.26-88.42,36.47-119.42,77.94-15.72,21.12-28.75,44.18-41.85,67.09-19.32,33.54-40.43,65.89-55.48,102.12-8.83,21.12-16.1,43-18.49,66.33Z" transform="translate(-3.27 3.14)"/><path class="cls-7" d="M126.3,1143.67a28.7,28.7,0,0,1-7.19-5.32c-11.9-12.5-26.95-19.32-46-21-4.35-.38-8.91-.53-13.93-.53-8.91,0-18,.6-26.8,1.19l-7.64.46a31.69,31.69,0,0,0-4.57.45c-1.94.14-3.89.44-5.84.44a11.86,11.86,0,0,1-7.86-2.39V1014.59l8.69-1.42,34.51-5.92A113.88,113.88,0,0,1,69,1005.53c22.38,0,44,7.11,63.86,21.11,32.72,22.92,57.28,52.41,73,87.53,4.2,9.36,6.89,19.16,9.66,29.5H126.3m-.75,3.06h94c-3.14-11.52-6.06-23-10.93-33.84-16.69-37.28-42.07-66.33-74-88.79-20.36-14.23-42.3-21.56-65.66-21.56a119.44,119.44,0,0,0-19.84,1.65c-15.28,2.69-30.55,5.23-45.75,7.78v106.32c3.37,3.29,7.11,4,10.93,4,3.52,0,7.11-.67,10.56-.9,11.45-.59,22.91-1.57,34.29-1.57,4.57,0,9.13.15,13.7.52,16.77,1.5,31.82,7.26,44,20.07a31.57,31.57,0,0,0,8.68,6.28Z" transform="translate(-3.27 3.14)"/><path class="cls-7" d="M1916.85,193.92c-4-5-7.56-10.48-11.07-15.79-2.4-3.67-4.8-7.34-7.27-10.94l-5.17-7.18c-8.68-12.43-17.66-25.24-28.44-36.47-17.23-17.74-38.94-31.44-64.54-40.73-10.79-3.81-21.57-7.33-32.5-10.85-10-3.3-20.21-6.59-30.25-10.19-26.13-9.35-43-32.94-44.62-61.76h62c4.5,2.09,8.24,5.46,12.36,9.35,11.15,10.41,24.48,15.8,39.45,21.27q8.43,3.14,16.85,6.06c18,6.37,36.76,13,53.83,23.14,12.8,7.49,24.18,17.37,34.29,26.05,1.5,1.35,2.4,3.37,3.45,5.69.45,1.2,1,2.4,1.64,3.6v98.75m3.07,8.16V94.34c-2.17-3.59-2.92-8-6.21-10.78-11.09-9.58-22-19-34.67-26.35-22.53-13.48-47.09-20.44-71.2-29.43-13.62-5-27.26-10.33-38.41-20.66-4.26-4-8.46-7.86-13.7-10.18h-65.89c.53,31.29,18.27,57.5,46.72,67.75,20.82,7.34,41.93,13.63,62.75,21,23.8,8.61,45.37,21.42,63.41,40,12.66,13.11,22.68,28.38,33.32,43.28,7.86,11.08,14.37,23.29,23.88,33.09Z" transform="translate(-3.27 3.14)"/><path class="cls-8" d="M220.26,1143.67a7.32,7.32,0,0,1-3.37-4.94c-7.33-28.23-21.18-53.68-42.45-78-19.91-22.68-40.95-38.86-64.24-49.34-12.28-5.39-25.53-8-40.5-8a183.74,183.74,0,0,0-27.48,2.32c-5.54.9-11.08,2-16.55,3-4.86,1-9.66,2-14.6,2.69a10.85,10.85,0,0,1-2.09.3,3.51,3.51,0,0,1-2.55-.9V804h1c44.4,0,85.51,10.49,125.71,32a302.18,302.18,0,0,0,112.83,35,232.75,232.75,0,0,0,24.49,1.35,163.5,163.5,0,0,0,50.91-7.64c24.56-7.93,44-24.4,57.58-48.81,20.59-36.69,33.31-77.87,38.93-125.94,2.32-20.51.75-42.08-5.32-69.78q-1.9-8.54-4-17.07c-3.44-14.3-7-29-8.53-43.87-6.52-63.64,5.91-114.33,38-155,20.51-25.83,40.58-41.25,63.19-48.66,8.46-2.85,15.65-4.2,22.09-4.2,14.6,0,26,7,39.53,24.41,9.43,11.83,17.45,25.23,25.23,38.19,6.67,11.15,13.63,22.76,21.49,33.39,14.6,20.14,33.17,36.91,56.68,51.21,19.54,11.83,40.65,20.22,61.09,28.23,9.59,3.82,19.47,7.71,29.05,11.9,30.93,13.63,50.39,32.05,61.33,58,7.41,17.82,10.1,37.29,12.05,54.13a220.76,220.76,0,0,1,.9,26.21c-.08,10.56-.15,21.34,1.64,32.12,4.72,29.87,17.3,35.94,41.93,37.73,4.27.3,8.54.38,12.73.45,9.66.15,18.72.3,27.85,2.92,35.86,9.89,63.19,47.4,63.49,87.16.38,30.17-9,58.32-18.11,81.9-5.85,15-12,29.88-18.13,44.7-5.16,12.5-10.33,25-15.27,37.59-7.71,19.69-11.68,36.09-12.57,51.44s3.81,30.17,15,46.19c6.36,9.28,14.52,16.48,22.31,23.36,3.44,3.07,6.82,6.06,10.1,9.28,4,3.9,8,7.79,12.13,11.76H825.45a7.57,7.57,0,0,0-.75-.75c-1.2-1.28-1.87-1.94-2.1-3.22-4.87-20.07-13.25-38.71-21.41-56.75l-1.2-2.63c-15.72-34.21-23.5-71.8-29.57-104.21-5.09-27.18-11-56.08-21.19-83.49-14.37-39-40.73-58-83-59.74h-5C626,832.88,593,847,557.26,877.35c-22.39,19.17-38.56,43-56,72.78l-7,11.67c-16.24,27.48-33.09,55.86-48.74,84.46-16.62,30.48-27.55,59.75-33.39,89.32-.67,3.22-1.35,6.06-3.15,8.09H365.44c-1.05-1.87-.6-4,.3-7.19l.45-1.64a288.25,288.25,0,0,1,17.07-49.19c35.41-78.32,68.06-135,105.87-183.74a332.43,332.43,0,0,1,144.5-108c18.34-7.19,38.18-12.88,54.06-17.44,27.25-8,46.12-26,57.8-55.33,11-27.55,16.47-51.36,17.29-74.65,1-26.58-8.76-48.82-29-66C719,567.83,702.29,558.77,686,550l-6.44-3.59-4.27-2.4c-18.72-10.26-38.11-20.89-55.4-34.29-15-11.83-29.95-26.73-47-46.87a268.73,268.73,0,0,0-27.85-29.2c-11.53-10.11-24.56-15.5-37.74-15.5-17.44,0-34.74,9.21-48.74,26.06-20.37,24.63-28.23,55.1-24.78,96,1.64,18.2,6.06,35.57,11.23,54.59,9.13,33.24,10,66.33,2.39,101.22-12.05,55-25,98.53-40.95,136.71-15.2,36.84-42.23,58.85-82.66,67.4-15.5,3.28-31.74,4.63-47.39,6l-4.35.3-9.73.75c-18,1.35-36.61,2.69-54.65,8.08-5.4,1.65-12.36,4.2-18.72,9.44-9.74,8.08-13.11,18.87-10.48,33,2.84,14.67,9.73,27.1,15.34,36.23,9.21,15,19.84,29.2,30.18,42.83q7.63,10.11,15.05,20.21c16.24,22.76,32.49,48,40.73,78.47l.37,1.35c.82,3.06,1.35,5.09.67,7H220.26m-.75,3.06h63.12c2.77-4,1.2-8.08.15-12.12-8.08-29.8-23.81-55.11-41.25-79.52-15-20.8-31.52-40.65-45.08-62.89C189.72,981.27,184,970,181.48,957c-2.25-12-.08-22,9.43-30,5.39-4.49,11.38-7,17.67-8.9,20.89-6.22,42.38-7,63.72-8.69,17.52-1.42,35-2.69,52.18-6.36,38.79-8.24,68.36-29.28,84.83-69.18,18.35-44.18,30.85-90.3,41.11-137.24,7.49-34.52,7-68.66-2.47-102.65-4.79-17.82-9.44-35.64-11.08-54.06-2.92-34.52,1.79-66.86,24.11-93.81,13.1-15.8,29.49-24.94,46.34-24.94,12,0,24.26,4.57,35.71,14.75a263.12,263.12,0,0,1,27.48,28.83c14.6,17.22,30,33.54,47.55,47.32,18.79,14.6,39.45,25.6,60,37,18.42,10.11,37.21,19.62,53.69,33.7,19.24,16.39,28.9,37.43,27.92,63.64-.9,25.75-7.71,50.09-17.07,73.67-10.78,27-28.6,45.52-55.78,53.46-18.19,5.24-36.53,10.56-54.35,17.52C574.86,813.56,525.74,849.5,486.73,900,443.23,956,410,1019,380.49,1084.37a294.73,294.73,0,0,0-17.3,49.71c-1.05,4.27-2.92,8.61.75,12.65h46.35c3.07-2.69,4-6.58,4.86-10.48,6.22-31.59,18-60.79,33.1-88.56,17.82-32.43,36.83-64.24,55.63-96.07,15.5-26.43,32.12-52,55.4-71.88,30-25.6,62.74-43.87,101.9-43.87,1.65,0,3.22,0,4.87.15,42.53,1.65,66.78,21,80.34,57.66,10,26.88,15.72,54.87,21,83,6.74,36.09,14.53,71.72,29.81,105,8.61,19.16,17.36,38.11,22.38,58.77.52,3.08,2.85,4.27,4.5,6.36H981.26c-5.84-5.68-11.76-11.37-17.59-17.06-10.79-10.48-23.14-19.25-32-32.19-9.2-13.18-15.42-27.56-14.45-44.18,1-17.6,6-34.29,12.35-50.46,10.86-27.56,22.62-54.74,33.4-82.36,10.33-26.51,18.72-53.68,18.42-83.11-.45-41.33-28.38-79.66-65.82-90-13.7-3.89-27.4-2.54-41.17-3.44-24.56-1.8-34.82-7.79-39.16-35.19-3.15-19.32-.3-38.78-2.48-58.25-2.16-18.87-5-37.51-12.27-55-12.58-29.87-35.57-47.46-63-59.52-29.95-13.18-61.32-22.76-89.77-40-21.49-13.1-40.43-29.27-55.78-50.39-16.92-22.91-29-49.41-46.79-71.73-13.26-16.92-25.31-25.53-41.93-25.53-6.81,0-14.38,1.43-23.06,4.35-26.58,8.68-47.17,27.7-64.62,49.71-36,45.52-44.62,99.43-38.7,157.16,2.17,20.88,8.16,40.95,12.65,61.24,4.94,22.76,7.93,45.52,5.24,68.88-5.17,44.48-17,86.41-38.56,124.74-12.8,23.06-31.52,39.53-55.85,47.39a160.58,160.58,0,0,1-49.94,7.49A240.44,240.44,0,0,1,246.24,868a298.6,298.6,0,0,1-111.7-34.66C94.33,811.76,52.18,801,7.4,801h-4v211a6.4,6.4,0,0,0,5.62,2.7,16.2,16.2,0,0,0,2.62-.23c10.4-1.72,20.66-4,31.07-5.69a174.4,174.4,0,0,1,27-2.32c13.25,0,26.35,2.09,39.23,7.78,24.56,11.09,45,27.86,63.19,48.52,19.39,22.16,34.14,47.32,41.78,76.82a10.49,10.49,0,0,0,5.61,7.18Z" transform="translate(-3.27 3.14)"/><path class="cls-7" d="M1120.37,1143.67q3.81-10.68,7.63-21.34c10.26-28.3,20.9-57.65,27.56-88.27,4-18.42,8.09-37.44,15-55.34A104.64,104.64,0,0,1,1192,943.84c6.66-7.27,13.47-14.31,20.36-21.35,4-4.18,8.16-8.38,12.13-12.57,25.16-26.13,39.61-57.72,43.06-94.12,4.49-47.84,12-96.28,18.86-137.91,3.22-19.09,4.56-38.78,5.91-57.8l.82-12.28c1.43-19.31,3.08-41.33,9.66-61.69,8.09-25.08,30.4-41.85,55.49-41.85a54.41,54.41,0,0,1,9.21.74c29.79,5.1,52.18,23.59,70.67,58.1,11.91,22.32,18.27,48.07,20.14,81.09.38,7,.68,14.23,1,21.34.67,20.14,1.42,41.1,5.46,61.47,8.84,44.69,31.23,80.34,66.57,106l14.37,10.33c8.83,6.28,17.9,12.72,26.5,19.54,22.32,17.6,34.15,40.43,36.24,69.85,1.35,16.25.83,28.75-1.5,40.74-3.44,18.57-14.07,30.84-31.74,36.53-9.44,3.15-20.21,4.65-33.69,4.94H1521c-4.12-.15-8.31-.15-12.35-.15a257.17,257.17,0,0,0-27,1.21c-25.23,2.54-50.23,12.12-76.51,29.34-27.18,17.74-46.5,36.09-60.58,57.65-9.28,13.93-15.57,27.26-19.17,40.66h-73.51c-1.21-1.42-1.35-3.37-1.51-6.37v-1.49c-.14-4.35-.14-8.61,0-12.88.16-8.39.3-17-1.41-25.61l-.38-1.79c-1.13-5.84-2.55-13-10.1-15.73a16.72,16.72,0,0,0-4.57-.75c-6.22,0-10.78,4.35-14.68,8.39a137.71,137.71,0,0,0-28.67,44.32l-1,2.48c-1.35,4-2.69,7.48-5.69,9.43h-63.49m-4.34,3.06h68.66c5.31-2.84,6.66-8.67,8.68-13.92,6.51-16.47,16.17-30.62,28.08-43.27,3.44-3.67,7.41-7.41,12.43-7.41a10.77,10.77,0,0,1,3.59.67c6.59,2.32,7.19,9.13,8.46,15.12,2.54,12.66.83,25.31,1.35,38,.22,4-.16,8.08,3.36,10.77h77.12c3.75-15.41,10.78-29.19,19.32-42.07,15.65-23.81,36.69-41.78,59.74-56.75,23.07-15.13,47.78-26.13,75.1-28.9a264.71,264.71,0,0,1,26.74-1.12c8.23,0,16.46.22,24.7.22,2.7,0,5.39,0,8.09-.15,11.83-.15,23.43-1.35,34.59-4.94,18.12-5.91,30.1-18.57,33.92-38.93,2.61-13.78,2.61-27.41,1.57-41.48-2.25-30.55-14.83-54.21-37.44-72.11-13.32-10.55-27.4-20-41-30-34.89-25.37-56.6-60-65.36-104.14-5.31-27.25-4.87-54.88-6.36-82.43-1.65-29.13-6.9-56.91-20.52-82.29-16.4-30.7-38.18-53.76-72.77-59.67a63.34,63.34,0,0,0-9.81-.82c-26,0-49.8,17.29-58.48,43.95-6.44,20.29-8.16,41.4-9.73,62.44-1.65,23.28-2.77,46.79-6.74,69.85-7.42,45.82-14.52,91.72-18.87,138.06-3.37,36-17.89,67.09-42.15,92.25-10.78,11.3-21.94,22.46-32.57,34a107.86,107.86,0,0,0-22.09,35.94c-7,18.12-11,37.13-15,56-8.53,39.09-23.51,75.77-36.53,113Z" transform="translate(-3.27 3.14)"/><path class="cls-7" d="M1154.51,364.85a78.06,78.06,0,0,1-17.6-2.17c-12.5-2.84-24.78-8.53-37.36-17.44-30.4-21.27-62.51-44.55-91.42-70.83-23-21-39.9-43.28-52-68.28-4.94-10.19-9.51-20.74-13.92-30.93-6.82-15.57-13.78-31.67-22.09-46.79-10.41-19.47-23.74-38.48-40.58-58.17C871.42,60.8,862,49.57,853.6,37.59,846.49,27.33,841.33,15.05,837.88,0h95c2.4,1.42,2.92,3.89,3.67,8l.23,1.27c8.68,45.3,20.51,93.36,36.08,147,8.39,28.68,21.34,53.31,38.41,73.15a162.54,162.54,0,0,0,36.84,31.3c25.38,15.42,47.61,24,69.86,27.1a49.48,49.48,0,0,0,5.83.38c20.22,0,36.09-14.53,39.39-36.09,2.4-14.6,1.19-29.2-.08-43.28l-.6-7.33c-4.49-53.76.38-100.56,15-142.86,5.54-15.8,14.45-30.17,23.36-44.47.9-1.35,1.73-2.85,2.55-4.27C1205.65,6,1207.67,2.4,1211,0h88.64a97.4,97.4,0,0,1-.75,10.63c-.3,3.44-.6,6.74-.74,10.18-.16,29.87,1.79,56.08,5.83,80.11a67.81,67.81,0,0,1-7.78,46c-13.78,25.23-24.41,52.48-34.74,78.84l-1,2.77-2.84,7.41c-11.39,29.35-23.22,59.75-40.58,86.33-9,13.55-17.75,23.36-27.71,30.84a55.82,55.82,0,0,1-34.74,11.68m0,3.07a58.91,58.91,0,0,0,36.54-12.27c11.38-8.54,20.44-19.47,28.45-31.6,19-29.12,31.07-61.84,43.72-94.34,10.78-27.63,21.56-55.33,35.64-81.23a71.38,71.38,0,0,0,8.17-48.07c-4.5-26.28-5.92-53-5.77-79.59.15-7.86,1.79-15.8,1.35-23.88H1210c-5.76,3.66-8.16,10.18-11.6,15.57-9,14.3-18.05,28.82-23.74,45.07-16.09,46.57-19.31,94.86-15.2,144.13,1.35,16.55,3.45,33.17.75,49.86-3.15,20.44-18,33.55-36.39,33.55a44.93,44.93,0,0,1-5.47-.38c-24.85-3.44-47.24-13.7-68.65-26.65a158.44,158.44,0,0,1-36.09-30.7c-17.82-20.74-30-45.15-37.74-71.95-14.07-48.29-26.57-97-36.08-146.75-.9-4.64-1.35-9.43-6.14-11.75H834.06c3.15,15.19,8.16,29.65,17,42.37,8.09,11.53,17,22.31,26.13,33,15.28,17.82,28.91,36.53,40.22,57.57,13.54,24.94,23.5,51.81,35.93,77.64,13.1,27.18,31.37,49.72,52.79,69.19,28.75,26.2,60.19,49,91.72,71.12,11.83,8.39,24.33,14.75,38.4,17.9a81.43,81.43,0,0,0,18.27,2.24Z" transform="translate(-3.27 3.14)"/><path class="cls-8" d="M1914.31,1146.89l-.3-3.07q-45.15-.22-90.3-.23l-45.22.08h-40.73c5.39-12.81,15.12-22.69,29.8-29.87,14.15-6.89,29.65-10.79,44.7-14.61,4.41-1.12,8.84-2.17,13.25-3.36a229,229,0,0,0,33.62-12.13c25.53-11.39,42.15-32.35,49.49-62.45,9.88-41,3.07-79.66-20.37-114.7-7.48-11.3-18.12-20.81-33.39-29.95-22.76-13.62-48.52-24.18-83.63-34.36l-13.4-3.82c-15.28-4.19-31.15-8.69-46.13-14.75-29.34-11.91-45.74-32.8-50.08-64-7.87-55.4.6-100.62,25.9-138.36,18.12-26.95,42.3-48.52,71.8-64.16,17.68-9.51,35.87-18.8,53.46-27.86,12.58-6.44,25.3-12.88,37.89-19.54,20.51-11,37.58-22.31,52.25-34.66a72.19,72.19,0,0,0,7.12-7.34,65.23,65.23,0,0,1,6.81-7v145.7a2.57,2.57,0,0,1-1.49.44,12.94,12.94,0,0,1-3.08-.59l-.82-.15c-4.79-1-9.43-2.25-14.15-3.37-14.75-3.6-30-7.34-45.52-8.61-7.71-.6-14.9-.9-21.94-.9-37.74,0-68.36,9.88-93.51,30.1-26.58,21.56-40.66,49.56-41.86,83.25-1.34,41.18,16.77,70.91,52.42,86.11,26.8,11.38,54.28,17.22,81.75,17.22a205.61,205.61,0,0,0,52.26-6.89c6.37-1.72,12.58-4,18.57-6.29,4-1.5,8.09-3,12.21-4.34l.89-.31a12.89,12.89,0,0,1,3.22-.74,1.62,1.62,0,0,1,1,.3V886q0,127.13.08,254.11a10.54,10.54,0,0,1-.3,3.44,6.37,6.37,0,0,1-2.32.23v3.07m0,0c5,0,5.69-1.65,5.69-6.74q-.24-174.75-.08-349.8a5.19,5.19,0,0,0-4.12-2,16.46,16.46,0,0,0-5.09,1.27c-10.18,3.29-20.14,7.64-30.54,10.49a199,199,0,0,1-51.52,6.8c-27.4,0-54.28-5.76-80.56-17-36.39-15.5-51.73-45.22-50.46-83.11,1.13-33.84,15.65-60.79,40.66-81,27.62-22.31,58.92-29.5,91.56-29.5,7.19,0,14.38.38,21.71,1,20.07,1.64,39.53,7.41,59.15,11.9a26.28,26.28,0,0,0,4.65.82,5.63,5.63,0,0,0,4.56-2.17V455.07c-7.93,4-12.43,12.06-19,17.67-16,13.48-33.47,24.49-51.74,34.3-30.32,15.94-61,31.07-91.34,47.39-29,15.42-53.91,36.91-72.85,65.06-28.53,42.53-33.54,90.45-26.44,140.61,4.65,33.25,22.92,54.66,52,66.41,19.54,7.86,39.83,12.88,59.89,18.65,28.61,8.38,56.76,18.42,82.89,34,12.5,7.56,24.18,16.69,32.41,29.12,22.69,33.92,29.8,71.5,19.92,112.24-6.88,28.22-22,49-47.76,60.41a231.18,231.18,0,0,1-33.18,11.91c-19.69,5.32-39.9,9.14-58.47,18.12-14.82,7.41-27.1,18.42-32.94,35.78h90.44c30.1,0,60.2,0,90.3.16Z" transform="translate(-3.27 3.14)"/><path class="cls-8" d="M42.67,399.74c-13.93,0-25.53-.44-36.24-1.34V355.94a4,4,0,0,1,3.07-1c.9,0,1.8.15,3.07.22,4.12.68,8.24,1.42,12.35,2.17,12.51,2.17,25.38,4.5,38.49,4.5h1c37.74-.15,66.64-18.65,85.8-55,9.21-17.44,13.93-37.06,14.45-60.12.53-31.37-3.74-57.8-13-80.86-10-24.93-27-42.23-50.39-51.51-15-6.14-31.45-9.43-53.16-10.63l-5.09-.3c-9.29-.53-18.94-1-28.53-1H11.52c-2.39,0-4-.45-5.09-1.57V52.12c12.65-1,25.31-1.2,36.09-1.2H54.05l11.6.07c29.95.08,56.76,3.15,81.91,9.44,9.81,2.32,20.14,5.61,28.83,13.85,12,10.93,15.05,25.75,17.37,41.33,2.1,14,2.77,28.45,3.52,42.3.3,7.19.67,14.3,1.2,21.41a411.48,411.48,0,0,1-.38,61.4c-5.24,66.93-31.59,113.58-80.56,142.7A117.72,117.72,0,0,1,58.62,399.6c-5.32.07-10.64.14-15.95.14m0,3.07c5.31,0,10.7-.07,16-.15A120.7,120.7,0,0,0,119.11,386c53.16-31.59,77.12-82.36,82.06-145.1a417,417,0,0,0,.38-61.84c-1.58-21.34-1.65-42.68-4.72-63.94-2.4-16-5.62-31.52-18.34-43.13-8.84-8.31-19.25-12-30.18-14.6-27.1-6.74-54.8-9.43-82.66-9.51-7.71,0-15.42-.07-23.13-.07-13,0-26.06.22-39.16,1.5v52.48c2.1,2.85,5,3.52,8.16,3.52h2.92c11.16,0,22.24.75,33.47,1.35,17.89,1,35.34,3.52,52.11,10.4,22.84,9.06,39.16,26.06,48.74,49.79,10.18,25.31,13.25,52.19,12.8,79.67-.45,21-4.49,40.65-14.07,58.77-18.2,34.44-45.15,53.24-83.11,53.39h-1c-17.07,0-33.62-4-50.39-6.59a29.18,29.18,0,0,0-3.52-.3,7,7,0,0,0-6.14,3v46.35c13.1,1.27,26.21,1.64,39.31,1.64Z" transform="translate(-3.27 3.14)"/><path class="cls-9" d="M1916.85,87.16c-18.27-17.07-35.34-29.13-53.08-37.51-11-5.32-22.53-9.29-33.62-13.18-4.94-1.72-9.88-3.45-14.82-5.24l-4.87-1.87c-10.41-3.82-21-7.79-30.77-13.86A77.06,77.06,0,0,1,1762.17,0h152.28c1.21,0,1.88.07,2.11.07s.14,0,.14-.07a5.82,5.82,0,0,1,.23,2.47c-.15,21.71-.08,43.65-.08,65.58v19.1m3.07,7.18c0-30.62-.14-61.39.08-91.86.07-4.95-1.35-5.54-5.55-5.54H1755.73c6.44,8.23,13.48,15.72,22.31,21.18,11.53,7.12,24,11.31,36.24,16,16,6,32.49,10.78,48.14,18.35,21.64,10.18,40.2,25,57.5,41.92Z" transform="translate(-3.27 3.14)"/><path class="cls-7" d="M271.18,8.47V5.4a76.35,76.35,0,0,1-14.6-1.5,14.64,14.64,0,0,1-7-3.89h47.47a64.82,64.82,0,0,1-25.9,5.39V8.47m0,0A69.43,69.43,0,0,0,309.29-3.06h-66c3.14,4.94,7.49,8.91,12.73,10a75.77,75.77,0,0,0,15.2,1.58Z" transform="translate(-3.27 3.14)"/><path class="cls-10" d="M1557.47,257.64v-3.07a80.08,80.08,0,0,1-9.28-.6c-24.86-3-46.13-16-66.71-40.95-4.79-5.92-9.51-12.36-14.38-19.77-5.32-8.31-7.19-18.12-5.46-29.2,1.49-8.76,8.53-13.33,16.24-17.52,16.17-8.46,35-12.8,58.78-13.55,17.14.6,35.19,2.84,50.76,14.82,29.5,23,28.3,62.89,16,81.76-10.86,16.77-25.91,25-46,25v3.07m0,0c19.61,0,36.39-7.56,48.59-26.43,13.11-20.29,13.85-62.07-16.85-85.8-15.72-12.21-33.69-14.83-52.4-15.5-20.82.67-41.33,4-60.35,13.92-7.79,4.27-16.17,9.44-17.82,19.7-1.72,10.85-.3,21.78,5.84,31.37A245.68,245.68,0,0,0,1479.15,215c18.42,22.39,40.21,38.64,68.58,42.08a88.36,88.36,0,0,0,9.74.6Z" transform="translate(-3.27 3.14)"/><path class="cls-11" d="M1105.85,847.25c-10.34,0-19.25-5.61-27.26-17.07-4-5.77-8.09-11.52-12.13-17.37-11.6-16.92-23.66-34.29-36.84-50.24A516.14,516.14,0,0,0,980.51,710c-8.23-7.63-17-14.75-25.45-21.71-12.88-10.71-26.29-21.64-38-34.37-11.45-12.35-21.11-26.8-29.57-44-2.47-5.09-4.87-10.26-7.26-15.42-7-14.83-14.08-30.1-23.36-44-17.82-26.66-39-43.95-64.76-53-10.56-3.67-21.42-6.89-31.9-10-13.41-4-27.26-8.09-40.51-13.25-18.12-7.12-41.1-17.67-58.7-37-19.69-21.64-31.44-47.77-35.94-79.89-4.11-28.3.9-53.53,15.13-77.27,6.89-11.45,15-21.48,22.76-30.69,21.79-25.68,39.61-53.24,54.21-76.82,7.63-12.5,16.69-27,27-40.58,12.51-16.7,30.71-26.28,49.8-26.28a59.21,59.21,0,0,1,18.93,3.14c32.88,10.79,58,31.52,76.9,63.49,5.31,9.14,10.33,18.65,15.2,27.93,8.09,15.35,16.47,31.3,26.58,45.82,18.19,26.13,40.58,47.25,60.12,64.54l6.21,5.39c19.92,17.52,40.51,35.57,60.2,54.06l4.57,4.27c15.87,14.82,32.34,30.17,51.36,41.63,20.07,12.05,41.1,18.19,62.52,18.19a117.4,117.4,0,0,0,22.09-2.1c16.69-3.22,30.69-13.17,42.6-30.47a178.08,178.08,0,0,0,13.4-24.33l5.69-12.21c10.86-23.36,22-47.61,36.39-69.33,13.85-21.26,28-36.16,44.62-46.87,15.35-9.88,30.85-15,46-15,13.1,0,26.36,3.74,39.46,11.08,12.43,7,24.93,14.53,36.91,21.71,8.54,5.09,17.07,10.26,25.61,15.2,20.81,12.21,43,18.5,66.18,18.72,44.18,0,74.88-17.07,94.11-52.34,6.82-12.65,10.56-27.4,12.06-46.42,1.5-21.93-.07-40.88-4.94-58.1-8.09-27.85-26.51-45.44-54.8-52.41-16.33-4-33-5-49.27-6.06l-9-.6c-7.49-.37-15.27-.45-22.68-.45-17.38-.15-35.34-.22-52.64-5-30.92-8.38-54.21-28.07-69.18-58.54-2.77-5.7-5.31-11.68-7.78-17.45-.46-1.12-.9-2.17-1.35-3.29h58.85c.3.22.67.44,1,.74a13.76,13.76,0,0,1,4.35,3.9c9.58,16,24.18,26.73,44.77,32.57a146.05,146.05,0,0,0,40.73,5.84,161.48,161.48,0,0,0,56.3-10.56c12.59-4.87,21.86-13.78,27.7-26.5a12.75,12.75,0,0,1,5.09-6h59.68c1.8,2,2.32,5,2.85,8.16,4.86,28.9,21.48,47.84,50.76,58.1,8.61,3,17.3,5.69,26.13,8.38,9.28,2.92,18.87,5.92,28.15,9.21,37.21,13.18,66,35.57,88.12,68.28,6.07,9.14,12.43,18.05,18.8,27l7.56,10.78a28.14,28.14,0,0,1,3.45,7.19,41.89,41.89,0,0,0,2.46,5.76V307c-24.18,20.81-51.89,45.37-76.22,73.45-12.73,14.82-25,30.25-37,45.22l-12.58,15.72a581.07,581.07,0,0,1-53.91,58.85l-10.48,9.66c-21.86,20.22-44.48,41-63,65.74-25.38,34.14-42.15,74.72-49.93,120.54-.76,4.34-1.51,8.69-2.18,13-2.62,16.55-5.46,33.69-11.6,49.49-3.75,9.36-11.09,20.59-25.46,20.59a34.62,34.62,0,0,1-9.59-1.5c-19.16-5.69-33.39-17.82-43.19-37-9.52-18.65-14.83-40.14-16.85-67.69-3.15-40.43-9.29-87.45-32.2-130.28-25.9-48.06-56.6-75.54-96.65-86.55a152,152,0,0,0-39-5.09,159.24,159.24,0,0,0-34,3.75c-27.4,6.28-42.37,23.5-46.94,54.2-2.92,19.54-4.26,41.33-4.12,66.64.46,53.53-10.63,103.55-34,152.89l-4.27,9.13c-9.81,21-20,42.68-33.62,61.7-15.58,21.86-36.39,36.83-63.49,45.82a32.13,32.13,0,0,1-10.78,1.94m0,3a38.58,38.58,0,0,0,11.83-2c26-8.68,48.21-23.58,65-47,15.73-22,26.58-46.87,38.19-71.28,22.91-48.51,34.74-99.73,34.21-154.31-.15-21.93.83-44.17,4.12-66.11,4.34-29,17.67-45.52,44.47-51.66a153.81,153.81,0,0,1,33.4-3.67,146.81,146.81,0,0,1,38.18,5c44.33,12.13,72.93,44.32,94.79,85.05,21.42,40.06,28.38,84,31.74,129,1.81,24,6.3,47.24,17.22,68.8,10.18,19.77,25.09,32.65,45.08,38.56a35.8,35.8,0,0,0,10.48,1.57c12.8,0,22.61-8,28.3-22.46,7.94-20.21,10.18-41.93,13.93-63.11,7.49-44.1,23.36-84.09,49.42-119.2,21.18-28.38,47.54-51.29,73.07-75a579.89,579.89,0,0,0,54.2-59.15c16.48-20.44,32.5-41,49.57-60.87,23.44-27.18,50-50.91,76.89-74.05V202.08c-2.47-4.41-3.36-9.65-6.51-14-8.84-12.58-17.75-24.93-26.28-37.66-22.76-33.69-52.79-56.38-89.63-69.48-18-6.36-36.38-11.38-54.35-17.59-26-9.06-43.73-26-48.67-55.71-.75-4-1.42-8-4.64-10.7h-61.77A16.15,16.15,0,0,0,1621,4.8c-5.39,12-14.15,20.29-25.91,24.85C1576.78,36.39,1558.37,40,1539.8,40A144.12,144.12,0,0,1,1500,34.3c-17.6-5-33-14.3-43-31.22-1.8-2.92-4.57-4.27-7-6.14h-64.54c3.67,8.38,7.11,16.92,11.16,25.15,15.27,31.22,38.78,51.44,71.12,60.2,25,6.89,50.62,4.19,75.92,5.54,19.47,1.35,38.79,2,57.65,6.59,26.36,6.44,44.56,22.39,52.56,50.24,5.4,18.72,6.22,38,4.79,57.05-1.12,15.8-4.11,31.22-11.6,45.22-20.44,37.51-53.08,50.69-91.42,50.69h-.3c-22.46-.22-44.32-6.59-64.39-18.27-20.88-12.2-41.4-25.08-62.52-37-13.7-7.71-27.32-11.45-41-11.45-16,0-31.9,5.24-47.62,15.5-18.79,12.13-33.17,28.75-45.59,47.77-16.85,25.6-29.13,54-42.16,81.91A177.63,177.63,0,0,1,1238.74,400c-10.25,14.82-23,25.76-40.65,29.2a118.23,118.23,0,0,1-21.49,2c-21.34,0-41.63-6.14-61-17.74-20.37-12.36-37.74-29.2-55.34-45.53-21.78-20.36-44.09-39.9-66.41-59.52-21.85-19.24-42.67-39.46-59.74-63.94-16-23.13-27.4-49.26-41.63-73.6-18.86-32-44.77-53.76-78.54-64.84A64.11,64.11,0,0,0,794,102.8c-20.07,0-39.09,9.89-52.27,27.41-10,13.1-18.71,27-27.17,40.88-16.55,26.73-33.77,52.63-53.91,76.44-8.31,9.81-16.32,19.84-23.06,31.07C623,302.86,617.91,329.22,622,357.89c4.42,31.3,16,58.7,36.77,81.54,16.54,18.12,37.66,29.05,59.82,37.73,23.73,9.29,48.44,14.83,72.47,23.29,26.81,9.36,47.09,27.62,63.27,51.81,12.28,18.27,20.66,39.08,30.4,59,8,16.32,17.74,31.44,30.09,44.77,19.4,21.11,42.76,37,63.58,56.23a521.11,521.11,0,0,1,48.88,52.26c17.6,21.26,32.72,44.7,48.75,67.46,8.61,12.21,18.41,18.27,29.8,18.27Z" transform="translate(-3.27 3.14)"/><path class="cls-8" d="M273.42,831.83c-25.53,0-51.58-8.08-79.66-24.56-13.7-8.23-27-17.82-39.68-27.1-9.44-6.89-19.1-13.93-29.05-20.37-30.48-20-65.52-33.17-113.43-42.67l-5.09-1L6.43,716V638.59c18.49,10.85,37.74,20.66,56.38,30.17C74,674.45,85.12,680.14,96.13,686c25.45,13.7,49.94,31.59,79.51,58.17,21.26,19.25,42.68,37.37,69.78,47.1a84,84,0,0,0,27.63,4.94c31.14,0,55.93-20.06,68-55.11,9.58-28.3,10.11-58.1,1.57-93.66a381.66,381.66,0,0,1-10.48-111.63c2.62-45.23,5.47-86,13.1-126.39,4-21,12.43-41.85,24.94-61.77,2.62-4.26,5.31-8.53,8-12.8,12.28-19.24,24.93-39.16,34.06-61,7.79-18.87,15.13-38.26,22.24-57L439,204.55c13.4-35.33,37.21-60.72,70.68-75.17C543,115,571.11,96.59,595.52,73c20.51-20,41.7-42.38,57-70.31A17.85,17.85,0,0,0,653.77,0h82.28c-5.54,19.16-16.47,35.11-33.39,48.66l-10,7.94c-24,19.09-48.81,38.78-69.85,63a526.78,526.78,0,0,0-43.28,57.27c-15.2,23-34.74,43.58-59.82,63-24.41,18.87-44,42.31-62,64.62-14.9,18.34-29.88,36.83-44.55,55.48-25.16,31.59-40.81,69.18-47.92,114.85a498.8,498.8,0,0,0-5.69,58.85c-1,26.95,2.4,54.88,10.41,87.9,5.76,23.36,10.85,48.52,9.13,75.17C376.45,740.49,364,775.38,341,803.23c-12.66,15.57-30.18,24.86-52,27.55a121.71,121.71,0,0,1-15.58,1.05m0,3a127.22,127.22,0,0,0,15.95-1c21.34-2.7,40-11.53,54-28.67,25.31-30.7,36.39-68,38.86-108.27,1.65-26-3.07-51.06-9.21-76.07-7-28.45-11.38-57.35-10.33-87a512.56,512.56,0,0,1,5.61-58.55c6.59-42.23,21.19-80.56,47.32-113.43,14.68-18.57,29.65-37.06,44.55-55.4,18.87-23.44,38.11-46,61.47-64.17s43.8-38.48,60.5-63.72a531.38,531.38,0,0,1,43-57C648.83,94.34,677,73.16,704.61,51.07,721.9,37.22,734.48,19.62,740-3.06H651.6a29.76,29.76,0,0,1-1.72,4.19c-14.75,27-35,48.81-56.53,69.7-25.23,24.34-53.61,42.23-84.83,55.71-34.22,14.82-58.48,40.35-72.33,77-8.76,23.06-17.37,46.27-26.8,69.1-11,26.36-26.95,49.49-41.85,73.38-12.06,19.24-21,40.13-25.31,62.81-7.94,41.78-10.71,84.38-13.18,126.84a381.67,381.67,0,0,0,10.56,112.45c7.34,30.7,8.91,61.25-1.5,92-11.6,34-35.64,53.08-65.06,53.08a82.4,82.4,0,0,1-26.58-4.79c-26.58-9.58-48-27.7-68.81-46.57-24.93-22.31-50.91-42.82-80.11-58.55C66.25,666.51,34,651.54,3.36,633.19v85.28c2.55.6,5.17,1.13,7.64,1.65,39.45,7.79,77.71,19.54,112.38,42.23,23.28,15.27,44.85,33.24,68.81,47.47,25.45,15,52.26,25,81.23,25Z" transform="translate(-3.27 3.14)"/><path class="cls-11" d="M6.43,518V453.35c44.1-4.34,94.26-11.83,136.57-42.6,52.86-38.63,84.3-91.49,93.59-157,1.72-12.58,3-25.46,4.26-38,1.8-18,3.6-36.54,7-54.36C254,128.26,265,105,282.11,88.13,294.91,75.85,310,66.27,324.78,57l4.42-2.77C353.61,38.86,370.08,24,382.59,5.92A28.68,28.68,0,0,0,385.36.53c.07-.15.14-.37.22-.52h46.27c-6.06,30.47-23.21,54.2-53.83,74.42-4.12,2.69-8.24,5.24-12.36,7.86-14.75,9.43-30,19.09-43.5,31.75-14,13-24.55,30.24-33.24,54.28-8.24,22.31-11.75,46-15.2,68.88-.82,5.69-1.65,11.38-2.54,17-4.87,29.58-11,60.73-28.23,87.23-16.17,25-37.29,45.9-57.65,66L183.8,409c-20,19.62-43.27,36.32-71.2,50.92-6.89,3.59-13.78,7.11-20.67,10.7-28,14.53-56.9,29.5-84.3,46.87a5.85,5.85,0,0,1-1.2.6m-3.07,4.49A35.53,35.53,0,0,0,9.28,520C43.12,498.58,78.76,481.06,114,462.56c26.06-13.62,50.39-30.25,72-51.43S228.8,369,245.5,343.07c17.37-26.73,23.58-57.2,28.67-88.35,4.64-28.75,7.49-57.88,17.6-85.35,7.26-20.07,16.92-38.64,32.49-53.09,16.92-15.87,36.46-26.88,55.4-39.31,28.61-18.86,49.72-43.27,55.86-80H383.63C382.44-.59,381.54,2,380,4.2,366,24.41,347.62,39,327.55,51.59,311,62.07,294.24,72.18,280,86c-20.51,20.06-29.87,46.57-35.19,74.87-5.76,30.47-7,61.84-11.3,92.47-9.36,66.26-41.18,117.54-92.32,155-41.33,30-89.32,37.66-137.84,42.3v71.95Z" transform="translate(-3.27 3.14)"/><path class="cls-12" d="M446.38,1143.67A285.68,285.68,0,0,1,473.1,1071c6.67-12.43,13.56-24.63,20.37-36.91,6-10.56,11.9-21.19,17.74-32,2.92-5.23,5.77-10.62,8.61-16,8.32-15.57,16.85-31.66,26.43-46.64,18.72-29.35,40.66-48.74,67-59.22A86.75,86.75,0,0,1,645,874c29.72,0,55.11,16.85,69.56,46.2,9.43,18.71,15.19,40.65,18,69,1.42,14.07,2.47,28.15,3.52,42.22,1.12,14.68,2.24,29.87,3.74,44.77,1.65,15.88,4,32,6.29,47.47,1,6.67,2,13.41,2.92,20.07H701v-53.91c-.07-12,.68-24.26,1.5-36.16,1-15,2-30.55,1.2-46-1.2-23.51-4.27-48.37-18.79-70.23-11.76-17.75-29-27.56-48.52-27.56-12,0-24.48,3.82-36,11-16.77,10.63-30.48,26.88-41.86,49.49-5.24,10.63-10.55,21.19-15.8,31.74-15.64,31.6-31.89,64.17-48.74,95.69a147.38,147.38,0,0,0-16.24,45.9H446.38m-3.82,3.06h37.81a142.7,142.7,0,0,1,16.32-47.46c22.46-42.08,43.27-84.9,64.61-127.51C571,952.3,583.76,935,602,923.47,613,916.58,624.94,913,636.4,913c17.52,0,34.22,8.31,46,26.06,13.7,20.66,17.07,44.47,18.27,68.72,1.35,27.41-2.92,54.74-2.7,82.07v56.89H752.6c-3.22-23.65-7.19-47.24-9.66-70.9-2.92-29-4.42-58-7.26-87-2.47-24.34-7.34-48.15-18.34-70-16-32.35-43.28-47.92-72.33-47.92a89.72,89.72,0,0,0-32.87,6.44c-29.27,11.68-51.06,33.17-68.51,60.42-12.87,20.15-23.66,41.86-35.11,62.9-12.58,23-25.61,45.74-38.11,68.8a289.09,289.09,0,0,0-27.85,77.26Z" transform="translate(-3.27 3.14)"/><path class="cls-9" d="M1396.94,1143.67c19.17-44.78,52.27-70.9,98.38-77.72a162.54,162.54,0,0,1,24.12-1.64c13.17,0,26.58,1.27,39.53,2.47l3.89.3c4.49.44,9,.75,13.4,1.19,14.75,1.2,30,2.47,44.85,5,32.64,5.53,36.69,9.58,43.73,43.87a154.83,154.83,0,0,1,3.59,26.58h-57.81c-3.51-2.17-6.5-5.17-9.72-8.31-3.75-3.82-7.79-7.72-12.81-10.41-21.19-11.45-40.8-17-59.82-17-17.07,0-33.84,4.63-49.87,13.77-7.78,4.5-13.17,9.13-17.22,14.82a21.09,21.09,0,0,1-7.78,7.12h-56.46m-4.56,3.06h61.76a24.85,24.85,0,0,0,9.59-8.38c4.27-6.14,10-10.33,16.24-14,16.26-9.22,32.27-13.26,48.3-13.26,19.62,0,39,6.14,58.4,16.54,9,4.8,14.45,14,23.13,19.09h61.78c0-10.32-1.65-20.36-3.75-30.24-7.26-35.64-12.2-40.58-46.27-46.35-19.32-3.22-38.93-4.34-58.4-6.06-14.6-1.35-29.13-2.85-43.72-2.85a170.9,170.9,0,0,0-24.56,1.65c-49,7.26-83.19,35.34-102.5,83.85Z" transform="translate(-3.27 3.14)"/><path class="cls-9" d="M8.38,1143.82c-1.05,0-1.58-.08-1.8-.08H6.51a5,5,0,0,1-.15-2.1c.22-5.39.22-10.85.15-16.31,0-1.35-.08-2.7-.08-4,8.39-.08,16.77-.68,24.93-1.2,8.84-.6,17.9-1.2,26.81-1.2h1.19c21.19.07,44.63,3.22,60.43,24.71H96.2l-29.35-.08q-29.31,0-58.47.23m0,3.07c19.46-.16,39-.16,58.47-.16h58.7C109.83,1121,85.12,1116,59.36,1115.89H58.17c-18.05,0-35.94,2.4-54,2.4H3.36c0,7.71.3,15.5-.07,23.21-.15,4.41.89,5.39,5.09,5.39Z" transform="translate(-3.27 3.14)"/><path class="cls-12" d="M1722,1053.82v-3.07a147.37,147.37,0,0,1-17.52-1c-15-2-23.81-9.28-28.45-23.8-4.19-12.88-6.89-27.18-8.39-43.73-.15-2.62-.45-5.24-.75-7.79-.74-6.14-1.49-11.9-.6-17.67a120.06,120.06,0,0,1,4-38c6.52-23.89,13-30.1,36.09-35.34a69.53,69.53,0,0,1,15-1.49c12.8,0,25.3,3,40,7.63,22,6.74,37.59,15.73,49.19,28.45,17.15,18.57,26.06,41.63,24.26,63.34-1.49,18.05-10.33,33.85-25.45,45.82a87.42,87.42,0,0,1-32,15.43c-15,3.82-34.74,8.23-55.4,8.23v3.07m0,0c19,0,37.66-3.59,56.15-8.31a89.29,89.29,0,0,0,33.09-16c38.79-30.33,32.42-80.34,1.65-113.66-13.78-15-31.74-23.5-50.54-29.35-13.47-4.19-27.1-7.78-41-7.78a74.79,74.79,0,0,0-15.65,1.64c-24.19,5.4-31.52,12.43-38.41,37.59a126.09,126.09,0,0,0-4.19,38.94c-1.2,7.78.75,16.62,1.49,25.53,1.28,15.05,3.75,30.1,8.39,44.47,5.25,16.09,15.35,23.73,31,25.83a146.19,146.19,0,0,0,18,1.12Z" transform="translate(-3.27 3.14)"/><path class="cls-8" d="M1045.5,1074.41c-18.87,0-41.18-17.37-46-35.86l-.36-1.72c-1.35-5.1-2.63-10-2.33-15.13.75-14.52,5.55-28.9,15.13-45.07,10.63-18,22.91-30.25,37.66-37.28a20.84,20.84,0,0,1,9.28-2.55c5.16,0,9.36,3.14,12.8,9.58,6.74,12.13,8.92,26.28,11.09,40l.14,1c3.45,22.16,1.65,41.78-5.39,60.05-3.82,9.73-8.83,16.62-15.87,21.71a26.14,26.14,0,0,1-16.17,5.24m0,3.15a29.38,29.38,0,0,0,18-5.85c8.24-6,13.34-13.84,16.93-23.13,7.79-19.91,8.84-40.5,5.54-61.61-2.25-14.53-4.42-29.21-11.53-42.09-4-7.63-9.29-11.22-15.5-11.22a25.64,25.64,0,0,0-10.63,2.84c-17,8.24-29.28,22-39,38.48-8.39,14.3-14.6,29.5-15.43,46.57-.44,6.14,1.28,11.83,2.78,17.75,4.86,18.79,27.78,38.26,48.89,38.26Z" transform="translate(-3.27 3.14)"/><path class="cls-11" d="M273.72,794.24a77.56,77.56,0,0,1-21.94-3.44c-22.16-6.59-43.42-19.76-65-40.28-37.74-35.79-81.09-65-132.6-89.1a450.54,450.54,0,0,1-41-22,17.64,17.64,0,0,1-6.74-7v-109a24.1,24.1,0,0,1,7.86-7.26c31.52-19.24,65.07-36.54,93.89-51.21,29.87-15.13,54.58-32.27,75.7-52.41C200.8,396.3,220.26,376.76,237,354.6,253,333.48,263.69,308.18,269.75,277c2.32-11.75,4.12-23.73,5.92-35.34,2.54-16.7,5.16-33.92,9.13-50.39,7.27-30.1,17.82-52.11,33.1-69.33C329.43,108.87,344,99,358,90c2.85-1.8,5.77-3.59,8.61-5.39,12.13-7.56,24.71-15.42,35.49-26C417.63,43.58,427.73,26.73,433,7c1-3.29,2.1-5.46,3.67-7h63.94a13.78,13.78,0,0,1,5.24,6.06c4.72,10,13.11,15.72,23.14,15.72a28.38,28.38,0,0,0,8.46-1.34A56,56,0,0,0,560,7.94l1.12-1a49.73,49.73,0,0,1,9.81-7h79c.52,1.42-.15,2.69-1.65,5.09-.37.67-.75,1.27-1.12,1.87A177.85,177.85,0,0,1,624.2,39c-31.38,36.54-61,61.1-93,77.35l-5.09,2.54c-6.66,3.3-13.47,6.67-20.36,9.66-34.14,14.9-57.8,42.08-72.55,83.18l-1.72,4.94c-6.74,18.72-13.71,38-21.87,56.46-10.7,24.7-24.63,46.94-38.11,67.23-18.56,28.08-29.72,61.32-34.14,101.68-2.77,26.13-5.91,57-7.78,88-2.32,39.91.82,78.09,9.43,113.58C343.2,661,347,679.76,346,699c-1.72,32.42-10,55.7-25.9,73.37-13,14.45-28.6,21.86-46.35,21.86m0,3c18.12,0,34.59-7.19,48.59-22.84C341.18,753.59,347.54,727,349,699.16c1-19.17-2.62-37.89-7-56.31-9-37-11.6-74.72-9.35-112.68,1.79-29.35,4.64-58.4,7.78-87.82,4-36.24,13.63-70,33.62-100.26,14.3-21.56,27.93-43.57,38.41-67.76,8.83-20.06,16.17-40.8,23.66-61.54,13.33-37.29,35.41-66,70.83-81.38,8.68-3.82,17.07-8.09,25.6-12.28,36.69-18.57,66.71-46.35,94-78.09A183.64,183.64,0,0,0,649.8,8.47c1.8-3.3,5.39-6.89,1.8-11.53H570.21C565.65-1,561.9,2.33,558,5.55a53.38,53.38,0,0,1-21.41,12A25.45,25.45,0,0,1,529,18.72c-8.61,0-16.1-4.79-20.37-13.92a17.27,17.27,0,0,0-7.11-7.86h-66c-2.92,2.32-4.42,5.54-5.47,9.28C424.74,26.06,414.33,42.53,400,56.46c-13.11,12.73-28.61,21.34-43.66,31-14.67,9.43-29,19.24-40.73,32.49-17.67,19.92-27.4,44.4-33.76,70.6C275,218.78,272.3,248,266.76,276.43c-5.47,27.93-15.13,53.76-32.2,76.3-15.87,21-34,39.53-52.78,57.57-22.39,21.42-47.84,38.19-74.95,51.89C75,478.36,43.34,494.83,12.72,513.55a27,27,0,0,0-9.36,9V633.19A19.83,19.83,0,0,0,11.6,642a437.27,437.27,0,0,0,41.33,22.24c48.14,22.54,92.39,51.14,131.77,88.57,19.24,18.28,40.88,33.47,66.19,41a83.11,83.11,0,0,0,22.83,3.45Z" transform="translate(-3.27 3.14)"/><path class="cls-12" d="M481.64,1143.67c-1.05-1.27-.82-2.77.07-6.29,4.87-18.49,12.58-36.76,24.34-57.73,16.77-30.25,31.29-59,44.4-87.82,10.1-22.24,20.14-38.64,31.52-51.51,16.62-18.8,34.29-27.93,53.91-27.93a60,60,0,0,1,8.91.6c17.37,2.47,31.44,13.18,41.77,31.89,8.69,16,13.26,35.19,14.3,60.5.75,17.44-.37,35.34-1.49,52.63-.3,4.42-.53,8.91-.83,13.41-.67,13.33-.52,26.95-.37,40.13.07,7.78.15,15.72.07,23.51v1.65c-.07,3.14-.22,5.39-1.49,7H633.26c-.83-1-1.2-2.32-1-4.72,1.35-19,4.57-39.23,10-62,3.82-16.25,7.64-33.7,9.88-51.51,1.65-13.11-.15-25.16-5.24-35.79-4.19-8.54-10.78-13.33-18.57-13.33a24.16,24.16,0,0,0-11.6,3.3c-7.79,4.34-12.58,11.22-16.62,18-6,9.66-11,21-15.88,35.49-10.18,29.73-24.63,57.5-38.78,83a202.58,202.58,0,0,0-10,21c-1.35,3.22-3,5.32-5.24,6.59H481.64m-1.27,3.06H531c3.44-1.79,5.62-4.63,7.26-8.38a174.73,174.73,0,0,1,9.89-20.73c14.82-26.88,28.9-54.06,39-83.49,4-12.13,8.84-24,15.58-35,4-6.8,8.53-13,15.5-16.84a20.92,20.92,0,0,1,10.1-2.85c6.52,0,12.06,3.9,15.8,11.54,5.17,10.7,6.44,22.16,4.94,34.14-2.17,17.37-5.84,34.21-9.81,51.13a393,393,0,0,0-10,62.45c-.3,3.37.38,5.91,2.7,8h66c3.67-3,3.22-7.33,3.37-11.6.23-21.19-.75-42.45.3-63.56,1.28-22.17,3.3-44.32,2.32-66.34-.9-21.56-4.34-42.82-14.67-61.77-10-18.11-24.18-30.69-44-33.54a66.92,66.92,0,0,0-9.35-.67c-22.24,0-40.58,11.37-56.23,29-13.48,15.27-23.44,33.46-32,52.25-13.63,30-28.45,59-44.33,87.6-10.25,18.35-19.09,37.6-24.63,58.4-1,3.82-1.8,7.34,1.65,10.18Z" transform="translate(-3.27 3.14)"/><path class="cls-8" d="M1537.41,43.51V40.44a125.4,125.4,0,0,1-34.9-4.65c-23.51-6.58-38.78-18-47.84-35.78H1623.8c-7.56,20-22.45,31.22-47.91,36.31a201.59,201.59,0,0,1-38.48,4.12v3.07m0,0a203.48,203.48,0,0,0,39.07-4.2c24.12-4.79,43.28-15.87,51.59-42.37H1449.88c10.26,23.88,29.43,35.56,51.74,41.77a130.65,130.65,0,0,0,35.79,4.8Z" transform="translate(-3.27 3.14)"/><path class="cls-8" d="M1459.61,1143.67c13.63-20.59,34.37-31.37,63.27-32.72,1.95-.15,4-.15,5.92-.15,25.23,0,47.91,7.71,67.3,22.91a35.22,35.22,0,0,1,8.46,10h-145m-5.47,3.06H1609.8c-3.06-5.83-6.51-11.37-11.83-15.41-20.81-16.33-44.1-23.59-69.17-23.59-2,0-4,.07-6.07.15-28.38,1.35-52.94,11.45-68.59,38.85Z" transform="translate(-3.27 3.14)"/><path class="cls-12" d="M1106.59,732.25c-20.81,0-38.41-10.71-56-22.61-22.38-15.58-43.42-34-63.64-51.89l-9.21-8.08c-28.9-25.09-51.29-56.68-68.51-96.36-12.5-28.38-25.75-49.49-41.7-66.49-18.49-19.54-40.13-33.69-66.19-43.28-8.76-3.36-17.67-6.21-26.36-9-11.6-3.67-23.5-7.41-34.88-12.35-26.58-11.31-40.51-27-45.23-50.62-2.92-14.6-.44-29.42,8-48.06,19.31-42.68,38.11-76,59.29-104.82,9.36-12.73,20.44-21.64,33-26.51a37.81,37.81,0,0,1,13.47-2.62c9.74,0,19.47,4.12,30.55,12.95,9.89,7.79,17.07,18.8,24,29.35l.9,1.35c19.4,30.32,45.75,57.8,82.89,86.4,34.74,26.81,63.34,53.16,87.3,80.71,11.38,13,22.91,25.39,35.64,39.24a296,296,0,0,0,74.42,57.27c7.71,4.2,15.57,8.91,24.85,14.83,17.83,11.3,29,28.9,34.6,53.76,11.23,51.21-2,97.93-39.16,139-16.47,18.12-35.57,27.47-56.83,27.85h-1.2m0,3.07h1.35c23.66-.38,43.28-11.61,59-28.9,35.79-39.46,52-86.48,39.83-141.58-5.09-23.21-15.87-43-35.94-55.78-8.23-5.24-16.47-10.26-25.08-14.9a290.55,290.55,0,0,1-73.6-56.68c-11.91-12.88-23.88-25.83-35.56-39.16-26.43-30.32-56.23-56.75-87.83-81.08-31.29-24.19-60-51.22-82.13-85.66-7.49-11.38-14.9-23-25.53-31.44-10-8-20.74-13.63-32.5-13.63A40,40,0,0,0,794,189.36c-13.86,5.39-25.09,15-34.3,27.55-23.81,32.42-42.82,68.21-59.59,105.34-7.12,15.58-11.83,32.2-8.24,49.94,5.54,27.93,23.73,42.9,47,52.86,20.06,8.61,41,13.63,61.39,21.34a167.64,167.64,0,0,1,65,42.53c17.9,19.09,30.55,41.63,41.18,65.66,16.39,37.88,38.71,70.83,69.26,97.41,23.8,20.81,47.24,42.22,73.15,60.12,17.59,12,35.86,23.21,57.72,23.21Z" transform="translate(-3.27 3.14)"/><path class="cls-7" d="M1565.25,608.41c-4.18,0-7.93-2-12.27-6.74-9.74-10.48-16.48-22.91-23.51-36l-3.22-5.91c-16.7-30.33-31.6-55.18-46.94-78.25-26.74-39.9-59-66.11-98.46-80.11a112.52,112.52,0,0,1-29.43-15.12c-11.75-8.54-16.62-22.09-13-36.24,6.81-27,33.46-49,59.45-49,16.47.53,31.89,6.52,46,12.88,21,9.36,42.67,19.09,66.18,22.16a304.93,304.93,0,0,0,38.64,2.62c32,0,60.49-6,86.85-18.34,34.14-16.17,56.15-45.45,67.23-89.4q2.35-9.42,4.49-18.86c2.85-12.06,5.77-24.56,9.36-36.69,9.73-32.42,34.22-37.29,48-37.29a65.06,65.06,0,0,1,15.94,2c39.24,9.58,67.31,44.09,73.15,90.07,2.69,21.11-3.29,41.17-19.46,65.13C1818.92,318,1802,339.85,1785.67,361c-11.67,15.12-23.72,30.77-35.11,46.57-21.11,29.12-46,55.25-70,80.63-6.29,6.52-12.43,13-18.64,19.62-20.6,22.39-39.47,45.9-57.06,68.06l-3.82,4.79c-7.34,9.51-15,19.32-25.75,24.86-3.9,1.94-7.19,2.84-10,2.84m0,3.15c3.52,0,7.19-1.2,11.46-3.3,13.25-6.74,21.56-19.16,30.55-30.4,18.35-23.21,36.91-46.19,56.9-67.9,30.47-32.57,62.3-63.87,88.88-100.56,27.4-38,57.5-73.45,83.7-112.3,13.4-19.84,23.29-41.63,19.91-67.24-5.53-43.27-31.37-81.91-75.39-92.69a70.73,70.73,0,0,0-16.69-2.1c-22,0-42.53,11.46-50.92,39.46-5.54,18.49-9.28,37.14-13.92,55.71-9.89,39.3-30,70.45-65.59,87.37-27.56,12.95-56.31,18.05-85.5,18.05a284.92,284.92,0,0,1-38.19-2.63c-22.91-3-44.18-12.42-65.36-21.86-15-6.81-30.48-12.65-47.17-13.18-27.25,0-55.33,23-62.44,51.29-4,15.57,1.49,30.25,14.14,39.46a116.16,116.16,0,0,0,30.26,15.57c40.8,14.45,72.17,42.08,96.88,78.92,16.77,25.23,32.12,51.36,46.79,78,8.16,14.9,15.65,30.18,27.18,42.53,4.94,5.32,9.43,7.79,14.52,7.79Z" transform="translate(-3.27 3.14)"/><path class="cls-12" d="M285,1143.67c-10.33-42.91-34.44-76.75-60.42-110.44-11.46-14.9-23.44-31.15-33.55-49.11a89.56,89.56,0,0,1-10.7-33.24c-2-17,10.85-25.91,18.71-29.8,12.66-6.14,26.66-7.72,40.66-9.36,9.81-1.12,19.92-1.88,29.65-2.63,21.71-1.64,44.17-3.29,65.89-9.28a117,117,0,0,0,48.21-26.51c10.41-9.88,17.3-22.75,21.64-31.59,15.2-31.14,24.48-65.14,33.54-98.08l2.7-10a404.63,404.63,0,0,0,13.55-70,164.76,164.76,0,0,0-3.44-52c-1.35-6-2.85-12-4.27-18-3.22-13.4-6.51-27.26-9-40.88-5.54-31-3.14-58,7.42-82.44,10.48-24.7,33.54-49.64,61.39-49.64.9,0,1.8,0,2.7.08,14.3.67,26.8,7.11,39.3,20.21,9.36,9.74,18.57,20,27.48,29.95,4,4.5,8,9,12.06,13.48,18.34,20.07,40.8,37.36,68.73,52.71,5,2.77,10,5.47,15.05,8.24,14.07,7.71,28.6,15.64,42.45,24.18a121.82,121.82,0,0,1,30.92,27.4c10.78,13.63,15.28,30.7,14.08,53.76-1,21.49-6.29,43.13-17.07,70.3-11.08,27.78-29.65,45.6-55.33,53-31.3,9.22-66.79,19.54-98.53,38.26a395.17,395.17,0,0,0-65,47.92c-39.68,36.09-67.61,82-92.77,125.93-16.25,28-31.29,57.06-44.92,86.56-12.06,26.57-20,49.26-24.71,71.05H285m-2.4,3.06h81.31c5.32-25.53,14.38-49.41,25-72.84q20.44-44.25,44.77-86.33C459.85,942,487.33,897.49,526,862.38a384.85,384.85,0,0,1,64.47-47.47c30.77-18.12,64.24-28.16,97.86-38,27.77-7.93,46.27-27.1,57.27-54.8,9.06-22.76,16.1-46.12,17.3-71.28,1-20.59-2-39.68-14.75-55.86a126.76,126.76,0,0,0-31.67-28.07c-18.87-11.61-38.41-21.79-57.65-32.5-25.09-13.77-48.22-30.39-68-52.11-13.1-14.45-26-29.35-39.53-43.42-11.38-11.91-24.63-20.37-41.4-21.19-1-.08-1.95-.08-2.85-.08-28.6,0-52.78,24.64-64.24,51.52s-12.73,55.48-7.56,84.15c3.52,19.77,8.76,39.31,13.25,58.93a160.67,160.67,0,0,1,3.37,51.13,409.46,409.46,0,0,1-13.4,69.48c-10.11,36.62-19.47,73.53-36.09,107.6-5.54,11.38-12.05,22.23-21,30.69-13.55,12.5-29.5,20.81-46.95,25.76-31.14,8.69-63.34,8.23-95.08,11.83-14.16,1.65-28.38,3.29-41.63,9.73-11.53,5.54-22.39,16.17-20.44,32.87a92.07,92.07,0,0,0,11.08,34.29c9.88,17.67,21.64,33.76,33.84,49.49,25.91,33.76,50.46,68.13,60.42,111.7Z" transform="translate(-3.27 3.14)"/><path class="cls-7" d="M1126.06,285.72a38.42,38.42,0,0,1-4.2-.23c-33.84-3.74-64.76-18.12-94.48-43.87-34.82-30-49.34-72.25-59.9-113.51l-5.09-19.77C953.25,73,943.82,36.54,937.68,0h268c-2.84,7.33-7.19,14-11.37,20.44-1.43,2.17-2.86,4.26-4.2,6.51-14.3,23.36-23.51,50.91-28,84.23-2.54,19-4.93,39.38-4.19,60.05.38,10,1.2,20.14,2,30,.6,8.31,1.27,16.7,1.65,25.08.89,19.69.45,37.06-13.63,50.54a30.83,30.83,0,0,1-21.86,8.84m0,3.07a33.8,33.8,0,0,0,24-9.66c15.42-14.75,15.42-33.7,14.67-52.94-1-18.49-3-36.76-3.74-55.1-.6-19.84,1.49-39.68,4.27-59.45,4-29.57,12-57.73,27.55-83.11,6.29-10.11,13.7-19.69,17.22-31.59H933.64a21.3,21.3,0,0,1,.9,2.92c7.34,43.65,19,86.25,30,129,11.23,43.8,26.35,85.35,60.87,115.08,28.22,24.41,59.89,40.58,96.2,44.62,1.51.15,3,.23,4.5.23Z" transform="translate(-3.27 3.14)"/><path class="cls-7" d="M1828.36,807.27c-32.5,0-61.55-6.89-88.8-21-29.35-15-45.37-48.37-41.93-87,4.41-48.67,46-86.11,82.81-96.59a182.32,182.32,0,0,1,50.54-6.89c19.31,0,39.67,2.7,62.21,8.39,7.86,1.95,15.73,4,23.66,6V788.1c-5.91,1.87-11.75,4-17.37,6.14-11.23,4.2-22.69,8.46-34.44,10.26a250.51,250.51,0,0,1-36.68,2.77m0,3a260.06,260.06,0,0,0,37.13-2.7c18.87-2.92,36.16-11.68,54.43-17.22V607.81c-8.69-2.17-17.3-4.34-26-6.59-21-5.24-41.93-8.53-63-8.53a187,187,0,0,0-51.37,7c-41.25,11.83-80.71,51.58-85,99.28-3.44,37.58,11.68,73.67,43.58,90.07,28.9,15,59.15,21.19,90.15,21.19Z" transform="translate(-3.27 3.14)"/><path class="cls-7" d="M63,359.76c-12.5,0-25.23-2.17-34.81-4-7.11-1.42-14.38-2.47-21.49-3.52h-.3v-53a2.22,2.22,0,0,1,1.57-.6,11.47,11.47,0,0,1,3.37.83l.83.22c14.15,4.49,27,8.39,40.58,10.33a83.3,83.3,0,0,0,11.6.9,48.6,48.6,0,0,0,9-.75c26.28-4.26,43.8-25.68,44.77-54.43,1.5-46.34-25.61-81.23-69-88.95-8.09-1.34-16.18-1.42-24.49-1.42H21c-2.4,0-4.8,0-7.12-.07H12.79c-3.07-.15-4.94-.23-6.36-1.72V104.9H9.57c29.2,0,53.46.53,77.95,7.26,35.26,9.51,57.35,33.1,67.46,72,9.28,36.16,10,67.53,2.32,95.91-11.91,44.77-37.89,71.13-77.2,78.24A96.28,96.28,0,0,1,63,359.76m0,3.07a99.9,99.9,0,0,0,17.6-1.49c43.05-7.79,68.21-37.51,79.66-80.42,8.76-32.42,5.92-65.28-2.32-97.48-10.11-38.93-32.72-64.31-69.63-74.27-25.91-7.11-52.26-7.34-78.77-7.34H3.36v62.74c2.7,3.82,6.51,3.6,10.33,3.75,2.4.07,4.79.07,7.27.07h3.66c8,0,16,.08,24,1.35,41.63,7.41,67.91,41,66.49,85.88-.9,27.4-17.22,47.39-42.23,51.51a52.86,52.86,0,0,1-8.46.67,79.31,79.31,0,0,1-11.16-.9c-13.62-1.94-26.87-6-40.13-10.18A18.68,18.68,0,0,0,8,295.52,5.63,5.63,0,0,0,3.36,298v56.83c8.16,1.2,16.25,2.32,24.26,3.9C39.37,361,51.2,362.83,63,362.83Z" transform="translate(-3.27 3.14)"/><path class="cls-8" d="M1188.8,1143.67a144,144,0,0,1,32.49-54.66,38.53,38.53,0,0,1,6.52-5.47,13.87,13.87,0,0,1,7.42-2.54c6.06,0,8.67,6.29,9.72,10a86.26,86.26,0,0,1,2.7,23.5c-.15,7.64-.15,15.27-.15,23l.08,6.14H1188.8m-4.11,3.06h66c0-10.77-.14-21.4.08-32a87.84,87.84,0,0,0-2.77-24.42c-2.24-8.08-6.89-12.35-12.72-12.35a17.41,17.41,0,0,0-9,2.92,40,40,0,0,0-7.19,6.14,144.73,144.73,0,0,0-34.36,59.74Z" transform="translate(-3.27 3.14)"/><path class="cls-11" d="M850.23,967.05h0c-6.21,0-12.12-3.15-16.24-8.77-12.51-16.69-16.4-36.15-12-59.37,2.46-12.65,13.55-26.2,32-26.2a17.55,17.55,0,0,1,2.69.15c9.89,0,18,3.14,23.44,9,6.36,7,9.21,17.66,8.09,30.92-1.87,21.49-10.48,38.25-25.53,49.78a20,20,0,0,1-12.51,4.5m0,3.14A23.51,23.51,0,0,0,864.61,965c16.62-12.8,24.86-30.76,26.73-52,2.24-27-11.16-43.27-34.6-43.27h-2.69a35.08,35.08,0,0,0-35,28.59c-4.27,22.39-1.28,43.43,12.5,61.85,4.87,6.59,11.69,10,18.72,10Z" transform="translate(-3.27 3.14)"/><path class="cls-7" d="M1322.45,1001.64V998.5h-4.12c-12.28-.53-15.28-9.29-15.58-16.63-.44-12.12,2.55-23.21,5.69-35,.91-3.67,2-7.34,2.78-10.93,1.72-7.64,3.66-15.12,5.61-22.61,3.9-14.6,7.79-29.65,10.26-45.08,3.44-21.56,5.09-39.45,5.17-56.23V795.36c-.16-28.82-.16-58.54,1.71-87.67.83-12.73.76-25.6.76-38-.08-11.38-.08-23.14.52-34.67l.15-3.29c.82-14.9,1.65-30.18,6.89-44.25,5.69-14.83,15.57-23.29,27-23.29,5.46,0,11.3,2,16.7,5.77,7.63,5.16,13.92,12.58,18.71,21.86,8.46,16.7,10.34,34.59,11.08,49.94.38,7.11.3,14.15.23,23-.08,4.64-.08,9.58-.08,15-1.35,31.83,2.1,61,10.19,86.48,10.1,31.6,26.88,62.07,51.36,93.29,9.28,11.83,18.56,23.36,27.85,35l2.84,3.67a62.53,62.53,0,0,1,8.31,14.75c6.07,14.53,3.82,21.19-10.25,30-5,3.08-11.38,4.57-17,5.62-34.82,7.78-68.5,20.59-96.81,32-25.23,10.18-46.42,17.83-70,17.83v3.14m0,0c25.08,0,48.14-8.84,71.13-18.12,31.51-12.73,63.26-24.48,96.35-31.9,6.14-1.19,12.58-2.69,18-6,15.81-10,17.82-18.64,11.46-33.84a64.85,64.85,0,0,0-8.69-15.42c-10.26-12.88-20.51-25.76-30.76-38.78-21.72-27.71-39.84-57.73-50.84-92.25-9.29-29.5-11.09-60-10.12-85.5,0-16.32.46-27.25,0-38.26-.89-17.74-3.36-35.11-11.52-51.14a60.9,60.9,0,0,0-19.62-23.06c-6.14-4.19-12.43-6.29-18.49-6.29-12.21,0-23.44,8.39-29.88,25.31-5.83,15.5-6.36,32.19-7.18,48.44-1.35,24.19.14,48.29-1.35,72.63-2.25,34.81-1.73,69.7-1.73,104.51-.07,18.8-2.17,37.3-5.16,55.79-3.59,22.91-10.49,44.84-15.8,67.38-3.66,15.43-9.21,30.4-8.53,46.87.52,12,7.11,19,18.49,19.47a40.62,40.62,0,0,0,4.27.15Z" transform="translate(-3.27 3.14)"/><path class="cls-7" d="M65.73,308.48c-16.92,0-33.47-5.17-49.49-10.11l-2.47-.75c-2.47-.75-4.87-1.42-7.34-2V167.72c2.85.07,5.62.07,8.46.07h5.69c12,0,23.74.23,35.27,2.77,19.54,4.35,37.13,17.75,48.21,36.69,11.91,20.44,15,44.55,8.46,66.19-6.36,20.51-23.73,34.29-44.17,35-.9,0-1.8.08-2.62.08m0,3.07c.9,0,1.8-.08,2.69-.08,21.64-.75,40.28-15.42,47-37.14,13.78-45.59-14.67-96.88-58.92-106.76-12-2.7-24-2.85-35.94-2.85H14.89c-3.82,0-7.71,0-11.53-.15V298c3.29.83,6.36,1.58,9.51,2.55,17.37,5.32,34.59,11,52.86,11Z" transform="translate(-3.27 3.14)"/><path class="cls-7" d="M487.93,820.15c-10.86,0-16.55-7.49-17-22.31-.52-17.15,2.55-33.92,5.92-49.42,3.52-15.8,8.08-31.52,12.58-46.72,4-13.47,8.08-27.55,11.45-41.63,7.19-30.1,8.24-61,3.07-94.56a130.78,130.78,0,0,1-2.17-28.3c.6-14.08,7-22.54,17.37-22.54a28.42,28.42,0,0,1,12,3.07,152.27,152.27,0,0,1,23.14,14.15C574.11,546,595.52,558,616.11,569.63l10.41,5.84c14.07,7.93,32.19,19.09,47.09,35.49,11.46,12.8,16.62,25.83,15.65,40.28.82,19.32-5.69,36.09-20.29,52.71-14.08,15.87-31.15,27.78-49,39.61-26,17.51-52.86,35.63-80.18,53.08l-3,1.94c-12.65,8.09-25.76,16.4-40.28,20.37a38.15,38.15,0,0,1-8.61,1.2m0,3.14a37.89,37.89,0,0,0,9.43-1.42c16.1-4.42,30.1-13.7,44.1-22.61,27-17.3,53.69-35.26,80.26-53.16,17.67-11.75,35-23.73,49.57-40.21,13.55-15.27,21.94-32.56,21-54.8,1.12-16.55-5.69-30.25-16.47-42.23C662,593.59,645.38,582.51,628,572.77c-24.33-13.77-49-27-72-43.35A158.89,158.89,0,0,0,532.48,515a31.92,31.92,0,0,0-13.33-3.37c-11.83,0-19.77,9.21-20.44,25.53A133,133,0,0,0,501,566c4.79,31.45,4.34,62.37-3.07,93.37-7,29.72-17.37,58.32-24,88.27-3.59,16.55-6.51,33.25-6,50.32.53,16.62,7.49,25.3,20.07,25.3Z" transform="translate(-3.27 3.14)"/><path class="cls-12" d="M316.62,1021.11V1018c-7.93,0-15.72-3.82-22.61-11.08-10.48-11.15-11.15-13-11.15-21.19,0-7.48,5.69-15.12,12.65-17.06a79.4,79.4,0,0,1,20-2.7,64,64,0,0,1,14.6,1.64,18.79,18.79,0,0,1,13,9.74c2.92,5.69,2.77,13-.45,20.36-5.54,12.89-15.05,20.29-26.06,20.29v3.08m0,0c11.68,0,22.61-7.64,28.9-22.17,6.82-15.87.45-30.7-14.75-34.29a66.35,66.35,0,0,0-15.27-1.8,81.82,81.82,0,0,0-20.74,2.85c-8.46,2.4-15,11.38-15,20.06,0,9.29,1.42,12.06,12,23.29,7.71,8.16,16.47,12.06,24.85,12.06Z" transform="translate(-3.27 3.14)"/><path class="cls-7" d="M1057,165.92a13,13,0,0,1-6-1.87c-7-4.12-13.33-16.47-14.08-28.15-.44-5.69.23-16.25,8.76-22.91a15.25,15.25,0,0,1,8.84-3.6c6.36.6,11.38,4.72,15.87,13,6.59,11.76,3.89,29.5-6.07,39.68-2.39,2.55-4.86,3.82-7.34,3.82m0,3.07c3.3,0,6.44-1.57,9.59-4.79,10.41-10.63,13.93-29.95,6.52-43.28-3.82-7.11-9.37-13.77-18.27-14.6a17.92,17.92,0,0,0-11,4.27c-18.72,14.6-8,48.14,5.69,56.08A15.18,15.18,0,0,0,1057,169Z" transform="translate(-3.27 3.14)"/><path class="cls-11" d="M1808,751.72a82.28,82.28,0,0,1-32.72-6.59c-16.54-6.89-26-19.92-27.26-37.74-1-16,5.1-29.57,18.8-41.48,12.88-10.93,28.75-16.32,48.44-16.32h2c26.8.38,47.09,8.24,63.79,24.78,11.67,11.61,12.12,28.38,1,41.71-18.73,22.31-46.5,35.64-74.13,35.64m0,3.14c28.16,0,56.6-13.18,76.52-36.84,12.43-15,10.93-33.69-1.28-45.82-18.94-18.79-41.1-25.3-66-25.6h-2c-18.41,0-35.64,4.41-50.38,17.07-13.18,11.3-21.12,25.6-19.92,43.87,1.42,19.84,12.43,33.54,29.12,40.43a86.2,86.2,0,0,0,33.92,6.89Z" transform="translate(-3.27 3.14)"/><path class="cls-8" d="M535.47,1143.67c6.22-15.35,14.15-30,21.86-44.1,2.78-5.09,5.55-10.18,8.24-15.43,7.49-14.07,13.18-29.35,18.72-44,2.69-7.34,5.46-14.67,8.46-21.86,4.79-11.53,10.33-23.66,19.69-32.72,5-4.72,10-7.12,15-7.12a18.16,18.16,0,0,1,11,4.05c5.92,4.2,8,11.23,10,19.32,2.92,11.38,1.42,22.91-.68,35.78-1.87,11.69-4.56,23.37-7.11,34.67-3,13.25-6.14,26.88-8,40.65-1.12,8.25-2,16.48-2.84,24.71l-.6,6.07H535.47m-4.49,3.06H631.91c1.19-11.22,2.17-22.31,3.74-33.38,3.37-25.46,11.08-49.95,15.05-75.32,2-12.21,3.82-24.64.67-37-1.94-7.94-4.26-16.18-11.15-21.11a21.37,21.37,0,0,0-12.8-4.57c-5.77,0-11.61,2.77-17.08,8-9.58,9.28-15.27,21.34-20.44,33.69-9,21.86-16,44.77-27,65.74-11.09,21.12-23.29,41.48-31.9,63.93Z" transform="translate(-3.27 3.14)"/><path class="cls-7" d="M528.73,19.47c-12.42,0-18.79-9.81-22-18.12-.15-.45-.37-.9-.52-1.34h58.1c-6.14,7.71-14.38,13.47-24.93,17.44a31.63,31.63,0,0,1-10.64,2m0,3.07a34.34,34.34,0,0,0,11.68-2.24c12.06-4.5,22.47-11.68,29.8-23.36H501.48c.75,1.94,1.65,3.59,2.4,5.54,5,13.1,13.7,20.06,24.85,20.06Z" transform="translate(-3.27 3.14)"/><path class="cls-7" d="M262.79,726.26h0a29.19,29.19,0,0,1-9.21-1.65c-18-6-33-17.82-44.17-27.48-20.07-17.29-41.63-33-62.45-48.29-12-8.68-24.4-17.82-36.38-27a99.7,99.7,0,0,1-18.65-18.64c-18-24.48-16.69-47,4.57-73,8.84-10.71,19.69-19,30.1-26.58,30-21.71,60.5-43.57,90.07-64.61l4.19-3c11.61-8.16,21.64-13.4,31.67-16.47a32.94,32.94,0,0,1,9.21-1.5c9.59,0,16.32,5.69,20.67,17.45,6.29,17,9,35.71,8.46,59-.45,20-1.8,40.28-3.07,60l-1,14.38c-1.12,18.72-.52,39.23,1.88,64.54.45,4.64.89,9.13,1.42,13.78,1.8,16.17,3.59,32.94.6,49.41-1.2,6.81-3,11.91-5.77,16.17-5.46,8.69-13.4,13.48-22.16,13.48m0,3c9.88,0,18.64-5.24,24.78-14.82,3.37-5.24,5.09-11.23,6.14-17.3,4-21.48-.07-42.6-1.94-63.94-2-21.33-3.15-42.75-1.88-64.16,1.58-24.86,3.45-49.64,4.05-74.5.45-20.59-1.5-40.8-8.69-60.12-4.72-12.88-12.65-19.47-23.51-19.47a34,34,0,0,0-10.11,1.65c-11.75,3.59-22.38,9.73-32.56,16.92-31.53,22.46-63,44.85-94.27,67.61-11,8-21.86,16.4-30.7,27.1-20,24.49-25.15,49-4.64,76.75a102.3,102.3,0,0,0,19.24,19.31c32.8,25.31,67.24,47.92,98.69,75.18,13.7,11.83,28.22,22.31,45.22,28a31,31,0,0,0,10.18,1.79Z" transform="translate(-3.27 3.14)"/><path class="cls-7" d="M1094.62,661.72a15,15,0,0,1-1.73-.07c-11-.68-22.31-4.12-35.57-10.94a266,266,0,0,1-64.08-47.54c-17.82-18-31.75-41.33-42.68-71.35a406.82,406.82,0,0,0-63.49-114.93c-5.91-7.49-10.19-16.4-14.07-24.93-4.13-9-5.62-15.5-1.13-22.24,4-6.06,9.88-8.83,18.42-8.83.9,0,1.72,0,2.54.07,14.53.9,28.75,5.84,45,15.57,26.2,15.58,46.33,37.81,62.59,57.51,30.7,37.43,56.59,66.56,81.6,91.71,4.65,4.65,9.29,9.14,14.08,13.63,8.39,8.24,17.14,16.62,25.31,25.46a85.27,85.27,0,0,1,18.27,30.77c4.26,13.1,2.47,28-4.79,40.8-7,12.13-18.05,20.67-30.4,23.51l-1.2.3a36.45,36.45,0,0,1-8.68,1.5m0,3.15c3.59,0,7.1-1,10.62-2,28.38-6.44,46.58-39.83,37.37-68.28a90,90,0,0,0-18.94-31.9c-12.59-13.78-26.36-26-39.47-39.16-28.67-28.9-55.47-59.89-81.46-91.49-18.63-22.69-38.55-43.5-63.41-58.18-14.37-8.68-29.65-15-46.27-16-.9-.07-1.87-.07-2.77-.07-8.16,0-15.72,2.32-21,10.18-5.77,8.61-2.93,16.92.89,25.23,4.12,9.06,8.39,17.9,14.45,25.53a402.41,402.41,0,0,1,63.05,114.11c9.88,27.17,23.35,52.26,43.42,72.47A266.08,266.08,0,0,0,1056,653.41c11.53,6,23.66,10.56,36.69,11.31.67.07,1.35.15,1.95.15Z" transform="translate(-3.27 3.14)"/><path class="cls-7" d="M1573.56,503.82v-3.07c-11.45,0-22.08-6.89-35.41-23-10-12.13-17.52-27.7-22.16-46.34-3.59-14.3,1.65-27.11,14.08-34.3,16.17-9.5,34.14-13.17,51.06-16.17a651.7,651.7,0,0,1,68.43-8.23,21.15,21.15,0,0,1,2.25-.08,79.49,79.49,0,0,1,14.52,1.8,14.08,14.08,0,0,1,9.13,5.76,16.37,16.37,0,0,1,2.25,12.43c-2.17,11.08-6.89,21.79-15.35,34.59A222.52,222.52,0,0,1,1601.12,490c-10.48,7.26-19.54,10.71-27.56,10.71v3.07m0,0c8.69,0,18.2-3.6,29.28-11.23A225,225,0,0,0,1665,428.87c7.12-10.86,13.18-22.39,15.73-35.64,2.1-10.63-3.9-20.06-13.93-21.79a77.51,77.51,0,0,0-15-1.87c-.75,0-1.65,0-2.48.08a648.44,648.44,0,0,0-68.8,8.31c-17.89,3.14-35.64,7-52,16.54C1515,402.29,1509,416.29,1513,432.16c4.33,17.45,11.53,34,22.76,47.55,12.88,15.57,24.4,24.11,37.8,24.11Z" transform="translate(-3.27 3.14)"/><path class="cls-8" d="M199.82,586.1V583c-9.21,0-16.69-4.87-21.78-14a27.09,27.09,0,0,1-3.07-9.66c.89-6.81,3.89-13.1,9.06-19.24,3.14-3.82,7.33-6.29,11.75-8.91l3-1.8a19.4,19.4,0,0,1,9.66-3.07c9.29,0,14.3,10.78,14.38,21,.15,6.66-1.57,13.92-5.17,21.56-2.92,6.44-8.23,14.15-17.52,14.15l-.3,3.07m0,0h.38c9.36,0,16-6.59,20.21-16,3.45-7.34,5.62-15.13,5.47-22.91-.08-11.91-6.37-23.89-17.45-23.89a21.87,21.87,0,0,0-11.23,3.52c-5.46,3.37-11.23,6.22-15.5,11.31-5.09,6.06-8.68,12.95-9.8,20.81a29.55,29.55,0,0,0,3.44,11.61c5.54,10,14.15,15.57,24.48,15.57Z" transform="translate(-3.27 3.14)"/></g></svg>