<svg width="1047" height="840" viewBox="0 0 1047 840" fill="none" xmlns="http://www.w3.org/2000/svg">
<path d="M789.298 89.3022L1012.05 239.382L847.04 431.773L689.493 180.147L789.298 89.3022Z" fill="#FFFBE7"/>
<path d="M45.7037 494.959H74.8237V450.408H45.7037L45.7037 494.959Z" fill="#F2B146"/>
<path d="M49.797 489.372H71.4503V456.768H49.797V489.372Z" fill="#B9C5D5"/>
<path d="M52.8394 450.487H68.2705V447.251H52.8394V450.487Z" fill="#F9A840"/>
<path d="M50.9585 447.437H70.3718V440.219H50.9585V447.437Z" fill="#7ACDD5"/>
<path d="M35.4134 409.373C35.4134 409.373 38.4001 422.564 37.9023 443.72H35.4134H32.9246C32.4268 422.564 35.4134 409.373 35.4134 409.373Z" fill="#C0C8D6"/>
<path d="M7.04004 391.702C7.04004 395.436 10.0267 398.173 13.5112 398.173C17.2445 398.173 19.9823 395.187 19.9823 391.702C19.9823 387.969 16.9956 385.231 13.5112 385.231C10.0267 385.231 7.04004 388.218 7.04004 391.702Z" fill="#C0C8D6"/>
<path d="M13.5112 406.635C13.5112 406.635 16.249 418.582 16.0001 437.747H13.5112H11.0223C10.7735 418.582 13.5112 406.635 13.5112 406.635Z" fill="#C0C8D6"/>
<path d="M14.0089 397.924H13.2623V409.373H14.0089V397.924Z" fill="#C0C8D6"/>
<path d="M11.2178 443.7H15.9467V437.727H11.2178V443.7Z" fill="#F2B146"/>
<path d="M25.4579 401.658C25.4579 401.658 28.4445 414.849 27.9468 436.004H25.4579H22.969C22.4712 414.849 25.4579 401.658 25.4579 401.658Z" fill="#C0C8D6"/>
<path d="M24.9601 403.649H25.7068V397.427C25.7068 397.427 26.2045 395.187 27.6979 392.947C28.6934 391.453 28.6934 389.711 27.9468 388.716C27.2001 387.72 25.7068 387.222 24.4623 387.72C23.4668 387.969 22.7201 389.213 22.7201 389.462L22.969 389.711C23.2179 389.462 23.9645 388.715 24.4623 388.467C25.4579 388.218 26.4534 388.467 27.2001 389.213C27.9468 390.209 27.9468 391.453 26.9512 392.698C25.4579 394.938 24.9601 397.427 24.9601 397.676V403.649Z" fill="#C0C8D6"/>
<path d="M23.0476 442.711H28.0254V436.24H23.0476V442.711Z" fill="#F2B146"/>
<path d="M42.8801 388.218L35.1646 396.68V414.102H35.9112V397.427L42.8801 388.218Z" fill="#F2B146"/>
<path d="M40.889 443.969L36.9068 494.991H29.4401H25.4579H14.009L10.0268 443.969H40.889Z" fill="#C0C8D6"/>
<path d="M136.96 494.991H161.351C162.596 494.991 163.591 493.996 163.591 492.751V461.142C163.591 459.898 162.596 458.902 161.351 458.902H136.96C135.716 458.902 134.72 459.898 134.72 461.142V492.751C134.72 493.996 135.716 494.991 136.96 494.991Z" fill="#7ACDD5"/>
<path d="M144.668 459.402H153.13V455.171H144.668V459.402Z" fill="#C0C8D6"/>
<path d="M147.911 440.733H148.907H149.156H150.151L153.387 447.453V448.2H149.156H148.907H144.676V447.453L147.911 440.733Z" fill="#C0C8D6"/>
<path d="M143.182 454.92H154.133C154.631 454.92 154.88 454.671 154.88 454.173V448.2C154.88 447.702 154.631 447.453 154.133 447.453H142.933C142.436 447.453 142.187 447.702 142.187 448.2V454.173C142.436 454.671 142.685 454.92 143.182 454.92Z" fill="#C0C8D6"/>
<path d="M175.289 431.027H182.258H188.978L192.214 448.947V494.991H182.258H172.302V448.947L175.289 431.027Z" fill="#7ACDD5"/>
<path d="M182.258 417.836H174.044V429.036H182.258H190.222V417.836H182.258Z" fill="#4AAFAF"/>
<path d="M80.2133 494.991H130.738C131.236 494.991 131.733 494.493 131.733 493.996V466.12C131.733 465.622 131.236 465.124 130.738 465.124H80.2133C79.7155 465.124 79.2178 465.622 79.2178 466.12V493.996C79.4667 494.493 79.7155 494.991 80.2133 494.991Z" fill="#C0C8D6"/>
<path d="M123.022 453.427L123.52 465.124H122.027L123.022 453.427Z" fill="#92959C"/>
<path d="M113.813 453.427L114.311 465.124H112.818L113.813 453.427Z" fill="#92959C"/>
<path d="M104.605 453.427L105.351 465.124H103.609L104.605 453.427Z" fill="#92959C"/>
<path d="M120.171 489.487H126.393V469.576H120.171V489.487Z" fill="#92959C"/>
<path d="M111.373 489.487H117.595V469.576H111.373V489.487Z" fill="#92959C"/>
<path d="M102.574 489.487H108.796V469.576H102.574V489.487Z" fill="#92959C"/>
<path d="M93.5266 489.487H99.7488V469.576H93.5266V489.487Z" fill="#92959C"/>
<path d="M84.7279 489.487H90.9501V469.576H84.7279V489.487Z" fill="#92959C"/>
<path d="M96.64 453.427L97.3866 465.124H95.6444L96.64 453.427Z" fill="#92959C"/>
<path d="M18.5549 817.177H188.795L188.795 516.768H18.5549L18.5549 817.177Z" fill="#C8AD92"/>
<path d="M0.790451 516.783H202.888V495.13H0.790451V516.783Z" fill="#E4D1B1"/>
<path d="M32.6228 617.605H174.987V524.022H32.6228V617.605Z" fill="#E4D1B1"/>
<path d="M32.6228 720.943H174.987V622.632H32.6228V720.943Z" fill="#E4D1B1"/>
<path d="M32.6228 817.001H174.987V726.157H32.6228V817.001Z" fill="#E4D1B1"/>
<path d="M84.4445 549.249H123.022C123.769 549.249 124.516 548.751 124.516 547.756V541.533C124.516 540.787 124.018 540.04 123.022 540.04H84.4445C83.6978 540.04 82.9512 540.538 82.9512 541.533V547.756C82.9512 548.751 83.6978 549.249 84.4445 549.249Z" fill="#C8AD92"/>
<path d="M84.4445 651.791H123.022C123.769 651.791 124.516 651.293 124.516 650.298V644.076C124.516 643.329 124.018 642.582 123.022 642.582H84.4445C83.6978 642.582 82.9512 643.08 82.9512 644.076V650.298C82.9512 651.293 83.6978 651.791 84.4445 651.791Z" fill="#C8AD92"/>
<path d="M84.4445 754.333H123.022C123.769 754.333 124.516 753.836 124.516 752.84V746.618C124.516 745.871 124.018 745.124 123.022 745.124H84.4445C83.6978 745.124 82.9512 745.622 82.9512 746.618V752.84C82.9512 753.587 83.6978 754.333 84.4445 754.333Z" fill="#C8AD92"/>
<path d="M184 817.053H23.2178V839.204H184V817.053Z" fill="#4F453B"/>
<path d="M234.525 331.222H261.653C262.898 331.222 263.893 330.227 263.893 328.982V290.404C263.893 289.16 262.898 288.164 261.653 288.164H234.525C233.28 288.164 232.285 289.16 232.285 290.404V328.982C232.036 330.227 233.28 331.222 234.525 331.222Z" fill="#716558"/>
<path d="M134.471 368.058H243.982C246.222 368.058 247.716 366.316 247.716 364.324V274.973C247.716 272.733 245.973 271.24 243.982 271.24H134.471C132.231 271.24 130.738 272.982 130.738 274.973V364.324C130.738 366.316 132.48 368.058 134.471 368.058Z" fill="#C0C8D6"/>
<path d="M263.673 325.32L497.131 325.32V293.96H263.673V325.32Z" fill="#C0C8D6"/>
<path d="M150.649 294.884L158.116 296.378L161.6 297.373L163.342 289.409L152.142 287.169L150.649 294.884Z" fill="#92959C"/>
<path d="M145.695 290.265L152.256 291.717L152.525 290.502L145.964 289.05L145.695 290.265Z" fill="#92959C"/>
<path d="M167.822 343.418C167.076 338.191 164.836 334.209 162.596 329.729C159.111 323.009 153.885 308.822 159.36 295.133C159.36 295.133 158.116 292.396 156.622 292.893C155.129 293.391 149.405 311.809 160.605 340.431C160.605 340.431 162.596 345.16 161.849 349.889C160.853 356.609 165.582 356.36 167.573 350.636C168.071 349.391 168.32 345.907 167.822 343.418Z" fill="#92959C"/>
<path d="M208.64 299.364L216.107 301.107L219.84 301.853L221.333 294.138L210.382 291.649L208.64 299.364Z" fill="#92959C"/>
<path d="M203.781 294.879L210.343 296.331L210.612 295.116L204.05 293.664L203.781 294.879Z" fill="#92959C"/>
<path d="M221.333 342.422C220.587 337.196 216.853 333.711 216.107 328.733C215.111 322.262 211.876 313.551 217.6 299.862C217.6 299.862 216.356 297.124 214.862 297.622C213.369 298.12 206.4 316.04 214.116 339.436C214.116 339.436 216.107 344.164 215.36 348.893C214.364 355.613 219.093 355.364 221.084 349.64C221.333 348.395 221.582 344.911 221.333 342.422Z" fill="#92959C"/>
<path d="M183.256 353.486H189.229V313.912H183.256V353.486Z" fill="#92959C"/>
<path d="M184.747 306.582H187.982L189.227 314.049H183.253L184.747 306.582Z" fill="#92959C"/>
<path d="M185.496 308.567H186.989V286.913H185.496V308.567Z" fill="#92959C"/>
<path d="M217.6 539.293C216.853 539.293 216.107 539.044 215.609 538.796C205.653 534.316 212.871 450.191 216.355 433.267C220.587 413.107 216.604 352.129 216.604 351.631L219.342 351.382C219.591 353.871 223.573 413.356 219.093 433.764C213.867 458.653 210.133 533.32 216.853 536.307C217.849 536.804 218.844 536.556 219.84 535.809C226.56 531.08 235.52 504.449 232.035 450.689C228.053 388.218 225.813 368.307 225.813 368.058L228.551 367.809C228.551 368.058 231.04 388.218 234.773 450.689C238.009 502.209 230.044 532.076 221.333 538.298C219.84 539.044 218.595 539.293 217.6 539.293Z" fill="#A6A8AB"/>
<path d="M184.249 562.938C182.507 562.938 180.267 562.191 177.778 560.449C165.831 551.987 173.298 480.804 182.009 422.316C185.742 396.929 179.271 368.804 179.022 368.555L181.511 368.058C181.511 368.307 188.231 396.929 184.498 422.813C173.049 501.96 171.058 552.484 179.271 558.209C181.262 559.453 184 560.947 185.493 559.951C188.48 558.209 188.231 550.493 187.733 547.507C186.987 545.764 183.004 532.075 195.449 505.195C200.676 493.747 196.942 468.858 192.711 439.987C188.48 412.609 184 381.498 184.747 351.382H187.484C186.489 381 191.218 412.111 195.2 439.489C199.68 469.853 203.413 493.996 197.938 506.191C185.493 533.32 190.222 546.511 190.471 546.76V547.009C190.72 548.253 191.716 559.204 186.987 562.191C186.24 562.689 185.244 562.938 184.249 562.938Z" fill="#A6A8AB"/>
<path d="M149.902 525.853C149.405 525.853 149.156 525.853 148.658 525.604C145.173 524.858 142.684 520.378 141.689 512.164C138.453 488.52 142.436 446.209 147.911 426.795C152.889 409.373 147.911 368.804 147.911 368.556L150.649 368.307C150.898 370.049 155.627 409.622 150.649 427.542C145.92 444.218 140.942 486.28 144.427 511.667C145.422 518.387 147.164 522.369 149.404 522.867C152.64 523.613 157.12 518.138 158.613 516.147L159.111 515.649C165.333 512.413 165.085 456.413 160.107 428.289C155.627 402.902 162.098 355.613 162.596 353.622L165.085 353.871C165.085 354.369 158.116 402.653 162.596 427.791C166.578 449.693 169.316 511.667 160.605 517.64C159.36 519.382 154.631 525.853 149.902 525.853Z" fill="#A6A8AB"/>
<path d="M116.302 354.369H136.213V348.396H122.524V293.142H136.213V287.169H116.302V354.369Z" fill="#92959C"/>
<path d="M524.231 341.427V601.516H563.058V634.867H504.32C496.853 634.867 490.631 628.893 490.631 621.178V341.427H524.231Z" fill="#92959C"/>
<path d="M506.809 1.19556H582.72V16.1289H514.027V342.92C514.027 347.151 510.791 350.387 506.56 350.387C502.329 350.387 499.094 347.151 499.094 342.92V8.66222C499.342 4.68 502.827 1.19556 506.809 1.19556Z" fill="#92959C"/>
<path d="M610.347 65.9067H666.845C668.089 65.9067 669.333 66.4044 670.329 67.1511L713.387 102.244C715.876 104.236 716.125 107.72 714.133 110.209C713.138 111.453 711.396 112.2 709.902 112.2C708.658 112.2 707.413 111.702 706.418 110.956L664.853 77.1067H604.622C601.636 77.1067 599.147 74.6178 599.147 71.6311V24.5911H610.347V65.9067V65.9067Z" fill="#92959C"/>
<path d="M600.391 1.19555C605.369 1.19555 610.347 6.91999 610.347 9.65776V24.3422H599.147V18.3689C599.147 17.1244 598.151 15.88 596.658 15.88H582.969V0.946655H600.391V1.19555Z" fill="#716558"/>
<path d="M522.489 49.7289C522.489 45.9955 519.502 43.0089 515.769 43.0089H497.849C494.116 43.0089 491.129 45.9955 491.129 49.7289V79.0978C491.129 82.8311 494.116 85.8178 497.849 85.8178H515.769C519.502 85.8178 522.489 82.8311 522.489 79.0978V49.7289Z" fill="#716558"/>
<path d="M685.511 130.867L735.289 85.32C748.978 72.8755 771.378 72.8755 784.818 85.32L685.013 176.164C671.822 163.72 671.822 143.311 685.511 130.867Z" fill="#92959C"/>
<path d="M696.213 99.7555L700.942 95.5244C711.645 85.8178 725.582 82.8311 732.053 88.8044L688.747 128.378C682.027 122.156 685.511 109.213 696.213 99.7555Z" fill="#716558"/>
<path d="M689.494 180.147L789.298 89.3022L785.067 85.32L685.262 176.413L689.494 180.147Z" fill="#C5CDD2"/>
<path d="M730.311 149.036C742.258 138.084 735.787 143.809 754.951 126.387C774.116 109.213 789.049 89.0533 789.049 89.0533L689.245 179.898C689.493 180.147 708.409 169.196 730.311 149.036Z" fill="#E5DE90"/>
<path d="M432.391 572.147L418.453 583.347L387.342 572.147L396.551 571.4C396.551 571.4 421.938 555.471 424.925 552.733C427.413 549.995 432.391 572.147 432.391 572.147Z" fill="#FCBB6E"/>
<path d="M342.542 569.16C346.276 566.92 351.253 566.92 354.738 569.658L364.196 576.378L363.698 582.849C363.2 585.338 364.693 587.827 366.933 588.573C371.413 590.067 380.622 590.813 398.542 586.333C406.009 584.342 412.729 584.591 418.205 585.587C417.707 587.578 416.96 589.569 415.965 591.809C413.227 599.276 407.502 601.018 404.516 602.013C401.28 603.009 398.045 604.751 395.556 606.991L376.391 620.68L374.649 618.44L393.565 601.018L366.187 601.516C363.2 601.764 360.462 600.52 358.471 598.28L337.813 572.395L342.542 569.16Z" fill="#3A2B1A"/>
<path d="M398.791 586.084C380.871 590.813 371.662 589.818 367.182 588.324C364.693 587.578 363.449 585.089 363.947 582.6L364.445 576.129L365.191 576.627L382.116 572.893C387.84 571.649 400.782 566.422 406.507 566.671C408.996 566.671 404.765 571.4 407.005 571.4C421.191 571.4 421.191 577.124 418.702 585.338C412.729 584.342 406.009 584.093 398.791 586.084Z" fill="#FCBB6E"/>
<path d="M481.422 604.004L467.484 615.204L436.373 604.004L445.582 603.258C445.582 603.258 470.969 587.329 473.956 584.591C476.942 581.853 481.422 604.004 481.422 604.004Z" fill="#FCBB6E"/>
<path d="M391.822 600.769C395.556 598.529 400.285 598.778 404.018 601.267L413.476 607.987L412.978 614.458C412.48 616.947 413.973 619.435 416.213 620.182C420.693 621.675 429.902 622.422 447.822 617.942C455.289 615.951 462.009 616.2 467.485 617.195C466.987 619.187 466.24 621.178 465.245 623.418C462.507 630.884 456.782 632.627 453.796 633.622C450.56 634.618 447.325 636.36 444.836 638.6L425.671 652.289L423.929 650.049L442.845 632.627L415.467 633.124C412.48 633.373 409.742 632.129 407.751 629.889L387.094 604.004L391.822 600.769Z" fill="#3A2B1A"/>
<path d="M447.822 617.942C429.902 622.671 420.694 621.676 416.214 620.182C413.725 619.436 412.48 616.947 412.978 614.458L413.476 607.987L414.222 608.484L431.147 604.751C436.871 603.507 449.814 598.28 455.538 598.529C458.027 598.529 459.769 599.276 462.258 599.276C476.445 599.276 470.471 608.733 467.734 616.947C462.009 616.2 455.289 615.951 447.822 617.942Z" fill="#FCBB6E"/>
<path d="M537.671 486.778L386.596 567.418L395.805 586.084C411.733 576.129 510.293 576.378 547.378 526.102C547.378 526.102 552.107 515.4 555.84 513.658L537.671 497.231V486.778Z" fill="#3D322D"/>
<path d="M744.249 529.089L782.827 452.182C757.689 435.258 630.009 454.671 552.604 476.324C541.653 479.311 533.44 488.271 534.684 499.471L543.644 529.338C550.115 528.84 559.573 520.129 563.804 520.627C569.28 521.124 670.578 538.547 744.249 529.089Z" fill="#3D322D"/>
<path d="M682.525 514.404C691.733 520.378 715.627 529.587 726.578 529.587C763.662 529.587 798.756 534.564 814.684 504.449C821.902 491.009 833.102 463.631 842.809 453.676L775.36 412.111C775.36 412.111 727.076 440.236 697.956 485.533C717.867 498.476 662.613 501.213 682.525 514.404Z" fill="#3D322D"/>
<path d="M924.693 343.916C924.693 343.916 930.916 319.773 924.693 300.609C916.48 274.973 882.88 286.92 882.88 286.92L842.062 306.333C789.049 310.067 805.476 348.147 805.476 348.147C805.476 347.898 775.609 411.613 775.609 411.613L843.307 453.178C843.058 453.427 918.969 378.013 924.693 343.916Z" fill="#6CC0C4"/>
<path d="M811.947 353.373C807.716 351.133 806.222 350.636 804.48 346.155C802.738 341.675 802.24 336.947 803.236 332.218C803.236 331.969 804.48 326.493 804.48 326.742C807.716 332.218 811.698 337.942 815.182 339.933C822.649 344.164 841.565 345.409 852.765 345.409C849.529 347.649 838.329 367.809 811.947 353.373Z" fill="#4AAFAF"/>
<path d="M594.667 786.938L842.062 725.213L823.395 672.449L576.249 734.173L594.667 786.938Z" fill="#92959C"/>
<path d="M601.387 805.604L848.533 743.88L842.062 725.213L594.667 786.938L601.387 805.604Z" fill="#C0C8D6"/>
<path d="M828.124 587.827L832.107 590.564C836.338 593.551 842.311 592.555 845.298 588.324L1018.52 341.427C1021.51 337.196 1020.52 331.222 1016.28 328.236L1012.3 325.498C1008.07 322.511 1002.1 323.507 999.111 327.738L825.884 574.635C822.898 578.867 823.893 584.84 828.124 587.827Z" fill="#92959C"/>
<path d="M813.938 573.64L817.92 576.378C822.151 579.364 828.124 578.369 831.111 574.138L930.916 430.529C933.902 426.298 932.907 420.324 928.676 417.338L924.693 414.6C920.462 411.613 837.831 535.062 810.951 552.235L805.724 553.48C802.738 557.462 809.707 570.653 813.938 573.64Z" fill="#92959C"/>
<path d="M885.867 737.658C885.867 737.658 891.591 740.644 880.64 703.809C869.689 666.973 846.791 615.453 846.791 615.453C846.791 615.453 844.053 590.067 855.502 573.64L811.2 551.489L786.311 581.107L885.867 737.658Z" fill="#D1DCE8"/>
<path d="M786.809 529.338H563.058C562.311 529.338 561.813 529.338 561.067 529.338C557.333 529.338 553.351 530.084 549.867 531.827L312.178 652.538C299.982 658.76 295.005 673.693 301.227 685.889L302.222 688.129C308.444 700.324 323.378 705.302 335.573 699.08L571.769 579.116C573.013 579.364 574.258 579.613 575.751 579.613H789.796C801.493 579.613 810.951 570.156 810.951 558.458V553.978C811.449 540.538 800.249 529.338 786.809 529.338Z" fill="#716558"/>
<path d="M820.907 503.951L851.271 525.107C854.756 527.595 859.485 526.6 861.973 523.115L1000.11 325.747C1002.6 322.262 1001.6 317.533 998.116 315.044L967.751 293.889C964.267 291.4 959.538 292.396 957.049 295.88L818.916 493.249C816.676 496.733 817.422 501.462 820.907 503.951Z" fill="#716558"/>
<path d="M980.196 290.902L993.885 300.36C995.378 301.356 997.618 301.107 998.614 299.613L1035.45 247.098C1036.44 245.604 1036.2 243.364 1034.7 242.369L1021.01 232.911C1019.52 231.916 1017.28 232.164 1016.28 233.658L979.449 286.422C978.454 287.418 978.702 289.658 980.196 290.902Z" fill="#716558"/>
<path d="M1003.84 294.387L1009.07 298.12C1009.56 298.618 1010.56 298.369 1010.81 297.871L1037.94 259.044C1038.44 258.547 1038.19 257.551 1037.69 257.302L1032.46 253.569C1031.96 253.071 1030.97 253.32 1030.72 253.818L1003.59 292.644C1003.09 293.142 1003.34 293.889 1003.84 294.387Z" fill="#92959C"/>
<path d="M1018.28 330.475L1043.91 294.138C1045.9 291.151 1046.9 287.667 1046.15 283.933C1045.4 280.449 1043.66 277.213 1040.68 275.222L1029.72 267.507L1023.25 276.716L1034.2 284.431C1034.95 284.929 1035.2 285.676 1035.2 285.924C1035.2 286.173 1035.2 286.92 1034.7 287.667L1009.07 324.004L1018.28 330.475Z" fill="#92959C"/>
<path d="M543.396 818.049V771.258C543.396 771.258 541.404 753.089 563.058 739.151C578.987 728.947 604.125 729.196 616.071 730.191C621.298 730.689 626.276 731.684 631.004 733.427C647.68 739.649 687.751 759.809 729.565 818.049H543.396Z" fill="#D1DCE8"/>
<path d="M494.365 830.244H907.52C909.511 830.244 911.005 828.751 911.005 826.76V809.587C911.005 807.596 909.511 806.102 907.52 806.102H494.365C492.373 806.102 490.88 807.596 490.88 809.587V826.76C490.631 828.502 492.373 830.244 494.365 830.244Z" fill="#92959C"/>
<path d="M580.231 704.804H784.071C784.071 704.804 804.48 704.307 811.449 722.227L829.369 754.333C829.369 754.333 835.093 766.529 849.529 765.284C863.964 764.04 869.191 764.289 869.191 764.289C869.191 764.289 891.84 758.813 886.116 737.658C880.391 716.502 836.089 581.107 791.787 581.604H569.778L546.631 593.551C546.631 593.551 525.973 608.235 546.631 648.307L580.231 704.804Z" fill="#D1DCE8"/>
<path d="M614.08 634.867C614.08 638.6 617.067 641.587 620.8 641.587C624.533 641.587 627.52 638.6 627.52 634.867C627.52 631.133 624.533 628.147 620.8 628.147C617.316 628.147 614.08 631.133 614.08 634.867Z" fill="#92959C"/>
<path d="M588.196 634.867C588.196 638.6 591.182 641.587 594.916 641.587C598.649 641.587 601.636 638.6 601.636 634.867C601.636 631.133 598.649 628.147 594.916 628.147C591.182 628.147 588.196 631.133 588.196 634.867Z" fill="#92959C"/>
<path d="M570.876 581.631H788.156V579.64H570.876V581.631Z" fill="#D1DCE8"/>
<path d="M927.182 323.507V303.844C930.916 292.396 936.391 279.453 943.36 269.747C949.831 260.787 956.551 252.324 956.551 252.324L906.525 258.049C906.525 258.049 885.618 288.164 879.396 287.916C879.396 287.916 852.267 294.138 832.107 306.333L826.382 308.324C826.382 308.324 850.773 315.293 871.182 310.316C891.591 305.338 899.307 304.342 907.769 305.836C911.005 306.333 914.738 307.578 918.222 309.071C922.702 311.311 925.689 315.542 926.685 320.52L927.182 323.507Z" fill="#FABB6E"/>
<path d="M930.418 254.316C930.418 254.316 925.44 280.2 892.836 276.218C892.836 276.218 897.067 271.738 899.556 267.756C902.045 264.022 932.409 241.871 930.418 254.316Z" fill="#F28D50"/>
<path d="M905.529 172.182C904.036 174.173 902.542 176.164 901.298 178.404C896.071 187.116 887.858 194.084 878.4 198.067C876.409 198.813 874.169 199.809 873.422 201.551C872.427 203.791 873.92 206.529 874.667 208.769C876.16 213.747 873.671 217.48 872.427 221.96C871.182 226.191 870.187 230.671 869.191 235.151C867.698 241.622 862.969 255.56 869.44 260.04C879.147 266.76 907.769 277.711 927.431 257.302C927.431 257.302 955.805 253.569 960.036 250.084C964.267 246.6 968.747 248.591 968.747 248.591C968.747 248.591 1011.31 221.711 995.378 198.316C987.911 187.364 977.956 177.907 967.254 170.44C954.062 161.48 936.391 154.013 920.711 160.733C914.24 162.973 909.511 167.204 905.529 172.182Z" fill="#FABB6E"/>
<path d="M905.529 172.182C905.529 172.182 908.765 157.996 918.471 152.52C941.12 139.827 967.253 151.027 977.458 167.951C977.458 167.951 1036.94 174.92 1008.82 248.093L980.942 246.351C980.942 246.351 934.4 202.796 949.085 174.422C949.333 174.173 920.96 165.213 905.529 172.182Z" fill="#754C28"/>
<path d="M967.253 222.458C973.973 240.627 953.316 253.32 959.289 253.32C959.289 253.32 974.969 242.867 980.196 246.102C985.422 249.089 967.253 222.458 967.253 222.458Z" fill="#754C28"/>
<path d="M903.787 197.818C901.547 201.053 901.547 205.036 904.285 207.027C906.774 209.018 910.756 207.773 912.996 204.787C914.24 203.044 914.738 201.053 914.489 199.311C914.24 197.818 913.742 196.573 912.498 195.827C910.009 193.587 906.027 194.582 903.787 197.818Z" fill="#603813"/>
<path d="M909.76 194.831C909.76 194.831 905.031 193.587 904.285 190.6C903.787 188.858 900.302 196.076 908.765 197.569L909.76 194.831Z" fill="#603813"/>
<path d="M905.778 184.129C905.778 184.129 905.778 179.898 908.516 180.396C912.498 181.142 922.205 178.902 924.693 195.329C924.693 195.329 920.711 186.369 913.742 185.124C906.525 184.129 905.031 186.618 905.778 184.129Z" fill="#F28D50"/>
<path d="M1014.79 217.729C1016.28 262.529 982.436 286.422 956.8 283.436C937.636 281.196 927.431 269.996 927.431 269.996C927.431 269.996 958.542 259.791 957.049 210.76C957.049 210.76 1012.55 151.027 1014.79 217.729Z" fill="#754C28"/>
<path d="M653.405 476.324H762.418C763.662 476.324 764.907 475.329 764.907 473.836V461.142C764.907 459.898 763.911 458.653 762.418 458.653H653.405C652.16 458.653 650.916 459.649 650.916 461.142V473.836C650.916 475.329 651.911 476.324 653.405 476.324Z" fill="#716558"/>
<path d="M782.578 540.787C783.574 540.787 784.32 540.538 785.067 540.04C787.805 538.547 788.8 535.311 787.307 532.573L757.44 476.573H663.36C660.374 476.573 657.885 479.062 657.885 482.049C657.885 485.036 660.374 487.524 663.36 487.524H750.72L777.351 537.8C778.596 539.542 780.587 540.787 782.578 540.787Z" fill="#D1DCE8"/>
<path d="M862.969 346.902C862.969 346.902 815.182 416.093 810.453 417.338C808.213 417.836 705.671 428.04 702.684 436.502C699.698 444.964 690.489 457.658 708.658 459.151C709.404 459.151 793.778 454.173 819.413 452.929C824.889 452.68 830.115 450.44 834.098 446.458C842.56 437.996 852.018 425.053 878.4 397.676C917.475 356.858 914.489 363.329 917.475 355.613C931.413 320.52 907.769 295.631 862.969 346.902Z" fill="#7ACDD5"/>
<path d="M702.685 436.502L686.009 436.004C670.08 431.524 646.436 445.462 646.436 445.462C646.436 445.462 639.218 456.662 639.218 460.147C639.467 465.373 637.227 475.827 640.213 476.573C644.196 477.569 654.649 459.898 654.649 459.898C654.649 459.898 676.302 455.169 681.031 450.689C685.76 446.209 697.956 451.435 697.956 451.435L702.685 436.502Z" fill="#FABB6E"/>
<path d="M884.373 212.751C883.378 212.751 882.382 212.253 881.387 211.009C880.391 210.013 879.396 209.018 878.898 208.52V208.769C878.898 209.267 878.649 209.516 878.151 209.516C877.902 209.516 877.405 209.267 877.405 208.769C877.405 208.022 877.405 207.027 878.151 206.778C879.147 206.529 879.893 207.276 882.382 210.013C883.129 211.009 883.876 211.258 884.622 211.258C885.867 211.009 886.862 208.52 887.111 207.524C887.111 207.027 887.609 206.778 888.107 207.027C888.604 207.027 888.853 207.524 888.605 208.022C888.605 208.52 887.36 212.253 884.871 212.751C884.622 212.751 884.373 212.751 884.373 212.751Z" fill="#A87C4F"/>
<path d="M956.8 235.898C956.8 235.898 946.347 225.942 932.409 235.151C929.174 232.911 944.107 216.236 942.613 207.276C936.64 171.684 949.333 174.173 949.333 174.173L971.734 193.338L956.8 235.898Z" fill="#754C28"/>
<path d="M872.925 221.711L869.191 234.902L868.942 238.387C870.933 238.387 873.173 238.387 875.413 237.391C882.382 234.902 885.618 233.409 885.618 233.409C885.618 233.409 880.142 227.933 872.925 221.711Z" fill="#CA5F38"/>
<path d="M872.924 220.716L871.431 225.942L885.12 232.662L885.618 231.418L872.924 220.716Z" fill="#E6E7E8"/>
<path d="M884.125 233.16C875.165 222.458 872.925 222.209 872.925 222.209C872.925 222.209 872.178 220.218 872.925 219.222C872.925 219.222 876.409 218.476 878.151 219.222C883.129 222.209 886.365 232.911 886.365 232.911C886.365 232.911 885.12 234.404 884.125 233.16Z" fill="#F28D50"/>
<path d="M868.444 236.893L869.191 234.902L880.64 235.898C880.64 235.898 872.427 239.382 868.444 236.893Z" fill="#E6E7E8"/>
<path d="M884.124 233.16C884.124 233.16 876.16 238.636 868.444 237.142C868.444 237.142 864.462 240.627 867.698 241.622C870.933 242.867 883.627 237.889 886.364 233.16H884.124Z" fill="#F28D50"/>
<path d="M924.693 251.08C924.693 251.08 925.938 261.284 938.382 257.551C950.827 253.818 958.045 245.604 956.551 238.387C955.307 231.169 948.587 230.173 941.867 231.667C927.182 234.653 924.693 251.08 924.693 251.08Z" fill="#FABB6E"/>
<path d="M951.822 241.871C951.822 241.871 947.591 231.915 940.373 237.391C933.156 242.867 932.658 246.351 933.902 249.089C935.645 253.071 940.871 249.836 941.867 247.098C942.365 245.107 941.369 242.867 942.613 241.124C943.609 239.382 945.849 239.631 947.591 239.88C948.338 240.129 951.325 240.876 951.822 241.871Z" fill="#F28D50"/>
<path d="M899.804 202.796C899.804 202.796 908.515 205.533 921.458 204.289C936.142 202.796 910.009 232.413 910.009 232.413C910.009 232.413 882.631 226.689 899.804 202.796Z" fill="#FABB6E"/>
<path d="M871.431 225.942L881.636 230.173L882.88 231.667L871.431 227.436V225.942Z" fill="#BBBDBF"/>
<path d="M371.413 417.836C354.987 417.836 338.311 414.351 321.885 407.631C296.996 397.178 273.102 379.756 246.72 352.627L248.711 350.884C274.845 377.764 298.489 395.187 322.88 405.391C344.036 414.102 365.938 417.338 386.098 414.6C395.805 413.356 432.64 402.902 441.351 399.169C473.956 385.729 508.551 364.822 546.88 335.453C563.805 322.511 602.631 297.622 627.769 297.373V300.111C605.12 300.36 567.787 322.76 548.373 337.693C509.796 367.311 474.951 388.218 442.098 401.907C432.889 405.64 396.302 416.093 386.098 417.338C381.369 417.587 376.391 417.836 371.413 417.836Z" fill="#A6A8AB"/>
<path d="M493.369 331.222H520.498C521.742 331.222 522.738 330.227 522.738 328.982V290.404C522.738 289.16 521.742 288.164 520.498 288.164H493.369C492.124 288.164 491.129 289.16 491.129 290.404V328.982C491.129 330.227 492.124 331.222 493.369 331.222Z" fill="#716558"/>
<path d="M680.284 292.395C680.284 292.395 680.533 278.707 676.551 274.227C673.813 270.991 673.813 268.502 669.831 268.751C668.338 268.751 656.142 272.733 655.147 273.978C653.155 276.218 656.391 279.204 657.635 279.453C658.631 279.702 664.604 280.2 669.084 280.449C671.822 280.698 673.813 282.689 674.062 285.427C674.311 290.404 675.556 298.12 680.284 292.395Z" fill="#FABB6E"/>
<path d="M673.067 292.396C673.067 292.396 674.311 267.009 662.613 268.502C661.12 268.751 652.16 277.711 651.165 278.707C649.173 280.947 652.409 283.933 653.653 284.182C654.649 284.431 657.387 279.951 661.618 280.2C664.356 280.449 666.347 282.44 666.596 285.178C667.093 290.404 668.338 298.12 673.067 292.396Z" fill="#FABB6E"/>
<path d="M339.805 489.267H323.627V597.036H339.805V489.267Z" fill="#A9ABAD"/>
<path d="M306.702 602.262C306.702 611.222 313.92 618.44 322.88 618.44H510.542C519.502 618.44 526.72 611.222 526.72 602.262V592.804C526.72 583.844 519.502 576.627 510.542 576.627H322.88C313.92 576.627 306.702 583.844 306.702 592.804V602.262Z" fill="#4F453B"/>
<path d="M326.365 629.64C326.365 633.622 332.338 636.858 339.556 636.858H493.867C501.085 636.858 507.058 633.622 507.058 629.64V621.178C507.058 617.196 501.085 618.44 493.867 618.44H339.556C332.338 618.44 326.365 617.196 326.365 621.178V629.64Z" fill="#A9ABAD"/>
<path d="M330.845 823.524H345.28V809.587C345.28 806.6 347.769 803.862 351.005 803.862H482.418C485.653 803.862 488.142 806.351 488.142 809.587V823.524H502.578V809.587C502.578 794.902 490.631 789.427 475.947 789.427H357.227C342.542 789.427 330.596 794.902 330.596 809.587V823.524H330.845Z" fill="#92959C"/>
<path d="M427.165 662.244H406.258V789.178H427.165V662.244Z" fill="#92959C"/>
<path d="M441.351 630.138H391.822V664.733H441.351V630.138Z" fill="#A9ABAD"/>
<path d="M485.902 823.524C485.902 830.493 491.627 835.969 498.596 835.969C505.564 835.969 511.289 830.244 511.289 823.524C511.289 816.556 505.564 811.08 498.596 811.08C491.627 810.831 485.902 816.556 485.902 823.524Z" fill="#231F20"/>
<path d="M324.125 823.524C324.125 830.493 329.849 835.969 336.818 835.969C343.787 835.969 349.511 830.244 349.511 823.524C349.511 816.556 343.787 811.08 336.818 811.08C329.849 810.831 324.125 816.556 324.125 823.524Z" fill="#231F20"/>
<path d="M404.267 823.524C404.267 830.493 409.991 835.969 416.96 835.969C423.929 835.969 429.653 830.244 429.653 823.524C429.653 816.556 423.929 811.08 416.96 811.08C409.742 810.831 404.267 816.556 404.267 823.524Z" fill="#231F20"/>
<path d="M399.289 498.476C449.067 498.476 479.431 490.262 481.422 489.764C488.64 487.773 492.871 480.307 490.88 473.089C488.889 465.871 481.422 461.64 474.205 463.631C473.458 463.88 408.747 480.804 314.916 463.382C307.449 461.889 300.48 466.867 298.987 474.333C297.493 481.8 302.471 488.769 309.938 490.262C343.787 496.236 373.902 498.476 399.289 498.476Z" fill="#4F453B"/>
<path d="M472.462 658.262L495.111 667.471C495.858 667.72 496.853 667.471 497.351 666.476L501.333 657.018C501.582 656.271 501.333 655.276 500.338 654.778L477.689 645.569C476.942 645.32 475.947 645.569 475.449 646.565L471.467 656.022C471.218 656.769 471.716 657.764 472.462 658.262Z" fill="#4F453B"/>
<path d="M439.769 634.545L437.607 639.846L472.408 654.037L474.57 648.736L439.769 634.545Z" fill="#A9ABAD"/>
<path d="M408.851 819.925H423.536V796.529H408.851V819.925Z" fill="#92959C"/>
<path d="M580.729 761.053V778.973L608.854 796.396L603.876 788.929C603.876 788.929 600.391 759.062 600.64 755.08C601.138 751.098 580.729 761.053 580.729 761.053Z" fill="#F28D50"/>
<path d="M611.342 568.911L601.636 768.022H580.729C582.72 749.356 544.142 645.818 573.262 590.564C573.262 590.564 580.729 581.604 580.729 577.373L602.133 573.391L611.342 568.911Z" fill="#E8A55B"/>
<path d="M430.649 569.907L443.84 499.471C483.413 507.187 603.876 555.969 603.876 555.969L606.614 557.462C610.347 559.702 612.338 564.182 611.591 568.662L605.618 600.52C576.747 595.044 461.262 572.396 430.649 569.907Z" fill="#E8A55B"/>
<path d="M590.933 796.147C598.4 813.071 604.871 819.542 608.853 822.28C610.845 823.773 613.582 823.275 615.324 821.284L620.053 817.053L619.307 816.804L611.591 801.373C608.853 796.147 604.871 782.956 601.138 778.227C599.645 776.236 598.649 782.458 597.156 780.716C588.445 769.764 583.716 773 578.987 780.218C583.467 783.951 587.698 789.178 590.933 796.147Z" fill="#E8A55B"/>
<path d="M639.218 829.249C638.72 824.769 635.485 821.035 631.253 820.04L620.053 817.053L615.324 821.284C613.582 823.027 610.845 823.524 608.853 822.28C604.871 819.542 598.4 812.822 590.933 796.147C587.698 789.178 583.467 783.951 579.236 780.218C578.24 781.96 576.996 783.702 575.751 785.693C571.52 792.413 573.76 798.138 575.005 800.876C576.498 804.111 576.747 807.595 576.747 811.08L577.991 834.724H580.729L582.471 809.089L599.147 830.742C600.889 833.231 603.378 834.724 606.365 834.724H639.467L639.218 829.249Z" fill="#3A2B1A"/>
<path d="M518.507 761.053V778.973L546.631 796.396L541.653 788.929C541.653 788.929 538.169 759.062 538.418 755.08C538.667 751.098 518.507 761.053 518.507 761.053Z" fill="#FCBB6E"/>
<path d="M576.747 829.249C576.249 824.769 573.014 821.284 568.782 820.04L557.582 816.804L552.853 821.036C551.111 822.778 548.374 823.276 546.382 822.031C542.4 819.293 535.929 812.573 528.462 795.898C525.227 788.929 520.996 783.702 516.765 779.969C515.769 781.711 514.525 783.453 513.28 785.444C509.049 792.164 511.289 797.889 512.533 800.627C514.027 803.862 514.276 807.347 514.276 810.831L515.52 834.476H518.258L520 808.84L536.676 830.493C538.418 832.982 540.907 834.476 543.894 834.476H576.996L576.747 829.249Z" fill="#3A2B1A"/>
<path d="M528.462 796.147C535.929 813.071 542.4 819.542 546.383 822.28C548.374 823.773 551.111 823.276 552.854 821.284L557.583 817.053L556.836 816.805L549.12 801.373C546.382 796.147 542.4 782.956 538.667 778.227C537.174 776.236 535.431 775.489 533.938 773.498C525.227 762.547 521.494 773 516.765 780.218C520.996 783.951 525.476 789.178 528.462 796.147Z" fill="#FCBB6E"/>
<path d="M551.858 586.333C551.111 595.542 539.662 770.262 539.662 770.262H518.507C521.245 719.24 486.151 658.76 516.765 583.595C516.765 583.595 514.525 569.409 514.276 563.187L550.862 580.609C550.613 583.596 551.858 585.587 551.858 586.333Z" fill="#FCBB6E"/>
<path d="M369.671 575.133L390.827 504.947C403.022 512.911 493.867 544.769 538.418 560.449C549.12 564.182 554.845 575.631 551.609 586.582L546.134 604.253C539.911 602.511 532.694 600.769 528.462 600.52C523.236 599.773 440.356 598.031 369.671 575.133Z" fill="#FCBB6E"/>
<path d="M428.907 585.836C417.956 585.836 406.756 585.836 395.804 585.836C367.68 585.836 347.52 559.453 353.991 532.324C357.476 517.391 362.951 503.951 370.418 492.502C370.418 492.502 381.618 468.36 381.867 455.916H461.262C461.262 455.916 500.836 532.076 500.587 585.836C476.693 585.836 452.8 585.836 428.907 585.836Z" fill="#FCBB6E"/>
<path d="M462.009 450.938C462.009 450.938 469.973 455.916 480.676 484.538C482.667 489.516 486.649 493.498 491.627 495.24C506.062 500.218 538.418 513.409 577.493 543.276L540.409 546.76C522.24 551.489 507.805 565.676 502.578 583.844L498.596 605.498C441.351 590.564 345.28 599.276 350.009 541.533C352.498 510.173 355.485 481.053 382.614 450.938H462.009Z" fill="#BCE8DA"/>
<path d="M467.236 291.151C467.236 291.151 480.924 293.391 492.373 307.827C503.573 322.262 546.631 372.04 566.791 364.822C586.951 357.604 611.342 340.929 628.516 307.578L634.24 311.809L652.409 325.249C652.409 325.249 611.342 390.209 572.516 397.924C536.676 405.142 487.147 377.516 480.178 368.058L467.236 291.151Z" fill="#BCE8DA"/>
<path d="M540.16 396.929C540.16 396.929 493.369 385.48 473.956 361.836C471.218 358.351 471.218 308.822 471.218 308.822L495.609 356.36C500.587 364.822 507.058 372.538 515.022 378.262L540.16 396.929Z" fill="#A9DBC9"/>
<path d="M354.738 296.876C354.738 296.876 362.951 294.884 376.889 291.151C403.022 283.933 470.72 291.151 470.72 291.151L475.947 345.907C492.125 372.538 477.689 382.991 477.689 382.991L476.942 384.236L473.458 384.484L472.462 387.72C472.711 387.72 472.711 387.471 472.711 387.471L462.009 450.689H382.613L363.947 366.067C363.947 366.067 363.449 363.578 362.453 359.596C358.72 343.418 349.511 301.356 354.738 296.876Z" fill="#BCE8DA"/>
<path d="M391.822 387.222C392.071 387.471 392.32 387.471 393.067 387.72C394.809 388.218 396.551 388.218 398.293 388.467C405.013 389.462 411.733 389.96 418.453 390.209C429.653 390.707 439.858 388.467 445.582 386.973C448.818 385.978 452.302 386.227 455.289 387.471C458.276 388.716 462.258 389.711 465.245 389.462C470.969 388.964 472.96 387.471 472.96 387.471C485.156 379.258 483.662 369.302 483.911 369.302C474.702 369.302 465.742 375.524 462.507 376.769C458.276 378.511 454.293 380.751 450.311 382.991C450.062 383.24 444.836 379.258 444.338 379.009C440.107 376.271 435.876 373.782 431.396 371.542C428.16 370.049 424.427 368.804 420.942 368.058C400.285 364.573 388.587 356.609 387.342 354.867C388.587 363.08 389.831 371.044 391.076 379.258C391.325 381.498 391.573 383.738 391.822 385.978C391.573 386.724 391.573 386.973 391.822 387.222Z" fill="#A9DBC9"/>
<path d="M399.04 280.2L400.533 254.316L401.031 245.604L436.871 269C436.871 269 435.876 283.933 441.351 286.422L443.84 308.076L441.849 327.738L399.04 280.2Z" fill="#FABB6E"/>
<path d="M403.769 256.804C403.769 256.804 418.702 280.449 437.618 279.702C437.618 279.702 437.369 273.48 437.12 269C436.622 264.52 407.751 244.858 403.769 256.804Z" fill="#CA5F38"/>
<path d="M418.702 340.182C418.702 340.182 425.422 323.009 429.902 320.769C431.893 319.773 435.129 321.018 440.605 325.996C440.605 325.996 442.844 329.231 441.351 324.502C440.356 321.018 399.04 280.2 399.04 280.2L376.889 290.902L418.702 340.182Z" fill="#A9DBC9"/>
<path d="M441.351 286.422C441.351 286.422 442.845 293.889 442.845 307.827C442.845 321.764 441.6 326.493 441.6 326.493C443.591 325.498 446.08 317.782 450.56 320.769C451.805 321.516 463.005 333.462 465.245 336.2C465.245 336.2 462.756 306.582 454.542 289.658L441.351 286.422Z" fill="#A9DBC9"/>
<path d="M389.333 350.636C389.333 350.636 404.765 421.818 408.249 425.053C411.733 428.289 481.671 426.796 481.671 426.796C481.671 426.796 488.64 442.724 486.649 451.187C486.649 451.187 421.44 471.596 384.605 453.178C384.605 453.178 369.173 446.707 354.489 392.2C339.805 337.693 336.818 330.973 337.813 322.76C342.542 285.427 374.649 284.182 389.333 350.636Z" fill="#BCE8DA"/>
<path d="M465.245 456.662C465.245 456.662 415.716 468.111 391.325 456.164C391.325 456.164 460.516 440.733 485.405 444.218L486.649 443.72C486.649 443.72 487.645 450.689 485.902 452.68L465.245 456.662Z" fill="#A9DBC9"/>
<path d="M370.418 229.924C391.724 229.924 408.996 214.324 408.996 195.08C408.996 175.836 391.724 160.236 370.418 160.236C349.112 160.236 331.84 175.836 331.84 195.08C331.84 214.324 349.112 229.924 370.418 229.924Z" fill="#A3591E"/>
<path d="M474.951 176.164C474.951 176.164 477.689 213.249 474.951 226.938C472.213 240.627 459.271 266.76 450.062 269C440.853 270.991 407.005 267.756 387.84 241.124C387.84 241.124 384.107 235.151 383.111 229.924C381.867 224.698 378.631 199.311 378.631 199.311C378.631 199.311 361.209 152.022 388.338 143.311C415.218 134.351 473.956 131.613 474.951 176.164Z" fill="#FABB6E"/>
<path d="M438.365 197.818C438.365 197.818 441.351 195.08 444.338 195.329C445.582 195.578 446.827 196.076 447.822 197.569C448.071 197.818 449.565 195.578 449.316 194.831C448.818 193.587 445.831 192.591 444.587 192.591C442.845 192.591 439.111 193.089 437.867 194.582C437.12 195.578 438.365 197.818 438.365 197.818Z" fill="#231F20"/>
<path d="M417.707 218.724C410.987 218.724 405.76 216.733 402.027 213C397.547 208.52 395.307 201.302 395.307 191.596C395.307 191.596 395.058 190.351 396.053 188.858C398.044 186.12 402.524 184.378 409.742 183.382C424.178 181.64 435.129 185.373 438.613 193.338C440.605 198.316 439.609 206.031 436.125 210.76C432.64 215.24 425.671 218.724 417.707 218.724ZM416.96 185.622C414.72 185.622 412.48 185.871 410.24 186.12C400.036 187.364 397.796 190.351 398.044 191.347C398.044 200.556 400.036 207.027 404.018 211.009C407.253 214.244 411.733 215.987 417.707 215.987C421.938 215.987 430.4 215.738 433.884 209.516C436.373 205.284 437.867 198.564 436.125 194.582C433.885 188.858 426.916 185.622 416.96 185.622Z" fill="#231F20"/>
<path d="M418.702 182.884C418.702 182.884 394.809 182.636 388.836 187.116V192.342C388.836 192.342 395.307 193.587 399.04 201.8L397.796 189.107L406.009 185.871L418.702 182.884Z" fill="#231F20"/>
<path d="M450.311 210.76C447.573 205.782 445.084 198.067 447.822 193.338C452.302 185.622 460.018 181.64 474.453 183.382C481.671 184.378 484.658 186.12 486.649 188.858C487.644 190.351 487.644 191.596 487.396 191.596C487.396 201.302 485.156 208.52 480.676 213C476.942 216.733 471.964 218.476 468.729 218.724C456.782 218.724 451.307 212.751 450.311 210.76ZM450.311 194.333C448.569 198.316 450.311 205.036 452.551 209.267C454.293 212.253 459.769 216.484 468.729 215.738C471.964 215.489 475.698 213.996 478.684 210.76C482.667 206.778 484.658 200.307 484.658 191.098C484.658 190.102 484.16 187.116 473.956 185.871C471.467 185.622 471.467 185.373 469.227 185.373C459.52 185.622 452.551 188.858 450.311 194.333Z" fill="#231F20"/>
<path d="M467.733 182.884C467.733 182.884 487.893 182.636 494.116 187.116V192.342C494.116 192.342 487.644 193.587 483.911 201.8L485.156 189.107L478.684 185.871L467.733 182.884Z" fill="#231F20"/>
<path d="M445.582 228.182C445.085 228.182 444.836 227.933 444.836 227.436C444.836 226.938 445.085 226.689 445.582 226.689C447.325 226.44 453.049 224.449 454.293 221.462C454.791 220.218 454.293 218.724 452.8 217.231C446.329 210.511 445.085 200.556 445.085 200.058C445.085 199.56 445.333 199.311 445.831 199.311C446.329 199.311 446.578 199.56 446.578 200.058C446.578 200.058 447.822 210.013 454.045 216.236C456.036 218.227 456.533 220.218 455.787 222.209C454.045 225.942 447.325 227.933 445.582 228.182Z" fill="#A87C4F"/>
<path d="M382.365 227.436C382.365 227.436 375.147 234.653 367.431 224.2C359.965 213.498 359.218 202.796 364.694 197.818C370.169 193.089 377.387 195.329 380.373 201.551C383.609 207.524 382.365 227.436 382.365 227.436Z" fill="#FABB6E"/>
<path d="M427.165 234.653C427.165 234.653 456.782 232.911 458.276 234.653C459.769 236.396 453.547 239.88 453.547 239.88C453.547 239.88 432.889 242.369 427.165 234.653Z" fill="#E2646E"/>
<path d="M427.165 237.142C427.165 237.142 431.147 251.329 445.582 249.836C460.018 248.342 455.04 240.129 455.04 240.129C455.04 240.129 446.827 249.587 427.165 237.142Z" fill="#E2646E"/>
<path d="M421.938 201.053C421.938 204.289 419.698 207.027 417.209 207.027C414.72 207.027 412.48 204.289 412.48 201.053C412.48 199.311 413.227 197.569 414.222 196.573C414.969 195.578 416.213 195.08 417.209 195.08C419.947 195.329 421.938 197.818 421.938 201.053Z" fill="#603813"/>
<path d="M417.209 195.329C417.209 195.329 422.187 195.08 423.431 192.342C424.178 190.849 425.92 198.813 417.209 198.067V195.329Z" fill="#603813"/>
<path d="M466.738 201.053C466.738 204.289 464.498 207.027 462.009 207.027C459.52 207.027 457.28 204.289 457.28 201.053C457.28 199.311 458.027 197.569 459.022 196.573C459.769 195.578 461.013 195.08 462.009 195.08C464.747 195.329 466.738 197.818 466.738 201.053Z" fill="#603813"/>
<path d="M462.009 195.329C462.009 195.329 466.987 195.08 468.231 192.342C468.978 190.849 470.72 198.813 462.009 198.067V195.329Z" fill="#603813"/>
<path d="M366.436 203.791C366.436 203.791 375.645 198.564 378.133 207.276C380.622 215.987 378.88 218.973 376.142 220.467C372.409 222.458 370.169 216.733 371.165 213.996C371.911 212.253 374.151 211.009 374.151 209.018C374.4 207.027 372.409 205.782 370.916 205.036C370.169 204.289 367.431 203.044 366.436 203.791Z" fill="#F28D50"/>
<path d="M475.2 183.133C475.2 183.133 489.387 171.187 478.933 145.8C468.48 120.413 442.596 119.169 423.929 126.387C423.929 126.387 358.72 101.996 354.987 162.973L364.694 197.818C364.694 197.818 417.707 178.404 423.431 147.044C423.68 147.044 460.267 150.778 475.2 183.133Z" fill="#A3591E"/>
<path d="M395.307 179.649C378.88 189.853 387.591 212.502 382.862 208.769C382.862 208.769 376.889 190.849 370.667 190.102C364.445 189.604 395.307 179.649 395.307 179.649Z" fill="#A3591E"/>
<path d="M455.04 238.884C455.04 238.884 454.791 243.364 441.6 241.622C441.6 241.622 433.138 240.876 431.396 237.889C431.147 237.889 448.071 242.12 455.04 238.884Z" fill="white"/>
<path d="M394.809 218.724L449.565 213.747L476.196 219.72C476.196 219.72 472.96 256.804 462.009 263.524H416.462C416.462 263.524 394.062 257.551 394.809 218.724Z" fill="#E6E7E8"/>
<path d="M696.96 292.147L692.48 283.436L690.489 279.204L699.2 274.724L705.92 287.418L696.96 292.147Z" fill="#92959C"/>
<path d="M705.412 295.533L701.691 288.211L700.138 289.001L703.859 296.322L705.412 295.533Z" fill="#92959C"/>
<path d="M640.711 290.156C647.182 289.658 652.658 292.893 659.129 292.147C667.093 291.4 679.04 292.396 693.724 281.195C693.724 281.195 697.209 281.693 697.209 283.684C696.96 285.675 677.298 299.613 646.684 297.622C646.684 297.622 640.213 296.876 634.738 299.116C626.773 302.351 625.529 296.627 632 292.396C633.742 291.649 637.724 290.404 640.711 290.156Z" fill="#92959C"/>
<path d="M675.805 293.64C680.285 291.649 686.258 291.4 689.245 296.378C689.742 297.373 689.742 301.355 683.769 299.862C669.582 296.129 667.84 315.044 654.4 314.298L646.436 321.018C646.436 321.018 632.996 311.062 632.747 310.813C632.747 310.813 637.973 302.849 637.973 302.6C638.222 301.853 642.204 290.404 645.191 283.187C646.187 280.947 653.902 271.987 656.142 270.991C659.129 269.498 659.627 270.742 663.609 269.995C665.6 269.498 669.333 270.493 671.325 269.995C673.316 269.747 676.053 270.244 677.796 271.489C682.525 274.724 695.716 275.222 694.471 278.707C695.218 279.702 693.476 283.187 688 282.44C683.022 281.693 678.791 281.196 674.56 279.204C672.32 281.196 670.329 284.182 669.333 285.924C668.089 288.413 667.342 291.649 666.845 294.635C667.093 298.867 674.062 294.387 675.805 293.64Z" fill="#FABB6E"/>
<path d="M508.8 431.276C508.8 431.276 514.027 429.782 514.773 429.782C517.511 429.284 521.493 429.533 527.716 431.773C531.2 432.769 536.178 442.227 528.96 439.24C524.48 437.249 510.045 437.996 510.045 437.996C510.045 437.996 499.591 432.271 508.8 431.276Z" fill="#CA5F38"/>
<path d="M545.387 389.213C545.387 389.213 542.151 402.404 532.196 421.071L529.956 419.827L527.716 418.582C536.676 399.667 545.387 389.213 545.387 389.213Z" fill="#A9ABAD"/>
<path d="M544.142 390.707L544.889 390.956L547.627 385.231C547.627 385.231 549.12 383.489 551.36 381.995C552.853 381 553.6 379.756 553.351 378.262C553.102 377.018 552.107 376.022 550.862 375.773C549.867 375.524 548.622 376.52 548.622 376.52L548.871 376.769C549.12 376.52 550.116 376.271 550.862 376.52C551.858 376.769 552.605 377.516 552.853 378.511C553.102 379.756 552.356 380.751 551.111 381.498C548.622 382.991 547.129 384.733 547.129 384.982L544.142 390.707Z" fill="#A9ABAD"/>
<path d="M509.509 455.096L513.955 457.335L532.199 421.098L527.753 418.86L509.509 455.096Z" fill="#4F453B"/>
<path d="M483.662 431.524L495.609 428.787L519.005 417.587L547.876 423.062L555.093 432.52C555.093 432.52 558.08 436.253 556.836 438.493C555.84 440.733 547.627 432.52 541.653 430.529C535.68 428.289 521.991 434.262 521.991 434.262C521.991 434.262 510.542 445.96 502.827 445.462C495.111 444.964 485.653 445.96 485.653 445.96L483.662 431.524Z" fill="#FABB6E"/>
</svg>
