<svg width="1867" height="1441" viewBox="0 0 1867 1441" fill="none" xmlns="http://www.w3.org/2000/svg">
<path d="M1860 1428.1H6.59993C3.39993 1428.1 0.500004 1430.5 0.300004 1433.8C0.100004 1437.3 2.89998 1440.3 6.39998 1440.3H1860C1863.4 1440.3 1866.1 1437.6 1866.1 1434.2C1866.1 1430.8 1863.4 1428.1 1860 1428.1Z" fill="url(#paint0_linear)"/>
<path d="M650.1 268.3C705.273 268.3 750 223.573 750 168.4C750 113.227 705.273 68.5 650.1 68.5C594.927 68.5 550.2 113.227 550.2 168.4C550.2 223.573 594.927 268.3 650.1 268.3Z" fill="url(#paint1_linear)"/>
<path d="M687.7 258.1C638.2 278.8 581.1 255.5 560.4 206C539.7 156.5 563 99.4 612.5 78.7C662 58 719.1 81.3 739.8 130.8C760.5 180.3 737.2 237.4 687.7 258.1Z" fill="url(#paint2_linear)"/>
<path d="M718.177 209.884C740.859 172.292 728.772 123.429 691.179 100.747C653.586 78.0647 604.723 90.1522 582.041 127.745C559.359 165.338 571.446 214.201 609.039 236.883C646.632 259.565 695.495 247.477 718.177 209.884Z" fill="white"/>
<path d="M679.2 237.9C640.9 254 596.7 235.9 580.6 197.6C564.5 159.3 582.6 115.1 620.9 99C659.2 82.9 703.4 101 719.5 139.3C735.6 177.6 717.5 221.8 679.2 237.9Z" fill="white"/>
<path d="M588.4 189.9L576 195.1C574 196 573 198.3 573.8 200.4C574.7 202.4 577 203.4 579.1 202.6L591.5 197.4C593.5 196.5 594.5 194.2 593.7 192.1C592.8 190 590.5 189.1 588.4 189.9Z" fill="url(#paint3_linear)"/>
<path d="M673.7 224.8C671.7 225.7 670.7 228 671.5 230.1L676.7 242.5C677.6 244.5 679.9 245.5 682 244.7C684 243.8 685 241.5 684.2 239.4L679 227C678.1 224.9 675.8 224 673.7 224.8Z" fill="url(#paint4_linear)"/>
<path d="M721.1 134.3L708.7 139.5C706.7 140.4 705.7 142.7 706.5 144.8C707.4 146.8 709.7 147.8 711.8 147L724.2 141.8C726.2 140.9 727.2 138.6 726.4 136.5C725.5 134.4 723.1 133.5 721.1 134.3Z" fill="url(#paint5_linear)"/>
<path d="M618.1 92.2C616.1 93.1 615.1 95.4 615.9 97.5L621.1 109.9C622 111.9 624.3 112.9 626.4 112.1C628.4 111.2 629.4 108.9 628.6 106.8L623.4 94.4C622.5 92.3 620.2 91.3 618.1 92.2Z" fill="url(#paint6_linear)"/>
<path d="M646.1 58.4L647.2 42.6C647.3 41.3 648.4 40.3 649.7 40.4L667.8 41.7C669.1 41.8 670.1 42.9 670 44.2L668.9 60C668.8 61.3 667.7 62.3 666.4 62.2L648.3 60.9C647 60.8 646 59.6 646.1 58.4Z" fill="url(#paint7_linear)"/>
<path d="M575.5 88.4L563.5 78.1C562.5 77.3 561 77.4 560.2 78.4L548.4 92.2001C547.6 93.2001 547.7 94.7 548.7 95.5L560.7 105.8C561.7 106.6 563.2 106.5 564 105.5L575.8 91.7001C576.6 90.7001 576.5 89.2 575.5 88.4Z" fill="url(#paint8_linear)"/>
<path d="M594.9 62.5C593.7 63 592.4 62.4 591.9 61.3L587.5 50.8C587 49.6 587.6 48.3 588.7 47.8L610.1 38.8C611.3 38.3 612.6 38.9 613.1 40L617.5 50.5C618 51.7 617.4 53 616.3 53.5L594.9 62.5Z" fill="url(#paint9_linear)"/>
<path d="M600.5 66.3C590.1 67.1 579.8 61.2 575.5 51C570.2 38.3 576.2 23.6 588.9 18.3C601.6 13 616.3 19 621.6 31.7C625.9 41.9 622.9 53.3 615 60.2L617.4 65.9C628.3 57.6 632.6 42.6 627.1 29.4C620.5 13.7 602.4 6.20001 586.6 12.8C570.9 19.4 563.4 37.5 570 53.3C575.5 66.5 589.2 73.9 602.8 72L600.5 66.3Z" fill="url(#paint10_linear)"/>
<path d="M610.7 74.4C613.2 73.4 615.7 72.4 618.2 71.6L611.9 56.5L600.1 61.5L606.4 76.5C607.8 75.7 609.2 75 610.7 74.4Z" fill="url(#paint11_linear)"/>
<path d="M656.8 165.4C658.4 169.1 656.6 173.4 652.9 175C649.2 176.6 644.9 174.8 643.3 171.1C641.7 167.4 643.5 163.1 647.2 161.5C651 160 655.3 161.7 656.8 165.4Z" fill="url(#paint12_linear)"/>
<path d="M657.9 108.4L652.7 168.6C652.6 170.1 651.2 171.2 649.7 171.1C648.2 171 647.1 169.6 647.2 168.1C647.2 167.9 646.7 170.5 657.9 108.4Z" fill="url(#paint13_linear)"/>
<path d="M703 198.1L649 171C647.6 170.3 647.1 168.7 647.8 167.3C648.5 165.9 650.1 165.4 651.5 166.1C651.7 166.1 649.4 164.7 703 198.1Z" fill="url(#paint14_linear)"/>
<path d="M652.8 167.1C653.4 168.6 652.7 170.4 651.2 171C649.7 171.6 647.9 170.9 647.3 169.4C646.7 167.9 647.4 166.1 648.9 165.5C650.4 164.9 652.2 165.6 652.8 167.1Z" fill="url(#paint15_linear)"/>
<path d="M1393.1 600.9C1392.4 600.1 1391.2 599.7 1390.1 600C1384.8 601.4 1375.3 599.3 1370.5 597.6L1365.4 572.1C1369.1 568.7 1377.1 563.1 1382.5 562.3C1383.6 562.2 1384.5 561.4 1384.9 560.3L1391.4 540.9C1391.8 539.8 1391.5 538.7 1390.7 537.9C1386.8 534 1383.9 524.7 1383 519.8L1402.5 502.6C1407.3 504.1 1416.2 508.2 1419.5 512.5C1420.2 513.4 1421.3 513.8 1422.4 513.6L1442.4 509.6C1443.5 509.4 1444.4 508.6 1444.7 507.5C1446.1 502.2 1452.7 495 1456.5 491.7L1481.1 500C1482.1 504.9 1483.1 514.6 1481 519.7C1480.6 520.7 1480.8 521.9 1481.5 522.8L1495 538.1C1495.7 538.9 1496.9 539.3 1498 539C1503.3 537.6 1512.8 539.7 1517.6 541.4L1522.7 566.9C1519 570.3 1511 575.9 1505.6 576.7C1504.5 576.8 1503.6 577.6 1503.2 578.7L1496.7 598.1C1496.3 599.2 1496.6 600.3 1497.4 601.1C1501.3 605 1504.2 614.3 1505.1 619.2L1485.6 636.4C1480.8 634.9 1471.9 630.8 1468.6 626.5C1467.9 625.6 1466.8 625.2 1465.7 625.4L1445.7 629.4C1444.6 629.6 1443.7 630.4 1443.4 631.5C1442 636.8 1435.4 644 1431.6 647.3L1407 639C1405.9 634.1 1405 624.4 1407.1 619.3C1407.5 618.3 1407.3 617.1 1406.6 616.2L1393.1 600.9ZM1449.2 594.6C1463.1 591.8 1472 578.3 1469.2 564.4C1466.4 550.5 1452.9 541.6 1439 544.4C1425.1 547.2 1416.2 560.7 1419 574.6C1421.8 588.5 1435.3 597.4 1449.2 594.6ZM1452.4 610.7C1475.2 606.1 1489.9 583.9 1485.3 561.2C1480.7 538.4 1458.5 523.7 1435.8 528.3C1413.1 532.9 1398.3 555.1 1402.9 577.8C1407.5 600.6 1429.7 615.3 1452.4 610.7Z" fill="url(#paint16_linear)"/>
<path d="M1558.6 692.1C1558.8 691.2 1559.5 690.6 1560.4 690.4L1576.3 687.2C1577.2 687 1578.1 687.4 1578.6 688.1C1581.2 691.5 1588.3 694.8 1592.1 696L1607.5 682.4C1606.8 678.5 1604.4 671.1 1601.4 668.1C1600.8 667.5 1600.6 666.6 1600.8 665.7L1606 650.4C1606.3 649.6 1607 649 1607.9 648.8C1612.2 648.2 1618.5 643.7 1621.5 641.1L1617.4 620.9C1613.7 619.6 1606.1 617.9 1601.9 619C1601 619.2 1600.1 619 1599.6 618.3L1588.9 606.2C1588.3 605.5 1588.2 604.6 1588.5 603.8C1590.1 599.8 1589.4 592.1 1588.6 588.2L1569.1 581.6C1566.1 584.2 1560.9 589.9 1559.7 594.1C1559.5 595 1558.8 595.6 1557.9 595.8L1542 599C1541.1 599.2 1540.2 598.8 1539.7 598.1C1537.1 594.7 1530 591.4 1526.2 590.2L1510.8 603.8C1511.5 607.7 1513.9 615.1 1516.9 618.1C1517.5 618.7 1517.7 619.6 1517.5 620.5L1512.3 635.8C1512 636.6 1511.3 637.2 1510.4 637.4C1506.1 638 1499.8 642.5 1496.8 645.1L1500.9 665.3C1504.6 666.6 1512.2 668.3 1516.4 667.2C1517.3 667 1518.2 667.2 1518.7 667.9L1529.4 680C1530 680.7 1530.1 681.6 1529.8 682.4C1528.2 686.4 1528.9 694.1 1529.7 698L1549.2 704.6C1552.3 702 1557.5 696.3 1558.6 692.1ZM1564.1 667.8C1550.4 670.6 1537.1 661.7 1534.4 648.1C1531.6 634.4 1540.5 621.1 1554.1 618.4C1567.8 615.6 1581.1 624.5 1583.8 638.1C1586.6 651.7 1577.8 665 1564.1 667.8Z" fill="url(#paint17_linear)"/>
<path d="M443.2 371.4L425.6 364.8L410.1 375.6C408.3 376.8 405.9 375.5 406 373.4L406.9 354.6L391.9 343.2C390.2 341.9 390.7 339.2 392.8 338.6L411 333.6L417.2 315.8C417.9 313.8 420.6 313.4 421.8 315.2L432.2 330.9L451 331.3C453.1 331.3 454.3 333.8 453 335.5L441.2 350.2L446.6 368.2C447.2 370.3 445.2 372.2 443.2 371.4Z" fill="url(#paint18_linear)"/>
<path d="M470.2 258.8L460.6 233.1L436.1 240.4L425.5 215.5L401.3 219.6L390.3 202.2L381.5 207.8L396.2 231L419.2 227.1L430.2 253L454.3 245.8L462.9 269.1L470.2 258.8Z" fill="url(#paint19_linear)"/>
<path d="M1500.2 377.2L1476.1 364.1L1462.4 385.6L1438.1 373.7L1422.4 392.7L1402.8 386.7L1399.8 396.7L1426 404.7L1440.9 386.6L1466.2 399.1L1479.7 377.8L1501.5 389.8L1500.2 377.2Z" fill="url(#paint20_linear)"/>
<path d="M865.6 53.1001L855.3 78.5001L878.4 89.6001L869.3 115.2L890 128.5L886.4 148.7L896.6 150.6L901.5 123.6L881.8 110.9L891.3 84.3L868.6 73.4001L877.9 50.3L865.6 53.1001Z" fill="url(#paint21_linear)"/>
<path d="M1472.7 709L1467.6 699L1456.2 699.4L1451.3 687.9L1439.3 692L1433.2 679.2L1421.7 681.6L1413.8 670.2L1418.1 667.2L1424 675.8L1436.2 673.2L1442 685.5L1454.2 681.3L1459.6 694.1L1470.8 693.7L1475.5 702.9L1482.7 701.2L1484 706.3L1472.7 709Z" fill="url(#paint22_linear)"/>
<path d="M1261.9 247L1256.6 231.2L1281.1 219.8L1276.2 195.7L1293.2 184.1L1287.4 175.5L1264.6 191L1269.3 213.8L1243.8 225.7L1251.8 249.5L1261.9 247Z" fill="url(#paint23_linear)"/>
<path d="M1458.6 210.5C1485.7 251.9 1448.9 309.3 1400.6 300.8C1391.9 299.3 1382.9 301.3 1375.2 306L1348.5 322.4C1341.2 326.9 1331.9 325 1327.3 317.9L1317 302.2C1312.4 295.1 1313.9 285.3 1320.5 279.6C1344.6 259 1354.9 253.1 1358.1 235.8C1367.7 185.2 1431.6 169.1 1458.6 210.5Z" fill="#EDFDFC"/>
<path d="M1395.1 233.3C1394.6 231 1394.1 228.5 1393.8 226C1392.6 211.5 1403.7 206.5 1409.6 210.3C1413.4 212.7 1414.9 218.2 1412.7 223.5C1410.8 228.2 1406.5 231.6 1402.2 235.4C1404.5 243.4 1408.1 250.8 1412.9 257.4C1426.1 249.5 1435.5 253.8 1436.1 261C1436.5 265.6 1433.5 270.4 1429.1 272.3C1426.4 273.5 1419.5 275.1 1411.4 266C1389.1 281.7 1360.1 304.9 1360 305L1356.3 299.9C1356.4 299.8 1385.3 276.8 1407.4 261.1C1402.8 254.7 1399.3 247.7 1396.8 240.1C1371.4 262.2 1349.1 279.7 1348.3 280.4L1344.6 275.3C1346.4 273.8 1368 257 1395.1 233.3ZM1405.8 215.6C1403.8 214.9 1398.6 217 1400.7 228.3C1406.5 223.2 1408.3 220.9 1405.8 215.6ZM1417.1 262.3C1420.3 265.7 1425.2 268.7 1428.5 265.1C1432.8 260.4 1426.7 256.9 1417.1 262.3Z" fill="#B7D972"/>
<path d="M1375.9 305.6C1375.7 305.7 1375.4 305.8 1375.2 306L1348.5 322.4C1341.2 326.9 1331.9 325 1327.3 317.9L1317 302.2C1312.4 295.1 1313.9 285.3 1320.5 279.6C1331.2 270.4 1339.2 264.2 1345.1 258.5L1375.9 305.6Z" fill="#B7D972"/>
<path d="M179 1082.4C179 1082.4 178.1 1078.2 178 1076.7C177.8 1075 177.6 1069.9 177.6 1069.9C177.6 1069.9 177.6 1052.2 178.9 1052.3C180.2 1052.4 181.9 1055.4 182.3 1056.5C182.7 1057.6 183.2 1058.8 183.6 1059.9C184 1061 185.1 1061.6 186.5 1061.2C187.9 1060.8 187.3 1056.1 186.8 1054.5C185.2 1049.6 178.1 1037.3 177.5 1036C176.7 1034.4 182.3 1003.7 183.4 993C185.7 975.6 189 957.8 189.2 955.9L220.2 887.3L199.5 866.1C199.5 866.1 164 941.8 162.6 945.7C162 947.6 159.7 988.4 159.7 988.4C159.9 1008.6 160.1 1026.3 160 1029.8C160 1029.8 157.1 1040 154.8 1046.3C152.6 1052.7 153 1059.4 152.7 1061.3C152.6 1061.6 151.1 1068 152.2 1076C153.1 1082.9 155.5 1075.9 155.5 1075.9C155.5 1075.9 156.1 1062.7 157.1 1062.9C157.9 1063.1 157.1 1070.3 158.1 1077.9C158.3 1079.9 158.6 1081.8 158.8 1083.6C159.4 1088.3 162.5 1089.2 162.6 1084.2C162.6 1082.4 162.6 1079.5 162.3 1077.4C162 1075.1 162.4 1072.9 162.4 1071C162.4 1067.1 162.4 1064.3 162.6 1064.4C162.8 1064.5 163.4 1063.7 163.7 1065.8C164.1 1068.3 163.7 1073.8 164.6 1077.5C165.1 1079.6 165.8 1084 165.8 1084C165.8 1084 167.8 1091 168.2 1090.9C170.5 1090.8 170.5 1085.4 169.5 1082.7C169.7 1080.6 168.8 1076 168.8 1076C168.8 1076 169 1066.3 170.4 1066.3C171.5 1066.3 175.5 1089.6 177.8 1089.4C179.9 1089.5 179 1082.4 179 1082.4Z" fill="#F7A491"/>
<path d="M207.6 927.2C207.6 927.2 194.7 925 187.9 922.4C178.8 919 172.8 916 172.8 916C172.8 916 182.8 873.2 195.3 847.2C200.5 836.5 205.7 831.3 212.9 830C212.9 830 228.2 840.1 227.6 864.3C227.5 870.2 207.6 927.2 207.6 927.2Z" fill="url(#paint24_linear)"/>
<path d="M247.2 1071.1L263.9 1224.7C263.9 1224.7 255.7 1257.2 256.7 1266.4C257.7 1275.6 274.8 1396.7 274.8 1396.7L274.1 1403.5V1423.6H337.8C337.8 1423.6 324.3 1417.4 305.4 1405C304 1404.1 300.8 1401.2 300 1395.4C294.9 1358.1 304.9 1233.6 304.9 1233.6L312.8 1071.6L247.2 1071.1Z" fill="#F7A491"/>
<path d="M196 1103.4C192.4 1104.3 186.9 1236.4 183.9 1242.3C165 1279.4 160.5 1392.2 160.5 1392.2L155 1408.3L149.1 1428C149.1 1428 168 1433.2 177.9 1427.5L176.8 1408.1L175.8 1390.3L223.5 1249.7L249.6 1106.3L196 1103.4Z" fill="#F7A491"/>
<path d="M290.8 847.6C283.1 836.8 251.4 805.4 247.9 805.5C237.6 805.7 203.9 805.7 197.3 809.1V816.5C197.5 849.5 201.7 882.4 210 914.3C215.8 936.6 221.3 960.3 220.6 968.9L220.8 969.1C240.3 988.5 271.1 987 288.9 965.7C288.9 965.7 288.8 942 291.6 920.5C295.8 886.6 309.9 874.5 290.8 847.6Z" fill="#B7D972"/>
<path d="M237.5 771.9C237.5 771.9 238.4 793.9 236.5 802.3C234.6 810.6 232 811.3 248.5 813.8C255 814.8 261.2 816.3 261.2 816.3C261.2 816.3 259.5 804 259.3 798.9C258.9 790.4 261.2 764.1 261.2 764.1L237.5 771.9Z" fill="#F7A491"/>
<path d="M250.1 782.9C253.5 784.8 256.7 785.9 259.6 786.4C260.2 776 261.2 764.1 261.2 764.1L238.6 771.6C241.2 776.1 244.9 780 250.1 782.9Z" fill="#F47458"/>
<path d="M242.7 710.3C242.7 710.3 233.3 713.6 228.1 724C222.9 734.4 221 763.5 241.5 774.9C251.6 780.5 263.3 781.6 268.9 776.7C274.5 771.6 273.8 760.4 273.3 751C272.1 732.4 268 704.4 242.7 710.3Z" fill="#F7A491"/>
<path d="M227.6 746.9C228.8 751.8 227.2 756.5 224.1 757.4C221 758.3 217.6 755.1 216.4 750.3C215.2 745.4 216.8 740.7 219.9 739.8C223 738.8 226.5 742 227.6 746.9Z" fill="#F7A491"/>
<path d="M176.8 1408C168.1 1412 158.8 1409.5 155 1408.3L149 1428.1C149 1428.1 168 1433.7 177.9 1428.1L176.8 1408Z" fill="url(#paint25_linear)"/>
<path d="M273.5 1428.6H339.7C342.1 1428.4 342.7 1426.3 341.9 1425C340.2 1422.4 332.4 1420.5 323.7 1416.3C308.5 1418 276.5 1407.1 274.1 1403.5C272.7 1410.8 272.1 1428.2 273.5 1428.6Z" fill="url(#paint26_linear)"/>
<path d="M406.5 897.6C407.8 895.8 412.1 887.1 412.1 887.1C412.1 887.1 416.6 872.2 415.6 872.4C415.1 872.5 413.2 874.6 411 879.2C409.7 882 408.2 886.8 406.8 889.2C404.4 893.4 401.7 895.1 402.4 893.5C402.9 892.3 404.5 891.3 406 888.8C409.5 882.7 412.7 872.7 411.3 872.9C410.1 873.1 406.7 880 402.9 885.3C401.2 887.6 396.6 890.6 393.6 892.4C393.6 891.1 394 889.8 394.2 889.1C394.6 887.9 399.8 881 397.8 880.1C395.7 879.2 383.2 894.3 383.2 894.3L378.1 903.1L377.6 903.4C377.6 903.4 315.1 927.9 313 927.2C308.1 925.6 291.3 877 291.3 877L256.4 883.3C255.9 883 293.1 955.7 300.1 959.3C306.2 962.4 371.1 928.6 383.3 921.4C400.1 914.9 406.7 907.2 409.4 903.3C410.9 901.2 416.5 892 416.5 892C416.5 892 417.7 879.3 416.8 879.1C413.7 878.7 412.9 890.7 412.9 890.7C412.9 890.7 408.7 896.4 408 897.1C406.2 899 406.5 897.6 406.5 897.6Z" fill="#F8A492"/>
<path d="M233.9 834.7C229.1 854.9 254.6 900 254.6 900C254.6 900 290.8 882.4 297.2 874.8C297.2 874.8 272.2 833.5 270.7 830.8C267.4 825 255.6 813 247.7 815.2C242.6 816.6 233.9 834.7 233.9 834.7Z" fill="url(#paint27_linear)"/>
<path d="M239.6 784.8C242.3 766.3 273.1 728.5 261.2 712.7C251.6 699.9 234.8 703.7 224.1 707.4C175.7 724.1 178.5 784.9 163.2 794.5C135.5 811.8 118.4 822.5 116.4 861.4C114 907.5 153.2 931.1 200.3 919.8C225.6 913.7 232.3 905.4 242.5 881.5C247.1 870.7 256.3 837.1 253.8 820.7C251.6 805.9 237.4 799.7 239.6 784.8Z" fill="#473B1E"/>
<path d="M258 750.8C258 756.3 256 760.7 253.5 760.7C251 760.7 249 756.2 249 750.8C249 745.3 251 740.9 253.5 740.9C256 740.9 258 745.3 258 750.8Z" fill="#F7A491"/>
<path d="M318.7 1171L321 1079.9C321.4 1054.1 316.3 1028.6 306.1 1005.2L288.9 965.7C281.9 968 275.4 969.9 268 970.8C252.1 972.6 236.4 970.8 220.6 968.9C220.6 969.5 220.5 970.1 220.4 970.5C217.5 983.9 201.5 1013.8 194.8 1054.7C187.1 1101.1 184.3 1170.5 185.2 1176C258.4 1179.3 275.8 1182 318.7 1171Z" fill="#473B1E"/>
<path d="M1230.4 714.8L1285.5 769.9C1285.5 769.9 1390.5 811 1402.2 836.2C1413.9 861.4 1391.6 860.2 1367 856.7C1342.4 853.2 1272.6 809.8 1272.6 809.8L1208.7 735.9L1230.4 714.8Z" fill="url(#paint28_linear)"/>
<path d="M1391.8 825.2L1378.2 820.4L1351.8 832.7C1351.8 832.7 1338.2 841.9 1331.6 864.8C1325 887.7 1331.6 1024.5 1342.6 1046.5C1353.5 1068.4 1391.8 825.2 1391.8 825.2Z" fill="#EDFDFC"/>
<path d="M1478.4 1373.7C1478.4 1373.7 1488.1 1379.9 1488.9 1382.8C1489.7 1385.7 1496.8 1416.8 1494.1 1420.4C1491.4 1424 1481.7 1422.3 1485.5 1424.9C1488.4 1426.9 1506.8 1428.4 1518.6 1425.2C1522 1424.3 1520.5 1395.2 1521 1390.8C1521.7 1384.4 1526.2 1369.8 1523.5 1366C1522.2 1364.1 1514.6 1360.9 1507.8 1358.2C1500.6 1355.4 1492.7 1347.5 1492.7 1347.5L1478.4 1373.7Z" fill="#F7A491"/>
<path d="M1507.1 1358C1507.1 1358 1501.4 1413.1 1494.7 1417.2C1492.9 1418.3 1483.5 1419.1 1482.6 1423.6C1482.6 1423.7 1482.4 1428.2 1485.2 1428.3L1520.9 1428.2C1520.9 1428.2 1521.3 1401.1 1521 1390.5C1521 1390.5 1525.9 1363.4 1524.3 1361.4C1522.8 1359.3 1507.1 1358 1507.1 1358Z" fill="#002A24"/>
<path d="M1618.2 1373.7C1618.2 1373.7 1627.9 1379.9 1628.7 1382.8C1629.5 1385.7 1636.6 1416.8 1633.9 1420.4C1631.2 1424 1621.5 1422.3 1625.3 1424.9C1628.2 1426.9 1646.6 1428.4 1658.4 1425.2C1661.8 1424.3 1660.3 1395.2 1660.8 1390.8C1661.5 1384.4 1666 1369.8 1663.3 1366C1662 1364.1 1654.4 1360.9 1647.6 1358.2C1640.4 1355.4 1632.5 1347.5 1632.5 1347.5L1618.2 1373.7Z" fill="#F7A491"/>
<path d="M1442.7 1015.4C1442.7 1015.4 1475.4 1080.3 1482.1 1097.7L1531.9 1224L1641.7 1353.2C1641.7 1353.2 1633.7 1374 1621.5 1379.5C1621.5 1379.5 1489.1 1272.6 1478.2 1255.7C1461.6 1230 1386 1072.8 1386 1072.8L1371.9 1042.6L1442.7 1015.4Z" fill="#473B1E"/>
<path d="M1363.7 1014.7L1364.2 1070C1364.2 1070 1340.6 1250.7 1345.1 1261.5C1356.3 1287.7 1479.1 1376.4 1479.1 1376.4L1495.8 1347.7L1407.5 1249.2L1440.9 1153.3C1450.3 1131 1470.1 1088 1469.6 1063.8C1469.2 1043.1 1428.1 995.1 1428.1 995.1L1363.7 1014.7Z" fill="#473B1E"/>
<path d="M1416.7 1091.3C1449.2 1083.9 1475.6 1072.4 1478.3 1063.3C1479.5 1059.2 1461.4 1017.9 1448 962.8C1443.6 944.8 1444.4 927.9 1437.4 864.9C1435.9 851.5 1430.4 823.5 1409.7 816.3C1402.4 813.8 1398.4 814.1 1398.4 814.1C1398.2 814.1 1372.1 814.3 1360.1 821C1357.1 825 1346.1 847 1343.2 906.8C1341.9 932.9 1336.7 1016.8 1337.8 1030.4C1338 1032.4 1338.2 1034.4 1338.4 1036.3C1343.1 1072.3 1381.1 1099.4 1416.7 1091.3Z" fill="#B7D972"/>
<path d="M1356.3 866.9C1356.4 867 1356.4 866.9 1356.3 866.9C1369.7 865.4 1403 821.7 1403 821.7L1402.9 821.6L1382.3 789C1382.3 789 1352 794.5 1357.9 803.8C1363.8 813 1367.2 835.2 1367.2 835.2C1367.1 835.5 1367 835.8 1366.8 836.1C1364.8 840.6 1358 854 1356.3 866.9Z" fill="#F7A491"/>
<path d="M1358 803.8C1352.1 794.6 1382.4 789 1382.4 789L1384.1 791.7C1384.1 794 1383.9 796.1 1383.2 797.9C1379.9 807.1 1372 815.3 1363.9 819.2C1362.4 813.5 1360.4 807.6 1358 803.8Z" fill="#FE875E"/>
<path d="M1365.3 737.5C1366 736.9 1389 774.7 1383.4 790.3C1377.9 805.9 1359.3 818.3 1348.3 812.7C1336.1 806.6 1317.6 763.2 1328.8 744.8C1339.9 726.4 1365.3 737.5 1365.3 737.5Z" fill="#F7A491"/>
<path d="M1332 720.5C1345.5 717.6 1369.7 721.6 1383.3 731.2C1400 743 1400.6 763.9 1393.1 777.5C1385.6 791.2 1390.1 801.2 1390.1 801.2C1390.1 801.2 1366.6 799.7 1361.8 783.7C1359.8 777 1362.3 772.4 1357.8 768.6C1354.3 765.7 1351.4 757.2 1347.9 750.4C1347.9 750.4 1332.7 742.3 1326.9 749C1324.9 751.3 1314.6 724.2 1332 720.5Z" fill="#473B1E"/>
<path d="M1355.4 771.6C1357.5 776.5 1361.5 779.6 1364.3 778.4C1367.2 777.2 1367.8 772.2 1365.8 767.3C1363.7 762.4 1359.7 759.3 1356.9 760.5C1354 761.7 1353.3 766.7 1355.4 771.6Z" fill="#F7A491"/>
<path d="M1647.1 1358C1647.1 1358 1641.2 1413.1 1634.5 1417.1C1632.7 1418.2 1623.3 1419 1622.4 1423.5C1622.4 1423.6 1622.1 1428.3 1625 1428.2L1660.7 1428.1C1660.7 1428.1 1661.1 1401 1660.9 1390.4C1660.9 1390.4 1665.8 1363.3 1664.2 1361.3C1662.7 1359.3 1647.1 1358 1647.1 1358Z" fill="#002A24"/>
<path d="M857.7 1103.5C829.3 1044.1 821.5 955.6 852.5 885.3C904.6 766.7 1048.1 718.3 1037.5 583.9C1034.8 550 1019.8 522.8 997.6 505.3C939.2 459.2 845.3 483.6 778.2 515.8C735.4 536.4 695.6 565.5 658.9 603.3L640.3 366C720.8 308.9 818.2 279 915.4 271.4C1114.6 255.7 1268.4 330.5 1284 529.7C1298.3 711.4 1175.5 791.9 1093.1 882.7C1047.4 933.1 1037 972 1040.6 1016.9C1042.4 1040.2 1051.2 1068.9 1065.2 1087.2L857.7 1103.5ZM1000.7 1428.1C807.1 1443.3 784.7 1183.2 980.3 1167.9C1172.9 1152.7 1193.6 1412.9 1000.7 1428.1Z" fill="url(#paint29_linear)"/>
<path d="M1200.9 726.8C1200.5 725.2 1201.9 726.5 1199.4 713.6C1198.7 709.9 1196.4 706 1194.7 703.9C1193.8 702.8 1191.6 700.9 1190.3 700.1C1188.1 698.8 1186.4 700.9 1186.8 702.2C1187.2 703.4 1189.5 707.6 1190 708.8C1190.4 710 1190.6 713 1189.6 714C1188.6 715 1172.6 696.6 1171.6 695C1170.8 693.6 1168.9 687.7 1168.9 687.7C1168.9 687.7 1167.5 683.3 1165.8 684.5C1164.7 685.2 1163.5 688.8 1166.7 695.9C1169.5 702.1 1173.4 707 1173 707.4C1171.8 708.3 1164.9 700 1164.9 700C1164.9 700 1162.5 695.4 1160.8 693.7C1159.8 690.6 1157.9 686.8 1155.9 688.3C1155.5 688.6 1156.8 695.2 1156.8 695.2C1156.8 695.2 1159.2 699.6 1160.3 701.7C1162.1 705.5 1166.3 710.1 1167.7 712.5C1168.9 714.5 1167.7 714.1 1167.6 714.3C1167.5 714.5 1165.7 712.2 1163 708.8C1161.6 707.1 1159.7 705.5 1158.4 703.3C1157.2 701.3 1155.1 698.7 1153.9 697.2C1150.3 692.9 1148.4 695.8 1151.1 700.4C1152.1 702.1 1153.3 704 1154.5 705.9C1159.1 713.3 1164.7 719 1164.2 719.7C1163.5 720.6 1153.8 709.5 1153.8 709.5C1153.8 709.5 1147 704.9 1151 711.6C1155.7 719.4 1160.8 724.3 1161.1 724.6C1162.7 726 1167 732.6 1173.3 736.6C1179.6 740.6 1189.8 746.7 1189.8 746.7C1191 748.1 1194 752.7 1198.1 759.2L1213.4 740.8C1207.8 735 1201.2 728 1200.9 726.8Z" fill="#F8A492"/>
<path d="M1188.9 752.7L1210 734.2L1282.5 805.7C1282.5 805.7 1394.7 815.5 1395 815.6L1399.5 817C1440.2 831.1 1423.5 864.3 1415.6 869.4C1397.3 881.4 1295.8 874.2 1263.3 854C1236.6 837.6 1188.9 752.7 1188.9 752.7Z" fill="url(#paint30_linear)"/>
<path d="M433.4 855.3C434.2 858.3 434.7 859.3 435.7 861.3C442.3 874.2 457.7 892.6 457.7 892.6L469.6 864C469.6 864 467.7 855 464.3 842.2C452.8 845.3 441.8 847.2 433.4 855.3Z" fill="#F8A492"/>
<path d="M501.6 830.5C501.6 830.5 435.2 861 433.1 860.4C431.7 860 405.9 813.8 405.6 770.4C405.5 750.3 425 726.2 446.8 731C457.8 733.4 457.6 736.7 473.8 761.8C490 787 501.6 830.5 501.6 830.5Z" fill="url(#paint31_linear)"/>
<path d="M558.3 1377.6C558.3 1377.6 556.7 1405.4 556.7 1405.5C556.1 1409 553.8 1417.8 553.8 1421C553.8 1433.1 607.5 1410.8 595.5 1405.4C594.4 1404.9 588.7 1401.3 588.3 1397.1C587.7 1390.8 586.3 1378 586.3 1378L558.3 1377.6Z" fill="#F7A491"/>
<path d="M595.3 1405.2C595.3 1405.2 582.7 1408.9 576.2 1409.8C569.7 1410.7 561.2 1403 556.7 1405.1C551.7 1407.4 551.9 1428.2 551.9 1428.2C551.9 1428.2 619.5 1434.1 638.5 1428C646.1 1425.5 621.1 1413.8 595.3 1405.2Z" fill="#473B1E"/>
<path d="M448.5 1377.6C448.5 1377.6 446.9 1405.4 446.9 1405.5C446.3 1409 444 1417.8 444 1421C444 1433.1 497.7 1410.8 485.7 1405.4C484.6 1404.9 477.2 1398.5 476.9 1394.4C476.3 1388.1 476.6 1378 476.6 1378L448.5 1377.6Z" fill="#F7A491"/>
<path d="M485.5 1405.2C485.5 1405.2 472.9 1408.9 466.4 1409.8C459.9 1410.7 451.4 1403 446.9 1405.1C441.9 1407.4 441.7 1428.2 441.7 1428.2C441.7 1428.2 509.6 1435.1 528.7 1428C536.1 1425.2 511.3 1413.8 485.5 1405.2Z" fill="#473B1E"/>
<path d="M464.9 870.7L512.2 800C512.4 799.4 512.8 798.1 513.5 796.2C515.9 789.2 520.8 774.6 525.2 760.1V759.9C526.6 754.8 529.4 746 532.2 737.4C535.3 727.9 539.1 716.1 539.3 714.1C539.2 713.8 539 713.1 538.7 712.3C537 707.5 534.6 696.1 533.8 691.1C533.3 687.9 532.7 680.2 536.3 680.2C541.8 680.2 539.2 687.9 541.8 692.7C542.7 689.5 544.6 683.1 545.6 676.7L546.5 661.7C546.7 660.6 545.5 652.3 549.4 652.3H549.6C553.1 652.6 553 661.4 554.5 676.3C555 674.6 555.4 672.5 555.8 670.6C555.8 669.6 556.5 665.1 557 662.7C556.3 658.5 556.7 652 560.9 652.6C563 652.9 562.8 662.1 562.8 662.1C562.8 663.4 562.7 673 562.7 674.9C563.1 671.7 564.8 657.8 568 657.8C570.7 657.8 570.9 661.5 570.9 664.5C570.9 666.2 569.2 681.2 569.1 683C570.4 680.7 571.9 667.5 573.1 667.5C578.4 667.5 576.5 686.3 574.5 691.2C574.3 691.7 574.1 692.7 573.9 693.8C573.2 697.1 572.1 702.7 569.4 707.8C566.1 713.8 561.5 723.4 560.8 724.9C560.3 727.9 558.7 738.7 556.7 752.2C555.8 758 554.9 764.4 553.9 770.9H553.8C553.6 772.3 552.6 776.9 548.9 793.8C543.8 817.1 543.3 818.1 543 818.5C540.8 822.7 489.8 896.6 487.6 899.7L486.3 901.6L464.9 870.7Z" fill="#F7A491"/>
<path d="M552.8 705.9C552.8 705.9 549 695.4 542.1 695.4C542.1 695.4 545.9 693.9 549.2 696.7C552.5 699.4 552.8 705.9 552.8 705.9Z" fill="#F47458"/>
<path d="M453.4 685.6L447.3 726.7C447.3 726.7 470.5 746.6 484 742.4C495.3 738.9 487.6 723.1 487.6 723.1C487.6 723.1 481.6 701.2 483.4 689.7C485.3 678.1 453.4 685.6 453.4 685.6Z" fill="#F7A491"/>
<path d="M457.8 698.1C463.6 701 475.1 705 484 706C483.1 700.3 482.7 694.2 483.4 689.7C484.3 684.4 477.9 683.1 470.9 683.3C461.7 684.1 453.4 685.7 453.4 685.7L452.2 693.6C454 695.5 455.9 697.1 457.8 698.1Z" fill="#FE875E"/>
<path d="M424.2 638.3C423.2 638.3 433.4 684.2 449 692.1C464.7 700 488 695.9 492.4 683.5C497.2 669.8 479.6 623 457.5 617.1C435.5 611.1 424.2 638.3 424.2 638.3Z" fill="#F7A491"/>
<path d="M442.3 596.1C429.8 603.8 424 615.2 422.1 619.9C416.2 622.9 409.1 629.3 405.7 646.6C401.5 667.9 416.4 684.4 432.2 689.3C448 694.2 450.7 705.4 450.7 705.4L452.3 693.4C452.3 693.4 448.8 682.9 443.5 677.7C438.2 672.5 446 664.8 446.7 658.6C447.2 653.8 443.9 644.5 444.6 636.6C444.6 636.6 453.4 622.4 462 618.9C476.8 613 458.4 586.2 442.3 596.1Z" fill="#002A24"/>
<path d="M449 666.6C451 671.9 450.2 677.2 447.1 678.4C444 679.6 439.9 676.3 437.8 671C435.8 665.7 436.6 660.4 439.7 659.2C442.8 658 446.9 661.3 449 666.6Z" fill="#F7A491"/>
<path d="M507.3 871.9L598.5 856C598.5 856 588.1 828.1 584.4 828.1C580.7 828.1 515.4 858.5 515.4 858.5L510.2 869.6L507.3 871.9Z" fill="#F8A492"/>
<path d="M460.6 938.6C460.6 938.6 451.5 985.5 455.2 1021.1C458.9 1056.7 459.2 1183.1 459.2 1183.1L445.1 1385.4L478.7 1386.2C478.7 1386.2 518.5 1184 517.8 1189.2C517.1 1194.4 531.1 1046.8 531.1 1046.8L483.6 934.1L460.6 938.6Z" fill="url(#paint32_linear)"/>
<path d="M469.5 936.4C469.5 936.4 463.6 978.7 471 997.2C478.4 1015.7 534.6 1197.6 535.3 1212.5C536 1227.3 554.7 1391.3 554.7 1391.3L593.7 1390.1L602.1 1207.9L584.4 978.8L567.2 920.9L469.5 936.4Z" fill="url(#paint33_linear)"/>
<path d="M447.4 726.7C447.4 726.7 457 733.4 466 732.7C475 731.9 487.7 723.1 487.7 723.1L485.9 716.7C485.9 716.7 462.7 713.1 462.1 713.5C461.5 713.8 447.4 726.7 447.4 726.7Z" fill="#F7A491"/>
<path d="M549.9 826.8C549.9 826.8 584.4 861.5 600 855.6C615.6 849.7 622 829.4 584 799.7C550 773.1 549.9 826.8 549.9 826.8Z" fill="#F8A492"/>
<path d="M573.3 869.7C568.2 839.9 531 747.3 528.1 730.3C526.7 722 506.6 721.8 487.5 722.9C467.3 724 447.3 726.8 447.3 726.8C447.3 726.8 429.5 729.9 421.6 737.8C413.7 745.7 411.7 767.4 422.9 808.6C431.8 841.1 442.9 859 448.3 882.7C449.4 890.6 450.4 898.5 451.6 907.7C453.6 943.1 451.6 990 451.6 990C451.6 990 548.7 1011.5 585.1 978.9C585.2 978.7 578.6 900.1 573.3 869.7Z" fill="url(#paint34_linear)"/>
<path d="M598.1 805.7C598.1 805.7 560 839.3 557.8 839.3C556.4 839.3 503.4 797.7 491.2 763.6C484.4 744.7 498.6 723.6 514.8 723.7C526 723.7 531 726.8 553.3 746.9C575.6 767 598.1 805.7 598.1 805.7Z" fill="url(#paint35_linear)"/>
<path d="M1180.3 140L1097.7 195.9C1089.3 201.6 1077.9 199.4 1072.2 191L1016.3 108.4C1010.6 100 1012.8 88.6 1021.2 82.9L1103.8 27C1112.2 21.3 1123.6 23.5 1129.3 31.9L1185.2 114.5C1190.9 122.9 1188.7 134.3 1180.3 140Z" fill="#B7D972"/>
<path d="M1138.8 81.4001C1153.3 102.8 1147.7 131.9 1126.3 146.3C1104.9 160.8 1075.8 155.2 1061.4 133.8C1046.9 112.4 1052.5 83.3001 1073.9 68.9001C1095.2 54.4001 1124.3 60.0001 1138.8 81.4001Z" fill="white"/>
<path d="M1084.7 88.3L1103.9 109.2C1105.3 110.7 1105.2 113.1 1103.7 114.5C1102.2 115.9 1099.8 115.8 1098.4 114.3C1098.2 114.1 1098 113.8 1097.8 113.5L1084.7 88.3Z" fill="#B7D972"/>
<path d="M1099.3 109.4L1128.2 93.2001L1103 114.7C1101.6 115.9 1099.6 115.7 1098.4 114.3C1097.2 112.9 1097.4 110.9 1098.8 109.7C1098.9 109.7 1099.1 109.5 1099.3 109.4Z" fill="#B7D972"/>
<path d="M365.7 592.6H198.3C168.1 592.6 143.7 568.1 143.7 538V503.3C143.7 473.1 168.2 448.7 198.3 448.7H365.7C395.9 448.7 420.3 473.2 420.3 503.3V538C420.3 568.2 395.9 592.6 365.7 592.6Z" fill="#B7D972"/>
<path d="M387.5 538.3L455.6 568.8L410 505L387.5 538.3Z" fill="#B7D972"/>
<path d="M235.8 516C235.8 521.9 230.5 526.6 223.9 526.6C217.3 526.6 212 521.9 212 516C212 510.1 217.3 505.4 223.9 505.4C230.5 505.4 235.8 510.2 235.8 516Z" fill="white"/>
<path d="M291.3 516C291.3 521.9 286 526.6 279.4 526.6C272.8 526.6 267.5 521.9 267.5 516C267.5 510.1 272.8 505.4 279.4 505.4C286 505.4 291.3 510.2 291.3 516Z" fill="white"/>
<path d="M346.9 516C346.9 521.9 341.6 526.6 335 526.6C328.4 526.6 323.1 521.9 323.1 516C323.1 510.1 328.4 505.4 335 505.4C341.5 505.4 346.9 510.2 346.9 516Z" fill="white"/>
<path d="M989.8 29.2L978.6 5.20004L987.9 0.900024L994.3 14.4L1009.8 5.00003L1015.2 13.9L989.8 29.2Z" fill="url(#paint36_linear)"/>
<path d="M354.3 373.5L329.4 382.4L325.9 372.7L340 367.7L332.2 351.3L341.5 346.8L354.3 373.5Z" fill="url(#paint37_linear)"/>
<path d="M1386.3 132.4C1388.2 138.3 1390 144.2 1391.8 150.1C1393.2 154.7 1394.3 162.2 1398.8 164.8C1399.9 165.4 1401.8 165.2 1402.3 163.9C1404.5 159 1401.3 152.7 1399.8 147.9C1397.9 142 1396 136.1 1394.2 130.2C1392.6 125.2 1384.7 127.3 1386.3 132.4Z" fill="#B7D972"/>
<path d="M1448.7 126C1439.1 158.6 1439.1 157.6 1439.8 160.9C1440.4 163.5 1443.9 164.3 1445.7 162.4C1447.9 160.1 1447.4 160.8 1456.6 128.1C1457.9 123.1 1450.2 121 1448.7 126Z" fill="#B7D972"/>
<path d="M1485.1 198.6C1490.7 195.9 1496.4 193.2 1502 190.5C1507 188.1 1513.5 186.2 1516.9 181.6C1518.4 179.6 1516.3 177 1514.2 176.9C1508.6 176.7 1502.7 181 1497.9 183.4C1492.3 186.1 1486.7 188.8 1481.1 191.6C1476.3 193.8 1480.4 200.8 1485.1 198.6Z" fill="#B7D972"/>
<path d="M1466.7 296.5C1472.5 303.9 1478.3 311.6 1484.8 318.4C1488.3 322.1 1493.4 316.7 1490.3 312.9C1484.2 305.6 1478 298.5 1472.2 291.1C1469.1 287.2 1463.7 292.6 1466.7 296.5Z" fill="#B7D972"/>
<path d="M1487.9 258.5C1493.1 260.8 1498.4 262.9 1503.7 265C1508.5 266.9 1514.3 270.3 1519.5 269.5C1522.3 269.1 1522.6 265.4 1521 263.7C1519 261.5 1518 261.7 1506.5 257.3C1501.3 255.3 1496.2 253.2 1490.9 251.2C1486.8 249.6 1483.8 256.7 1487.9 258.5Z" fill="#B7D972"/>
<defs>
<linearGradient id="paint0_linear" x1="0.290504" y1="1434.16" x2="1866.08" y2="1434.16" gradientUnits="userSpaceOnUse">
<stop stop-color="#53CD9F"/>
<stop offset="1" stop-color="#0D7A5C"/>
</linearGradient>
<linearGradient id="paint1_linear" x1="659.515" y1="-21.6088" x2="647.133" y2="227.409" gradientUnits="userSpaceOnUse">
<stop stop-color="#53CD9F"/>
<stop offset="1" stop-color="#0D7A5C"/>
</linearGradient>
<linearGradient id="paint2_linear" x1="659.515" y1="-21.6089" x2="647.133" y2="227.41" gradientUnits="userSpaceOnUse">
<stop stop-color="#53CD9F"/>
<stop offset="1" stop-color="#0D7A5C"/>
</linearGradient>
<linearGradient id="paint3_linear" x1="573.52" y1="196.231" x2="593.993" y2="196.231" gradientUnits="userSpaceOnUse">
<stop stop-color="#53CD9F"/>
<stop offset="1" stop-color="#0D7A5C"/>
</linearGradient>
<linearGradient id="paint4_linear" x1="671.26" y1="234.76" x2="684.509" y2="234.76" gradientUnits="userSpaceOnUse">
<stop stop-color="#53CD9F"/>
<stop offset="1" stop-color="#0D7A5C"/>
</linearGradient>
<linearGradient id="paint5_linear" x1="706.178" y1="140.632" x2="726.651" y2="140.632" gradientUnits="userSpaceOnUse">
<stop stop-color="#53CD9F"/>
<stop offset="1" stop-color="#0D7A5C"/>
</linearGradient>
<linearGradient id="paint6_linear" x1="615.662" y1="102.102" x2="628.91" y2="102.102" gradientUnits="userSpaceOnUse">
<stop stop-color="#53CD9F"/>
<stop offset="1" stop-color="#0D7A5C"/>
</linearGradient>
<linearGradient id="paint7_linear" x1="646.066" y1="51.2678" x2="669.965" y2="51.2678" gradientUnits="userSpaceOnUse">
<stop stop-color="#53CD9F"/>
<stop offset="1" stop-color="#0D7A5C"/>
</linearGradient>
<linearGradient id="paint8_linear" x1="547.815" y1="91.9077" x2="576.317" y2="91.9077" gradientUnits="userSpaceOnUse">
<stop stop-color="#53CD9F"/>
<stop offset="1" stop-color="#0D7A5C"/>
</linearGradient>
<linearGradient id="paint9_linear" x1="587.307" y1="50.6671" x2="617.701" y2="50.6671" gradientUnits="userSpaceOnUse">
<stop stop-color="#53CD9F"/>
<stop offset="1" stop-color="#0D7A5C"/>
</linearGradient>
<linearGradient id="paint10_linear" x1="567.684" y1="41.3713" x2="629.534" y2="41.3713" gradientUnits="userSpaceOnUse">
<stop stop-color="#53CD9F"/>
<stop offset="1" stop-color="#0D7A5C"/>
</linearGradient>
<linearGradient id="paint11_linear" x1="600.053" y1="66.4145" x2="618.234" y2="66.4145" gradientUnits="userSpaceOnUse">
<stop stop-color="#53CD9F"/>
<stop offset="1" stop-color="#0D7A5C"/>
</linearGradient>
<linearGradient id="paint12_linear" x1="642.747" y1="168.282" x2="657.405" y2="168.282" gradientUnits="userSpaceOnUse">
<stop stop-color="#53CD9F"/>
<stop offset="1" stop-color="#0D7A5C"/>
</linearGradient>
<linearGradient id="paint13_linear" x1="647.137" y1="139.744" x2="657.872" y2="139.744" gradientUnits="userSpaceOnUse">
<stop stop-color="#53CD9F"/>
<stop offset="1" stop-color="#0D7A5C"/>
</linearGradient>
<linearGradient id="paint14_linear" x1="647.499" y1="181.908" x2="703.026" y2="181.908" gradientUnits="userSpaceOnUse">
<stop stop-color="#53CD9F"/>
<stop offset="1" stop-color="#0D7A5C"/>
</linearGradient>
<linearGradient id="paint15_linear" x1="647.081" y1="168.282" x2="653.071" y2="168.282" gradientUnits="userSpaceOnUse">
<stop stop-color="#53CD9F"/>
<stop offset="1" stop-color="#0D7A5C"/>
</linearGradient>
<linearGradient id="paint16_linear" x1="1502.19" y1="346.137" x2="1385.25" y2="796.022" gradientUnits="userSpaceOnUse">
<stop stop-color="#FB9A2B"/>
<stop offset="1" stop-color="#E65925"/>
</linearGradient>
<linearGradient id="paint17_linear" x1="1627.81" y1="378.791" x2="1510.87" y2="828.676" gradientUnits="userSpaceOnUse">
<stop stop-color="#FB9A2B"/>
<stop offset="1" stop-color="#E65925"/>
</linearGradient>
<linearGradient id="paint18_linear" x1="384.48" y1="-0.290098" x2="442.263" y2="517.009" gradientUnits="userSpaceOnUse">
<stop stop-color="#53CD9F"/>
<stop offset="1" stop-color="#0D7A5C"/>
</linearGradient>
<linearGradient id="paint19_linear" x1="399.57" y1="-1.97611" x2="457.353" y2="515.323" gradientUnits="userSpaceOnUse">
<stop stop-color="#53CD9F"/>
<stop offset="1" stop-color="#0D7A5C"/>
</linearGradient>
<linearGradient id="paint20_linear" x1="1394.14" y1="-113.073" x2="1451.93" y2="404.227" gradientUnits="userSpaceOnUse">
<stop stop-color="#53CD9F"/>
<stop offset="1" stop-color="#0D7A5C"/>
</linearGradient>
<linearGradient id="paint21_linear" x1="841.777" y1="-84.234" x2="979.357" y2="611.92" gradientUnits="userSpaceOnUse">
<stop stop-color="#FB9A2B"/>
<stop offset="1" stop-color="#E65925"/>
</linearGradient>
<linearGradient id="paint22_linear" x1="1279.12" y1="-170.665" x2="1416.7" y2="525.487" gradientUnits="userSpaceOnUse">
<stop stop-color="#FB9A2B"/>
<stop offset="1" stop-color="#E65925"/>
</linearGradient>
<linearGradient id="paint23_linear" x1="1197.45" y1="-154.525" x2="1335.03" y2="541.629" gradientUnits="userSpaceOnUse">
<stop stop-color="#FB9A2B"/>
<stop offset="1" stop-color="#E65925"/>
</linearGradient>
<linearGradient id="paint24_linear" x1="192.059" y1="796.666" x2="210.862" y2="1008.54" gradientUnits="userSpaceOnUse">
<stop stop-color="#C9CD55"/>
<stop offset="0.5065" stop-color="#659C52"/>
<stop offset="1" stop-color="#287F50"/>
</linearGradient>
<linearGradient id="paint25_linear" x1="148.965" y1="1419.31" x2="177.853" y2="1419.31" gradientUnits="userSpaceOnUse">
<stop stop-color="#FB9A2B"/>
<stop offset="1" stop-color="#E65925"/>
</linearGradient>
<linearGradient id="paint26_linear" x1="272.704" y1="1416.02" x2="342.251" y2="1416.02" gradientUnits="userSpaceOnUse">
<stop stop-color="#FB9A2B"/>
<stop offset="1" stop-color="#E65925"/>
</linearGradient>
<linearGradient id="paint27_linear" x1="259.193" y1="790.708" x2="277.996" y2="1002.58" gradientUnits="userSpaceOnUse">
<stop stop-color="#C9CD55"/>
<stop offset="0.5065" stop-color="#659C52"/>
<stop offset="1" stop-color="#287F50"/>
</linearGradient>
<linearGradient id="paint28_linear" x1="1225.66" y1="1029.82" x2="1356.82" y2="648.266" gradientUnits="userSpaceOnUse">
<stop stop-color="#C9CD55"/>
<stop offset="0.5065" stop-color="#659C52"/>
<stop offset="1" stop-color="#287F50"/>
</linearGradient>
<linearGradient id="paint29_linear" x1="640.264" y1="849.056" x2="1285.1" y2="849.056" gradientUnits="userSpaceOnUse">
<stop stop-color="#53CD9F"/>
<stop offset="1" stop-color="#0D7A5C"/>
</linearGradient>
<linearGradient id="paint30_linear" x1="1285.6" y1="736.044" x2="1392.91" y2="1038.72" gradientUnits="userSpaceOnUse">
<stop stop-color="#C9CD55"/>
<stop offset="0.5065" stop-color="#659C52"/>
<stop offset="1" stop-color="#287F50"/>
</linearGradient>
<linearGradient id="paint31_linear" x1="365.03" y1="930.576" x2="419.145" y2="847.57" gradientUnits="userSpaceOnUse">
<stop stop-color="#C9CD55"/>
<stop offset="0.5065" stop-color="#659C52"/>
<stop offset="1" stop-color="#287F50"/>
</linearGradient>
<linearGradient id="paint32_linear" x1="562.789" y1="1004.91" x2="411.452" y2="1260.81" gradientUnits="userSpaceOnUse">
<stop stop-color="#00503E"/>
<stop offset="1" stop-color="#023222"/>
</linearGradient>
<linearGradient id="paint33_linear" x1="609.082" y1="1032.29" x2="457.745" y2="1288.19" gradientUnits="userSpaceOnUse">
<stop stop-color="#00503E"/>
<stop offset="1" stop-color="#023222"/>
</linearGradient>
<linearGradient id="paint34_linear" x1="573.405" y1="682.248" x2="476.411" y2="923.701" gradientUnits="userSpaceOnUse">
<stop stop-color="#C9CD55"/>
<stop offset="0.5065" stop-color="#659C52"/>
<stop offset="1" stop-color="#287F50"/>
</linearGradient>
<linearGradient id="paint35_linear" x1="685.901" y1="1013.96" x2="604.041" y2="881.879" gradientUnits="userSpaceOnUse">
<stop stop-color="#C9CD55"/>
<stop offset="0.5065" stop-color="#659C52"/>
<stop offset="1" stop-color="#287F50"/>
</linearGradient>
<linearGradient id="paint36_linear" x1="988.252" y1="-67.7329" x2="1046.04" y2="449.565" gradientUnits="userSpaceOnUse">
<stop stop-color="#53CD9F"/>
<stop offset="1" stop-color="#0D7A5C"/>
</linearGradient>
<linearGradient id="paint37_linear" x1="271.981" y1="28.3731" x2="409.56" y2="724.526" gradientUnits="userSpaceOnUse">
<stop stop-color="#FB9A2B"/>
<stop offset="1" stop-color="#E65925"/>
</linearGradient>
</defs>
</svg>
