<svg width="284" height="77" viewBox="0 0 284 77" fill="none" xmlns="http://www.w3.org/2000/svg">
<path d="M41.3313 0.553711L81.9534 29.8318L66.2903 77L15.9873 76.8752L0.562073 29.629L41.3313 0.553711Z" fill="url(#paint0_linear)"/>
<path fill-rule="evenodd" clip-rule="evenodd" d="M51.704 35.855C53.7435 35.855 55.3963 37.4915 55.3963 39.5101C55.3963 41.5303 53.7435 43.1667 51.704 43.1667C49.6645 43.1667 48.0101 41.5303 48.0101 39.5101C48.0101 37.4915 49.6645 35.855 51.704 35.855Z" fill="white"/>
<path d="M35.5071 24.0598H40.0212V51.4035H55.1851V55.16H35.5071V24.0598Z" fill="white"/>
<path d="M128.287 55.16L128.24 35.504L118.567 51.6968H115.139L105.513 35.9252V55.16H98.3757V22.4H104.668L116.97 42.758L129.085 22.4H135.33L135.424 55.16H128.287ZM167.452 42.6644C167.452 42.758 167.405 43.4132 167.311 44.63H148.2C148.544 46.19 149.358 47.4224 150.642 48.3272C151.925 49.232 153.522 49.6844 155.431 49.6844C156.746 49.6844 157.904 49.4972 158.906 49.1228C159.939 48.7172 160.894 48.0932 161.77 47.2508L165.667 51.4628C163.288 54.1772 159.814 55.5344 155.244 55.5344C152.395 55.5344 149.875 54.9884 147.684 53.8964C145.492 52.7732 143.802 51.2288 142.612 49.2632C141.423 47.2976 140.828 45.0668 140.828 42.5708C140.828 40.106 141.407 37.8908 142.565 35.9252C143.755 33.9284 145.367 32.384 147.402 31.292C149.468 30.1688 151.769 29.6072 154.304 29.6072C156.777 29.6072 159.015 30.1376 161.019 31.1984C163.022 32.2592 164.587 33.788 165.714 35.7848C166.873 37.7504 167.452 40.0436 167.452 42.6644ZM154.351 35.1296C152.692 35.1296 151.299 35.5976 150.172 36.5336C149.045 37.4696 148.357 38.7488 148.106 40.3712H160.549C160.299 38.78 159.61 37.5164 158.483 36.5804C157.356 35.6132 155.979 35.1296 154.351 35.1296ZM198.061 20.4344V55.16H191.065V52.2584C189.249 54.4424 186.619 55.5344 183.176 55.5344C180.797 55.5344 178.637 55.004 176.696 53.9432C174.786 52.8824 173.284 51.3692 172.188 49.4036C171.093 47.438 170.545 45.1604 170.545 42.5708C170.545 39.9812 171.093 37.7036 172.188 35.738C173.284 33.7724 174.786 32.2592 176.696 31.1984C178.637 30.1376 180.797 29.6072 183.176 29.6072C186.4 29.6072 188.92 30.6212 190.736 32.6492V20.4344H198.061ZM184.444 49.544C186.291 49.544 187.825 48.92 189.046 47.672C190.266 46.3928 190.877 44.6924 190.877 42.5708C190.877 40.4492 190.266 38.7644 189.046 37.5164C187.825 36.2372 186.291 35.5976 184.444 35.5976C182.566 35.5976 181.016 36.2372 179.795 37.5164C178.574 38.7644 177.964 40.4492 177.964 42.5708C177.964 44.6924 178.574 46.3928 179.795 47.672C181.016 48.92 182.566 49.544 184.444 49.544ZM204.842 29.9816H212.167V55.16H204.842V29.9816ZM208.504 26.4716C207.158 26.4716 206.063 26.0816 205.217 25.3016C204.372 24.5216 203.95 23.5544 203.95 22.4C203.95 21.2456 204.372 20.2784 205.217 19.4984C206.063 18.7184 207.158 18.3284 208.504 18.3284C209.85 18.3284 210.946 18.7028 211.791 19.4516C212.637 20.2004 213.059 21.1364 213.059 22.2596C213.059 23.4764 212.637 24.4904 211.791 25.3016C210.946 26.0816 209.85 26.4716 208.504 26.4716ZM231.173 55.5344C228.481 55.5344 226.055 54.9884 223.895 53.8964C221.766 52.7732 220.092 51.2288 218.871 49.2632C217.681 47.2976 217.086 45.0668 217.086 42.5708C217.086 40.0748 217.681 37.844 218.871 35.8784C220.092 33.9128 221.766 32.384 223.895 31.292C226.055 30.1688 228.481 29.6072 231.173 29.6072C233.834 29.6072 236.151 30.1688 238.123 31.292C240.126 32.384 241.582 33.9596 242.49 36.0188L236.808 39.0608C235.493 36.752 233.599 35.5976 231.126 35.5976C229.217 35.5976 227.636 36.2216 226.384 37.4696C225.132 38.7176 224.506 40.418 224.506 42.5708C224.506 44.7236 225.132 46.424 226.384 47.672C227.636 48.92 229.217 49.544 231.126 49.544C233.631 49.544 235.525 48.3896 236.808 46.0808L242.49 49.1696C241.582 51.1664 240.126 52.7264 238.123 53.8496C236.151 54.9728 233.834 55.5344 231.173 55.5344ZM256.898 29.6072C260.811 29.6072 263.816 30.5432 265.913 32.4152C268.011 34.256 269.059 37.0484 269.059 40.7924V55.16H262.204V52.0244C260.826 54.3644 258.259 55.5344 254.503 55.5344C252.562 55.5344 250.872 55.2068 249.432 54.5516C248.023 53.8964 246.943 52.9916 246.192 51.8372C245.44 50.6828 245.065 49.3724 245.065 47.906C245.065 45.566 245.941 43.7252 247.694 42.3836C249.479 41.042 252.218 40.3712 255.912 40.3712H261.734C261.734 38.78 261.249 37.5632 260.279 36.7208C259.308 35.8472 257.853 35.4104 255.912 35.4104C254.566 35.4104 253.235 35.6288 251.92 36.0656C250.637 36.4712 249.541 37.0328 248.633 37.7504L246.004 32.6492C247.381 31.682 249.025 30.9332 250.934 30.4028C252.875 29.8724 254.863 29.6072 256.898 29.6072ZM256.334 50.6204C257.586 50.6204 258.698 50.3396 259.668 49.778C260.639 49.1852 261.327 48.3272 261.734 47.204V44.63H256.71C253.705 44.63 252.202 45.6128 252.202 47.5784C252.202 48.5144 252.562 49.2632 253.282 49.8248C254.033 50.3552 255.051 50.6204 256.334 50.6204ZM275.688 20.4344H283.013V55.16H275.688V20.4344Z" fill="#263A5D"/>
<defs>
<linearGradient id="paint0_linear" x1="0.562073" y1="0.553711" x2="81.9534" y2="0.553711" gradientUnits="userSpaceOnUse">
<stop stop-color="#5E2CED"/>
<stop offset="1" stop-color="#4E62BB"/>
</linearGradient>
</defs>
</svg>
