<svg id="Capa_1" enable-background="new 0 0 512 512" height="512" viewBox="0 0 512 512" width="512" xmlns="http://www.w3.org/2000/svg"><g><g><g><circle cx="256" cy="256" fill="#ff9e22" r="256"/></g></g><path d="m325.892 110.772-18.686-15.532-17.61-7.769-11.474 14.487 45.707 45.707.188-.188-.882 17.257-88.737-88.737-43.582 31.583.361 133.095 25.602 45.798-13.973-2.233 50.24 50.24-.494 6.717-70.246 11.31-10.665 69.601 89.823 89.823c130.863-2.742 237.563-103.673 249.422-232.098l-184.219-184.219z" fill="#e17726"/><g><g><g><path d="m217.783 441.25c-33.73 2.27-61.68-25.681-59.411-59.411 1.975-29.354 26.944-51.874 56.364-51.874h27.92v-37.81h27v37.81h75.306v27h-75.306v27.92c.001 29.421-22.519 54.39-51.873 56.365zm-3.833-84.284c-16.441 0-29.698 13.892-28.649 30.554.899 14.281 12.521 25.903 26.802 26.802 16.662 1.049 30.554-12.208 30.554-28.649v-28.707z" fill="#7a3eb4"/></g><path d="m269.657 292.156h-13.5v129.812c8.403-9.758 13.5-22.438 13.5-36.295v-28.707h75.306v-27h-75.306z" fill="#613393"/><g><g><circle cx="363.594" cy="342.914" fill="#2681ff" r="37.347"/></g><g><circle cx="363.594" cy="342.914" fill="#005fe0" r="25.237"/></g></g><g><path d="m256.157 305.656c-42.581 0-77.224-34.643-77.224-77.224h27c0 27.694 22.53 50.224 50.224 50.224s50.224-22.53 50.224-50.224h27c0 42.581-34.643 77.224-77.224 77.224z" fill="#a160e4"/></g><path d="m256.157 278.656v27c42.581 0 77.224-34.643 77.224-77.224h-27c0 27.693-22.53 50.223-50.224 50.224z" fill="#7a3eb4"/></g></g><g><path d="m326.667 228.432h-15v-123.192l-22.253-10.2 6.25-13.636 31.003 14.21z" fill="#d6e9f8"/></g><g><path d="m199.628 228.432h-15v-132.818l31.003-14.21 6.25 13.636-22.253 10.2z" fill="#eef4ff"/></g><g><circle cx="291.102" cy="88.978" fill="#464646" r="18.357"/></g><circle cx="221.418" cy="88.978" fill="#5a5a5a" r="18.357"/></g></svg>