<svg id="Capa_1" enable-background="new 0 0 512 512" height="512" viewBox="0 0 512 512" width="512" xmlns="http://www.w3.org/2000/svg"><g><g><circle cx="256" cy="256" fill="#ffe377" r="256"/></g><path d="m299.713 508.267c113.477-19.525 201.394-113.742 211.332-230.22l-62.59-62.59-12.878 12.878-46.464-46.464-7.208 7.208v41.556l-129.914-129.914-17.047 16.988-29.358-29.358-16.863 42.077-29.622-29.622-19.365 19.365 24.457 24.457-14.663 14.663-24.458-24.455-19.365 19.365 29.622 29.622-42.075 16.862 29.164 29.164-17.047 16.988 137.122 137.123-46.588 3.107 26.297 26.297-8.696 8.696z" fill="#edbe00"/><g><g><g><g><g><g><g><path d="m187.937 98.032h15.937v185.943h-15.937z" fill="#2681ff"/></g></g></g><g><g><g><g><path d="m164.558 104.297h15.937v92.426h-15.937z" fill="#2681ff" transform="matrix(.866 -.5 .5 .866 -52.141 106.428)"/></g></g></g><g><path d="m211.043 184.267h15.937v93.516h-15.937z" fill="#005fe0" transform="matrix(.866 -.5 .5 .866 -86.171 140.457)"/></g></g><g><g><g><g><path d="m147.443 121.411h15.937v92.426h-15.937z" fill="#2681ff" transform="matrix(.5 -.866 .866 .5 -67.461 218.403)"/></g></g></g><g><path d="m227.958 167.352h15.937v93.516h-15.937z" fill="#005fe0" transform="matrix(.5 -.866 .866 .5 -67.462 311.373)"/></g></g><g><g><g><g><path d="m102.934 183.035h92.426v15.937h-92.426z" fill="#2681ff"/></g></g></g><g><path d="m195.36 183.035h93.516v15.937h-93.516z" fill="#005fe0"/></g></g><g><g><g><g><path d="m126.313 223.529h92.426v15.937h-92.426z" fill="#2681ff" transform="matrix(.5 -.866 .866 .5 -114.22 265.161)"/></g></g></g><g><path d="m172.253 143.013h93.516v15.937h-93.516z" fill="#005fe0" transform="matrix(.5 -.866 .866 .5 -21.248 265.16)"/></g></g><g><g><g><g><path d="m109.198 206.414h92.426v15.937h-92.426z" fill="#2681ff" transform="matrix(.866 -.5 .5 .866 -86.37 106.428)"/></g></g></g><g><path d="m189.169 159.928h93.516v15.937h-93.516z" fill="#005fe0" transform="matrix(.866 -.5 .5 .866 -52.34 140.457)"/></g></g><g><g><g><path d="m195.905 98.032h7.968v185.943h-7.968z" fill="#005fe0"/></g></g></g></g><circle cx="242.391" cy="271.519" fill="#00baa0" r="13.691"/><path d="m260.522 191.003-64.617 64.617c-35.687 0-64.617-28.93-64.617-64.617s28.93-64.617 64.617-64.617z" fill="#2681ff"/><circle cx="195.905" cy="98.032" fill="#00ddc1" r="13.691"/><circle cx="195.905" cy="283.975" fill="#00ddc1" r="13.691"/><g><circle cx="102.933" cy="191.003" fill="#00ddc1" r="13.691"/><circle cx="288.876" cy="191.003" fill="#00baa0" r="13.691"/></g><g><circle cx="276.42" cy="144.518" fill="#00baa0" r="13.691"/><circle cx="115.389" cy="237.489" fill="#00ddc1" r="13.691"/></g><circle cx="149.419" cy="110.488" fill="#00ddc1" r="13.691"/><g><circle cx="242.39" cy="110.488" fill="#00baa0" r="13.691"/><circle cx="149.419" cy="271.519" fill="#00ddc1" r="13.691"/></g><g><circle cx="115.389" cy="144.518" fill="#00ddc1" r="13.691"/><circle cx="276.42" cy="237.489" fill="#00baa0" r="13.691"/></g><path d="m209.596 98.032c0 7.561-6.13 13.691-13.691 13.691v-27.382c7.561 0 13.691 6.129 13.691 13.691z" fill="#00baa0"/><path d="m209.596 283.975c0 7.561-6.13 13.691-13.691 13.691v-27.383c7.561.001 13.691 6.13 13.691 13.692z" fill="#00baa0"/><path d="m260.522 191.003c0 35.687-28.93 64.617-64.617 64.617v-129.234c35.687 0 64.617 28.93 64.617 64.617z" fill="#005fe0"/><circle cx="169.918" cy="159.882" fill="#00ddc1" r="9.901"/><circle cx="220.745" cy="207.304" fill="#00baa0" r="13.476"/><circle cx="224.321" cy="169.783" fill="#00baa0" r="9.901"/><g fill="#00ddc1"><circle cx="169.918" cy="223.796" r="9.901"/><circle cx="182.819" cy="189.083" r="6.576"/></g></g><g><g><g><path d="m376.961 232.52h69.236v15.937h-69.236z" fill="#00baa0" transform="matrix(.857 -.515 .515 .857 -65.074 246.335)"/></g></g><path d="m383.558 215.754h-26.228l-24.575 42.565 24.575 42.565h24.575l49.15-42.565z" fill="#00ddc1"/><g><g><g><path d="m373.937 189.083h15.937v138.472h-15.937z" fill="#00ddc1"/></g></g></g><g><circle cx="381.905" cy="189.083" fill="#005fe0" r="10.196"/></g><g><g><g><path d="m343.957 206.392h15.937v69.236h-15.937z" fill="#00ddc1" transform="matrix(.5 -.866 .866 .5 -32.758 425.281)"/></g></g></g><circle cx="321.945" cy="223.701" fill="#7a3eb4" r="10.196"/><g><g><path d="m403.917 241.01h15.937v69.236h-15.937z" fill="#00baa0" transform="matrix(.5 -.866 .866 .5 -32.755 494.523)"/></g></g><g><g><g><path d="m317.614 268.18h69.236v15.937h-69.236z" fill="#00ddc1" transform="matrix(.857 -.515 .515 .857 -91.917 220.856)"/></g></g></g><path d="m406.48 215.754h-24.575v85.13h24.575l24.575-42.565z" fill="#00baa0"/><g><g><g><path d="m381.905 189.083h7.968v138.472h-7.968z" fill="#00baa0"/></g></g></g><g><circle cx="441.252" cy="222.66" fill="#613393" r="10.196"/><circle cx="322.558" cy="293.977" fill="#7a3eb4" r="10.196"/></g><g><g><circle cx="381.905" cy="189.083" fill="#7a3eb4" r="10.196"/></g><g><path d="m392.101 189.083c0 5.631-4.565 10.196-10.196 10.196v-20.392c5.631 0 10.196 4.565 10.196 10.196z" fill="#613393"/></g></g><g><g><circle cx="381.905" cy="327.555" fill="#7a3eb4" r="10.196"/></g><g><path d="m392.101 327.555c0 5.631-4.565 10.196-10.196 10.196v-20.392c5.631 0 10.196 4.565 10.196 10.196z" fill="#613393"/></g></g><circle cx="441.866" cy="292.936" fill="#613393" r="10.196"/></g><g><path d="m316.095 387.067v-15h-23.951c-.882-4.679-2.649-9.043-5.122-12.916l16.774-16.774-10.606-10.607-16.633 16.633c-3.888-2.624-8.305-4.524-13.058-5.508v-23.423h-15v23.423c-4.752.984-9.169 2.884-13.058 5.508l-16.631-16.633-10.606 10.607 16.774 16.774c-2.473 3.873-4.24 8.237-5.122 12.916h-23.951v15h24.221c1.019 4.504 2.854 8.699 5.358 12.408l-17.281 17.281 10.606 10.607 17.423-17.423c3.694 2.359 7.832 4.083 12.267 5.001v24.72h15v-24.72c4.435-.919 8.573-2.643 12.267-5.001l17.423 17.423 10.606-10.607-17.281-17.281c2.504-3.71 4.339-7.904 5.358-12.408z" fill="#7a3eb4"/><path d="m287.023 359.151 16.774-16.774-10.607-10.607-16.633 16.633c-3.888-2.624-8.305-4.524-13.058-5.508v-23.423h-7.499v120.19h7.5v-24.72c4.435-.919 8.573-2.643 12.267-5.001l17.423 17.423 10.606-10.607-17.281-17.281c2.504-3.71 4.339-7.904 5.358-12.408h24.221v-15h-23.951c-.88-4.68-2.647-9.044-5.12-12.917z" fill="#613393"/><circle cx="238.598" cy="371.791" fill="#00ddc1" r="9.901"/><circle cx="264.975" cy="360.039" fill="#00baa0" r="6.576"/></g></g><circle cx="271.551" cy="388.523" fill="#00baa0" r="8.956"/></g></g></svg>