<svg width="93" height="27" viewBox="0 0 93 27" fill="none" xmlns="http://www.w3.org/2000/svg">
<path d="M1.91602 25.3651H90.8788C90.8788 25.3651 82.1348 7.63149 57.573 13.6246C57.573 13.6246 22.6462 -20.2216 1.91602 25.3651Z" fill="#FFF7DD"/>
<path d="M92.8436 26.5932H0L0.785966 24.8739C7.17203 10.8246 15.6213 2.71917 25.839 0.754226C41.1164 -2.14407 55.1167 9.69472 57.9658 12.2983C70.738 9.35085 79.2364 12.7895 84.1979 16.2773C89.6506 20.1089 91.9594 24.6774 92.0085 24.8739L92.8436 26.5932ZM3.83166 24.137H88.7172C85.8189 19.9615 76.7802 10.1859 57.8676 14.8036L57.229 14.951L56.7378 14.4597C56.5904 14.3124 41.7551 0.164707 26.2811 3.11212C17.2915 4.88057 9.77562 11.9053 3.83166 24.137Z" fill="#25383F"/>
</svg>
