<svg width="515" height="329" viewBox="0 0 515 329" fill="none" xmlns="http://www.w3.org/2000/svg">
<path d="M263.163 109.926C263.163 109.926 256.777 139.4 330.462 132.032L328.006 119.26L281.339 103.54L263.163 109.926Z" fill="#25383F"/>
<path d="M131.511 113.856C131.511 113.856 128.416 143.183 192.621 129.772L194.389 122.698L147.722 105.014L131.511 113.856Z" fill="#F2D696"/>
<path d="M205.347 67.1406L215.319 51.3228C215.319 51.3228 227.895 61.0984 232.267 31.8698L209.768 26.0241L203.775 41.4489L191.003 56.9229L205.347 67.1406Z" fill="white"/>
<path d="M205.689 68.908L189.232 57.1675L202.741 40.8585L209.029 24.5986L233.689 30.9846L233.542 32.0653C231.724 44.248 228.187 51.4691 223.079 53.5323C220.033 54.7604 217.233 53.778 215.759 52.992L205.689 68.908ZM192.818 56.6762L205.001 65.3712L215.022 49.5042L216.103 50.3393C216.201 50.4375 219.001 52.5008 222.194 51.2235C225.044 50.0937 228.777 45.9182 230.938 32.7531L210.552 27.4477L204.903 42.0374L192.818 56.6762Z" fill="#25383F"/>
<path d="M217.282 34.6689C217.282 34.6689 217.675 30.0512 214.04 30.9355C212.468 31.3285 210.699 33.9811 213.401 37.3215C213.401 37.3215 210.11 43.8059 203.576 40.5146C203.576 40.5146 200.727 27.8898 208.931 20.7178C208.931 20.7178 196.65 16.6897 200.973 5.98072C202.299 2.73856 207.605 -1.58434 214.285 1.90343C217.577 3.62276 222.391 8.82985 217.724 16.444C217.724 16.444 235.752 17.2792 233.051 34.9145C233.001 34.9145 224.012 38.5988 217.282 34.6689Z" fill="#25383F"/>
<path d="M349.375 60.6553L362.442 41.2515L374.232 24.9916L391.229 35.3075C391.229 35.3075 387.545 66.3046 372.955 55.7921L365.144 70.7256L349.375 60.6553Z" fill="white"/>
<path d="M365.537 72.445L347.607 61.0483L361.362 40.5638L373.839 23.3705L392.457 34.669L392.359 35.4549C392.26 36.2409 389.952 54.8588 381.601 58.543C379.046 59.6729 376.295 59.329 373.348 57.5606L365.537 72.445ZM351.095 60.3115L364.653 68.9572L372.513 53.9745L373.642 54.8096C376.295 56.7255 378.604 57.2167 380.667 56.3325C386.267 53.8763 389.116 41.4971 389.902 35.9953L374.576 26.7109L363.474 42.0375L351.095 60.3115Z" fill="#25383F"/>
<path d="M398.548 38.2058C400.956 35.0619 395.355 31.8198 395.355 31.8198C397.271 32.2619 398.303 31.5251 398.548 30.7391C400.12 26.0232 390.247 24.9916 390.247 24.9916C392.261 23.567 390.443 22.4372 390.443 22.4372C387.447 20.6196 380.815 20.1775 376.05 20.0792C374.724 19.4897 357.678 12.6616 359.79 43.3638C359.79 43.3638 364.064 47.4411 368.927 38.6971C368.927 38.6971 368.485 32.9987 372.857 34.1286C373.692 34.3251 374.331 35.062 374.478 35.8971C374.822 38.0094 374.478 39.2865 374.478 39.2865L376.197 40.1217L378.457 35.6023C385.825 38.8935 395.65 42.0375 398.548 38.2058Z" fill="#25383F"/>
<path d="M392.113 132.769L402.232 134.046C403.313 134.193 404.344 134.635 405.13 135.372L412.745 142.151L396.485 141.611L364.112 136.846C361.41 136.453 359.298 134.39 358.758 131.737L352.765 101.33L368.975 89.54L372.414 124.418L392.113 132.769Z" fill="white"/>
<path d="M416.135 143.478L396.338 142.839L363.965 138.074C360.772 137.583 358.218 135.176 357.579 131.983L351.439 100.789L370.008 87.2803L373.594 123.583L392.408 131.59L402.38 132.818C403.706 132.965 404.935 133.555 405.966 134.439L416.135 143.478ZM396.633 140.383L409.405 140.776L404.296 136.256C403.657 135.716 402.871 135.323 402.036 135.225L391.72 133.948L371.236 125.253L367.945 91.7996L354.092 101.87L359.937 131.541C360.379 133.702 362.099 135.372 364.26 135.667L396.633 140.383Z" fill="#25383F"/>
<path d="M450.324 327.495C485.186 327.495 513.448 299.234 513.448 264.372C513.448 229.509 485.186 201.248 450.324 201.248C415.462 201.248 387.2 229.509 387.2 264.372C387.2 299.234 415.462 327.495 450.324 327.495Z" fill="white"/>
<path d="M450.324 328.723C414.856 328.723 385.972 299.838 385.972 264.371C385.972 228.904 414.856 200.019 450.324 200.019C485.791 200.019 514.676 228.904 514.676 264.371C514.676 299.838 485.791 328.723 450.324 328.723ZM450.324 202.475C416.183 202.475 388.428 230.23 388.428 264.371C388.428 298.512 416.183 326.267 450.324 326.267C484.465 326.267 512.219 298.512 512.219 264.371C512.219 230.23 484.415 202.475 450.324 202.475Z" fill="#25383F"/>
<path d="M450.325 272.428C454.775 272.428 458.381 268.821 458.381 264.372C458.381 259.922 454.775 256.315 450.325 256.315C445.876 256.315 442.269 259.922 442.269 264.372C442.269 268.821 445.876 272.428 450.325 272.428Z" fill="white"/>
<path d="M450.324 273.655C445.215 273.655 441.04 269.48 441.04 264.371C441.04 259.262 445.215 255.087 450.324 255.087C455.433 255.087 459.609 259.262 459.609 264.371C459.609 269.529 455.433 273.655 450.324 273.655ZM450.324 257.592C446.542 257.592 443.496 260.638 443.496 264.42C443.496 268.203 446.542 271.248 450.324 271.248C454.107 271.248 457.152 268.203 457.152 264.42C457.152 260.638 454.058 257.592 450.324 257.592Z" fill="#25383F"/>
<path d="M64.7039 327.495C99.5662 327.495 127.828 299.234 127.828 264.372C127.828 229.509 99.5662 201.248 64.7039 201.248C29.8416 201.248 1.58008 229.509 1.58008 264.372C1.58008 299.234 29.8416 327.495 64.7039 327.495Z" fill="white"/>
<path d="M64.7035 328.723C29.2362 328.723 0.351562 299.838 0.351562 264.371C0.351562 228.904 29.2362 200.019 64.7035 200.019C100.171 200.019 129.055 228.904 129.055 264.371C129.055 299.838 100.171 328.723 64.7035 328.723ZM64.7035 202.475C30.5626 202.475 2.80774 230.23 2.80774 264.371C2.80774 298.512 30.5626 326.267 64.7035 326.267C98.8444 326.267 126.599 298.512 126.599 264.371C126.599 230.23 98.7953 202.475 64.7035 202.475Z" fill="#25383F"/>
<path d="M64.7047 272.428C69.154 272.428 72.7609 268.821 72.7609 264.372C72.7609 259.922 69.154 256.315 64.7047 256.315C60.2553 256.315 56.6484 259.922 56.6484 264.372C56.6484 268.821 60.2553 272.428 64.7047 272.428Z" fill="white"/>
<path d="M64.7033 273.655C59.5944 273.655 55.4189 269.48 55.4189 264.371C55.4189 259.262 59.5944 255.087 64.7033 255.087C69.8121 255.087 73.9876 259.262 73.9876 264.371C73.9876 269.529 69.8121 273.655 64.7033 273.655ZM64.7033 257.592C60.9207 257.592 57.8751 260.638 57.8751 264.42C57.8751 268.203 60.9207 271.248 64.7033 271.248C68.4858 271.248 71.5314 268.203 71.5314 264.42C71.5314 260.638 68.4367 257.592 64.7033 257.592Z" fill="#25383F"/>
<path d="M291.212 263.339C291.212 263.339 285.562 276.259 290.966 283.971C294.012 288.294 301.97 295.27 299.121 303.473L264.145 275.817L278.292 255.578L291.212 263.339Z" fill="white"/>
<path d="M299.711 305.487L262.475 276.013L277.9 253.908L292.784 262.848L292.342 263.83C292.293 263.978 287.037 276.21 291.949 283.283C292.49 284.069 293.226 285.003 294.061 285.936C297.746 290.406 302.806 296.596 300.3 303.866L299.711 305.487ZM265.815 275.522L298.384 301.312C299.17 296.056 295.29 291.34 292.146 287.508C291.311 286.526 290.525 285.543 289.935 284.708C285.072 277.732 288.412 267.171 289.69 263.88L278.637 257.248L265.815 275.522Z" fill="#25383F"/>
<path d="M159.562 260.392C159.562 260.392 153.913 273.311 159.316 281.024C162.362 285.347 170.32 292.322 167.471 300.526L132.495 272.869L146.642 252.63L159.562 260.392Z" fill="white"/>
<path d="M168.06 302.54L130.824 273.066L146.249 250.96L161.133 259.901L160.691 260.883C160.642 261.031 155.386 273.262 160.298 280.336C160.839 281.122 161.575 282.055 162.411 282.989C166.095 287.459 171.155 293.649 168.649 300.919L168.06 302.54ZM134.165 272.575L166.733 298.364C167.519 293.108 163.639 288.392 160.495 284.561C159.66 283.578 158.874 282.596 158.284 281.761C153.421 274.785 156.761 264.223 158.039 260.932L146.986 254.301L134.165 272.575Z" fill="#25383F"/>
<path d="M299.633 273.275L271.121 283.113L271.922 285.435L300.434 275.596L299.633 273.275Z" fill="#25383F"/>
<path d="M309.585 140.629L346.428 203.015L297.304 274.245L271.76 259.508L309.585 203.507L273.725 158.313L309.585 140.629Z" fill="#25383F"/>
<path d="M449.145 264.96L416.92 143.379L398.744 139.351L399.235 136.993L418.885 141.316L451.503 264.371L449.145 264.96Z" fill="#25383F"/>
<path d="M288.02 169.415L264.49 140.53L246.02 137.435L246.412 134.979L265.767 138.271L266.062 138.614L289.887 167.843L288.02 169.415Z" fill="#25383F"/>
<path d="M360.869 249.634C360.919 249.781 360.82 249.978 360.673 250.027C359.347 250.371 353.255 251.304 337.88 244.034C337.88 244.034 325.599 237.648 327.072 230.77L332.476 225.858L357.529 235.683L360.869 249.634Z" fill="#25383F"/>
<path d="M226.663 247.03C225.681 247.374 219.245 249.29 206.179 242.56C206.179 242.56 193.406 237.648 194.88 230.77L200.775 225.858L225.828 235.683L226.81 246.834C226.81 246.932 226.761 246.981 226.663 247.03Z" fill="#25383F"/>
<path d="M309.781 259.802L283.844 168.973L286.202 168.285L311.353 256.265L431.313 193.977L432.443 196.187L309.781 259.802Z" fill="#25383F"/>
<path d="M349.669 234.848C349.669 234.848 345.494 248.258 350.897 255.971C353.943 260.294 361.901 267.269 359.052 275.473L324.076 249.29L336.75 227.086L349.669 234.848Z" fill="white"/>
<path d="M359.642 277.438L322.455 249.585L336.259 225.367L351.094 234.258L350.799 235.191C350.75 235.339 346.87 248.16 351.831 255.234C352.371 256.02 353.108 256.953 353.943 257.887C357.628 262.357 362.687 268.546 360.182 275.817L359.642 277.438ZM325.648 248.897L358.266 273.311C359.101 268.006 355.22 263.29 352.027 259.409C351.192 258.427 350.406 257.445 349.817 256.609C344.954 249.634 347.312 238.63 348.196 235.339L337.143 228.707L325.648 248.897Z" fill="#25383F"/>
<path d="M217.035 232.391C217.035 232.391 212.86 245.802 218.263 253.515C221.309 257.837 229.267 264.813 226.418 273.017L191.442 246.834L204.116 224.63L217.035 232.391Z" fill="white"/>
<path d="M227.007 274.982L189.821 247.129L203.625 222.911L218.46 231.802L218.165 232.735C218.116 232.883 214.235 245.704 219.197 252.778C219.737 253.564 220.474 254.497 221.309 255.43C224.993 259.901 230.053 266.09 227.548 273.36L227.007 274.982ZM193.014 246.441L225.632 270.855C226.467 265.55 222.586 260.834 219.393 256.953C218.558 255.971 217.772 254.988 217.183 254.153C212.319 247.178 214.677 236.174 215.562 232.883L204.509 226.251L193.014 246.441Z" fill="#25383F"/>
<path d="M262.623 162.292L264.293 166.762C266.258 171.871 271.956 174.426 277.065 172.461L304.623 161.752C307.276 160.72 308.406 157.625 307.08 155.12C306.195 153.499 304.476 152.516 302.609 152.615L267.339 154.874C263.704 155.12 261.296 158.853 262.623 162.292Z" fill="#25383F"/>
<path d="M128.515 162.292L130.185 166.762C132.15 171.871 137.848 174.426 142.957 172.461L170.516 161.752C173.168 160.72 174.298 157.625 172.972 155.12C172.087 153.499 170.368 152.516 168.502 152.615L133.231 154.874C129.596 155.12 127.189 158.853 128.515 162.292Z" fill="#25383F"/>
<path d="M65.3427 265.304L63.5742 263.536L127.779 199.38L128.172 199.331L424.387 167.401L424.682 169.857L128.86 201.738L65.3427 265.304Z" fill="#25383F"/>
<path d="M288.707 105.996C288.707 105.996 258.741 150.699 276.18 162.734C291.949 173.64 352.322 171.576 352.322 171.576L327.023 230.77C327.023 230.77 334.49 230.525 343.725 234.209C351.094 237.156 360.427 247.472 360.427 247.472L391.375 158.411C393.094 153.352 390.147 147.85 384.94 146.474L330.953 132.523L335.865 117.295L288.707 105.996Z" fill="#FFC7B6"/>
<path d="M360.918 249.83L359.543 248.307C359.445 248.209 350.308 238.188 343.283 235.339C334.441 231.802 327.171 231.998 327.072 231.998L325.156 232.048L325.893 230.279L350.455 172.854C339.844 173.099 289.984 173.738 275.493 163.717C257.268 151.141 286.447 107.126 287.675 105.309L288.166 104.621L337.437 116.411L332.525 131.639L385.235 145.246C388.035 145.983 390.442 147.85 391.817 150.404C393.193 152.959 393.438 156.004 392.505 158.755L360.918 249.83ZM328.89 229.591C331.739 229.739 337.487 230.377 344.216 233.079C350.111 235.437 357.038 242.167 359.985 245.164L390.245 158.018C390.982 155.906 390.786 153.646 389.705 151.632C388.624 149.667 386.856 148.243 384.645 147.702L329.381 133.407L334.294 118.179L289.247 107.372C285.563 113.07 261.787 151.288 276.868 161.703C292.145 172.215 351.683 170.348 352.273 170.348L354.189 170.299L328.89 229.591Z" fill="#25383F"/>
<path d="M327.859 52.0104L311.059 64.4878L318.428 70.8739L263.655 110.91C263.655 110.91 277.901 102.559 308.357 117.296C314.35 120.194 329.48 132.033 329.48 132.033L352.323 102.804L353.305 109.19L371.481 95.4357L368.042 64.9791C368.042 64.9791 365.341 65.7159 361.411 61.786C357.972 58.3474 356.744 52.2069 356.744 52.2069L336.947 49.6525C333.754 49.2595 330.463 50.0946 327.859 52.0104Z" fill="#F2D696"/>
<path d="M329.676 133.751L328.694 133.014C328.546 132.916 313.564 121.225 307.816 118.425C278.293 104.13 264.391 111.891 264.293 111.989L262.966 109.926L316.511 70.8239L309.142 64.4378L327.171 51.0762C330.069 48.9639 333.606 48.0306 337.143 48.4727L357.775 51.1254L357.971 52.0096C357.971 52.0587 359.15 57.8553 362.294 60.9501C365.585 64.2414 367.747 63.7992 367.747 63.7992L369.122 63.4063L369.27 64.8308L372.807 95.9752L352.42 111.4L351.536 105.8L329.676 133.751ZM275.984 107.274C283.5 107.274 294.405 109.14 308.897 116.165C314.104 118.67 325.795 127.611 329.283 130.263L353.108 99.7577L354.189 106.93L370.154 94.8454L366.912 66.2063C365.536 66.0589 363.228 65.3712 360.526 62.6202C357.627 59.7219 356.203 55.2026 355.712 53.2868L336.799 50.8306C333.852 50.4376 330.953 51.2236 328.595 52.992L313.023 64.5361L320.392 70.9221L270.089 107.716C271.759 107.47 273.724 107.274 275.984 107.274Z" fill="#25383F"/>
<path d="M63.2339 271.115L63.1235 273.569L308.79 284.621L308.901 282.167L63.2339 271.115Z" fill="#25383F"/>
<path d="M307.621 283.825C317.252 283.825 325.059 276.017 325.059 266.386C325.059 256.755 317.252 248.947 307.621 248.947C297.989 248.947 290.182 256.755 290.182 266.386C290.182 276.017 297.989 283.825 307.621 283.825Z" fill="white"/>
<path d="M307.62 285.052C297.304 285.052 288.953 276.701 288.953 266.385C288.953 256.069 297.304 247.718 307.62 247.718C317.936 247.718 326.287 256.069 326.287 266.385C326.287 276.701 317.936 285.052 307.62 285.052ZM307.62 250.174C298.68 250.174 291.409 257.444 291.409 266.385C291.409 275.325 298.68 282.596 307.62 282.596C316.561 282.596 323.831 275.325 323.831 266.385C323.831 257.444 316.561 250.174 307.62 250.174Z" fill="#25383F"/>
<path d="M335.985 259.519L307.473 269.358L308.274 271.68L336.786 261.841L335.985 259.519Z" fill="#25383F"/>
<path d="M330.153 254.504L328.613 256.417L340.514 265.996L342.055 264.083L330.153 254.504Z" fill="#25383F"/>
<path d="M198.997 253.059L197.457 254.972L209.358 264.551L210.898 262.638L198.997 253.059Z" fill="#25383F"/>
<path d="M265.801 278.573L264.261 280.486L276.162 290.066L277.702 288.152L265.801 278.573Z" fill="#25383F"/>
<path d="M134.153 276.145L132.613 278.059L144.514 287.638L146.054 285.724L134.153 276.145Z" fill="#25383F"/>
<path d="M167.511 270.898L138.996 280.731L139.797 283.053L168.312 273.22L167.511 270.898Z" fill="#25383F"/>
<path d="M177.442 138.664L214.285 201.051L165.161 272.28L139.617 257.543L177.442 201.542L141.582 156.348L177.442 138.664Z" fill="#25383F"/>
<path d="M308.686 247.56L63.6328 255.221L63.7096 257.676L308.763 250.015L308.686 247.56Z" fill="#25383F"/>
<path d="M154.356 107.226C154.356 107.226 124.145 147.752 144.04 160.77C160.054 171.283 220.181 169.612 220.181 169.612L196.602 230.035C196.602 230.035 203.037 229.691 212.567 233.719C221.901 237.649 226.567 244.28 226.567 244.28L257.024 162.146C259.922 153.991 255.305 145.1 246.954 142.791L193.163 129.331L191.444 120.243L154.356 107.226Z" fill="#FFF7DD"/>
<path d="M226.91 246.883L225.583 244.967C225.534 244.918 220.966 238.581 212.123 234.848C203.036 231.016 196.748 231.262 196.698 231.262L194.832 231.36L195.52 229.591L218.411 170.889C207.997 171.085 158.186 171.478 143.399 161.801C139.568 159.295 137.21 155.66 136.375 151.043C133.28 133.702 152.586 107.617 153.372 106.488L153.912 105.751L192.523 119.309L194.242 128.299L247.247 141.562C251.57 142.741 255.254 145.688 257.317 149.667C259.38 153.646 259.724 158.313 258.201 162.538L226.91 246.883ZM198.369 228.855C200.972 229.002 206.228 229.739 213.007 232.588C219.688 235.388 224.06 239.514 226.124 241.823L255.843 161.703C257.121 158.117 256.875 154.236 255.107 150.846C253.338 147.457 250.292 145.001 246.608 143.969L192.081 130.313L190.362 121.126L154.796 108.649C151.701 113.021 136.129 135.814 138.782 150.551C139.47 154.58 141.434 157.527 144.726 159.688C160.249 169.857 219.541 168.334 220.18 168.334L222.046 168.285L198.369 228.855Z" fill="#25383F"/>
<path d="M216.986 77.5047L226.319 99.1191L247.443 130.067L253.19 131.492C254.566 131.835 255.843 132.572 256.874 133.555L262.229 138.909L240.614 136.453L217.035 107.961C216.544 107.372 216.102 106.733 215.709 106.095L204.705 88.8031L216.986 77.5047Z" fill="white"/>
<path d="M265.521 140.53L239.927 137.632L216.053 108.747C215.513 108.109 215.071 107.47 214.629 106.782L203.134 88.6557L217.429 75.4907L227.401 98.5788L248.18 129.035L253.485 130.362C255.107 130.755 256.531 131.59 257.71 132.769L265.521 140.53ZM241.205 135.274L258.84 137.288L255.991 134.439C255.156 133.604 254.075 132.965 252.896 132.671L246.706 131.099L225.19 99.5612L216.545 79.5188L206.278 88.9505L216.692 105.358C217.085 105.947 217.478 106.537 217.969 107.077L241.205 135.274Z" fill="#25383F"/>
<path d="M177.934 283.825C187.565 283.825 195.373 276.017 195.373 266.386C195.373 256.755 187.565 248.947 177.934 248.947C168.303 248.947 160.495 256.755 160.495 266.386C160.495 276.017 168.303 283.825 177.934 283.825Z" fill="white"/>
<path d="M177.933 285.052C167.617 285.052 159.266 276.701 159.266 266.385C159.266 256.069 167.617 247.718 177.933 247.718C188.249 247.718 196.6 256.069 196.6 266.385C196.6 276.701 188.249 285.052 177.933 285.052ZM177.933 250.174C168.992 250.174 161.722 257.444 161.722 266.385C161.722 275.325 168.992 282.596 177.933 282.596C186.873 282.596 194.143 275.325 194.143 266.385C194.143 257.444 186.873 250.174 177.933 250.174Z" fill="#25383F"/>
<path d="M334.639 89.541L337.783 83.3024C338.618 81.6813 340.092 80.4532 341.86 79.9619L346.723 78.6356C348.099 78.2426 349.376 79.4707 349.081 80.8462L348.492 83.7444C348.001 86.0041 346.38 87.8708 344.169 88.5586L340.583 89.5901L337.636 98.4324C337.636 98.4324 288.512 99.3166 287.775 88.3621C287.284 80.9935 312.386 63.6529 312.386 63.6529L326.583 71.1688L310.126 84.1866L334.639 89.541Z" fill="white"/>
<path d="M335.08 99.6104C330.806 99.6104 321.817 99.5121 312.827 98.677C295.486 97.0559 286.841 93.7155 286.497 88.4101C285.956 80.5504 309.044 64.4378 311.648 62.6203L312.237 62.1782L328.743 70.9222L312.827 83.4978L333.95 88.1154L336.652 82.7118C337.634 80.7469 339.403 79.3223 341.515 78.7328L346.378 77.4065C347.459 77.1118 348.54 77.4065 349.326 78.1434C350.112 78.8802 350.456 79.9609 350.259 81.0416L349.67 83.9399C349.08 86.6417 347.164 88.8032 344.561 89.6874H344.512L341.564 90.5225L338.568 99.5612H337.683C337.585 99.6104 336.652 99.6104 335.08 99.6104ZM312.434 65.0764C302.904 71.7081 288.609 83.4978 288.953 88.2628C289.051 90.0313 291.655 94.2559 313.023 96.2699C323.339 97.2033 333.704 97.2033 336.701 97.2033L339.599 88.5575L343.775 87.3786C345.543 86.7891 346.87 85.2662 347.263 83.4487L347.852 80.5504C347.901 80.2065 347.754 80.01 347.656 79.9118C347.557 79.8136 347.361 79.6662 347.017 79.7644L342.154 81.0908C340.729 81.4838 339.501 82.4662 338.862 83.7926L335.325 90.9155L307.325 84.7259L324.322 71.2661L312.434 65.0764Z" fill="#25383F"/>
<path d="M203.863 257.634L175.348 267.467L176.149 269.789L204.664 259.956L203.863 257.634Z" fill="#25383F"/>
<path d="M193.26 130.313C193.26 130.313 177.246 116.018 158.284 112.972C142.319 110.417 131.512 113.856 131.512 113.856L189.085 51.371C190.706 49.6025 192.769 48.3253 195.078 47.7358C198.123 46.9499 202.25 47.1954 205.836 51.7639C212.664 60.3606 222.882 84.382 222.882 84.382L209.618 100.102L206.474 95.6313L193.26 130.313Z" fill="#25383F"/>
<path d="M150.053 167.688L147.734 168.5L157.901 197.524L160.219 196.712L150.053 167.688Z" fill="#25383F"/>
<path d="M434.604 153.892H421.292V156.348H434.604V153.892Z" fill="#25383F"/>
<path d="M438.779 175.997H427.628V178.454H438.779V175.997Z" fill="#25383F"/>
<path d="M362.34 86.0271L349.206 104.656L351.213 106.071L364.347 87.4423L362.34 86.0271Z" fill="#25383F"/>
<path d="M198.389 82.7117L196.336 84.0606L207.64 101.262L209.693 99.9128L198.389 82.7117Z" fill="white"/>
<path d="M427.727 149.716L436.078 182.629H466.043L472.429 149.716H427.727Z" fill="#25383F"/>
</svg>
