<svg width="134" height="38" viewBox="0 0 134 38" fill="none" xmlns="http://www.w3.org/2000/svg">
<path d="M1.9165 35.9183H131.161C131.161 35.9183 118.487 10.1284 82.8231 18.8724C82.774 18.8724 32.0293 -30.3003 1.9165 35.9183Z" fill="#FFF7DD"/>
<path d="M133.125 37.1455H0L0.785965 35.4262C10.0212 15.1873 22.1056 3.49589 36.7445 0.744968C59.0957 -3.47966 79.6294 14.3031 83.1663 17.5452C101.686 13.2223 113.967 18.1838 121.09 23.1453C128.9 28.598 132.142 35.1315 132.29 35.3771L133.125 37.1455ZM3.83166 34.6894H128.999C127.525 32.4788 124.479 28.4998 119.567 25.0611C109.742 18.233 97.5103 16.5627 83.1171 20.0505L82.4785 20.1979L81.9872 19.7067C81.7907 19.5102 60.029 -1.22001 37.2357 3.10286C23.7758 5.65729 12.5757 16.268 3.83166 34.6894Z" fill="#25383F"/>
</svg>
