<svg width="149" height="275" viewBox="0 0 149 275" fill="none" xmlns="http://www.w3.org/2000/svg">
<path d="M91.7184 43.0323L68.7777 78.7451L55.5635 68.5274L71.7743 42.0498L91.7184 43.0323Z" fill="#25383F"/>
<path d="M85.0373 26.625L75.2616 53.6429C73.2475 54.0851 71.9212 55.1166 71.0861 56.3447C70.3984 57.3763 70.0055 58.5553 69.809 59.636C69.5142 61.3062 69.6125 62.9764 70.0546 64.6466C73.1985 76.9275 68.4826 81.103 64.258 81.2504C61.3597 81.3486 55.5139 77.2714 53.2542 75.4538C25.0082 52.3657 0.59375 50.1552 0.59375 50.1552L21.6187 0C51.8297 8.30189 75.1142 26.0355 75.1142 26.0355C77.5704 27.7057 79.5353 28.3443 81.009 28.4917C83.76 28.6882 84.8899 26.8706 85.0373 26.625Z" fill="#FCE7E9"/>
<path d="M141.972 53.3481C141.972 53.3481 131.656 61.4044 125.418 42.0497C125.418 42.0497 119.179 15.4247 107.095 7.17196C107.095 7.17196 96.533 -1.47379 90.6382 9.62814L73.9854 54.0359C73.9854 54.0359 92.2102 48.3867 100.119 84.7872C100.119 84.7872 103.017 106.402 125.762 101.538L141.972 53.3481Z" fill="#FCE7E9"/>
<path d="M142.856 41.9024L73.6406 273.52L79.1916 274.896L148.308 43.5235L142.856 41.9024Z" fill="#25383F"/>
<path d="M89.8023 9.25346L70.1494 57.898L72.4268 58.8181L92.0797 10.1735L89.8023 9.25346Z" fill="#25383F"/>
</svg>
