<svg width="194" height="169" viewBox="0 0 194 169" fill="none" xmlns="http://www.w3.org/2000/svg">
<g opacity="0.2" clip-path="url(#clip0)">
<path d="M46.9736 158.813C51.6482 154.085 57.0892 159.499 61.7701 154.764C66.4447 150.035 61.0038 144.622 65.6848 139.887C70.3594 135.159 75.8003 140.572 80.4813 135.838C85.1559 131.109 79.715 125.696 84.3896 120.961C89.0642 116.233 94.5051 121.646 99.1861 116.912C103.861 112.177 98.4198 106.77 103.101 102.035C107.775 97.3065 113.216 102.72 117.897 97.9856C122.572 93.2573 117.131 87.8435 121.812 83.1087C126.487 78.3804 131.927 83.7943 136.608 79.0596C141.283 74.3248 135.842 68.911 140.523 64.1827C145.198 59.448 150.645 64.8618 155.32 60.1335C159.994 55.3988 154.553 49.9849 159.234 45.2566C163.909 40.5219 169.356 45.9358 174.031 41.2074C178.712 36.4727 173.271 31.0589 177.945 26.3306C182.626 21.5958 188.067 27.0097 192.742 22.2814" stroke="url(#paint0_linear)" stroke-width="2" stroke-miterlimit="10" stroke-linecap="round" stroke-linejoin="round"/>
<path d="M18.958 168.039C23.6326 163.311 29.0735 168.725 33.7545 163.99C38.4291 159.261 32.9882 153.848 37.6692 149.113C42.3438 144.385 47.7847 149.798 52.4657 145.064C57.1403 140.335 51.6994 134.922 56.374 130.187C61.0486 125.459 66.4895 130.872 71.1705 126.138C75.8451 121.409 70.4042 115.996 75.0851 111.261C79.7597 106.532 85.2007 111.946 89.8817 107.212C94.5563 102.483 89.1153 97.0695 93.7963 92.3347C98.4709 87.6064 103.912 93.0203 108.593 88.2856C113.267 83.5509 107.827 78.137 112.507 73.4087C117.182 68.674 122.623 74.0878 127.304 69.3595C131.979 64.6248 126.538 59.2109 131.219 54.4826C135.893 49.7479 141.341 55.1618 146.015 50.4335C150.696 45.6987 145.249 40.2849 149.93 35.5566C154.611 30.8283 160.052 36.2357 164.726 31.5074" stroke="url(#paint1_linear)" stroke-width="2" stroke-miterlimit="10" stroke-linecap="round" stroke-linejoin="round"/>
</g>
<g opacity="0.2" clip-path="url(#clip1)">
<path d="M28.9736 137.813C33.6482 133.085 39.0892 138.499 43.7701 133.764C48.4447 129.035 43.0038 123.622 47.6848 118.887C52.3594 114.159 57.8003 119.572 62.4813 114.838C67.1559 110.109 61.715 104.696 66.3896 99.9609C71.0642 95.2326 76.5051 100.646 81.1861 95.9117C85.8607 91.177 80.4198 85.7695 85.1008 81.0348C89.7754 76.3065 95.2163 81.7203 99.8973 76.9856C104.572 72.2573 99.131 66.8435 103.812 62.1087C108.487 57.3804 113.927 62.7943 118.608 58.0596C123.283 53.3248 117.842 47.911 122.523 43.1827C127.198 38.448 132.645 43.8618 137.32 39.1335C141.994 34.3988 136.553 28.9849 141.234 24.2566C145.909 19.5219 151.356 24.9358 156.031 20.2074C160.712 15.4727 155.271 10.0589 159.945 5.33056C164.626 0.595846 170.067 6.0097 174.742 1.28139" stroke="url(#paint2_linear)" stroke-width="2" stroke-miterlimit="10" stroke-linecap="round" stroke-linejoin="round"/>
<path d="M0.958008 147.039C5.63261 142.311 11.0735 147.725 15.7545 142.99C20.4291 138.261 14.9882 132.848 19.6692 128.113C24.3438 123.385 29.7847 128.798 34.4657 124.064C39.1403 119.335 33.6994 113.922 38.374 109.187C43.0486 104.459 48.4895 109.872 53.1705 105.138C57.8451 100.409 52.4042 94.9955 57.0851 90.2608C61.7597 85.5325 67.2007 90.9463 71.8817 86.2116C76.5563 81.4833 71.1153 76.0695 75.7963 71.3347C80.4709 66.6064 85.9118 72.0203 90.5928 67.2856C95.2674 62.5509 89.8265 57.137 94.5075 52.4087C99.1821 47.674 104.623 53.0878 109.304 48.3595C113.979 43.6248 108.538 38.2109 113.219 33.4826C117.893 28.7479 123.341 34.1618 128.015 29.4335C132.696 24.6987 127.249 19.2849 131.93 14.5566C136.611 9.82827 142.052 15.2357 146.726 10.5074" stroke="url(#paint3_linear)" stroke-width="2" stroke-miterlimit="10" stroke-linecap="round" stroke-linejoin="round"/>
</g>
<defs>
<linearGradient id="paint0_linear" x1="48.4868" y1="162.142" x2="191.677" y2="19.4186" gradientUnits="userSpaceOnUse">
<stop stop-color="#F10087"/>
<stop offset="1" stop-color="#EBAD4F"/>
</linearGradient>
<linearGradient id="paint1_linear" x1="20.6965" y1="171.14" x2="163.434" y2="28.8679" gradientUnits="userSpaceOnUse">
<stop stop-color="#F10087"/>
<stop offset="1" stop-color="#EBAD4F"/>
</linearGradient>
<linearGradient id="paint2_linear" x1="30.4868" y1="141.142" x2="173.677" y2="-1.58143" gradientUnits="userSpaceOnUse">
<stop stop-color="#F10087"/>
<stop offset="1" stop-color="#EBAD4F"/>
</linearGradient>
<linearGradient id="paint3_linear" x1="2.69654" y1="150.14" x2="145.434" y2="7.86791" gradientUnits="userSpaceOnUse">
<stop stop-color="#F10087"/>
<stop offset="1" stop-color="#EBAD4F"/>
</linearGradient>
<clipPath id="clip0">
<rect width="176" height="148" fill="white" transform="translate(18 21)"/>
</clipPath>
<clipPath id="clip1">
<rect width="176" height="148" fill="white"/>
</clipPath>
</defs>
</svg>
