<svg width="93" height="43" viewBox="0 0 93 43" fill="none" xmlns="http://www.w3.org/2000/svg">
<g clip-path="url(#clip0)">
<path d="M91.3601 10.53C89.3901 10.87 87.4101 11.22 85.4401 11.56C84.4501 11.73 83.4701 11.9 82.4801 12.08C81.6401 12.23 80.3601 12.71 79.5201 12.6C77.1701 12.28 76.4001 8.24 75.6801 6.41C74.9101 4.49 74.1501 2.56 73.3801 0.640002C73.0501 -0.199998 71.9901 -0.199998 71.6601 0.640002C69.9501 4.95 68.6601 9.31 67.9001 13.85C67.7201 13.73 67.5201 13.64 67.2601 13.64C62.7501 13.63 58.1201 14.63 53.6501 15.21C52.6401 15.34 51.9501 16.26 52.4801 17.24C55.0301 21.96 60.6101 22.7 64.4401 25.92C69.4601 30.15 62.5101 36.63 66.6001 41.35C67.1501 41.99 68.2501 41.77 68.6401 41.09C69.9201 38.85 71.2001 36.61 72.4801 34.38C73.0601 33.37 73.6301 32.37 74.2101 31.36C74.6501 30.58 75.4101 28.52 76.1301 28C76.2001 27.63 76.3701 27.56 76.6601 27.78C77.0401 27.87 77.3601 28.08 77.6101 28.39C78.0301 28.7 78.4301 29.05 78.8401 29.38C79.8601 30.2 80.8801 31.03 81.9001 31.85L88.0001 36.78C88.8701 37.48 90.0101 37.02 90.1201 35.9C90.6101 31.02 86.9001 27.45 85.5101 23.09C83.6601 17.28 90.5801 16.39 92.5301 12.06C92.9101 11.2 92.2901 10.37 91.3601 10.53ZM85.1701 16.18C83.5601 17.73 82.7601 19.79 83.0101 22.02C83.4601 26.03 86.5901 29.32 87.4601 33.16C85.5801 31.63 83.7001 30.11 81.8201 28.58C80.6001 27.59 79.4001 26.56 78.1601 25.61C77.4201 25.04 76.7001 24.63 75.7401 24.91C74.7001 25.22 74.2301 26.17 73.7201 27.04C72.9301 28.37 72.1801 29.72 71.4101 31.06C70.1701 33.21 68.9401 35.35 67.7001 37.5C67.5801 35.26 68.9301 32.41 69.0601 30.5C69.2301 28.12 68.3401 25.93 66.6101 24.3C63.6401 21.52 58.9501 20.56 56.1301 17.63C56.3101 17.61 68.4501 16.3 68.5301 15.99C69.6601 11.72 70.9301 7.48 72.5001 3.35C73.2201 5.26 73.9501 7.17 74.6701 9.08C75.2801 10.69 75.7801 13.48 77.5001 14.36C79.2301 15.24 81.9901 14.2 83.7501 13.9C85.5801 13.59 87.4101 13.29 89.2501 12.98C88.0001 14.14 86.4101 14.98 85.1701 16.18Z" fill="#202020"/>
<path d="M45.3802 12.55C40.1402 7.51 32.7402 5.33 25.5702 5.18C21.3002 5.09 17.0302 5.61 12.8402 6.38C8.75015 7.13 4.07015 8.22 0.470152 10.37C-0.379848 10.88 -0.0098483 12.2 0.970152 12.21C4.65015 12.26 8.60015 11.14 12.1902 10.39C16.2602 9.54 20.3202 8.82 24.4902 8.71C31.6202 8.53 38.5702 9.8 44.9102 13.15C45.2902 13.36 45.7002 12.87 45.3802 12.55Z" fill="#202020"/>
<path d="M44.4505 21.34C41.7605 20.11 39.1405 18.79 36.2205 18.15C33.2605 17.5 30.0405 17.27 27.0105 17.38C23.9005 17.49 20.7105 17.87 17.7105 18.72C16.2205 19.14 14.6705 19.61 13.2705 20.3C11.8305 21.01 10.8805 21.9 9.68054 22.91C8.49054 23.91 9.82054 25.45 11.0405 25.25C12.4005 25.03 13.7205 24.95 15.0805 24.6C16.4005 24.26 17.7005 23.82 19.0205 23.49C21.7605 22.81 24.5005 22.18 27.3005 21.85C30.0405 21.53 32.7305 21.4 35.4905 21.39C38.4305 21.38 41.4305 21.18 44.3405 21.6C44.4805 21.61 44.6105 21.41 44.4505 21.34Z" fill="#202020"/>
<path d="M52.6503 29.09C46.1503 27.24 38.7503 28.51 32.4003 30.43C29.1603 31.41 25.9403 32.65 23.0103 34.36C20.1703 36.02 16.7803 38.1 14.9703 40.92C14.4203 41.78 15.3503 43.12 16.3703 42.74C19.2403 41.65 21.8303 39.63 24.5503 38.19C27.5103 36.62 30.5303 35.11 33.6803 33.95C39.8603 31.68 46.2503 31.08 52.6503 29.84C53.0303 29.76 52.9903 29.19 52.6503 29.09Z" fill="#202020"/>
</g>
<defs>
<clipPath id="clip0">
<rect width="92.64" height="42.8" fill="white"/>
</clipPath>
</defs>
</svg>
