<svg width="98" height="56" viewBox="0 0 98 56" fill="none" xmlns="http://www.w3.org/2000/svg">
<g clip-path="url(#clip0)">
<path d="M1.22994 51.49C15.7399 50.49 30.3699 51.76 44.4899 55.24C45.4899 55.49 46.2799 54.47 45.6399 53.6C43.2399 50.3 40.7799 47.07 37.5999 44.51C42.7799 41.69 48.3499 39.72 54.0699 38.25C65.1999 35.4 76.6899 34.24 87.7799 31.22C90.8799 30.38 97.6899 29.03 97.1899 24.51C96.91 22.04 94.2599 20.95 92.2199 20.23C90.5499 19.64 88.8299 19.29 87.0799 19.12C88.5399 17.68 89.5099 15.79 88.1199 14.01C86.8599 12.39 84.0799 12.03 82.1999 11.62C80.7299 11.3 79.2499 11.1 77.7599 10.96C79.1899 9.46 80.3399 7.7 81.0599 5.73C81.3999 4.8 82.1599 2.94 81.7399 1.97C81.3599 1.1 80.1999 0.529998 79.3399 0.269998C76.8999 -0.470002 74.2799 0.559998 71.9999 1.38C68.6199 2.6 65.27 3.9 61.9499 5.3C49.6299 10.48 37.3799 16.73 26.8499 25.08C24.7499 21.7 22.0799 18.67 19.6099 15.55C19.2199 15.06 18.3699 15.08 18.0299 15.62C11.1199 26.54 5.23994 38.23 0.0799447 50.11C-0.260055 50.89 0.509945 51.54 1.22994 51.49ZM2.68994 49.35C7.47994 38.51 13.0299 28.11 19.0099 17.89C21.2499 20.59 23.4499 23.35 25.9999 25.74C25.6199 26.05 25.2199 26.34 24.8399 26.66C24.6799 26.79 24.8499 27.07 25.0299 26.97C25.4999 26.71 25.9699 26.44 26.4399 26.18C26.7499 26.46 27.2299 26.11 27.2199 25.74C36.9699 20.24 46.6299 14.6 56.8299 9.95C62.3199 7.45 67.9099 5.18 73.5999 3.19C74.6899 2.81 75.8099 2.42 76.9699 2.32C77.5799 2.27 78.56 2.19 79.0799 2.59C79.7199 3.08 79.3499 3.62 79.1099 4.37C78.2399 7.09 76.5199 9.32 74.2499 11.02C73.4799 11.6 73.8899 13.03 74.8799 13.05C78.0399 13.1 81.1599 13.51 84.1999 14.38C85.5899 14.78 87.2999 15.27 86.2099 16.96C85.6199 17.89 84.6299 18.59 83.6799 19.1C82.59 19.69 83.1199 21.12 84.2799 21.07C86.1299 20.99 87.9999 21.15 89.7999 21.59C91.3299 21.96 93.6699 22.53 94.7399 23.76C97.2199 26.6 90.4999 28.41 88.9299 28.86C82.8599 30.61 76.6499 31.75 70.4499 32.88C58.2299 35.1 45.7199 37.32 34.8999 43.77C33.8299 44.41 34.5899 46.14 35.6499 45.6C38.2899 47.56 40.3899 50.04 42.3599 52.64C29.3499 49.71 16.0199 48.6 2.68994 49.35Z" fill="#EC595A"/>
<path d="M38.9397 36.03C40.2997 34.93 42.0797 34.31 43.6697 33.62C45.4397 32.85 47.2297 32.16 49.0497 31.52C52.6397 30.25 56.2997 29.16 59.9997 28.25C67.3397 26.45 75.0297 25.12 82.6097 25.21C82.8497 25.21 82.8597 25.59 82.6197 25.62C75.1597 26.56 67.7997 27.51 60.5297 29.49C56.8697 30.48 53.2697 31.67 49.7297 33.02C47.9297 33.71 46.1497 34.44 44.3797 35.19C42.7697 35.87 41.1697 36.8 39.4597 37.17C38.8297 37.31 38.4597 36.43 38.9397 36.03Z" fill="#EC595A"/>
<path d="M10.5803 45.64C12.3803 45.27 14.1903 44.92 16.0303 44.88C17.8503 44.84 19.6703 44.88 21.4903 45.01C23.3103 45.14 25.1203 45.34 26.9103 45.73C28.6703 46.12 30.4803 46.51 32.1403 47.23C32.3503 47.32 32.2903 47.65 32.0503 47.63C30.2903 47.47 28.5603 47.12 26.8003 46.95C25.0303 46.77 23.2703 46.57 21.4903 46.47C19.7503 46.37 18.0003 46.35 16.2603 46.41C14.4203 46.48 12.5703 46.42 10.7303 46.5C10.1703 46.53 10.0103 45.75 10.5803 45.64Z" fill="#EC595A"/>
</g>
<defs>
<clipPath id="clip0">
<rect width="97.23" height="55.28" fill="white"/>
</clipPath>
</defs>
</svg>
