<svg width="186" height="95" viewBox="0 0 186 95" fill="none" xmlns="http://www.w3.org/2000/svg">
<g opacity="0.2" clip-path="url(#clip0)">
<path d="M5.45969 5.46C6.70969 4.21 6.70969 2.19 5.45969 0.939999C4.20969 -0.310001 2.18969 -0.310001 0.93969 0.939999C-0.31031 2.19 -0.310311 4.21 0.939689 5.46C2.17969 6.71 4.20969 6.71 5.45969 5.46ZM73.9097 73.91C72.6597 75.16 72.6597 77.18 73.9097 78.43C75.1597 79.68 77.1797 79.68 78.4297 78.43C79.6797 77.18 79.6797 75.16 78.4297 73.91C77.1797 72.66 75.1597 72.66 73.9097 73.91ZM29.7797 29.79C31.0297 28.54 31.0297 26.52 29.7797 25.27C28.5297 24.02 26.5097 24.02 25.2597 25.27C24.0097 26.52 24.0097 28.54 25.2597 29.79C26.5097 31.03 28.5297 31.03 29.7797 29.79ZM17.6197 17.62C18.8697 16.37 18.8697 14.35 17.6197 13.1C16.3697 11.85 14.3497 11.85 13.0997 13.1C11.8497 14.35 11.8497 16.37 13.0997 17.62C14.3497 18.87 16.3697 18.87 17.6197 17.62ZM66.2697 66.27C67.5197 65.02 67.5197 63 66.2697 61.75C65.0197 60.5 62.9997 60.5 61.7497 61.75C60.4997 63 60.4997 65.02 61.7497 66.27C62.9997 67.52 65.0197 67.52 66.2697 66.27ZM54.1097 54.11C55.3597 52.86 55.3597 50.84 54.1097 49.59C52.8597 48.34 50.8397 48.34 49.5897 49.59C48.3397 50.84 48.3397 52.86 49.5897 54.11C50.8297 55.36 52.8597 55.36 54.1097 54.11ZM41.9397 41.95C43.1897 40.7 43.1897 38.68 41.9397 37.43C40.6897 36.18 38.6697 36.18 37.4197 37.43C36.1697 38.68 36.1697 40.7 37.4197 41.95C38.6697 43.2 40.6997 43.2 41.9397 41.95Z" fill="url(#paint0_linear)"/>
</g>
<g opacity="0.2" clip-path="url(#clip1)">
<path d="M161.45 76.94C162.15 77.5 163.05 77.9 163.97 77.79C164.17 77.77 164.37 77.74 164.57 77.72C165.65 77.58 165.74 77.47 166.69 76.98C166.81 76.92 166.93 76.85 167.05 76.79C167.46 76.58 167.71 76.41 168.07 76.08C168.56 75.64 168.92 75.17 169.22 74.57C169.28 74.45 169.34 74.33 169.4 74.21C169.63 73.75 169.91 73.32 170.19 72.89C170.33 72.66 170.49 72.44 170.62 72.21C170.82 71.87 170.94 71.49 171.02 71.1C171.07 70.85 171.09 70.63 171.09 70.41C171.12 70.3 171.14 70.2 171.17 70.09C171.31 69.54 171.29 68.94 171.14 68.39C171.13 68.31 171.12 68.22 171.1 68.14C171.12 67.61 170.97 67.11 170.54 66.74C170.13 66.38 169.67 66.31 169.17 66.37C169.08 66.35 169 66.34 168.91 66.33C168.21 66.2 167.5 66.39 166.82 66.62C166.59 66.65 166.37 66.69 166.13 66.76C165.76 66.87 165.33 67.08 165.02 67.32C164.8 67.48 164.6 67.65 164.38 67.82C163.97 68.14 163.57 68.46 163.13 68.74C162.64 69.05 162.17 69.4 161.77 69.83C161.31 70.31 161.1 70.82 160.87 71.39C160.82 71.51 160.77 71.64 160.72 71.76C160.6 72.09 160.49 72.43 160.38 72.76C160.28 73.15 160.24 73.54 160.28 73.95C160.27 74.14 160.27 74.34 160.27 74.53C160.25 75.36 160.83 76.44 161.45 76.94Z" fill="#EC595A"/>
<path d="M174.7 53.99C175.16 54.3 175.76 54.42 176.3 54.21C176.44 54.15 176.59 54.1 176.73 54.04C177.13 53.88 177.45 53.71 177.72 53.37C177.77 53.31 177.82 53.24 177.87 53.17C178.19 52.76 178.5 52.34 178.73 51.87C178.8 51.72 178.88 51.57 178.95 51.43C179.1 51.13 179.19 50.8 179.28 50.48L179.4 50.03C179.52 49.57 179.52 49.1 179.31 48.68C179.31 48.67 179.31 48.67 179.31 48.66C179.28 48 178.6 47.59 177.99 47.76C177.74 47.73 177.49 47.75 177.24 47.83C177.01 47.91 176.86 48.02 176.69 48.15C176.56 48.24 176.44 48.33 176.31 48.42C175.89 48.72 175.53 49.08 175.18 49.45C174.93 49.71 174.76 49.95 174.56 50.27C174.47 50.42 174.38 50.57 174.28 50.72C174.24 50.79 174.19 50.86 174.15 50.93C173.92 51.34 173.9 51.7 173.89 52.16C173.89 52.31 173.89 52.46 173.88 52.61C173.88 53.18 174.26 53.69 174.7 53.99Z" fill="#EC595A"/>
<path d="M160.35 45.32C160.65 45.67 160.91 45.98 161.34 46.18C162.15 46.56 163.21 46.56 163.95 46C164.49 45.59 165 45.12 165.54 44.7C165.83 44.47 166.12 44.25 166.41 44.03C166.9 43.65 167.24 43.27 167.6 42.8C167.94 42.35 168.32 41.92 168.6 41.42C168.78 41.1 168.92 40.76 169.08 40.43C169.22 40.14 169.32 39.84 169.49 39.56C169.68 39.25 169.87 38.94 170.07 38.63C170.4 38.12 170.39 37.37 170.16 36.77C170.12 36.55 170.03 36.33 169.89 36.12C169.97 35.95 169.78 35.73 169.59 35.79C169.34 35.59 169.07 35.47 168.77 35.42C168.08 35.17 167.34 35.24 166.64 35.65C166.29 35.86 165.95 36.07 165.61 36.28C165.04 36.54 164.46 36.82 163.94 37.17C163.29 37.6 162.67 38.3 162.14 38.88C161.6 39.47 161.27 40.31 160.92 41.03C160.66 41.58 160.38 42.13 160.17 42.7C159.88 43.52 159.71 44.58 160.35 45.32Z" fill="#EC595A"/>
<path d="M161.03 59.63C161.11 59.85 161.21 60.06 161.32 60.26C161.45 60.5 161.82 60.73 162.09 60.77C162.4 60.82 162.76 60.78 163.02 60.58C163.11 60.51 163.19 60.43 163.28 60.37C163.42 60.27 163.57 60.15 163.68 60.02C163.81 59.87 163.9 59.69 164.01 59.53C163.93 59.65 163.86 59.76 163.78 59.88C163.87 59.75 163.97 59.62 164.07 59.49C164.12 59.43 164.17 59.37 164.22 59.31C164.37 59.14 164.48 58.95 164.61 58.76L164.35 59.15C164.53 58.88 164.74 58.65 164.95 58.41C165.14 58.19 165.25 57.93 165.39 57.69C165.43 57.63 165.47 57.56 165.5 57.5C165.66 57.22 165.71 56.89 165.67 56.57C165.67 56.56 165.67 56.56 165.67 56.55C165.67 56.54 165.68 56.54 165.68 56.53C165.76 56.41 165.79 56.29 165.8 56.17C165.83 56.14 165.86 56.11 165.9 56.08C166.08 55.93 166.08 55.55 165.79 55.53C165.71 55.52 165.62 55.52 165.54 55.52C165.39 55.39 165.2 55.34 165 55.33C164.95 55.31 164.88 55.31 164.83 55.3C164.43 55.08 163.93 55.01 163.51 55.19C163.37 55.25 163.24 55.3 163.11 55.37C162.93 55.46 162.73 55.54 162.56 55.65C162.38 55.76 162.22 55.93 162.08 56.1C161.79 56.45 161.52 56.83 161.3 57.23C161.17 57.46 161.1 57.77 161.04 58.04C161 58.19 160.97 58.34 160.95 58.5C160.9 58.88 160.89 59.25 161.03 59.63Z" fill="#EC595A"/>
<path d="M142.38 63.3C143.45 64.01 144.93 64.06 146 63.31C146.97 62.63 147.76 61.67 148.58 60.81C149.54 59.8 150.23 58.17 150.55 56.81C150.58 56.71 150.62 56.62 150.65 56.52C150.86 55.9 150.97 55.59 151.01 54.99C151.01 54.96 151.01 54.93 151.01 54.89C151.06 54.68 151.12 54.47 151.16 54.26C151.34 53.46 151.19 52.79 150.84 52.18C150.79 51.97 150.71 51.76 150.59 51.56C150.47 51.37 150.19 50.95 149.89 50.88C149.5 50.8 149.14 50.76 148.78 50.8C148.05 50.72 147.28 50.91 146.72 51.4L146.28 51.79C145.48 52.2 144.83 52.94 144.21 53.59C144.44 53.38 144.68 53.18 144.91 52.97C144.34 53.46 143.83 53.92 143.37 54.51C142.89 55.13 142.36 55.74 142.1 56.49C141.94 56.95 141.78 57.4 141.62 57.85C141.38 58.54 141.07 59.23 140.97 59.96C140.81 61.29 141.25 62.54 142.38 63.3Z" fill="#EC595A"/>
<path d="M148.129 75.67C148.309 76.27 149.009 76.73 149.629 76.66C150.169 76.6 150.599 76.38 151.029 76.12C151.659 76.04 152.219 75.75 152.669 75.25C152.799 75.11 152.919 74.95 153.039 74.81C153.389 74.38 153.739 73.96 153.939 73.43C154.069 73.09 154.189 72.75 154.319 72.41C154.439 72.08 154.579 71.76 154.639 71.41C154.669 71.22 154.679 71.03 154.669 70.84C154.739 70.47 154.789 70.09 154.719 69.72C154.709 69.66 154.689 69.61 154.679 69.56C154.679 69.54 154.679 69.54 154.679 69.51C154.699 69.33 154.649 69.14 154.579 68.97C154.589 68.84 154.579 68.7 154.559 68.56C154.579 68.4 154.579 68.24 154.599 68.1C154.619 67.96 154.719 67.74 154.769 67.59C154.819 67.43 154.589 67.27 154.449 67.38C154.329 67.48 154.169 67.67 154.039 67.74C153.919 67.8 153.779 67.87 153.639 67.95C153.509 67.99 153.369 68.04 153.249 68.1C153.059 68.11 152.879 68.13 152.719 68.22C152.699 68.23 152.689 68.24 152.679 68.24C152.629 68.25 152.569 68.25 152.519 68.27C152.149 68.35 151.829 68.54 151.509 68.75C151.329 68.82 151.169 68.9 150.999 69C150.709 69.19 150.459 69.43 150.209 69.67L149.429 70.42C149.019 70.81 148.759 71.29 148.509 71.78C148.419 71.95 148.329 72.12 148.249 72.29C147.959 72.91 147.909 73.55 148.089 74.17C147.999 74.67 147.969 75.15 148.129 75.67Z" fill="#EC595A"/>
<path d="M144.04 91.1C144.09 91.81 144.39 92.46 144.86 92.98C145.24 93.41 145.66 93.69 146.2 93.87C146.88 94.11 147.59 94.12 148.29 93.89H148.3C148.55 93.9 148.8 93.88 149.05 93.8C149.41 93.77 149.74 93.66 150.04 93.46C150.37 93.34 150.65 93.15 150.89 92.89C151.09 92.72 151.25 92.57 151.42 92.39C151.86 91.91 152.2 91.5 152.56 90.92C152.71 90.67 152.86 90.42 153.01 90.18C153.09 90.05 153.17 89.92 153.24 89.79C153.36 89.57 153.43 89.33 153.49 89.08C153.51 89.03 153.54 88.98 153.56 88.93C153.65 88.67 153.74 88.42 153.82 88.16C153.83 88.07 153.83 87.98 153.84 87.88C153.94 87.6 154.02 87.34 154.04 87.03C154.06 86.77 154.03 86.53 153.98 86.28C154.01 85.78 153.9 85.34 153.55 84.95C153.19 84.54 152.68 84.3 152.12 84.35H152.08C151.93 84.32 151.79 84.28 151.63 84.27C151.24 84.24 150.88 84.3 150.5 84.42C150.49 84.42 150.47 84.43 150.46 84.43C150.18 84.45 149.89 84.5 149.63 84.6C149.53 84.64 149.43 84.68 149.33 84.72C149.02 84.78 148.89 84.84 148.47 85.05C148.2 85.18 147.94 85.32 147.68 85.46C147.4 85.61 147.09 85.74 146.83 85.92C146.58 86.09 146.36 86.31 146.13 86.5C145.84 86.74 145.49 87 145.24 87.28C145.05 87.56 144.86 87.85 144.67 88.13C144.56 88.46 144.44 88.78 144.33 89.11L144.29 89.72C144.12 90.16 144.01 90.62 144.04 91.1Z" fill="#EC595A"/>
<path d="M126.3 89.65C127 90.12 127.75 90.18 128.55 89.95C129.23 89.76 129.83 89.35 130.43 88.99C130.88 88.72 131.3 88.43 131.63 88.02C131.8 87.81 131.95 87.57 132.11 87.34C132.26 87.13 132.41 86.92 132.55 86.71C132.71 86.49 132.86 86.26 133.02 86.03C133.33 85.56 133.48 85.18 133.62 84.59C133.67 84.36 133.74 84.14 133.81 83.92C133.91 83.59 133.93 83.23 133.93 82.89C133.93 82.83 133.92 82.78 133.91 82.73C133.91 82.7 133.92 82.67 133.92 82.64C133.99 82.01 133.95 81.36 133.56 80.83C133.5 80.75 133.43 80.69 133.37 80.61C133.24 80.25 132.93 80.04 132.55 80.01C131.98 79.78 131.34 79.69 130.77 79.95C130.64 80.01 130.51 80.08 130.38 80.14C129.92 80.24 129.48 80.43 129.08 80.71C128.87 80.86 128.66 81.02 128.43 81.14L128.62 81.04C128.2 81.28 127.81 81.57 127.49 81.96C127.36 82.12 127.24 82.3 127.11 82.47C126.86 82.81 126.6 83.15 126.35 83.49C125.9 84.11 125.63 84.66 125.46 85.41C125.42 85.58 125.38 85.75 125.34 85.92C125.2 86.51 125.12 87.08 125.14 87.7C125.19 88.52 125.66 89.22 126.3 89.65Z" fill="#EC595A"/>
<path d="M178.029 33.01C178.069 33.18 178.109 33.34 178.189 33.5C178.379 33.9 178.629 34.29 179.059 34.48C179.509 34.68 179.929 34.67 180.409 34.56C180.539 34.53 180.659 34.47 180.779 34.42C181.469 34.35 182.129 34.07 182.569 33.51C183.079 32.87 183.699 32.26 184.029 31.51C184.149 31.23 184.279 30.95 184.419 30.67C184.579 30.35 184.709 30.01 184.769 29.66C184.799 29.49 184.809 29.34 184.809 29.19C184.859 29.03 184.899 28.88 184.949 28.72C185.029 28.46 185.059 28.2 185.049 27.93C185.119 27.59 185.109 27.26 185.019 26.93C185.029 26.9 185.029 26.87 185.039 26.83C185.059 26.71 185.079 26.58 185.079 26.45C185.079 26.38 185.039 26.32 185.019 26.25C185.039 26.17 185.059 26.09 185.079 26.02C185.179 25.64 184.759 25.31 184.409 25.44C184.339 25.46 184.279 25.49 184.209 25.51C184.159 25.5 184.119 25.49 184.099 25.49C183.919 25.48 183.759 25.52 183.589 25.57C183.539 25.59 183.479 25.61 183.429 25.63C183.149 25.6 182.859 25.61 182.579 25.7C182.449 25.74 182.329 25.81 182.199 25.88C181.919 25.96 181.639 26.08 181.369 26.27C181.259 26.35 181.139 26.43 181.029 26.51C180.799 26.6 180.579 26.69 180.379 26.84C180.079 27.06 179.819 27.34 179.569 27.62C179.199 28.04 178.739 28.5 178.499 29.01C178.349 29.32 178.239 29.66 178.119 29.99C177.999 30.34 177.779 30.79 177.729 31.12C177.629 31.77 177.719 32.44 178.029 33.01Z" fill="#EC595A"/>
<path d="M163.73 25C164.76 25.69 166.21 25.7 167.2 24.92C167.59 24.61 167.95 24.28 168.28 23.91C168.47 23.7 168.66 23.49 168.85 23.29C169.5 22.92 170.05 22.38 170.37 21.7C170.6 21.2 170.88 20.6 170.94 20.08C171 19.57 171.07 19.04 171.02 18.53C171.06 18.04 171.1 17.58 170.91 17.09C170.89 17.04 170.86 17 170.84 16.95C170.69 15.65 169.26 14.61 167.97 15.14C167.94 15.15 167.92 15.16 167.89 15.17C167.36 15.22 166.88 15.43 166.41 15.69C166.36 15.72 166.3 15.75 166.25 15.78C165.4 16.17 164.66 16.73 164.07 17.47C163.53 18.14 163.17 18.99 163.12 19.86C163.07 19.99 163.02 20.13 162.96 20.26C162.77 20.74 162.56 21.23 162.46 21.74C162.21 23.02 162.65 24.27 163.73 25Z" fill="#EC595A"/>
<path d="M141.57 42.12C142.09 42.58 142.87 42.66 143.51 42.46C143.72 42.4 143.93 42.31 144.14 42.22C144.5 42.19 144.84 42.1 145.19 41.92C145.71 41.66 146.1 41.25 146.49 40.83C146.76 40.54 147.03 40.24 147.3 39.95C147.53 39.77 147.75 39.58 147.93 39.36C148.2 39.02 148.42 38.62 148.65 38.25C148.9 37.85 149.1 37.47 149.29 37.04C149.47 36.65 149.64 36.26 149.82 35.86C149.94 35.59 150.05 35.32 150.15 35.03C150.25 34.74 150.27 34.46 150.27 34.18C150.33 33.87 150.39 33.57 150.37 33.24C150.35 33.05 150.31 32.87 150.26 32.69C150.26 32.84 150.26 32.86 150.26 32.76C150.26 32.62 150.23 32.48 150.18 32.34C150.17 32.32 150.16 32.31 150.15 32.29C150.36 31.66 149.57 31.23 149.06 31.47C148.93 31.46 148.8 31.46 148.66 31.48C148.32 31.45 147.98 31.46 147.68 31.6C147.56 31.65 147.45 31.7 147.34 31.76C146.59 31.93 145.95 32.48 145.34 32.97C144.65 33.53 143.98 34.07 143.37 34.71C142.75 35.36 142.41 36.14 141.93 36.88C141.75 37.15 141.57 37.42 141.4 37.7C141 38.34 140.86 39.1 140.99 39.84C140.98 39.94 140.96 40.03 140.95 40.13C140.86 40.87 141 41.63 141.57 42.12Z" fill="#EC595A"/>
<path d="M130.14 25.39C130.16 25.66 130.22 25.94 130.3 26.21C130.29 26.35 130.27 26.48 130.26 26.62C130.22 27.27 130.35 27.86 130.51 28.48C130.69 29.15 131.37 29.67 132.03 29.81C132.79 29.97 133.44 29.67 133.98 29.15C134.11 29.02 134.25 28.9 134.38 28.77C134.49 28.66 134.78 28.18 134.86 28.06C134.87 28.06 134.87 28.05 134.88 28.05C134.87 28.07 134.86 28.11 134.82 28.19C134.65 28.55 134.86 28.15 134.95 28.02C135.17 27.89 135.39 27.75 135.59 27.56C136.03 27.17 136.33 26.66 136.64 26.16C136.75 26 136.87 25.85 137 25.7C137.32 25.38 137.62 25.03 137.86 24.61C137.98 24.39 138.09 24.16 138.21 23.95C138.39 23.63 138.58 23.33 138.78 23.03C138.91 22.85 139.04 22.66 139.17 22.49C139.55 21.99 139.83 21.54 140.05 21.02C140.04 21.04 140.03 21.07 140.02 21.1C140.1 20.93 140.2 20.77 140.3 20.61C140.3 20.61 140.31 20.59 140.33 20.57C140.34 20.56 140.34 20.55 140.35 20.54C140.66 20.1 140.92 19.69 141.04 19.19C141.34 18.71 141.54 18.13 141.4 17.57C141.48 17.02 141.14 16.54 140.63 16.34C140.14 15.89 139.38 15.85 138.77 16C138.52 15.95 138.2 16 138 16.05C137.74 16.1 137.61 16.14 137.39 16.24C136.81 16.5 136.24 16.79 135.67 17.09C135.9 16.97 136.14 16.85 136.37 16.73C135.73 17 135.17 17.24 134.64 17.7C134.12 18.16 133.6 18.61 133.12 19.1C132.2 20.03 131.23 21.09 130.93 22.4C130.81 22.69 130.69 22.98 130.58 23.28C130.33 24.01 130.08 24.58 130.14 25.39Z" fill="#EC595A"/>
<path d="M121.02 55.38C121.08 55.79 121.16 56.19 121.26 56.59C121.37 56.81 121.48 57.02 121.59 57.24C121.75 57.42 121.91 57.6 122.06 57.77C122.53 58.18 123.1 58.39 123.71 58.43C124.23 58.46 124.68 58.37 125.14 58.14C125.66 57.87 126.14 57.46 126.4 56.91C126.43 56.84 126.48 56.77 126.52 56.7C126.94 56.36 127.31 55.94 127.53 55.42C127.61 55.23 127.68 55.04 127.77 54.85C127.91 54.54 128.04 54.27 128.15 53.94C128.18 53.85 128.2 53.76 128.23 53.67C128.4 53.28 128.59 52.9 128.82 52.55C128.79 52.59 128.76 52.63 128.74 52.68C128.93 52.38 129.09 52.08 129.17 51.69C129.23 51.39 129.24 51.09 129.21 50.8C129.38 49.68 128.58 48.51 127.46 48.31C127.4 48.3 127.35 48.3 127.29 48.29C126.89 48.14 126.43 48.06 126.03 48.11C125.45 48.18 124.99 48.37 124.48 48.66C124.33 48.75 124.18 48.84 124.03 48.94C123.75 49.12 123.5 49.33 123.25 49.55C122.88 49.85 122.47 50.14 122.17 50.49C121.86 50.84 121.61 51.28 121.39 51.7C121.3 51.88 121.21 52.07 121.13 52.26C120.84 52.95 120.67 53.49 120.72 54.25C120.75 54.63 120.86 55.01 121.02 55.38Z" fill="#EC595A"/>
<path d="M124.48 69.44C124.49 69.53 124.51 69.62 124.52 69.71C124.53 69.97 124.6 70.21 124.73 70.43C124.82 70.66 124.97 70.85 125.16 71.01C125.29 71.1 125.43 71.19 125.56 71.28C125.87 71.43 126.19 71.49 126.53 71.47C126.62 71.47 126.71 71.47 126.8 71.47C127.28 71.47 127.71 71.27 128.11 71.02L128.14 71C128.24 70.98 128.34 70.95 128.48 70.9C128.72 70.79 128.95 70.67 129.18 70.55C129.5 70.35 129.74 70.09 129.92 69.77C130.05 69.58 130.11 69.5 130.18 69.32C130.27 69.09 130.37 68.86 130.46 68.63C130.66 68.22 130.75 67.79 130.72 67.33C130.7 67.1 130.66 66.87 130.58 66.66C130.58 66.18 130.4 65.71 130.03 65.38C129.65 65.05 129.13 64.93 128.64 65.01C128.44 64.97 128.23 64.96 128.02 64.97C127.56 65 127.15 65.15 126.77 65.4L126.14 65.78C125.47 66.19 124.93 66.9 124.81 67.68C124.8 67.79 124.8 67.9 124.79 68.01C124.78 68.03 124.77 68.04 124.77 68.06C124.67 68.28 124.57 68.5 124.53 68.74C124.52 68.94 124.5 69.14 124.49 69.35C124.47 69.39 124.48 69.41 124.48 69.44Z" fill="#EC595A"/>
<path d="M102.98 81.87C103.02 82.26 103.16 82.61 103.4 82.93C103.69 83.37 104.04 83.67 104.51 83.9C104.75 83.98 104.99 84.06 105.22 84.15C105.61 84.24 106 84.24 106.38 84.12C106.64 84.1 106.88 84.02 107.1 83.87C107.45 83.73 107.75 83.51 107.99 83.21C108.1 83.11 108.21 83 108.32 82.9C108.62 82.62 108.78 82.35 109.02 81.97C109.19 81.71 109.35 81.44 109.51 81.18C109.67 80.93 109.77 80.66 109.89 80.38C109.95 80.23 110.02 80.08 110.08 79.93C110.24 79.52 110.39 79.11 110.34 78.66C110.35 78.61 110.37 78.56 110.38 78.51C110.45 78.17 110.45 77.8 110.33 77.46C110.24 77.19 110.01 76.69 109.71 76.56C109.31 76.38 108.93 76.21 108.47 76.24C108.2 76.26 108.05 76.31 107.84 76.4C107.82 76.41 107.79 76.42 107.77 76.43C107.34 76.48 106.96 76.63 106.59 76.84C106.47 76.91 106.33 77 106.19 77.08C105.92 77.24 105.65 77.39 105.41 77.58C105.18 77.77 104.96 77.96 104.73 78.15C104.43 78.4 104.12 78.65 103.9 78.97C103.8 79.11 103.7 79.24 103.61 79.38C103.47 79.58 103.33 79.79 103.2 80C103.01 80.35 102.92 80.72 102.93 81.1C102.87 81.36 102.89 81.62 102.98 81.87Z" fill="#EC595A"/>
<path d="M98.3298 63.7C98.2998 63.64 98.2898 63.67 98.3298 63.79C98.4798 64.47 99.3398 64.94 99.9898 64.88C100.01 64.88 100.01 64.88 100.02 64.88C99.9898 64.88 99.9598 64.88 99.9298 64.88C99.9598 64.88 99.9998 64.88 100.03 64.88C100.13 64.87 100.11 64.88 100.04 64.88C100.43 64.92 100.82 64.91 101.21 64.79C101.65 64.65 102.02 64.36 102.36 64.07C102.58 63.88 102.79 63.7 103.01 63.51C103.54 63.05 103.86 62.65 104.25 62.07C104.95 61.01 105.58 59.93 106.2 58.82C106.48 58.31 106.81 57.79 107.05 57.26C107.16 57.02 107.21 56.75 107.31 56.5C107.32 56.47 107.32 56.47 107.32 56.46C107.33 56.45 107.33 56.45 107.36 56.42C107.54 56.19 107.67 55.79 107.79 55.52C108.04 54.96 108.11 54.52 107.97 53.92C108.02 54.15 107.98 54.36 108.09 54.05C108.15 53.89 108.17 53.69 108.16 53.52C108.14 52.82 108.36 52.12 108.63 51.48C108.68 51.37 108.55 51.23 108.44 51.32C108.13 51.59 107.89 51.81 107.53 51.98C107.29 52.09 107.07 52.24 106.85 52.38C106.64 52.41 106.44 52.46 106.23 52.58C106.15 52.63 106.06 52.69 105.98 52.74C105.73 52.77 105.49 52.85 105.25 53.01C105 53.17 104.76 53.43 104.55 53.63C104.35 53.82 104.15 54.05 103.93 54.22C103.85 54.27 103.63 54.41 103.61 54.42C102.7 55.12 101.95 56.11 101.17 56.94C100.81 57.32 100.47 57.71 100.14 58.12C99.7198 58.65 99.1998 59.18 98.8898 59.79C98.6598 60.25 98.4698 60.75 98.2898 61.23C98.1098 61.71 97.9698 62.17 98.0098 62.69C98.0298 63.05 98.1498 63.39 98.3298 63.7Z" fill="#EC595A"/>
<path d="M112.07 33.6C112.11 33.81 112.16 34.01 112.2 34.21C112.43 35.19 113.83 35.56 114.59 35C114.85 34.8 115.14 34.62 115.35 34.37C115.51 34.18 115.65 33.97 115.81 33.77C116.07 33.44 116.34 33.1 116.64 32.8C116.95 32.55 117.26 32.3 117.49 32.01C117.84 31.57 118.1 31.05 118.41 30.59C118.4 30.61 118.38 30.63 118.37 30.65C118.47 30.49 118.57 30.33 118.64 30.16C118.73 29.96 118.83 29.76 118.93 29.56C119.02 29.38 119.12 29.21 119.21 29.03C119.42 28.6 119.5 28.13 119.48 27.66C119.58 27.39 119.73 27.09 119.75 26.81C119.79 26.29 119.74 25.86 119.38 25.46C119.06 25.1 118.6 24.88 118.1 24.93C117.61 24.98 117.21 25.2 116.77 25.39C116.24 25.45 115.73 25.65 115.3 26.02C114.92 26.35 114.54 26.69 114.18 27.04C113.8 27.41 113.53 27.85 113.24 28.3C112.93 28.77 112.66 29.2 112.55 29.77C112.43 30.38 112.33 31 112.22 31.62C112.16 31.93 112.11 32.25 112.07 32.57C112.02 32.91 111.99 33.25 112.07 33.6Z" fill="#EC595A"/>
</g>
<defs>
<linearGradient id="paint0_linear" x1="107.209" y1="108.453" x2="-53.6331" y2="-55.3451" gradientUnits="userSpaceOnUse">
<stop stop-color="#F10087"/>
<stop offset="1" stop-color="#EBAD4F"/>
</linearGradient>
<clipPath id="clip0">
<rect width="79.37" height="79.37" fill="white" transform="translate(79.3701) rotate(90)"/>
</clipPath>
<clipPath id="clip1">
<rect width="87.1" height="79.06" fill="white" transform="translate(98 15)"/>
</clipPath>
</defs>
</svg>
