<svg width="40" height="41" viewBox="0 0 40 41" fill="none" xmlns="http://www.w3.org/2000/svg">
<g clip-path="url(#clip0)">
<path d="M38.0524 7.51215L31.0993 0.559028C30.9528 0.412544 30.7541 0.3302 30.5469 0.3302H8.75C8.31852 0.3302 7.96875 0.680044 7.96875 1.11145V26.3114C4.45805 26.7012 1.71875 29.686 1.71875 33.299C1.71875 37.176 4.87297 40.3302 8.75 40.3302H37.5C37.9315 40.3302 38.2812 39.9804 38.2812 39.549V8.06458C38.2812 7.85739 38.1989 7.65872 38.0524 7.51215ZM31.3281 2.99754L35.6138 7.28333H31.3281V2.99754ZM3.28125 33.299C3.28125 30.2835 5.73453 27.8302 8.75 27.8302C11.7655 27.8302 14.2188 30.2835 14.2188 33.299C14.2188 36.3144 11.7655 38.7677 8.75 38.7677C5.73453 38.7677 3.28125 36.3144 3.28125 33.299ZM13.164 38.7677C14.7592 37.4776 15.7812 35.5056 15.7812 33.299C15.7812 29.686 13.042 26.7012 9.53125 26.3114V1.8927H29.7656V8.06458C29.7656 8.49598 30.1154 8.84583 30.5469 8.84583H36.7188V38.7677H13.164Z" fill="#171717"/>
<path d="M32.7932 26.892H17.7402C17.3088 26.892 16.959 27.2418 16.959 27.6732C16.959 28.1046 17.3088 28.4545 17.7402 28.4545H32.7932C33.2247 28.4545 33.5745 28.1046 33.5745 27.6732C33.5745 27.2418 33.2247 26.892 32.7932 26.892Z" fill="#EC595A"/>
<path d="M13.125 8.4552H15.5326C15.9641 8.4552 16.3138 8.10536 16.3138 7.67395C16.3138 7.24254 15.9641 6.8927 15.5326 6.8927H13.125C12.6935 6.8927 12.3438 7.24254 12.3438 7.67395C12.3438 8.10536 12.6935 8.4552 13.125 8.4552Z" fill="#EC595A"/>
<path d="M19.9072 8.4552H24.7867C25.2182 8.4552 25.568 8.10536 25.568 7.67395C25.568 7.24254 25.2182 6.8927 24.7867 6.8927H19.9072C19.4757 6.8927 19.126 7.24254 19.126 7.67395C19.126 8.10536 19.4757 8.4552 19.9072 8.4552Z" fill="#EC595A"/>
<path d="M32.7929 31.8916H20.1299C19.6984 31.8916 19.3486 32.2414 19.3486 32.6729C19.3486 33.1043 19.6984 33.4541 20.1299 33.4541H32.7929C33.2244 33.4541 33.5742 33.1043 33.5742 32.6729C33.5742 32.2414 33.2244 31.8916 32.7929 31.8916Z" fill="#EC595A"/>
<path d="M32.7933 11.8931H26.4748C26.0433 11.8931 25.6935 12.2429 25.6935 12.6743C25.6935 13.1057 26.0433 13.4556 26.4748 13.4556H32.012V21.8923H13.9062V13.4556H19.4435C19.875 13.4556 20.2248 13.1057 20.2248 12.6743C20.2248 12.2429 19.875 11.8931 19.4435 11.8931H13.125C12.6935 11.8931 12.3438 12.2429 12.3438 12.6743V22.6735C12.3438 23.1049 12.6935 23.4548 13.125 23.4548H32.7933C33.2248 23.4548 33.5745 23.1049 33.5745 22.6735V12.6743C33.5745 12.2428 33.2248 11.8931 32.7933 11.8931Z" fill="#EC595A"/>
<path d="M22.4066 12.1216C22.2605 12.2677 22.1777 12.4685 22.1777 12.674C22.1777 12.8802 22.2605 13.081 22.4066 13.2271C22.552 13.3723 22.7535 13.456 22.959 13.456C23.1645 13.456 23.366 13.3724 23.5113 13.2271C23.6566 13.081 23.7402 12.8802 23.7402 12.674C23.7402 12.4685 23.6566 12.2677 23.5113 12.1216C23.366 11.9763 23.1645 11.8927 22.959 11.8927C22.7527 11.8927 22.5512 11.9762 22.4066 12.1216Z" fill="#EC595A"/>
<path d="M10.9988 32.7836C11.3038 32.4785 11.3038 31.9839 10.9988 31.6787C10.6937 31.3737 10.199 31.3737 9.89392 31.6787L8.31096 33.2617L7.60619 32.557C7.30111 32.252 6.80643 32.252 6.50127 32.557C6.19619 32.8621 6.19619 33.3567 6.50127 33.6619L7.75853 34.9192C7.90502 35.0657 8.10377 35.148 8.31096 35.148C8.51814 35.148 8.71689 35.0657 8.86338 34.9192L10.9988 32.7836Z" fill="#EC595A"/>
</g>
<defs>
<clipPath id="clip0">
<rect width="40" height="40" fill="white" transform="translate(0 0.3302)"/>
</clipPath>
</defs>
</svg>
