<svg width="80" height="84" viewBox="0 0 80 84" fill="none" xmlns="http://www.w3.org/2000/svg">
<path d="M37.7267 47.3371C35.4489 44.9142 32.1319 35.7175 29.8015 27.6603C28.3254 22.7612 25.197 10.976 26.9244 8.40475C27.3343 7.76106 28.1309 7.5288 28.8712 7.86632C40.7303 12.5632 65.5713 32.9583 73.4791 41.3698C76.1008 44.1584 76.7339 45.3717 76.0546 46.2687C75.7833 46.6099 75.0572 47.637 66.1955 48.6478C57.0684 49.7361 41.3542 50.3858 38.0706 47.7028C37.9846 47.6114 37.8557 47.4742 37.7267 47.3371ZM28.3484 9.64957C27.8802 10.951 28.5852 16.9193 31.5276 27.1571C34.1416 36.3257 37.3098 44.2843 39.0289 46.1129C39.0719 46.1586 39.1578 46.2501 39.2008 46.2958C40.7557 47.5898 47.9579 48.0529 57.468 47.5519C66.4508 47.0299 72.7191 45.9597 74.2733 45.2737C74.0622 44.8692 73.5074 44.0991 72.1321 42.6362C64.3532 34.3618 40.1178 14.4309 28.3484 9.64957Z" fill="#FDB092"/>
<path d="M8.51133 43.9724C7.26498 42.6466 6.45418 41.5143 6.25084 40.7581C4.70041 35.2401 22.9212 14.4934 26.5736 10.3708C26.8898 9.98735 27.5069 9.92395 27.8937 10.3354C28.2824 10.6589 28.3568 11.2779 27.9527 11.6578C19.7031 20.8774 7.04043 36.8294 8.01995 40.3006C8.4677 41.9465 15.1914 48.1988 29.1713 58.4805C40.9868 67.1798 50.6593 73.3296 52.3232 73.66C54.651 73.7967 65.129 59.2097 73.5626 45.5972C73.8359 45.1681 74.41 45.059 74.8436 45.3403C75.2772 45.6216 75.3965 46.1984 75.1233 46.6275C75.0784 46.6697 70.519 54.0563 65.5261 61.1616C55.0853 76.0582 52.9839 75.6224 51.9762 75.4502C48.3847 74.779 17.3217 53.344 8.51133 43.9724Z" fill="#FDB092"/>
<path d="M6.41861 41.1163C6.28967 40.9791 6.20564 40.7998 6.16651 40.5782C6.09017 40.0471 6.45131 39.6215 6.93752 39.5089L33.6628 36.0859C34.192 36.019 34.6237 36.3883 34.745 36.8771C34.8213 37.4082 34.4602 37.8338 33.9739 37.9464L7.24672 41.4573C6.93818 41.489 6.63349 41.3449 6.41861 41.1163Z" fill="#FDB092"/>
<path d="M51.9981 74.4832C51.8691 74.3461 51.7851 74.1667 51.746 73.9451L48.1543 49.1608C48.0779 48.6298 48.4391 48.2041 48.9253 48.0915C49.4545 48.0246 49.8862 48.3938 50.0074 48.8827L53.5991 73.667C53.6755 74.198 53.3143 74.6237 52.8281 74.7363C52.4747 74.8102 52.17 74.6661 51.9981 74.4832Z" fill="#FDB092"/>
</svg>
