<svg width="261" height="244" viewBox="0 0 261 244" fill="none" xmlns="http://www.w3.org/2000/svg">
<path fill-rule="evenodd" clip-rule="evenodd" d="M131.302 10.8029C155.3 13.4665 179.014 14.9984 200.17 26.6661C223.739 39.6647 250.97 54.4157 257.72 80.5243C264.421 106.437 243.099 130.039 233.341 154.956C224.332 177.958 221.869 204.748 202.894 220.518C183.395 236.725 156.582 238.23 131.302 239.764C104.414 241.397 76.2557 243.446 53.1207 229.611C28.8708 215.109 7.98277 191.3 3.51518 163.345C-0.757513 136.609 22.7204 114.802 30.6356 88.9146C38.7585 62.3479 28.4722 27.0477 50.3884 10.0418C72.2547 -6.9253 103.821 7.75278 131.302 10.8029Z" fill="#EC595A" stroke="black" stroke-width="3"/>
<path fill-rule="evenodd" clip-rule="evenodd" d="M152.517 13.5721C180.233 11.5152 212.398 -0.502675 233.77 17.2487C255.195 35.0436 250.069 68.8187 252.429 96.5564C254.257 118.035 253.767 139.243 245.86 159.298C238.338 178.377 224.451 193.18 209.009 206.685C192.019 221.544 175.095 240.787 152.517 240.933C129.912 241.079 115.921 217.091 95.4929 207.418C67.8592 194.333 28.795 200.237 12.2734 174.525C-4.30177 148.73 3.93496 112.763 16.7831 84.9265C28.8508 58.7812 54.0835 42.097 79.5846 28.6913C102.109 16.8504 127.136 15.4557 152.517 13.5721Z" stroke="#FFF7DD" stroke-width="4.26667"/>
<path fill-rule="evenodd" clip-rule="evenodd" d="M152.517 13.5721C180.233 11.5152 212.398 -0.502675 233.77 17.2487C255.195 35.0436 250.069 68.8187 252.429 96.5564C254.257 118.035 253.767 139.243 245.86 159.298C238.338 178.377 224.451 193.18 209.009 206.685C192.019 221.544 175.095 240.787 152.517 240.933C129.912 241.079 115.921 217.091 95.4929 207.418C67.8592 194.333 28.795 200.237 12.2734 174.525C-4.30177 148.73 3.93496 112.763 16.7831 84.9265C28.8508 58.7812 54.0835 42.097 79.5846 28.6913C102.109 16.8504 127.136 15.4557 152.517 13.5721Z" stroke="url(#paint0_linear)" stroke-width="4.26667"/>
<defs>
<linearGradient id="paint0_linear" x1="128.156" y1="7.68889" x2="128.156" y2="240.933" gradientUnits="userSpaceOnUse">
<stop stop-color="#EC595A"/>
<stop offset="1" stop-color="white" stop-opacity="0"/>
</linearGradient>
</defs>
</svg>
