<svg width="26" height="31" viewBox="0 0 26 31" fill="none" xmlns="http://www.w3.org/2000/svg">
<path d="M25.6629 8.10689C25.6629 8.07683 25.6329 8.04677 25.6329 8.04677C25.6028 7.98665 25.5728 7.92653 25.5427 7.89647L25.5126 7.86641L17.5467 0.351381C17.4866 0.291261 17.4265 0.261201 17.3664 0.231141C17.3363 0.231141 17.3363 0.231141 17.3062 0.201081C17.2461 0.171021 17.186 0.171021 17.1259 0.171021H17.0958H3.77918C1.85533 0.171021 0.322266 1.73415 0.322266 3.62793V26.7141C0.322266 28.638 1.88539 30.171 3.77918 30.171H22.206C24.1299 30.171 25.6629 28.6079 25.6629 26.7141V8.31731C25.6629 8.28725 25.6629 8.28725 25.6629 8.28725C25.693 8.22713 25.6629 8.16701 25.6629 8.10689ZM17.7571 2.39547L23.3483 7.65599H17.7571V2.39547V2.39547ZM24.3403 26.7442C24.3704 27.9165 23.4084 28.8784 22.2361 28.8784H3.77918C2.60683 28.8784 1.64491 27.9165 1.64491 26.7442V3.65799C1.64491 2.48565 2.60683 1.52373 3.77918 1.52373H16.4044V8.31731C16.4044 8.67803 16.705 8.97863 17.0658 8.97863H24.3403V26.7442Z" fill="#171717"/>
<path d="M11.0245 6.84433H4.95234C4.59162 6.84433 4.29102 7.14493 4.29102 7.50565C4.29102 7.86638 4.59162 8.16698 4.95234 8.16698H11.0245C11.3852 8.16698 11.6858 7.86638 11.6858 7.50565C11.6858 7.14493 11.3852 6.84433 11.0245 6.84433Z" fill="#EC595A"/>
<path d="M20.0125 12.0748H4.95234C4.59162 12.0748 4.29102 12.3754 4.29102 12.7361C4.29102 13.0968 4.59162 13.3974 4.95234 13.3974H20.0125C20.3732 13.3974 20.6738 13.0968 20.6738 12.7361C20.6738 12.3754 20.3732 12.0748 20.0125 12.0748Z" fill="#EC595A"/>
<path d="M20.0125 16.4636H4.95234C4.59162 16.4636 4.29102 16.7642 4.29102 17.1249C4.29102 17.4856 4.59162 17.7862 4.95234 17.7862H20.0125C20.3732 17.7862 20.6738 17.4856 20.6738 17.1249C20.6738 16.7642 20.3732 16.4636 20.0125 16.4636Z" fill="#EC595A"/>
<path d="M20.0125 20.8223H4.95234C4.59162 20.8223 4.29102 21.1229 4.29102 21.4836C4.29102 21.8443 4.59162 22.1449 4.95234 22.1449H20.0125C20.3732 22.1449 20.6738 21.8443 20.6738 21.4836C20.6738 21.1229 20.3732 20.8223 20.0125 20.8223Z" fill="#EC595A"/>
</svg>
