<svg width="85" height="86" viewBox="0 0 85 86" fill="none" xmlns="http://www.w3.org/2000/svg">
<g clip-path="url(#clip0)">
<path d="M42.4993 27.5774C34.1693 27.5774 27.3926 34.3542 27.3926 42.6842C27.3926 45.617 28.2336 48.3566 29.6858 50.6765C29.7299 50.7621 29.783 50.8443 29.8431 50.9228C32.5419 55.0545 37.2068 57.7909 42.4993 57.7909C50.8293 57.7909 57.6061 51.014 57.6061 42.6842C57.6061 34.3543 50.8293 27.5774 42.4993 27.5774ZM31.5901 47.1402C31.0262 45.7646 30.7127 44.2606 30.7127 42.6842C30.7129 36.185 36.0002 30.8977 42.4993 30.8977C46.4762 30.8977 49.9966 32.8794 52.1322 35.9052L43.0145 45.023L39.5348 41.5435C38.8863 40.8952 37.8355 40.8953 37.1868 41.5435L31.5901 47.1402ZM42.4993 54.4706C38.8032 54.4706 35.5005 52.759 33.3378 50.0883L38.3609 45.0651L41.8406 48.5447C42.489 49.193 43.5399 49.1928 44.1885 48.5447L53.7032 39.03C54.0798 40.1811 54.2859 41.4087 54.2859 42.684C54.2858 49.1832 48.9984 54.4706 42.4993 54.4706Z" fill="#EC595A"/>
<path d="M68.0407 41.5389C67.7799 33.426 65.5096 25.4699 61.4346 18.435C57.0961 10.9453 50.8342 4.71028 43.3258 0.404171C42.8144 0.110821 42.1854 0.110821 41.6741 0.404171C34.1658 4.71028 27.9039 10.9453 23.5653 18.4348C19.4902 25.4697 17.22 33.4258 16.9592 41.5387C11.1393 44.0362 7.30469 49.783 7.30469 56.1897V67.9186C7.30469 68.8355 8.04811 69.5787 8.96484 69.5787H33.3593C33.7171 74.5723 35.9034 79.3552 39.4825 82.8817L41.3347 84.7067C41.6578 85.025 42.0788 85.1842 42.5 85.1842C42.9212 85.1842 43.342 85.025 43.6653 84.7067L45.5175 82.8817C49.0966 79.3552 51.2829 74.5725 51.6407 69.5789H56.7773V78.1473C56.7773 79.0642 57.5208 79.8074 58.4375 79.8074C59.3542 79.8074 60.0977 79.0642 60.0977 78.1473V69.5787H76.0352C76.9519 69.5787 77.6953 68.8355 77.6953 67.9186V56.1899C77.6953 49.783 73.8605 44.0362 68.0407 41.5389ZM42.5 3.76964C47.7199 6.91049 52.182 11.02 55.7105 15.7897H29.2895C32.818 11.02 37.2801 6.91049 42.5 3.76964ZM10.625 66.2584V56.1897C10.625 51.6251 13.0837 47.4835 16.9336 45.2586V64.5983C16.9336 65.1803 17.0349 65.7388 17.2191 66.2584H10.625ZM43.1871 80.5165L42.5 81.1935L41.8129 80.5165C38.8629 77.6101 37.0404 73.6875 36.69 69.5787H48.3101C47.9594 73.6875 46.1369 77.6101 43.1871 80.5165ZM64.7461 64.5983C64.7461 65.5137 64.0013 66.2584 63.0859 66.2584H21.9141C20.9987 66.2584 20.2539 65.5137 20.2539 64.5983V43.1138C20.2539 37.1024 21.4412 31.2447 23.6453 25.8336H31.1623C32.079 25.8336 32.8225 25.0904 32.8225 24.1735C32.8225 23.2566 32.079 22.5133 31.1623 22.5133H25.1535C25.7371 21.3525 26.3698 20.2171 27.0489 19.11H57.9511C62.3148 26.2244 64.7461 34.5116 64.7461 43.1138V64.5983ZM74.375 66.2584H67.7809C67.9651 65.7388 68.0664 65.1803 68.0664 64.5983V45.2588C71.9163 47.4835 74.375 51.6251 74.375 56.1899V66.2584Z" fill="#171717"/>
<path d="M38.3611 22.9997C38.0524 22.6909 37.6241 22.5133 37.1875 22.5133C36.7509 22.5133 36.3226 22.6909 36.0138 22.9997C35.705 23.3085 35.5273 23.7368 35.5273 24.1735C35.5273 24.6101 35.7048 25.0384 36.0138 25.3472C36.3227 25.656 36.7509 25.8336 37.1875 25.8336C37.6241 25.8336 38.0524 25.656 38.3611 25.3472C38.6699 25.0384 38.8477 24.6101 38.8477 24.1735C38.8477 23.7368 38.67 23.3085 38.3611 22.9997Z" fill="#171717"/>
<path d="M26.5625 74.0199C25.6458 74.0199 24.9023 74.7631 24.9023 75.68V80.7943C24.9023 81.7112 25.6458 82.4545 26.5625 82.4545C27.4792 82.4545 28.2227 81.7112 28.2227 80.7943V75.68C28.2227 74.7631 27.4792 74.0199 26.5625 74.0199Z" fill="#171717"/>
<path d="M59.6111 82.3503C59.3024 82.0415 58.8741 81.8639 58.4375 81.8639C58.0009 81.8639 57.5726 82.0415 57.2638 82.3503C56.955 82.6591 56.7773 83.0874 56.7773 83.524C56.7773 83.9607 56.9548 84.389 57.2638 84.6978C57.5727 85.0066 58.0009 85.1842 58.4375 85.1842C58.8741 85.1842 59.3024 85.0066 59.6111 84.6978C59.9199 84.389 60.0977 83.9607 60.0977 83.524C60.0977 83.0874 59.92 82.6591 59.6111 82.3503Z" fill="#171717"/>
</g>
<defs>
<clipPath id="clip0">
<rect width="85" height="85" fill="white" transform="translate(0 0.184204)"/>
</clipPath>
</defs>
</svg>
