<svg width="88" height="56" viewBox="0 0 88 56" fill="none" xmlns="http://www.w3.org/2000/svg">
<g clip-path="url(#clip0)">
<path d="M86.1273 51.8775C73.1097 50.8775 59.9843 52.1475 47.3166 55.6275C46.4194 55.8775 45.7107 54.8575 46.2848 53.9875C48.438 50.6875 50.645 47.4575 53.4979 44.8975C48.8507 42.0775 43.8536 40.1075 38.7219 38.6375C28.7366 35.7875 18.4283 34.6275 8.4789 31.6075C5.69773 30.7675 -0.411873 29.4175 0.036705 24.8975C0.28791 22.4275 2.66536 21.3375 4.49554 20.6175C5.99379 20.0275 7.53689 19.6775 9.1069 19.5075C7.79707 18.0675 6.92683 16.1775 8.17387 14.3975C9.30428 12.7775 11.7984 12.4175 13.485 12.0075C14.8038 11.6875 16.1316 11.4875 17.4684 11.3475C16.1854 9.84746 15.1537 8.08746 14.5078 6.11746C14.2027 5.18746 13.5209 3.32746 13.8977 2.35746C14.2386 1.48746 15.2793 0.917464 16.0509 0.657464C18.2399 -0.0825358 20.5904 0.947464 22.6359 1.76746C25.6683 2.98746 28.6738 4.28746 31.6523 5.68746C42.7052 10.8675 53.6953 17.1175 63.1423 25.4675C65.0263 22.0875 67.4217 19.0575 69.6377 15.9375C69.9876 15.4475 70.7502 15.4675 71.0552 16.0075C77.2545 26.9275 82.5297 38.6175 87.159 50.4975C87.4641 51.2775 86.7733 51.9275 86.1273 51.8775ZM84.8175 49.7375C80.5201 38.8975 75.5409 28.4975 70.176 18.2775C68.1664 20.9775 66.1926 23.7375 63.9049 26.1275C64.2458 26.4375 64.6047 26.7275 64.9456 27.0475C65.0891 27.1775 64.9366 27.4575 64.7751 27.3575C64.3535 27.0975 63.9318 26.8275 63.5101 26.5675C63.232 26.8475 62.8014 26.4975 62.8104 26.1275C54.0631 20.6275 45.3967 14.9875 36.2457 10.3375C31.3204 7.83746 26.3053 5.56746 21.2005 3.57746C20.2226 3.19746 19.2178 2.80746 18.1771 2.70746C17.6298 2.65746 16.7506 2.57746 16.2841 2.97746C15.7099 3.46746 16.0419 4.00746 16.2572 4.75746C17.0377 7.47746 18.5808 9.70747 20.6174 11.4075C21.3082 11.9875 20.9403 13.4175 20.0521 13.4375C17.2172 13.4875 14.418 13.8975 11.6907 14.7675C10.4437 15.1675 8.90953 15.6575 9.88743 17.3475C10.4167 18.2775 11.3049 18.9775 12.1572 19.4875C13.1351 20.0775 12.6596 21.5075 11.6189 21.4575C9.9592 21.3775 8.28152 21.5375 6.66665 21.9775C5.29401 22.3475 3.19468 22.9175 2.23473 24.1475C0.00979614 26.9875 6.03865 28.7975 7.44717 29.2475C12.8929 30.9975 18.4642 32.1375 24.0265 33.2675C34.9897 35.4875 46.2131 37.7075 55.9202 44.1575C56.8802 44.7975 56.1984 46.5275 55.2474 45.9875C52.8789 47.9475 50.9949 50.4275 49.2275 53.0275C60.8994 50.0975 72.8585 48.9875 84.8175 49.7375Z" fill="#EC595A"/>
<path d="M52.2957 36.4174C51.0756 35.3174 49.4786 34.6974 48.0522 34.0074C46.4642 33.2374 44.8583 32.5475 43.2255 31.9075C40.0047 30.6375 36.7211 29.5475 33.4017 28.6374C26.8166 26.8374 19.9175 25.5074 13.1171 25.5974C12.9018 25.5974 12.8928 25.9775 13.1081 26.0075C19.8009 26.9475 26.4039 27.8974 32.9262 29.8774C36.2098 30.8674 39.4395 32.0575 42.6154 33.4075C44.2303 34.0975 45.8272 34.8274 47.4152 35.5774C48.8596 36.2574 50.295 37.1874 51.8292 37.5574C52.3944 37.6974 52.7263 36.8174 52.2957 36.4174Z" fill="#EC595A"/>
<path d="M77.7387 46.0275C76.1238 45.6575 74.4999 45.3075 72.8492 45.2675C71.2164 45.2275 69.5835 45.2675 67.9507 45.3975C66.3179 45.5275 64.6941 45.7275 63.0882 46.1175C61.5092 46.5075 59.8853 46.8975 58.3961 47.6175C58.2077 47.7075 58.2615 48.0375 58.4768 48.0175C60.0558 47.8575 61.6079 47.5075 63.1869 47.3375C64.7748 47.1575 66.3538 46.9575 67.9507 46.8575C69.5118 46.7575 71.0818 46.7375 72.6428 46.7975C74.2936 46.8675 75.9533 46.8075 77.6041 46.8875C78.1065 46.9175 78.25 46.1375 77.7387 46.0275Z" fill="#EC595A"/>
</g>
<defs>
<clipPath id="clip0">
<rect width="87.23" height="55.28" fill="white" transform="matrix(-1 0 0 1 87.2305 0.387451)"/>
</clipPath>
</defs>
</svg>
