<svg width="151" height="279" viewBox="0 0 151 279" fill="none" xmlns="http://www.w3.org/2000/svg">
<path d="M93.0053 43.7626L69.7481 79.9682L56.3516 69.6096L72.786 42.7666L93.0053 43.7626Z" fill="#25383F"/>
<path d="M86.2323 27.1291L76.3217 54.5199C74.2798 54.9681 72.9352 56.0139 72.0886 57.2589C71.3914 58.3048 70.993 59.5 70.7938 60.5956C70.495 62.2889 70.5946 63.9821 71.0428 65.6754C74.2301 78.1257 69.4492 82.3588 65.1662 82.5082C62.2279 82.6078 56.3015 78.4743 54.0106 76.6317C25.3748 53.225 0.623535 50.984 0.623535 50.984L21.9386 0.136719C52.5664 8.55316 76.1723 26.5315 76.1723 26.5315C78.6623 28.2247 80.6544 28.8721 82.1484 29.0215C84.9373 29.2208 86.0829 27.3781 86.2323 27.1291Z" fill="#EC595A"/>
<path d="M143.952 54.2213C143.952 54.2213 133.494 62.3888 127.169 42.767C127.169 42.767 120.845 15.7746 108.593 7.40798C108.593 7.40798 97.8862 -1.35707 91.91 9.89805L75.0273 54.9186C75.0273 54.9186 93.5037 49.1914 101.522 86.0942C101.522 86.0942 104.46 108.007 127.518 103.077L143.952 54.2213Z" fill="#EC595A"/>
<path d="M144.849 42.6172L74.6782 277.431L80.3058 278.825L150.376 44.2607L144.849 42.6172Z" fill="#25383F"/>
</svg>
