<svg width="1387" height="890" viewBox="0 0 1387 890" fill="none" xmlns="http://www.w3.org/2000/svg">
<path d="M136.016 761.306C134.331 760.885 132.646 760.464 130.962 760.043" stroke="#A9C6EA" stroke-miterlimit="10"/>
<path d="M123.802 757.937C92.0039 748.04 61.4694 729.929 40.2005 704.659C-34.5566 615.793 53.046 502.078 140.227 466.279C182.765 448.801 221.091 427.953 233.516 379.519C245.519 333.191 212.668 284.757 204.245 240.534C187.187 151.458 267.209 82.5969 351.864 82.5969C429.779 82.5969 464.736 112.289 542.02 164.093C600.352 203.261 710.065 226.215 794.299 217.791C894.536 207.894 932.441 164.093 1012.46 128.293C1067.43 103.655 1144.29 98.3906 1195.67 134.822C1250.63 173.779 1229.78 250.221 1236.1 307.079C1237.58 321.398 1241.37 335.507 1248.53 347.932C1293.59 427.532 1385.83 431.533 1385.83 549.249C1385.83 634.114 1250.21 667.807 1177.14 678.968" stroke="#A9C6EA" stroke-miterlimit="10" stroke-dasharray="5 5"/>
<path d="M1173.56 679.39C1171.87 679.6 1169.98 679.811 1168.29 680.021" stroke="#A9C6EA" stroke-miterlimit="10"/>
<path d="M114.958 317.397H145.071" stroke="#A9C6EA" stroke-miterlimit="10"/>
<path d="M145.071 334.244H174.974" stroke="#A9C6EA" stroke-miterlimit="10"/>
<path d="M1031.63 186.204H1061.53" stroke="#A9C6EA" stroke-miterlimit="10"/>
<path d="M1012.46 203.05H1042.58" stroke="#A9C6EA" stroke-miterlimit="10"/>
<path d="M1058.37 195.048H1099.01" stroke="#A9C6EA" stroke-miterlimit="10"/>
<path d="M1320.12 542.3H1341.81" stroke="#A9C6EA" stroke-miterlimit="10"/>
<path d="M1300.54 525.664H1330.65" stroke="#A9C6EA" stroke-miterlimit="10"/>
<path d="M327.225 105.129H357.128" stroke="#A9C6EA" stroke-miterlimit="10"/>
<path d="M278.159 467.122H327.646" stroke="#A9C6EA" stroke-miterlimit="10"/>
<path d="M337.965 467.122H363.656" stroke="#A9C6EA" stroke-miterlimit="10"/>
<path d="M914.963 404.157C914.963 409.422 910.54 413.844 905.276 413.844C900.011 413.844 895.589 409.422 895.589 404.157C895.589 398.893 900.011 394.471 905.276 394.471C910.751 394.471 914.963 398.682 914.963 404.157Z" stroke="#A9C6EA" stroke-miterlimit="10"/>
<path d="M1295.91 336.981C1295.91 342.246 1291.49 346.668 1286.22 346.668C1280.96 346.668 1276.53 342.246 1276.53 336.981C1276.53 331.717 1280.96 327.294 1286.22 327.294C1291.7 327.294 1295.91 331.717 1295.91 336.981Z" stroke="#A9C6EA" stroke-miterlimit="10"/>
<path d="M936.021 128.083C936.021 133.347 931.599 137.77 926.334 137.77C921.07 137.77 916.647 133.347 916.647 128.083C916.647 122.818 921.07 118.396 926.334 118.396C931.599 118.396 936.021 122.608 936.021 128.083Z" stroke="#A9C6EA" stroke-miterlimit="10"/>
<path d="M1125.55 142.613C1125.55 145.351 1123.44 147.457 1120.7 147.457C1117.96 147.457 1115.86 145.351 1115.86 142.613C1115.86 139.876 1117.96 137.77 1120.7 137.77C1123.44 137.77 1125.55 139.876 1125.55 142.613Z" stroke="#A9C6EA" stroke-miterlimit="10"/>
<path d="M830.73 504.816C830.73 507.554 828.624 509.66 825.886 509.66C823.148 509.66 821.043 507.554 821.043 504.816C821.043 502.079 823.148 499.973 825.886 499.973C828.413 500.183 830.73 502.289 830.73 504.816Z" stroke="#A9C6EA" stroke-miterlimit="10"/>
<path d="M270.368 159.039C270.368 161.776 268.262 163.882 265.524 163.882C262.787 163.882 260.681 161.776 260.681 159.039C260.681 156.301 262.787 154.195 265.524 154.195C268.051 154.195 270.368 156.301 270.368 159.039Z" stroke="#A9C6EA" stroke-miterlimit="10"/>
<path d="M52.4143 460.383C52.4143 463.121 50.3084 465.226 47.5708 465.226C44.8333 465.226 42.7274 463.121 42.7274 460.383C42.7274 457.645 44.8333 455.54 47.5708 455.54C50.3084 455.54 52.4143 457.645 52.4143 460.383Z" stroke="#A9C6EA" stroke-miterlimit="10"/>
<path d="M289.952 361.62C289.952 364.357 287.846 366.463 285.109 366.463C282.371 366.463 280.265 364.357 280.265 361.62C280.265 358.882 282.371 356.776 285.109 356.776C287.636 356.776 289.952 358.882 289.952 361.62Z" stroke="#A9C6EA" stroke-miterlimit="10"/>
<path d="M141.07 211.895V223.266" stroke="#A9C6EA" stroke-miterlimit="10"/>
<path d="M146.756 217.581H135.384" stroke="#A9C6EA" stroke-miterlimit="10"/>
<path d="M808.829 59.6434V71.0149" stroke="#A9C6EA" stroke-miterlimit="10"/>
<path d="M814.515 65.3291H803.143" stroke="#A9C6EA" stroke-miterlimit="10"/>
<path d="M1168.08 236.112V247.484" stroke="#A9C6EA" stroke-miterlimit="10"/>
<path d="M1173.77 241.798H1162.19" stroke="#A9C6EA" stroke-miterlimit="10"/>
<path d="M1354.66 388.785V400.156" stroke="#A9C6EA" stroke-miterlimit="10"/>
<path d="M1360.35 394.471H1348.97" stroke="#A9C6EA" stroke-miterlimit="10"/>
<path d="M1300.54 589.049V600.421" stroke="#A9C6EA" stroke-miterlimit="10"/>
<path d="M1306.23 594.735H1294.85" stroke="#A9C6EA" stroke-miterlimit="10"/>
<path d="M973.926 462.489C977.506 456.171 980.454 449.222 982.77 441.852C984.876 434.481 986.14 427.111 986.561 419.74L966.345 417.003C966.556 410.264 965.713 403.315 964.029 396.997L983.192 389.838C979.19 375.307 971.82 361.83 961.712 350.669L945.287 363.094C940.654 358.25 935.389 354.039 929.493 350.459L937.916 331.927C931.599 328.347 924.65 325.399 917.279 323.083C909.909 320.977 902.538 319.713 895.168 319.292L892.43 339.508C885.692 339.298 878.953 340.14 872.425 341.825L865.265 322.662C850.735 326.663 837.258 334.033 826.097 344.141L838.521 360.567C833.678 365.199 829.466 370.464 825.886 376.36L807.355 367.937C803.775 374.255 800.827 381.204 798.51 388.574C796.404 395.945 795.141 403.315 794.72 410.685L814.936 413.423C814.725 420.162 815.567 427.111 817.252 433.428L798.089 440.588C802.09 455.118 809.461 468.596 819.569 479.757L835.994 467.332C840.627 472.176 845.891 476.387 851.788 479.967L843.364 498.499C849.682 502.078 856.631 505.027 864.002 507.343C871.372 509.449 878.742 510.712 886.113 511.134L888.85 490.918C895.589 491.128 902.538 490.286 908.856 488.601L916.016 507.764C930.546 503.763 944.023 496.393 955.184 486.285L942.76 469.859C947.603 465.226 951.815 459.962 955.395 454.066L973.926 462.489ZM876.847 461.647C851.156 454.066 836.415 427.321 843.786 401.42C851.367 375.729 878.111 360.988 904.012 368.358C929.914 375.729 944.444 402.683 937.074 428.585C929.493 454.276 902.538 469.017 876.847 461.647ZM880.427 449.433C861.475 443.958 850.524 424.163 855.999 405C861.475 386.047 881.269 375.097 900.432 380.572C919.385 386.047 930.335 405.842 924.86 425.005C919.174 443.958 899.38 454.908 880.427 449.433Z" fill="#E4ECF9"/>
<path d="M994.353 264.962C993.931 261.382 993.3 257.592 992.036 254.012C990.773 250.432 989.299 247.062 987.403 243.904L978.348 248.536C976.453 245.799 974.347 243.272 971.82 240.955L977.717 232.743C972.031 227.899 965.292 224.53 957.922 222.845L954.763 232.532C951.604 231.9 948.235 231.69 944.866 231.9L943.181 222.003C939.601 222.424 935.811 223.056 932.231 224.319C928.651 225.583 925.281 227.057 922.123 228.952L926.755 238.007C924.018 239.903 921.491 242.008 919.174 244.535L910.962 238.639C906.118 244.325 902.749 251.063 901.064 258.434L910.751 261.593C910.119 264.751 909.909 268.121 910.119 271.49L900.222 273.175C900.643 276.755 901.275 280.545 902.538 284.125C903.802 287.705 905.276 291.074 907.171 294.233L916.226 289.6C918.122 292.338 920.227 294.865 922.754 297.181L916.858 305.394C922.544 310.237 929.282 313.607 936.653 315.291L939.812 305.604C942.97 306.236 946.34 306.447 949.709 306.236L951.394 316.134C954.974 315.712 958.764 315.081 962.344 313.817C965.924 312.554 969.293 311.08 972.452 309.184L967.819 300.129C970.557 298.234 973.084 296.128 975.4 293.601L983.613 299.498C988.456 293.812 991.826 287.073 993.51 279.703L983.823 276.544C984.455 273.385 984.666 270.016 984.455 266.647L994.353 264.962ZM953.5 288.126C942.97 291.706 931.599 286.02 928.019 275.281C924.439 264.541 930.125 253.38 940.865 249.8C951.394 246.22 962.765 251.906 966.345 262.646C969.714 273.175 964.029 284.546 953.5 288.126Z" fill="#E4ECF9"/>
<path d="M497.166 196.733C496.745 191.258 495.481 185.572 493.796 180.097C491.901 174.622 489.585 169.357 486.637 164.724L472.738 171.674C470.001 167.251 466.631 163.461 462.841 160.092L471.685 147.457C462.841 140.086 452.522 135.032 441.361 132.295L436.518 147.035C431.675 145.982 426.41 145.561 421.356 145.982L418.618 130.82C413.143 131.242 407.457 132.505 401.982 134.19C396.507 136.085 391.243 138.401 386.61 141.35L393.559 155.248C389.137 157.986 385.346 161.355 381.977 165.146L369.342 156.301C361.971 165.146 356.917 175.464 354.18 186.625L368.921 191.468C367.868 196.312 367.447 201.576 367.868 206.63L352.706 209.368C353.127 214.843 354.39 220.529 356.075 226.004C357.97 231.479 360.287 236.744 363.235 241.377L377.133 234.427C379.871 238.85 383.24 242.64 387.031 246.009L378.186 258.644C387.031 266.015 397.349 271.069 408.51 273.806L413.354 259.066C418.197 260.119 423.462 260.54 428.516 260.119L431.253 275.281C436.729 274.859 442.414 273.596 447.889 271.911C453.365 270.016 458.629 267.7 463.262 264.751L456.313 250.853C460.735 248.115 464.525 244.746 467.895 240.955L480.53 249.8C487.9 240.955 492.954 230.637 495.692 219.476L480.951 214.633C482.004 209.789 482.425 204.525 482.004 199.471L497.166 196.733ZM434.412 232.322C418.197 237.797 400.719 228.952 395.454 212.737C390.19 196.522 398.824 179.044 415.038 173.779C431.253 168.304 448.732 177.149 453.996 193.364C459.261 209.368 450.627 226.846 434.412 232.322Z" fill="#E4ECF9"/>
<path d="M358.602 311.711C360.708 308.131 362.393 304.13 363.656 299.919C364.92 295.707 365.551 291.495 365.762 287.284L354.18 285.599C354.18 281.809 353.759 277.808 352.916 274.228L363.867 270.227C361.55 262.014 357.339 254.433 351.653 248.115L342.387 255.065C339.86 252.327 336.701 249.8 333.543 247.905L338.386 237.376C334.806 235.27 330.805 233.585 326.593 232.322C322.382 231.058 318.17 230.426 313.958 230.216L312.274 241.798C308.483 241.798 304.482 242.219 300.902 243.061L296.901 232.111C288.688 234.427 281.107 238.639 274.79 244.325L281.739 253.59C279.002 256.117 276.475 259.276 274.579 262.435L264.05 257.592C261.944 261.171 260.26 265.173 258.996 269.384C257.733 273.596 257.101 277.808 256.89 282.019L268.472 283.704C268.472 287.494 268.894 291.495 269.736 295.075L258.786 299.076C261.102 307.289 265.314 314.87 270.999 321.188L280.265 314.238C282.792 316.976 285.951 319.503 289.11 321.398L284.266 331.927C287.846 334.033 291.847 335.718 296.059 336.981C300.271 338.245 304.482 338.877 308.694 339.087L310.379 327.505C314.169 327.505 318.17 327.084 321.75 326.242L325.751 337.192C333.964 334.876 341.545 330.664 347.862 324.978L340.913 315.712C343.651 313.185 346.178 310.027 348.073 306.868L358.602 311.711ZM303.64 311.29C289.11 307.079 280.686 291.706 284.898 277.176C289.11 262.646 304.482 254.222 319.012 258.434C333.543 262.646 341.966 278.018 337.754 292.548C333.543 307.079 318.17 315.502 303.64 311.29ZM305.535 304.341C294.795 301.182 288.688 290.021 291.637 279.282C294.795 268.542 305.956 262.435 316.696 265.383C327.436 268.542 333.543 279.703 330.594 290.442C327.646 301.182 316.275 307.5 305.535 304.341Z" fill="#E4ECF9"/>
<path d="M623.516 889.13C629.833 875.863 663.316 817.953 698.694 798.79C703.116 796.263 707.96 794.157 713.014 793.526C718.068 792.894 723.543 794.579 726.702 798.79C729.439 802.581 729.86 807.635 729.018 812.057C722.7 848.277 681.426 862.176 661.21 888.92" fill="#D7E3F4"/>
<path d="M623.516 888.92C623.516 888.92 656.788 823.428 689.007 784.471C704.38 765.939 714.909 731.825 698.694 721.506C675.319 706.765 652.366 739.616 642.047 756.042C626.253 780.891 614.461 808.266 605.406 836.274C604.142 840.275 592.139 888.92 591.928 888.92H599.93H623.516Z" fill="#D7E3F4"/>
<path d="M687.112 740.459C656.577 779.206 631.097 836.274 614.25 889.13" stroke="white" stroke-miterlimit="10"/>
<path d="M554.023 888.92C554.023 888.92 550.233 788.261 505.589 741.512C493.586 728.877 473.791 715.82 457.576 712.24C436.518 707.608 437.15 732.246 440.94 748.25C445.783 768.887 462.841 781.944 475.055 797.316C497.587 825.745 511.064 844.487 527.279 888.709" fill="#B2CDED"/>
<path d="M567.501 888.92C579.504 866.809 575.292 772.678 569.186 743.196C564.974 722.77 556.34 702.764 544.547 686.339C533.807 671.598 502.009 638.747 483.267 652.014C472.317 659.595 488.953 687.392 493.165 695.604C507.274 722.559 518.435 751.409 527.069 780.891C537.177 815.216 544.758 851.225 547.495 887.235C547.495 887.656 547.495 888.078 547.495 888.709" fill="#D7E3F4"/>
<path d="M569.606 888.92C565.605 836.274 568.132 755.2 591.928 709.503C618.883 657.7 654.05 633.693 659.104 653.909C673.845 712.451 614.461 869.967 597.825 888.709" fill="#B2CDED"/>
<path d="M451.68 729.298C499.693 762.78 532.755 826.166 538.861 889.13" stroke="white" stroke-miterlimit="10"/>
<path d="M500.746 669.071C524.331 690.129 536.334 722.98 543.494 754.989C553.392 798.79 558.235 843.855 559.92 889.13" stroke="white" stroke-miterlimit="10"/>
<path d="M643.943 676.231C614.882 742.986 590.454 815.005 586.453 888.92" stroke="white" stroke-miterlimit="10"/>
<path d="M712.382 806.371C712.382 806.371 670.055 834.589 640.363 888.92" stroke="white" stroke-miterlimit="10"/>
<path d="M1146.39 888.92C1152.71 805.74 1145.76 724.033 1177.35 645.065C1186.4 622.743 1206.83 587.365 1235.26 586.101C1279.06 584.206 1252.32 672.23 1244.31 705.291C1239.26 726.56 1231.68 747.619 1223.68 767.835C1209.57 803.844 1188.51 853.963 1172.72 888.92" fill="#B2CDED"/>
<path d="M1123.65 888.92C1109.75 853.542 1096.27 818.164 1082.8 782.786C1070.79 751.409 1056.69 720.664 1046.79 688.655C1039.42 664.228 1020.04 608.002 1048.26 590.734C1098.38 559.989 1138.39 678.968 1143.87 721.296C1150.82 777.1 1149.34 833.115 1150.18 889.13" fill="#D7E3F4"/>
<path d="M1083.64 888.92C1083.64 888.92 1054.37 851.436 1041.1 833.958C1011.62 794.789 975.189 752.251 980.665 708.029C981.928 697.921 985.719 686.549 995.827 680.653C1002.14 677.073 1009.73 676.02 1016.88 676.652C1040.89 678.968 1062.37 713.715 1073.11 731.614C1094.17 766.571 1127.02 888.92 1127.02 888.92" fill="#B2CDED"/>
<path d="M1061.32 615.162C1097.12 687.602 1132.07 821.533 1132.92 888.709" stroke="white" stroke-miterlimit="10"/>
<path d="M1005.72 698.342C1037.1 758.779 1101.12 888.92 1101.12 888.92" stroke="white" stroke-miterlimit="10"/>
<path d="M1233.36 605.264C1207.67 662.543 1172.51 786.787 1158.4 889.13" stroke="white" stroke-miterlimit="10"/>
<path d="M1173.77 888.92C1173.77 888.92 1188.51 823.639 1198.62 786.576C1209.57 746.355 1245.79 684.654 1283.69 667.176C1292.33 663.175 1302.86 660.437 1311.28 665.07C1316.54 667.807 1319.91 673.072 1321.81 678.758C1328.34 697.5 1296.75 757.095 1285.8 773.731C1264.53 806.371 1234 858.385 1209.99 889.13" fill="#D7E3F4"/>
<path d="M1304.33 680.232C1259.48 719.19 1199.46 843.223 1182.82 888.92" stroke="white" stroke-miterlimit="10"/>
<path d="M201.297 848.277C195.611 817.743 186.135 757.516 178.975 720.453C175.605 702.554 165.497 680.653 159.18 663.596C147.598 632.64 119.59 578.731 84.8441 581.468C41.8851 585.048 76.6314 662.543 87.5817 691.603C94.5309 710.345 104.218 728.877 113.905 746.355C131.172 777.521 156.653 821.112 175.605 851.225" fill="#B2CDED"/>
<path d="M226.145 815.426C215.616 787.84 218.564 752.883 218.564 723.823C218.564 671.387 236.885 597.894 271 563.569C285.109 549.46 308.273 533.666 323.435 555.356C337.754 575.783 321.118 631.587 316.064 655.594C305.956 702.554 256.891 789.314 242.781 834.8" fill="#B2CDED"/>
<path d="M298.165 579.152C273.948 641.906 241.307 756.674 233.095 823.428" stroke="white" stroke-miterlimit="10"/>
<path d="M88.424 598.947C119.169 648.223 164.023 754.147 187.819 846.171" stroke="white" stroke-miterlimit="10"/>
<path d="M202.56 781.733C215.406 760.675 230.778 692.025 234.358 667.386C239.202 632.851 239.833 596.42 231.199 562.516C225.514 539.562 198.98 471.123 165.919 501.868C150.335 516.398 152.862 595.577 154.758 616.636C158.338 658.121 179.817 732.457 187.188 773.31" fill="#D7E3F4"/>
<path d="M184.239 519.768C206.982 578.941 201.296 725.928 194.137 777.311" stroke="white" stroke-miterlimit="10"/>
<path d="M0.61084 888.92H1322.65" stroke="#648ACC" stroke-miterlimit="10"/>
<path d="M534.229 293.812C540.757 287.494 556.34 265.804 558.235 266.436C559.92 267.068 554.655 274.649 556.129 274.859C557.603 275.07 566.869 263.909 568.343 264.751C570.659 266.015 560.551 277.176 560.551 277.176C560.551 277.176 572.133 265.594 573.607 267.489C574.66 268.752 566.448 277.808 563.5 281.809C567.079 278.018 573.607 272.332 574.66 273.806C575.713 275.07 570.238 281.387 566.237 286.652C568.975 283.704 574.45 278.65 575.503 279.703C576.556 280.756 563.078 301.393 550.654 316.344" fill="#F886BC"/>
<path d="M451.89 372.359C506.853 325.399 543.705 282.44 543.705 282.44L564.342 296.128C564.342 296.128 529.596 349.827 484.32 396.155" fill="#F886BC"/>
<path d="M435.465 388.153C446.836 373.833 465.578 360.146 465.578 360.146L498.85 387.1L469.579 421.425" fill="#BF2C4C"/>
<path d="M492.954 632.429L475.265 864.492L496.113 877.759C496.113 877.759 438.834 880.707 436.939 878.812C435.044 876.917 439.255 864.071 439.255 864.071L429.779 631.798L492.954 632.429Z" fill="#F886BC"/>
<path d="M445.994 878.812L437.36 870.388L438.624 865.966L451.68 878.812H457.997L480.319 867.861L504.536 883.023C507.274 884.708 506.01 889.13 502.852 889.13L470.422 888.92L460.103 881.76H457.155V888.92H436.097V878.812H445.994Z" fill="#28364C"/>
<path d="M446.626 631.166L394.612 864.492L415.46 877.759C415.46 877.759 358.181 880.707 356.286 878.812C354.39 876.917 358.602 864.071 358.602 864.071L373.764 630.955H446.626V631.166Z" fill="#F886BC"/>
<path d="M365.341 878.812L356.707 870.388L357.97 865.966L371.027 878.812H377.344L399.666 867.861L423.883 883.023C426.62 884.708 425.357 889.13 422.198 889.13L389.768 888.92L379.45 881.76H376.502V888.92H355.443V878.812H365.341Z" fill="#28364C"/>
<path d="M391.874 510.712C363.446 561.042 363.446 654.751 363.446 654.751H496.113C496.113 654.751 494.218 572.413 479.477 526.085L391.874 510.712Z" fill="#101D54"/>
<path d="M436.307 515.345L439.466 654.751" stroke="#273B7A" stroke-width="0.75" stroke-miterlimit="10"/>
<path d="M465.578 521.242C465.578 521.242 458.84 538.299 436.307 544.195" stroke="#273B7A" stroke-width="0.75" stroke-miterlimit="10"/>
<path d="M582.873 461.857C591.507 464.384 618.04 467.543 618.462 469.438C618.883 471.333 609.617 470.281 610.249 471.755C610.881 473.229 625.2 475.756 624.99 477.651C624.779 480.178 610.459 476.809 610.459 476.809C610.459 476.809 626.043 481.231 625.411 483.547C624.779 485.232 612.776 482.284 607.932 481.652C612.986 482.915 620.989 485.864 620.357 487.338C619.725 489.022 611.512 487.127 605.195 486.074C609.196 487.127 616.145 489.233 615.724 490.918C615.303 492.392 594.876 489.444 575.713 486.074" fill="#F886BC"/>
<path d="M426.831 374.676C426.831 374.676 428.937 380.361 440.94 380.361C449.153 380.361 452.312 375.939 452.312 375.939C452.312 375.939 455.47 378.677 488.111 421.636C495.06 430.691 493.586 450.275 482.004 467.332C479.266 484.39 478.213 504.184 479.266 526.085H384.504C384.504 526.085 382.819 458.067 389.347 420.793C393.348 398.893 409.774 381.414 426.831 374.676Z" fill="#E03B5A"/>
<path d="M489.585 404.157C552.76 453.644 596.561 464.384 596.561 464.384L591.507 488.601C591.507 488.601 515.697 478.914 465.789 437.008" fill="#F886BC"/>
<path fill-rule="evenodd" clip-rule="evenodd" d="M452.733 377.624C468.948 380.361 493.796 404.157 493.796 404.157L467.474 442.905C467.474 442.905 456.313 435.113 441.151 422.057" fill="#E03B5A"/>
<path d="M467.474 441.431C447.679 429.427 438.834 420.583 438.834 420.583" stroke="#A31D4A" stroke-width="0.75" stroke-miterlimit="10"/>
<path fill-rule="evenodd" clip-rule="evenodd" d="M459.893 332.77C466.421 343.72 469.158 354.46 459.893 360.146C450.627 365.831 435.886 368.569 426.41 352.986C419.882 342.035 421.988 328.769 431.253 323.083C440.519 317.397 453.365 321.819 459.893 332.77Z" fill="#F886BC"/>
<path d="M452.101 335.507C452.312 336.56 453.364 337.824 454.417 337.824C454.628 337.824 455.049 337.613 455.049 337.403C455.681 335.507 451.469 333.191 452.101 335.507Z" fill="#0B0B3A"/>
<path d="M447.889 334.454C449.574 332.138 451.89 331.085 454.207 330.874" stroke="#0B0B3A" stroke-width="0.5" stroke-miterlimit="10" stroke-linecap="round"/>
<path d="M462.42 345.194L456.313 348.142C456.313 348.142 458.419 353.407 461.788 352.354C464.525 351.722 462.42 345.194 462.42 345.194Z" fill="white"/>
<path fill-rule="evenodd" clip-rule="evenodd" d="M452.733 377.624C452.733 377.624 447.468 380.572 440.94 380.361C431.464 380.151 426.831 376.36 426.831 376.36L433.149 349.406L456.313 351.09L452.733 377.624Z" fill="#F886BC"/>
<path fill-rule="evenodd" clip-rule="evenodd" d="M457.576 333.191C457.576 333.191 465.579 338.455 465.789 339.93C466 341.404 462.63 343.299 462.63 343.299" fill="#F886BC"/>
<path d="M435.465 315.502C434.623 315.923 431.674 315.081 430.622 315.081C429.147 315.081 427.673 315.291 426.199 315.502C417.355 317.187 410.827 324.346 406.615 331.927C403.878 336.771 401.561 342.246 396.718 345.405C385.767 352.354 371.448 349.827 359.234 353.828C346.809 358.04 337.333 370.675 340.703 384.152C341.755 388.574 344.072 392.575 345.546 396.787C348.494 406.053 347.02 416.792 352.706 424.795C354.18 426.9 356.075 428.796 358.181 430.27C367.447 437.219 380.082 439.746 391.243 436.587C402.403 433.428 412.09 425.005 416.302 414.055C421.145 401.841 419.671 387.1 426.831 375.939C430.2 370.675 435.254 366.884 438.624 361.62C441.572 356.776 443.257 347.932 443.678 342.246C443.678 340.982 441.361 329.822 442.204 329.822C447.889 329.822 455.26 326.242 458.629 322.872C453.996 313.817 443.046 311.711 435.465 315.502Z" fill="#0B0B3A"/>
<path d="M441.782 343.931C441.782 343.931 438.413 341.614 436.307 344.984C433.57 349.195 440.308 354.46 443.467 354.67C446.626 354.881 446.626 351.301 446.626 351.301" fill="#F886BC"/>
<path d="M1151.66 277.176H945.497V552.619H1151.66V277.176Z" fill="#D9E4F4" stroke="#648ACC" stroke-miterlimit="10"/>
<path d="M1182.4 277.176H976.242V552.619H1182.4V277.176Z" fill="white" stroke="#648ACC" stroke-miterlimit="10"/>
<path opacity="0.45" d="M1148.29 334.454H1012.04C1007.83 334.454 1004.46 331.085 1004.46 326.873V306.026C1004.46 301.814 1007.83 298.445 1012.04 298.445H1148.29C1152.5 298.445 1155.87 301.814 1155.87 306.026V326.873C1155.87 331.085 1152.5 334.454 1148.29 334.454Z" fill="#D7E3F4"/>
<path opacity="0.45" d="M1084.06 529.665H1012.04C1007.83 529.665 1004.46 526.296 1004.46 522.084V435.955C1004.46 431.744 1007.83 428.374 1012.04 428.374H1084.06C1088.27 428.374 1091.64 431.744 1091.64 435.955V522.084C1091.64 526.296 1088.27 529.665 1084.06 529.665Z" fill="#D7E3F4"/>
<path d="M1015.83 370.253C1015.83 370.253 1014.99 370.253 1011.2 370.253C1007.41 370.253 1004.46 366.252 1004.46 361.409C1004.46 356.566 1007.41 352.565 1011.2 352.565C1011.83 352.565 1015.83 352.565 1015.83 352.565V370.253Z" fill="#B2CDED"/>
<path d="M1022.57 361.62C1022.57 366.463 1019.62 370.464 1015.83 370.464C1012.04 370.464 1009.09 366.463 1009.09 361.62C1009.09 356.776 1012.04 352.775 1015.83 352.775C1019.41 352.775 1022.57 356.776 1022.57 361.62Z" fill="#D7E3F4"/>
<path d="M1060.27 370.253C1060.27 370.253 1059.42 370.253 1055.63 370.253C1051.84 370.253 1048.89 366.252 1048.89 361.409C1048.89 356.566 1051.84 352.565 1055.63 352.565C1056.26 352.565 1060.27 352.565 1060.27 352.565V370.253Z" fill="#B2CDED"/>
<path d="M1067 361.62C1067 366.463 1064.06 370.464 1060.27 370.464C1056.47 370.464 1053.53 366.463 1053.53 361.62C1053.53 356.776 1056.47 352.775 1060.27 352.775C1064.06 352.775 1067 356.776 1067 361.62Z" fill="#D7E3F4"/>
<path d="M1104.7 370.253C1104.7 370.253 1103.86 370.253 1100.07 370.253C1096.27 370.253 1093.33 366.252 1093.33 361.409C1093.33 356.566 1096.27 352.565 1100.07 352.565C1100.7 352.565 1104.7 352.565 1104.7 352.565V370.253Z" fill="#B2CDED"/>
<path d="M1111.44 361.62C1111.44 366.463 1108.49 370.464 1104.7 370.464C1100.91 370.464 1097.96 366.463 1097.96 361.62C1097.96 356.776 1100.91 352.775 1104.7 352.775C1108.49 352.775 1111.44 356.776 1111.44 361.62Z" fill="#D7E3F4"/>
<path d="M1149.13 370.253C1149.13 370.253 1148.29 370.253 1144.5 370.253C1140.71 370.253 1137.76 366.252 1137.76 361.409C1137.76 356.566 1140.71 352.565 1144.5 352.565C1145.13 352.565 1149.13 352.565 1149.13 352.565V370.253Z" fill="#B2CDED"/>
<path d="M1155.87 361.62C1155.87 366.463 1152.92 370.464 1149.13 370.464C1145.34 370.464 1142.39 366.463 1142.39 361.62C1142.39 356.776 1145.34 352.775 1149.13 352.775C1152.92 352.775 1155.87 356.776 1155.87 361.62Z" fill="#D7E3F4"/>
<path d="M1015.83 413.002C1015.83 413.002 1014.99 413.002 1011.2 413.002C1007.41 413.002 1004.46 409.001 1004.46 404.157C1004.46 399.314 1007.41 395.313 1011.2 395.313C1011.83 395.313 1015.83 395.313 1015.83 395.313V413.002Z" fill="#B2CDED"/>
<path d="M1022.57 404.157C1022.57 409.001 1019.62 413.002 1015.83 413.002C1012.04 413.002 1009.09 409.001 1009.09 404.157C1009.09 399.314 1012.04 395.313 1015.83 395.313C1019.41 395.313 1022.57 399.314 1022.57 404.157Z" fill="#D7E3F4"/>
<path d="M1060.27 413.002C1060.27 413.002 1059.42 413.002 1055.63 413.002C1051.84 413.002 1048.89 409.001 1048.89 404.157C1048.89 399.314 1051.84 395.313 1055.63 395.313C1056.26 395.313 1060.27 395.313 1060.27 395.313V413.002Z" fill="#B2CDED"/>
<path d="M1067 404.157C1067 409.001 1064.06 413.002 1060.27 413.002C1056.47 413.002 1053.53 409.001 1053.53 404.157C1053.53 399.314 1056.47 395.313 1060.27 395.313C1064.06 395.313 1067 399.314 1067 404.157Z" fill="#D7E3F4"/>
<path d="M1104.7 413.002C1104.7 413.002 1103.86 413.002 1100.07 413.002C1096.27 413.002 1093.33 409.001 1093.33 404.157C1093.33 399.314 1096.27 395.313 1100.07 395.313C1100.7 395.313 1104.7 395.313 1104.7 395.313V413.002Z" fill="#B2CDED"/>
<path d="M1111.44 404.157C1111.44 409.001 1108.49 413.002 1104.7 413.002C1100.91 413.002 1097.96 409.001 1097.96 404.157C1097.96 399.314 1100.91 395.313 1104.7 395.313C1108.49 395.313 1111.44 399.314 1111.44 404.157Z" fill="#D7E3F4"/>
<path d="M1149.13 413.002C1149.13 413.002 1148.29 413.002 1144.5 413.002C1140.71 413.002 1137.76 409.001 1137.76 404.157C1137.76 399.314 1140.71 395.313 1144.5 395.313C1145.13 395.313 1149.13 395.313 1149.13 395.313V413.002Z" fill="#B2CDED"/>
<path d="M1155.87 404.157C1155.87 409.001 1152.92 413.002 1149.13 413.002C1145.34 413.002 1142.39 409.001 1142.39 404.157C1142.39 399.314 1145.34 395.313 1149.13 395.313C1152.92 395.313 1155.87 399.314 1155.87 404.157Z" fill="#D7E3F4"/>
<path d="M162.548 888.92H512.537V620.847H250.572L162.548 723.823V888.92Z" fill="white" stroke="#648ACC" stroke-miterlimit="10"/>
<path d="M413.143 888.92H542.02V620.847H499.482L413.143 723.823V888.92Z" fill="#D9E4F4" stroke="#648ACC" stroke-miterlimit="10"/>
<path d="M162.529 889.015H413.123V723.918H162.529L162.529 889.015Z" fill="#D9E4F4" stroke="#648ACC" stroke-miterlimit="10"/>
<path d="M435.465 650.961C437.781 653.067 442.835 651.593 446.415 647.591C449.995 643.59 451.048 638.536 448.732 636.431C447.047 634.956 443.678 631.798 443.678 631.798L430.411 646.328C430.621 646.328 433.149 648.644 435.465 650.961Z" fill="#B2CDED"/>
<path d="M430.832 646.749C433.148 648.855 438.202 647.381 441.782 643.38C445.362 639.379 446.415 634.325 444.099 632.219C441.782 630.113 436.728 631.587 433.148 635.588C429.568 639.379 428.516 644.433 430.832 646.749Z" fill="#D7E3F4"/>
<path d="M396.507 650.961C398.824 653.067 403.878 651.593 407.458 647.591C411.037 643.59 412.09 638.536 409.774 636.431C408.089 634.956 404.72 631.798 404.72 631.798L391.453 646.328C391.664 646.328 394.191 648.644 396.507 650.961Z" fill="#B2CDED"/>
<path d="M391.874 646.749C394.191 648.855 399.245 647.381 402.825 643.38C406.405 639.379 407.457 634.325 405.141 632.219C402.825 630.113 397.771 631.587 394.191 635.588C390.4 639.379 389.558 644.433 391.874 646.749Z" fill="#D7E3F4"/>
<path d="M316.275 650.961C318.591 653.067 323.645 651.593 327.225 647.591C330.805 643.59 331.858 638.536 329.542 636.431C327.857 634.956 324.488 631.798 324.488 631.798L311.221 646.328C311.221 646.328 313.959 648.644 316.275 650.961Z" fill="#B2CDED"/>
<path d="M311.642 646.749C313.959 648.855 319.013 647.381 322.592 643.38C326.172 639.379 327.225 634.325 324.909 632.219C322.592 630.113 317.538 631.587 313.959 635.588C310.168 639.379 309.115 644.433 311.642 646.749Z" fill="#D7E3F4"/>
<path d="M274.79 650.961C277.106 653.067 282.16 651.593 285.74 647.591C289.32 643.59 290.373 638.536 288.057 636.431C286.372 634.956 283.003 631.798 283.003 631.798L269.736 646.328C269.947 646.328 272.474 648.644 274.79 650.961Z" fill="#B2CDED"/>
<path d="M270.157 646.749C272.474 648.855 277.528 647.381 281.108 643.38C284.687 639.379 285.74 634.325 283.424 632.219C281.108 630.113 276.054 631.587 272.474 635.588C268.894 639.379 267.841 644.433 270.157 646.749Z" fill="#D7E3F4"/>
<path opacity="0.45" d="M410.195 705.081L424.094 686.97H212.247L196.453 705.081H410.195Z" fill="#D7E3F4"/>
<path d="M644.363 579.784V803.634C644.363 814.373 635.519 823.218 624.779 823.218H500.114C489.374 823.218 480.53 814.373 480.53 803.634V797.316" stroke="#648ACC" stroke-miterlimit="10"/>
<path d="M675.109 590.102V845.961C675.109 856.911 666.054 865.966 655.103 865.966H457.155C446.415 865.966 437.571 857.122 437.571 846.382V797.316" stroke="#648ACC" stroke-miterlimit="10"/>
<path d="M731.124 585.891V734.352C731.124 745.092 739.968 753.936 750.708 753.936H905.486C916.226 753.936 925.071 745.092 925.071 734.352V479.967C925.071 469.228 933.915 460.383 944.655 460.383H1008.46" stroke="#648ACC" stroke-miterlimit="10"/>
<path d="M706.275 590.102V798.158C706.275 808.898 715.119 817.743 725.859 817.743H1009.94C1020.68 817.743 1029.52 808.898 1029.52 798.158V508.817" stroke="#648ACC" stroke-miterlimit="10"/>
<path d="M503.694 264.541C503.694 162.619 586.243 80.0699 688.165 80.0699C790.087 80.0699 872.636 162.619 872.636 264.541C872.636 305.183 859.579 342.667 837.258 373.202C810.935 412.791 742.495 457.645 742.495 484.6V515.345C742.495 521.452 737.441 526.506 731.334 526.506H701.642H674.477H644.785C638.678 526.506 633.624 521.452 633.624 515.345V484.6C633.624 457.856 565.184 413.002 538.861 373.202C516.75 342.667 503.694 305.183 503.694 264.541Z" fill="#FDD305"/>
<path d="M709.223 523.347C709.013 518.715 705.643 444.589 711.539 379.73C704.169 380.572 696.588 380.993 688.165 380.993C679.952 380.993 672.16 380.572 664.79 379.73C670.686 444.589 667.317 518.715 667.107 523.347L663.948 523.137C663.948 522.084 667.317 445.432 661.421 379.309C606.669 371.728 582.241 340.772 577.819 311.501C575.292 294.444 581.189 277.386 591.718 271.069C598.246 267.278 606.037 266.436 614.25 268.752C627.306 272.543 639.731 283.704 647.312 298.866C656.156 316.344 661.421 345.194 664.579 376.571C671.95 377.413 679.742 378.045 688.165 378.045C696.588 378.045 704.59 377.624 711.75 376.571C714.698 345.194 719.963 316.344 729.018 298.866C736.809 283.704 749.023 272.543 762.079 268.752C770.292 266.436 778.084 267.068 784.612 271.069C795.141 277.386 801.037 294.444 798.51 311.501C794.088 340.772 769.66 371.728 714.909 379.309C708.802 445.432 712.171 522.084 712.382 523.137L709.223 523.347ZM771.345 270.648C768.608 270.648 765.87 271.069 763.132 271.911C750.919 275.491 739.336 286.02 731.966 300.34C723.332 316.976 718.278 345.194 715.33 376.15C767.765 368.569 791.14 339.087 795.352 311.08C797.668 295.497 792.403 279.492 782.927 273.806C779.558 271.701 775.557 270.648 771.345 270.648ZM604.985 270.648C600.773 270.648 596.772 271.701 593.192 273.806C583.716 279.492 578.451 295.497 580.767 311.08C584.979 339.087 608.354 368.569 660.789 376.15C657.841 345.405 652.576 317.187 644.153 300.34C636.783 286.02 625.2 275.491 612.987 271.911C610.46 270.858 607.722 270.648 604.985 270.648Z" fill="white"/>
<path d="M842.101 275.07C836.205 275.07 831.572 270.226 831.572 264.541C831.572 198.839 787.139 141.771 723.543 125.766C717.857 124.292 714.488 118.607 715.962 112.921C717.436 107.235 723.122 103.866 728.807 105.34C801.88 123.871 852.63 189.363 852.63 264.751C852.63 270.437 847.787 275.07 842.101 275.07Z" fill="#FFEE99"/>
<path d="M684.585 110.394C684.585 116.29 689.428 120.923 695.114 120.923C701.01 120.923 705.643 116.08 705.643 110.394C705.643 104.498 700.8 99.8647 695.114 99.8647C689.428 99.8647 684.585 104.708 684.585 110.394Z" fill="#FFEE99"/>
<g opacity="0.55">
<g opacity="0.55">
<g opacity="0.55">
<path opacity="0.55" d="M872.425 275.491C862.317 351.09 801.248 429.427 688.165 429.427C575.292 429.427 516.54 347.51 503.905 275.491C506.01 311.922 518.645 345.405 538.861 373.202C565.184 412.791 633.624 457.645 633.624 484.6V515.345C633.624 521.452 638.678 526.506 644.785 526.506H674.477H701.642H731.334C737.441 526.506 742.495 521.452 742.495 515.345V484.6C742.495 457.856 810.935 413.002 837.258 373.202C857.684 345.405 870.319 311.922 872.425 275.491Z" fill="#FFC043"/>
</g>
</g>
</g>
<path d="M746.917 497.656H629.412V553.671C629.412 562.727 631.939 571.782 636.993 579.573C646.259 594.103 662.263 602.948 679.531 602.948H696.799C714.066 602.948 730.071 594.103 739.336 579.573C744.18 571.782 746.917 562.937 746.917 553.671V497.656Z" fill="#28364C"/>
<path d="M629.412 535.351C629.833 535.351 630.044 535.351 630.465 535.351L747.97 523.137C751.971 522.716 754.709 519.136 754.288 515.135C753.656 511.134 750.076 508.186 746.075 508.607L628.57 520.821C624.569 521.242 621.831 524.822 622.252 528.823C622.673 532.613 625.832 535.351 629.412 535.351Z" fill="#475577"/>
<path d="M629.412 561.042C629.833 561.042 630.044 561.042 630.465 561.042L747.97 548.828C751.971 548.407 754.709 544.827 754.288 540.826C753.656 536.825 750.076 533.877 746.075 534.298L628.57 546.512C624.569 546.933 621.831 550.513 622.252 554.514C622.673 558.094 625.832 560.831 629.412 561.042Z" fill="#475577"/>
<path d="M634.255 586.312C634.677 586.312 634.887 586.312 635.308 586.312L746.707 574.73C750.708 574.309 753.445 570.729 753.024 566.728C752.393 562.727 748.813 559.778 744.812 560.199L633.413 571.782C629.412 572.203 626.675 575.783 627.096 579.784C627.517 583.574 630.465 586.312 634.255 586.312Z" fill="#475577"/>
<path d="M688.165 1.73303V59.6434" stroke="#FFC043" stroke-width="3" stroke-miterlimit="10" stroke-linecap="round" stroke-linejoin="round"/>
<path d="M792.825 24.8972L769.45 77.9641" stroke="#FFC043" stroke-width="3" stroke-miterlimit="10" stroke-linecap="round" stroke-linejoin="round"/>
<path d="M880.848 88.9145L838.1 128.083" stroke="#FFC043" stroke-width="3" stroke-miterlimit="10" stroke-linecap="round" stroke-linejoin="round"/>
<path d="M583.716 24.8972L607.09 77.9641" stroke="#FFC043" stroke-width="3" stroke-miterlimit="10" stroke-linecap="round" stroke-linejoin="round"/>
<path d="M495.481 88.9145L538.44 128.083" stroke="#FFC043" stroke-width="3" stroke-miterlimit="10" stroke-linecap="round" stroke-linejoin="round"/>
<path d="M437.571 801.528C439.781 801.528 441.572 799.736 441.572 797.527C441.572 795.317 439.781 793.526 437.571 793.526C435.361 793.526 433.57 795.317 433.57 797.527C433.57 799.736 435.361 801.528 437.571 801.528Z" fill="#648ACC"/>
<path d="M480.53 801.528C482.74 801.528 484.531 799.736 484.531 797.527C484.531 795.317 482.74 793.526 480.53 793.526C478.32 793.526 476.529 795.317 476.529 797.527C476.529 799.736 478.32 801.528 480.53 801.528Z" fill="#648ACC"/>
<path d="M1029.52 512.818C1031.73 512.818 1033.52 511.027 1033.52 508.817C1033.52 506.608 1031.73 504.816 1029.52 504.816C1027.31 504.816 1025.52 506.608 1025.52 508.817C1025.52 511.027 1027.31 512.818 1029.52 512.818Z" fill="#648ACC"/>
<path d="M1052.05 512.818C1054.26 512.818 1056.05 511.027 1056.05 508.817C1056.05 506.608 1054.26 504.816 1052.05 504.816C1049.84 504.816 1048.05 506.608 1048.05 508.817C1048.05 511.027 1049.84 512.818 1052.05 512.818Z" fill="#648ACC"/>
<path d="M1078.59 508.817C1078.59 510.923 1076.9 512.818 1074.58 512.818C1072.48 512.818 1070.58 511.134 1070.58 508.817C1070.58 506.711 1072.27 504.816 1074.58 504.816C1076.69 504.816 1078.59 506.711 1078.59 508.817Z" fill="#648ACC"/>
<path d="M1008.46 464.384C1010.67 464.384 1012.46 462.593 1012.46 460.383C1012.46 458.173 1010.67 456.382 1008.46 456.382C1006.25 456.382 1004.46 458.173 1004.46 460.383C1004.46 462.593 1006.25 464.384 1008.46 464.384Z" fill="#648ACC"/>
<path d="M917.165 770.141C959.12 752.602 978.912 704.373 961.372 662.418C943.833 620.464 895.604 600.672 853.65 618.211C811.695 635.75 791.903 683.98 809.442 725.934C826.982 767.888 875.211 787.68 917.165 770.141Z" fill="#F46072"/>
<path d="M898.64 752.19C930.734 744.896 950.839 712.967 943.545 680.873C936.251 648.779 904.322 628.674 872.228 635.968C840.134 643.261 820.029 675.191 827.323 707.285C834.616 739.379 866.546 759.484 898.64 752.19Z" fill="white"/>
<path d="M844.417 694.13C844.417 716.663 862.738 734.984 885.27 734.984C907.803 734.984 926.123 716.663 926.123 694.13C926.123 671.598 907.803 653.277 885.27 653.277C862.949 653.277 844.417 671.598 844.417 694.13Z" fill="#F46072"/>
<path d="M864.002 694.13C864.002 705.923 873.688 715.61 885.481 715.61C897.274 715.61 906.961 705.923 906.961 694.13C906.961 682.338 897.274 672.651 885.481 672.651C873.688 672.861 864.002 682.338 864.002 694.13Z" fill="white"/>
<path d="M882.112 697.5H895.589L882.112 684.022V697.5Z" fill="#0C3656"/>
<path d="M969.504 610.108H984.876V606.317H973.294V594.735H969.504V610.108Z" fill="#0C3656"/>
<path d="M976.453 603.159H992.036V599.157H980.454V587.786H976.453V603.159Z" fill="#0C3656"/>
<path d="M977.733 599.274L884.519 692.488L887.2 695.168L980.413 601.955L977.733 599.274Z" fill="#0C3656"/>
<path d="M251.626 547.143L241.518 566.517C241.518 566.517 234.569 566.517 225.093 561.884C215.616 557.251 212.879 550.723 212.879 550.723L230.147 527.98" fill="#F886BC"/>
<path d="M273.316 510.712C282.792 516.188 267.209 551.566 258.575 553.882C249.941 556.198 233.095 539.352 228.041 525.243C222.987 511.134 239.202 503.342 248.888 500.604C258.365 497.656 273.316 510.712 273.316 510.712Z" fill="#F886BC"/>
<path d="M266.367 527.77C265.946 528.401 265.735 528.823 265.524 529.454C265.103 530.086 266.156 530.718 266.577 530.086C266.788 529.454 267.209 528.823 267.42 528.191C267.42 527.559 266.577 527.348 266.367 527.77Z" fill="#00276F"/>
<path d="M271.421 524.4C271.421 524.4 269.315 521.242 263.84 522.294" stroke="#00276F" stroke-width="0.75" stroke-miterlimit="10" stroke-linecap="round" stroke-linejoin="round"/>
<path d="M257.944 541.458L264.051 545.669C264.051 545.669 261.734 550.302 259.628 548.407C257.312 546.933 257.944 541.458 257.944 541.458Z" fill="white"/>
<path d="M281.739 518.504C277.528 517.03 272.684 514.503 269.526 512.818C265.103 513.661 260.681 517.872 260.471 522.505C260.471 523.558 260.26 525.032 259.207 525.032C258.575 525.032 257.944 524.4 257.733 523.769C257.522 523.137 257.522 522.295 257.312 521.663C256.68 520.399 254.995 519.768 253.521 520.189C252.047 520.61 251.205 521.873 250.573 523.347C249.099 526.717 247.836 530.928 251.205 533.877C251.626 534.298 252.258 534.719 252.679 535.351C253.311 536.614 252.468 538.299 251.626 539.352C249.099 543.142 245.098 547.354 237.517 547.354C232.042 547.354 223.197 540.194 222.566 536.614C222.566 536.193 217.301 514.503 226.988 500.604C232.042 493.234 241.097 487.759 250.573 488.601C256.469 489.022 261.523 492.602 264.261 494.708C280.265 497.446 283.635 513.661 281.739 518.504Z" fill="#212237"/>
<path d="M272.684 531.35C272.684 531.35 274.158 541.879 272.053 543.142C269.947 544.195 265.525 541.247 265.525 541.247" fill="#F886BC"/>
<path d="M277.107 817.743L269.315 867.44L268.894 882.392L327.646 882.181C329.121 882.181 330.173 880.918 330.173 879.654C330.173 878.601 329.542 877.548 328.489 877.338L303.219 865.756L313.327 813.952" fill="#F886BC"/>
<path d="M332.911 881.549C332.279 879.654 331.226 877.548 330.174 877.127L303.219 865.545C288.478 871.652 269.315 867.019 269.315 867.019L265.946 887.235C265.946 887.867 266.577 888.499 267.209 888.499L332.7 888.077C333.753 887.867 332.911 881.549 332.911 881.549Z" fill="#4868EF"/>
<path d="M308.905 866.598C307.43 868.493 306.167 870.599 305.114 872.915" stroke="#273B7A" stroke-width="0.75" stroke-miterlimit="10"/>
<path d="M312.274 868.704C310.8 870.81 310.168 872.073 309.115 874.179" stroke="#273B7A" stroke-width="0.75" stroke-miterlimit="10"/>
<path d="M315.222 870.178C314.169 871.652 313.116 873.547 312.274 875.232" stroke="#273B7A" stroke-width="0.75" stroke-miterlimit="10"/>
<path d="M266.156 883.866L333.122 883.655" stroke="#273B7A" stroke-width="0.75" stroke-miterlimit="10"/>
<path d="M267.841 873.968C267.841 873.968 283.635 874.39 284.898 883.866" stroke="#273B7A" stroke-width="0.75" stroke-miterlimit="10"/>
<path d="M324.488 874.6C324.488 874.6 320.066 880.707 319.223 883.655" stroke="#273B7A" stroke-width="0.75" stroke-miterlimit="10"/>
<path d="M94.531 830.799L45.4651 824.902L30.5137 824.481L30.7243 883.234C30.7243 884.708 31.9878 885.761 33.2513 885.761C34.3042 885.761 35.3571 885.129 35.5677 884.076L47.1498 858.806L97.9004 864.492" fill="#F886BC"/>
<path d="M31.356 888.499C33.2513 887.867 35.3571 886.814 35.7783 885.761L47.3604 858.806C41.2534 844.066 45.8863 824.902 45.8863 824.902L25.6703 821.533C25.0385 821.533 24.4068 822.165 24.4068 822.797L24.828 888.288C25.0385 889.341 31.356 888.499 31.356 888.499Z" fill="#4868EF"/>
<path d="M46.3075 864.492C44.4122 863.018 42.3064 861.755 39.99 860.702" stroke="#273B7A" stroke-width="0.75" stroke-miterlimit="10"/>
<path d="M44.4122 867.861C42.3064 866.387 41.0429 865.756 38.9371 864.703" stroke="#273B7A" stroke-width="0.75" stroke-miterlimit="10"/>
<path d="M42.9381 870.81C41.4641 869.757 39.5688 868.704 37.8842 867.861" stroke="#273B7A" stroke-width="0.75" stroke-miterlimit="10"/>
<path d="M29.0396 821.533L29.2502 888.709" stroke="#273B7A" stroke-width="0.75" stroke-miterlimit="10"/>
<path d="M38.937 823.428C38.937 823.428 38.5159 839.222 29.0396 840.486" stroke="#273B7A" stroke-width="0.75" stroke-miterlimit="10"/>
<path d="M38.3054 880.075C38.3054 880.075 32.1985 875.653 29.2503 874.811" stroke="#273B7A" stroke-width="0.75" stroke-miterlimit="10"/>
<path d="M123.802 694.13C113.273 722.349 130.541 763.202 130.541 763.202L139.596 829.114L53.4673 825.324L54.3096 882.602C54.3096 882.602 146.545 889.13 168.867 889.13C191.189 889.13 199.823 884.076 206.351 871.02C216.037 851.436 202.139 743.828 202.139 742.143L186.766 673.072" fill="#22252D"/>
<path d="M63.7858 825.745L64.4176 883.234" stroke="#474B51" stroke-width="0.75" stroke-miterlimit="10"/>
<path d="M153.494 709.292C153.494 709.292 143.807 759.201 193.294 769.94C215.406 774.784 271.842 776.258 271.842 776.258L262.155 853.331H318.381C318.381 853.331 329.963 795.21 333.543 756.463C335.859 730.561 324.698 718.979 303.851 716.452C286.162 714.346 232.884 710.766 232.884 710.766L224.04 699.605" fill="#22252D"/>
<path d="M204.455 771.625C204.455 771.625 162.76 771.836 152.862 725.086" stroke="#474B51" stroke-width="0.75" stroke-miterlimit="10"/>
<path d="M174.763 720.664C174.763 720.664 186.135 722.77 200.665 721.927" stroke="#474B51" stroke-width="0.75" stroke-miterlimit="10"/>
<path d="M120.222 714.136C120.222 714.136 131.383 717.295 138.543 717.295" stroke="#474B51" stroke-width="0.75" stroke-miterlimit="10"/>
<path d="M265.946 843.223H320.487" stroke="#474B51" stroke-width="0.75" stroke-miterlimit="10"/>
<path d="M382.609 630.534H378.186V679.39H382.609V630.534Z" fill="#648ACC"/>
<path d="M380.503 633.693C385.039 633.693 388.716 630.016 388.716 625.48C388.716 620.945 385.039 617.268 380.503 617.268C375.967 617.268 372.29 620.945 372.29 625.48C372.29 630.016 375.967 633.693 380.503 633.693Z" fill="#648ACC"/>
<path d="M339.018 639.589L355.654 640.853C355.654 640.853 368.5 636.641 373.554 636.431C376.712 636.431 378.186 637.905 378.186 637.905C378.186 637.905 378.186 639.589 378.186 642.959C378.186 646.328 382.609 647.802 382.609 645.486V642.748C382.609 642.959 391.874 647.381 386.399 651.382C388.926 651.803 390.19 655.383 385.557 657.91C387.031 658.963 388.926 661.911 385.346 664.017C386.82 666.333 383.662 669.071 381.135 669.492C376.291 670.545 338.386 669.703 338.386 669.703" fill="#F886BC"/>
<path d="M242.15 564.622C269.525 602.316 254.785 614.53 235.2 710.766C169.709 710.766 119.59 699.395 119.59 699.395C119.59 699.395 135.173 648.855 164.023 592.629C177.711 565.885 200.665 552.408 213.721 549.039" fill="#4868EF"/>
<path d="M200.875 607.16C200.875 607.16 242.992 673.072 262.997 676.02C294.795 680.653 347.441 679.39 347.441 679.39L350.6 632.851C350.6 632.851 283.003 629.481 280.265 627.797C271.21 622.743 242.36 564.622 242.36 564.622" fill="#4868EF"/>
<path d="M245.73 664.017C245.73 664.017 221.091 643.59 204.455 611.582" stroke="#273B7A" stroke-width="0.75" stroke-miterlimit="10"/>
<path d="M340.703 632.43L336.702 679.6" stroke="#273B7A" stroke-width="0.75" stroke-miterlimit="10"/>
<path d="M1235.05 559.568C1234 568.623 1226.84 594.314 1228.31 595.367C1229.78 596.42 1232.52 587.365 1233.57 588.628C1234.63 589.681 1231.47 603.79 1233.36 604.422C1235.89 605.264 1238.21 590.734 1238.21 590.734C1238.21 590.734 1236.31 606.949 1238.63 606.949C1240.31 607.159 1242.21 594.735 1243.68 590.313C1242.84 595.367 1242.42 604.001 1244.1 604.001C1245.79 604.001 1247.47 595.788 1248.95 589.471C1248.32 593.472 1247.68 600.842 1249.37 601.053C1251.05 601.263 1256.11 581.258 1260.32 562.305" fill="#F886BC"/>
<path d="M1264.32 435.745C1264.32 435.745 1278.85 461.647 1280.96 477.651C1286.22 516.819 1253.58 583.364 1253.58 583.364C1253.58 583.364 1229.99 576.836 1229.99 573.887C1229.99 570.939 1246.42 501.236 1246.42 501.236L1222.83 446.695" fill="#F886BC"/>
<path d="M1193.35 350.669L1196.51 379.94C1196.51 379.94 1179.03 394.892 1163.45 378.256L1165.35 359.093L1193.35 350.669Z" fill="#F886BC"/>
<path d="M1168.93 321.398C1168.93 321.398 1149.97 347.511 1157.77 357.408C1163.45 364.568 1178.4 365.41 1183.04 362.673C1184.09 357.408 1196.3 339.719 1194.41 335.718C1186.83 320.556 1168.93 321.398 1168.93 321.398Z" fill="#F886BC"/>
<path d="M1198.62 325.82C1197.99 315.923 1188.3 312.975 1169.56 314.238C1167.03 314.449 1162.61 312.764 1161.35 314.87C1159.87 317.818 1159.45 323.715 1162.4 326.452C1164.29 328.137 1165.77 328.558 1168.29 329.19C1171.66 330.032 1175.03 333.191 1173.35 336.771C1172.93 337.613 1171.66 339.298 1172.51 340.14C1172.93 340.561 1173.98 340.982 1174.61 341.193C1175.88 341.825 1175.88 343.931 1175.03 345.194C1174.19 346.458 1174.61 347.932 1173.77 349.195C1171.87 352.143 1174.19 357.829 1177.35 359.514C1180.09 361.198 1189.14 363.936 1195.67 360.356C1201.36 357.408 1204.94 349.406 1204.94 334.876C1204.73 329.19 1200.51 325.61 1198.62 325.82Z" fill="#212237"/>
<path d="M1171.03 340.772C1174.19 336.771 1176.51 337.403 1177.98 339.719C1179.88 342.667 1176.09 348.563 1174.4 349.616C1171.03 351.722 1168.08 351.512 1167.87 348.563" fill="#F886BC"/>
<path d="M1163.45 334.876C1162.61 335.507 1161.77 336.981 1162.19 337.824C1162.4 338.034 1162.61 338.245 1162.82 338.245C1164.92 338.034 1165.35 333.401 1163.45 334.876Z" fill="#28364C"/>
<path d="M1163.66 331.296C1164.93 331.717 1166.82 332.77 1167.66 334.454" stroke="#28364C" stroke-width="0.75" stroke-miterlimit="10"/>
<path d="M1163.66 348.774L1159.24 346.458C1159.24 346.458 1156.29 351.722 1158.4 352.986C1160.71 354.249 1163.66 348.774 1163.66 348.774Z" fill="white"/>
<path d="M1098.24 888.936L1166.68 888.883L1166.68 885.724L1098.24 885.777L1098.24 888.936Z" fill="#103BB2"/>
<path d="M1156.92 860.702L1162.82 862.176C1162.82 862.176 1165.14 869.967 1165.98 875.232C1166.82 880.707 1166.61 885.972 1166.61 885.972H1098.17C1098.17 885.972 1099.85 880.075 1116.28 870.388C1122.81 866.598 1125.97 862.386 1125.97 862.386L1156.92 860.702Z" fill="#22252D"/>
<path d="M1164.08 836.063L1163.03 862.176C1163.03 862.176 1160.08 865.756 1148.5 865.756C1136.92 865.756 1126.18 862.597 1126.18 862.597L1123.86 827.43" fill="#F2B18F"/>
<path d="M1195.74 888.936L1264.18 888.883L1264.18 885.724L1195.74 885.777L1195.74 888.936Z" fill="#103BB2"/>
<path d="M1254.42 860.702L1260.32 862.176C1260.32 862.176 1262.64 869.967 1263.48 875.232C1264.32 880.707 1264.11 885.972 1264.11 885.972H1195.67C1195.67 885.972 1197.35 880.075 1213.78 870.388C1220.31 866.598 1223.47 862.386 1223.47 862.386L1254.42 860.702Z" fill="#22252D"/>
<path d="M1258.21 835.011L1260.53 862.176C1260.53 862.176 1257.58 865.756 1246 865.756C1234.42 865.756 1223.68 862.597 1223.68 862.597L1218.41 827.43" fill="#F2B18F"/>
<path d="M1247.05 565.675C1247.05 565.675 1257.79 587.996 1249.16 630.534C1253.58 725.507 1264.95 853.121 1264.95 853.121L1199.67 852.91C1199.67 852.91 1186.4 715.61 1178.4 647.17C1169.56 570.939 1164.08 477.651 1164.08 477.651" fill="#0070E4"/>
<path d="M1210.2 852.91C1210.2 852.91 1196.93 715.61 1188.93 647.17" stroke="#0B2E6B" stroke-width="0.75" stroke-miterlimit="10"/>
<path d="M1122.6 569.886C1122.6 569.886 1115.65 670.124 1115.65 718.137C1115.65 766.15 1112.49 853.121 1112.49 853.121H1178.4L1202.83 625.901C1222.84 601.895 1221.36 549.67 1216.52 529.244L1151.24 511.344L1122.6 569.886Z" fill="#0070E4"/>
<path d="M1189.56 750.567L1203.04 625.691C1219.89 606.949 1219.89 583.153 1219.89 583.153" stroke="#0B2E6B" stroke-width="0.75" stroke-miterlimit="10"/>
<path d="M1136.29 559.778L1120.7 853.121" stroke="#0B2E6B" stroke-width="0.75" stroke-miterlimit="10"/>
<path d="M1179.67 586.312L1211.67 586.943" stroke="#0B2E6B" stroke-width="0.75" stroke-miterlimit="10"/>
<path d="M1234.42 585.259L1246.63 585.048" stroke="#0B2E6B" stroke-width="0.75" stroke-miterlimit="10"/>
<path d="M1067 417.424C1058.16 407.316 1034.15 368.779 1031.42 369.411C1028.68 370.043 1036.05 381.836 1033.73 382.046C1031.42 382.046 1018.99 364.568 1016.46 365.831C1013.09 367.727 1026.78 384.994 1026.78 384.994C1026.78 384.994 1021.52 377.624 1018.99 380.151C1017.31 381.836 1018.15 385.416 1021.94 391.522C1019.41 388.364 1017.1 387.943 1015.2 389.627C1013.31 391.522 1015.2 394.681 1017.31 398.051C1015.62 395.945 1012.88 394.681 1012.25 396.998C1011.41 399.946 1018.57 415.529 1035.84 440.799" fill="#F886BC"/>
<path d="M1196.3 376.992C1196.3 376.992 1234 378.677 1245.37 421.636C1250.42 441.009 1253.79 573.887 1253.79 573.887L1115.86 573.045C1115.86 573.045 1117.75 452.802 1120.7 426.9C1126.39 379.309 1163.87 376.36 1163.87 376.36C1163.87 376.36 1165.56 380.572 1180.3 380.572C1194.83 380.362 1196.3 376.992 1196.3 376.992Z" fill="#D8CAC0"/>
<path d="M1196.3 376.992C1241.16 376.992 1268.74 438.482 1268.74 438.482L1240.52 452.591" fill="#D8CAC0"/>
<path d="M1137.13 464.384C1137.13 464.384 1113.12 498.709 1093.96 500.604C1068.06 503.131 1021.73 416.582 1021.73 416.582L1050.79 396.998L1090.59 447.116L1104.28 426.69" fill="#F886BC"/>
<path d="M1163.87 376.15C1125.33 378.256 1097.12 435.745 1097.12 435.745L1142.39 468.175L1168.08 434.692" fill="#D8CAC0"/>
<path d="M1140.5 467.122L1162.4 438.693" stroke="#846A6A" stroke-width="0.75" stroke-miterlimit="10"/>
<path d="M1249.16 448.38C1246.63 430.27 1240.52 414.897 1240.52 414.897" stroke="#846A6A" stroke-width="0.75" stroke-miterlimit="10"/>
<path d="M1161.77 336.981C1161.77 336.981 1155.45 339.93 1155.87 341.193C1156.08 342.246 1157.98 345.194 1157.98 345.194" fill="#F886BC"/>
<path d="M1112.49 838.801H1179.67" stroke="#0B2E6B" stroke-width="0.75" stroke-miterlimit="10"/>
<path d="M1198.41 839.222H1263.48" stroke="#0B2E6B" stroke-width="0.75" stroke-miterlimit="10"/>
</svg>
