<svg width="2008" height="1030" viewBox="0 0 2008 1030" fill="none" xmlns="http://www.w3.org/2000/svg">
<path d="M100.324 1029C100.324 1029 -115.353 569.631 309.707 569.631C534.276 569.631 441.741 443.632 594.47 297.722C747.121 151.891 1281.16 35.3363 1394.78 317.004C1508.4 598.671 1227.58 812.499 1498.96 775.825C1825.11 731.753 1953.92 1029 1953.92 1029H100.324Z" fill="#DDE8FD"/>
<path d="M1846.99 970.686C1826.85 955.969 1785.77 965.885 1755.4 976.51C1750.84 970.135 1745.33 963.603 1738.72 957.149C1804.11 915.045 1894.44 825.17 1846.52 817.536C1804.89 810.925 1748.79 891.828 1718.73 941.016C1687.57 920.082 1639.81 904.657 1566.95 910.008C1377.71 923.859 1229.94 801.796 1120.96 842.562C1034.32 874.908 954.93 893.088 878.369 886.87C881.673 830.915 882.382 721.049 838.475 709.717C793.86 698.148 837.609 822.887 861.923 885.218C856.179 884.509 850.514 883.644 844.849 882.621C829.111 851.613 803.145 810.925 774.661 809.587C747.829 808.249 780.956 844.766 813.532 875.774C719.896 856.099 608.791 932.202 606.982 1022.23H1775.94C1775.94 1022.23 1773.89 1009.09 1764.68 991.777C1809.93 990.833 1868.86 986.741 1846.99 970.686Z" fill="#FA7269"/>
<path d="M862.002 952.585H553.869V1022.16H862.002V952.585Z" fill="#6D89CF"/>
<path d="M767.028 952.585H458.895V1022.16H767.028V952.585Z" fill="#3662C1"/>
<path d="M983.183 1022.13H1212.63V701.432H983.183V1022.13Z" fill="#AF4E4E"/>
<path d="M912.447 1022.13H1141.89V701.432H912.447V1022.13Z" fill="#E75755"/>
<path d="M1141.89 701.453L1212.63 749.618V701.453H1141.89Z" fill="#A83F3F"/>
<path d="M433.716 772.441C433.716 772.441 390.832 804.314 382.413 802.425C374.072 800.458 413.729 767.955 413.729 767.955C398.779 760.793 352.355 765.279 352.355 765.279C352.355 765.279 336.853 815.175 329.221 811.24C321.588 807.305 345.194 767.719 345.194 767.719C328.513 766.695 308.133 779.051 308.133 779.051C280.2 801.166 309.943 835.873 309.943 835.873C309.943 835.873 304.199 853.029 286.573 868.691C286.573 868.691 261.394 887.343 259.584 920.633L264.148 921.026C264.148 921.026 271.387 890.018 284.606 875.301C285.157 874.75 285.865 874.042 286.809 873.098C288.934 871.13 290.429 869.635 291.452 868.533C297.983 862.237 307.11 854.21 311.438 853.423C311.438 853.423 311.202 852.636 311.281 851.219C311.359 851.927 311.438 852.636 311.438 853.423C312.933 870.973 347.004 886.319 368.013 889.467C388.943 892.615 382.491 884.037 375.252 871.209C368.013 858.46 345.194 852.714 339.922 846.812C334.729 840.909 345.509 840.91 358.099 846.655C370.767 852.4 372.42 867.825 392.72 877.505C413.021 887.185 443.473 853.58 443.473 853.58C427.342 852.793 404.287 835.243 405.074 829.892C405.94 824.54 444.181 839.178 450.79 839.886C457.321 840.595 472.272 832.41 474.554 806.045C476.914 779.838 433.716 772.441 433.716 772.441Z" fill="#93B3F4"/>
<path d="M205.842 792.273C205.842 792.273 253.211 765.751 231.1 729.706C231.1 729.706 213.396 707.592 194.432 701.925C194.432 701.925 204.504 755.677 194.432 756.937C184.361 758.196 187.508 696.259 187.508 696.259C187.508 696.259 137.621 672.255 118.029 674.144C118.029 674.144 148.952 726.558 138.88 725.299C128.808 724.04 94.0294 670.917 94.0294 670.917C94.0294 670.917 42.8837 661.473 34.6217 691.773C26.4384 722.072 39.6576 737.262 47.2901 739.15C54.8439 741.039 103.55 740.41 102.291 746.706C101.032 753.002 68.1418 763.154 49.8867 757.487C49.8867 757.487 70.1089 807.383 96.626 804.865C123.143 802.346 131.405 785.898 147.772 784.639C164.217 783.38 176.177 787.787 167.994 792.194C159.811 796.601 131.956 793.611 118.737 804.944C105.439 816.198 94.7376 823.202 119.366 828.239C143.995 833.276 188.216 830.127 197.108 811.161C205.842 792.273 205.842 792.273 205.842 792.273Z" fill="#93B3F4"/>
<path d="M218.432 838.391C205.134 813.758 205.763 792.273 205.763 792.273C190.577 744.266 57.9126 701.296 57.9126 701.296C226.615 769.529 196.95 811.24 196.95 811.24C201.514 813.915 208.281 826.507 213.081 836.266C213.789 837.919 214.812 840.201 216.386 843.27C217.015 844.687 217.566 845.789 217.881 846.655C226.536 868.376 221.972 905.916 221.972 905.916L227.244 907.332C238.968 869.478 218.432 838.391 218.432 838.391Z" fill="#3E4DCE"/>
<path d="M281.223 755.677C281.223 755.677 218.746 720.656 247.939 673.2C247.939 673.2 271.23 644.081 296.252 636.526C296.252 636.526 282.954 707.356 296.252 709.008C309.55 710.661 305.379 629.049 305.379 629.049C305.379 629.049 371.16 597.412 396.969 599.93C396.969 599.93 356.132 669.107 369.508 667.376C382.806 665.723 428.68 595.759 428.68 595.759C428.68 595.759 496.113 583.246 506.972 623.225C517.831 663.205 500.284 683.195 490.291 685.713C480.298 688.232 416.169 687.366 417.821 695.708C419.473 704.05 462.829 717.351 486.986 709.874C486.986 709.874 460.311 775.667 425.375 772.362C390.36 769.056 379.58 747.335 357.941 745.683C336.303 744.03 320.487 749.854 331.267 755.677C342.125 761.501 378.714 757.566 396.261 772.441C413.73 787.315 427.893 796.444 395.396 803.134C362.898 809.823 304.592 805.652 292.947 780.625C281.223 755.677 281.223 755.677 281.223 755.677Z" fill="#BED2FA"/>
<path d="M476.127 635.739C476.127 635.739 301.209 692.403 281.223 755.677C281.223 755.677 282.088 784.009 264.541 816.512C264.541 816.512 237.552 857.515 252.974 907.332L259.899 905.443C259.899 905.443 253.84 855.941 265.25 827.294C265.722 826.271 266.43 824.697 267.217 822.887C269.341 818.795 270.679 815.804 271.623 813.601C277.839 800.772 286.809 784.167 292.868 780.625C292.868 780.704 253.761 725.693 476.127 635.739Z" fill="#3E4DCE"/>
<path d="M279.098 1015.47C346.689 1015.47 401.455 960.691 401.455 893.088H156.742C156.742 960.691 211.507 1015.47 279.098 1015.47Z" fill="#EF7674"/>
<path d="M309.235 1014.52C304.278 1015.15 299.163 1015.47 294.049 1015.47C226.458 1015.47 171.692 960.691 171.692 893.088H202.065C202.065 955.497 248.804 1007.05 309.235 1014.52Z" fill="#FC9796"/>
<path d="M388.078 1007.05H170.197C161.857 1007.05 155.09 1013.81 155.09 1022.16H403.186C403.186 1013.81 396.419 1007.05 388.078 1007.05Z" fill="#EF7674"/>
<path d="M402.399 893.088H154.617C153.594 893.088 152.729 893.953 152.729 894.976C152.729 895.999 153.594 896.865 154.617 896.865H402.399C403.422 896.865 404.287 895.999 404.287 894.976C404.287 893.953 403.422 893.088 402.399 893.088Z" fill="#AF4E4E"/>
<path d="M1346.55 248.613C1343.01 248.062 1332.31 257.979 1332.31 257.979C1309.49 260.654 1276.12 266.714 1264.09 268.997C1255.59 270.649 1232.69 262.858 1210.34 253.886C1183.75 243.183 1157.86 230.906 1157.86 230.906C1143.07 230.119 1126.31 257.113 1156.29 274.191C1160.85 276.788 1178 281.274 1197.83 285.366C1225.14 290.954 1257.32 295.833 1268.26 294.181C1281 292.213 1317.04 278.991 1338.52 268.918C1338.52 268.918 1338.52 268.918 1338.6 268.918C1338.68 268.918 1338.76 268.839 1338.84 268.839C1340.1 268.21 1345.37 265.927 1348.91 266.085C1352.92 266.321 1361.89 259.002 1362.13 257.034C1362.36 254.909 1350.09 249.164 1346.55 248.613Z" fill="#EA8888"/>
<path d="M1318.69 587.968L1306.1 590.486C1306.1 590.486 1248.58 525.873 1239.69 498.643C1234.97 484.084 1204.6 477.866 1172.89 469.603C1145.27 462.441 1116.63 453.863 1102.94 437.1C1073.51 401.055 1121.43 356.747 1121.43 356.747C1121.43 356.747 1172.34 386.968 1216.24 418.29C1246.93 440.169 1274.24 462.441 1278.33 475.269C1288.32 506.513 1309.57 565.853 1318.69 587.968Z" fill="#0B0754"/>
<path d="M1301.86 609.295H1308.94C1311.3 608.902 1313.03 608.272 1315.47 607.957C1319.17 607.485 1320.82 608.981 1321.21 609.295C1321.29 609.374 1321.29 609.374 1321.29 609.374H1351.35C1352.14 608.272 1351.35 605.833 1350.64 603.944C1350.17 602.685 1349.15 601.74 1347.81 601.347C1344.66 600.402 1338.37 599.615 1332.62 594.421C1329.4 591.509 1317.04 583.639 1317.04 583.639H1316.96C1316.73 583.639 1315.39 584.033 1309.8 588.833C1306.89 591.273 1301.93 585.371 1301.93 585.371C1301.93 585.371 1300.99 586.158 1300.28 587.574C1299.73 588.676 1299.34 590.25 1299.65 592.217C1300.12 594.893 1298.63 599.93 1297.53 603.314C1296.82 605.36 1296.27 606.856 1296.27 606.856C1296.27 606.856 1295.8 608.508 1301.86 609.295Z" fill="#060632"/>
<path d="M1216.32 418.29L1172.97 469.682C1145.35 462.52 1116.71 453.942 1103.02 437.178C1073.59 401.134 1121.51 356.826 1121.51 356.826C1121.51 356.826 1172.34 387.047 1216.32 418.29Z" fill="#060632"/>
<path d="M1176.9 391.454C1176.9 391.454 1173.44 402.472 1167.7 419.077C1160.54 440.012 1149.76 469.918 1138.19 497.62C1135.67 503.68 1133.07 509.661 1130.4 515.406C1120.72 536.734 1110.81 554.992 1102.15 564.279C1086.49 580.963 1048.41 688.231 1048.41 688.231L1038.89 685.634C1038.89 685.634 1025.67 594.028 1072.49 541.928C1072.96 541.377 1073.35 540.748 1073.43 539.961C1074.06 532.248 1076.26 497.699 1081.14 462.677C1082.32 454.099 1083.66 445.442 1085.23 437.257C1085.31 436.706 1085.39 436.234 1085.55 435.683C1092.71 397.514 1099.48 380.593 1108.29 372.015L1173.05 390.431L1176.9 391.454Z" fill="#0B0754"/>
<path d="M1037.86 701.374H1044.95C1047.31 700.981 1049.04 700.351 1051.48 700.036C1055.18 699.564 1056.83 701.06 1057.22 701.374C1057.3 701.453 1057.3 701.453 1057.3 701.453H1087.36C1088.14 700.351 1087.36 697.912 1086.65 696.023C1086.18 694.764 1085.15 693.819 1083.82 693.426C1080.67 692.481 1074.37 691.694 1068.63 686.5C1065.4 683.588 1053.05 675.718 1053.05 675.718H1052.97C1052.74 675.718 1051.4 676.112 1045.81 680.912C1042.9 683.352 1037.94 677.45 1037.94 677.45C1037.94 677.45 1037 678.237 1036.29 679.653C1035.74 680.755 1035.35 682.329 1035.66 684.296C1036.13 686.972 1034.64 692.009 1033.54 695.393C1032.83 697.439 1032.28 698.935 1032.28 698.935C1032.28 698.935 1031.81 700.587 1037.86 701.374Z" fill="#060632"/>
<path d="M1051.79 266.872C1051.79 266.872 1040.93 293.393 1028.5 319.207C1017.96 340.928 1006.31 362.099 998.915 366.585C988.45 372.959 959.73 390.982 941.081 404.361C941.081 404.361 926.524 404.282 924.242 407.036C921.96 409.791 916.767 422.383 918.262 423.642C919.757 424.901 931.324 424.35 934.157 421.438C936.596 418.92 942.104 417.11 943.442 416.716C943.52 416.716 943.599 416.638 943.678 416.638H943.756C966.418 409.633 1001.98 395.153 1012.76 388.07C1022.05 381.931 1042.59 356.668 1058.95 334.16C1070.83 317.869 1080.51 302.995 1082.16 297.958C1092.71 265.061 1062.18 256.404 1051.79 266.872Z" fill="#FC9290"/>
<path d="M1108.45 162.988C1107.19 161.099 1105.85 159.446 1104.59 157.951C1106.16 157.951 1107.89 157.793 1109.39 157.243C1113.17 155.669 1114.9 143.627 1114.35 140.007C1113.8 136.466 1108.52 126.077 1101.99 125.054C1095.46 124.031 1088.77 131.272 1088.77 131.272C1089.95 126.077 1100.97 123.008 1100.97 123.008C1078.31 127.179 1079.41 142.368 1079.57 143.706C1058.79 136.308 1046.6 175.422 1046.6 175.422L1100.42 207.138C1100.42 207.138 1100.58 198.481 1105.69 199.032C1113.64 199.977 1120.33 180.302 1108.45 162.988Z" fill="#0B0754"/>
<path d="M1111.91 245.072C1099.55 250.896 1083.19 242.475 1083.27 242.396C1084.29 241.373 1083.97 238.146 1082.95 234.054C1082.01 229.725 1079.73 223.823 1075.48 216.74C1074.61 215.244 1073.75 213.749 1072.64 212.175L1074.06 211.624L1098.06 202.023C1098.06 202.023 1101.91 209.027 1106.01 215.323C1109.47 220.596 1113.09 225.397 1114.66 225.239C1114.66 225.161 1130.56 236.1 1111.91 245.072Z" fill="#FC9290"/>
<path d="M1098.06 204.384C1097.43 212.962 1094.52 228.387 1082.95 234.054C1082.01 229.725 1079.73 223.823 1075.48 216.74L1098.06 204.384Z" fill="#EA8888"/>
<path d="M1074.06 226.499C1074.06 226.499 1105.3 214.221 1097.35 194.861C1089.4 175.501 1088.07 160.941 1067.76 167.946C1047.46 175.029 1046.68 183.922 1047.78 191.084C1048.8 198.167 1065.72 229.174 1074.06 226.499Z" fill="#FC9290"/>
<path d="M1085.71 190.454C1100.1 188.408 1104.35 182.584 1104.35 182.584C1104.35 182.584 1091.06 178.806 1083.27 165.742C1083.27 165.742 1067.06 160.312 1055.02 169.441C1054.31 170.385 1053.76 171.487 1053.52 172.825C1050.77 171.959 1046.6 172.196 1044.24 179.908C1040.62 191.634 1053.44 204.384 1053.44 204.384C1056.51 203.518 1053.05 193.051 1052.58 187.542C1052.19 183.45 1054.39 178.177 1055.65 175.737C1057.14 177.705 1072.41 196.829 1090.98 197.616C1090.98 197.616 1081.14 194.232 1072.25 187.542C1076.58 189.667 1081.3 191.084 1085.71 190.454Z" fill="#0B0754"/>
<path d="M1171.32 284.894C1171.08 283.95 1170.76 283.005 1170.45 281.982C1175.09 273.089 1177.37 265.14 1178.32 258.372C1180.44 244.049 1176.82 235.234 1176.82 235.234C1176.82 235.234 1155.19 223.744 1145.59 222.249C1145.51 222.249 1145.51 222.249 1145.43 222.249C1145.35 222.249 1145.19 222.249 1145.03 222.249C1135.36 220.911 1114.5 225.161 1114.5 225.161C1114.5 225.161 1118.52 235.864 1107.19 243.026C1095.78 250.187 1083.66 241.215 1083.66 241.215C1083.27 241.452 1082.87 241.766 1082.48 242.002C1082.48 242.002 1052.58 261.756 1049.82 266.242C1047.15 270.728 1035.66 293.079 1035.66 293.079C1035.66 293.079 1039.28 311.809 1079.73 313.383C1083.03 321.411 1085.63 329.281 1086.41 335.892C1089.64 361.39 1085.86 381.459 1089.64 396.333C1093.42 411.207 1160.85 402.708 1173.13 399.875C1185.32 397.041 1182.57 383.977 1183.51 371.307C1184.77 355.488 1175.33 298.981 1171.32 284.894Z" fill="#3662C1"/>
<path d="M1178.4 258.372C1177.45 265.14 1175.17 273.168 1170.45 282.139C1169.43 277.496 1165.1 260.34 1158.1 252.548C1158.1 252.548 1169.82 253.65 1178.4 258.372Z" fill="#3E4DCE"/>
<path d="M903.627 425.374C903.627 425.374 916.216 410.106 918.892 408.296C921.567 406.485 933.448 403.337 934.157 403.967C934.865 404.597 934.865 405.541 933.37 406.8C931.875 408.138 926.288 411.365 927.075 411.758C927.862 412.152 944.858 403.652 947.297 406.564C949.736 409.397 945.881 421.124 939.35 426.711C932.819 432.299 913.305 434.739 912.125 435.526C901.738 442.215 903.627 425.374 903.627 425.374Z" fill="#EA8888"/>
<path d="M682.284 390.195C682.284 390.195 700.381 411.601 723.358 402.629C723.358 402.629 728.315 390.667 728.394 381.852C728.394 380.751 728.394 379.727 728.394 378.704C728.551 368.788 728.866 363.2 728.866 363.2C727.843 362.728 693.693 348.72 693.772 349.9C694.244 376.816 682.284 390.195 682.284 390.195Z" fill="#FC9290"/>
<path d="M697.077 356.354C700.381 362.413 711.634 374.376 728.315 378.704C728.472 368.788 728.787 363.2 728.787 363.2C727.843 362.964 696.132 354.543 697.077 356.354Z" fill="#EA8888"/>
<path d="M736.026 362.177C736.026 362.177 697.627 371.228 692.434 347.224C687.162 323.221 678.664 308.268 702.978 301.5C727.213 294.731 734.059 302.838 737.757 310.393C741.377 317.948 745.862 359.187 736.026 362.177Z" fill="#FC9290"/>
<path d="M693.693 353.756C693.142 354.071 684.88 356.59 669.301 325.503C666.861 320.624 665.209 309.999 670.874 300.713C676.618 291.347 696.841 284.028 713.758 280.802C730.597 277.575 734.688 287.098 738.623 296.62C742.793 306.615 754.832 314.879 754.832 314.879C740.275 322.985 722.807 311.416 716.748 313.305C710.689 315.193 708.565 324.795 708.093 327.864C707.62 330.933 706.912 333.452 699.28 330.776C691.647 328.022 695.818 341.558 697.077 344.155C696.998 344.076 698.1 350.923 693.693 353.756Z" fill="#9E332E"/>
<path d="M594.864 952.585H571.652C566.773 952.585 561.344 947.627 560.006 938.576C558.669 929.526 548.675 924.568 546.472 917.17C544.269 909.772 555.442 899.305 555.442 899.305L557.331 896.865L559.298 894.347L577.71 898.754C577.71 898.754 578.183 903.161 578.419 908.828C578.655 912.92 578.733 917.642 578.497 921.813C577.947 931.729 581.251 942.354 589.907 944.243C598.405 946.21 594.864 952.585 594.864 952.585Z" fill="#060632"/>
<path d="M756.563 952.821H694.952C694.401 952.664 693.929 952.585 693.614 952.427C689.523 950.303 690.782 934.09 691.254 929.053C691.333 928.109 691.411 927.558 691.411 927.558C691.411 927.558 713.05 909.693 716.04 923.387C716.119 923.781 716.276 924.253 716.355 924.646C720.132 937.396 736.892 943.219 746.649 944.872C754.124 946.131 756.091 950.617 756.563 952.821Z" fill="#060632"/>
<path d="M744.131 596.625C744.131 596.625 740.826 637.627 736.97 686.972C731.698 753.946 725.403 836.266 724.774 851.849C723.672 878.922 719.345 922.207 719.345 922.207C719.345 922.207 709.037 932.516 688.5 928.188C688.5 928.188 670.166 866.33 664.894 800.93C664.816 799.828 664.737 798.805 664.658 797.703C659.78 731.123 652.226 590.88 652.226 590.88L744.131 596.625Z" fill="#ED6966"/>
<path d="M744.131 596.625C744.131 596.625 740.826 637.627 736.97 686.972L664.894 801.009C664.816 799.907 664.737 798.884 664.658 797.782C659.78 731.202 652.226 590.958 652.226 590.958L744.131 596.625Z" fill="#E75755"/>
<path d="M729.18 601.504C729.18 601.504 669.93 750.09 630.902 819.975C591.953 889.782 579.756 909.3 579.756 909.3C579.756 909.3 557.41 900.328 555.364 894.268C555.364 894.268 570.235 759.455 596.359 726.558C611.073 707.985 628.463 652.266 629.25 632.748C630.037 613.23 634.522 574.667 634.522 574.667L729.18 601.504Z" fill="#ED6966"/>
<path d="M593.448 576.792C593.448 576.792 591.874 595.366 590.772 598.199C589.671 601.032 582.117 609.846 581.251 609.768C580.386 609.61 579.835 608.981 580.307 607.171C580.779 605.36 583.297 599.851 582.51 599.93C581.723 600.088 573.147 615.749 569.684 614.804C566.301 613.939 562.917 602.763 564.963 594.972C567.009 587.102 580.779 574.746 581.33 573.487C585.815 562.784 593.448 576.792 593.448 576.792Z" fill="#EA8888"/>
<path d="M587.074 581.514C593.605 583.639 594.707 583.167 594.707 583.167C594.707 583.167 626.653 525.008 629.879 519.735C633.105 514.383 697.706 454.492 697.706 454.492L681.104 392.634C681.104 392.634 607.69 487.704 599.743 501.398C586.602 523.985 578.969 576.32 578.969 576.32C578.969 576.32 581.96 579.862 587.074 581.514Z" fill="#060632"/>
<path d="M756.72 478.732C756.484 491.403 755.776 505.726 754.753 520.207C754.675 521.073 754.596 521.938 754.596 522.804C753.966 531.776 753.258 540.826 752.471 549.562C752.157 553.104 751.842 556.566 751.448 559.951L751.37 560.423C751.37 561.682 751.212 563.099 751.055 564.358C747.829 597.254 744.445 623.225 743.816 623.698C743.029 624.17 742.242 624.485 741.298 624.327C732.643 623.225 706.912 625.193 685.825 620.628C668.042 616.851 652.698 609.768 636.489 600.166C634.364 598.907 629.407 595.523 629.8 593.005C630.194 590.25 630.902 586.236 631.846 581.2C635.072 563.728 640.58 533.586 642.469 498.328C642.862 491.796 643.334 485.264 644.043 478.89C645.852 462.284 648.764 446.544 652.619 432.535C659.858 406.486 670.481 386.574 683.779 378.783C685.51 377.839 694.873 383.741 703.45 389.25C711.397 394.366 719.738 395.782 727.922 395.074L735.082 403.023C743.737 413.096 752.944 426.554 755.54 445.599C755.698 447.016 755.855 448.511 756.012 450.085C756.72 457.877 756.878 467.714 756.72 478.732Z" fill="#120E59"/>
<path d="M756.72 478.732C756.484 491.403 755.776 505.726 754.753 520.207C754.675 521.073 754.596 521.938 754.596 522.804C705.339 491.954 697.706 435.447 697.706 435.447C721.941 436.549 741.219 442.058 756.091 450.085C756.72 457.877 756.878 467.714 756.72 478.732Z" fill="#060632"/>
<path d="M911.102 426.869C908.584 420.022 904.571 420.415 904.571 420.415C904.571 420.415 831.315 438.674 824.705 439.461C818.095 440.248 745.783 411.207 745.783 411.207C745.783 411.207 717.299 398.458 704.001 410.106C692.434 420.258 691.883 433.086 694.559 443.868C697.785 456.696 708.644 466.219 721.784 467.871C751.291 471.649 810.148 478.732 822.502 477.001C849.963 473.144 912.203 437.257 912.203 437.257C912.203 437.257 913.069 432.299 911.102 426.869Z" fill="#120E59"/>
<path d="M1633.67 561.21C1633.67 561.21 1643.82 570.654 1641.86 577.343C1639.89 584.033 1630.68 588.519 1629.42 596.703C1628.16 604.888 1623.21 609.374 1618.72 609.374C1614.24 609.374 1597.4 609.374 1597.4 609.374C1597.4 609.374 1594.09 603.629 1602.04 601.898C1609.99 600.166 1612.98 590.565 1612.51 581.593C1612.03 572.621 1613.21 560.737 1613.21 560.737L1630.13 556.802L1633.67 561.21Z" fill="#0B0754"/>
<path d="M1506.75 608.272C1505.73 608.823 1502.11 609.138 1497.07 609.374H1448.92C1449.08 607.957 1450.18 602.842 1458.05 601.583C1466.94 600.166 1482.36 594.972 1485.82 583.56C1485.9 583.167 1486.06 582.852 1486.14 582.459C1488.89 570.26 1508.72 586.158 1508.72 586.158C1508.72 586.158 1508.8 586.63 1508.88 587.495C1509.35 591.981 1510.53 606.383 1506.75 608.272Z" fill="#0B0754"/>
<path d="M1460.49 282.769C1460.49 282.769 1463.48 320.388 1467.02 365.64C1471.82 427.105 1477.64 502.657 1478.19 516.902C1479.21 541.771 1483.15 581.514 1483.15 581.514C1483.15 581.514 1492.59 590.958 1511.47 586.945C1511.47 586.945 1528.31 530.202 1533.11 470.232C1533.19 469.288 1533.27 468.265 1533.35 467.242C1537.83 406.171 1544.76 277.496 1544.76 277.496L1460.49 282.769Z" fill="#6D89CF"/>
<path d="M1460.49 282.769C1460.49 282.769 1463.48 320.388 1467.02 365.64L1533.11 470.233C1533.19 469.288 1533.27 468.265 1533.35 467.242C1537.83 406.171 1544.76 277.496 1544.76 277.496L1460.49 282.769Z" fill="#3662C1"/>
<path d="M1474.26 287.255C1474.26 287.255 1528.63 423.642 1564.43 487.704C1600.15 551.766 1611.33 569.631 1611.33 569.631C1611.33 569.631 1631.78 561.446 1633.67 555.858C1633.67 555.858 1619.98 432.142 1596.06 402C1582.53 384.922 1566.63 333.845 1565.92 315.98C1565.22 298.116 1561.05 262.701 1561.05 262.701L1474.26 287.255Z" fill="#6D89CF"/>
<path d="M1306.5 213.356C1306.5 213.356 1291.78 209.972 1289.27 210.129C1286.75 210.286 1278.09 213.907 1278.01 214.615C1277.93 215.323 1278.33 215.874 1279.82 216.031C1281.32 216.11 1286.28 215.481 1285.96 216.11C1285.65 216.74 1271.4 219.494 1271.25 222.406C1271.09 225.239 1278.88 230.591 1285.49 230.984C1292.1 231.378 1305 223.665 1306.1 223.587C1315.55 222.642 1306.5 213.356 1306.5 213.356Z" fill="#FC9290"/>
<path d="M1300.2 217.055C1298.08 210.286 1298.55 209.263 1298.55 209.263C1298.55 209.263 1358.35 176.918 1363.78 173.612C1369.29 170.307 1431.06 104.592 1431.06 104.592L1494.32 121.985C1494.32 121.985 1396.36 196.593 1382.35 204.62C1359.14 217.92 1305.47 225.397 1305.47 225.397C1305.47 225.397 1301.86 222.327 1300.2 217.055Z" fill="#E75755"/>
<path d="M1450.34 72.6401C1450.34 72.6401 1428.15 111.675 1406.43 116.791C1406.43 116.791 1407.29 103.648 1412.64 94.6761C1410.52 92.1577 1408.55 89.7967 1406.9 87.6718C1401.47 80.6675 1398.87 76.4177 1398.87 76.4177L1406.27 56.664L1411.23 43.2063C1413.59 47.5348 1416.26 51.3124 1419.02 54.4604C1433.26 70.7513 1450.34 72.6401 1450.34 72.6401Z" fill="#FC9290"/>
<path d="M1419.02 54.4604C1419.02 54.4604 1421.69 74.0566 1406.9 87.7504C1401.47 80.7461 1398.87 76.4963 1398.87 76.4963L1406.27 56.7426C1414.14 54.2242 1419.02 54.4604 1419.02 54.4604Z" fill="#EA8888"/>
<path d="M1392.97 79.2509C1392.97 79.2509 1426.1 66.3441 1417.76 45.8034C1409.42 25.2627 1408 9.75877 1386.52 17.1566C1365.04 24.5544 1364.1 34.0771 1365.2 41.5536C1366.38 49.1088 1384.16 82.0841 1392.97 79.2509Z" fill="#FC9290"/>
<path d="M1564.27 273.01C1550.9 292.213 1450.89 317.948 1452.07 304.648C1452.54 299.532 1453.17 290.561 1452.07 278.362C1451.83 275.529 1451.44 272.46 1450.96 269.312C1448.45 251.84 1442.39 229.332 1428.93 203.282C1427.91 201.315 1426.89 199.347 1425.78 197.38C1420.28 187.306 1415.56 176.682 1411.94 166.214C1405.01 146.225 1402.18 127.022 1405.72 114.509C1405.72 114.43 1405.72 114.43 1405.8 114.351C1426.73 104.671 1434.83 67.2098 1434.83 67.2098C1434.83 67.2098 1506.12 80.0379 1546.1 175.108C1546.02 175.029 1575.92 256.247 1564.27 273.01Z" fill="#ED6966"/>
<path d="M1452.07 278.362C1451.83 275.529 1451.44 272.459 1450.96 269.311C1448.45 251.84 1442.39 229.332 1428.93 203.282C1431.21 189.273 1434.44 177.626 1437.9 172.353C1452.14 151.025 1460.41 147.72 1460.41 147.72C1460.41 147.72 1481.81 237.674 1452.07 278.362Z" fill="#E75755"/>
<path d="M1339.7 256.956C1339.7 256.956 1319.95 257.979 1316.88 259.08C1313.82 260.182 1304.22 267.816 1304.29 268.761C1304.37 269.705 1305.16 270.256 1307.05 269.862C1308.94 269.469 1314.92 266.872 1314.76 267.737C1314.6 268.603 1297.68 277.181 1298.55 280.88C1299.42 284.501 1311.06 288.436 1319.48 286.547C1327.9 284.658 1341.43 270.413 1342.77 269.862C1354.26 265.455 1339.7 256.956 1339.7 256.956Z" fill="#FC9290"/>
<path d="M1335.93 264.432C1331.99 258.057 1334.82 255.145 1334.82 255.145C1334.82 255.145 1395.73 207.453 1400.53 202.574C1405.33 197.773 1427.44 120.962 1427.44 120.962C1427.44 120.962 1435.07 89.8754 1452.85 86.4913C1468.35 83.5007 1479.06 91.2133 1486.06 100.185C1494.4 110.888 1495.26 125.684 1488.26 137.331C1472.68 163.539 1441.29 215.638 1432.16 224.531C1411.78 244.285 1343.48 271.987 1343.48 271.987C1343.48 271.987 1339.07 269.469 1335.93 264.432Z" fill="#ED6966"/>
<path d="M1422.56 7.71259C1422.79 7.24039 1423.5 6.7682 1425.08 6.296C1425.08 6.296 1423.5 5.74509 1421.77 6.13859C1420.83 3.85629 1418.55 0 1414.3 0C1414.3 0 1416.74 0.629595 1417.6 3.06929C1411.78 -0.629604 1401 -1.65269 1374.09 7.24041C1338.6 19.0454 1356.31 39.6648 1361.73 41.3175C1367.09 42.9702 1377 32.3457 1385.89 30.9291C1394.78 29.5125 1399.58 41.8684 1402.97 42.8915C1406.35 43.9146 1404.46 41.0814 1408 38.2482C1411.54 35.415 1413.59 42.1045 1413.51 46.7478C1413.43 51.3911 1420.36 55.877 1420.36 55.877C1420.36 55.877 1420.36 55.877 1424.45 48.4005C1428.54 40.924 1427.44 13.8512 1423.5 9.0505C1423.27 8.5783 1422.87 8.10609 1422.56 7.71259Z" fill="#0B0754"/>
<path d="M2004.91 1029.32H2.754C1.25897 1029.32 0 1028.06 0 1026.56V1024.83C0 1023.34 1.25897 1022.08 2.754 1022.08H2004.99C2006.49 1022.08 2007.75 1023.34 2007.75 1024.83V1026.56C2007.67 1028.06 2006.41 1029.32 2004.91 1029.32Z" fill="#010117"/>
<path d="M862.002 951.798V991.935L767.028 951.798H862.002Z" fill="#BED2FA"/>
<path d="M1675.06 609.374H1360.87V1022.08H1675.06V609.374Z" fill="#6D89CF"/>
<path d="M1578.12 609.374H1263.93V1022.16H1578.12V609.374Z" fill="#3662C1"/>
<path d="M1674.98 609.374V671.154L1578.12 609.374H1674.98Z" fill="#BED2FA"/>
</svg>
