<svg width="287" height="78" viewBox="0 0 287 78" fill="none" xmlns="http://www.w3.org/2000/svg">
<g clip-path="url(#clip0)">
<path d="M42.902 0L85.6492 30.4477L69.1667 79.5L16.2322 79.3702L0 30.2368L42.902 0Z" fill="url(#paint0_linear)"/>
<path fill-rule="evenodd" clip-rule="evenodd" d="M53.3915 36.855C55.4576 36.855 57.132 38.4914 57.132 40.5101C57.132 42.5303 55.4576 44.1667 53.3915 44.1667C51.3254 44.1667 49.6494 42.5303 49.6494 40.5101C49.6494 38.4914 51.3254 36.855 53.3915 36.855Z" fill="white"/>
<path d="M36.9833 25.0598H41.5563V52.4035H56.9179V56.16H36.9833V25.0598Z" fill="white"/>
<path d="M122.601 49.14H107.141L104.192 56.16H96.2956L111.137 23.4H118.748L133.637 56.16H125.551L122.601 49.14ZM120.175 43.3836L114.895 30.8412L109.615 43.3836H120.175ZM162.737 30.9816V51.948C162.737 56.5656 161.516 59.9976 159.074 62.244C156.633 64.4904 153.065 65.6136 148.372 65.6136C145.898 65.6136 143.551 65.3172 141.331 64.7244C139.111 64.1316 137.272 63.2736 135.813 62.1504L138.763 56.9088C139.841 57.7824 141.204 58.4688 142.853 58.968C144.503 59.4984 146.152 59.7636 147.801 59.7636C150.369 59.7636 152.256 59.1864 153.461 58.032C154.698 56.9088 155.317 55.1928 155.317 52.884V51.8076C153.382 53.898 150.687 54.9432 147.23 54.9432C144.883 54.9432 142.727 54.444 140.76 53.4456C138.826 52.416 137.288 50.9808 136.146 49.14C135.005 47.2992 134.434 45.1776 134.434 42.7752C134.434 40.3728 135.005 38.2512 136.146 36.4104C137.288 34.5696 138.826 33.15 140.76 32.1516C142.727 31.122 144.883 30.6072 147.23 30.6072C150.94 30.6072 153.763 31.8084 155.697 34.2108V30.9816H162.737ZM148.704 48.9528C150.671 48.9528 152.272 48.3912 153.509 47.268C154.777 46.1136 155.412 44.616 155.412 42.7752C155.412 40.9344 154.777 39.4524 153.509 38.3292C152.272 37.1748 150.671 36.5976 148.704 36.5976C146.738 36.5976 145.121 37.1748 143.852 38.3292C142.584 39.4524 141.95 40.9344 141.95 42.7752C141.95 44.616 142.584 46.1136 143.852 47.268C145.121 48.3912 146.738 48.9528 148.704 48.9528ZM194.713 43.6644C194.713 43.758 194.665 44.4132 194.57 45.63H175.209C175.558 47.19 176.383 48.4224 177.683 49.3272C178.983 50.232 180.601 50.6844 182.535 50.6844C183.867 50.6844 185.04 50.4972 186.055 50.1228C187.102 49.7172 188.069 49.0932 188.957 48.2508L192.905 52.4628C190.495 55.1772 186.975 56.5344 182.345 56.5344C179.459 56.5344 176.906 55.9884 174.686 54.8964C172.466 53.7732 170.754 52.2288 169.549 50.2632C168.344 48.2976 167.741 46.0668 167.741 43.5708C167.741 41.106 168.328 38.8908 169.501 36.9252C170.706 34.9284 172.339 33.384 174.401 32.292C176.494 31.1688 178.825 30.6072 181.393 30.6072C183.899 30.6072 186.166 31.1376 188.196 32.1984C190.225 33.2592 191.811 34.788 192.953 36.7848C194.126 38.7504 194.713 41.0436 194.713 43.6644ZM181.441 36.1296C179.76 36.1296 178.349 36.5976 177.207 37.5336C176.066 38.4696 175.368 39.7488 175.114 41.3712H187.72C187.466 39.78 186.769 38.5164 185.627 37.5804C184.485 36.6132 183.09 36.1296 181.441 36.1296ZM215.209 30.6072C218.38 30.6072 220.933 31.5432 222.867 33.4152C224.834 35.2872 225.817 38.064 225.817 41.7456V56.16H218.396V42.8688C218.396 40.872 217.952 39.39 217.064 38.4228C216.176 37.4244 214.892 36.9252 213.211 36.9252C211.34 36.9252 209.849 37.5024 208.739 38.6568C207.629 39.78 207.074 41.4648 207.074 43.7112V56.16H199.654V30.9816H206.741V33.93C207.725 32.8692 208.945 32.058 210.404 31.4964C211.863 30.9036 213.465 30.6072 215.209 30.6072ZM245.19 56.5344C242.463 56.5344 240.005 55.9884 237.817 54.8964C235.66 53.7732 233.964 52.2288 232.727 50.2632C231.522 48.2976 230.919 46.0668 230.919 43.5708C230.919 41.0748 231.522 38.844 232.727 36.8784C233.964 34.9128 235.66 33.384 237.817 32.292C240.005 31.1688 242.463 30.6072 245.19 30.6072C247.886 30.6072 250.232 31.1688 252.23 32.292C254.26 33.384 255.734 34.9596 256.654 37.0188L250.898 40.0608C249.566 37.752 247.648 36.5976 245.142 36.5976C243.208 36.5976 241.606 37.2216 240.338 38.4696C239.069 39.7176 238.435 41.418 238.435 43.5708C238.435 45.7236 239.069 47.424 240.338 48.672C241.606 49.92 243.208 50.544 245.142 50.544C247.679 50.544 249.598 49.3896 250.898 47.0808L256.654 50.1696C255.734 52.1664 254.26 53.7264 252.23 54.8496C250.232 55.9728 247.886 56.5344 245.19 56.5344ZM285.957 30.9816L274.397 57.7044C273.224 60.606 271.765 62.6496 270.021 63.8352C268.308 65.0208 266.231 65.6136 263.789 65.6136C262.457 65.6136 261.141 65.4108 259.841 65.0052C258.541 64.5996 257.479 64.038 256.654 63.3204L259.366 58.1256C259.936 58.6248 260.586 59.0148 261.316 59.2956C262.077 59.5764 262.822 59.7168 263.552 59.7168C264.566 59.7168 265.391 59.4672 266.025 58.968C266.659 58.5 267.23 57.7044 267.738 56.5812L267.833 56.3472L256.749 30.9816H264.408L271.591 48.0636L278.821 30.9816H285.957Z" fill="#263A5D"/>
</g>
<defs>
<linearGradient id="paint0_linear" x1="0" y1="0" x2="85.6492" y2="0" gradientUnits="userSpaceOnUse">
<stop stop-color="#5E2CED"/>
<stop offset="1" stop-color="#4E62BB"/>
</linearGradient>
<clipPath id="clip0">
<rect width="287" height="78" fill="white"/>
</clipPath>
</defs>
</svg>
